<?xml version="1.0" encoding="utf-8" standalone="no"?>
<!DOCTYPE svg PUBLIC "-//W3C//DTD SVG 1.1//EN"
  "http://www.w3.org/Graphics/SVG/1.1/DTD/svg11.dtd">
<!-- Created with matplotlib (https://matplotlib.org/) -->
<svg height="345.6pt" version="1.1" viewBox="0 0 460.8 345.6" width="460.8pt" xmlns="http://www.w3.org/2000/svg" xmlns:xlink="http://www.w3.org/1999/xlink">
 <defs>
  <style type="text/css">
*{stroke-linecap:butt;stroke-linejoin:round;}
  </style>
 </defs>
 <g id="figure_1">
  <g id="patch_1">
   <path d="M 0 345.6 
L 460.8 345.6 
L 460.8 0 
L 0 0 
z
" style="fill:#ffffff;"/>
  </g>
  <g id="axes_1">
   <g id="patch_2">
    <path d="M 57.6 307.584 
L 414.72 307.584 
L 414.72 41.472 
L 57.6 41.472 
z
" style="fill:#ffffff;"/>
   </g>
   <g id="matplotlib.axis_1">
    <g id="xtick_1">
     <g id="line2d_1">
      <defs>
       <path d="M 0 0 
L 0 3.5 
" id="mac1b7a6f13" style="stroke:#000000;stroke-width:0.8;"/>
      </defs>
      <g>
       <use style="stroke:#000000;stroke-width:0.8;" x="73.832727" xlink:href="#mac1b7a6f13" y="307.584"/>
      </g>
     </g>
     <g id="text_1">
      <!-- 0 -->
      <defs>
       <path d="M 31.78125 66.40625 
Q 24.171875 66.40625 20.328125 58.90625 
Q 16.5 51.421875 16.5 36.375 
Q 16.5 21.390625 20.328125 13.890625 
Q 24.171875 6.390625 31.78125 6.390625 
Q 39.453125 6.390625 43.28125 13.890625 
Q 47.125 21.390625 47.125 36.375 
Q 47.125 51.421875 43.28125 58.90625 
Q 39.453125 66.40625 31.78125 66.40625 
z
M 31.78125 74.21875 
Q 44.046875 74.21875 50.515625 64.515625 
Q 56.984375 54.828125 56.984375 36.375 
Q 56.984375 17.96875 50.515625 8.265625 
Q 44.046875 -1.421875 31.78125 -1.421875 
Q 19.53125 -1.421875 13.0625 8.265625 
Q 6.59375 17.96875 6.59375 36.375 
Q 6.59375 54.828125 13.0625 64.515625 
Q 19.53125 74.21875 31.78125 74.21875 
z
" id="DejaVuSans-48"/>
      </defs>
      <g transform="translate(70.651477 322.182437)scale(0.1 -0.1)">
       <use xlink:href="#DejaVuSans-48"/>
      </g>
     </g>
    </g>
    <g id="xtick_2">
     <g id="line2d_2">
      <g>
       <use style="stroke:#000000;stroke-width:0.8;" x="116.27123" xlink:href="#mac1b7a6f13" y="307.584"/>
      </g>
     </g>
     <g id="text_2">
      <!-- 20 -->
      <defs>
       <path d="M 19.1875 8.296875 
L 53.609375 8.296875 
L 53.609375 0 
L 7.328125 0 
L 7.328125 8.296875 
Q 12.9375 14.109375 22.625 23.890625 
Q 32.328125 33.6875 34.8125 36.53125 
Q 39.546875 41.84375 41.421875 45.53125 
Q 43.3125 49.21875 43.3125 52.78125 
Q 43.3125 58.59375 39.234375 62.25 
Q 35.15625 65.921875 28.609375 65.921875 
Q 23.96875 65.921875 18.8125 64.3125 
Q 13.671875 62.703125 7.8125 59.421875 
L 7.8125 69.390625 
Q 13.765625 71.78125 18.9375 73 
Q 24.125 74.21875 28.421875 74.21875 
Q 39.75 74.21875 46.484375 68.546875 
Q 53.21875 62.890625 53.21875 53.421875 
Q 53.21875 48.921875 51.53125 44.890625 
Q 49.859375 40.875 45.40625 35.40625 
Q 44.1875 33.984375 37.640625 27.21875 
Q 31.109375 20.453125 19.1875 8.296875 
z
" id="DejaVuSans-50"/>
      </defs>
      <g transform="translate(109.90873 322.182437)scale(0.1 -0.1)">
       <use xlink:href="#DejaVuSans-50"/>
       <use x="63.623047" xlink:href="#DejaVuSans-48"/>
      </g>
     </g>
    </g>
    <g id="xtick_3">
     <g id="line2d_3">
      <g>
       <use style="stroke:#000000;stroke-width:0.8;" x="158.709733" xlink:href="#mac1b7a6f13" y="307.584"/>
      </g>
     </g>
     <g id="text_3">
      <!-- 40 -->
      <defs>
       <path d="M 37.796875 64.3125 
L 12.890625 25.390625 
L 37.796875 25.390625 
z
M 35.203125 72.90625 
L 47.609375 72.90625 
L 47.609375 25.390625 
L 58.015625 25.390625 
L 58.015625 17.1875 
L 47.609375 17.1875 
L 47.609375 0 
L 37.796875 0 
L 37.796875 17.1875 
L 4.890625 17.1875 
L 4.890625 26.703125 
z
" id="DejaVuSans-52"/>
      </defs>
      <g transform="translate(152.347233 322.182437)scale(0.1 -0.1)">
       <use xlink:href="#DejaVuSans-52"/>
       <use x="63.623047" xlink:href="#DejaVuSans-48"/>
      </g>
     </g>
    </g>
    <g id="xtick_4">
     <g id="line2d_4">
      <g>
       <use style="stroke:#000000;stroke-width:0.8;" x="201.148235" xlink:href="#mac1b7a6f13" y="307.584"/>
      </g>
     </g>
     <g id="text_4">
      <!-- 60 -->
      <defs>
       <path d="M 33.015625 40.375 
Q 26.375 40.375 22.484375 35.828125 
Q 18.609375 31.296875 18.609375 23.390625 
Q 18.609375 15.53125 22.484375 10.953125 
Q 26.375 6.390625 33.015625 6.390625 
Q 39.65625 6.390625 43.53125 10.953125 
Q 47.40625 15.53125 47.40625 23.390625 
Q 47.40625 31.296875 43.53125 35.828125 
Q 39.65625 40.375 33.015625 40.375 
z
M 52.59375 71.296875 
L 52.59375 62.3125 
Q 48.875 64.0625 45.09375 64.984375 
Q 41.3125 65.921875 37.59375 65.921875 
Q 27.828125 65.921875 22.671875 59.328125 
Q 17.53125 52.734375 16.796875 39.40625 
Q 19.671875 43.65625 24.015625 45.921875 
Q 28.375 48.1875 33.59375 48.1875 
Q 44.578125 48.1875 50.953125 41.515625 
Q 57.328125 34.859375 57.328125 23.390625 
Q 57.328125 12.15625 50.6875 5.359375 
Q 44.046875 -1.421875 33.015625 -1.421875 
Q 20.359375 -1.421875 13.671875 8.265625 
Q 6.984375 17.96875 6.984375 36.375 
Q 6.984375 53.65625 15.1875 63.9375 
Q 23.390625 74.21875 37.203125 74.21875 
Q 40.921875 74.21875 44.703125 73.484375 
Q 48.484375 72.75 52.59375 71.296875 
z
" id="DejaVuSans-54"/>
      </defs>
      <g transform="translate(194.785735 322.182437)scale(0.1 -0.1)">
       <use xlink:href="#DejaVuSans-54"/>
       <use x="63.623047" xlink:href="#DejaVuSans-48"/>
      </g>
     </g>
    </g>
    <g id="xtick_5">
     <g id="line2d_5">
      <g>
       <use style="stroke:#000000;stroke-width:0.8;" x="243.586738" xlink:href="#mac1b7a6f13" y="307.584"/>
      </g>
     </g>
     <g id="text_5">
      <!-- 80 -->
      <defs>
       <path d="M 31.78125 34.625 
Q 24.75 34.625 20.71875 30.859375 
Q 16.703125 27.09375 16.703125 20.515625 
Q 16.703125 13.921875 20.71875 10.15625 
Q 24.75 6.390625 31.78125 6.390625 
Q 38.8125 6.390625 42.859375 10.171875 
Q 46.921875 13.96875 46.921875 20.515625 
Q 46.921875 27.09375 42.890625 30.859375 
Q 38.875 34.625 31.78125 34.625 
z
M 21.921875 38.8125 
Q 15.578125 40.375 12.03125 44.71875 
Q 8.5 49.078125 8.5 55.328125 
Q 8.5 64.0625 14.71875 69.140625 
Q 20.953125 74.21875 31.78125 74.21875 
Q 42.671875 74.21875 48.875 69.140625 
Q 55.078125 64.0625 55.078125 55.328125 
Q 55.078125 49.078125 51.53125 44.71875 
Q 48 40.375 41.703125 38.8125 
Q 48.828125 37.15625 52.796875 32.3125 
Q 56.78125 27.484375 56.78125 20.515625 
Q 56.78125 9.90625 50.3125 4.234375 
Q 43.84375 -1.421875 31.78125 -1.421875 
Q 19.734375 -1.421875 13.25 4.234375 
Q 6.78125 9.90625 6.78125 20.515625 
Q 6.78125 27.484375 10.78125 32.3125 
Q 14.796875 37.15625 21.921875 38.8125 
z
M 18.3125 54.390625 
Q 18.3125 48.734375 21.84375 45.5625 
Q 25.390625 42.390625 31.78125 42.390625 
Q 38.140625 42.390625 41.71875 45.5625 
Q 45.3125 48.734375 45.3125 54.390625 
Q 45.3125 60.0625 41.71875 63.234375 
Q 38.140625 66.40625 31.78125 66.40625 
Q 25.390625 66.40625 21.84375 63.234375 
Q 18.3125 60.0625 18.3125 54.390625 
z
" id="DejaVuSans-56"/>
      </defs>
      <g transform="translate(237.224238 322.182437)scale(0.1 -0.1)">
       <use xlink:href="#DejaVuSans-56"/>
       <use x="63.623047" xlink:href="#DejaVuSans-48"/>
      </g>
     </g>
    </g>
    <g id="xtick_6">
     <g id="line2d_6">
      <g>
       <use style="stroke:#000000;stroke-width:0.8;" x="286.025241" xlink:href="#mac1b7a6f13" y="307.584"/>
      </g>
     </g>
     <g id="text_6">
      <!-- 100 -->
      <defs>
       <path d="M 12.40625 8.296875 
L 28.515625 8.296875 
L 28.515625 63.921875 
L 10.984375 60.40625 
L 10.984375 69.390625 
L 28.421875 72.90625 
L 38.28125 72.90625 
L 38.28125 8.296875 
L 54.390625 8.296875 
L 54.390625 0 
L 12.40625 0 
z
" id="DejaVuSans-49"/>
      </defs>
      <g transform="translate(276.481491 322.182437)scale(0.1 -0.1)">
       <use xlink:href="#DejaVuSans-49"/>
       <use x="63.623047" xlink:href="#DejaVuSans-48"/>
       <use x="127.246094" xlink:href="#DejaVuSans-48"/>
      </g>
     </g>
    </g>
    <g id="xtick_7">
     <g id="line2d_7">
      <g>
       <use style="stroke:#000000;stroke-width:0.8;" x="328.463743" xlink:href="#mac1b7a6f13" y="307.584"/>
      </g>
     </g>
     <g id="text_7">
      <!-- 120 -->
      <g transform="translate(318.919993 322.182437)scale(0.1 -0.1)">
       <use xlink:href="#DejaVuSans-49"/>
       <use x="63.623047" xlink:href="#DejaVuSans-50"/>
       <use x="127.246094" xlink:href="#DejaVuSans-48"/>
      </g>
     </g>
    </g>
    <g id="xtick_8">
     <g id="line2d_8">
      <g>
       <use style="stroke:#000000;stroke-width:0.8;" x="370.902246" xlink:href="#mac1b7a6f13" y="307.584"/>
      </g>
     </g>
     <g id="text_8">
      <!-- 140 -->
      <g transform="translate(361.358496 322.182437)scale(0.1 -0.1)">
       <use xlink:href="#DejaVuSans-49"/>
       <use x="63.623047" xlink:href="#DejaVuSans-52"/>
       <use x="127.246094" xlink:href="#DejaVuSans-48"/>
      </g>
     </g>
    </g>
    <g id="xtick_9">
     <g id="line2d_9">
      <g>
       <use style="stroke:#000000;stroke-width:0.8;" x="413.340749" xlink:href="#mac1b7a6f13" y="307.584"/>
      </g>
     </g>
     <g id="text_9">
      <!-- 160 -->
      <g transform="translate(403.796999 322.182437)scale(0.1 -0.1)">
       <use xlink:href="#DejaVuSans-49"/>
       <use x="63.623047" xlink:href="#DejaVuSans-54"/>
       <use x="127.246094" xlink:href="#DejaVuSans-48"/>
      </g>
     </g>
    </g>
   </g>
   <g id="matplotlib.axis_2">
    <g id="ytick_1">
     <g id="line2d_10">
      <defs>
       <path d="M 0 0 
L -3.5 0 
" id="m01d39b5615" style="stroke:#000000;stroke-width:0.8;"/>
      </defs>
      <g>
       <use style="stroke:#000000;stroke-width:0.8;" x="57.6" xlink:href="#m01d39b5615" y="295.488"/>
      </g>
     </g>
     <g id="text_10">
      <!-- 0 -->
      <g transform="translate(44.2375 299.287219)scale(0.1 -0.1)">
       <use xlink:href="#DejaVuSans-48"/>
      </g>
     </g>
    </g>
    <g id="ytick_2">
     <g id="line2d_11">
      <g>
       <use style="stroke:#000000;stroke-width:0.8;" x="57.6" xlink:href="#m01d39b5615" y="264.041847"/>
      </g>
     </g>
     <g id="text_11">
      <!-- 10000 -->
      <g transform="translate(18.7875 267.841065)scale(0.1 -0.1)">
       <use xlink:href="#DejaVuSans-49"/>
       <use x="63.623047" xlink:href="#DejaVuSans-48"/>
       <use x="127.246094" xlink:href="#DejaVuSans-48"/>
       <use x="190.869141" xlink:href="#DejaVuSans-48"/>
       <use x="254.492188" xlink:href="#DejaVuSans-48"/>
      </g>
     </g>
    </g>
    <g id="ytick_3">
     <g id="line2d_12">
      <g>
       <use style="stroke:#000000;stroke-width:0.8;" x="57.6" xlink:href="#m01d39b5615" y="232.595693"/>
      </g>
     </g>
     <g id="text_12">
      <!-- 20000 -->
      <g transform="translate(18.7875 236.394912)scale(0.1 -0.1)">
       <use xlink:href="#DejaVuSans-50"/>
       <use x="63.623047" xlink:href="#DejaVuSans-48"/>
       <use x="127.246094" xlink:href="#DejaVuSans-48"/>
       <use x="190.869141" xlink:href="#DejaVuSans-48"/>
       <use x="254.492188" xlink:href="#DejaVuSans-48"/>
      </g>
     </g>
    </g>
    <g id="ytick_4">
     <g id="line2d_13">
      <g>
       <use style="stroke:#000000;stroke-width:0.8;" x="57.6" xlink:href="#m01d39b5615" y="201.14954"/>
      </g>
     </g>
     <g id="text_13">
      <!-- 30000 -->
      <defs>
       <path d="M 40.578125 39.3125 
Q 47.65625 37.796875 51.625 33 
Q 55.609375 28.21875 55.609375 21.1875 
Q 55.609375 10.40625 48.1875 4.484375 
Q 40.765625 -1.421875 27.09375 -1.421875 
Q 22.515625 -1.421875 17.65625 -0.515625 
Q 12.796875 0.390625 7.625 2.203125 
L 7.625 11.71875 
Q 11.71875 9.328125 16.59375 8.109375 
Q 21.484375 6.890625 26.8125 6.890625 
Q 36.078125 6.890625 40.9375 10.546875 
Q 45.796875 14.203125 45.796875 21.1875 
Q 45.796875 27.640625 41.28125 31.265625 
Q 36.765625 34.90625 28.71875 34.90625 
L 20.21875 34.90625 
L 20.21875 43.015625 
L 29.109375 43.015625 
Q 36.375 43.015625 40.234375 45.921875 
Q 44.09375 48.828125 44.09375 54.296875 
Q 44.09375 59.90625 40.109375 62.90625 
Q 36.140625 65.921875 28.71875 65.921875 
Q 24.65625 65.921875 20.015625 65.03125 
Q 15.375 64.15625 9.8125 62.3125 
L 9.8125 71.09375 
Q 15.4375 72.65625 20.34375 73.4375 
Q 25.25 74.21875 29.59375 74.21875 
Q 40.828125 74.21875 47.359375 69.109375 
Q 53.90625 64.015625 53.90625 55.328125 
Q 53.90625 49.265625 50.4375 45.09375 
Q 46.96875 40.921875 40.578125 39.3125 
z
" id="DejaVuSans-51"/>
      </defs>
      <g transform="translate(18.7875 204.948758)scale(0.1 -0.1)">
       <use xlink:href="#DejaVuSans-51"/>
       <use x="63.623047" xlink:href="#DejaVuSans-48"/>
       <use x="127.246094" xlink:href="#DejaVuSans-48"/>
       <use x="190.869141" xlink:href="#DejaVuSans-48"/>
       <use x="254.492188" xlink:href="#DejaVuSans-48"/>
      </g>
     </g>
    </g>
    <g id="ytick_5">
     <g id="line2d_14">
      <g>
       <use style="stroke:#000000;stroke-width:0.8;" x="57.6" xlink:href="#m01d39b5615" y="169.703386"/>
      </g>
     </g>
     <g id="text_14">
      <!-- 40000 -->
      <g transform="translate(18.7875 173.502605)scale(0.1 -0.1)">
       <use xlink:href="#DejaVuSans-52"/>
       <use x="63.623047" xlink:href="#DejaVuSans-48"/>
       <use x="127.246094" xlink:href="#DejaVuSans-48"/>
       <use x="190.869141" xlink:href="#DejaVuSans-48"/>
       <use x="254.492188" xlink:href="#DejaVuSans-48"/>
      </g>
     </g>
    </g>
    <g id="ytick_6">
     <g id="line2d_15">
      <g>
       <use style="stroke:#000000;stroke-width:0.8;" x="57.6" xlink:href="#m01d39b5615" y="138.257233"/>
      </g>
     </g>
     <g id="text_15">
      <!-- 50000 -->
      <defs>
       <path d="M 10.796875 72.90625 
L 49.515625 72.90625 
L 49.515625 64.59375 
L 19.828125 64.59375 
L 19.828125 46.734375 
Q 21.96875 47.46875 24.109375 47.828125 
Q 26.265625 48.1875 28.421875 48.1875 
Q 40.625 48.1875 47.75 41.5 
Q 54.890625 34.8125 54.890625 23.390625 
Q 54.890625 11.625 47.5625 5.09375 
Q 40.234375 -1.421875 26.90625 -1.421875 
Q 22.3125 -1.421875 17.546875 -0.640625 
Q 12.796875 0.140625 7.71875 1.703125 
L 7.71875 11.625 
Q 12.109375 9.234375 16.796875 8.0625 
Q 21.484375 6.890625 26.703125 6.890625 
Q 35.15625 6.890625 40.078125 11.328125 
Q 45.015625 15.765625 45.015625 23.390625 
Q 45.015625 31 40.078125 35.4375 
Q 35.15625 39.890625 26.703125 39.890625 
Q 22.75 39.890625 18.8125 39.015625 
Q 14.890625 38.140625 10.796875 36.28125 
z
" id="DejaVuSans-53"/>
      </defs>
      <g transform="translate(18.7875 142.056452)scale(0.1 -0.1)">
       <use xlink:href="#DejaVuSans-53"/>
       <use x="63.623047" xlink:href="#DejaVuSans-48"/>
       <use x="127.246094" xlink:href="#DejaVuSans-48"/>
       <use x="190.869141" xlink:href="#DejaVuSans-48"/>
       <use x="254.492188" xlink:href="#DejaVuSans-48"/>
      </g>
     </g>
    </g>
    <g id="ytick_7">
     <g id="line2d_16">
      <g>
       <use style="stroke:#000000;stroke-width:0.8;" x="57.6" xlink:href="#m01d39b5615" y="106.811079"/>
      </g>
     </g>
     <g id="text_16">
      <!-- 60000 -->
      <g transform="translate(18.7875 110.610298)scale(0.1 -0.1)">
       <use xlink:href="#DejaVuSans-54"/>
       <use x="63.623047" xlink:href="#DejaVuSans-48"/>
       <use x="127.246094" xlink:href="#DejaVuSans-48"/>
       <use x="190.869141" xlink:href="#DejaVuSans-48"/>
       <use x="254.492188" xlink:href="#DejaVuSans-48"/>
      </g>
     </g>
    </g>
    <g id="ytick_8">
     <g id="line2d_17">
      <g>
       <use style="stroke:#000000;stroke-width:0.8;" x="57.6" xlink:href="#m01d39b5615" y="75.364926"/>
      </g>
     </g>
     <g id="text_17">
      <!-- 70000 -->
      <defs>
       <path d="M 8.203125 72.90625 
L 55.078125 72.90625 
L 55.078125 68.703125 
L 28.609375 0 
L 18.3125 0 
L 43.21875 64.59375 
L 8.203125 64.59375 
z
" id="DejaVuSans-55"/>
      </defs>
      <g transform="translate(18.7875 79.164145)scale(0.1 -0.1)">
       <use xlink:href="#DejaVuSans-55"/>
       <use x="63.623047" xlink:href="#DejaVuSans-48"/>
       <use x="127.246094" xlink:href="#DejaVuSans-48"/>
       <use x="190.869141" xlink:href="#DejaVuSans-48"/>
       <use x="254.492188" xlink:href="#DejaVuSans-48"/>
      </g>
     </g>
    </g>
    <g id="ytick_9">
     <g id="line2d_18">
      <g>
       <use style="stroke:#000000;stroke-width:0.8;" x="57.6" xlink:href="#m01d39b5615" y="43.918773"/>
      </g>
     </g>
     <g id="text_18">
      <!-- 80000 -->
      <g transform="translate(18.7875 47.717991)scale(0.1 -0.1)">
       <use xlink:href="#DejaVuSans-56"/>
       <use x="63.623047" xlink:href="#DejaVuSans-48"/>
       <use x="127.246094" xlink:href="#DejaVuSans-48"/>
       <use x="190.869141" xlink:href="#DejaVuSans-48"/>
       <use x="254.492188" xlink:href="#DejaVuSans-48"/>
      </g>
     </g>
    </g>
    <g id="text_19">
     <!-- Mean Root Square Error -->
     <defs>
      <path d="M 9.8125 72.90625 
L 24.515625 72.90625 
L 43.109375 23.296875 
L 61.8125 72.90625 
L 76.515625 72.90625 
L 76.515625 0 
L 66.890625 0 
L 66.890625 64.015625 
L 48.09375 14.015625 
L 38.1875 14.015625 
L 19.390625 64.015625 
L 19.390625 0 
L 9.8125 0 
z
" id="DejaVuSans-77"/>
      <path d="M 56.203125 29.59375 
L 56.203125 25.203125 
L 14.890625 25.203125 
Q 15.484375 15.921875 20.484375 11.0625 
Q 25.484375 6.203125 34.421875 6.203125 
Q 39.59375 6.203125 44.453125 7.46875 
Q 49.3125 8.734375 54.109375 11.28125 
L 54.109375 2.78125 
Q 49.265625 0.734375 44.1875 -0.34375 
Q 39.109375 -1.421875 33.890625 -1.421875 
Q 20.796875 -1.421875 13.15625 6.1875 
Q 5.515625 13.8125 5.515625 26.8125 
Q 5.515625 40.234375 12.765625 48.109375 
Q 20.015625 56 32.328125 56 
Q 43.359375 56 49.78125 48.890625 
Q 56.203125 41.796875 56.203125 29.59375 
z
M 47.21875 32.234375 
Q 47.125 39.59375 43.09375 43.984375 
Q 39.0625 48.390625 32.421875 48.390625 
Q 24.90625 48.390625 20.390625 44.140625 
Q 15.875 39.890625 15.1875 32.171875 
z
" id="DejaVuSans-101"/>
      <path d="M 34.28125 27.484375 
Q 23.390625 27.484375 19.1875 25 
Q 14.984375 22.515625 14.984375 16.5 
Q 14.984375 11.71875 18.140625 8.90625 
Q 21.296875 6.109375 26.703125 6.109375 
Q 34.1875 6.109375 38.703125 11.40625 
Q 43.21875 16.703125 43.21875 25.484375 
L 43.21875 27.484375 
z
M 52.203125 31.203125 
L 52.203125 0 
L 43.21875 0 
L 43.21875 8.296875 
Q 40.140625 3.328125 35.546875 0.953125 
Q 30.953125 -1.421875 24.3125 -1.421875 
Q 15.921875 -1.421875 10.953125 3.296875 
Q 6 8.015625 6 15.921875 
Q 6 25.140625 12.171875 29.828125 
Q 18.359375 34.515625 30.609375 34.515625 
L 43.21875 34.515625 
L 43.21875 35.40625 
Q 43.21875 41.609375 39.140625 45 
Q 35.0625 48.390625 27.6875 48.390625 
Q 23 48.390625 18.546875 47.265625 
Q 14.109375 46.140625 10.015625 43.890625 
L 10.015625 52.203125 
Q 14.9375 54.109375 19.578125 55.046875 
Q 24.21875 56 28.609375 56 
Q 40.484375 56 46.34375 49.84375 
Q 52.203125 43.703125 52.203125 31.203125 
z
" id="DejaVuSans-97"/>
      <path d="M 54.890625 33.015625 
L 54.890625 0 
L 45.90625 0 
L 45.90625 32.71875 
Q 45.90625 40.484375 42.875 44.328125 
Q 39.84375 48.1875 33.796875 48.1875 
Q 26.515625 48.1875 22.3125 43.546875 
Q 18.109375 38.921875 18.109375 30.90625 
L 18.109375 0 
L 9.078125 0 
L 9.078125 54.6875 
L 18.109375 54.6875 
L 18.109375 46.1875 
Q 21.34375 51.125 25.703125 53.5625 
Q 30.078125 56 35.796875 56 
Q 45.21875 56 50.046875 50.171875 
Q 54.890625 44.34375 54.890625 33.015625 
z
" id="DejaVuSans-110"/>
      <path id="DejaVuSans-32"/>
      <path d="M 44.390625 34.1875 
Q 47.5625 33.109375 50.5625 29.59375 
Q 53.5625 26.078125 56.59375 19.921875 
L 66.609375 0 
L 56 0 
L 46.6875 18.703125 
Q 43.0625 26.03125 39.671875 28.421875 
Q 36.28125 30.8125 30.421875 30.8125 
L 19.671875 30.8125 
L 19.671875 0 
L 9.8125 0 
L 9.8125 72.90625 
L 32.078125 72.90625 
Q 44.578125 72.90625 50.734375 67.671875 
Q 56.890625 62.453125 56.890625 51.90625 
Q 56.890625 45.015625 53.6875 40.46875 
Q 50.484375 35.9375 44.390625 34.1875 
z
M 19.671875 64.796875 
L 19.671875 38.921875 
L 32.078125 38.921875 
Q 39.203125 38.921875 42.84375 42.21875 
Q 46.484375 45.515625 46.484375 51.90625 
Q 46.484375 58.296875 42.84375 61.546875 
Q 39.203125 64.796875 32.078125 64.796875 
z
" id="DejaVuSans-82"/>
      <path d="M 30.609375 48.390625 
Q 23.390625 48.390625 19.1875 42.75 
Q 14.984375 37.109375 14.984375 27.296875 
Q 14.984375 17.484375 19.15625 11.84375 
Q 23.34375 6.203125 30.609375 6.203125 
Q 37.796875 6.203125 41.984375 11.859375 
Q 46.1875 17.53125 46.1875 27.296875 
Q 46.1875 37.015625 41.984375 42.703125 
Q 37.796875 48.390625 30.609375 48.390625 
z
M 30.609375 56 
Q 42.328125 56 49.015625 48.375 
Q 55.71875 40.765625 55.71875 27.296875 
Q 55.71875 13.875 49.015625 6.21875 
Q 42.328125 -1.421875 30.609375 -1.421875 
Q 18.84375 -1.421875 12.171875 6.21875 
Q 5.515625 13.875 5.515625 27.296875 
Q 5.515625 40.765625 12.171875 48.375 
Q 18.84375 56 30.609375 56 
z
" id="DejaVuSans-111"/>
      <path d="M 18.3125 70.21875 
L 18.3125 54.6875 
L 36.8125 54.6875 
L 36.8125 47.703125 
L 18.3125 47.703125 
L 18.3125 18.015625 
Q 18.3125 11.328125 20.140625 9.421875 
Q 21.96875 7.515625 27.59375 7.515625 
L 36.8125 7.515625 
L 36.8125 0 
L 27.59375 0 
Q 17.1875 0 13.234375 3.875 
Q 9.28125 7.765625 9.28125 18.015625 
L 9.28125 47.703125 
L 2.6875 47.703125 
L 2.6875 54.6875 
L 9.28125 54.6875 
L 9.28125 70.21875 
z
" id="DejaVuSans-116"/>
      <path d="M 53.515625 70.515625 
L 53.515625 60.890625 
Q 47.90625 63.578125 42.921875 64.890625 
Q 37.9375 66.21875 33.296875 66.21875 
Q 25.25 66.21875 20.875 63.09375 
Q 16.5 59.96875 16.5 54.203125 
Q 16.5 49.359375 19.40625 46.890625 
Q 22.3125 44.4375 30.421875 42.921875 
L 36.375 41.703125 
Q 47.40625 39.59375 52.65625 34.296875 
Q 57.90625 29 57.90625 20.125 
Q 57.90625 9.515625 50.796875 4.046875 
Q 43.703125 -1.421875 29.984375 -1.421875 
Q 24.8125 -1.421875 18.96875 -0.25 
Q 13.140625 0.921875 6.890625 3.21875 
L 6.890625 13.375 
Q 12.890625 10.015625 18.65625 8.296875 
Q 24.421875 6.59375 29.984375 6.59375 
Q 38.421875 6.59375 43.015625 9.90625 
Q 47.609375 13.234375 47.609375 19.390625 
Q 47.609375 24.75 44.3125 27.78125 
Q 41.015625 30.8125 33.5 32.328125 
L 27.484375 33.5 
Q 16.453125 35.6875 11.515625 40.375 
Q 6.59375 45.0625 6.59375 53.421875 
Q 6.59375 63.09375 13.40625 68.65625 
Q 20.21875 74.21875 32.171875 74.21875 
Q 37.3125 74.21875 42.625 73.28125 
Q 47.953125 72.359375 53.515625 70.515625 
z
" id="DejaVuSans-83"/>
      <path d="M 14.796875 27.296875 
Q 14.796875 17.390625 18.875 11.75 
Q 22.953125 6.109375 30.078125 6.109375 
Q 37.203125 6.109375 41.296875 11.75 
Q 45.40625 17.390625 45.40625 27.296875 
Q 45.40625 37.203125 41.296875 42.84375 
Q 37.203125 48.484375 30.078125 48.484375 
Q 22.953125 48.484375 18.875 42.84375 
Q 14.796875 37.203125 14.796875 27.296875 
z
M 45.40625 8.203125 
Q 42.578125 3.328125 38.25 0.953125 
Q 33.9375 -1.421875 27.875 -1.421875 
Q 17.96875 -1.421875 11.734375 6.484375 
Q 5.515625 14.40625 5.515625 27.296875 
Q 5.515625 40.1875 11.734375 48.09375 
Q 17.96875 56 27.875 56 
Q 33.9375 56 38.25 53.625 
Q 42.578125 51.265625 45.40625 46.390625 
L 45.40625 54.6875 
L 54.390625 54.6875 
L 54.390625 -20.796875 
L 45.40625 -20.796875 
z
" id="DejaVuSans-113"/>
      <path d="M 8.5 21.578125 
L 8.5 54.6875 
L 17.484375 54.6875 
L 17.484375 21.921875 
Q 17.484375 14.15625 20.5 10.265625 
Q 23.53125 6.390625 29.59375 6.390625 
Q 36.859375 6.390625 41.078125 11.03125 
Q 45.3125 15.671875 45.3125 23.6875 
L 45.3125 54.6875 
L 54.296875 54.6875 
L 54.296875 0 
L 45.3125 0 
L 45.3125 8.40625 
Q 42.046875 3.421875 37.71875 1 
Q 33.40625 -1.421875 27.6875 -1.421875 
Q 18.265625 -1.421875 13.375 4.4375 
Q 8.5 10.296875 8.5 21.578125 
z
M 31.109375 56 
z
" id="DejaVuSans-117"/>
      <path d="M 41.109375 46.296875 
Q 39.59375 47.171875 37.8125 47.578125 
Q 36.03125 48 33.890625 48 
Q 26.265625 48 22.1875 43.046875 
Q 18.109375 38.09375 18.109375 28.8125 
L 18.109375 0 
L 9.078125 0 
L 9.078125 54.6875 
L 18.109375 54.6875 
L 18.109375 46.1875 
Q 20.953125 51.171875 25.484375 53.578125 
Q 30.03125 56 36.53125 56 
Q 37.453125 56 38.578125 55.875 
Q 39.703125 55.765625 41.0625 55.515625 
z
" id="DejaVuSans-114"/>
      <path d="M 9.8125 72.90625 
L 55.90625 72.90625 
L 55.90625 64.59375 
L 19.671875 64.59375 
L 19.671875 43.015625 
L 54.390625 43.015625 
L 54.390625 34.71875 
L 19.671875 34.71875 
L 19.671875 8.296875 
L 56.78125 8.296875 
L 56.78125 0 
L 9.8125 0 
z
" id="DejaVuSans-69"/>
     </defs>
     <g transform="translate(12.707812 234.032688)rotate(-90)scale(0.1 -0.1)">
      <use xlink:href="#DejaVuSans-77"/>
      <use x="86.279297" xlink:href="#DejaVuSans-101"/>
      <use x="147.802734" xlink:href="#DejaVuSans-97"/>
      <use x="209.082031" xlink:href="#DejaVuSans-110"/>
      <use x="272.460938" xlink:href="#DejaVuSans-32"/>
      <use x="304.248047" xlink:href="#DejaVuSans-82"/>
      <use x="369.230469" xlink:href="#DejaVuSans-111"/>
      <use x="430.412109" xlink:href="#DejaVuSans-111"/>
      <use x="491.59375" xlink:href="#DejaVuSans-116"/>
      <use x="530.802734" xlink:href="#DejaVuSans-32"/>
      <use x="562.589844" xlink:href="#DejaVuSans-83"/>
      <use x="626.066406" xlink:href="#DejaVuSans-113"/>
      <use x="689.542969" xlink:href="#DejaVuSans-117"/>
      <use x="752.921875" xlink:href="#DejaVuSans-97"/>
      <use x="814.201172" xlink:href="#DejaVuSans-114"/>
      <use x="853.064453" xlink:href="#DejaVuSans-101"/>
      <use x="914.587891" xlink:href="#DejaVuSans-32"/>
      <use x="946.375" xlink:href="#DejaVuSans-69"/>
      <use x="1009.558594" xlink:href="#DejaVuSans-114"/>
      <use x="1048.921875" xlink:href="#DejaVuSans-114"/>
      <use x="1087.785156" xlink:href="#DejaVuSans-111"/>
      <use x="1148.966797" xlink:href="#DejaVuSans-114"/>
     </g>
    </g>
   </g>
   <g id="line2d_19">
    <path clip-path="url(#p16f941f974)" d="M 73.832727 152.832525 
L 75.954652 135.364187 
L 78.076578 159.823005 
L 80.198503 175.70174 
L 82.320428 195.523299 
L 84.442353 281.223239 
L 86.564278 281.887539 
L 88.686203 263.73053 
L 90.808128 258.001041 
L 92.930053 261.856339 
L 95.051979 259.753377 
L 97.173904 234.022562 
L 99.295829 249.419385 
L 101.417754 248.963416 
L 103.539679 269.710016 
L 105.661604 246.362819 
L 107.783529 172.83752 
L 109.905455 184.297022 
L 112.02738 171.326008 
L 114.149305 150.697331 
L 116.27123 176.254668 
L 118.393155 115.639587 
L 120.51508 69.649588 
L 122.637005 60.824225 
L 124.75893 155.898525 
L 126.880856 215.965919 
L 129.002781 225.007736 
L 131.124706 211.456017 
L 133.246631 205.59917 
L 135.368556 177.672366 
L 137.490481 189.26514 
L 139.612406 161.159017 
L 141.734332 149.941725 
L 143.856257 138.003418 
L 145.978182 160.020217 
L 148.100107 190.837448 
L 150.222032 187.236582 
L 152.343957 207.33657 
L 154.465882 228.509939 
L 156.587807 184.694217 
L 158.709733 230.910703 
L 160.831658 214.700586 
L 162.953583 209.285109 
L 165.075508 213.510124 
L 167.197433 200.388094 
L 169.319358 215.962924 
L 171.441283 222.333016 
L 173.563209 211.324617 
L 175.685134 206.625663 
L 177.807059 193.708032 
L 179.928984 203.059894 
L 182.050909 211.309268 
L 184.172834 198.149053 
L 186.294759 181.841602 
L 188.416684 168.375909 
L 190.53861 179.117017 
L 192.660535 156.417386 
L 194.78246 171.026745 
L 196.904385 108.915351 
L 199.02631 142.015048 
L 201.148235 176.991032 
L 203.27016 177.695202 
L 207.514011 194.786935 
L 209.635936 162.526925 
L 211.757861 141.972371 
L 213.879786 114.243602 
L 216.001711 137.667618 
L 218.123636 126.658843 
L 220.245561 105.490341 
L 222.367487 163.65674 
L 224.489412 170.122668 
L 226.611337 109.581486 
L 228.733262 163.102315 
L 230.855187 180.404063 
L 232.977112 191.95154 
L 235.099037 178.508309 
L 237.220963 182.813812 
L 239.342888 204.757986 
L 241.464813 214.495811 
L 243.586738 165.804063 
L 245.708663 157.4897 
L 247.830588 197.902724 
L 249.952513 189.25346 
L 252.074439 170.036716 
L 254.196364 176.590094 
L 256.318289 164.406956 
L 258.440214 157.931294 
L 260.562139 173.668222 
L 262.684064 166.121145 
L 264.805989 221.609755 
L 269.04984 244.264462 
L 271.171765 245.777921 
L 273.29369 262.583531 
L 275.415615 264.324862 
L 277.53754 261.798688 
L 279.659465 254.490077 
L 281.78139 229.210739 
L 283.903316 156.43573 
L 286.025241 151.740894 
L 288.147166 104.659638 
L 290.269091 63.263398 
L 292.391016 147.163233 
L 294.512941 113.244438 
L 296.634866 128.468495 
L 298.756791 177.634555 
L 300.878717 164.905227 
L 303.000642 131.016756 
L 305.122567 174.498925 
L 307.244492 190.116432 
L 309.366417 211.406227 
L 311.488342 230.718358 
L 315.732193 174.307627 
L 317.854118 161.260094 
L 319.976043 159.62175 
L 322.097968 186.17855 
L 324.219893 120.621182 
L 326.341818 115.702479 
L 330.585668 191.713073 
L 332.707594 203.513242 
L 334.829519 210.745109 
L 336.951444 239.17318 
L 339.073369 211.23477 
L 341.195294 243.025334 
L 343.317219 192.324401 
L 345.439144 146.226212 
L 347.56107 170.873632 
L 349.682995 182.946709 
L 351.80492 143.713141 
L 353.926845 124.061541 
L 356.04877 152.922371 
L 358.170695 136.473787 
L 360.29262 150.185152 
L 362.414545 88.237634 
L 364.536471 66.020177 
L 366.658396 194.615478 
L 368.780321 197.935743 
L 370.902246 257.997896 
L 373.024171 197.200427 
L 375.146096 169.664079 
L 377.268021 202.341873 
L 379.389947 203.595601 
L 381.511872 221.416586 
L 383.633797 180.983122 
L 385.755722 152.26335 
L 387.877647 225.526598 
L 389.999572 243.014852 
L 392.121497 212.996878 
L 394.243422 206.82557 
L 396.365348 215.627349 
L 398.487273 211.93557 
L 398.487273 211.93557 
" style="fill:none;stroke:#ff0000;stroke-linecap:square;stroke-width:1.5;"/>
   </g>
   <g id="line2d_20">
    <path clip-path="url(#p16f941f974)" d="M 73.832727 208.451752 
L 75.954652 186.124287 
L 78.076578 118.572204 
L 80.198503 167.158487 
L 82.320428 186.355306 
L 84.442353 237.076583 
L 86.564278 236.728634 
L 88.686203 233.960915 
L 90.808128 241.814764 
L 92.930053 237.342415 
L 95.051979 216.627402 
L 97.173904 216.231592 
L 99.295829 183.884108 
L 101.417754 197.911871 
L 103.539679 230.22976 
L 105.661604 217.044267 
L 107.783529 204.771477 
L 109.905455 137.096506 
L 112.02738 144.188479 
L 114.149305 141.532793 
L 116.27123 148.260336 
L 118.393155 83.097666 
L 120.51508 65.527424 
L 122.637005 92.366685 
L 124.75893 108.437652 
L 126.880856 151.078247 
L 129.002781 185.713901 
L 131.124706 170.841204 
L 133.246631 201.146506 
L 135.368556 122.589717 
L 137.490481 157.818337 
L 139.612406 133.125404 
L 141.734332 99.832941 
L 143.856257 90.472369 
L 145.978182 87.47684 
L 148.100107 144.993333 
L 150.222032 173.725026 
L 152.343957 157.606589 
L 154.465882 191.013769 
L 156.587807 126.535359 
L 158.709733 144.298114 
L 160.831658 149.496384 
L 162.953583 172.559411 
L 165.075508 178.870586 
L 167.197433 180.396573 
L 169.319358 186.965741 
L 171.441283 187.539449 
L 173.563209 168.563855 
L 175.685134 136.726955 
L 177.807059 181.206973 
L 179.928984 167.503315 
L 182.050909 154.967546 
L 184.172834 146.234052 
L 186.294759 129.903772 
L 188.416684 117.910976 
L 190.53861 150.132733 
L 192.660535 136.904227 
L 194.78246 182.491076 
L 196.904385 136.058825 
L 199.02631 135.532475 
L 201.148235 178.793963 
L 203.27016 162.825648 
L 205.392086 141.185355 
L 207.514011 133.700769 
L 209.635936 128.671799 
L 211.757861 101.880671 
L 213.879786 93.461412 
L 216.001711 53.568 
L 218.123636 100.997836 
L 220.245561 108.138646 
L 222.367487 164.761423 
L 224.489412 192.874158 
L 226.611337 143.042821 
L 228.733262 175.83194 
L 230.855187 182.410471 
L 232.977112 196.695712 
L 235.099037 169.810758 
L 237.220963 153.82238 
L 239.342888 167.400855 
L 241.464813 198.694199 
L 243.586738 145.806868 
L 245.708663 133.36319 
L 247.830588 168.815756 
L 249.952513 156.751813 
L 252.074439 126.258404 
L 254.196364 154.012884 
L 256.318289 138.210599 
L 258.440214 164.13995 
L 260.562139 156.889764 
L 262.684064 172.404287 
L 264.805989 186.784111 
L 266.927914 210.60961 
L 269.04984 228.556546 
L 271.171765 194.286158 
L 273.29369 183.325281 
L 275.415615 201.654548 
L 277.53754 212.138335 
L 279.659465 218.683393 
L 281.78139 202.520986 
L 283.903316 178.369641 
L 286.025241 171.805425 
L 288.147166 92.666451 
L 290.269091 99.995295 
L 292.391016 137.637352 
L 294.512941 137.917291 
L 296.634866 111.509112 
L 298.756791 128.877076 
L 300.878717 152.726819 
L 303.000642 152.550772 
L 305.122567 166.283095 
L 307.244492 185.51025 
L 309.366417 195.260456 
L 311.488342 251.004821 
L 313.610267 189.964792 
L 315.732193 224.861853 
L 317.854118 185.578289 
L 319.976043 143.244414 
L 322.097968 163.076051 
L 324.219893 115.274358 
L 326.341818 140.444889 
L 328.463743 133.068534 
L 330.585668 192.297616 
L 332.707594 199.351078 
L 334.829519 189.986847 
L 336.951444 174.608614 
L 339.073369 199.112262 
L 341.195294 191.505903 
L 343.317219 170.090924 
L 345.439144 151.903603 
L 347.56107 165.653333 
L 349.682995 158.693422 
L 351.80492 123.225545 
L 353.926845 98.868458 
L 356.04877 113.135323 
L 358.170695 139.129094 
L 360.29262 152.323357 
L 362.414545 87.287935 
L 364.536471 66.162339 
L 366.658396 182.845807 
L 368.780321 187.24284 
L 370.902246 232.800299 
L 373.024171 173.021723 
L 375.146096 182.050865 
L 377.268021 204.150073 
L 379.389947 177.288316 
L 381.511872 200.062135 
L 383.633797 150.288913 
L 385.755722 165.135802 
L 387.877647 184.972237 
L 389.999572 174.412998 
L 392.121497 166.531737 
L 394.243422 200.431783 
L 396.365348 229.748907 
L 398.487273 229.412369 
L 398.487273 229.412369 
" style="fill:none;stroke:#0000ff;stroke-linecap:square;stroke-width:1.5;"/>
   </g>
   <g id="line2d_21">
    <path clip-path="url(#p16f941f974)" d="M 73.832727 236.212001 
L 75.954652 204.765847 
L 78.076578 115.301541 
L 80.198503 171.537745 
L 82.320428 182.910771 
L 84.442353 285.268 
L 86.564278 287.312 
L 88.686203 284.230277 
L 90.808128 284.230277 
L 92.930053 289.324554 
L 95.051979 295.488 
L 99.295829 295.488 
L 101.417754 276.856154 
L 103.539679 276.856154 
L 105.661604 218.507816 
L 107.783529 203.088719 
L 109.905455 129.924002 
L 112.02738 162.911017 
L 114.149305 172.53354 
L 116.27123 160.584002 
L 118.393155 80.448721 
L 120.51508 67.450977 
L 122.637005 116.748064 
L 124.75893 136.789746 
L 126.880856 169.231694 
L 129.002781 235.362955 
L 131.124706 194.074155 
L 133.246631 219.545539 
L 135.368556 136.999387 
L 137.490481 181.787694 
L 139.612406 149.038771 
L 141.734332 101.734772 
L 143.856257 73.163695 
L 145.978182 104.699695 
L 148.100107 157.708925 
L 150.222032 178.311771 
L 152.343957 187.889745 
L 154.465882 222.128616 
L 156.587807 157.124925 
L 158.709733 196.275386 
L 160.831658 192.97354 
L 162.953583 207.393847 
L 165.075508 189.155078 
L 167.197433 221.320001 
L 169.319358 203.35077 
L 171.441283 191.401232 
L 173.563209 191.401232 
L 175.685134 177.20554 
L 177.807059 215.704616 
L 179.928984 207.805642 
L 182.050909 191.663283 
L 184.172834 192.344617 
L 186.294759 176.486771 
L 188.416684 156.136617 
L 190.53861 195.219694 
L 192.660535 168.265848 
L 194.78246 220.803386 
L 196.904385 212.941847 
L 199.02631 176.097438 
L 201.148235 221.013027 
L 203.27016 199.98154 
L 205.392086 181.518155 
L 207.514011 167.135284 
L 209.635936 143.917541 
L 211.757861 115.526156 
L 213.879786 112.875695 
L 216.001711 82.440311 
L 218.123636 117.502772 
L 220.245561 141.611489 
L 222.367487 192.299694 
L 224.489412 227.040206 
L 226.611337 212.658832 
L 228.733262 227.93118 
L 230.855187 190.143386 
L 232.977112 204.51877 
L 235.099037 187.994566 
L 237.220963 161.684617 
L 239.342888 179.870976 
L 241.464813 196.118155 
L 243.586738 106.86349 
L 245.708663 115.175756 
L 247.830588 177.826976 
L 249.952513 182.659202 
L 252.074439 145.80431 
L 254.196364 180.70954 
L 256.318289 168.220925 
L 258.440214 163.728617 
L 260.562139 156.862874 
L 262.684064 155.762258 
L 264.805989 174.734771 
L 266.927914 209.954463 
L 269.04984 230.035078 
L 271.171765 215.174524 
L 273.29369 199.184155 
L 275.415615 205.614894 
L 277.53754 225.83477 
L 279.659465 228.717334 
L 281.78139 230.439385 
L 283.903316 166.087079 
L 286.025241 155.912002 
L 288.147166 101.674874 
L 290.269091 75.469747 
L 292.391016 148.814156 
L 294.512941 149.577848 
L 296.634866 106.631387 
L 298.756791 187.762463 
L 300.878717 219.388309 
L 303.000642 219.388309 
L 305.122567 170.826463 
L 307.244492 192.120001 
L 309.366417 217.291898 
L 311.488342 291.337108 
L 313.610267 220.457478 
L 315.732193 235.163796 
L 317.854118 206.023694 
L 319.976043 148.760248 
L 322.097968 189.619283 
L 324.219893 143.655489 
L 326.341818 166.873233 
L 328.463743 114.148515 
L 330.585668 193.235591 
L 332.707594 202.302565 
L 334.829519 189.559386 
L 336.951444 170.332309 
L 339.073369 188.211694 
L 341.195294 203.717642 
L 343.317219 187.403078 
L 345.439144 202.564617 
L 347.56107 169.388925 
L 349.682995 179.721232 
L 351.80492 149.630258 
L 353.926845 116.963695 
L 356.04877 164.35754 
L 358.170695 162.515694 
L 360.29262 163.610694 
L 362.414545 110.225233 
L 364.536471 85.899387 
L 366.658396 211.347078 
L 368.780321 216.43237 
L 370.902246 256.243201 
L 373.024171 213.256309 
L 375.146096 224.472104 
L 377.268021 221.851591 
L 379.389947 200.026463 
L 381.511872 202.946463 
L 383.633797 131.08751 
L 385.755722 143.540187 
L 387.877647 201.275324 
L 389.999572 205.971283 
L 392.121497 188.728309 
L 394.243422 188.728309 
L 396.365348 236.620801 
L 398.487273 221.904001 
L 398.487273 221.904001 
" style="fill:none;stroke:#008000;stroke-linecap:square;stroke-width:1.5;"/>
   </g>
   <g id="patch_3">
    <path d="M 57.6 307.584 
L 57.6 41.472 
" style="fill:none;stroke:#000000;stroke-linecap:square;stroke-linejoin:miter;stroke-width:0.8;"/>
   </g>
   <g id="patch_4">
    <path d="M 414.72 307.584 
L 414.72 41.472 
" style="fill:none;stroke:#000000;stroke-linecap:square;stroke-linejoin:miter;stroke-width:0.8;"/>
   </g>
   <g id="patch_5">
    <path d="M 57.6 307.584 
L 414.72 307.584 
" style="fill:none;stroke:#000000;stroke-linecap:square;stroke-linejoin:miter;stroke-width:0.8;"/>
   </g>
   <g id="patch_6">
    <path d="M 57.6 41.472 
L 414.72 41.472 
" style="fill:none;stroke:#000000;stroke-linecap:square;stroke-linejoin:miter;stroke-width:0.8;"/>
   </g>
   <g id="text_20">
    <!-- Compare monthly errors for Generated data with -->
    <defs>
     <path d="M 64.40625 67.28125 
L 64.40625 56.890625 
Q 59.421875 61.53125 53.78125 63.8125 
Q 48.140625 66.109375 41.796875 66.109375 
Q 29.296875 66.109375 22.65625 58.46875 
Q 16.015625 50.828125 16.015625 36.375 
Q 16.015625 21.96875 22.65625 14.328125 
Q 29.296875 6.6875 41.796875 6.6875 
Q 48.140625 6.6875 53.78125 8.984375 
Q 59.421875 11.28125 64.40625 15.921875 
L 64.40625 5.609375 
Q 59.234375 2.09375 53.4375 0.328125 
Q 47.65625 -1.421875 41.21875 -1.421875 
Q 24.65625 -1.421875 15.125 8.703125 
Q 5.609375 18.84375 5.609375 36.375 
Q 5.609375 53.953125 15.125 64.078125 
Q 24.65625 74.21875 41.21875 74.21875 
Q 47.75 74.21875 53.53125 72.484375 
Q 59.328125 70.75 64.40625 67.28125 
z
" id="DejaVuSans-67"/>
     <path d="M 52 44.1875 
Q 55.375 50.25 60.0625 53.125 
Q 64.75 56 71.09375 56 
Q 79.640625 56 84.28125 50.015625 
Q 88.921875 44.046875 88.921875 33.015625 
L 88.921875 0 
L 79.890625 0 
L 79.890625 32.71875 
Q 79.890625 40.578125 77.09375 44.375 
Q 74.3125 48.1875 68.609375 48.1875 
Q 61.625 48.1875 57.5625 43.546875 
Q 53.515625 38.921875 53.515625 30.90625 
L 53.515625 0 
L 44.484375 0 
L 44.484375 32.71875 
Q 44.484375 40.625 41.703125 44.40625 
Q 38.921875 48.1875 33.109375 48.1875 
Q 26.21875 48.1875 22.15625 43.53125 
Q 18.109375 38.875 18.109375 30.90625 
L 18.109375 0 
L 9.078125 0 
L 9.078125 54.6875 
L 18.109375 54.6875 
L 18.109375 46.1875 
Q 21.1875 51.21875 25.484375 53.609375 
Q 29.78125 56 35.6875 56 
Q 41.65625 56 45.828125 52.96875 
Q 50 49.953125 52 44.1875 
z
" id="DejaVuSans-109"/>
     <path d="M 18.109375 8.203125 
L 18.109375 -20.796875 
L 9.078125 -20.796875 
L 9.078125 54.6875 
L 18.109375 54.6875 
L 18.109375 46.390625 
Q 20.953125 51.265625 25.265625 53.625 
Q 29.59375 56 35.59375 56 
Q 45.5625 56 51.78125 48.09375 
Q 58.015625 40.1875 58.015625 27.296875 
Q 58.015625 14.40625 51.78125 6.484375 
Q 45.5625 -1.421875 35.59375 -1.421875 
Q 29.59375 -1.421875 25.265625 0.953125 
Q 20.953125 3.328125 18.109375 8.203125 
z
M 48.6875 27.296875 
Q 48.6875 37.203125 44.609375 42.84375 
Q 40.53125 48.484375 33.40625 48.484375 
Q 26.265625 48.484375 22.1875 42.84375 
Q 18.109375 37.203125 18.109375 27.296875 
Q 18.109375 17.390625 22.1875 11.75 
Q 26.265625 6.109375 33.40625 6.109375 
Q 40.53125 6.109375 44.609375 11.75 
Q 48.6875 17.390625 48.6875 27.296875 
z
" id="DejaVuSans-112"/>
     <path d="M 54.890625 33.015625 
L 54.890625 0 
L 45.90625 0 
L 45.90625 32.71875 
Q 45.90625 40.484375 42.875 44.328125 
Q 39.84375 48.1875 33.796875 48.1875 
Q 26.515625 48.1875 22.3125 43.546875 
Q 18.109375 38.921875 18.109375 30.90625 
L 18.109375 0 
L 9.078125 0 
L 9.078125 75.984375 
L 18.109375 75.984375 
L 18.109375 46.1875 
Q 21.34375 51.125 25.703125 53.5625 
Q 30.078125 56 35.796875 56 
Q 45.21875 56 50.046875 50.171875 
Q 54.890625 44.34375 54.890625 33.015625 
z
" id="DejaVuSans-104"/>
     <path d="M 9.421875 75.984375 
L 18.40625 75.984375 
L 18.40625 0 
L 9.421875 0 
z
" id="DejaVuSans-108"/>
     <path d="M 32.171875 -5.078125 
Q 28.375 -14.84375 24.75 -17.8125 
Q 21.140625 -20.796875 15.09375 -20.796875 
L 7.90625 -20.796875 
L 7.90625 -13.28125 
L 13.1875 -13.28125 
Q 16.890625 -13.28125 18.9375 -11.515625 
Q 21 -9.765625 23.484375 -3.21875 
L 25.09375 0.875 
L 2.984375 54.6875 
L 12.5 54.6875 
L 29.59375 11.921875 
L 46.6875 54.6875 
L 56.203125 54.6875 
z
" id="DejaVuSans-121"/>
     <path d="M 44.28125 53.078125 
L 44.28125 44.578125 
Q 40.484375 46.53125 36.375 47.5 
Q 32.28125 48.484375 27.875 48.484375 
Q 21.1875 48.484375 17.84375 46.4375 
Q 14.5 44.390625 14.5 40.28125 
Q 14.5 37.15625 16.890625 35.375 
Q 19.28125 33.59375 26.515625 31.984375 
L 29.59375 31.296875 
Q 39.15625 29.25 43.1875 25.515625 
Q 47.21875 21.78125 47.21875 15.09375 
Q 47.21875 7.46875 41.1875 3.015625 
Q 35.15625 -1.421875 24.609375 -1.421875 
Q 20.21875 -1.421875 15.453125 -0.5625 
Q 10.6875 0.296875 5.421875 2 
L 5.421875 11.28125 
Q 10.40625 8.6875 15.234375 7.390625 
Q 20.0625 6.109375 24.8125 6.109375 
Q 31.15625 6.109375 34.5625 8.28125 
Q 37.984375 10.453125 37.984375 14.40625 
Q 37.984375 18.0625 35.515625 20.015625 
Q 33.0625 21.96875 24.703125 23.78125 
L 21.578125 24.515625 
Q 13.234375 26.265625 9.515625 29.90625 
Q 5.8125 33.546875 5.8125 39.890625 
Q 5.8125 47.609375 11.28125 51.796875 
Q 16.75 56 26.8125 56 
Q 31.78125 56 36.171875 55.265625 
Q 40.578125 54.546875 44.28125 53.078125 
z
" id="DejaVuSans-115"/>
     <path d="M 37.109375 75.984375 
L 37.109375 68.5 
L 28.515625 68.5 
Q 23.6875 68.5 21.796875 66.546875 
Q 19.921875 64.59375 19.921875 59.515625 
L 19.921875 54.6875 
L 34.71875 54.6875 
L 34.71875 47.703125 
L 19.921875 47.703125 
L 19.921875 0 
L 10.890625 0 
L 10.890625 47.703125 
L 2.296875 47.703125 
L 2.296875 54.6875 
L 10.890625 54.6875 
L 10.890625 58.5 
Q 10.890625 67.625 15.140625 71.796875 
Q 19.390625 75.984375 28.609375 75.984375 
z
" id="DejaVuSans-102"/>
     <path d="M 59.515625 10.40625 
L 59.515625 29.984375 
L 43.40625 29.984375 
L 43.40625 38.09375 
L 69.28125 38.09375 
L 69.28125 6.78125 
Q 63.578125 2.734375 56.6875 0.65625 
Q 49.8125 -1.421875 42 -1.421875 
Q 24.90625 -1.421875 15.25 8.5625 
Q 5.609375 18.5625 5.609375 36.375 
Q 5.609375 54.25 15.25 64.234375 
Q 24.90625 74.21875 42 74.21875 
Q 49.125 74.21875 55.546875 72.453125 
Q 61.96875 70.703125 67.390625 67.28125 
L 67.390625 56.78125 
Q 61.921875 61.421875 55.765625 63.765625 
Q 49.609375 66.109375 42.828125 66.109375 
Q 29.4375 66.109375 22.71875 58.640625 
Q 16.015625 51.171875 16.015625 36.375 
Q 16.015625 21.625 22.71875 14.15625 
Q 29.4375 6.6875 42.828125 6.6875 
Q 48.046875 6.6875 52.140625 7.59375 
Q 56.25 8.5 59.515625 10.40625 
z
" id="DejaVuSans-71"/>
     <path d="M 45.40625 46.390625 
L 45.40625 75.984375 
L 54.390625 75.984375 
L 54.390625 0 
L 45.40625 0 
L 45.40625 8.203125 
Q 42.578125 3.328125 38.25 0.953125 
Q 33.9375 -1.421875 27.875 -1.421875 
Q 17.96875 -1.421875 11.734375 6.484375 
Q 5.515625 14.40625 5.515625 27.296875 
Q 5.515625 40.1875 11.734375 48.09375 
Q 17.96875 56 27.875 56 
Q 33.9375 56 38.25 53.625 
Q 42.578125 51.265625 45.40625 46.390625 
z
M 14.796875 27.296875 
Q 14.796875 17.390625 18.875 11.75 
Q 22.953125 6.109375 30.078125 6.109375 
Q 37.203125 6.109375 41.296875 11.75 
Q 45.40625 17.390625 45.40625 27.296875 
Q 45.40625 37.203125 41.296875 42.84375 
Q 37.203125 48.484375 30.078125 48.484375 
Q 22.953125 48.484375 18.875 42.84375 
Q 14.796875 37.203125 14.796875 27.296875 
z
" id="DejaVuSans-100"/>
     <path d="M 4.203125 54.6875 
L 13.1875 54.6875 
L 24.421875 12.015625 
L 35.59375 54.6875 
L 46.1875 54.6875 
L 57.421875 12.015625 
L 68.609375 54.6875 
L 77.59375 54.6875 
L 63.28125 0 
L 52.6875 0 
L 40.921875 44.828125 
L 29.109375 0 
L 18.5 0 
z
" id="DejaVuSans-119"/>
     <path d="M 9.421875 54.6875 
L 18.40625 54.6875 
L 18.40625 0 
L 9.421875 0 
z
M 9.421875 75.984375 
L 18.40625 75.984375 
L 18.40625 64.59375 
L 9.421875 64.59375 
z
" id="DejaVuSans-105"/>
    </defs>
    <g transform="translate(88.839375 8.59725)scale(0.12 -0.12)">
     <use xlink:href="#DejaVuSans-67"/>
     <use x="69.824219" xlink:href="#DejaVuSans-111"/>
     <use x="131.005859" xlink:href="#DejaVuSans-109"/>
     <use x="228.417969" xlink:href="#DejaVuSans-112"/>
     <use x="291.894531" xlink:href="#DejaVuSans-97"/>
     <use x="353.173828" xlink:href="#DejaVuSans-114"/>
     <use x="392.037109" xlink:href="#DejaVuSans-101"/>
     <use x="453.560547" xlink:href="#DejaVuSans-32"/>
     <use x="485.347656" xlink:href="#DejaVuSans-109"/>
     <use x="582.759766" xlink:href="#DejaVuSans-111"/>
     <use x="643.941406" xlink:href="#DejaVuSans-110"/>
     <use x="707.320312" xlink:href="#DejaVuSans-116"/>
     <use x="746.529297" xlink:href="#DejaVuSans-104"/>
     <use x="809.908203" xlink:href="#DejaVuSans-108"/>
     <use x="837.691406" xlink:href="#DejaVuSans-121"/>
     <use x="896.871094" xlink:href="#DejaVuSans-32"/>
     <use x="928.658203" xlink:href="#DejaVuSans-101"/>
     <use x="990.181641" xlink:href="#DejaVuSans-114"/>
     <use x="1029.544922" xlink:href="#DejaVuSans-114"/>
     <use x="1068.408203" xlink:href="#DejaVuSans-111"/>
     <use x="1129.589844" xlink:href="#DejaVuSans-114"/>
     <use x="1170.703125" xlink:href="#DejaVuSans-115"/>
     <use x="1222.802734" xlink:href="#DejaVuSans-32"/>
     <use x="1254.589844" xlink:href="#DejaVuSans-102"/>
     <use x="1289.794922" xlink:href="#DejaVuSans-111"/>
     <use x="1350.976562" xlink:href="#DejaVuSans-114"/>
     <use x="1392.089844" xlink:href="#DejaVuSans-32"/>
     <use x="1423.876953" xlink:href="#DejaVuSans-71"/>
     <use x="1501.367188" xlink:href="#DejaVuSans-101"/>
     <use x="1562.890625" xlink:href="#DejaVuSans-110"/>
     <use x="1626.269531" xlink:href="#DejaVuSans-101"/>
     <use x="1687.792969" xlink:href="#DejaVuSans-114"/>
     <use x="1728.90625" xlink:href="#DejaVuSans-97"/>
     <use x="1790.185547" xlink:href="#DejaVuSans-116"/>
     <use x="1829.394531" xlink:href="#DejaVuSans-101"/>
     <use x="1890.917969" xlink:href="#DejaVuSans-100"/>
     <use x="1954.394531" xlink:href="#DejaVuSans-32"/>
     <use x="1986.181641" xlink:href="#DejaVuSans-100"/>
     <use x="2049.658203" xlink:href="#DejaVuSans-97"/>
     <use x="2110.9375" xlink:href="#DejaVuSans-116"/>
     <use x="2150.146484" xlink:href="#DejaVuSans-97"/>
     <use x="2211.425781" xlink:href="#DejaVuSans-32"/>
     <use x="2243.212891" xlink:href="#DejaVuSans-119"/>
     <use x="2325" xlink:href="#DejaVuSans-105"/>
     <use x="2352.783203" xlink:href="#DejaVuSans-116"/>
     <use x="2391.992188" xlink:href="#DejaVuSans-104"/>
    </g>
    <!-- Logistic Regression with  -->
    <defs>
     <path d="M 9.8125 72.90625 
L 19.671875 72.90625 
L 19.671875 8.296875 
L 55.171875 8.296875 
L 55.171875 0 
L 9.8125 0 
z
" id="DejaVuSans-76"/>
     <path d="M 45.40625 27.984375 
Q 45.40625 37.75 41.375 43.109375 
Q 37.359375 48.484375 30.078125 48.484375 
Q 22.859375 48.484375 18.828125 43.109375 
Q 14.796875 37.75 14.796875 27.984375 
Q 14.796875 18.265625 18.828125 12.890625 
Q 22.859375 7.515625 30.078125 7.515625 
Q 37.359375 7.515625 41.375 12.890625 
Q 45.40625 18.265625 45.40625 27.984375 
z
M 54.390625 6.78125 
Q 54.390625 -7.171875 48.1875 -13.984375 
Q 42 -20.796875 29.203125 -20.796875 
Q 24.46875 -20.796875 20.265625 -20.09375 
Q 16.0625 -19.390625 12.109375 -17.921875 
L 12.109375 -9.1875 
Q 16.0625 -11.328125 19.921875 -12.34375 
Q 23.78125 -13.375 27.78125 -13.375 
Q 36.625 -13.375 41.015625 -8.765625 
Q 45.40625 -4.15625 45.40625 5.171875 
L 45.40625 9.625 
Q 42.625 4.78125 38.28125 2.390625 
Q 33.9375 0 27.875 0 
Q 17.828125 0 11.671875 7.65625 
Q 5.515625 15.328125 5.515625 27.984375 
Q 5.515625 40.671875 11.671875 48.328125 
Q 17.828125 56 27.875 56 
Q 33.9375 56 38.28125 53.609375 
Q 42.625 51.21875 45.40625 46.390625 
L 45.40625 54.6875 
L 54.390625 54.6875 
z
" id="DejaVuSans-103"/>
     <path d="M 48.78125 52.59375 
L 48.78125 44.1875 
Q 44.96875 46.296875 41.140625 47.34375 
Q 37.3125 48.390625 33.40625 48.390625 
Q 24.65625 48.390625 19.8125 42.84375 
Q 14.984375 37.3125 14.984375 27.296875 
Q 14.984375 17.28125 19.8125 11.734375 
Q 24.65625 6.203125 33.40625 6.203125 
Q 37.3125 6.203125 41.140625 7.25 
Q 44.96875 8.296875 48.78125 10.40625 
L 48.78125 2.09375 
Q 45.015625 0.34375 40.984375 -0.53125 
Q 36.96875 -1.421875 32.421875 -1.421875 
Q 20.0625 -1.421875 12.78125 6.34375 
Q 5.515625 14.109375 5.515625 27.296875 
Q 5.515625 40.671875 12.859375 48.328125 
Q 20.21875 56 33.015625 56 
Q 37.15625 56 41.109375 55.140625 
Q 45.0625 54.296875 48.78125 52.59375 
z
" id="DejaVuSans-99"/>
    </defs>
    <g transform="translate(162.066563 22.034625)scale(0.12 -0.12)">
     <use xlink:href="#DejaVuSans-76"/>
     <use x="53.962891" xlink:href="#DejaVuSans-111"/>
     <use x="115.144531" xlink:href="#DejaVuSans-103"/>
     <use x="178.621094" xlink:href="#DejaVuSans-105"/>
     <use x="206.404297" xlink:href="#DejaVuSans-115"/>
     <use x="258.503906" xlink:href="#DejaVuSans-116"/>
     <use x="297.712891" xlink:href="#DejaVuSans-105"/>
     <use x="325.496094" xlink:href="#DejaVuSans-99"/>
     <use x="380.476562" xlink:href="#DejaVuSans-32"/>
     <use x="412.263672" xlink:href="#DejaVuSans-82"/>
     <use x="477.246094" xlink:href="#DejaVuSans-101"/>
     <use x="538.769531" xlink:href="#DejaVuSans-103"/>
     <use x="602.246094" xlink:href="#DejaVuSans-114"/>
     <use x="641.109375" xlink:href="#DejaVuSans-101"/>
     <use x="702.632812" xlink:href="#DejaVuSans-115"/>
     <use x="754.732422" xlink:href="#DejaVuSans-115"/>
     <use x="806.832031" xlink:href="#DejaVuSans-105"/>
     <use x="834.615234" xlink:href="#DejaVuSans-111"/>
     <use x="895.796875" xlink:href="#DejaVuSans-110"/>
     <use x="959.175781" xlink:href="#DejaVuSans-32"/>
     <use x="990.962891" xlink:href="#DejaVuSans-119"/>
     <use x="1072.75" xlink:href="#DejaVuSans-105"/>
     <use x="1100.533203" xlink:href="#DejaVuSans-116"/>
     <use x="1139.742188" xlink:href="#DejaVuSans-104"/>
     <use x="1203.121094" xlink:href="#DejaVuSans-32"/>
    </g>
    <!--  solver: sag and C = 0.1 -->
    <defs>
     <path d="M 2.984375 54.6875 
L 12.5 54.6875 
L 29.59375 8.796875 
L 46.6875 54.6875 
L 56.203125 54.6875 
L 35.6875 0 
L 23.484375 0 
z
" id="DejaVuSans-118"/>
     <path d="M 11.71875 12.40625 
L 22.015625 12.40625 
L 22.015625 0 
L 11.71875 0 
z
M 11.71875 51.703125 
L 22.015625 51.703125 
L 22.015625 39.3125 
L 11.71875 39.3125 
z
" id="DejaVuSans-58"/>
     <path d="M 10.59375 45.40625 
L 73.1875 45.40625 
L 73.1875 37.203125 
L 10.59375 37.203125 
z
M 10.59375 25.484375 
L 73.1875 25.484375 
L 73.1875 17.1875 
L 10.59375 17.1875 
z
" id="DejaVuSans-61"/>
     <path d="M 10.6875 12.40625 
L 21 12.40625 
L 21 0 
L 10.6875 0 
z
" id="DejaVuSans-46"/>
    </defs>
    <g transform="translate(163.969688 35.472)scale(0.12 -0.12)">
     <use xlink:href="#DejaVuSans-32"/>
     <use x="31.787109" xlink:href="#DejaVuSans-115"/>
     <use x="83.886719" xlink:href="#DejaVuSans-111"/>
     <use x="145.068359" xlink:href="#DejaVuSans-108"/>
     <use x="172.851562" xlink:href="#DejaVuSans-118"/>
     <use x="232.03125" xlink:href="#DejaVuSans-101"/>
     <use x="293.554688" xlink:href="#DejaVuSans-114"/>
     <use x="332.917969" xlink:href="#DejaVuSans-58"/>
     <use x="366.609375" xlink:href="#DejaVuSans-32"/>
     <use x="398.396484" xlink:href="#DejaVuSans-115"/>
     <use x="450.496094" xlink:href="#DejaVuSans-97"/>
     <use x="511.775391" xlink:href="#DejaVuSans-103"/>
     <use x="575.251953" xlink:href="#DejaVuSans-32"/>
     <use x="607.039062" xlink:href="#DejaVuSans-97"/>
     <use x="668.318359" xlink:href="#DejaVuSans-110"/>
     <use x="731.697266" xlink:href="#DejaVuSans-100"/>
     <use x="795.173828" xlink:href="#DejaVuSans-32"/>
     <use x="826.960938" xlink:href="#DejaVuSans-67"/>
     <use x="896.785156" xlink:href="#DejaVuSans-32"/>
     <use x="928.572266" xlink:href="#DejaVuSans-61"/>
     <use x="1012.361328" xlink:href="#DejaVuSans-32"/>
     <use x="1044.148438" xlink:href="#DejaVuSans-48"/>
     <use x="1107.771484" xlink:href="#DejaVuSans-46"/>
     <use x="1139.558594" xlink:href="#DejaVuSans-49"/>
    </g>
   </g>
   <g id="legend_1">
    <g id="patch_7">
     <path d="M 141.799062 302.584 
L 330.520938 302.584 
Q 332.520938 302.584 332.520938 300.584 
L 332.520938 257.549625 
Q 332.520938 255.549625 330.520938 255.549625 
L 141.799062 255.549625 
Q 139.799062 255.549625 139.799062 257.549625 
L 139.799062 300.584 
Q 139.799062 302.584 141.799062 302.584 
z
" style="fill:#ffffff;opacity:0.8;stroke:#cccccc;stroke-linejoin:miter;"/>
    </g>
    <g id="line2d_22">
     <path d="M 143.799062 263.648062 
L 163.799062 263.648062 
" style="fill:none;stroke:#ff0000;stroke-linecap:square;stroke-width:1.5;"/>
    </g>
    <g id="line2d_23"/>
    <g id="text_21">
     <!-- Guessed Revenue -->
     <g transform="translate(171.799062 267.148062)scale(0.1 -0.1)">
      <use xlink:href="#DejaVuSans-71"/>
      <use x="77.490234" xlink:href="#DejaVuSans-117"/>
      <use x="140.869141" xlink:href="#DejaVuSans-101"/>
      <use x="202.392578" xlink:href="#DejaVuSans-115"/>
      <use x="254.492188" xlink:href="#DejaVuSans-115"/>
      <use x="306.591797" xlink:href="#DejaVuSans-101"/>
      <use x="368.115234" xlink:href="#DejaVuSans-100"/>
      <use x="431.591797" xlink:href="#DejaVuSans-32"/>
      <use x="463.378906" xlink:href="#DejaVuSans-82"/>
      <use x="528.361328" xlink:href="#DejaVuSans-101"/>
      <use x="589.884766" xlink:href="#DejaVuSans-118"/>
      <use x="649.064453" xlink:href="#DejaVuSans-101"/>
      <use x="710.587891" xlink:href="#DejaVuSans-110"/>
      <use x="773.966797" xlink:href="#DejaVuSans-117"/>
      <use x="837.345703" xlink:href="#DejaVuSans-101"/>
     </g>
    </g>
    <g id="line2d_24">
     <path d="M 143.799062 278.326188 
L 163.799062 278.326188 
" style="fill:none;stroke:#0000ff;stroke-linecap:square;stroke-width:1.5;"/>
    </g>
    <g id="line2d_25"/>
    <g id="text_22">
     <!-- Weighted Predicted Revenue -->
     <defs>
      <path d="M 3.328125 72.90625 
L 13.28125 72.90625 
L 28.609375 11.28125 
L 43.890625 72.90625 
L 54.984375 72.90625 
L 70.3125 11.28125 
L 85.59375 72.90625 
L 95.609375 72.90625 
L 77.296875 0 
L 64.890625 0 
L 49.515625 63.28125 
L 33.984375 0 
L 21.578125 0 
z
" id="DejaVuSans-87"/>
      <path d="M 19.671875 64.796875 
L 19.671875 37.40625 
L 32.078125 37.40625 
Q 38.96875 37.40625 42.71875 40.96875 
Q 46.484375 44.53125 46.484375 51.125 
Q 46.484375 57.671875 42.71875 61.234375 
Q 38.96875 64.796875 32.078125 64.796875 
z
M 9.8125 72.90625 
L 32.078125 72.90625 
Q 44.34375 72.90625 50.609375 67.359375 
Q 56.890625 61.8125 56.890625 51.125 
Q 56.890625 40.328125 50.609375 34.8125 
Q 44.34375 29.296875 32.078125 29.296875 
L 19.671875 29.296875 
L 19.671875 0 
L 9.8125 0 
z
" id="DejaVuSans-80"/>
     </defs>
     <g transform="translate(171.799062 281.826188)scale(0.1 -0.1)">
      <use xlink:href="#DejaVuSans-87"/>
      <use x="93.001953" xlink:href="#DejaVuSans-101"/>
      <use x="154.525391" xlink:href="#DejaVuSans-105"/>
      <use x="182.308594" xlink:href="#DejaVuSans-103"/>
      <use x="245.785156" xlink:href="#DejaVuSans-104"/>
      <use x="309.164062" xlink:href="#DejaVuSans-116"/>
      <use x="348.373047" xlink:href="#DejaVuSans-101"/>
      <use x="409.896484" xlink:href="#DejaVuSans-100"/>
      <use x="473.373047" xlink:href="#DejaVuSans-32"/>
      <use x="505.160156" xlink:href="#DejaVuSans-80"/>
      <use x="563.712891" xlink:href="#DejaVuSans-114"/>
      <use x="602.576172" xlink:href="#DejaVuSans-101"/>
      <use x="664.099609" xlink:href="#DejaVuSans-100"/>
      <use x="727.576172" xlink:href="#DejaVuSans-105"/>
      <use x="755.359375" xlink:href="#DejaVuSans-99"/>
      <use x="810.339844" xlink:href="#DejaVuSans-116"/>
      <use x="849.548828" xlink:href="#DejaVuSans-101"/>
      <use x="911.072266" xlink:href="#DejaVuSans-100"/>
      <use x="974.548828" xlink:href="#DejaVuSans-32"/>
      <use x="1006.335938" xlink:href="#DejaVuSans-82"/>
      <use x="1071.318359" xlink:href="#DejaVuSans-101"/>
      <use x="1132.841797" xlink:href="#DejaVuSans-118"/>
      <use x="1192.021484" xlink:href="#DejaVuSans-101"/>
      <use x="1253.544922" xlink:href="#DejaVuSans-110"/>
      <use x="1316.923828" xlink:href="#DejaVuSans-117"/>
      <use x="1380.302734" xlink:href="#DejaVuSans-101"/>
     </g>
    </g>
    <g id="line2d_26">
     <path d="M 143.799062 293.004312 
L 163.799062 293.004312 
" style="fill:none;stroke:#008000;stroke-linecap:square;stroke-width:1.5;"/>
    </g>
    <g id="line2d_27"/>
    <g id="text_23">
     <!-- Unweighted Predicted Revenue -->
     <defs>
      <path d="M 8.6875 72.90625 
L 18.609375 72.90625 
L 18.609375 28.609375 
Q 18.609375 16.890625 22.84375 11.734375 
Q 27.09375 6.59375 36.625 6.59375 
Q 46.09375 6.59375 50.34375 11.734375 
Q 54.59375 16.890625 54.59375 28.609375 
L 54.59375 72.90625 
L 64.5 72.90625 
L 64.5 27.390625 
Q 64.5 13.140625 57.4375 5.859375 
Q 50.390625 -1.421875 36.625 -1.421875 
Q 22.796875 -1.421875 15.734375 5.859375 
Q 8.6875 13.140625 8.6875 27.390625 
z
" id="DejaVuSans-85"/>
     </defs>
     <g transform="translate(171.799062 296.504312)scale(0.1 -0.1)">
      <use xlink:href="#DejaVuSans-85"/>
      <use x="73.193359" xlink:href="#DejaVuSans-110"/>
      <use x="136.572266" xlink:href="#DejaVuSans-119"/>
      <use x="218.359375" xlink:href="#DejaVuSans-101"/>
      <use x="279.882812" xlink:href="#DejaVuSans-105"/>
      <use x="307.666016" xlink:href="#DejaVuSans-103"/>
      <use x="371.142578" xlink:href="#DejaVuSans-104"/>
      <use x="434.521484" xlink:href="#DejaVuSans-116"/>
      <use x="473.730469" xlink:href="#DejaVuSans-101"/>
      <use x="535.253906" xlink:href="#DejaVuSans-100"/>
      <use x="598.730469" xlink:href="#DejaVuSans-32"/>
      <use x="630.517578" xlink:href="#DejaVuSans-80"/>
      <use x="689.070312" xlink:href="#DejaVuSans-114"/>
      <use x="727.933594" xlink:href="#DejaVuSans-101"/>
      <use x="789.457031" xlink:href="#DejaVuSans-100"/>
      <use x="852.933594" xlink:href="#DejaVuSans-105"/>
      <use x="880.716797" xlink:href="#DejaVuSans-99"/>
      <use x="935.697266" xlink:href="#DejaVuSans-116"/>
      <use x="974.90625" xlink:href="#DejaVuSans-101"/>
      <use x="1036.429688" xlink:href="#DejaVuSans-100"/>
      <use x="1099.90625" xlink:href="#DejaVuSans-32"/>
      <use x="1131.693359" xlink:href="#DejaVuSans-82"/>
      <use x="1196.675781" xlink:href="#DejaVuSans-101"/>
      <use x="1258.199219" xlink:href="#DejaVuSans-118"/>
      <use x="1317.378906" xlink:href="#DejaVuSans-101"/>
      <use x="1378.902344" xlink:href="#DejaVuSans-110"/>
      <use x="1442.28125" xlink:href="#DejaVuSans-117"/>
      <use x="1505.660156" xlink:href="#DejaVuSans-101"/>
     </g>
    </g>
   </g>
  </g>
 </g>
 <defs>
  <clipPath id="p16f941f974">
   <rect height="266.112" width="357.12" x="57.6" y="41.472"/>
  </clipPath>
 </defs>
</svg>
