<?xml version="1.0" encoding="utf-8" standalone="no"?>
<!DOCTYPE svg PUBLIC "-//W3C//DTD SVG 1.1//EN"
  "http://www.w3.org/Graphics/SVG/1.1/DTD/svg11.dtd">
<!-- Created with matplotlib (https://matplotlib.org/) -->
<svg height="345.6pt" version="1.1" viewBox="0 0 460.8 345.6" width="460.8pt" xmlns="http://www.w3.org/2000/svg" xmlns:xlink="http://www.w3.org/1999/xlink">
 <defs>
  <style type="text/css">
*{stroke-linecap:butt;stroke-linejoin:round;}
  </style>
 </defs>
 <g id="figure_1">
  <g id="patch_1">
   <path d="M 0 345.6 
L 460.8 345.6 
L 460.8 0 
L 0 0 
z
" style="fill:#ffffff;"/>
  </g>
  <g id="axes_1">
   <g id="patch_2">
    <path d="M 57.6 307.584 
L 414.72 307.584 
L 414.72 41.472 
L 57.6 41.472 
z
" style="fill:#ffffff;"/>
   </g>
   <g id="matplotlib.axis_1">
    <g id="xtick_1">
     <g id="line2d_1">
      <defs>
       <path d="M 0 0 
L 0 3.5 
" id="m0d094de0d1" style="stroke:#000000;stroke-width:0.8;"/>
      </defs>
      <g>
       <use style="stroke:#000000;stroke-width:0.8;" x="73.832727" xlink:href="#m0d094de0d1" y="307.584"/>
      </g>
     </g>
     <g id="text_1">
      <!-- 0 -->
      <defs>
       <path d="M 31.78125 66.40625 
Q 24.171875 66.40625 20.328125 58.90625 
Q 16.5 51.421875 16.5 36.375 
Q 16.5 21.390625 20.328125 13.890625 
Q 24.171875 6.390625 31.78125 6.390625 
Q 39.453125 6.390625 43.28125 13.890625 
Q 47.125 21.390625 47.125 36.375 
Q 47.125 51.421875 43.28125 58.90625 
Q 39.453125 66.40625 31.78125 66.40625 
z
M 31.78125 74.21875 
Q 44.046875 74.21875 50.515625 64.515625 
Q 56.984375 54.828125 56.984375 36.375 
Q 56.984375 17.96875 50.515625 8.265625 
Q 44.046875 -1.421875 31.78125 -1.421875 
Q 19.53125 -1.421875 13.0625 8.265625 
Q 6.59375 17.96875 6.59375 36.375 
Q 6.59375 54.828125 13.0625 64.515625 
Q 19.53125 74.21875 31.78125 74.21875 
z
" id="DejaVuSans-48"/>
      </defs>
      <g transform="translate(70.651477 322.182437)scale(0.1 -0.1)">
       <use xlink:href="#DejaVuSans-48"/>
      </g>
     </g>
    </g>
    <g id="xtick_2">
     <g id="line2d_2">
      <g>
       <use style="stroke:#000000;stroke-width:0.8;" x="116.27123" xlink:href="#m0d094de0d1" y="307.584"/>
      </g>
     </g>
     <g id="text_2">
      <!-- 20 -->
      <defs>
       <path d="M 19.1875 8.296875 
L 53.609375 8.296875 
L 53.609375 0 
L 7.328125 0 
L 7.328125 8.296875 
Q 12.9375 14.109375 22.625 23.890625 
Q 32.328125 33.6875 34.8125 36.53125 
Q 39.546875 41.84375 41.421875 45.53125 
Q 43.3125 49.21875 43.3125 52.78125 
Q 43.3125 58.59375 39.234375 62.25 
Q 35.15625 65.921875 28.609375 65.921875 
Q 23.96875 65.921875 18.8125 64.3125 
Q 13.671875 62.703125 7.8125 59.421875 
L 7.8125 69.390625 
Q 13.765625 71.78125 18.9375 73 
Q 24.125 74.21875 28.421875 74.21875 
Q 39.75 74.21875 46.484375 68.546875 
Q 53.21875 62.890625 53.21875 53.421875 
Q 53.21875 48.921875 51.53125 44.890625 
Q 49.859375 40.875 45.40625 35.40625 
Q 44.1875 33.984375 37.640625 27.21875 
Q 31.109375 20.453125 19.1875 8.296875 
z
" id="DejaVuSans-50"/>
      </defs>
      <g transform="translate(109.90873 322.182437)scale(0.1 -0.1)">
       <use xlink:href="#DejaVuSans-50"/>
       <use x="63.623047" xlink:href="#DejaVuSans-48"/>
      </g>
     </g>
    </g>
    <g id="xtick_3">
     <g id="line2d_3">
      <g>
       <use style="stroke:#000000;stroke-width:0.8;" x="158.709733" xlink:href="#m0d094de0d1" y="307.584"/>
      </g>
     </g>
     <g id="text_3">
      <!-- 40 -->
      <defs>
       <path d="M 37.796875 64.3125 
L 12.890625 25.390625 
L 37.796875 25.390625 
z
M 35.203125 72.90625 
L 47.609375 72.90625 
L 47.609375 25.390625 
L 58.015625 25.390625 
L 58.015625 17.1875 
L 47.609375 17.1875 
L 47.609375 0 
L 37.796875 0 
L 37.796875 17.1875 
L 4.890625 17.1875 
L 4.890625 26.703125 
z
" id="DejaVuSans-52"/>
      </defs>
      <g transform="translate(152.347233 322.182437)scale(0.1 -0.1)">
       <use xlink:href="#DejaVuSans-52"/>
       <use x="63.623047" xlink:href="#DejaVuSans-48"/>
      </g>
     </g>
    </g>
    <g id="xtick_4">
     <g id="line2d_4">
      <g>
       <use style="stroke:#000000;stroke-width:0.8;" x="201.148235" xlink:href="#m0d094de0d1" y="307.584"/>
      </g>
     </g>
     <g id="text_4">
      <!-- 60 -->
      <defs>
       <path d="M 33.015625 40.375 
Q 26.375 40.375 22.484375 35.828125 
Q 18.609375 31.296875 18.609375 23.390625 
Q 18.609375 15.53125 22.484375 10.953125 
Q 26.375 6.390625 33.015625 6.390625 
Q 39.65625 6.390625 43.53125 10.953125 
Q 47.40625 15.53125 47.40625 23.390625 
Q 47.40625 31.296875 43.53125 35.828125 
Q 39.65625 40.375 33.015625 40.375 
z
M 52.59375 71.296875 
L 52.59375 62.3125 
Q 48.875 64.0625 45.09375 64.984375 
Q 41.3125 65.921875 37.59375 65.921875 
Q 27.828125 65.921875 22.671875 59.328125 
Q 17.53125 52.734375 16.796875 39.40625 
Q 19.671875 43.65625 24.015625 45.921875 
Q 28.375 48.1875 33.59375 48.1875 
Q 44.578125 48.1875 50.953125 41.515625 
Q 57.328125 34.859375 57.328125 23.390625 
Q 57.328125 12.15625 50.6875 5.359375 
Q 44.046875 -1.421875 33.015625 -1.421875 
Q 20.359375 -1.421875 13.671875 8.265625 
Q 6.984375 17.96875 6.984375 36.375 
Q 6.984375 53.65625 15.1875 63.9375 
Q 23.390625 74.21875 37.203125 74.21875 
Q 40.921875 74.21875 44.703125 73.484375 
Q 48.484375 72.75 52.59375 71.296875 
z
" id="DejaVuSans-54"/>
      </defs>
      <g transform="translate(194.785735 322.182437)scale(0.1 -0.1)">
       <use xlink:href="#DejaVuSans-54"/>
       <use x="63.623047" xlink:href="#DejaVuSans-48"/>
      </g>
     </g>
    </g>
    <g id="xtick_5">
     <g id="line2d_5">
      <g>
       <use style="stroke:#000000;stroke-width:0.8;" x="243.586738" xlink:href="#m0d094de0d1" y="307.584"/>
      </g>
     </g>
     <g id="text_5">
      <!-- 80 -->
      <defs>
       <path d="M 31.78125 34.625 
Q 24.75 34.625 20.71875 30.859375 
Q 16.703125 27.09375 16.703125 20.515625 
Q 16.703125 13.921875 20.71875 10.15625 
Q 24.75 6.390625 31.78125 6.390625 
Q 38.8125 6.390625 42.859375 10.171875 
Q 46.921875 13.96875 46.921875 20.515625 
Q 46.921875 27.09375 42.890625 30.859375 
Q 38.875 34.625 31.78125 34.625 
z
M 21.921875 38.8125 
Q 15.578125 40.375 12.03125 44.71875 
Q 8.5 49.078125 8.5 55.328125 
Q 8.5 64.0625 14.71875 69.140625 
Q 20.953125 74.21875 31.78125 74.21875 
Q 42.671875 74.21875 48.875 69.140625 
Q 55.078125 64.0625 55.078125 55.328125 
Q 55.078125 49.078125 51.53125 44.71875 
Q 48 40.375 41.703125 38.8125 
Q 48.828125 37.15625 52.796875 32.3125 
Q 56.78125 27.484375 56.78125 20.515625 
Q 56.78125 9.90625 50.3125 4.234375 
Q 43.84375 -1.421875 31.78125 -1.421875 
Q 19.734375 -1.421875 13.25 4.234375 
Q 6.78125 9.90625 6.78125 20.515625 
Q 6.78125 27.484375 10.78125 32.3125 
Q 14.796875 37.15625 21.921875 38.8125 
z
M 18.3125 54.390625 
Q 18.3125 48.734375 21.84375 45.5625 
Q 25.390625 42.390625 31.78125 42.390625 
Q 38.140625 42.390625 41.71875 45.5625 
Q 45.3125 48.734375 45.3125 54.390625 
Q 45.3125 60.0625 41.71875 63.234375 
Q 38.140625 66.40625 31.78125 66.40625 
Q 25.390625 66.40625 21.84375 63.234375 
Q 18.3125 60.0625 18.3125 54.390625 
z
" id="DejaVuSans-56"/>
      </defs>
      <g transform="translate(237.224238 322.182437)scale(0.1 -0.1)">
       <use xlink:href="#DejaVuSans-56"/>
       <use x="63.623047" xlink:href="#DejaVuSans-48"/>
      </g>
     </g>
    </g>
    <g id="xtick_6">
     <g id="line2d_6">
      <g>
       <use style="stroke:#000000;stroke-width:0.8;" x="286.025241" xlink:href="#m0d094de0d1" y="307.584"/>
      </g>
     </g>
     <g id="text_6">
      <!-- 100 -->
      <defs>
       <path d="M 12.40625 8.296875 
L 28.515625 8.296875 
L 28.515625 63.921875 
L 10.984375 60.40625 
L 10.984375 69.390625 
L 28.421875 72.90625 
L 38.28125 72.90625 
L 38.28125 8.296875 
L 54.390625 8.296875 
L 54.390625 0 
L 12.40625 0 
z
" id="DejaVuSans-49"/>
      </defs>
      <g transform="translate(276.481491 322.182437)scale(0.1 -0.1)">
       <use xlink:href="#DejaVuSans-49"/>
       <use x="63.623047" xlink:href="#DejaVuSans-48"/>
       <use x="127.246094" xlink:href="#DejaVuSans-48"/>
      </g>
     </g>
    </g>
    <g id="xtick_7">
     <g id="line2d_7">
      <g>
       <use style="stroke:#000000;stroke-width:0.8;" x="328.463743" xlink:href="#m0d094de0d1" y="307.584"/>
      </g>
     </g>
     <g id="text_7">
      <!-- 120 -->
      <g transform="translate(318.919993 322.182437)scale(0.1 -0.1)">
       <use xlink:href="#DejaVuSans-49"/>
       <use x="63.623047" xlink:href="#DejaVuSans-50"/>
       <use x="127.246094" xlink:href="#DejaVuSans-48"/>
      </g>
     </g>
    </g>
    <g id="xtick_8">
     <g id="line2d_8">
      <g>
       <use style="stroke:#000000;stroke-width:0.8;" x="370.902246" xlink:href="#m0d094de0d1" y="307.584"/>
      </g>
     </g>
     <g id="text_8">
      <!-- 140 -->
      <g transform="translate(361.358496 322.182437)scale(0.1 -0.1)">
       <use xlink:href="#DejaVuSans-49"/>
       <use x="63.623047" xlink:href="#DejaVuSans-52"/>
       <use x="127.246094" xlink:href="#DejaVuSans-48"/>
      </g>
     </g>
    </g>
    <g id="xtick_9">
     <g id="line2d_9">
      <g>
       <use style="stroke:#000000;stroke-width:0.8;" x="413.340749" xlink:href="#m0d094de0d1" y="307.584"/>
      </g>
     </g>
     <g id="text_9">
      <!-- 160 -->
      <g transform="translate(403.796999 322.182437)scale(0.1 -0.1)">
       <use xlink:href="#DejaVuSans-49"/>
       <use x="63.623047" xlink:href="#DejaVuSans-54"/>
       <use x="127.246094" xlink:href="#DejaVuSans-48"/>
      </g>
     </g>
    </g>
   </g>
   <g id="matplotlib.axis_2">
    <g id="ytick_1">
     <g id="line2d_10">
      <defs>
       <path d="M 0 0 
L -3.5 0 
" id="md92daa2258" style="stroke:#000000;stroke-width:0.8;"/>
      </defs>
      <g>
       <use style="stroke:#000000;stroke-width:0.8;" x="57.6" xlink:href="#md92daa2258" y="295.488"/>
      </g>
     </g>
     <g id="text_10">
      <!-- 0 -->
      <g transform="translate(44.2375 299.287219)scale(0.1 -0.1)">
       <use xlink:href="#DejaVuSans-48"/>
      </g>
     </g>
    </g>
    <g id="ytick_2">
     <g id="line2d_11">
      <g>
       <use style="stroke:#000000;stroke-width:0.8;" x="57.6" xlink:href="#md92daa2258" y="241.801781"/>
      </g>
     </g>
     <g id="text_11">
      <!-- 20000 -->
      <g transform="translate(18.7875 245.601)scale(0.1 -0.1)">
       <use xlink:href="#DejaVuSans-50"/>
       <use x="63.623047" xlink:href="#DejaVuSans-48"/>
       <use x="127.246094" xlink:href="#DejaVuSans-48"/>
       <use x="190.869141" xlink:href="#DejaVuSans-48"/>
       <use x="254.492188" xlink:href="#DejaVuSans-48"/>
      </g>
     </g>
    </g>
    <g id="ytick_3">
     <g id="line2d_12">
      <g>
       <use style="stroke:#000000;stroke-width:0.8;" x="57.6" xlink:href="#md92daa2258" y="188.115562"/>
      </g>
     </g>
     <g id="text_12">
      <!-- 40000 -->
      <g transform="translate(18.7875 191.914781)scale(0.1 -0.1)">
       <use xlink:href="#DejaVuSans-52"/>
       <use x="63.623047" xlink:href="#DejaVuSans-48"/>
       <use x="127.246094" xlink:href="#DejaVuSans-48"/>
       <use x="190.869141" xlink:href="#DejaVuSans-48"/>
       <use x="254.492188" xlink:href="#DejaVuSans-48"/>
      </g>
     </g>
    </g>
    <g id="ytick_4">
     <g id="line2d_13">
      <g>
       <use style="stroke:#000000;stroke-width:0.8;" x="57.6" xlink:href="#md92daa2258" y="134.429343"/>
      </g>
     </g>
     <g id="text_13">
      <!-- 60000 -->
      <g transform="translate(18.7875 138.228562)scale(0.1 -0.1)">
       <use xlink:href="#DejaVuSans-54"/>
       <use x="63.623047" xlink:href="#DejaVuSans-48"/>
       <use x="127.246094" xlink:href="#DejaVuSans-48"/>
       <use x="190.869141" xlink:href="#DejaVuSans-48"/>
       <use x="254.492188" xlink:href="#DejaVuSans-48"/>
      </g>
     </g>
    </g>
    <g id="ytick_5">
     <g id="line2d_14">
      <g>
       <use style="stroke:#000000;stroke-width:0.8;" x="57.6" xlink:href="#md92daa2258" y="80.743124"/>
      </g>
     </g>
     <g id="text_14">
      <!-- 80000 -->
      <g transform="translate(18.7875 84.542343)scale(0.1 -0.1)">
       <use xlink:href="#DejaVuSans-56"/>
       <use x="63.623047" xlink:href="#DejaVuSans-48"/>
       <use x="127.246094" xlink:href="#DejaVuSans-48"/>
       <use x="190.869141" xlink:href="#DejaVuSans-48"/>
       <use x="254.492188" xlink:href="#DejaVuSans-48"/>
      </g>
     </g>
    </g>
    <g id="text_15">
     <!-- Mean Root Square Error -->
     <defs>
      <path d="M 9.8125 72.90625 
L 24.515625 72.90625 
L 43.109375 23.296875 
L 61.8125 72.90625 
L 76.515625 72.90625 
L 76.515625 0 
L 66.890625 0 
L 66.890625 64.015625 
L 48.09375 14.015625 
L 38.1875 14.015625 
L 19.390625 64.015625 
L 19.390625 0 
L 9.8125 0 
z
" id="DejaVuSans-77"/>
      <path d="M 56.203125 29.59375 
L 56.203125 25.203125 
L 14.890625 25.203125 
Q 15.484375 15.921875 20.484375 11.0625 
Q 25.484375 6.203125 34.421875 6.203125 
Q 39.59375 6.203125 44.453125 7.46875 
Q 49.3125 8.734375 54.109375 11.28125 
L 54.109375 2.78125 
Q 49.265625 0.734375 44.1875 -0.34375 
Q 39.109375 -1.421875 33.890625 -1.421875 
Q 20.796875 -1.421875 13.15625 6.1875 
Q 5.515625 13.8125 5.515625 26.8125 
Q 5.515625 40.234375 12.765625 48.109375 
Q 20.015625 56 32.328125 56 
Q 43.359375 56 49.78125 48.890625 
Q 56.203125 41.796875 56.203125 29.59375 
z
M 47.21875 32.234375 
Q 47.125 39.59375 43.09375 43.984375 
Q 39.0625 48.390625 32.421875 48.390625 
Q 24.90625 48.390625 20.390625 44.140625 
Q 15.875 39.890625 15.1875 32.171875 
z
" id="DejaVuSans-101"/>
      <path d="M 34.28125 27.484375 
Q 23.390625 27.484375 19.1875 25 
Q 14.984375 22.515625 14.984375 16.5 
Q 14.984375 11.71875 18.140625 8.90625 
Q 21.296875 6.109375 26.703125 6.109375 
Q 34.1875 6.109375 38.703125 11.40625 
Q 43.21875 16.703125 43.21875 25.484375 
L 43.21875 27.484375 
z
M 52.203125 31.203125 
L 52.203125 0 
L 43.21875 0 
L 43.21875 8.296875 
Q 40.140625 3.328125 35.546875 0.953125 
Q 30.953125 -1.421875 24.3125 -1.421875 
Q 15.921875 -1.421875 10.953125 3.296875 
Q 6 8.015625 6 15.921875 
Q 6 25.140625 12.171875 29.828125 
Q 18.359375 34.515625 30.609375 34.515625 
L 43.21875 34.515625 
L 43.21875 35.40625 
Q 43.21875 41.609375 39.140625 45 
Q 35.0625 48.390625 27.6875 48.390625 
Q 23 48.390625 18.546875 47.265625 
Q 14.109375 46.140625 10.015625 43.890625 
L 10.015625 52.203125 
Q 14.9375 54.109375 19.578125 55.046875 
Q 24.21875 56 28.609375 56 
Q 40.484375 56 46.34375 49.84375 
Q 52.203125 43.703125 52.203125 31.203125 
z
" id="DejaVuSans-97"/>
      <path d="M 54.890625 33.015625 
L 54.890625 0 
L 45.90625 0 
L 45.90625 32.71875 
Q 45.90625 40.484375 42.875 44.328125 
Q 39.84375 48.1875 33.796875 48.1875 
Q 26.515625 48.1875 22.3125 43.546875 
Q 18.109375 38.921875 18.109375 30.90625 
L 18.109375 0 
L 9.078125 0 
L 9.078125 54.6875 
L 18.109375 54.6875 
L 18.109375 46.1875 
Q 21.34375 51.125 25.703125 53.5625 
Q 30.078125 56 35.796875 56 
Q 45.21875 56 50.046875 50.171875 
Q 54.890625 44.34375 54.890625 33.015625 
z
" id="DejaVuSans-110"/>
      <path id="DejaVuSans-32"/>
      <path d="M 44.390625 34.1875 
Q 47.5625 33.109375 50.5625 29.59375 
Q 53.5625 26.078125 56.59375 19.921875 
L 66.609375 0 
L 56 0 
L 46.6875 18.703125 
Q 43.0625 26.03125 39.671875 28.421875 
Q 36.28125 30.8125 30.421875 30.8125 
L 19.671875 30.8125 
L 19.671875 0 
L 9.8125 0 
L 9.8125 72.90625 
L 32.078125 72.90625 
Q 44.578125 72.90625 50.734375 67.671875 
Q 56.890625 62.453125 56.890625 51.90625 
Q 56.890625 45.015625 53.6875 40.46875 
Q 50.484375 35.9375 44.390625 34.1875 
z
M 19.671875 64.796875 
L 19.671875 38.921875 
L 32.078125 38.921875 
Q 39.203125 38.921875 42.84375 42.21875 
Q 46.484375 45.515625 46.484375 51.90625 
Q 46.484375 58.296875 42.84375 61.546875 
Q 39.203125 64.796875 32.078125 64.796875 
z
" id="DejaVuSans-82"/>
      <path d="M 30.609375 48.390625 
Q 23.390625 48.390625 19.1875 42.75 
Q 14.984375 37.109375 14.984375 27.296875 
Q 14.984375 17.484375 19.15625 11.84375 
Q 23.34375 6.203125 30.609375 6.203125 
Q 37.796875 6.203125 41.984375 11.859375 
Q 46.1875 17.53125 46.1875 27.296875 
Q 46.1875 37.015625 41.984375 42.703125 
Q 37.796875 48.390625 30.609375 48.390625 
z
M 30.609375 56 
Q 42.328125 56 49.015625 48.375 
Q 55.71875 40.765625 55.71875 27.296875 
Q 55.71875 13.875 49.015625 6.21875 
Q 42.328125 -1.421875 30.609375 -1.421875 
Q 18.84375 -1.421875 12.171875 6.21875 
Q 5.515625 13.875 5.515625 27.296875 
Q 5.515625 40.765625 12.171875 48.375 
Q 18.84375 56 30.609375 56 
z
" id="DejaVuSans-111"/>
      <path d="M 18.3125 70.21875 
L 18.3125 54.6875 
L 36.8125 54.6875 
L 36.8125 47.703125 
L 18.3125 47.703125 
L 18.3125 18.015625 
Q 18.3125 11.328125 20.140625 9.421875 
Q 21.96875 7.515625 27.59375 7.515625 
L 36.8125 7.515625 
L 36.8125 0 
L 27.59375 0 
Q 17.1875 0 13.234375 3.875 
Q 9.28125 7.765625 9.28125 18.015625 
L 9.28125 47.703125 
L 2.6875 47.703125 
L 2.6875 54.6875 
L 9.28125 54.6875 
L 9.28125 70.21875 
z
" id="DejaVuSans-116"/>
      <path d="M 53.515625 70.515625 
L 53.515625 60.890625 
Q 47.90625 63.578125 42.921875 64.890625 
Q 37.9375 66.21875 33.296875 66.21875 
Q 25.25 66.21875 20.875 63.09375 
Q 16.5 59.96875 16.5 54.203125 
Q 16.5 49.359375 19.40625 46.890625 
Q 22.3125 44.4375 30.421875 42.921875 
L 36.375 41.703125 
Q 47.40625 39.59375 52.65625 34.296875 
Q 57.90625 29 57.90625 20.125 
Q 57.90625 9.515625 50.796875 4.046875 
Q 43.703125 -1.421875 29.984375 -1.421875 
Q 24.8125 -1.421875 18.96875 -0.25 
Q 13.140625 0.921875 6.890625 3.21875 
L 6.890625 13.375 
Q 12.890625 10.015625 18.65625 8.296875 
Q 24.421875 6.59375 29.984375 6.59375 
Q 38.421875 6.59375 43.015625 9.90625 
Q 47.609375 13.234375 47.609375 19.390625 
Q 47.609375 24.75 44.3125 27.78125 
Q 41.015625 30.8125 33.5 32.328125 
L 27.484375 33.5 
Q 16.453125 35.6875 11.515625 40.375 
Q 6.59375 45.0625 6.59375 53.421875 
Q 6.59375 63.09375 13.40625 68.65625 
Q 20.21875 74.21875 32.171875 74.21875 
Q 37.3125 74.21875 42.625 73.28125 
Q 47.953125 72.359375 53.515625 70.515625 
z
" id="DejaVuSans-83"/>
      <path d="M 14.796875 27.296875 
Q 14.796875 17.390625 18.875 11.75 
Q 22.953125 6.109375 30.078125 6.109375 
Q 37.203125 6.109375 41.296875 11.75 
Q 45.40625 17.390625 45.40625 27.296875 
Q 45.40625 37.203125 41.296875 42.84375 
Q 37.203125 48.484375 30.078125 48.484375 
Q 22.953125 48.484375 18.875 42.84375 
Q 14.796875 37.203125 14.796875 27.296875 
z
M 45.40625 8.203125 
Q 42.578125 3.328125 38.25 0.953125 
Q 33.9375 -1.421875 27.875 -1.421875 
Q 17.96875 -1.421875 11.734375 6.484375 
Q 5.515625 14.40625 5.515625 27.296875 
Q 5.515625 40.1875 11.734375 48.09375 
Q 17.96875 56 27.875 56 
Q 33.9375 56 38.25 53.625 
Q 42.578125 51.265625 45.40625 46.390625 
L 45.40625 54.6875 
L 54.390625 54.6875 
L 54.390625 -20.796875 
L 45.40625 -20.796875 
z
" id="DejaVuSans-113"/>
      <path d="M 8.5 21.578125 
L 8.5 54.6875 
L 17.484375 54.6875 
L 17.484375 21.921875 
Q 17.484375 14.15625 20.5 10.265625 
Q 23.53125 6.390625 29.59375 6.390625 
Q 36.859375 6.390625 41.078125 11.03125 
Q 45.3125 15.671875 45.3125 23.6875 
L 45.3125 54.6875 
L 54.296875 54.6875 
L 54.296875 0 
L 45.3125 0 
L 45.3125 8.40625 
Q 42.046875 3.421875 37.71875 1 
Q 33.40625 -1.421875 27.6875 -1.421875 
Q 18.265625 -1.421875 13.375 4.4375 
Q 8.5 10.296875 8.5 21.578125 
z
M 31.109375 56 
z
" id="DejaVuSans-117"/>
      <path d="M 41.109375 46.296875 
Q 39.59375 47.171875 37.8125 47.578125 
Q 36.03125 48 33.890625 48 
Q 26.265625 48 22.1875 43.046875 
Q 18.109375 38.09375 18.109375 28.8125 
L 18.109375 0 
L 9.078125 0 
L 9.078125 54.6875 
L 18.109375 54.6875 
L 18.109375 46.1875 
Q 20.953125 51.171875 25.484375 53.578125 
Q 30.03125 56 36.53125 56 
Q 37.453125 56 38.578125 55.875 
Q 39.703125 55.765625 41.0625 55.515625 
z
" id="DejaVuSans-114"/>
      <path d="M 9.8125 72.90625 
L 55.90625 72.90625 
L 55.90625 64.59375 
L 19.671875 64.59375 
L 19.671875 43.015625 
L 54.390625 43.015625 
L 54.390625 34.71875 
L 19.671875 34.71875 
L 19.671875 8.296875 
L 56.78125 8.296875 
L 56.78125 0 
L 9.8125 0 
z
" id="DejaVuSans-69"/>
     </defs>
     <g transform="translate(12.707812 234.032688)rotate(-90)scale(0.1 -0.1)">
      <use xlink:href="#DejaVuSans-77"/>
      <use x="86.279297" xlink:href="#DejaVuSans-101"/>
      <use x="147.802734" xlink:href="#DejaVuSans-97"/>
      <use x="209.082031" xlink:href="#DejaVuSans-110"/>
      <use x="272.460938" xlink:href="#DejaVuSans-32"/>
      <use x="304.248047" xlink:href="#DejaVuSans-82"/>
      <use x="369.230469" xlink:href="#DejaVuSans-111"/>
      <use x="430.412109" xlink:href="#DejaVuSans-111"/>
      <use x="491.59375" xlink:href="#DejaVuSans-116"/>
      <use x="530.802734" xlink:href="#DejaVuSans-32"/>
      <use x="562.589844" xlink:href="#DejaVuSans-83"/>
      <use x="626.066406" xlink:href="#DejaVuSans-113"/>
      <use x="689.542969" xlink:href="#DejaVuSans-117"/>
      <use x="752.921875" xlink:href="#DejaVuSans-97"/>
      <use x="814.201172" xlink:href="#DejaVuSans-114"/>
      <use x="853.064453" xlink:href="#DejaVuSans-101"/>
      <use x="914.587891" xlink:href="#DejaVuSans-32"/>
      <use x="946.375" xlink:href="#DejaVuSans-69"/>
      <use x="1009.558594" xlink:href="#DejaVuSans-114"/>
      <use x="1048.921875" xlink:href="#DejaVuSans-114"/>
      <use x="1087.785156" xlink:href="#DejaVuSans-111"/>
      <use x="1148.966797" xlink:href="#DejaVuSans-114"/>
     </g>
    </g>
   </g>
   <g id="line2d_15">
    <path clip-path="url(#p0c2bfc44e1)" d="M 73.832727 269.772301 
L 75.954652 251.955187 
L 78.076578 188.639003 
L 80.198503 184.717224 
L 82.320428 160.773171 
L 84.442353 126.752214 
L 86.564278 145.461861 
L 88.686203 120.546087 
L 90.808128 185.180715 
L 92.930053 207.05606 
L 95.051979 157.979698 
L 97.173904 145.629631 
L 99.295829 186.131856 
L 101.417754 166.646443 
L 103.539679 166.249165 
L 105.661604 132.21926 
L 107.783529 116.010496 
L 109.905455 128.87953 
L 112.02738 160.238993 
L 114.149305 194.327058 
L 116.27123 134.785014 
L 118.393155 116.522752 
L 120.51508 125.698622 
L 122.637005 166.587388 
L 124.75893 149.669519 
L 126.880856 148.017325 
L 129.002781 191.417265 
L 131.124706 183.905668 
L 133.246631 214.832509 
L 135.368556 191.970233 
L 137.490481 218.741633 
L 139.612406 175.556822 
L 141.734332 168.647597 
L 143.856257 179.617801 
L 145.978182 171.413396 
L 148.100107 189.538247 
L 150.222032 126.447353 
L 152.343957 150.450845 
L 154.465882 153.395917 
L 156.587807 147.085869 
L 158.709733 207.799231 
L 160.831658 220.246764 
L 162.953583 212.402824 
L 165.075508 205.10725 
L 167.197433 159.452154 
L 169.319358 173.975954 
L 171.441283 174.470315 
L 173.563209 194.022964 
L 175.685134 199.242031 
L 177.807059 188.918618 
L 179.928984 188.898486 
L 182.050909 242.670347 
L 184.172834 254.646209 
L 186.294759 223.338196 
L 188.416684 215.54922 
L 190.53861 153.27589 
L 192.660535 170.307396 
L 194.78246 173.108027 
L 196.904385 143.894224 
L 199.02631 176.098797 
L 201.148235 192.857845 
L 203.27016 173.957739 
L 205.392086 169.19117 
L 207.514011 192.862958 
L 209.635936 141.044252 
L 211.757861 118.063994 
L 213.879786 86.796245 
L 216.001711 75.694383 
L 218.123636 77.432474 
L 220.245561 172.929073 
L 222.367487 119.26746 
L 224.489412 57.03529 
L 226.611337 92.558566 
L 228.733262 190.970519 
L 230.855187 200.325342 
L 232.977112 232.377932 
L 235.099037 224.342575 
L 237.220963 180.890292 
L 239.342888 220.076758 
L 241.464813 218.187898 
L 243.586738 198.412131 
L 245.708663 187.035127 
L 247.830588 162.509473 
L 249.952513 204.509033 
L 252.074439 159.132673 
L 254.196364 161.659441 
L 256.318289 127.448217 
L 258.440214 90.943506 
L 260.562139 124.265391 
L 262.684064 115.480025 
L 264.805989 105.11475 
L 266.927914 112.531118 
L 269.04984 144.289153 
L 271.171765 104.378482 
L 273.29369 192.477567 
L 275.415615 182.192822 
L 277.53754 213.106497 
L 279.659465 207.395625 
L 281.78139 193.959307 
L 283.903316 244.018575 
L 286.025241 232.191948 
L 288.147166 273.277564 
L 290.269091 257.620425 
L 292.391016 235.37733 
L 294.512941 237.308245 
L 296.634866 233.055401 
L 298.756791 198.293574 
L 300.878717 187.408694 
L 303.000642 169.367887 
L 305.122567 162.708559 
L 307.244492 135.073578 
L 309.366417 111.656799 
L 311.488342 108.91305 
L 313.610267 99.939303 
L 315.732193 165.944831 
L 317.854118 156.068724 
L 319.976043 136.369716 
L 322.097968 146.907554 
L 324.219893 133.4419 
L 326.341818 162.189592 
L 328.463743 235.670367 
L 330.585668 249.572861 
L 332.707594 229.294809 
L 334.829519 225.853139 
L 336.951444 270.287689 
L 339.073369 260.826835 
L 341.195294 228.520194 
L 343.317219 213.77374 
L 345.439144 193.497606 
L 347.56107 154.563593 
L 349.682995 161.352982 
L 351.80492 147.873267 
L 353.926845 109.675522 
L 356.04877 78.503961 
L 358.170695 114.59612 
L 360.29262 157.339937 
L 362.414545 160.628218 
L 364.536471 168.744424 
L 366.658396 191.446025 
L 368.780321 149.62446 
L 373.024171 179.755851 
L 375.146096 92.897301 
L 377.268021 101.126631 
L 379.389947 99.291713 
L 381.511872 191.215941 
L 383.633797 180.680021 
L 385.755722 121.346012 
L 387.877647 143.448628 
L 389.999572 216.458051 
L 392.121497 210.636931 
L 394.243422 273.275327 
L 396.365348 259.384018 
L 398.487273 287.166636 
L 398.487273 287.166636 
" style="fill:none;stroke:#ff0000;stroke-linecap:square;stroke-width:1.5;"/>
   </g>
   <g id="line2d_16">
    <path clip-path="url(#p0c2bfc44e1)" d="M 73.832727 254.314841 
L 75.954652 281.568235 
L 78.076578 206.721732 
L 80.198503 225.600782 
L 82.320428 197.888108 
L 84.442353 154.433337 
L 86.564278 131.718237 
L 88.686203 164.185629 
L 90.808128 190.294385 
L 92.930053 192.983258 
L 95.051979 188.70941 
L 97.173904 186.929178 
L 99.295829 190.774867 
L 101.417754 185.662948 
L 103.539679 188.134504 
L 105.661604 193.25548 
L 107.783529 163.291059 
L 109.905455 170.342731 
L 112.02738 174.371206 
L 114.149305 181.991063 
L 116.27123 162.854552 
L 118.393155 153.711432 
L 120.51508 189.381454 
L 122.637005 186.964132 
L 124.75893 190.660996 
L 126.880856 215.780447 
L 129.002781 191.207002 
L 131.124706 196.897506 
L 133.246631 211.916698 
L 135.368556 189.555735 
L 137.490481 219.990111 
L 139.612406 197.675877 
L 141.734332 181.115556 
L 143.856257 213.356556 
L 145.978182 198.649736 
L 148.100107 197.141632 
L 150.222032 203.291673 
L 152.343957 159.867513 
L 154.465882 136.184746 
L 156.587807 148.434446 
L 158.709733 186.885739 
L 160.831658 211.542252 
L 162.953583 201.743118 
L 165.075508 196.853586 
L 167.197433 186.842546 
L 169.319358 188.372614 
L 171.441283 209.677296 
L 173.563209 237.4376 
L 175.685134 220.553114 
L 177.807059 215.33584 
L 179.928984 219.502214 
L 182.050909 244.670817 
L 184.172834 244.622466 
L 186.294759 233.139387 
L 188.416684 211.617796 
L 190.53861 193.925974 
L 192.660535 203.361791 
L 194.78246 187.741058 
L 196.904385 155.186658 
L 199.02631 167.219391 
L 201.148235 169.65697 
L 203.27016 186.474902 
L 205.392086 187.685768 
L 207.514011 193.003269 
L 209.635936 177.764864 
L 211.757861 115.693427 
L 213.879786 70.93544 
L 216.001711 53.568 
L 218.123636 79.967034 
L 220.245561 125.778892 
L 222.367487 125.779288 
L 224.489412 100.214406 
L 226.611337 119.353509 
L 228.733262 199.925915 
L 230.855187 206.486006 
L 232.977112 220.111308 
L 235.099037 197.039179 
L 237.220963 207.498568 
L 239.342888 215.136441 
L 241.464813 200.316806 
L 243.586738 179.378387 
L 245.708663 189.178936 
L 247.830588 168.712946 
L 249.952513 187.52981 
L 252.074439 186.929344 
L 254.196364 187.874957 
L 256.318289 186.963495 
L 258.440214 140.562864 
L 260.562139 169.448066 
L 262.684064 133.607121 
L 264.805989 154.218714 
L 266.927914 135.637884 
L 269.04984 170.901669 
L 271.171765 124.376279 
L 273.29369 206.084444 
L 275.415615 206.105637 
L 277.53754 230.350831 
L 279.659465 233.973378 
L 281.78139 219.935215 
L 283.903316 247.354289 
L 286.025241 210.357077 
L 288.147166 180.618777 
L 290.269091 196.757017 
L 292.391016 250.431912 
L 294.512941 226.173683 
L 296.634866 244.759438 
L 298.756791 207.091797 
L 300.878717 213.510245 
L 303.000642 185.694343 
L 305.122567 176.991112 
L 307.244492 160.705701 
L 309.366417 139.720422 
L 311.488342 134.206269 
L 313.610267 143.64037 
L 315.732193 160.990662 
L 317.854118 144.583525 
L 319.976043 168.447547 
L 322.097968 168.724043 
L 324.219893 140.333392 
L 326.341818 176.448224 
L 328.463743 202.614968 
L 330.585668 221.545801 
L 332.707594 214.419131 
L 334.829519 201.303937 
L 336.951444 222.443917 
L 339.073369 229.16779 
L 341.195294 213.33228 
L 343.317219 183.469381 
L 345.439144 179.613078 
L 347.56107 142.750336 
L 349.682995 150.891014 
L 351.80492 142.513588 
L 353.926845 114.422847 
L 356.04877 123.139758 
L 358.170695 146.04074 
L 360.29262 175.298337 
L 362.414545 183.293279 
L 364.536471 187.544444 
L 366.658396 179.054341 
L 368.780321 210.877717 
L 370.902246 213.963251 
L 373.024171 199.851748 
L 375.146096 168.243781 
L 377.268021 184.738425 
L 379.389947 167.352743 
L 381.511872 213.156956 
L 383.633797 186.682717 
L 387.877647 178.678076 
L 389.999572 246.034807 
L 392.121497 241.932523 
L 394.243422 271.437136 
L 396.365348 271.43716 
L 398.487273 286.477936 
L 398.487273 286.477936 
" style="fill:none;stroke:#0000ff;stroke-linecap:square;stroke-width:1.5;"/>
   </g>
   <g id="line2d_17">
    <path clip-path="url(#p0c2bfc44e1)" d="M 73.832727 286.831097 
L 75.954652 258.578724 
L 78.076578 201.335794 
L 80.198503 220.166235 
L 82.320428 220.166235 
L 84.442353 186.129172 
L 88.686203 186.129172 
L 90.808128 224.264283 
L 92.930053 238.849039 
L 95.051979 225.114315 
L 97.173904 225.114315 
L 99.295829 238.849039 
L 101.417754 233.265672 
L 103.539679 233.265672 
L 105.661604 214.242855 
L 107.783529 206.816262 
L 109.905455 217.598244 
L 112.02738 224.532714 
L 114.149305 244.37872 
L 116.27123 228.782873 
L 118.393155 228.782873 
L 120.51508 247.25988 
L 122.637005 263.652072 
L 124.75893 255.69309 
L 126.880856 263.652072 
L 129.002781 263.652072 
L 131.124706 249.541544 
L 133.246631 263.652072 
L 135.368556 260.967761 
L 137.490481 261.397251 
L 139.612406 228.878741 
L 141.734332 229.230258 
L 143.856257 238.69565 
L 145.978182 238.69565 
L 148.100107 248.129085 
L 150.222032 209.935175 
L 152.343957 220.135557 
L 154.465882 196.743704 
L 156.587807 196.743704 
L 158.709733 241.725086 
L 160.831658 261.12882 
L 165.075508 261.12882 
L 167.197433 250.794223 
L 169.319358 259.965618 
L 171.441283 242.651813 
L 173.563209 247.132056 
L 175.685134 238.088484 
L 177.807059 221.401018 
L 179.928984 221.401018 
L 182.050909 259.058066 
L 184.172834 268.734368 
L 186.294759 250.928438 
L 188.416684 250.928438 
L 190.53861 194.128419 
L 192.660535 196.30271 
L 194.78246 199.210714 
L 196.904385 193.162067 
L 199.02631 217.285074 
L 201.148235 235.091004 
L 203.27016 235.512824 
L 205.392086 251.733732 
L 207.514011 250.660007 
L 211.757861 172.18865 
L 213.879786 146.419265 
L 216.001711 146.419265 
L 218.123636 172.054435 
L 220.245561 215.540272 
L 222.367487 215.540272 
L 224.489412 205.348838 
L 226.611337 220.372032 
L 228.733262 260.476916 
L 230.855187 260.476916 
L 232.977112 266.957609 
L 235.099037 254.418042 
L 237.220963 250.123145 
L 239.342888 264.797378 
L 241.464813 258.659254 
L 243.586738 237.685838 
L 245.708663 247.438834 
L 247.830588 236.164728 
L 249.952513 244.639481 
L 252.074439 210.510385 
L 254.196364 200.910778 
L 256.318289 197.894123 
L 258.440214 168.174966 
L 260.562139 191.41343 
L 262.684064 180.100977 
L 264.805989 190.799873 
L 266.927914 190.799873 
L 269.04984 212.274361 
L 271.171765 184.012401 
L 273.29369 236.126381 
L 275.415615 236.126381 
L 277.53754 249.586283 
L 279.659465 256.341799 
L 281.78139 240.513312 
L 283.903316 268.644891 
L 286.025241 251.375823 
L 288.147166 258.041862 
L 290.269091 252.377966 
L 292.391016 259.562972 
L 294.512941 252.377966 
L 296.634866 248.959944 
L 298.756791 218.940399 
L 300.878717 218.940399 
L 303.000642 198.494898 
L 305.122567 193.369142 
L 307.244492 176.349332 
L 309.366417 175.115828 
L 311.488342 175.115828 
L 313.610267 191.705828 
L 315.732193 218.548937 
L 317.854118 221.055892 
L 319.976043 221.055892 
L 322.097968 240.037805 
L 324.219893 221.861185 
L 326.341818 240.32541 
L 328.463743 255.670721 
L 330.585668 268.683238 
L 334.829519 268.683238 
L 336.951444 289.206712 
L 339.073369 290.253594 
L 341.195294 261.320556 
L 343.317219 243.489062 
L 345.439144 240.056979 
L 347.56107 209.973523 
L 349.682995 236.656852 
L 351.80492 209.097926 
L 353.926845 193.663138 
L 356.04877 186.236544 
L 360.29262 227.958406 
L 362.414545 209.634788 
L 364.536471 215.572228 
L 366.658396 206.023751 
L 368.780321 202.189021 
L 370.902246 210.050217 
L 373.024171 201.268686 
L 375.146096 167.599757 
L 377.268021 188.959203 
L 379.389947 188.959203 
L 381.511872 228.073448 
L 383.633797 213.616516 
L 385.755722 197.242219 
L 387.877647 213.616516 
L 389.999572 261.013778 
L 392.121497 264.14867 
L 394.243422 295.488 
L 398.487273 295.488 
L 398.487273 295.488 
" style="fill:none;stroke:#008000;stroke-linecap:square;stroke-width:1.5;"/>
   </g>
   <g id="patch_3">
    <path d="M 57.6 307.584 
L 57.6 41.472 
" style="fill:none;stroke:#000000;stroke-linecap:square;stroke-linejoin:miter;stroke-width:0.8;"/>
   </g>
   <g id="patch_4">
    <path d="M 414.72 307.584 
L 414.72 41.472 
" style="fill:none;stroke:#000000;stroke-linecap:square;stroke-linejoin:miter;stroke-width:0.8;"/>
   </g>
   <g id="patch_5">
    <path d="M 57.6 307.584 
L 414.72 307.584 
" style="fill:none;stroke:#000000;stroke-linecap:square;stroke-linejoin:miter;stroke-width:0.8;"/>
   </g>
   <g id="patch_6">
    <path d="M 57.6 41.472 
L 414.72 41.472 
" style="fill:none;stroke:#000000;stroke-linecap:square;stroke-linejoin:miter;stroke-width:0.8;"/>
   </g>
   <g id="text_16">
    <!-- Compare monthly errors for Generated data with -->
    <defs>
     <path d="M 64.40625 67.28125 
L 64.40625 56.890625 
Q 59.421875 61.53125 53.78125 63.8125 
Q 48.140625 66.109375 41.796875 66.109375 
Q 29.296875 66.109375 22.65625 58.46875 
Q 16.015625 50.828125 16.015625 36.375 
Q 16.015625 21.96875 22.65625 14.328125 
Q 29.296875 6.6875 41.796875 6.6875 
Q 48.140625 6.6875 53.78125 8.984375 
Q 59.421875 11.28125 64.40625 15.921875 
L 64.40625 5.609375 
Q 59.234375 2.09375 53.4375 0.328125 
Q 47.65625 -1.421875 41.21875 -1.421875 
Q 24.65625 -1.421875 15.125 8.703125 
Q 5.609375 18.84375 5.609375 36.375 
Q 5.609375 53.953125 15.125 64.078125 
Q 24.65625 74.21875 41.21875 74.21875 
Q 47.75 74.21875 53.53125 72.484375 
Q 59.328125 70.75 64.40625 67.28125 
z
" id="DejaVuSans-67"/>
     <path d="M 52 44.1875 
Q 55.375 50.25 60.0625 53.125 
Q 64.75 56 71.09375 56 
Q 79.640625 56 84.28125 50.015625 
Q 88.921875 44.046875 88.921875 33.015625 
L 88.921875 0 
L 79.890625 0 
L 79.890625 32.71875 
Q 79.890625 40.578125 77.09375 44.375 
Q 74.3125 48.1875 68.609375 48.1875 
Q 61.625 48.1875 57.5625 43.546875 
Q 53.515625 38.921875 53.515625 30.90625 
L 53.515625 0 
L 44.484375 0 
L 44.484375 32.71875 
Q 44.484375 40.625 41.703125 44.40625 
Q 38.921875 48.1875 33.109375 48.1875 
Q 26.21875 48.1875 22.15625 43.53125 
Q 18.109375 38.875 18.109375 30.90625 
L 18.109375 0 
L 9.078125 0 
L 9.078125 54.6875 
L 18.109375 54.6875 
L 18.109375 46.1875 
Q 21.1875 51.21875 25.484375 53.609375 
Q 29.78125 56 35.6875 56 
Q 41.65625 56 45.828125 52.96875 
Q 50 49.953125 52 44.1875 
z
" id="DejaVuSans-109"/>
     <path d="M 18.109375 8.203125 
L 18.109375 -20.796875 
L 9.078125 -20.796875 
L 9.078125 54.6875 
L 18.109375 54.6875 
L 18.109375 46.390625 
Q 20.953125 51.265625 25.265625 53.625 
Q 29.59375 56 35.59375 56 
Q 45.5625 56 51.78125 48.09375 
Q 58.015625 40.1875 58.015625 27.296875 
Q 58.015625 14.40625 51.78125 6.484375 
Q 45.5625 -1.421875 35.59375 -1.421875 
Q 29.59375 -1.421875 25.265625 0.953125 
Q 20.953125 3.328125 18.109375 8.203125 
z
M 48.6875 27.296875 
Q 48.6875 37.203125 44.609375 42.84375 
Q 40.53125 48.484375 33.40625 48.484375 
Q 26.265625 48.484375 22.1875 42.84375 
Q 18.109375 37.203125 18.109375 27.296875 
Q 18.109375 17.390625 22.1875 11.75 
Q 26.265625 6.109375 33.40625 6.109375 
Q 40.53125 6.109375 44.609375 11.75 
Q 48.6875 17.390625 48.6875 27.296875 
z
" id="DejaVuSans-112"/>
     <path d="M 54.890625 33.015625 
L 54.890625 0 
L 45.90625 0 
L 45.90625 32.71875 
Q 45.90625 40.484375 42.875 44.328125 
Q 39.84375 48.1875 33.796875 48.1875 
Q 26.515625 48.1875 22.3125 43.546875 
Q 18.109375 38.921875 18.109375 30.90625 
L 18.109375 0 
L 9.078125 0 
L 9.078125 75.984375 
L 18.109375 75.984375 
L 18.109375 46.1875 
Q 21.34375 51.125 25.703125 53.5625 
Q 30.078125 56 35.796875 56 
Q 45.21875 56 50.046875 50.171875 
Q 54.890625 44.34375 54.890625 33.015625 
z
" id="DejaVuSans-104"/>
     <path d="M 9.421875 75.984375 
L 18.40625 75.984375 
L 18.40625 0 
L 9.421875 0 
z
" id="DejaVuSans-108"/>
     <path d="M 32.171875 -5.078125 
Q 28.375 -14.84375 24.75 -17.8125 
Q 21.140625 -20.796875 15.09375 -20.796875 
L 7.90625 -20.796875 
L 7.90625 -13.28125 
L 13.1875 -13.28125 
Q 16.890625 -13.28125 18.9375 -11.515625 
Q 21 -9.765625 23.484375 -3.21875 
L 25.09375 0.875 
L 2.984375 54.6875 
L 12.5 54.6875 
L 29.59375 11.921875 
L 46.6875 54.6875 
L 56.203125 54.6875 
z
" id="DejaVuSans-121"/>
     <path d="M 44.28125 53.078125 
L 44.28125 44.578125 
Q 40.484375 46.53125 36.375 47.5 
Q 32.28125 48.484375 27.875 48.484375 
Q 21.1875 48.484375 17.84375 46.4375 
Q 14.5 44.390625 14.5 40.28125 
Q 14.5 37.15625 16.890625 35.375 
Q 19.28125 33.59375 26.515625 31.984375 
L 29.59375 31.296875 
Q 39.15625 29.25 43.1875 25.515625 
Q 47.21875 21.78125 47.21875 15.09375 
Q 47.21875 7.46875 41.1875 3.015625 
Q 35.15625 -1.421875 24.609375 -1.421875 
Q 20.21875 -1.421875 15.453125 -0.5625 
Q 10.6875 0.296875 5.421875 2 
L 5.421875 11.28125 
Q 10.40625 8.6875 15.234375 7.390625 
Q 20.0625 6.109375 24.8125 6.109375 
Q 31.15625 6.109375 34.5625 8.28125 
Q 37.984375 10.453125 37.984375 14.40625 
Q 37.984375 18.0625 35.515625 20.015625 
Q 33.0625 21.96875 24.703125 23.78125 
L 21.578125 24.515625 
Q 13.234375 26.265625 9.515625 29.90625 
Q 5.8125 33.546875 5.8125 39.890625 
Q 5.8125 47.609375 11.28125 51.796875 
Q 16.75 56 26.8125 56 
Q 31.78125 56 36.171875 55.265625 
Q 40.578125 54.546875 44.28125 53.078125 
z
" id="DejaVuSans-115"/>
     <path d="M 37.109375 75.984375 
L 37.109375 68.5 
L 28.515625 68.5 
Q 23.6875 68.5 21.796875 66.546875 
Q 19.921875 64.59375 19.921875 59.515625 
L 19.921875 54.6875 
L 34.71875 54.6875 
L 34.71875 47.703125 
L 19.921875 47.703125 
L 19.921875 0 
L 10.890625 0 
L 10.890625 47.703125 
L 2.296875 47.703125 
L 2.296875 54.6875 
L 10.890625 54.6875 
L 10.890625 58.5 
Q 10.890625 67.625 15.140625 71.796875 
Q 19.390625 75.984375 28.609375 75.984375 
z
" id="DejaVuSans-102"/>
     <path d="M 59.515625 10.40625 
L 59.515625 29.984375 
L 43.40625 29.984375 
L 43.40625 38.09375 
L 69.28125 38.09375 
L 69.28125 6.78125 
Q 63.578125 2.734375 56.6875 0.65625 
Q 49.8125 -1.421875 42 -1.421875 
Q 24.90625 -1.421875 15.25 8.5625 
Q 5.609375 18.5625 5.609375 36.375 
Q 5.609375 54.25 15.25 64.234375 
Q 24.90625 74.21875 42 74.21875 
Q 49.125 74.21875 55.546875 72.453125 
Q 61.96875 70.703125 67.390625 67.28125 
L 67.390625 56.78125 
Q 61.921875 61.421875 55.765625 63.765625 
Q 49.609375 66.109375 42.828125 66.109375 
Q 29.4375 66.109375 22.71875 58.640625 
Q 16.015625 51.171875 16.015625 36.375 
Q 16.015625 21.625 22.71875 14.15625 
Q 29.4375 6.6875 42.828125 6.6875 
Q 48.046875 6.6875 52.140625 7.59375 
Q 56.25 8.5 59.515625 10.40625 
z
" id="DejaVuSans-71"/>
     <path d="M 45.40625 46.390625 
L 45.40625 75.984375 
L 54.390625 75.984375 
L 54.390625 0 
L 45.40625 0 
L 45.40625 8.203125 
Q 42.578125 3.328125 38.25 0.953125 
Q 33.9375 -1.421875 27.875 -1.421875 
Q 17.96875 -1.421875 11.734375 6.484375 
Q 5.515625 14.40625 5.515625 27.296875 
Q 5.515625 40.1875 11.734375 48.09375 
Q 17.96875 56 27.875 56 
Q 33.9375 56 38.25 53.625 
Q 42.578125 51.265625 45.40625 46.390625 
z
M 14.796875 27.296875 
Q 14.796875 17.390625 18.875 11.75 
Q 22.953125 6.109375 30.078125 6.109375 
Q 37.203125 6.109375 41.296875 11.75 
Q 45.40625 17.390625 45.40625 27.296875 
Q 45.40625 37.203125 41.296875 42.84375 
Q 37.203125 48.484375 30.078125 48.484375 
Q 22.953125 48.484375 18.875 42.84375 
Q 14.796875 37.203125 14.796875 27.296875 
z
" id="DejaVuSans-100"/>
     <path d="M 4.203125 54.6875 
L 13.1875 54.6875 
L 24.421875 12.015625 
L 35.59375 54.6875 
L 46.1875 54.6875 
L 57.421875 12.015625 
L 68.609375 54.6875 
L 77.59375 54.6875 
L 63.28125 0 
L 52.6875 0 
L 40.921875 44.828125 
L 29.109375 0 
L 18.5 0 
z
" id="DejaVuSans-119"/>
     <path d="M 9.421875 54.6875 
L 18.40625 54.6875 
L 18.40625 0 
L 9.421875 0 
z
M 9.421875 75.984375 
L 18.40625 75.984375 
L 18.40625 64.59375 
L 9.421875 64.59375 
z
" id="DejaVuSans-105"/>
    </defs>
    <g transform="translate(88.839375 8.59725)scale(0.12 -0.12)">
     <use xlink:href="#DejaVuSans-67"/>
     <use x="69.824219" xlink:href="#DejaVuSans-111"/>
     <use x="131.005859" xlink:href="#DejaVuSans-109"/>
     <use x="228.417969" xlink:href="#DejaVuSans-112"/>
     <use x="291.894531" xlink:href="#DejaVuSans-97"/>
     <use x="353.173828" xlink:href="#DejaVuSans-114"/>
     <use x="392.037109" xlink:href="#DejaVuSans-101"/>
     <use x="453.560547" xlink:href="#DejaVuSans-32"/>
     <use x="485.347656" xlink:href="#DejaVuSans-109"/>
     <use x="582.759766" xlink:href="#DejaVuSans-111"/>
     <use x="643.941406" xlink:href="#DejaVuSans-110"/>
     <use x="707.320312" xlink:href="#DejaVuSans-116"/>
     <use x="746.529297" xlink:href="#DejaVuSans-104"/>
     <use x="809.908203" xlink:href="#DejaVuSans-108"/>
     <use x="837.691406" xlink:href="#DejaVuSans-121"/>
     <use x="896.871094" xlink:href="#DejaVuSans-32"/>
     <use x="928.658203" xlink:href="#DejaVuSans-101"/>
     <use x="990.181641" xlink:href="#DejaVuSans-114"/>
     <use x="1029.544922" xlink:href="#DejaVuSans-114"/>
     <use x="1068.408203" xlink:href="#DejaVuSans-111"/>
     <use x="1129.589844" xlink:href="#DejaVuSans-114"/>
     <use x="1170.703125" xlink:href="#DejaVuSans-115"/>
     <use x="1222.802734" xlink:href="#DejaVuSans-32"/>
     <use x="1254.589844" xlink:href="#DejaVuSans-102"/>
     <use x="1289.794922" xlink:href="#DejaVuSans-111"/>
     <use x="1350.976562" xlink:href="#DejaVuSans-114"/>
     <use x="1392.089844" xlink:href="#DejaVuSans-32"/>
     <use x="1423.876953" xlink:href="#DejaVuSans-71"/>
     <use x="1501.367188" xlink:href="#DejaVuSans-101"/>
     <use x="1562.890625" xlink:href="#DejaVuSans-110"/>
     <use x="1626.269531" xlink:href="#DejaVuSans-101"/>
     <use x="1687.792969" xlink:href="#DejaVuSans-114"/>
     <use x="1728.90625" xlink:href="#DejaVuSans-97"/>
     <use x="1790.185547" xlink:href="#DejaVuSans-116"/>
     <use x="1829.394531" xlink:href="#DejaVuSans-101"/>
     <use x="1890.917969" xlink:href="#DejaVuSans-100"/>
     <use x="1954.394531" xlink:href="#DejaVuSans-32"/>
     <use x="1986.181641" xlink:href="#DejaVuSans-100"/>
     <use x="2049.658203" xlink:href="#DejaVuSans-97"/>
     <use x="2110.9375" xlink:href="#DejaVuSans-116"/>
     <use x="2150.146484" xlink:href="#DejaVuSans-97"/>
     <use x="2211.425781" xlink:href="#DejaVuSans-32"/>
     <use x="2243.212891" xlink:href="#DejaVuSans-119"/>
     <use x="2325" xlink:href="#DejaVuSans-105"/>
     <use x="2352.783203" xlink:href="#DejaVuSans-116"/>
     <use x="2391.992188" xlink:href="#DejaVuSans-104"/>
    </g>
    <!-- Neural Networks with solver: sgd -->
    <defs>
     <path d="M 9.8125 72.90625 
L 23.09375 72.90625 
L 55.421875 11.921875 
L 55.421875 72.90625 
L 64.984375 72.90625 
L 64.984375 0 
L 51.703125 0 
L 19.390625 60.984375 
L 19.390625 0 
L 9.8125 0 
z
" id="DejaVuSans-78"/>
     <path d="M 9.078125 75.984375 
L 18.109375 75.984375 
L 18.109375 31.109375 
L 44.921875 54.6875 
L 56.390625 54.6875 
L 27.390625 29.109375 
L 57.625 0 
L 45.90625 0 
L 18.109375 26.703125 
L 18.109375 0 
L 9.078125 0 
z
" id="DejaVuSans-107"/>
     <path d="M 2.984375 54.6875 
L 12.5 54.6875 
L 29.59375 8.796875 
L 46.6875 54.6875 
L 56.203125 54.6875 
L 35.6875 0 
L 23.484375 0 
z
" id="DejaVuSans-118"/>
     <path d="M 11.71875 12.40625 
L 22.015625 12.40625 
L 22.015625 0 
L 11.71875 0 
z
M 11.71875 51.703125 
L 22.015625 51.703125 
L 22.015625 39.3125 
L 11.71875 39.3125 
z
" id="DejaVuSans-58"/>
     <path d="M 45.40625 27.984375 
Q 45.40625 37.75 41.375 43.109375 
Q 37.359375 48.484375 30.078125 48.484375 
Q 22.859375 48.484375 18.828125 43.109375 
Q 14.796875 37.75 14.796875 27.984375 
Q 14.796875 18.265625 18.828125 12.890625 
Q 22.859375 7.515625 30.078125 7.515625 
Q 37.359375 7.515625 41.375 12.890625 
Q 45.40625 18.265625 45.40625 27.984375 
z
M 54.390625 6.78125 
Q 54.390625 -7.171875 48.1875 -13.984375 
Q 42 -20.796875 29.203125 -20.796875 
Q 24.46875 -20.796875 20.265625 -20.09375 
Q 16.0625 -19.390625 12.109375 -17.921875 
L 12.109375 -9.1875 
Q 16.0625 -11.328125 19.921875 -12.34375 
Q 23.78125 -13.375 27.78125 -13.375 
Q 36.625 -13.375 41.015625 -8.765625 
Q 45.40625 -4.15625 45.40625 5.171875 
L 45.40625 9.625 
Q 42.625 4.78125 38.28125 2.390625 
Q 33.9375 0 27.875 0 
Q 17.828125 0 11.671875 7.65625 
Q 5.515625 15.328125 5.515625 27.984375 
Q 5.515625 40.671875 11.671875 48.328125 
Q 17.828125 56 27.875 56 
Q 33.9375 56 38.28125 53.609375 
Q 42.625 51.21875 45.40625 46.390625 
L 45.40625 54.6875 
L 54.390625 54.6875 
z
" id="DejaVuSans-103"/>
    </defs>
    <g transform="translate(136.999687 22.034625)scale(0.12 -0.12)">
     <use xlink:href="#DejaVuSans-78"/>
     <use x="74.804688" xlink:href="#DejaVuSans-101"/>
     <use x="136.328125" xlink:href="#DejaVuSans-117"/>
     <use x="199.707031" xlink:href="#DejaVuSans-114"/>
     <use x="240.820312" xlink:href="#DejaVuSans-97"/>
     <use x="302.099609" xlink:href="#DejaVuSans-108"/>
     <use x="329.882812" xlink:href="#DejaVuSans-32"/>
     <use x="361.669922" xlink:href="#DejaVuSans-78"/>
     <use x="436.474609" xlink:href="#DejaVuSans-101"/>
     <use x="497.998047" xlink:href="#DejaVuSans-116"/>
     <use x="537.207031" xlink:href="#DejaVuSans-119"/>
     <use x="618.994141" xlink:href="#DejaVuSans-111"/>
     <use x="680.175781" xlink:href="#DejaVuSans-114"/>
     <use x="721.289062" xlink:href="#DejaVuSans-107"/>
     <use x="779.199219" xlink:href="#DejaVuSans-115"/>
     <use x="831.298828" xlink:href="#DejaVuSans-32"/>
     <use x="863.085938" xlink:href="#DejaVuSans-119"/>
     <use x="944.873047" xlink:href="#DejaVuSans-105"/>
     <use x="972.65625" xlink:href="#DejaVuSans-116"/>
     <use x="1011.865234" xlink:href="#DejaVuSans-104"/>
     <use x="1075.244141" xlink:href="#DejaVuSans-32"/>
     <use x="1107.03125" xlink:href="#DejaVuSans-115"/>
     <use x="1159.130859" xlink:href="#DejaVuSans-111"/>
     <use x="1220.3125" xlink:href="#DejaVuSans-108"/>
     <use x="1248.095703" xlink:href="#DejaVuSans-118"/>
     <use x="1307.275391" xlink:href="#DejaVuSans-101"/>
     <use x="1368.798828" xlink:href="#DejaVuSans-114"/>
     <use x="1408.162109" xlink:href="#DejaVuSans-58"/>
     <use x="1441.853516" xlink:href="#DejaVuSans-32"/>
     <use x="1473.640625" xlink:href="#DejaVuSans-115"/>
     <use x="1525.740234" xlink:href="#DejaVuSans-103"/>
     <use x="1589.216797" xlink:href="#DejaVuSans-100"/>
    </g>
    <!--  activation function: logistic and number nodes: (2, 2, 2) -->
    <defs>
     <path d="M 48.78125 52.59375 
L 48.78125 44.1875 
Q 44.96875 46.296875 41.140625 47.34375 
Q 37.3125 48.390625 33.40625 48.390625 
Q 24.65625 48.390625 19.8125 42.84375 
Q 14.984375 37.3125 14.984375 27.296875 
Q 14.984375 17.28125 19.8125 11.734375 
Q 24.65625 6.203125 33.40625 6.203125 
Q 37.3125 6.203125 41.140625 7.25 
Q 44.96875 8.296875 48.78125 10.40625 
L 48.78125 2.09375 
Q 45.015625 0.34375 40.984375 -0.53125 
Q 36.96875 -1.421875 32.421875 -1.421875 
Q 20.0625 -1.421875 12.78125 6.34375 
Q 5.515625 14.109375 5.515625 27.296875 
Q 5.515625 40.671875 12.859375 48.328125 
Q 20.21875 56 33.015625 56 
Q 37.15625 56 41.109375 55.140625 
Q 45.0625 54.296875 48.78125 52.59375 
z
" id="DejaVuSans-99"/>
     <path d="M 48.6875 27.296875 
Q 48.6875 37.203125 44.609375 42.84375 
Q 40.53125 48.484375 33.40625 48.484375 
Q 26.265625 48.484375 22.1875 42.84375 
Q 18.109375 37.203125 18.109375 27.296875 
Q 18.109375 17.390625 22.1875 11.75 
Q 26.265625 6.109375 33.40625 6.109375 
Q 40.53125 6.109375 44.609375 11.75 
Q 48.6875 17.390625 48.6875 27.296875 
z
M 18.109375 46.390625 
Q 20.953125 51.265625 25.265625 53.625 
Q 29.59375 56 35.59375 56 
Q 45.5625 56 51.78125 48.09375 
Q 58.015625 40.1875 58.015625 27.296875 
Q 58.015625 14.40625 51.78125 6.484375 
Q 45.5625 -1.421875 35.59375 -1.421875 
Q 29.59375 -1.421875 25.265625 0.953125 
Q 20.953125 3.328125 18.109375 8.203125 
L 18.109375 0 
L 9.078125 0 
L 9.078125 75.984375 
L 18.109375 75.984375 
z
" id="DejaVuSans-98"/>
     <path d="M 31 75.875 
Q 24.46875 64.65625 21.28125 53.65625 
Q 18.109375 42.671875 18.109375 31.390625 
Q 18.109375 20.125 21.3125 9.0625 
Q 24.515625 -2 31 -13.1875 
L 23.1875 -13.1875 
Q 15.875 -1.703125 12.234375 9.375 
Q 8.59375 20.453125 8.59375 31.390625 
Q 8.59375 42.28125 12.203125 53.3125 
Q 15.828125 64.359375 23.1875 75.875 
z
" id="DejaVuSans-40"/>
     <path d="M 11.71875 12.40625 
L 22.015625 12.40625 
L 22.015625 4 
L 14.015625 -11.625 
L 7.71875 -11.625 
L 11.71875 4 
z
" id="DejaVuSans-44"/>
     <path d="M 8.015625 75.875 
L 15.828125 75.875 
Q 23.140625 64.359375 26.78125 53.3125 
Q 30.421875 42.28125 30.421875 31.390625 
Q 30.421875 20.453125 26.78125 9.375 
Q 23.140625 -1.703125 15.828125 -13.1875 
L 8.015625 -13.1875 
Q 14.5 -2 17.703125 9.0625 
Q 20.90625 20.125 20.90625 31.390625 
Q 20.90625 42.671875 17.703125 53.65625 
Q 14.5 64.65625 8.015625 75.875 
z
" id="DejaVuSans-41"/>
    </defs>
    <g transform="translate(66.719063 35.472)scale(0.12 -0.12)">
     <use xlink:href="#DejaVuSans-32"/>
     <use x="31.787109" xlink:href="#DejaVuSans-97"/>
     <use x="93.066406" xlink:href="#DejaVuSans-99"/>
     <use x="148.046875" xlink:href="#DejaVuSans-116"/>
     <use x="187.255859" xlink:href="#DejaVuSans-105"/>
     <use x="215.039062" xlink:href="#DejaVuSans-118"/>
     <use x="274.21875" xlink:href="#DejaVuSans-97"/>
     <use x="335.498047" xlink:href="#DejaVuSans-116"/>
     <use x="374.707031" xlink:href="#DejaVuSans-105"/>
     <use x="402.490234" xlink:href="#DejaVuSans-111"/>
     <use x="463.671875" xlink:href="#DejaVuSans-110"/>
     <use x="527.050781" xlink:href="#DejaVuSans-32"/>
     <use x="558.837891" xlink:href="#DejaVuSans-102"/>
     <use x="594.042969" xlink:href="#DejaVuSans-117"/>
     <use x="657.421875" xlink:href="#DejaVuSans-110"/>
     <use x="720.800781" xlink:href="#DejaVuSans-99"/>
     <use x="775.78125" xlink:href="#DejaVuSans-116"/>
     <use x="814.990234" xlink:href="#DejaVuSans-105"/>
     <use x="842.773438" xlink:href="#DejaVuSans-111"/>
     <use x="903.955078" xlink:href="#DejaVuSans-110"/>
     <use x="967.333984" xlink:href="#DejaVuSans-58"/>
     <use x="1001.025391" xlink:href="#DejaVuSans-32"/>
     <use x="1032.8125" xlink:href="#DejaVuSans-108"/>
     <use x="1060.595703" xlink:href="#DejaVuSans-111"/>
     <use x="1121.777344" xlink:href="#DejaVuSans-103"/>
     <use x="1185.253906" xlink:href="#DejaVuSans-105"/>
     <use x="1213.037109" xlink:href="#DejaVuSans-115"/>
     <use x="1265.136719" xlink:href="#DejaVuSans-116"/>
     <use x="1304.345703" xlink:href="#DejaVuSans-105"/>
     <use x="1332.128906" xlink:href="#DejaVuSans-99"/>
     <use x="1387.109375" xlink:href="#DejaVuSans-32"/>
     <use x="1418.896484" xlink:href="#DejaVuSans-97"/>
     <use x="1480.175781" xlink:href="#DejaVuSans-110"/>
     <use x="1543.554688" xlink:href="#DejaVuSans-100"/>
     <use x="1607.03125" xlink:href="#DejaVuSans-32"/>
     <use x="1638.818359" xlink:href="#DejaVuSans-110"/>
     <use x="1702.197266" xlink:href="#DejaVuSans-117"/>
     <use x="1765.576172" xlink:href="#DejaVuSans-109"/>
     <use x="1862.988281" xlink:href="#DejaVuSans-98"/>
     <use x="1926.464844" xlink:href="#DejaVuSans-101"/>
     <use x="1987.988281" xlink:href="#DejaVuSans-114"/>
     <use x="2029.101562" xlink:href="#DejaVuSans-32"/>
     <use x="2060.888672" xlink:href="#DejaVuSans-110"/>
     <use x="2124.267578" xlink:href="#DejaVuSans-111"/>
     <use x="2185.449219" xlink:href="#DejaVuSans-100"/>
     <use x="2248.925781" xlink:href="#DejaVuSans-101"/>
     <use x="2310.449219" xlink:href="#DejaVuSans-115"/>
     <use x="2362.548828" xlink:href="#DejaVuSans-58"/>
     <use x="2396.240234" xlink:href="#DejaVuSans-32"/>
     <use x="2428.027344" xlink:href="#DejaVuSans-40"/>
     <use x="2467.041016" xlink:href="#DejaVuSans-50"/>
     <use x="2530.664062" xlink:href="#DejaVuSans-44"/>
     <use x="2562.451172" xlink:href="#DejaVuSans-32"/>
     <use x="2594.238281" xlink:href="#DejaVuSans-50"/>
     <use x="2657.861328" xlink:href="#DejaVuSans-44"/>
     <use x="2689.648438" xlink:href="#DejaVuSans-32"/>
     <use x="2721.435547" xlink:href="#DejaVuSans-50"/>
     <use x="2785.058594" xlink:href="#DejaVuSans-41"/>
    </g>
   </g>
   <g id="legend_1">
    <g id="patch_7">
     <path d="M 243.598125 93.506375 
L 407.72 93.506375 
Q 409.72 93.506375 409.72 91.506375 
L 409.72 48.472 
Q 409.72 46.472 407.72 46.472 
L 243.598125 46.472 
Q 241.598125 46.472 241.598125 48.472 
L 241.598125 91.506375 
Q 241.598125 93.506375 243.598125 93.506375 
z
" style="fill:#ffffff;opacity:0.8;stroke:#cccccc;stroke-linejoin:miter;"/>
    </g>
    <g id="line2d_18">
     <path d="M 245.598125 54.570438 
L 265.598125 54.570438 
" style="fill:none;stroke:#ff0000;stroke-linecap:square;stroke-width:1.5;"/>
    </g>
    <g id="line2d_19"/>
    <g id="text_17">
     <!-- Guessed Revenue -->
     <g transform="translate(273.598125 58.070438)scale(0.1 -0.1)">
      <use xlink:href="#DejaVuSans-71"/>
      <use x="77.490234" xlink:href="#DejaVuSans-117"/>
      <use x="140.869141" xlink:href="#DejaVuSans-101"/>
      <use x="202.392578" xlink:href="#DejaVuSans-115"/>
      <use x="254.492188" xlink:href="#DejaVuSans-115"/>
      <use x="306.591797" xlink:href="#DejaVuSans-101"/>
      <use x="368.115234" xlink:href="#DejaVuSans-100"/>
      <use x="431.591797" xlink:href="#DejaVuSans-32"/>
      <use x="463.378906" xlink:href="#DejaVuSans-82"/>
      <use x="528.361328" xlink:href="#DejaVuSans-101"/>
      <use x="589.884766" xlink:href="#DejaVuSans-118"/>
      <use x="649.064453" xlink:href="#DejaVuSans-101"/>
      <use x="710.587891" xlink:href="#DejaVuSans-110"/>
      <use x="773.966797" xlink:href="#DejaVuSans-117"/>
      <use x="837.345703" xlink:href="#DejaVuSans-101"/>
     </g>
    </g>
    <g id="line2d_20">
     <path d="M 245.598125 69.248563 
L 265.598125 69.248563 
" style="fill:none;stroke:#0000ff;stroke-linecap:square;stroke-width:1.5;"/>
    </g>
    <g id="line2d_21"/>
    <g id="text_18">
     <!-- Predicted Revenue -->
     <defs>
      <path d="M 19.671875 64.796875 
L 19.671875 37.40625 
L 32.078125 37.40625 
Q 38.96875 37.40625 42.71875 40.96875 
Q 46.484375 44.53125 46.484375 51.125 
Q 46.484375 57.671875 42.71875 61.234375 
Q 38.96875 64.796875 32.078125 64.796875 
z
M 9.8125 72.90625 
L 32.078125 72.90625 
Q 44.34375 72.90625 50.609375 67.359375 
Q 56.890625 61.8125 56.890625 51.125 
Q 56.890625 40.328125 50.609375 34.8125 
Q 44.34375 29.296875 32.078125 29.296875 
L 19.671875 29.296875 
L 19.671875 0 
L 9.8125 0 
z
" id="DejaVuSans-80"/>
     </defs>
     <g transform="translate(273.598125 72.748563)scale(0.1 -0.1)">
      <use xlink:href="#DejaVuSans-80"/>
      <use x="58.552734" xlink:href="#DejaVuSans-114"/>
      <use x="97.416016" xlink:href="#DejaVuSans-101"/>
      <use x="158.939453" xlink:href="#DejaVuSans-100"/>
      <use x="222.416016" xlink:href="#DejaVuSans-105"/>
      <use x="250.199219" xlink:href="#DejaVuSans-99"/>
      <use x="305.179688" xlink:href="#DejaVuSans-116"/>
      <use x="344.388672" xlink:href="#DejaVuSans-101"/>
      <use x="405.912109" xlink:href="#DejaVuSans-100"/>
      <use x="469.388672" xlink:href="#DejaVuSans-32"/>
      <use x="501.175781" xlink:href="#DejaVuSans-82"/>
      <use x="566.158203" xlink:href="#DejaVuSans-101"/>
      <use x="627.681641" xlink:href="#DejaVuSans-118"/>
      <use x="686.861328" xlink:href="#DejaVuSans-101"/>
      <use x="748.384766" xlink:href="#DejaVuSans-110"/>
      <use x="811.763672" xlink:href="#DejaVuSans-117"/>
      <use x="875.142578" xlink:href="#DejaVuSans-101"/>
     </g>
    </g>
    <g id="line2d_22">
     <path d="M 245.598125 83.926688 
L 265.598125 83.926688 
" style="fill:none;stroke:#008000;stroke-linecap:square;stroke-width:1.5;"/>
    </g>
    <g id="line2d_23"/>
    <g id="text_19">
     <!-- Strictly Predicted Revenue -->
     <g transform="translate(273.598125 87.426688)scale(0.1 -0.1)">
      <use xlink:href="#DejaVuSans-83"/>
      <use x="63.476562" xlink:href="#DejaVuSans-116"/>
      <use x="102.685547" xlink:href="#DejaVuSans-114"/>
      <use x="143.798828" xlink:href="#DejaVuSans-105"/>
      <use x="171.582031" xlink:href="#DejaVuSans-99"/>
      <use x="226.5625" xlink:href="#DejaVuSans-116"/>
      <use x="265.771484" xlink:href="#DejaVuSans-108"/>
      <use x="293.554688" xlink:href="#DejaVuSans-121"/>
      <use x="352.734375" xlink:href="#DejaVuSans-32"/>
      <use x="384.521484" xlink:href="#DejaVuSans-80"/>
      <use x="443.074219" xlink:href="#DejaVuSans-114"/>
      <use x="481.9375" xlink:href="#DejaVuSans-101"/>
      <use x="543.460938" xlink:href="#DejaVuSans-100"/>
      <use x="606.9375" xlink:href="#DejaVuSans-105"/>
      <use x="634.720703" xlink:href="#DejaVuSans-99"/>
      <use x="689.701172" xlink:href="#DejaVuSans-116"/>
      <use x="728.910156" xlink:href="#DejaVuSans-101"/>
      <use x="790.433594" xlink:href="#DejaVuSans-100"/>
      <use x="853.910156" xlink:href="#DejaVuSans-32"/>
      <use x="885.697266" xlink:href="#DejaVuSans-82"/>
      <use x="950.679688" xlink:href="#DejaVuSans-101"/>
      <use x="1012.203125" xlink:href="#DejaVuSans-118"/>
      <use x="1071.382812" xlink:href="#DejaVuSans-101"/>
      <use x="1132.90625" xlink:href="#DejaVuSans-110"/>
      <use x="1196.285156" xlink:href="#DejaVuSans-117"/>
      <use x="1259.664062" xlink:href="#DejaVuSans-101"/>
     </g>
    </g>
   </g>
  </g>
 </g>
 <defs>
  <clipPath id="p0c2bfc44e1">
   <rect height="266.112" width="357.12" x="57.6" y="41.472"/>
  </clipPath>
 </defs>
</svg>
