<?xml version="1.0" encoding="utf-8" standalone="no"?>
<!DOCTYPE svg PUBLIC "-//W3C//DTD SVG 1.1//EN"
  "http://www.w3.org/Graphics/SVG/1.1/DTD/svg11.dtd">
<!-- Created with matplotlib (https://matplotlib.org/) -->
<svg height="345.6pt" version="1.1" viewBox="0 0 460.8 345.6" width="460.8pt" xmlns="http://www.w3.org/2000/svg" xmlns:xlink="http://www.w3.org/1999/xlink">
 <defs>
  <style type="text/css">
*{stroke-linecap:butt;stroke-linejoin:round;}
  </style>
 </defs>
 <g id="figure_1">
  <g id="patch_1">
   <path d="M 0 345.6 
L 460.8 345.6 
L 460.8 0 
L 0 0 
z
" style="fill:#ffffff;"/>
  </g>
  <g id="axes_1">
   <g id="patch_2">
    <path d="M 57.6 307.584 
L 414.72 307.584 
L 414.72 41.472 
L 57.6 41.472 
z
" style="fill:#ffffff;"/>
   </g>
   <g id="matplotlib.axis_1">
    <g id="xtick_1">
     <g id="line2d_1">
      <defs>
       <path d="M 0 0 
L 0 3.5 
" id="mdd704b84e5" style="stroke:#000000;stroke-width:0.8;"/>
      </defs>
      <g>
       <use style="stroke:#000000;stroke-width:0.8;" x="73.832727" xlink:href="#mdd704b84e5" y="307.584"/>
      </g>
     </g>
     <g id="text_1">
      <!-- 0 -->
      <defs>
       <path d="M 31.78125 66.40625 
Q 24.171875 66.40625 20.328125 58.90625 
Q 16.5 51.421875 16.5 36.375 
Q 16.5 21.390625 20.328125 13.890625 
Q 24.171875 6.390625 31.78125 6.390625 
Q 39.453125 6.390625 43.28125 13.890625 
Q 47.125 21.390625 47.125 36.375 
Q 47.125 51.421875 43.28125 58.90625 
Q 39.453125 66.40625 31.78125 66.40625 
z
M 31.78125 74.21875 
Q 44.046875 74.21875 50.515625 64.515625 
Q 56.984375 54.828125 56.984375 36.375 
Q 56.984375 17.96875 50.515625 8.265625 
Q 44.046875 -1.421875 31.78125 -1.421875 
Q 19.53125 -1.421875 13.0625 8.265625 
Q 6.59375 17.96875 6.59375 36.375 
Q 6.59375 54.828125 13.0625 64.515625 
Q 19.53125 74.21875 31.78125 74.21875 
z
" id="DejaVuSans-48"/>
      </defs>
      <g transform="translate(70.651477 322.182437)scale(0.1 -0.1)">
       <use xlink:href="#DejaVuSans-48"/>
      </g>
     </g>
    </g>
    <g id="xtick_2">
     <g id="line2d_2">
      <g>
       <use style="stroke:#000000;stroke-width:0.8;" x="116.27123" xlink:href="#mdd704b84e5" y="307.584"/>
      </g>
     </g>
     <g id="text_2">
      <!-- 20 -->
      <defs>
       <path d="M 19.1875 8.296875 
L 53.609375 8.296875 
L 53.609375 0 
L 7.328125 0 
L 7.328125 8.296875 
Q 12.9375 14.109375 22.625 23.890625 
Q 32.328125 33.6875 34.8125 36.53125 
Q 39.546875 41.84375 41.421875 45.53125 
Q 43.3125 49.21875 43.3125 52.78125 
Q 43.3125 58.59375 39.234375 62.25 
Q 35.15625 65.921875 28.609375 65.921875 
Q 23.96875 65.921875 18.8125 64.3125 
Q 13.671875 62.703125 7.8125 59.421875 
L 7.8125 69.390625 
Q 13.765625 71.78125 18.9375 73 
Q 24.125 74.21875 28.421875 74.21875 
Q 39.75 74.21875 46.484375 68.546875 
Q 53.21875 62.890625 53.21875 53.421875 
Q 53.21875 48.921875 51.53125 44.890625 
Q 49.859375 40.875 45.40625 35.40625 
Q 44.1875 33.984375 37.640625 27.21875 
Q 31.109375 20.453125 19.1875 8.296875 
z
" id="DejaVuSans-50"/>
      </defs>
      <g transform="translate(109.90873 322.182437)scale(0.1 -0.1)">
       <use xlink:href="#DejaVuSans-50"/>
       <use x="63.623047" xlink:href="#DejaVuSans-48"/>
      </g>
     </g>
    </g>
    <g id="xtick_3">
     <g id="line2d_3">
      <g>
       <use style="stroke:#000000;stroke-width:0.8;" x="158.709733" xlink:href="#mdd704b84e5" y="307.584"/>
      </g>
     </g>
     <g id="text_3">
      <!-- 40 -->
      <defs>
       <path d="M 37.796875 64.3125 
L 12.890625 25.390625 
L 37.796875 25.390625 
z
M 35.203125 72.90625 
L 47.609375 72.90625 
L 47.609375 25.390625 
L 58.015625 25.390625 
L 58.015625 17.1875 
L 47.609375 17.1875 
L 47.609375 0 
L 37.796875 0 
L 37.796875 17.1875 
L 4.890625 17.1875 
L 4.890625 26.703125 
z
" id="DejaVuSans-52"/>
      </defs>
      <g transform="translate(152.347233 322.182437)scale(0.1 -0.1)">
       <use xlink:href="#DejaVuSans-52"/>
       <use x="63.623047" xlink:href="#DejaVuSans-48"/>
      </g>
     </g>
    </g>
    <g id="xtick_4">
     <g id="line2d_4">
      <g>
       <use style="stroke:#000000;stroke-width:0.8;" x="201.148235" xlink:href="#mdd704b84e5" y="307.584"/>
      </g>
     </g>
     <g id="text_4">
      <!-- 60 -->
      <defs>
       <path d="M 33.015625 40.375 
Q 26.375 40.375 22.484375 35.828125 
Q 18.609375 31.296875 18.609375 23.390625 
Q 18.609375 15.53125 22.484375 10.953125 
Q 26.375 6.390625 33.015625 6.390625 
Q 39.65625 6.390625 43.53125 10.953125 
Q 47.40625 15.53125 47.40625 23.390625 
Q 47.40625 31.296875 43.53125 35.828125 
Q 39.65625 40.375 33.015625 40.375 
z
M 52.59375 71.296875 
L 52.59375 62.3125 
Q 48.875 64.0625 45.09375 64.984375 
Q 41.3125 65.921875 37.59375 65.921875 
Q 27.828125 65.921875 22.671875 59.328125 
Q 17.53125 52.734375 16.796875 39.40625 
Q 19.671875 43.65625 24.015625 45.921875 
Q 28.375 48.1875 33.59375 48.1875 
Q 44.578125 48.1875 50.953125 41.515625 
Q 57.328125 34.859375 57.328125 23.390625 
Q 57.328125 12.15625 50.6875 5.359375 
Q 44.046875 -1.421875 33.015625 -1.421875 
Q 20.359375 -1.421875 13.671875 8.265625 
Q 6.984375 17.96875 6.984375 36.375 
Q 6.984375 53.65625 15.1875 63.9375 
Q 23.390625 74.21875 37.203125 74.21875 
Q 40.921875 74.21875 44.703125 73.484375 
Q 48.484375 72.75 52.59375 71.296875 
z
" id="DejaVuSans-54"/>
      </defs>
      <g transform="translate(194.785735 322.182437)scale(0.1 -0.1)">
       <use xlink:href="#DejaVuSans-54"/>
       <use x="63.623047" xlink:href="#DejaVuSans-48"/>
      </g>
     </g>
    </g>
    <g id="xtick_5">
     <g id="line2d_5">
      <g>
       <use style="stroke:#000000;stroke-width:0.8;" x="243.586738" xlink:href="#mdd704b84e5" y="307.584"/>
      </g>
     </g>
     <g id="text_5">
      <!-- 80 -->
      <defs>
       <path d="M 31.78125 34.625 
Q 24.75 34.625 20.71875 30.859375 
Q 16.703125 27.09375 16.703125 20.515625 
Q 16.703125 13.921875 20.71875 10.15625 
Q 24.75 6.390625 31.78125 6.390625 
Q 38.8125 6.390625 42.859375 10.171875 
Q 46.921875 13.96875 46.921875 20.515625 
Q 46.921875 27.09375 42.890625 30.859375 
Q 38.875 34.625 31.78125 34.625 
z
M 21.921875 38.8125 
Q 15.578125 40.375 12.03125 44.71875 
Q 8.5 49.078125 8.5 55.328125 
Q 8.5 64.0625 14.71875 69.140625 
Q 20.953125 74.21875 31.78125 74.21875 
Q 42.671875 74.21875 48.875 69.140625 
Q 55.078125 64.0625 55.078125 55.328125 
Q 55.078125 49.078125 51.53125 44.71875 
Q 48 40.375 41.703125 38.8125 
Q 48.828125 37.15625 52.796875 32.3125 
Q 56.78125 27.484375 56.78125 20.515625 
Q 56.78125 9.90625 50.3125 4.234375 
Q 43.84375 -1.421875 31.78125 -1.421875 
Q 19.734375 -1.421875 13.25 4.234375 
Q 6.78125 9.90625 6.78125 20.515625 
Q 6.78125 27.484375 10.78125 32.3125 
Q 14.796875 37.15625 21.921875 38.8125 
z
M 18.3125 54.390625 
Q 18.3125 48.734375 21.84375 45.5625 
Q 25.390625 42.390625 31.78125 42.390625 
Q 38.140625 42.390625 41.71875 45.5625 
Q 45.3125 48.734375 45.3125 54.390625 
Q 45.3125 60.0625 41.71875 63.234375 
Q 38.140625 66.40625 31.78125 66.40625 
Q 25.390625 66.40625 21.84375 63.234375 
Q 18.3125 60.0625 18.3125 54.390625 
z
" id="DejaVuSans-56"/>
      </defs>
      <g transform="translate(237.224238 322.182437)scale(0.1 -0.1)">
       <use xlink:href="#DejaVuSans-56"/>
       <use x="63.623047" xlink:href="#DejaVuSans-48"/>
      </g>
     </g>
    </g>
    <g id="xtick_6">
     <g id="line2d_6">
      <g>
       <use style="stroke:#000000;stroke-width:0.8;" x="286.025241" xlink:href="#mdd704b84e5" y="307.584"/>
      </g>
     </g>
     <g id="text_6">
      <!-- 100 -->
      <defs>
       <path d="M 12.40625 8.296875 
L 28.515625 8.296875 
L 28.515625 63.921875 
L 10.984375 60.40625 
L 10.984375 69.390625 
L 28.421875 72.90625 
L 38.28125 72.90625 
L 38.28125 8.296875 
L 54.390625 8.296875 
L 54.390625 0 
L 12.40625 0 
z
" id="DejaVuSans-49"/>
      </defs>
      <g transform="translate(276.481491 322.182437)scale(0.1 -0.1)">
       <use xlink:href="#DejaVuSans-49"/>
       <use x="63.623047" xlink:href="#DejaVuSans-48"/>
       <use x="127.246094" xlink:href="#DejaVuSans-48"/>
      </g>
     </g>
    </g>
    <g id="xtick_7">
     <g id="line2d_7">
      <g>
       <use style="stroke:#000000;stroke-width:0.8;" x="328.463743" xlink:href="#mdd704b84e5" y="307.584"/>
      </g>
     </g>
     <g id="text_7">
      <!-- 120 -->
      <g transform="translate(318.919993 322.182437)scale(0.1 -0.1)">
       <use xlink:href="#DejaVuSans-49"/>
       <use x="63.623047" xlink:href="#DejaVuSans-50"/>
       <use x="127.246094" xlink:href="#DejaVuSans-48"/>
      </g>
     </g>
    </g>
    <g id="xtick_8">
     <g id="line2d_8">
      <g>
       <use style="stroke:#000000;stroke-width:0.8;" x="370.902246" xlink:href="#mdd704b84e5" y="307.584"/>
      </g>
     </g>
     <g id="text_8">
      <!-- 140 -->
      <g transform="translate(361.358496 322.182437)scale(0.1 -0.1)">
       <use xlink:href="#DejaVuSans-49"/>
       <use x="63.623047" xlink:href="#DejaVuSans-52"/>
       <use x="127.246094" xlink:href="#DejaVuSans-48"/>
      </g>
     </g>
    </g>
    <g id="xtick_9">
     <g id="line2d_9">
      <g>
       <use style="stroke:#000000;stroke-width:0.8;" x="413.340749" xlink:href="#mdd704b84e5" y="307.584"/>
      </g>
     </g>
     <g id="text_9">
      <!-- 160 -->
      <g transform="translate(403.796999 322.182437)scale(0.1 -0.1)">
       <use xlink:href="#DejaVuSans-49"/>
       <use x="63.623047" xlink:href="#DejaVuSans-54"/>
       <use x="127.246094" xlink:href="#DejaVuSans-48"/>
      </g>
     </g>
    </g>
   </g>
   <g id="matplotlib.axis_2">
    <g id="ytick_1">
     <g id="line2d_10">
      <defs>
       <path d="M 0 0 
L -3.5 0 
" id="m2dd057b06a" style="stroke:#000000;stroke-width:0.8;"/>
      </defs>
      <g>
       <use style="stroke:#000000;stroke-width:0.8;" x="57.6" xlink:href="#m2dd057b06a" y="304.540719"/>
      </g>
     </g>
     <g id="text_10">
      <!-- 0 -->
      <g transform="translate(44.2375 308.339937)scale(0.1 -0.1)">
       <use xlink:href="#DejaVuSans-48"/>
      </g>
     </g>
    </g>
    <g id="ytick_2">
     <g id="line2d_11">
      <g>
       <use style="stroke:#000000;stroke-width:0.8;" x="57.6" xlink:href="#m2dd057b06a" y="253.966871"/>
      </g>
     </g>
     <g id="text_11">
      <!-- 20000 -->
      <g transform="translate(18.7875 257.76609)scale(0.1 -0.1)">
       <use xlink:href="#DejaVuSans-50"/>
       <use x="63.623047" xlink:href="#DejaVuSans-48"/>
       <use x="127.246094" xlink:href="#DejaVuSans-48"/>
       <use x="190.869141" xlink:href="#DejaVuSans-48"/>
       <use x="254.492188" xlink:href="#DejaVuSans-48"/>
      </g>
     </g>
    </g>
    <g id="ytick_3">
     <g id="line2d_12">
      <g>
       <use style="stroke:#000000;stroke-width:0.8;" x="57.6" xlink:href="#m2dd057b06a" y="203.393024"/>
      </g>
     </g>
     <g id="text_12">
      <!-- 40000 -->
      <g transform="translate(18.7875 207.192242)scale(0.1 -0.1)">
       <use xlink:href="#DejaVuSans-52"/>
       <use x="63.623047" xlink:href="#DejaVuSans-48"/>
       <use x="127.246094" xlink:href="#DejaVuSans-48"/>
       <use x="190.869141" xlink:href="#DejaVuSans-48"/>
       <use x="254.492188" xlink:href="#DejaVuSans-48"/>
      </g>
     </g>
    </g>
    <g id="ytick_4">
     <g id="line2d_13">
      <g>
       <use style="stroke:#000000;stroke-width:0.8;" x="57.6" xlink:href="#m2dd057b06a" y="152.819176"/>
      </g>
     </g>
     <g id="text_13">
      <!-- 60000 -->
      <g transform="translate(18.7875 156.618395)scale(0.1 -0.1)">
       <use xlink:href="#DejaVuSans-54"/>
       <use x="63.623047" xlink:href="#DejaVuSans-48"/>
       <use x="127.246094" xlink:href="#DejaVuSans-48"/>
       <use x="190.869141" xlink:href="#DejaVuSans-48"/>
       <use x="254.492188" xlink:href="#DejaVuSans-48"/>
      </g>
     </g>
    </g>
    <g id="ytick_5">
     <g id="line2d_14">
      <g>
       <use style="stroke:#000000;stroke-width:0.8;" x="57.6" xlink:href="#m2dd057b06a" y="102.245328"/>
      </g>
     </g>
     <g id="text_14">
      <!-- 80000 -->
      <g transform="translate(18.7875 106.044547)scale(0.1 -0.1)">
       <use xlink:href="#DejaVuSans-56"/>
       <use x="63.623047" xlink:href="#DejaVuSans-48"/>
       <use x="127.246094" xlink:href="#DejaVuSans-48"/>
       <use x="190.869141" xlink:href="#DejaVuSans-48"/>
       <use x="254.492188" xlink:href="#DejaVuSans-48"/>
      </g>
     </g>
    </g>
    <g id="ytick_6">
     <g id="line2d_15">
      <g>
       <use style="stroke:#000000;stroke-width:0.8;" x="57.6" xlink:href="#m2dd057b06a" y="51.671481"/>
      </g>
     </g>
     <g id="text_15">
      <!-- 100000 -->
      <g transform="translate(12.425 55.470699)scale(0.1 -0.1)">
       <use xlink:href="#DejaVuSans-49"/>
       <use x="63.623047" xlink:href="#DejaVuSans-48"/>
       <use x="127.246094" xlink:href="#DejaVuSans-48"/>
       <use x="190.869141" xlink:href="#DejaVuSans-48"/>
       <use x="254.492188" xlink:href="#DejaVuSans-48"/>
       <use x="318.115234" xlink:href="#DejaVuSans-48"/>
      </g>
     </g>
    </g>
    <g id="text_16">
     <!-- Mean Root Square Error -->
     <defs>
      <path d="M 9.8125 72.90625 
L 24.515625 72.90625 
L 43.109375 23.296875 
L 61.8125 72.90625 
L 76.515625 72.90625 
L 76.515625 0 
L 66.890625 0 
L 66.890625 64.015625 
L 48.09375 14.015625 
L 38.1875 14.015625 
L 19.390625 64.015625 
L 19.390625 0 
L 9.8125 0 
z
" id="DejaVuSans-77"/>
      <path d="M 56.203125 29.59375 
L 56.203125 25.203125 
L 14.890625 25.203125 
Q 15.484375 15.921875 20.484375 11.0625 
Q 25.484375 6.203125 34.421875 6.203125 
Q 39.59375 6.203125 44.453125 7.46875 
Q 49.3125 8.734375 54.109375 11.28125 
L 54.109375 2.78125 
Q 49.265625 0.734375 44.1875 -0.34375 
Q 39.109375 -1.421875 33.890625 -1.421875 
Q 20.796875 -1.421875 13.15625 6.1875 
Q 5.515625 13.8125 5.515625 26.8125 
Q 5.515625 40.234375 12.765625 48.109375 
Q 20.015625 56 32.328125 56 
Q 43.359375 56 49.78125 48.890625 
Q 56.203125 41.796875 56.203125 29.59375 
z
M 47.21875 32.234375 
Q 47.125 39.59375 43.09375 43.984375 
Q 39.0625 48.390625 32.421875 48.390625 
Q 24.90625 48.390625 20.390625 44.140625 
Q 15.875 39.890625 15.1875 32.171875 
z
" id="DejaVuSans-101"/>
      <path d="M 34.28125 27.484375 
Q 23.390625 27.484375 19.1875 25 
Q 14.984375 22.515625 14.984375 16.5 
Q 14.984375 11.71875 18.140625 8.90625 
Q 21.296875 6.109375 26.703125 6.109375 
Q 34.1875 6.109375 38.703125 11.40625 
Q 43.21875 16.703125 43.21875 25.484375 
L 43.21875 27.484375 
z
M 52.203125 31.203125 
L 52.203125 0 
L 43.21875 0 
L 43.21875 8.296875 
Q 40.140625 3.328125 35.546875 0.953125 
Q 30.953125 -1.421875 24.3125 -1.421875 
Q 15.921875 -1.421875 10.953125 3.296875 
Q 6 8.015625 6 15.921875 
Q 6 25.140625 12.171875 29.828125 
Q 18.359375 34.515625 30.609375 34.515625 
L 43.21875 34.515625 
L 43.21875 35.40625 
Q 43.21875 41.609375 39.140625 45 
Q 35.0625 48.390625 27.6875 48.390625 
Q 23 48.390625 18.546875 47.265625 
Q 14.109375 46.140625 10.015625 43.890625 
L 10.015625 52.203125 
Q 14.9375 54.109375 19.578125 55.046875 
Q 24.21875 56 28.609375 56 
Q 40.484375 56 46.34375 49.84375 
Q 52.203125 43.703125 52.203125 31.203125 
z
" id="DejaVuSans-97"/>
      <path d="M 54.890625 33.015625 
L 54.890625 0 
L 45.90625 0 
L 45.90625 32.71875 
Q 45.90625 40.484375 42.875 44.328125 
Q 39.84375 48.1875 33.796875 48.1875 
Q 26.515625 48.1875 22.3125 43.546875 
Q 18.109375 38.921875 18.109375 30.90625 
L 18.109375 0 
L 9.078125 0 
L 9.078125 54.6875 
L 18.109375 54.6875 
L 18.109375 46.1875 
Q 21.34375 51.125 25.703125 53.5625 
Q 30.078125 56 35.796875 56 
Q 45.21875 56 50.046875 50.171875 
Q 54.890625 44.34375 54.890625 33.015625 
z
" id="DejaVuSans-110"/>
      <path id="DejaVuSans-32"/>
      <path d="M 44.390625 34.1875 
Q 47.5625 33.109375 50.5625 29.59375 
Q 53.5625 26.078125 56.59375 19.921875 
L 66.609375 0 
L 56 0 
L 46.6875 18.703125 
Q 43.0625 26.03125 39.671875 28.421875 
Q 36.28125 30.8125 30.421875 30.8125 
L 19.671875 30.8125 
L 19.671875 0 
L 9.8125 0 
L 9.8125 72.90625 
L 32.078125 72.90625 
Q 44.578125 72.90625 50.734375 67.671875 
Q 56.890625 62.453125 56.890625 51.90625 
Q 56.890625 45.015625 53.6875 40.46875 
Q 50.484375 35.9375 44.390625 34.1875 
z
M 19.671875 64.796875 
L 19.671875 38.921875 
L 32.078125 38.921875 
Q 39.203125 38.921875 42.84375 42.21875 
Q 46.484375 45.515625 46.484375 51.90625 
Q 46.484375 58.296875 42.84375 61.546875 
Q 39.203125 64.796875 32.078125 64.796875 
z
" id="DejaVuSans-82"/>
      <path d="M 30.609375 48.390625 
Q 23.390625 48.390625 19.1875 42.75 
Q 14.984375 37.109375 14.984375 27.296875 
Q 14.984375 17.484375 19.15625 11.84375 
Q 23.34375 6.203125 30.609375 6.203125 
Q 37.796875 6.203125 41.984375 11.859375 
Q 46.1875 17.53125 46.1875 27.296875 
Q 46.1875 37.015625 41.984375 42.703125 
Q 37.796875 48.390625 30.609375 48.390625 
z
M 30.609375 56 
Q 42.328125 56 49.015625 48.375 
Q 55.71875 40.765625 55.71875 27.296875 
Q 55.71875 13.875 49.015625 6.21875 
Q 42.328125 -1.421875 30.609375 -1.421875 
Q 18.84375 -1.421875 12.171875 6.21875 
Q 5.515625 13.875 5.515625 27.296875 
Q 5.515625 40.765625 12.171875 48.375 
Q 18.84375 56 30.609375 56 
z
" id="DejaVuSans-111"/>
      <path d="M 18.3125 70.21875 
L 18.3125 54.6875 
L 36.8125 54.6875 
L 36.8125 47.703125 
L 18.3125 47.703125 
L 18.3125 18.015625 
Q 18.3125 11.328125 20.140625 9.421875 
Q 21.96875 7.515625 27.59375 7.515625 
L 36.8125 7.515625 
L 36.8125 0 
L 27.59375 0 
Q 17.1875 0 13.234375 3.875 
Q 9.28125 7.765625 9.28125 18.015625 
L 9.28125 47.703125 
L 2.6875 47.703125 
L 2.6875 54.6875 
L 9.28125 54.6875 
L 9.28125 70.21875 
z
" id="DejaVuSans-116"/>
      <path d="M 53.515625 70.515625 
L 53.515625 60.890625 
Q 47.90625 63.578125 42.921875 64.890625 
Q 37.9375 66.21875 33.296875 66.21875 
Q 25.25 66.21875 20.875 63.09375 
Q 16.5 59.96875 16.5 54.203125 
Q 16.5 49.359375 19.40625 46.890625 
Q 22.3125 44.4375 30.421875 42.921875 
L 36.375 41.703125 
Q 47.40625 39.59375 52.65625 34.296875 
Q 57.90625 29 57.90625 20.125 
Q 57.90625 9.515625 50.796875 4.046875 
Q 43.703125 -1.421875 29.984375 -1.421875 
Q 24.8125 -1.421875 18.96875 -0.25 
Q 13.140625 0.921875 6.890625 3.21875 
L 6.890625 13.375 
Q 12.890625 10.015625 18.65625 8.296875 
Q 24.421875 6.59375 29.984375 6.59375 
Q 38.421875 6.59375 43.015625 9.90625 
Q 47.609375 13.234375 47.609375 19.390625 
Q 47.609375 24.75 44.3125 27.78125 
Q 41.015625 30.8125 33.5 32.328125 
L 27.484375 33.5 
Q 16.453125 35.6875 11.515625 40.375 
Q 6.59375 45.0625 6.59375 53.421875 
Q 6.59375 63.09375 13.40625 68.65625 
Q 20.21875 74.21875 32.171875 74.21875 
Q 37.3125 74.21875 42.625 73.28125 
Q 47.953125 72.359375 53.515625 70.515625 
z
" id="DejaVuSans-83"/>
      <path d="M 14.796875 27.296875 
Q 14.796875 17.390625 18.875 11.75 
Q 22.953125 6.109375 30.078125 6.109375 
Q 37.203125 6.109375 41.296875 11.75 
Q 45.40625 17.390625 45.40625 27.296875 
Q 45.40625 37.203125 41.296875 42.84375 
Q 37.203125 48.484375 30.078125 48.484375 
Q 22.953125 48.484375 18.875 42.84375 
Q 14.796875 37.203125 14.796875 27.296875 
z
M 45.40625 8.203125 
Q 42.578125 3.328125 38.25 0.953125 
Q 33.9375 -1.421875 27.875 -1.421875 
Q 17.96875 -1.421875 11.734375 6.484375 
Q 5.515625 14.40625 5.515625 27.296875 
Q 5.515625 40.1875 11.734375 48.09375 
Q 17.96875 56 27.875 56 
Q 33.9375 56 38.25 53.625 
Q 42.578125 51.265625 45.40625 46.390625 
L 45.40625 54.6875 
L 54.390625 54.6875 
L 54.390625 -20.796875 
L 45.40625 -20.796875 
z
" id="DejaVuSans-113"/>
      <path d="M 8.5 21.578125 
L 8.5 54.6875 
L 17.484375 54.6875 
L 17.484375 21.921875 
Q 17.484375 14.15625 20.5 10.265625 
Q 23.53125 6.390625 29.59375 6.390625 
Q 36.859375 6.390625 41.078125 11.03125 
Q 45.3125 15.671875 45.3125 23.6875 
L 45.3125 54.6875 
L 54.296875 54.6875 
L 54.296875 0 
L 45.3125 0 
L 45.3125 8.40625 
Q 42.046875 3.421875 37.71875 1 
Q 33.40625 -1.421875 27.6875 -1.421875 
Q 18.265625 -1.421875 13.375 4.4375 
Q 8.5 10.296875 8.5 21.578125 
z
M 31.109375 56 
z
" id="DejaVuSans-117"/>
      <path d="M 41.109375 46.296875 
Q 39.59375 47.171875 37.8125 47.578125 
Q 36.03125 48 33.890625 48 
Q 26.265625 48 22.1875 43.046875 
Q 18.109375 38.09375 18.109375 28.8125 
L 18.109375 0 
L 9.078125 0 
L 9.078125 54.6875 
L 18.109375 54.6875 
L 18.109375 46.1875 
Q 20.953125 51.171875 25.484375 53.578125 
Q 30.03125 56 36.53125 56 
Q 37.453125 56 38.578125 55.875 
Q 39.703125 55.765625 41.0625 55.515625 
z
" id="DejaVuSans-114"/>
      <path d="M 9.8125 72.90625 
L 55.90625 72.90625 
L 55.90625 64.59375 
L 19.671875 64.59375 
L 19.671875 43.015625 
L 54.390625 43.015625 
L 54.390625 34.71875 
L 19.671875 34.71875 
L 19.671875 8.296875 
L 56.78125 8.296875 
L 56.78125 0 
L 9.8125 0 
z
" id="DejaVuSans-69"/>
     </defs>
     <g transform="translate(6.345312 234.032688)rotate(-90)scale(0.1 -0.1)">
      <use xlink:href="#DejaVuSans-77"/>
      <use x="86.279297" xlink:href="#DejaVuSans-101"/>
      <use x="147.802734" xlink:href="#DejaVuSans-97"/>
      <use x="209.082031" xlink:href="#DejaVuSans-110"/>
      <use x="272.460938" xlink:href="#DejaVuSans-32"/>
      <use x="304.248047" xlink:href="#DejaVuSans-82"/>
      <use x="369.230469" xlink:href="#DejaVuSans-111"/>
      <use x="430.412109" xlink:href="#DejaVuSans-111"/>
      <use x="491.59375" xlink:href="#DejaVuSans-116"/>
      <use x="530.802734" xlink:href="#DejaVuSans-32"/>
      <use x="562.589844" xlink:href="#DejaVuSans-83"/>
      <use x="626.066406" xlink:href="#DejaVuSans-113"/>
      <use x="689.542969" xlink:href="#DejaVuSans-117"/>
      <use x="752.921875" xlink:href="#DejaVuSans-97"/>
      <use x="814.201172" xlink:href="#DejaVuSans-114"/>
      <use x="853.064453" xlink:href="#DejaVuSans-101"/>
      <use x="914.587891" xlink:href="#DejaVuSans-32"/>
      <use x="946.375" xlink:href="#DejaVuSans-69"/>
      <use x="1009.558594" xlink:href="#DejaVuSans-114"/>
      <use x="1048.921875" xlink:href="#DejaVuSans-114"/>
      <use x="1087.785156" xlink:href="#DejaVuSans-111"/>
      <use x="1148.966797" xlink:href="#DejaVuSans-114"/>
     </g>
    </g>
   </g>
   <g id="line2d_16">
    <path clip-path="url(#pbe26a08a14)" d="M 73.832727 189.826589 
L 75.954652 175.779703 
L 78.076578 195.447872 
L 80.198503 208.216504 
L 82.320428 224.155695 
L 84.442353 293.069938 
L 86.564278 293.604124 
L 88.686203 279.003454 
L 90.808128 274.396177 
L 92.930053 277.496354 
L 95.051979 275.805291 
L 97.173904 255.114265 
L 99.295829 267.495375 
L 101.417754 267.128715 
L 103.539679 283.811763 
L 105.661604 265.037486 
L 107.783529 205.913287 
L 109.905455 215.128263 
L 112.02738 204.697829 
L 114.149305 188.109607 
L 116.27123 208.661133 
L 118.393155 159.91848 
L 120.51508 122.936354 
L 122.637005 115.839579 
L 124.75893 192.292064 
L 126.880856 240.594303 
L 129.002781 247.865136 
L 131.124706 236.967737 
L 133.246631 232.258047 
L 135.368556 209.801151 
L 137.490481 219.123296 
L 139.612406 196.522205 
L 141.734332 187.501998 
L 143.856257 177.901998 
L 145.978182 195.606457 
L 148.100107 220.387643 
L 150.222032 217.492064 
L 152.343957 233.65515 
L 154.465882 250.681377 
L 156.587807 215.447661 
L 158.709733 252.611913 
L 160.831658 239.576805 
L 162.953583 235.222036 
L 165.075508 238.619515 
L 167.197433 228.067643 
L 169.319358 240.591895 
L 171.441283 245.714303 
L 173.563209 236.862073 
L 175.685134 233.083484 
L 177.807059 222.695977 
L 179.928984 230.216128 
L 182.050909 236.849731 
L 184.172834 226.267153 
L 186.294759 213.153776 
L 188.416684 202.325554 
L 190.53861 210.962845 
L 192.660535 192.709298 
L 194.78246 204.457182 
L 196.904385 154.511293 
L 199.02631 181.127887 
L 201.148235 209.253268 
L 203.27016 209.819515 
L 207.514011 223.56356 
L 209.635936 197.622186 
L 211.757861 181.093569 
L 213.879786 158.795921 
L 216.001711 177.63197 
L 218.123636 168.779439 
L 220.245561 151.757125 
L 222.367487 198.530709 
L 224.489412 203.730183 
L 226.611337 155.046954 
L 228.733262 198.084877 
L 230.855187 211.997802 
L 232.977112 221.283522 
L 235.099037 210.473362 
L 237.220963 213.935563 
L 239.342888 231.581622 
L 241.464813 239.412139 
L 243.586738 200.257445 
L 245.708663 193.571582 
L 247.830588 226.069072 
L 249.952513 219.113904 
L 252.074439 203.661065 
L 254.196364 208.93086 
L 256.318289 199.133983 
L 258.440214 193.926683 
L 260.562139 206.581283 
L 262.684064 200.512421 
L 264.805989 245.132704 
L 269.04984 263.350126 
L 271.171765 264.56715 
L 273.29369 278.081114 
L 275.415615 279.481377 
L 277.53754 277.449994 
L 279.659465 271.572892 
L 281.78139 251.244914 
L 283.903316 192.724049 
L 286.025241 188.948771 
L 288.147166 151.089129 
L 290.269091 117.801001 
L 292.391016 185.267718 
L 294.512941 157.992459 
L 296.634866 170.234642 
L 298.756791 209.770747 
L 300.878717 199.53466 
L 303.000642 172.283786 
L 305.122567 207.249279 
L 307.244492 219.807849 
L 309.366417 236.927699 
L 311.488342 252.457242 
L 315.732193 207.095451 
L 317.854118 196.603484 
L 319.976043 195.286036 
L 322.097968 216.641264 
L 324.219893 163.92435 
L 326.341818 159.969054 
L 330.585668 221.091763 
L 332.707594 230.580681 
L 334.829519 236.396071 
L 336.951444 259.256053 
L 339.073369 236.789825 
L 341.195294 262.353701 
L 343.317219 221.583353 
L 345.439144 184.514228 
L 347.56107 204.334058 
L 349.682995 214.042431 
L 351.80492 182.493381 
L 353.926845 166.69086 
L 356.04877 189.898837 
L 358.170695 176.67197 
L 360.29262 187.697746 
L 362.414545 137.883635 
L 364.536471 120.017821 
L 366.658396 223.425686 
L 368.780321 226.095624 
L 370.902246 274.393648 
L 373.024171 225.504331 
L 375.146096 203.361415 
L 377.268021 229.638743 
L 379.389947 230.646909 
L 381.511872 244.97737 
L 383.633797 212.463443 
L 385.755722 189.368896 
L 387.877647 248.282371 
L 389.999572 262.345272 
L 392.121497 238.206796 
L 394.243422 233.244237 
L 396.365348 240.322047 
L 398.487273 237.353362 
L 398.487273 237.353362 
" style="fill:none;stroke:#ff0000;stroke-linecap:square;stroke-width:1.5;"/>
   </g>
   <g id="line2d_17">
    <path clip-path="url(#pbe26a08a14)" d="M 73.832727 240.616549 
L 75.954652 227.974271 
L 78.076578 173.34251 
L 80.198503 208.289885 
L 82.320428 238.121471 
L 84.442353 293.224816 
L 86.564278 295.487976 
L 88.686203 295.487996 
L 92.930053 280.169245 
L 95.051979 247.588239 
L 97.173904 257.158162 
L 99.295829 241.345682 
L 101.417754 257.137678 
L 103.539679 289.874287 
L 105.661604 254.626135 
L 107.783529 240.227096 
L 109.905455 164.914602 
L 112.02738 164.350355 
L 114.149305 172.080692 
L 116.27123 157.286925 
L 118.393155 115.087036 
L 120.51508 69.060884 
L 122.637005 56.349119 
L 124.75893 103.823964 
L 126.880856 165.207574 
L 129.002781 201.384234 
L 131.124706 193.448451 
L 133.246631 211.010181 
L 135.368556 154.356655 
L 137.490481 182.544566 
L 139.612406 160.84914 
L 141.734332 121.640375 
L 143.856257 122.204668 
L 145.978182 126.384511 
L 148.100107 188.050295 
L 150.222032 196.659698 
L 152.343957 180.280201 
L 154.465882 216.94532 
L 156.587807 163.714569 
L 158.709733 173.738552 
L 160.831658 178.263987 
L 162.953583 219.506299 
L 167.197433 219.505575 
L 169.319358 197.182958 
L 171.441283 191.155675 
L 173.563209 183.891498 
L 175.685134 152.451902 
L 177.807059 194.247415 
L 179.928984 196.886401 
L 182.050909 192.557469 
L 184.172834 182.825713 
L 186.294759 150.181517 
L 188.416684 138.641762 
L 190.53861 169.893353 
L 192.660535 139.958479 
L 194.78246 173.686311 
L 196.904385 126.871946 
L 199.02631 147.531989 
L 201.148235 163.144383 
L 203.27016 166.410445 
L 205.392086 161.391451 
L 207.514011 126.978961 
L 209.635936 140.689754 
L 211.757861 126.14713 
L 213.879786 114.915639 
L 216.001711 55.293047 
L 218.123636 93.677694 
L 220.245561 106.235501 
L 224.489412 218.689831 
L 226.611337 185.591235 
L 228.733262 206.468941 
L 230.855187 218.523117 
L 232.977112 198.933706 
L 235.099037 189.029337 
L 237.220963 187.380357 
L 239.342888 202.941771 
L 241.464813 209.434418 
L 243.586738 172.119584 
L 245.708663 138.307758 
L 247.830588 170.778303 
L 249.952513 166.773523 
L 252.074439 166.755774 
L 254.196364 199.671986 
L 256.318289 186.833674 
L 258.440214 208.904655 
L 260.562139 205.241067 
L 262.684064 225.889979 
L 264.805989 224.529779 
L 266.927914 245.58086 
L 269.04984 262.266651 
L 271.171765 246.431909 
L 273.29369 257.107758 
L 275.415615 276.36872 
L 277.53754 281.06583 
L 279.659465 286.839814 
L 281.78139 271.883979 
L 283.903316 244.39038 
L 286.025241 236.938461 
L 288.147166 170.49118 
L 290.269091 179.232004 
L 292.391016 207.233892 
L 294.512941 188.647227 
L 296.634866 187.704986 
L 298.756791 209.30945 
L 300.878717 257.436758 
L 303.000642 255.961919 
L 305.122567 246.341861 
L 307.244492 261.618356 
L 309.366417 272.509485 
L 311.488342 276.674487 
L 313.610267 251.303325 
L 315.732193 239.615024 
L 317.854118 221.052076 
L 319.976043 185.035087 
L 322.097968 213.002386 
L 324.219893 191.213514 
L 326.341818 189.569249 
L 328.463743 173.681256 
L 330.585668 230.523688 
L 332.707594 228.858033 
L 334.829519 233.281909 
L 336.951444 238.121306 
L 339.073369 231.358306 
L 341.195294 216.461661 
L 343.317219 211.848813 
L 345.439144 228.428028 
L 347.56107 206.491957 
L 349.682995 198.020071 
L 351.80492 171.57362 
L 353.926845 127.929866 
L 356.04877 170.379101 
L 358.170695 174.920803 
L 360.29262 190.176513 
L 362.414545 141.187474 
L 364.536471 138.827474 
L 366.658396 232.003693 
L 368.780321 226.547525 
L 370.902246 261.371091 
L 373.024171 219.682787 
L 375.146096 208.045089 
L 377.268021 227.711463 
L 379.389947 239.923796 
L 381.511872 260.435118 
L 383.633797 223.278982 
L 385.755722 223.036814 
L 387.877647 242.608941 
L 389.999572 179.052324 
L 392.121497 198.982772 
L 394.243422 245.371278 
L 396.365348 230.267979 
L 398.487273 205.807069 
L 398.487273 205.807069 
" style="fill:none;stroke:#0000ff;stroke-linecap:square;stroke-width:1.5;"/>
   </g>
   <g id="line2d_18">
    <path clip-path="url(#pbe26a08a14)" d="M 73.832727 240.628019 
L 75.954652 227.984557 
L 78.076578 176.386589 
L 80.198503 208.281829 
L 82.320428 238.120399 
L 84.442353 293.22482 
L 86.564278 295.488 
L 88.686203 295.488 
L 92.930053 280.164124 
L 95.051979 247.518706 
L 97.173904 257.127737 
L 99.295829 241.323409 
L 101.417754 257.127737 
L 103.539679 289.874303 
L 105.661604 254.624331 
L 107.783529 240.227643 
L 109.905455 164.914754 
L 112.02738 164.350013 
L 114.149305 172.087812 
L 116.27123 157.286532 
L 118.393155 114.425197 
L 120.51508 68.52943 
L 122.637005 55.666815 
L 124.75893 99.674491 
L 126.880856 156.696504 
L 129.002781 201.319496 
L 131.124706 190.918141 
L 133.246631 209.251161 
L 135.368556 154.167812 
L 137.490481 182.152008 
L 139.612406 155.27562 
L 141.734332 117.381358 
L 143.856257 117.381358 
L 145.978182 131.397539 
L 148.100107 187.823503 
L 150.222032 195.680512 
L 152.343957 178.864707 
L 154.465882 216.614472 
L 156.587807 163.511932 
L 158.709733 173.596598 
L 160.831658 178.250596 
L 162.953583 219.504406 
L 167.197433 219.504406 
L 169.319358 196.890672 
L 171.441283 191.761039 
L 173.563209 180.815413 
L 175.685134 146.71419 
L 177.807059 188.329242 
L 179.928984 204.193776 
L 182.050909 193.06753 
L 184.172834 185.186438 
L 186.294759 149.170634 
L 188.416684 138.405629 
L 190.53861 169.833663 
L 192.660535 139.850596 
L 194.78246 173.680888 
L 196.904385 126.857934 
L 199.02631 148.562544 
L 201.148235 163.481829 
L 203.27016 166.401866 
L 205.392086 161.488978 
L 207.514011 128.12228 
L 209.635936 140.789825 
L 211.757861 126.267906 
L 213.879786 115.358405 
L 216.001711 53.568 
L 218.123636 86.904595 
L 220.245561 95.839308 
L 222.367487 164.776278 
L 224.489412 218.059439 
L 226.611337 185.489881 
L 228.733262 206.511744 
L 230.855187 220.696504 
L 232.977112 197.902149 
L 235.099037 189.738085 
L 237.220963 193.573268 
L 239.342888 205.036674 
L 241.464813 209.461885 
L 243.586738 172.121528 
L 245.708663 138.15276 
L 247.830588 170.730747 
L 249.952513 166.777558 
L 252.074439 166.777558 
L 254.196364 199.72642 
L 256.318289 187.173268 
L 258.440214 208.81165 
L 260.562139 204.994529 
L 262.684064 225.224068 
L 264.805989 222.827831 
L 266.927914 241.395658 
L 269.04984 263.90102 
L 271.171765 243.750954 
L 273.29369 246.254359 
L 275.415615 276.371086 
L 277.53754 281.066024 
L 279.659465 286.839872 
L 281.78139 271.884463 
L 283.903316 244.399985 
L 286.025241 238.180606 
L 288.147166 168.412779 
L 290.269091 178.063955 
L 292.391016 203.176278 
L 294.512941 186.282205 
L 296.634866 185.908922 
L 298.756791 203.898762 
L 300.878717 261.384369 
L 303.000642 256.706288 
L 305.122567 246.416918 
L 307.244492 261.625197 
L 309.366417 272.510615 
L 311.488342 276.674529 
L 313.610267 251.5899 
L 315.732193 238.921151 
L 317.854118 221.051725 
L 319.976043 185.034717 
L 322.097968 213.002055 
L 324.219893 191.213155 
L 326.341818 189.569505 
L 328.463743 173.680888 
L 330.585668 230.534322 
L 332.707594 228.890672 
L 334.829519 233.267718 
L 336.951444 238.120399 
L 339.073369 231.353136 
L 341.195294 216.457934 
L 343.317219 211.846081 
L 345.439144 228.427078 
L 347.56107 206.499703 
L 349.682995 198.010521 
L 351.80492 171.573644 
L 353.926845 127.929618 
L 356.04877 170.483898 
L 358.170695 174.927172 
L 360.29262 190.30704 
L 362.414545 141.187191 
L 364.536471 138.827078 
L 366.658396 232.003372 
L 368.780321 234.141923 
L 370.902246 266.155168 
L 373.024171 221.810333 
L 375.146096 208.998292 
L 377.268021 231.882958 
L 379.389947 240.20356 
L 381.511872 260.433099 
L 383.633797 222.863955 
L 385.755722 222.863955 
L 387.877647 242.587755 
L 389.999572 179.033287 
L 392.121497 198.904595 
L 394.243422 245.369317 
L 398.487273 205.668847 
L 398.487273 205.668847 
" style="fill:none;stroke:#008000;stroke-linecap:square;stroke-width:1.5;"/>
   </g>
   <g id="patch_3">
    <path d="M 57.6 307.584 
L 57.6 41.472 
" style="fill:none;stroke:#000000;stroke-linecap:square;stroke-linejoin:miter;stroke-width:0.8;"/>
   </g>
   <g id="patch_4">
    <path d="M 414.72 307.584 
L 414.72 41.472 
" style="fill:none;stroke:#000000;stroke-linecap:square;stroke-linejoin:miter;stroke-width:0.8;"/>
   </g>
   <g id="patch_5">
    <path d="M 57.6 307.584 
L 414.72 307.584 
" style="fill:none;stroke:#000000;stroke-linecap:square;stroke-linejoin:miter;stroke-width:0.8;"/>
   </g>
   <g id="patch_6">
    <path d="M 57.6 41.472 
L 414.72 41.472 
" style="fill:none;stroke:#000000;stroke-linecap:square;stroke-linejoin:miter;stroke-width:0.8;"/>
   </g>
   <g id="text_17">
    <!-- Compare monthly errors for Generated data with -->
    <defs>
     <path d="M 64.40625 67.28125 
L 64.40625 56.890625 
Q 59.421875 61.53125 53.78125 63.8125 
Q 48.140625 66.109375 41.796875 66.109375 
Q 29.296875 66.109375 22.65625 58.46875 
Q 16.015625 50.828125 16.015625 36.375 
Q 16.015625 21.96875 22.65625 14.328125 
Q 29.296875 6.6875 41.796875 6.6875 
Q 48.140625 6.6875 53.78125 8.984375 
Q 59.421875 11.28125 64.40625 15.921875 
L 64.40625 5.609375 
Q 59.234375 2.09375 53.4375 0.328125 
Q 47.65625 -1.421875 41.21875 -1.421875 
Q 24.65625 -1.421875 15.125 8.703125 
Q 5.609375 18.84375 5.609375 36.375 
Q 5.609375 53.953125 15.125 64.078125 
Q 24.65625 74.21875 41.21875 74.21875 
Q 47.75 74.21875 53.53125 72.484375 
Q 59.328125 70.75 64.40625 67.28125 
z
" id="DejaVuSans-67"/>
     <path d="M 52 44.1875 
Q 55.375 50.25 60.0625 53.125 
Q 64.75 56 71.09375 56 
Q 79.640625 56 84.28125 50.015625 
Q 88.921875 44.046875 88.921875 33.015625 
L 88.921875 0 
L 79.890625 0 
L 79.890625 32.71875 
Q 79.890625 40.578125 77.09375 44.375 
Q 74.3125 48.1875 68.609375 48.1875 
Q 61.625 48.1875 57.5625 43.546875 
Q 53.515625 38.921875 53.515625 30.90625 
L 53.515625 0 
L 44.484375 0 
L 44.484375 32.71875 
Q 44.484375 40.625 41.703125 44.40625 
Q 38.921875 48.1875 33.109375 48.1875 
Q 26.21875 48.1875 22.15625 43.53125 
Q 18.109375 38.875 18.109375 30.90625 
L 18.109375 0 
L 9.078125 0 
L 9.078125 54.6875 
L 18.109375 54.6875 
L 18.109375 46.1875 
Q 21.1875 51.21875 25.484375 53.609375 
Q 29.78125 56 35.6875 56 
Q 41.65625 56 45.828125 52.96875 
Q 50 49.953125 52 44.1875 
z
" id="DejaVuSans-109"/>
     <path d="M 18.109375 8.203125 
L 18.109375 -20.796875 
L 9.078125 -20.796875 
L 9.078125 54.6875 
L 18.109375 54.6875 
L 18.109375 46.390625 
Q 20.953125 51.265625 25.265625 53.625 
Q 29.59375 56 35.59375 56 
Q 45.5625 56 51.78125 48.09375 
Q 58.015625 40.1875 58.015625 27.296875 
Q 58.015625 14.40625 51.78125 6.484375 
Q 45.5625 -1.421875 35.59375 -1.421875 
Q 29.59375 -1.421875 25.265625 0.953125 
Q 20.953125 3.328125 18.109375 8.203125 
z
M 48.6875 27.296875 
Q 48.6875 37.203125 44.609375 42.84375 
Q 40.53125 48.484375 33.40625 48.484375 
Q 26.265625 48.484375 22.1875 42.84375 
Q 18.109375 37.203125 18.109375 27.296875 
Q 18.109375 17.390625 22.1875 11.75 
Q 26.265625 6.109375 33.40625 6.109375 
Q 40.53125 6.109375 44.609375 11.75 
Q 48.6875 17.390625 48.6875 27.296875 
z
" id="DejaVuSans-112"/>
     <path d="M 54.890625 33.015625 
L 54.890625 0 
L 45.90625 0 
L 45.90625 32.71875 
Q 45.90625 40.484375 42.875 44.328125 
Q 39.84375 48.1875 33.796875 48.1875 
Q 26.515625 48.1875 22.3125 43.546875 
Q 18.109375 38.921875 18.109375 30.90625 
L 18.109375 0 
L 9.078125 0 
L 9.078125 75.984375 
L 18.109375 75.984375 
L 18.109375 46.1875 
Q 21.34375 51.125 25.703125 53.5625 
Q 30.078125 56 35.796875 56 
Q 45.21875 56 50.046875 50.171875 
Q 54.890625 44.34375 54.890625 33.015625 
z
" id="DejaVuSans-104"/>
     <path d="M 9.421875 75.984375 
L 18.40625 75.984375 
L 18.40625 0 
L 9.421875 0 
z
" id="DejaVuSans-108"/>
     <path d="M 32.171875 -5.078125 
Q 28.375 -14.84375 24.75 -17.8125 
Q 21.140625 -20.796875 15.09375 -20.796875 
L 7.90625 -20.796875 
L 7.90625 -13.28125 
L 13.1875 -13.28125 
Q 16.890625 -13.28125 18.9375 -11.515625 
Q 21 -9.765625 23.484375 -3.21875 
L 25.09375 0.875 
L 2.984375 54.6875 
L 12.5 54.6875 
L 29.59375 11.921875 
L 46.6875 54.6875 
L 56.203125 54.6875 
z
" id="DejaVuSans-121"/>
     <path d="M 44.28125 53.078125 
L 44.28125 44.578125 
Q 40.484375 46.53125 36.375 47.5 
Q 32.28125 48.484375 27.875 48.484375 
Q 21.1875 48.484375 17.84375 46.4375 
Q 14.5 44.390625 14.5 40.28125 
Q 14.5 37.15625 16.890625 35.375 
Q 19.28125 33.59375 26.515625 31.984375 
L 29.59375 31.296875 
Q 39.15625 29.25 43.1875 25.515625 
Q 47.21875 21.78125 47.21875 15.09375 
Q 47.21875 7.46875 41.1875 3.015625 
Q 35.15625 -1.421875 24.609375 -1.421875 
Q 20.21875 -1.421875 15.453125 -0.5625 
Q 10.6875 0.296875 5.421875 2 
L 5.421875 11.28125 
Q 10.40625 8.6875 15.234375 7.390625 
Q 20.0625 6.109375 24.8125 6.109375 
Q 31.15625 6.109375 34.5625 8.28125 
Q 37.984375 10.453125 37.984375 14.40625 
Q 37.984375 18.0625 35.515625 20.015625 
Q 33.0625 21.96875 24.703125 23.78125 
L 21.578125 24.515625 
Q 13.234375 26.265625 9.515625 29.90625 
Q 5.8125 33.546875 5.8125 39.890625 
Q 5.8125 47.609375 11.28125 51.796875 
Q 16.75 56 26.8125 56 
Q 31.78125 56 36.171875 55.265625 
Q 40.578125 54.546875 44.28125 53.078125 
z
" id="DejaVuSans-115"/>
     <path d="M 37.109375 75.984375 
L 37.109375 68.5 
L 28.515625 68.5 
Q 23.6875 68.5 21.796875 66.546875 
Q 19.921875 64.59375 19.921875 59.515625 
L 19.921875 54.6875 
L 34.71875 54.6875 
L 34.71875 47.703125 
L 19.921875 47.703125 
L 19.921875 0 
L 10.890625 0 
L 10.890625 47.703125 
L 2.296875 47.703125 
L 2.296875 54.6875 
L 10.890625 54.6875 
L 10.890625 58.5 
Q 10.890625 67.625 15.140625 71.796875 
Q 19.390625 75.984375 28.609375 75.984375 
z
" id="DejaVuSans-102"/>
     <path d="M 59.515625 10.40625 
L 59.515625 29.984375 
L 43.40625 29.984375 
L 43.40625 38.09375 
L 69.28125 38.09375 
L 69.28125 6.78125 
Q 63.578125 2.734375 56.6875 0.65625 
Q 49.8125 -1.421875 42 -1.421875 
Q 24.90625 -1.421875 15.25 8.5625 
Q 5.609375 18.5625 5.609375 36.375 
Q 5.609375 54.25 15.25 64.234375 
Q 24.90625 74.21875 42 74.21875 
Q 49.125 74.21875 55.546875 72.453125 
Q 61.96875 70.703125 67.390625 67.28125 
L 67.390625 56.78125 
Q 61.921875 61.421875 55.765625 63.765625 
Q 49.609375 66.109375 42.828125 66.109375 
Q 29.4375 66.109375 22.71875 58.640625 
Q 16.015625 51.171875 16.015625 36.375 
Q 16.015625 21.625 22.71875 14.15625 
Q 29.4375 6.6875 42.828125 6.6875 
Q 48.046875 6.6875 52.140625 7.59375 
Q 56.25 8.5 59.515625 10.40625 
z
" id="DejaVuSans-71"/>
     <path d="M 45.40625 46.390625 
L 45.40625 75.984375 
L 54.390625 75.984375 
L 54.390625 0 
L 45.40625 0 
L 45.40625 8.203125 
Q 42.578125 3.328125 38.25 0.953125 
Q 33.9375 -1.421875 27.875 -1.421875 
Q 17.96875 -1.421875 11.734375 6.484375 
Q 5.515625 14.40625 5.515625 27.296875 
Q 5.515625 40.1875 11.734375 48.09375 
Q 17.96875 56 27.875 56 
Q 33.9375 56 38.25 53.625 
Q 42.578125 51.265625 45.40625 46.390625 
z
M 14.796875 27.296875 
Q 14.796875 17.390625 18.875 11.75 
Q 22.953125 6.109375 30.078125 6.109375 
Q 37.203125 6.109375 41.296875 11.75 
Q 45.40625 17.390625 45.40625 27.296875 
Q 45.40625 37.203125 41.296875 42.84375 
Q 37.203125 48.484375 30.078125 48.484375 
Q 22.953125 48.484375 18.875 42.84375 
Q 14.796875 37.203125 14.796875 27.296875 
z
" id="DejaVuSans-100"/>
     <path d="M 4.203125 54.6875 
L 13.1875 54.6875 
L 24.421875 12.015625 
L 35.59375 54.6875 
L 46.1875 54.6875 
L 57.421875 12.015625 
L 68.609375 54.6875 
L 77.59375 54.6875 
L 63.28125 0 
L 52.6875 0 
L 40.921875 44.828125 
L 29.109375 0 
L 18.5 0 
z
" id="DejaVuSans-119"/>
     <path d="M 9.421875 54.6875 
L 18.40625 54.6875 
L 18.40625 0 
L 9.421875 0 
z
M 9.421875 75.984375 
L 18.40625 75.984375 
L 18.40625 64.59375 
L 9.421875 64.59375 
z
" id="DejaVuSans-105"/>
    </defs>
    <g transform="translate(88.839375 8.59725)scale(0.12 -0.12)">
     <use xlink:href="#DejaVuSans-67"/>
     <use x="69.824219" xlink:href="#DejaVuSans-111"/>
     <use x="131.005859" xlink:href="#DejaVuSans-109"/>
     <use x="228.417969" xlink:href="#DejaVuSans-112"/>
     <use x="291.894531" xlink:href="#DejaVuSans-97"/>
     <use x="353.173828" xlink:href="#DejaVuSans-114"/>
     <use x="392.037109" xlink:href="#DejaVuSans-101"/>
     <use x="453.560547" xlink:href="#DejaVuSans-32"/>
     <use x="485.347656" xlink:href="#DejaVuSans-109"/>
     <use x="582.759766" xlink:href="#DejaVuSans-111"/>
     <use x="643.941406" xlink:href="#DejaVuSans-110"/>
     <use x="707.320312" xlink:href="#DejaVuSans-116"/>
     <use x="746.529297" xlink:href="#DejaVuSans-104"/>
     <use x="809.908203" xlink:href="#DejaVuSans-108"/>
     <use x="837.691406" xlink:href="#DejaVuSans-121"/>
     <use x="896.871094" xlink:href="#DejaVuSans-32"/>
     <use x="928.658203" xlink:href="#DejaVuSans-101"/>
     <use x="990.181641" xlink:href="#DejaVuSans-114"/>
     <use x="1029.544922" xlink:href="#DejaVuSans-114"/>
     <use x="1068.408203" xlink:href="#DejaVuSans-111"/>
     <use x="1129.589844" xlink:href="#DejaVuSans-114"/>
     <use x="1170.703125" xlink:href="#DejaVuSans-115"/>
     <use x="1222.802734" xlink:href="#DejaVuSans-32"/>
     <use x="1254.589844" xlink:href="#DejaVuSans-102"/>
     <use x="1289.794922" xlink:href="#DejaVuSans-111"/>
     <use x="1350.976562" xlink:href="#DejaVuSans-114"/>
     <use x="1392.089844" xlink:href="#DejaVuSans-32"/>
     <use x="1423.876953" xlink:href="#DejaVuSans-71"/>
     <use x="1501.367188" xlink:href="#DejaVuSans-101"/>
     <use x="1562.890625" xlink:href="#DejaVuSans-110"/>
     <use x="1626.269531" xlink:href="#DejaVuSans-101"/>
     <use x="1687.792969" xlink:href="#DejaVuSans-114"/>
     <use x="1728.90625" xlink:href="#DejaVuSans-97"/>
     <use x="1790.185547" xlink:href="#DejaVuSans-116"/>
     <use x="1829.394531" xlink:href="#DejaVuSans-101"/>
     <use x="1890.917969" xlink:href="#DejaVuSans-100"/>
     <use x="1954.394531" xlink:href="#DejaVuSans-32"/>
     <use x="1986.181641" xlink:href="#DejaVuSans-100"/>
     <use x="2049.658203" xlink:href="#DejaVuSans-97"/>
     <use x="2110.9375" xlink:href="#DejaVuSans-116"/>
     <use x="2150.146484" xlink:href="#DejaVuSans-97"/>
     <use x="2211.425781" xlink:href="#DejaVuSans-32"/>
     <use x="2243.212891" xlink:href="#DejaVuSans-119"/>
     <use x="2325" xlink:href="#DejaVuSans-105"/>
     <use x="2352.783203" xlink:href="#DejaVuSans-116"/>
     <use x="2391.992188" xlink:href="#DejaVuSans-104"/>
    </g>
    <!-- Neural Networks with solver: lbfgs -->
    <defs>
     <path d="M 9.8125 72.90625 
L 23.09375 72.90625 
L 55.421875 11.921875 
L 55.421875 72.90625 
L 64.984375 72.90625 
L 64.984375 0 
L 51.703125 0 
L 19.390625 60.984375 
L 19.390625 0 
L 9.8125 0 
z
" id="DejaVuSans-78"/>
     <path d="M 9.078125 75.984375 
L 18.109375 75.984375 
L 18.109375 31.109375 
L 44.921875 54.6875 
L 56.390625 54.6875 
L 27.390625 29.109375 
L 57.625 0 
L 45.90625 0 
L 18.109375 26.703125 
L 18.109375 0 
L 9.078125 0 
z
" id="DejaVuSans-107"/>
     <path d="M 2.984375 54.6875 
L 12.5 54.6875 
L 29.59375 8.796875 
L 46.6875 54.6875 
L 56.203125 54.6875 
L 35.6875 0 
L 23.484375 0 
z
" id="DejaVuSans-118"/>
     <path d="M 11.71875 12.40625 
L 22.015625 12.40625 
L 22.015625 0 
L 11.71875 0 
z
M 11.71875 51.703125 
L 22.015625 51.703125 
L 22.015625 39.3125 
L 11.71875 39.3125 
z
" id="DejaVuSans-58"/>
     <path d="M 48.6875 27.296875 
Q 48.6875 37.203125 44.609375 42.84375 
Q 40.53125 48.484375 33.40625 48.484375 
Q 26.265625 48.484375 22.1875 42.84375 
Q 18.109375 37.203125 18.109375 27.296875 
Q 18.109375 17.390625 22.1875 11.75 
Q 26.265625 6.109375 33.40625 6.109375 
Q 40.53125 6.109375 44.609375 11.75 
Q 48.6875 17.390625 48.6875 27.296875 
z
M 18.109375 46.390625 
Q 20.953125 51.265625 25.265625 53.625 
Q 29.59375 56 35.59375 56 
Q 45.5625 56 51.78125 48.09375 
Q 58.015625 40.1875 58.015625 27.296875 
Q 58.015625 14.40625 51.78125 6.484375 
Q 45.5625 -1.421875 35.59375 -1.421875 
Q 29.59375 -1.421875 25.265625 0.953125 
Q 20.953125 3.328125 18.109375 8.203125 
L 18.109375 0 
L 9.078125 0 
L 9.078125 75.984375 
L 18.109375 75.984375 
z
" id="DejaVuSans-98"/>
     <path d="M 45.40625 27.984375 
Q 45.40625 37.75 41.375 43.109375 
Q 37.359375 48.484375 30.078125 48.484375 
Q 22.859375 48.484375 18.828125 43.109375 
Q 14.796875 37.75 14.796875 27.984375 
Q 14.796875 18.265625 18.828125 12.890625 
Q 22.859375 7.515625 30.078125 7.515625 
Q 37.359375 7.515625 41.375 12.890625 
Q 45.40625 18.265625 45.40625 27.984375 
z
M 54.390625 6.78125 
Q 54.390625 -7.171875 48.1875 -13.984375 
Q 42 -20.796875 29.203125 -20.796875 
Q 24.46875 -20.796875 20.265625 -20.09375 
Q 16.0625 -19.390625 12.109375 -17.921875 
L 12.109375 -9.1875 
Q 16.0625 -11.328125 19.921875 -12.34375 
Q 23.78125 -13.375 27.78125 -13.375 
Q 36.625 -13.375 41.015625 -8.765625 
Q 45.40625 -4.15625 45.40625 5.171875 
L 45.40625 9.625 
Q 42.625 4.78125 38.28125 2.390625 
Q 33.9375 0 27.875 0 
Q 17.828125 0 11.671875 7.65625 
Q 5.515625 15.328125 5.515625 27.984375 
Q 5.515625 40.671875 11.671875 48.328125 
Q 17.828125 56 27.875 56 
Q 33.9375 56 38.28125 53.609375 
Q 42.625 51.21875 45.40625 46.390625 
L 45.40625 54.6875 
L 54.390625 54.6875 
z
" id="DejaVuSans-103"/>
    </defs>
    <g transform="translate(133.220625 22.034625)scale(0.12 -0.12)">
     <use xlink:href="#DejaVuSans-78"/>
     <use x="74.804688" xlink:href="#DejaVuSans-101"/>
     <use x="136.328125" xlink:href="#DejaVuSans-117"/>
     <use x="199.707031" xlink:href="#DejaVuSans-114"/>
     <use x="240.820312" xlink:href="#DejaVuSans-97"/>
     <use x="302.099609" xlink:href="#DejaVuSans-108"/>
     <use x="329.882812" xlink:href="#DejaVuSans-32"/>
     <use x="361.669922" xlink:href="#DejaVuSans-78"/>
     <use x="436.474609" xlink:href="#DejaVuSans-101"/>
     <use x="497.998047" xlink:href="#DejaVuSans-116"/>
     <use x="537.207031" xlink:href="#DejaVuSans-119"/>
     <use x="618.994141" xlink:href="#DejaVuSans-111"/>
     <use x="680.175781" xlink:href="#DejaVuSans-114"/>
     <use x="721.289062" xlink:href="#DejaVuSans-107"/>
     <use x="779.199219" xlink:href="#DejaVuSans-115"/>
     <use x="831.298828" xlink:href="#DejaVuSans-32"/>
     <use x="863.085938" xlink:href="#DejaVuSans-119"/>
     <use x="944.873047" xlink:href="#DejaVuSans-105"/>
     <use x="972.65625" xlink:href="#DejaVuSans-116"/>
     <use x="1011.865234" xlink:href="#DejaVuSans-104"/>
     <use x="1075.244141" xlink:href="#DejaVuSans-32"/>
     <use x="1107.03125" xlink:href="#DejaVuSans-115"/>
     <use x="1159.130859" xlink:href="#DejaVuSans-111"/>
     <use x="1220.3125" xlink:href="#DejaVuSans-108"/>
     <use x="1248.095703" xlink:href="#DejaVuSans-118"/>
     <use x="1307.275391" xlink:href="#DejaVuSans-101"/>
     <use x="1368.798828" xlink:href="#DejaVuSans-114"/>
     <use x="1408.162109" xlink:href="#DejaVuSans-58"/>
     <use x="1441.853516" xlink:href="#DejaVuSans-32"/>
     <use x="1473.640625" xlink:href="#DejaVuSans-108"/>
     <use x="1501.423828" xlink:href="#DejaVuSans-98"/>
     <use x="1564.900391" xlink:href="#DejaVuSans-102"/>
     <use x="1600.105469" xlink:href="#DejaVuSans-103"/>
     <use x="1663.582031" xlink:href="#DejaVuSans-115"/>
    </g>
    <!--  activation function: tanh and number nodes: (2, 2, 2) -->
    <defs>
     <path d="M 48.78125 52.59375 
L 48.78125 44.1875 
Q 44.96875 46.296875 41.140625 47.34375 
Q 37.3125 48.390625 33.40625 48.390625 
Q 24.65625 48.390625 19.8125 42.84375 
Q 14.984375 37.3125 14.984375 27.296875 
Q 14.984375 17.28125 19.8125 11.734375 
Q 24.65625 6.203125 33.40625 6.203125 
Q 37.3125 6.203125 41.140625 7.25 
Q 44.96875 8.296875 48.78125 10.40625 
L 48.78125 2.09375 
Q 45.015625 0.34375 40.984375 -0.53125 
Q 36.96875 -1.421875 32.421875 -1.421875 
Q 20.0625 -1.421875 12.78125 6.34375 
Q 5.515625 14.109375 5.515625 27.296875 
Q 5.515625 40.671875 12.859375 48.328125 
Q 20.21875 56 33.015625 56 
Q 37.15625 56 41.109375 55.140625 
Q 45.0625 54.296875 48.78125 52.59375 
z
" id="DejaVuSans-99"/>
     <path d="M 31 75.875 
Q 24.46875 64.65625 21.28125 53.65625 
Q 18.109375 42.671875 18.109375 31.390625 
Q 18.109375 20.125 21.3125 9.0625 
Q 24.515625 -2 31 -13.1875 
L 23.1875 -13.1875 
Q 15.875 -1.703125 12.234375 9.375 
Q 8.59375 20.453125 8.59375 31.390625 
Q 8.59375 42.28125 12.203125 53.3125 
Q 15.828125 64.359375 23.1875 75.875 
z
" id="DejaVuSans-40"/>
     <path d="M 11.71875 12.40625 
L 22.015625 12.40625 
L 22.015625 4 
L 14.015625 -11.625 
L 7.71875 -11.625 
L 11.71875 4 
z
" id="DejaVuSans-44"/>
     <path d="M 8.015625 75.875 
L 15.828125 75.875 
Q 23.140625 64.359375 26.78125 53.3125 
Q 30.421875 42.28125 30.421875 31.390625 
Q 30.421875 20.453125 26.78125 9.375 
Q 23.140625 -1.703125 15.828125 -13.1875 
L 8.015625 -13.1875 
Q 14.5 -2 17.703125 9.0625 
Q 20.90625 20.125 20.90625 31.390625 
Q 20.90625 42.671875 17.703125 53.65625 
Q 14.5 64.65625 8.015625 75.875 
z
" id="DejaVuSans-41"/>
    </defs>
    <g transform="translate(74.342813 35.472)scale(0.12 -0.12)">
     <use xlink:href="#DejaVuSans-32"/>
     <use x="31.787109" xlink:href="#DejaVuSans-97"/>
     <use x="93.066406" xlink:href="#DejaVuSans-99"/>
     <use x="148.046875" xlink:href="#DejaVuSans-116"/>
     <use x="187.255859" xlink:href="#DejaVuSans-105"/>
     <use x="215.039062" xlink:href="#DejaVuSans-118"/>
     <use x="274.21875" xlink:href="#DejaVuSans-97"/>
     <use x="335.498047" xlink:href="#DejaVuSans-116"/>
     <use x="374.707031" xlink:href="#DejaVuSans-105"/>
     <use x="402.490234" xlink:href="#DejaVuSans-111"/>
     <use x="463.671875" xlink:href="#DejaVuSans-110"/>
     <use x="527.050781" xlink:href="#DejaVuSans-32"/>
     <use x="558.837891" xlink:href="#DejaVuSans-102"/>
     <use x="594.042969" xlink:href="#DejaVuSans-117"/>
     <use x="657.421875" xlink:href="#DejaVuSans-110"/>
     <use x="720.800781" xlink:href="#DejaVuSans-99"/>
     <use x="775.78125" xlink:href="#DejaVuSans-116"/>
     <use x="814.990234" xlink:href="#DejaVuSans-105"/>
     <use x="842.773438" xlink:href="#DejaVuSans-111"/>
     <use x="903.955078" xlink:href="#DejaVuSans-110"/>
     <use x="967.333984" xlink:href="#DejaVuSans-58"/>
     <use x="1001.025391" xlink:href="#DejaVuSans-32"/>
     <use x="1032.8125" xlink:href="#DejaVuSans-116"/>
     <use x="1072.021484" xlink:href="#DejaVuSans-97"/>
     <use x="1133.300781" xlink:href="#DejaVuSans-110"/>
     <use x="1196.679688" xlink:href="#DejaVuSans-104"/>
     <use x="1260.058594" xlink:href="#DejaVuSans-32"/>
     <use x="1291.845703" xlink:href="#DejaVuSans-97"/>
     <use x="1353.125" xlink:href="#DejaVuSans-110"/>
     <use x="1416.503906" xlink:href="#DejaVuSans-100"/>
     <use x="1479.980469" xlink:href="#DejaVuSans-32"/>
     <use x="1511.767578" xlink:href="#DejaVuSans-110"/>
     <use x="1575.146484" xlink:href="#DejaVuSans-117"/>
     <use x="1638.525391" xlink:href="#DejaVuSans-109"/>
     <use x="1735.9375" xlink:href="#DejaVuSans-98"/>
     <use x="1799.414062" xlink:href="#DejaVuSans-101"/>
     <use x="1860.9375" xlink:href="#DejaVuSans-114"/>
     <use x="1902.050781" xlink:href="#DejaVuSans-32"/>
     <use x="1933.837891" xlink:href="#DejaVuSans-110"/>
     <use x="1997.216797" xlink:href="#DejaVuSans-111"/>
     <use x="2058.398438" xlink:href="#DejaVuSans-100"/>
     <use x="2121.875" xlink:href="#DejaVuSans-101"/>
     <use x="2183.398438" xlink:href="#DejaVuSans-115"/>
     <use x="2235.498047" xlink:href="#DejaVuSans-58"/>
     <use x="2269.189453" xlink:href="#DejaVuSans-32"/>
     <use x="2300.976562" xlink:href="#DejaVuSans-40"/>
     <use x="2339.990234" xlink:href="#DejaVuSans-50"/>
     <use x="2403.613281" xlink:href="#DejaVuSans-44"/>
     <use x="2435.400391" xlink:href="#DejaVuSans-32"/>
     <use x="2467.1875" xlink:href="#DejaVuSans-50"/>
     <use x="2530.810547" xlink:href="#DejaVuSans-44"/>
     <use x="2562.597656" xlink:href="#DejaVuSans-32"/>
     <use x="2594.384766" xlink:href="#DejaVuSans-50"/>
     <use x="2658.007812" xlink:href="#DejaVuSans-41"/>
    </g>
   </g>
   <g id="legend_1">
    <g id="patch_7">
     <path d="M 218.998125 93.506375 
L 407.72 93.506375 
Q 409.72 93.506375 409.72 91.506375 
L 409.72 48.472 
Q 409.72 46.472 407.72 46.472 
L 218.998125 46.472 
Q 216.998125 46.472 216.998125 48.472 
L 216.998125 91.506375 
Q 216.998125 93.506375 218.998125 93.506375 
z
" style="fill:#ffffff;opacity:0.8;stroke:#cccccc;stroke-linejoin:miter;"/>
    </g>
    <g id="line2d_19">
     <path d="M 220.998125 54.570438 
L 240.998125 54.570438 
" style="fill:none;stroke:#ff0000;stroke-linecap:square;stroke-width:1.5;"/>
    </g>
    <g id="line2d_20"/>
    <g id="text_18">
     <!-- Guessed Revenue -->
     <g transform="translate(248.998125 58.070438)scale(0.1 -0.1)">
      <use xlink:href="#DejaVuSans-71"/>
      <use x="77.490234" xlink:href="#DejaVuSans-117"/>
      <use x="140.869141" xlink:href="#DejaVuSans-101"/>
      <use x="202.392578" xlink:href="#DejaVuSans-115"/>
      <use x="254.492188" xlink:href="#DejaVuSans-115"/>
      <use x="306.591797" xlink:href="#DejaVuSans-101"/>
      <use x="368.115234" xlink:href="#DejaVuSans-100"/>
      <use x="431.591797" xlink:href="#DejaVuSans-32"/>
      <use x="463.378906" xlink:href="#DejaVuSans-82"/>
      <use x="528.361328" xlink:href="#DejaVuSans-101"/>
      <use x="589.884766" xlink:href="#DejaVuSans-118"/>
      <use x="649.064453" xlink:href="#DejaVuSans-101"/>
      <use x="710.587891" xlink:href="#DejaVuSans-110"/>
      <use x="773.966797" xlink:href="#DejaVuSans-117"/>
      <use x="837.345703" xlink:href="#DejaVuSans-101"/>
     </g>
    </g>
    <g id="line2d_21">
     <path d="M 220.998125 69.248563 
L 240.998125 69.248563 
" style="fill:none;stroke:#0000ff;stroke-linecap:square;stroke-width:1.5;"/>
    </g>
    <g id="line2d_22"/>
    <g id="text_19">
     <!-- Weighted Predicted Revenue -->
     <defs>
      <path d="M 3.328125 72.90625 
L 13.28125 72.90625 
L 28.609375 11.28125 
L 43.890625 72.90625 
L 54.984375 72.90625 
L 70.3125 11.28125 
L 85.59375 72.90625 
L 95.609375 72.90625 
L 77.296875 0 
L 64.890625 0 
L 49.515625 63.28125 
L 33.984375 0 
L 21.578125 0 
z
" id="DejaVuSans-87"/>
      <path d="M 19.671875 64.796875 
L 19.671875 37.40625 
L 32.078125 37.40625 
Q 38.96875 37.40625 42.71875 40.96875 
Q 46.484375 44.53125 46.484375 51.125 
Q 46.484375 57.671875 42.71875 61.234375 
Q 38.96875 64.796875 32.078125 64.796875 
z
M 9.8125 72.90625 
L 32.078125 72.90625 
Q 44.34375 72.90625 50.609375 67.359375 
Q 56.890625 61.8125 56.890625 51.125 
Q 56.890625 40.328125 50.609375 34.8125 
Q 44.34375 29.296875 32.078125 29.296875 
L 19.671875 29.296875 
L 19.671875 0 
L 9.8125 0 
z
" id="DejaVuSans-80"/>
     </defs>
     <g transform="translate(248.998125 72.748563)scale(0.1 -0.1)">
      <use xlink:href="#DejaVuSans-87"/>
      <use x="93.001953" xlink:href="#DejaVuSans-101"/>
      <use x="154.525391" xlink:href="#DejaVuSans-105"/>
      <use x="182.308594" xlink:href="#DejaVuSans-103"/>
      <use x="245.785156" xlink:href="#DejaVuSans-104"/>
      <use x="309.164062" xlink:href="#DejaVuSans-116"/>
      <use x="348.373047" xlink:href="#DejaVuSans-101"/>
      <use x="409.896484" xlink:href="#DejaVuSans-100"/>
      <use x="473.373047" xlink:href="#DejaVuSans-32"/>
      <use x="505.160156" xlink:href="#DejaVuSans-80"/>
      <use x="563.712891" xlink:href="#DejaVuSans-114"/>
      <use x="602.576172" xlink:href="#DejaVuSans-101"/>
      <use x="664.099609" xlink:href="#DejaVuSans-100"/>
      <use x="727.576172" xlink:href="#DejaVuSans-105"/>
      <use x="755.359375" xlink:href="#DejaVuSans-99"/>
      <use x="810.339844" xlink:href="#DejaVuSans-116"/>
      <use x="849.548828" xlink:href="#DejaVuSans-101"/>
      <use x="911.072266" xlink:href="#DejaVuSans-100"/>
      <use x="974.548828" xlink:href="#DejaVuSans-32"/>
      <use x="1006.335938" xlink:href="#DejaVuSans-82"/>
      <use x="1071.318359" xlink:href="#DejaVuSans-101"/>
      <use x="1132.841797" xlink:href="#DejaVuSans-118"/>
      <use x="1192.021484" xlink:href="#DejaVuSans-101"/>
      <use x="1253.544922" xlink:href="#DejaVuSans-110"/>
      <use x="1316.923828" xlink:href="#DejaVuSans-117"/>
      <use x="1380.302734" xlink:href="#DejaVuSans-101"/>
     </g>
    </g>
    <g id="line2d_23">
     <path d="M 220.998125 83.926688 
L 240.998125 83.926688 
" style="fill:none;stroke:#008000;stroke-linecap:square;stroke-width:1.5;"/>
    </g>
    <g id="line2d_24"/>
    <g id="text_20">
     <!-- Unweighted Predicted Revenue -->
     <defs>
      <path d="M 8.6875 72.90625 
L 18.609375 72.90625 
L 18.609375 28.609375 
Q 18.609375 16.890625 22.84375 11.734375 
Q 27.09375 6.59375 36.625 6.59375 
Q 46.09375 6.59375 50.34375 11.734375 
Q 54.59375 16.890625 54.59375 28.609375 
L 54.59375 72.90625 
L 64.5 72.90625 
L 64.5 27.390625 
Q 64.5 13.140625 57.4375 5.859375 
Q 50.390625 -1.421875 36.625 -1.421875 
Q 22.796875 -1.421875 15.734375 5.859375 
Q 8.6875 13.140625 8.6875 27.390625 
z
" id="DejaVuSans-85"/>
     </defs>
     <g transform="translate(248.998125 87.426688)scale(0.1 -0.1)">
      <use xlink:href="#DejaVuSans-85"/>
      <use x="73.193359" xlink:href="#DejaVuSans-110"/>
      <use x="136.572266" xlink:href="#DejaVuSans-119"/>
      <use x="218.359375" xlink:href="#DejaVuSans-101"/>
      <use x="279.882812" xlink:href="#DejaVuSans-105"/>
      <use x="307.666016" xlink:href="#DejaVuSans-103"/>
      <use x="371.142578" xlink:href="#DejaVuSans-104"/>
      <use x="434.521484" xlink:href="#DejaVuSans-116"/>
      <use x="473.730469" xlink:href="#DejaVuSans-101"/>
      <use x="535.253906" xlink:href="#DejaVuSans-100"/>
      <use x="598.730469" xlink:href="#DejaVuSans-32"/>
      <use x="630.517578" xlink:href="#DejaVuSans-80"/>
      <use x="689.070312" xlink:href="#DejaVuSans-114"/>
      <use x="727.933594" xlink:href="#DejaVuSans-101"/>
      <use x="789.457031" xlink:href="#DejaVuSans-100"/>
      <use x="852.933594" xlink:href="#DejaVuSans-105"/>
      <use x="880.716797" xlink:href="#DejaVuSans-99"/>
      <use x="935.697266" xlink:href="#DejaVuSans-116"/>
      <use x="974.90625" xlink:href="#DejaVuSans-101"/>
      <use x="1036.429688" xlink:href="#DejaVuSans-100"/>
      <use x="1099.90625" xlink:href="#DejaVuSans-32"/>
      <use x="1131.693359" xlink:href="#DejaVuSans-82"/>
      <use x="1196.675781" xlink:href="#DejaVuSans-101"/>
      <use x="1258.199219" xlink:href="#DejaVuSans-118"/>
      <use x="1317.378906" xlink:href="#DejaVuSans-101"/>
      <use x="1378.902344" xlink:href="#DejaVuSans-110"/>
      <use x="1442.28125" xlink:href="#DejaVuSans-117"/>
      <use x="1505.660156" xlink:href="#DejaVuSans-101"/>
     </g>
    </g>
   </g>
  </g>
 </g>
 <defs>
  <clipPath id="pbe26a08a14">
   <rect height="266.112" width="357.12" x="57.6" y="41.472"/>
  </clipPath>
 </defs>
</svg>
