<?xml version="1.0" encoding="utf-8" standalone="no"?>
<!DOCTYPE svg PUBLIC "-//W3C//DTD SVG 1.1//EN"
  "http://www.w3.org/Graphics/SVG/1.1/DTD/svg11.dtd">
<!-- Created with matplotlib (https://matplotlib.org/) -->
<svg height="345.6pt" version="1.1" viewBox="0 0 460.8 345.6" width="460.8pt" xmlns="http://www.w3.org/2000/svg" xmlns:xlink="http://www.w3.org/1999/xlink">
 <defs>
  <style type="text/css">
*{stroke-linecap:butt;stroke-linejoin:round;}
  </style>
 </defs>
 <g id="figure_1">
  <g id="patch_1">
   <path d="M 0 345.6 
L 460.8 345.6 
L 460.8 0 
L 0 0 
z
" style="fill:#ffffff;"/>
  </g>
  <g id="axes_1">
   <g id="patch_2">
    <path d="M 57.6 307.584 
L 414.72 307.584 
L 414.72 41.472 
L 57.6 41.472 
z
" style="fill:#ffffff;"/>
   </g>
   <g id="matplotlib.axis_1">
    <g id="xtick_1">
     <g id="line2d_1">
      <defs>
       <path d="M 0 0 
L 0 3.5 
" id="m8dcbde9d7a" style="stroke:#000000;stroke-width:0.8;"/>
      </defs>
      <g>
       <use style="stroke:#000000;stroke-width:0.8;" x="73.832727" xlink:href="#m8dcbde9d7a" y="307.584"/>
      </g>
     </g>
     <g id="text_1">
      <!-- 0 -->
      <defs>
       <path d="M 31.78125 66.40625 
Q 24.171875 66.40625 20.328125 58.90625 
Q 16.5 51.421875 16.5 36.375 
Q 16.5 21.390625 20.328125 13.890625 
Q 24.171875 6.390625 31.78125 6.390625 
Q 39.453125 6.390625 43.28125 13.890625 
Q 47.125 21.390625 47.125 36.375 
Q 47.125 51.421875 43.28125 58.90625 
Q 39.453125 66.40625 31.78125 66.40625 
z
M 31.78125 74.21875 
Q 44.046875 74.21875 50.515625 64.515625 
Q 56.984375 54.828125 56.984375 36.375 
Q 56.984375 17.96875 50.515625 8.265625 
Q 44.046875 -1.421875 31.78125 -1.421875 
Q 19.53125 -1.421875 13.0625 8.265625 
Q 6.59375 17.96875 6.59375 36.375 
Q 6.59375 54.828125 13.0625 64.515625 
Q 19.53125 74.21875 31.78125 74.21875 
z
" id="DejaVuSans-48"/>
      </defs>
      <g transform="translate(70.651477 322.182437)scale(0.1 -0.1)">
       <use xlink:href="#DejaVuSans-48"/>
      </g>
     </g>
    </g>
    <g id="xtick_2">
     <g id="line2d_2">
      <g>
       <use style="stroke:#000000;stroke-width:0.8;" x="116.27123" xlink:href="#m8dcbde9d7a" y="307.584"/>
      </g>
     </g>
     <g id="text_2">
      <!-- 20 -->
      <defs>
       <path d="M 19.1875 8.296875 
L 53.609375 8.296875 
L 53.609375 0 
L 7.328125 0 
L 7.328125 8.296875 
Q 12.9375 14.109375 22.625 23.890625 
Q 32.328125 33.6875 34.8125 36.53125 
Q 39.546875 41.84375 41.421875 45.53125 
Q 43.3125 49.21875 43.3125 52.78125 
Q 43.3125 58.59375 39.234375 62.25 
Q 35.15625 65.921875 28.609375 65.921875 
Q 23.96875 65.921875 18.8125 64.3125 
Q 13.671875 62.703125 7.8125 59.421875 
L 7.8125 69.390625 
Q 13.765625 71.78125 18.9375 73 
Q 24.125 74.21875 28.421875 74.21875 
Q 39.75 74.21875 46.484375 68.546875 
Q 53.21875 62.890625 53.21875 53.421875 
Q 53.21875 48.921875 51.53125 44.890625 
Q 49.859375 40.875 45.40625 35.40625 
Q 44.1875 33.984375 37.640625 27.21875 
Q 31.109375 20.453125 19.1875 8.296875 
z
" id="DejaVuSans-50"/>
      </defs>
      <g transform="translate(109.90873 322.182437)scale(0.1 -0.1)">
       <use xlink:href="#DejaVuSans-50"/>
       <use x="63.623047" xlink:href="#DejaVuSans-48"/>
      </g>
     </g>
    </g>
    <g id="xtick_3">
     <g id="line2d_3">
      <g>
       <use style="stroke:#000000;stroke-width:0.8;" x="158.709733" xlink:href="#m8dcbde9d7a" y="307.584"/>
      </g>
     </g>
     <g id="text_3">
      <!-- 40 -->
      <defs>
       <path d="M 37.796875 64.3125 
L 12.890625 25.390625 
L 37.796875 25.390625 
z
M 35.203125 72.90625 
L 47.609375 72.90625 
L 47.609375 25.390625 
L 58.015625 25.390625 
L 58.015625 17.1875 
L 47.609375 17.1875 
L 47.609375 0 
L 37.796875 0 
L 37.796875 17.1875 
L 4.890625 17.1875 
L 4.890625 26.703125 
z
" id="DejaVuSans-52"/>
      </defs>
      <g transform="translate(152.347233 322.182437)scale(0.1 -0.1)">
       <use xlink:href="#DejaVuSans-52"/>
       <use x="63.623047" xlink:href="#DejaVuSans-48"/>
      </g>
     </g>
    </g>
    <g id="xtick_4">
     <g id="line2d_4">
      <g>
       <use style="stroke:#000000;stroke-width:0.8;" x="201.148235" xlink:href="#m8dcbde9d7a" y="307.584"/>
      </g>
     </g>
     <g id="text_4">
      <!-- 60 -->
      <defs>
       <path d="M 33.015625 40.375 
Q 26.375 40.375 22.484375 35.828125 
Q 18.609375 31.296875 18.609375 23.390625 
Q 18.609375 15.53125 22.484375 10.953125 
Q 26.375 6.390625 33.015625 6.390625 
Q 39.65625 6.390625 43.53125 10.953125 
Q 47.40625 15.53125 47.40625 23.390625 
Q 47.40625 31.296875 43.53125 35.828125 
Q 39.65625 40.375 33.015625 40.375 
z
M 52.59375 71.296875 
L 52.59375 62.3125 
Q 48.875 64.0625 45.09375 64.984375 
Q 41.3125 65.921875 37.59375 65.921875 
Q 27.828125 65.921875 22.671875 59.328125 
Q 17.53125 52.734375 16.796875 39.40625 
Q 19.671875 43.65625 24.015625 45.921875 
Q 28.375 48.1875 33.59375 48.1875 
Q 44.578125 48.1875 50.953125 41.515625 
Q 57.328125 34.859375 57.328125 23.390625 
Q 57.328125 12.15625 50.6875 5.359375 
Q 44.046875 -1.421875 33.015625 -1.421875 
Q 20.359375 -1.421875 13.671875 8.265625 
Q 6.984375 17.96875 6.984375 36.375 
Q 6.984375 53.65625 15.1875 63.9375 
Q 23.390625 74.21875 37.203125 74.21875 
Q 40.921875 74.21875 44.703125 73.484375 
Q 48.484375 72.75 52.59375 71.296875 
z
" id="DejaVuSans-54"/>
      </defs>
      <g transform="translate(194.785735 322.182437)scale(0.1 -0.1)">
       <use xlink:href="#DejaVuSans-54"/>
       <use x="63.623047" xlink:href="#DejaVuSans-48"/>
      </g>
     </g>
    </g>
    <g id="xtick_5">
     <g id="line2d_5">
      <g>
       <use style="stroke:#000000;stroke-width:0.8;" x="243.586738" xlink:href="#m8dcbde9d7a" y="307.584"/>
      </g>
     </g>
     <g id="text_5">
      <!-- 80 -->
      <defs>
       <path d="M 31.78125 34.625 
Q 24.75 34.625 20.71875 30.859375 
Q 16.703125 27.09375 16.703125 20.515625 
Q 16.703125 13.921875 20.71875 10.15625 
Q 24.75 6.390625 31.78125 6.390625 
Q 38.8125 6.390625 42.859375 10.171875 
Q 46.921875 13.96875 46.921875 20.515625 
Q 46.921875 27.09375 42.890625 30.859375 
Q 38.875 34.625 31.78125 34.625 
z
M 21.921875 38.8125 
Q 15.578125 40.375 12.03125 44.71875 
Q 8.5 49.078125 8.5 55.328125 
Q 8.5 64.0625 14.71875 69.140625 
Q 20.953125 74.21875 31.78125 74.21875 
Q 42.671875 74.21875 48.875 69.140625 
Q 55.078125 64.0625 55.078125 55.328125 
Q 55.078125 49.078125 51.53125 44.71875 
Q 48 40.375 41.703125 38.8125 
Q 48.828125 37.15625 52.796875 32.3125 
Q 56.78125 27.484375 56.78125 20.515625 
Q 56.78125 9.90625 50.3125 4.234375 
Q 43.84375 -1.421875 31.78125 -1.421875 
Q 19.734375 -1.421875 13.25 4.234375 
Q 6.78125 9.90625 6.78125 20.515625 
Q 6.78125 27.484375 10.78125 32.3125 
Q 14.796875 37.15625 21.921875 38.8125 
z
M 18.3125 54.390625 
Q 18.3125 48.734375 21.84375 45.5625 
Q 25.390625 42.390625 31.78125 42.390625 
Q 38.140625 42.390625 41.71875 45.5625 
Q 45.3125 48.734375 45.3125 54.390625 
Q 45.3125 60.0625 41.71875 63.234375 
Q 38.140625 66.40625 31.78125 66.40625 
Q 25.390625 66.40625 21.84375 63.234375 
Q 18.3125 60.0625 18.3125 54.390625 
z
" id="DejaVuSans-56"/>
      </defs>
      <g transform="translate(237.224238 322.182437)scale(0.1 -0.1)">
       <use xlink:href="#DejaVuSans-56"/>
       <use x="63.623047" xlink:href="#DejaVuSans-48"/>
      </g>
     </g>
    </g>
    <g id="xtick_6">
     <g id="line2d_6">
      <g>
       <use style="stroke:#000000;stroke-width:0.8;" x="286.025241" xlink:href="#m8dcbde9d7a" y="307.584"/>
      </g>
     </g>
     <g id="text_6">
      <!-- 100 -->
      <defs>
       <path d="M 12.40625 8.296875 
L 28.515625 8.296875 
L 28.515625 63.921875 
L 10.984375 60.40625 
L 10.984375 69.390625 
L 28.421875 72.90625 
L 38.28125 72.90625 
L 38.28125 8.296875 
L 54.390625 8.296875 
L 54.390625 0 
L 12.40625 0 
z
" id="DejaVuSans-49"/>
      </defs>
      <g transform="translate(276.481491 322.182437)scale(0.1 -0.1)">
       <use xlink:href="#DejaVuSans-49"/>
       <use x="63.623047" xlink:href="#DejaVuSans-48"/>
       <use x="127.246094" xlink:href="#DejaVuSans-48"/>
      </g>
     </g>
    </g>
    <g id="xtick_7">
     <g id="line2d_7">
      <g>
       <use style="stroke:#000000;stroke-width:0.8;" x="328.463743" xlink:href="#m8dcbde9d7a" y="307.584"/>
      </g>
     </g>
     <g id="text_7">
      <!-- 120 -->
      <g transform="translate(318.919993 322.182437)scale(0.1 -0.1)">
       <use xlink:href="#DejaVuSans-49"/>
       <use x="63.623047" xlink:href="#DejaVuSans-50"/>
       <use x="127.246094" xlink:href="#DejaVuSans-48"/>
      </g>
     </g>
    </g>
    <g id="xtick_8">
     <g id="line2d_8">
      <g>
       <use style="stroke:#000000;stroke-width:0.8;" x="370.902246" xlink:href="#m8dcbde9d7a" y="307.584"/>
      </g>
     </g>
     <g id="text_8">
      <!-- 140 -->
      <g transform="translate(361.358496 322.182437)scale(0.1 -0.1)">
       <use xlink:href="#DejaVuSans-49"/>
       <use x="63.623047" xlink:href="#DejaVuSans-52"/>
       <use x="127.246094" xlink:href="#DejaVuSans-48"/>
      </g>
     </g>
    </g>
    <g id="xtick_9">
     <g id="line2d_9">
      <g>
       <use style="stroke:#000000;stroke-width:0.8;" x="413.340749" xlink:href="#m8dcbde9d7a" y="307.584"/>
      </g>
     </g>
     <g id="text_9">
      <!-- 160 -->
      <g transform="translate(403.796999 322.182437)scale(0.1 -0.1)">
       <use xlink:href="#DejaVuSans-49"/>
       <use x="63.623047" xlink:href="#DejaVuSans-54"/>
       <use x="127.246094" xlink:href="#DejaVuSans-48"/>
      </g>
     </g>
    </g>
   </g>
   <g id="matplotlib.axis_2">
    <g id="ytick_1">
     <g id="line2d_10">
      <defs>
       <path d="M 0 0 
L -3.5 0 
" id="m599f2a9170" style="stroke:#000000;stroke-width:0.8;"/>
      </defs>
      <g>
       <use style="stroke:#000000;stroke-width:0.8;" x="57.6" xlink:href="#m599f2a9170" y="295.488"/>
      </g>
     </g>
     <g id="text_10">
      <!-- 0 -->
      <g transform="translate(44.2375 299.287219)scale(0.1 -0.1)">
       <use xlink:href="#DejaVuSans-48"/>
      </g>
     </g>
    </g>
    <g id="ytick_2">
     <g id="line2d_11">
      <g>
       <use style="stroke:#000000;stroke-width:0.8;" x="57.6" xlink:href="#m599f2a9170" y="241.125696"/>
      </g>
     </g>
     <g id="text_11">
      <!-- 20000 -->
      <g transform="translate(18.7875 244.924914)scale(0.1 -0.1)">
       <use xlink:href="#DejaVuSans-50"/>
       <use x="63.623047" xlink:href="#DejaVuSans-48"/>
       <use x="127.246094" xlink:href="#DejaVuSans-48"/>
       <use x="190.869141" xlink:href="#DejaVuSans-48"/>
       <use x="254.492188" xlink:href="#DejaVuSans-48"/>
      </g>
     </g>
    </g>
    <g id="ytick_3">
     <g id="line2d_12">
      <g>
       <use style="stroke:#000000;stroke-width:0.8;" x="57.6" xlink:href="#m599f2a9170" y="186.763391"/>
      </g>
     </g>
     <g id="text_12">
      <!-- 40000 -->
      <g transform="translate(18.7875 190.56261)scale(0.1 -0.1)">
       <use xlink:href="#DejaVuSans-52"/>
       <use x="63.623047" xlink:href="#DejaVuSans-48"/>
       <use x="127.246094" xlink:href="#DejaVuSans-48"/>
       <use x="190.869141" xlink:href="#DejaVuSans-48"/>
       <use x="254.492188" xlink:href="#DejaVuSans-48"/>
      </g>
     </g>
    </g>
    <g id="ytick_4">
     <g id="line2d_13">
      <g>
       <use style="stroke:#000000;stroke-width:0.8;" x="57.6" xlink:href="#m599f2a9170" y="132.401087"/>
      </g>
     </g>
     <g id="text_13">
      <!-- 60000 -->
      <g transform="translate(18.7875 136.200306)scale(0.1 -0.1)">
       <use xlink:href="#DejaVuSans-54"/>
       <use x="63.623047" xlink:href="#DejaVuSans-48"/>
       <use x="127.246094" xlink:href="#DejaVuSans-48"/>
       <use x="190.869141" xlink:href="#DejaVuSans-48"/>
       <use x="254.492188" xlink:href="#DejaVuSans-48"/>
      </g>
     </g>
    </g>
    <g id="ytick_5">
     <g id="line2d_14">
      <g>
       <use style="stroke:#000000;stroke-width:0.8;" x="57.6" xlink:href="#m599f2a9170" y="78.038783"/>
      </g>
     </g>
     <g id="text_14">
      <!-- 80000 -->
      <g transform="translate(18.7875 81.838002)scale(0.1 -0.1)">
       <use xlink:href="#DejaVuSans-56"/>
       <use x="63.623047" xlink:href="#DejaVuSans-48"/>
       <use x="127.246094" xlink:href="#DejaVuSans-48"/>
       <use x="190.869141" xlink:href="#DejaVuSans-48"/>
       <use x="254.492188" xlink:href="#DejaVuSans-48"/>
      </g>
     </g>
    </g>
    <g id="text_15">
     <!-- Mean Root Square Error -->
     <defs>
      <path d="M 9.8125 72.90625 
L 24.515625 72.90625 
L 43.109375 23.296875 
L 61.8125 72.90625 
L 76.515625 72.90625 
L 76.515625 0 
L 66.890625 0 
L 66.890625 64.015625 
L 48.09375 14.015625 
L 38.1875 14.015625 
L 19.390625 64.015625 
L 19.390625 0 
L 9.8125 0 
z
" id="DejaVuSans-77"/>
      <path d="M 56.203125 29.59375 
L 56.203125 25.203125 
L 14.890625 25.203125 
Q 15.484375 15.921875 20.484375 11.0625 
Q 25.484375 6.203125 34.421875 6.203125 
Q 39.59375 6.203125 44.453125 7.46875 
Q 49.3125 8.734375 54.109375 11.28125 
L 54.109375 2.78125 
Q 49.265625 0.734375 44.1875 -0.34375 
Q 39.109375 -1.421875 33.890625 -1.421875 
Q 20.796875 -1.421875 13.15625 6.1875 
Q 5.515625 13.8125 5.515625 26.8125 
Q 5.515625 40.234375 12.765625 48.109375 
Q 20.015625 56 32.328125 56 
Q 43.359375 56 49.78125 48.890625 
Q 56.203125 41.796875 56.203125 29.59375 
z
M 47.21875 32.234375 
Q 47.125 39.59375 43.09375 43.984375 
Q 39.0625 48.390625 32.421875 48.390625 
Q 24.90625 48.390625 20.390625 44.140625 
Q 15.875 39.890625 15.1875 32.171875 
z
" id="DejaVuSans-101"/>
      <path d="M 34.28125 27.484375 
Q 23.390625 27.484375 19.1875 25 
Q 14.984375 22.515625 14.984375 16.5 
Q 14.984375 11.71875 18.140625 8.90625 
Q 21.296875 6.109375 26.703125 6.109375 
Q 34.1875 6.109375 38.703125 11.40625 
Q 43.21875 16.703125 43.21875 25.484375 
L 43.21875 27.484375 
z
M 52.203125 31.203125 
L 52.203125 0 
L 43.21875 0 
L 43.21875 8.296875 
Q 40.140625 3.328125 35.546875 0.953125 
Q 30.953125 -1.421875 24.3125 -1.421875 
Q 15.921875 -1.421875 10.953125 3.296875 
Q 6 8.015625 6 15.921875 
Q 6 25.140625 12.171875 29.828125 
Q 18.359375 34.515625 30.609375 34.515625 
L 43.21875 34.515625 
L 43.21875 35.40625 
Q 43.21875 41.609375 39.140625 45 
Q 35.0625 48.390625 27.6875 48.390625 
Q 23 48.390625 18.546875 47.265625 
Q 14.109375 46.140625 10.015625 43.890625 
L 10.015625 52.203125 
Q 14.9375 54.109375 19.578125 55.046875 
Q 24.21875 56 28.609375 56 
Q 40.484375 56 46.34375 49.84375 
Q 52.203125 43.703125 52.203125 31.203125 
z
" id="DejaVuSans-97"/>
      <path d="M 54.890625 33.015625 
L 54.890625 0 
L 45.90625 0 
L 45.90625 32.71875 
Q 45.90625 40.484375 42.875 44.328125 
Q 39.84375 48.1875 33.796875 48.1875 
Q 26.515625 48.1875 22.3125 43.546875 
Q 18.109375 38.921875 18.109375 30.90625 
L 18.109375 0 
L 9.078125 0 
L 9.078125 54.6875 
L 18.109375 54.6875 
L 18.109375 46.1875 
Q 21.34375 51.125 25.703125 53.5625 
Q 30.078125 56 35.796875 56 
Q 45.21875 56 50.046875 50.171875 
Q 54.890625 44.34375 54.890625 33.015625 
z
" id="DejaVuSans-110"/>
      <path id="DejaVuSans-32"/>
      <path d="M 44.390625 34.1875 
Q 47.5625 33.109375 50.5625 29.59375 
Q 53.5625 26.078125 56.59375 19.921875 
L 66.609375 0 
L 56 0 
L 46.6875 18.703125 
Q 43.0625 26.03125 39.671875 28.421875 
Q 36.28125 30.8125 30.421875 30.8125 
L 19.671875 30.8125 
L 19.671875 0 
L 9.8125 0 
L 9.8125 72.90625 
L 32.078125 72.90625 
Q 44.578125 72.90625 50.734375 67.671875 
Q 56.890625 62.453125 56.890625 51.90625 
Q 56.890625 45.015625 53.6875 40.46875 
Q 50.484375 35.9375 44.390625 34.1875 
z
M 19.671875 64.796875 
L 19.671875 38.921875 
L 32.078125 38.921875 
Q 39.203125 38.921875 42.84375 42.21875 
Q 46.484375 45.515625 46.484375 51.90625 
Q 46.484375 58.296875 42.84375 61.546875 
Q 39.203125 64.796875 32.078125 64.796875 
z
" id="DejaVuSans-82"/>
      <path d="M 30.609375 48.390625 
Q 23.390625 48.390625 19.1875 42.75 
Q 14.984375 37.109375 14.984375 27.296875 
Q 14.984375 17.484375 19.15625 11.84375 
Q 23.34375 6.203125 30.609375 6.203125 
Q 37.796875 6.203125 41.984375 11.859375 
Q 46.1875 17.53125 46.1875 27.296875 
Q 46.1875 37.015625 41.984375 42.703125 
Q 37.796875 48.390625 30.609375 48.390625 
z
M 30.609375 56 
Q 42.328125 56 49.015625 48.375 
Q 55.71875 40.765625 55.71875 27.296875 
Q 55.71875 13.875 49.015625 6.21875 
Q 42.328125 -1.421875 30.609375 -1.421875 
Q 18.84375 -1.421875 12.171875 6.21875 
Q 5.515625 13.875 5.515625 27.296875 
Q 5.515625 40.765625 12.171875 48.375 
Q 18.84375 56 30.609375 56 
z
" id="DejaVuSans-111"/>
      <path d="M 18.3125 70.21875 
L 18.3125 54.6875 
L 36.8125 54.6875 
L 36.8125 47.703125 
L 18.3125 47.703125 
L 18.3125 18.015625 
Q 18.3125 11.328125 20.140625 9.421875 
Q 21.96875 7.515625 27.59375 7.515625 
L 36.8125 7.515625 
L 36.8125 0 
L 27.59375 0 
Q 17.1875 0 13.234375 3.875 
Q 9.28125 7.765625 9.28125 18.015625 
L 9.28125 47.703125 
L 2.6875 47.703125 
L 2.6875 54.6875 
L 9.28125 54.6875 
L 9.28125 70.21875 
z
" id="DejaVuSans-116"/>
      <path d="M 53.515625 70.515625 
L 53.515625 60.890625 
Q 47.90625 63.578125 42.921875 64.890625 
Q 37.9375 66.21875 33.296875 66.21875 
Q 25.25 66.21875 20.875 63.09375 
Q 16.5 59.96875 16.5 54.203125 
Q 16.5 49.359375 19.40625 46.890625 
Q 22.3125 44.4375 30.421875 42.921875 
L 36.375 41.703125 
Q 47.40625 39.59375 52.65625 34.296875 
Q 57.90625 29 57.90625 20.125 
Q 57.90625 9.515625 50.796875 4.046875 
Q 43.703125 -1.421875 29.984375 -1.421875 
Q 24.8125 -1.421875 18.96875 -0.25 
Q 13.140625 0.921875 6.890625 3.21875 
L 6.890625 13.375 
Q 12.890625 10.015625 18.65625 8.296875 
Q 24.421875 6.59375 29.984375 6.59375 
Q 38.421875 6.59375 43.015625 9.90625 
Q 47.609375 13.234375 47.609375 19.390625 
Q 47.609375 24.75 44.3125 27.78125 
Q 41.015625 30.8125 33.5 32.328125 
L 27.484375 33.5 
Q 16.453125 35.6875 11.515625 40.375 
Q 6.59375 45.0625 6.59375 53.421875 
Q 6.59375 63.09375 13.40625 68.65625 
Q 20.21875 74.21875 32.171875 74.21875 
Q 37.3125 74.21875 42.625 73.28125 
Q 47.953125 72.359375 53.515625 70.515625 
z
" id="DejaVuSans-83"/>
      <path d="M 14.796875 27.296875 
Q 14.796875 17.390625 18.875 11.75 
Q 22.953125 6.109375 30.078125 6.109375 
Q 37.203125 6.109375 41.296875 11.75 
Q 45.40625 17.390625 45.40625 27.296875 
Q 45.40625 37.203125 41.296875 42.84375 
Q 37.203125 48.484375 30.078125 48.484375 
Q 22.953125 48.484375 18.875 42.84375 
Q 14.796875 37.203125 14.796875 27.296875 
z
M 45.40625 8.203125 
Q 42.578125 3.328125 38.25 0.953125 
Q 33.9375 -1.421875 27.875 -1.421875 
Q 17.96875 -1.421875 11.734375 6.484375 
Q 5.515625 14.40625 5.515625 27.296875 
Q 5.515625 40.1875 11.734375 48.09375 
Q 17.96875 56 27.875 56 
Q 33.9375 56 38.25 53.625 
Q 42.578125 51.265625 45.40625 46.390625 
L 45.40625 54.6875 
L 54.390625 54.6875 
L 54.390625 -20.796875 
L 45.40625 -20.796875 
z
" id="DejaVuSans-113"/>
      <path d="M 8.5 21.578125 
L 8.5 54.6875 
L 17.484375 54.6875 
L 17.484375 21.921875 
Q 17.484375 14.15625 20.5 10.265625 
Q 23.53125 6.390625 29.59375 6.390625 
Q 36.859375 6.390625 41.078125 11.03125 
Q 45.3125 15.671875 45.3125 23.6875 
L 45.3125 54.6875 
L 54.296875 54.6875 
L 54.296875 0 
L 45.3125 0 
L 45.3125 8.40625 
Q 42.046875 3.421875 37.71875 1 
Q 33.40625 -1.421875 27.6875 -1.421875 
Q 18.265625 -1.421875 13.375 4.4375 
Q 8.5 10.296875 8.5 21.578125 
z
M 31.109375 56 
z
" id="DejaVuSans-117"/>
      <path d="M 41.109375 46.296875 
Q 39.59375 47.171875 37.8125 47.578125 
Q 36.03125 48 33.890625 48 
Q 26.265625 48 22.1875 43.046875 
Q 18.109375 38.09375 18.109375 28.8125 
L 18.109375 0 
L 9.078125 0 
L 9.078125 54.6875 
L 18.109375 54.6875 
L 18.109375 46.1875 
Q 20.953125 51.171875 25.484375 53.578125 
Q 30.03125 56 36.53125 56 
Q 37.453125 56 38.578125 55.875 
Q 39.703125 55.765625 41.0625 55.515625 
z
" id="DejaVuSans-114"/>
      <path d="M 9.8125 72.90625 
L 55.90625 72.90625 
L 55.90625 64.59375 
L 19.671875 64.59375 
L 19.671875 43.015625 
L 54.390625 43.015625 
L 54.390625 34.71875 
L 19.671875 34.71875 
L 19.671875 8.296875 
L 56.78125 8.296875 
L 56.78125 0 
L 9.8125 0 
z
" id="DejaVuSans-69"/>
     </defs>
     <g transform="translate(12.707812 234.032688)rotate(-90)scale(0.1 -0.1)">
      <use xlink:href="#DejaVuSans-77"/>
      <use x="86.279297" xlink:href="#DejaVuSans-101"/>
      <use x="147.802734" xlink:href="#DejaVuSans-97"/>
      <use x="209.082031" xlink:href="#DejaVuSans-110"/>
      <use x="272.460938" xlink:href="#DejaVuSans-32"/>
      <use x="304.248047" xlink:href="#DejaVuSans-82"/>
      <use x="369.230469" xlink:href="#DejaVuSans-111"/>
      <use x="430.412109" xlink:href="#DejaVuSans-111"/>
      <use x="491.59375" xlink:href="#DejaVuSans-116"/>
      <use x="530.802734" xlink:href="#DejaVuSans-32"/>
      <use x="562.589844" xlink:href="#DejaVuSans-83"/>
      <use x="626.066406" xlink:href="#DejaVuSans-113"/>
      <use x="689.542969" xlink:href="#DejaVuSans-117"/>
      <use x="752.921875" xlink:href="#DejaVuSans-97"/>
      <use x="814.201172" xlink:href="#DejaVuSans-114"/>
      <use x="853.064453" xlink:href="#DejaVuSans-101"/>
      <use x="914.587891" xlink:href="#DejaVuSans-32"/>
      <use x="946.375" xlink:href="#DejaVuSans-69"/>
      <use x="1009.558594" xlink:href="#DejaVuSans-114"/>
      <use x="1048.921875" xlink:href="#DejaVuSans-114"/>
      <use x="1087.785156" xlink:href="#DejaVuSans-111"/>
      <use x="1148.966797" xlink:href="#DejaVuSans-114"/>
     </g>
    </g>
   </g>
   <g id="line2d_15">
    <path clip-path="url(#pf8aeb1e72c)" d="M 73.832727 172.180703 
L 75.954652 157.081573 
L 78.076578 178.223073 
L 80.198503 191.948196 
L 82.320428 209.081382 
L 84.442353 283.15795 
L 86.564278 283.732152 
L 88.686203 268.037754 
L 90.808128 263.085349 
L 92.930053 266.417758 
L 95.051979 264.600018 
L 97.173904 242.35904 
L 99.295829 255.667612 
L 101.417754 255.273485 
L 103.539679 273.206251 
L 105.661604 253.025604 
L 107.783529 189.472446 
L 109.905455 199.377711 
L 112.02738 188.165939 
L 114.149305 170.335103 
L 116.27123 192.426131 
L 118.393155 140.032196 
L 120.51508 100.279761 
L 122.637005 92.65137 
L 124.75893 174.830866 
L 126.880856 226.751396 
L 129.002781 234.566884 
L 131.124706 222.853166 
L 133.246631 217.790677 
L 135.368556 193.651548 
L 137.490481 203.67201 
L 139.612406 179.377884 
L 141.734332 169.681979 
L 143.856257 159.362849 
L 145.978182 178.393538 
L 148.100107 205.031067 
L 150.222032 201.918583 
L 152.343957 219.292435 
L 154.465882 237.594087 
L 156.587807 199.721035 
L 158.709733 239.669239 
L 160.831658 225.657679 
L 162.953583 220.976696 
L 165.075508 224.628678 
L 167.197433 213.286371 
L 169.319358 226.748808 
L 171.441283 232.254933 
L 173.563209 222.739588 
L 175.685134 218.677947 
L 177.807059 207.512318 
L 179.928984 215.595799 
L 182.050909 222.726321 
L 184.172834 211.351009 
L 186.294759 197.255316 
L 188.416684 185.615958 
L 190.53861 194.900263 
L 192.660535 175.279355 
L 194.78246 187.907265 
L 196.904385 134.219959 
L 199.02631 162.830387 
L 201.148235 193.062623 
L 203.27016 193.671287 
L 207.514011 208.44489 
L 209.635936 180.560264 
L 211.757861 162.793498 
L 213.879786 138.825547 
L 216.001711 159.072593 
L 218.123636 149.556924 
L 220.245561 131.259479 
L 222.367487 181.536844 
L 224.489412 187.125807 
L 226.611337 134.795747 
L 228.733262 181.057615 
L 230.855187 196.012749 
L 232.977112 205.994057 
L 235.099037 194.374114 
L 237.220963 198.095667 
L 239.342888 217.063581 
L 241.464813 225.480678 
L 243.586738 183.392929 
L 245.708663 176.206232 
L 247.830588 211.13809 
L 249.952513 203.661914 
L 252.074439 187.051512 
L 254.196364 192.716064 
L 256.318289 182.185309 
L 258.440214 176.587933 
L 260.562139 190.190482 
L 262.684064 183.667005 
L 264.805989 231.629766 
L 269.04984 251.211845 
L 271.171765 252.520035 
L 273.29369 267.046322 
L 275.415615 268.551478 
L 277.53754 266.367926 
L 279.659465 260.050573 
L 281.78139 238.199839 
L 283.903316 175.29521 
L 286.025241 171.237129 
L 288.147166 130.541443 
L 290.269091 94.759722 
L 292.391016 167.28033 
L 294.512941 137.961898 
L 296.634866 151.121135 
L 298.756791 193.618866 
L 300.878717 182.616001 
L 303.000642 153.323779 
L 305.122567 190.908517 
L 307.244492 204.407842 
L 309.366417 222.810129 
L 311.488342 239.502981 
L 315.732193 190.743165 
L 317.854118 179.465252 
L 319.976043 178.049114 
L 322.097968 201.00405 
L 324.219893 144.338143 
L 326.341818 140.086558 
L 330.585668 205.787933 
L 332.707594 215.98766 
L 334.829519 222.238678 
L 336.951444 246.811087 
L 339.073369 222.661927 
L 341.195294 250.140778 
L 343.317219 206.316347 
L 345.439144 166.470396 
L 347.56107 187.774919 
L 349.682995 198.210539 
L 351.80492 164.298169 
L 353.926845 147.311891 
L 356.04877 172.258364 
L 358.170695 158.04068 
L 360.29262 169.89239 
L 362.414545 116.346734 
L 364.536471 97.142603 
L 366.658396 208.296688 
L 368.780321 211.16663 
L 370.902246 263.08263 
L 373.024171 210.531044 
L 375.146096 186.729415 
L 377.268021 214.975162 
L 379.389947 216.058849 
L 381.511872 231.462796 
L 383.633797 196.513271 
L 385.755722 171.688724 
L 387.877647 235.015373 
L 389.999572 250.131717 
L 392.121497 224.185043 
L 394.243422 218.850742 
L 396.365348 226.458746 
L 398.487273 223.267679 
L 398.487273 223.267679 
" style="fill:none;stroke:#ff0000;stroke-linecap:square;stroke-width:1.5;"/>
   </g>
   <g id="line2d_16">
    <path clip-path="url(#pf8aeb1e72c)" d="M 73.832727 224.813268 
L 75.954652 204.578978 
L 78.076578 126.709183 
L 80.198503 167.603922 
L 84.442353 216.58581 
L 86.564278 218.786681 
L 88.686203 212.116665 
L 90.808128 225.350853 
L 92.930053 221.338041 
L 95.051979 193.672822 
L 97.173904 196.463403 
L 99.295829 159.424154 
L 101.417754 182.112416 
L 103.539679 216.028677 
L 105.661604 221.337686 
L 107.783529 192.630364 
L 109.905455 154.601949 
L 112.02738 140.627115 
L 114.149305 123.911513 
L 116.27123 146.948861 
L 118.393155 89.250865 
L 120.51508 79.617399 
L 122.637005 94.288528 
L 124.75893 113.338268 
L 126.880856 145.002942 
L 129.002781 162.485172 
L 131.124706 171.695373 
L 133.246631 186.979661 
L 135.368556 126.450102 
L 137.490481 157.2704 
L 139.612406 140.319758 
L 141.734332 112.450141 
L 143.856257 105.654598 
L 145.978182 107.938565 
L 148.100107 155.240414 
L 150.222032 182.275347 
L 152.343957 146.436943 
L 154.465882 187.603269 
L 156.587807 140.964043 
L 158.709733 146.945422 
L 160.831658 157.801222 
L 162.953583 166.695371 
L 165.075508 183.570643 
L 167.197433 178.369724 
L 169.319358 183.015345 
L 171.441283 192.85739 
L 175.685134 130.235198 
L 177.807059 172.062648 
L 179.928984 149.237078 
L 182.050909 147.377302 
L 184.172834 139.021618 
L 186.294759 125.787472 
L 188.416684 117.017794 
L 190.53861 121.148209 
L 192.660535 123.300469 
L 194.78246 149.350711 
L 196.904385 112.883311 
L 199.02631 128.230348 
L 201.148235 161.252114 
L 203.27016 155.220856 
L 205.392086 138.461232 
L 207.514011 133.525558 
L 209.635936 136.864003 
L 211.757861 108.200533 
L 213.879786 90.925411 
L 216.001711 53.568 
L 218.123636 81.821643 
L 220.245561 83.725961 
L 222.367487 157.611931 
L 224.489412 188.82984 
L 226.611337 142.866446 
L 228.733262 183.782119 
L 230.855187 193.818122 
L 232.977112 209.9529 
L 235.099037 189.364888 
L 237.220963 167.083709 
L 239.342888 174.235604 
L 241.464813 200.203066 
L 243.586738 157.205913 
L 245.708663 150.011615 
L 247.830588 166.595733 
L 249.952513 141.535123 
L 252.074439 120.355073 
L 254.196364 151.906428 
L 256.318289 136.779864 
L 258.440214 163.373768 
L 260.562139 165.11931 
L 262.684064 168.596467 
L 264.805989 189.884905 
L 266.927914 208.075799 
L 269.04984 227.826294 
L 271.171765 192.234928 
L 273.29369 173.543367 
L 275.415615 202.210797 
L 277.53754 204.978778 
L 279.659465 212.618948 
L 281.78139 202.360494 
L 283.903316 197.109467 
L 286.025241 185.925884 
L 288.147166 105.341672 
L 290.269091 119.281957 
L 292.391016 147.09025 
L 294.512941 148.209931 
L 296.634866 135.305837 
L 298.756791 136.777432 
L 300.878717 146.3811 
L 303.000642 143.922897 
L 305.122567 177.789202 
L 307.244492 190.484606 
L 309.366417 192.621418 
L 311.488342 229.887581 
L 313.610267 178.587728 
L 315.732193 224.261323 
L 317.854118 178.816631 
L 319.976043 145.431972 
L 322.097968 161.228613 
L 324.219893 133.444494 
L 326.341818 157.224557 
L 328.463743 159.840599 
L 330.585668 205.858359 
L 332.707594 216.705452 
L 334.829519 204.573874 
L 336.951444 211.776439 
L 339.073369 221.594083 
L 341.195294 202.352605 
L 343.317219 187.134205 
L 345.439144 153.983107 
L 347.56107 205.447591 
L 349.682995 173.633661 
L 351.80492 138.474754 
L 353.926845 123.204431 
L 356.04877 118.954372 
L 358.170695 153.950556 
L 360.29262 167.044441 
L 362.414545 96.001853 
L 364.536471 96.642199 
L 366.658396 180.575266 
L 368.780321 182.740304 
L 370.902246 223.237712 
L 373.024171 169.827462 
L 375.146096 165.043201 
L 377.268021 190.714161 
L 379.389947 179.866168 
L 381.511872 196.053451 
L 383.633797 157.468738 
L 385.755722 178.835046 
L 387.877647 203.786198 
L 389.999572 186.088233 
L 392.121497 192.743316 
L 394.243422 236.625144 
L 396.365348 242.922882 
L 398.487273 243.533824 
L 398.487273 243.533824 
" style="fill:none;stroke:#0000ff;stroke-linecap:square;stroke-width:1.5;"/>
   </g>
   <g id="line2d_17">
    <path clip-path="url(#pf8aeb1e72c)" d="M 73.832727 223.186135 
L 75.954652 209.595559 
L 78.076578 213.183471 
L 80.198503 238.226373 
L 82.320428 247.558568 
L 84.442353 292.158309 
L 86.564278 292.824247 
L 92.930053 292.824247 
L 95.051979 295.488 
L 103.539679 295.488 
L 105.661604 280.918902 
L 107.783529 221.464662 
L 109.905455 221.283455 
L 114.149305 221.229092 
L 116.27123 233.605577 
L 118.393155 202.437856 
L 120.51508 202.437856 
L 122.637005 227.53512 
L 124.75893 238.8606 
L 126.880856 242.665961 
L 129.002781 269.502819 
L 131.124706 262.825315 
L 133.246631 262.825315 
L 135.368556 218.11232 
L 137.490481 222.797833 
L 139.612406 222.797833 
L 141.734332 218.371188 
L 143.856257 218.371188 
L 145.978182 224.584023 
L 148.100107 247.493851 
L 150.222032 263.312311 
L 152.343957 278.137365 
L 154.465882 280.616027 
L 156.587807 267.802055 
L 158.709733 263.233033 
L 160.831658 267.840885 
L 162.953583 268.190357 
L 167.197433 268.190357 
L 169.319358 270.52017 
L 171.441283 277.859081 
L 175.685134 277.859081 
L 177.807059 276.577684 
L 179.928984 280.583668 
L 182.050909 280.583668 
L 184.172834 272.338719 
L 186.294759 252.891252 
L 188.416684 252.891252 
L 190.53861 237.242674 
L 192.660535 240.11611 
L 194.78246 263.821958 
L 196.904385 244.659245 
L 199.02631 244.659245 
L 201.148235 258.295123 
L 203.27016 263.608392 
L 205.392086 250.056646 
L 207.514011 229.120687 
L 209.635936 230.913349 
L 211.757861 204.508801 
L 213.879786 204.741782 
L 216.001711 204.159329 
L 218.123636 199.855646 
L 220.245561 199.855646 
L 222.367487 226.137232 
L 224.489412 242.665961 
L 226.611337 216.662659 
L 228.733262 239.630732 
L 230.855187 247.610342 
L 232.977112 247.610342 
L 235.099037 243.889113 
L 237.220963 243.889113 
L 239.342888 255.758216 
L 241.464813 273.199455 
L 243.586738 247.83038 
L 245.708663 238.298856 
L 247.830588 257.796802 
L 249.952513 257.434387 
L 252.074439 257.434387 
L 254.196364 251.545137 
L 256.318289 244.659245 
L 258.440214 244.659245 
L 260.562139 249.189438 
L 262.684064 249.189438 
L 264.805989 255.221065 
L 266.927914 265.705223 
L 269.04984 278.868667 
L 271.171765 287.877277 
L 273.29369 295.488 
L 279.659465 295.488 
L 281.78139 276.694175 
L 283.903316 240.536771 
L 286.025241 236.000107 
L 288.147166 200.625779 
L 290.269091 181.236557 
L 292.391016 225.86542 
L 294.512941 214.261657 
L 296.634866 216.662659 
L 298.756791 229.049498 
L 303.000642 228.984781 
L 305.122567 246.523096 
L 307.244492 255.725857 
L 309.366417 257.7515 
L 311.488342 261.565922 
L 313.610267 246.779375 
L 315.732193 254.897479 
L 317.854118 233.605577 
L 319.976043 234.112958 
L 322.097968 244.342132 
L 324.219893 226.855591 
L 326.341818 203.207988 
L 328.463743 227.580422 
L 330.585668 224.454589 
L 332.707594 236.776711 
L 334.829519 245.164038 
L 336.951444 250.548495 
L 339.073369 256.968424 
L 341.195294 262.734712 
L 343.317219 237.242674 
L 345.439144 188.394261 
L 347.56107 214.954129 
L 349.682995 214.954129 
L 351.80492 185.08722 
L 353.926845 176.939346 
L 356.04877 200.85876 
L 358.170695 205.634877 
L 360.29262 213.02718 
L 362.414545 182.569728 
L 364.536471 184.815409 
L 366.658396 240.387922 
L 368.780321 251.83507 
L 370.902246 286.246408 
L 373.024171 239.630732 
L 375.146096 222.733116 
L 377.268021 244.749849 
L 379.389947 251.998157 
L 381.511872 262.870617 
L 383.633797 251.889432 
L 385.755722 251.889432 
L 387.877647 277.983338 
L 389.999572 295.488 
L 398.487273 295.488 
L 398.487273 295.488 
" style="fill:none;stroke:#008000;stroke-linecap:square;stroke-width:1.5;"/>
   </g>
   <g id="patch_3">
    <path d="M 57.6 307.584 
L 57.6 41.472 
" style="fill:none;stroke:#000000;stroke-linecap:square;stroke-linejoin:miter;stroke-width:0.8;"/>
   </g>
   <g id="patch_4">
    <path d="M 414.72 307.584 
L 414.72 41.472 
" style="fill:none;stroke:#000000;stroke-linecap:square;stroke-linejoin:miter;stroke-width:0.8;"/>
   </g>
   <g id="patch_5">
    <path d="M 57.6 307.584 
L 414.72 307.584 
" style="fill:none;stroke:#000000;stroke-linecap:square;stroke-linejoin:miter;stroke-width:0.8;"/>
   </g>
   <g id="patch_6">
    <path d="M 57.6 41.472 
L 414.72 41.472 
" style="fill:none;stroke:#000000;stroke-linecap:square;stroke-linejoin:miter;stroke-width:0.8;"/>
   </g>
   <g id="text_16">
    <!-- Compare monthly errors for Generated data with -->
    <defs>
     <path d="M 64.40625 67.28125 
L 64.40625 56.890625 
Q 59.421875 61.53125 53.78125 63.8125 
Q 48.140625 66.109375 41.796875 66.109375 
Q 29.296875 66.109375 22.65625 58.46875 
Q 16.015625 50.828125 16.015625 36.375 
Q 16.015625 21.96875 22.65625 14.328125 
Q 29.296875 6.6875 41.796875 6.6875 
Q 48.140625 6.6875 53.78125 8.984375 
Q 59.421875 11.28125 64.40625 15.921875 
L 64.40625 5.609375 
Q 59.234375 2.09375 53.4375 0.328125 
Q 47.65625 -1.421875 41.21875 -1.421875 
Q 24.65625 -1.421875 15.125 8.703125 
Q 5.609375 18.84375 5.609375 36.375 
Q 5.609375 53.953125 15.125 64.078125 
Q 24.65625 74.21875 41.21875 74.21875 
Q 47.75 74.21875 53.53125 72.484375 
Q 59.328125 70.75 64.40625 67.28125 
z
" id="DejaVuSans-67"/>
     <path d="M 52 44.1875 
Q 55.375 50.25 60.0625 53.125 
Q 64.75 56 71.09375 56 
Q 79.640625 56 84.28125 50.015625 
Q 88.921875 44.046875 88.921875 33.015625 
L 88.921875 0 
L 79.890625 0 
L 79.890625 32.71875 
Q 79.890625 40.578125 77.09375 44.375 
Q 74.3125 48.1875 68.609375 48.1875 
Q 61.625 48.1875 57.5625 43.546875 
Q 53.515625 38.921875 53.515625 30.90625 
L 53.515625 0 
L 44.484375 0 
L 44.484375 32.71875 
Q 44.484375 40.625 41.703125 44.40625 
Q 38.921875 48.1875 33.109375 48.1875 
Q 26.21875 48.1875 22.15625 43.53125 
Q 18.109375 38.875 18.109375 30.90625 
L 18.109375 0 
L 9.078125 0 
L 9.078125 54.6875 
L 18.109375 54.6875 
L 18.109375 46.1875 
Q 21.1875 51.21875 25.484375 53.609375 
Q 29.78125 56 35.6875 56 
Q 41.65625 56 45.828125 52.96875 
Q 50 49.953125 52 44.1875 
z
" id="DejaVuSans-109"/>
     <path d="M 18.109375 8.203125 
L 18.109375 -20.796875 
L 9.078125 -20.796875 
L 9.078125 54.6875 
L 18.109375 54.6875 
L 18.109375 46.390625 
Q 20.953125 51.265625 25.265625 53.625 
Q 29.59375 56 35.59375 56 
Q 45.5625 56 51.78125 48.09375 
Q 58.015625 40.1875 58.015625 27.296875 
Q 58.015625 14.40625 51.78125 6.484375 
Q 45.5625 -1.421875 35.59375 -1.421875 
Q 29.59375 -1.421875 25.265625 0.953125 
Q 20.953125 3.328125 18.109375 8.203125 
z
M 48.6875 27.296875 
Q 48.6875 37.203125 44.609375 42.84375 
Q 40.53125 48.484375 33.40625 48.484375 
Q 26.265625 48.484375 22.1875 42.84375 
Q 18.109375 37.203125 18.109375 27.296875 
Q 18.109375 17.390625 22.1875 11.75 
Q 26.265625 6.109375 33.40625 6.109375 
Q 40.53125 6.109375 44.609375 11.75 
Q 48.6875 17.390625 48.6875 27.296875 
z
" id="DejaVuSans-112"/>
     <path d="M 54.890625 33.015625 
L 54.890625 0 
L 45.90625 0 
L 45.90625 32.71875 
Q 45.90625 40.484375 42.875 44.328125 
Q 39.84375 48.1875 33.796875 48.1875 
Q 26.515625 48.1875 22.3125 43.546875 
Q 18.109375 38.921875 18.109375 30.90625 
L 18.109375 0 
L 9.078125 0 
L 9.078125 75.984375 
L 18.109375 75.984375 
L 18.109375 46.1875 
Q 21.34375 51.125 25.703125 53.5625 
Q 30.078125 56 35.796875 56 
Q 45.21875 56 50.046875 50.171875 
Q 54.890625 44.34375 54.890625 33.015625 
z
" id="DejaVuSans-104"/>
     <path d="M 9.421875 75.984375 
L 18.40625 75.984375 
L 18.40625 0 
L 9.421875 0 
z
" id="DejaVuSans-108"/>
     <path d="M 32.171875 -5.078125 
Q 28.375 -14.84375 24.75 -17.8125 
Q 21.140625 -20.796875 15.09375 -20.796875 
L 7.90625 -20.796875 
L 7.90625 -13.28125 
L 13.1875 -13.28125 
Q 16.890625 -13.28125 18.9375 -11.515625 
Q 21 -9.765625 23.484375 -3.21875 
L 25.09375 0.875 
L 2.984375 54.6875 
L 12.5 54.6875 
L 29.59375 11.921875 
L 46.6875 54.6875 
L 56.203125 54.6875 
z
" id="DejaVuSans-121"/>
     <path d="M 44.28125 53.078125 
L 44.28125 44.578125 
Q 40.484375 46.53125 36.375 47.5 
Q 32.28125 48.484375 27.875 48.484375 
Q 21.1875 48.484375 17.84375 46.4375 
Q 14.5 44.390625 14.5 40.28125 
Q 14.5 37.15625 16.890625 35.375 
Q 19.28125 33.59375 26.515625 31.984375 
L 29.59375 31.296875 
Q 39.15625 29.25 43.1875 25.515625 
Q 47.21875 21.78125 47.21875 15.09375 
Q 47.21875 7.46875 41.1875 3.015625 
Q 35.15625 -1.421875 24.609375 -1.421875 
Q 20.21875 -1.421875 15.453125 -0.5625 
Q 10.6875 0.296875 5.421875 2 
L 5.421875 11.28125 
Q 10.40625 8.6875 15.234375 7.390625 
Q 20.0625 6.109375 24.8125 6.109375 
Q 31.15625 6.109375 34.5625 8.28125 
Q 37.984375 10.453125 37.984375 14.40625 
Q 37.984375 18.0625 35.515625 20.015625 
Q 33.0625 21.96875 24.703125 23.78125 
L 21.578125 24.515625 
Q 13.234375 26.265625 9.515625 29.90625 
Q 5.8125 33.546875 5.8125 39.890625 
Q 5.8125 47.609375 11.28125 51.796875 
Q 16.75 56 26.8125 56 
Q 31.78125 56 36.171875 55.265625 
Q 40.578125 54.546875 44.28125 53.078125 
z
" id="DejaVuSans-115"/>
     <path d="M 37.109375 75.984375 
L 37.109375 68.5 
L 28.515625 68.5 
Q 23.6875 68.5 21.796875 66.546875 
Q 19.921875 64.59375 19.921875 59.515625 
L 19.921875 54.6875 
L 34.71875 54.6875 
L 34.71875 47.703125 
L 19.921875 47.703125 
L 19.921875 0 
L 10.890625 0 
L 10.890625 47.703125 
L 2.296875 47.703125 
L 2.296875 54.6875 
L 10.890625 54.6875 
L 10.890625 58.5 
Q 10.890625 67.625 15.140625 71.796875 
Q 19.390625 75.984375 28.609375 75.984375 
z
" id="DejaVuSans-102"/>
     <path d="M 59.515625 10.40625 
L 59.515625 29.984375 
L 43.40625 29.984375 
L 43.40625 38.09375 
L 69.28125 38.09375 
L 69.28125 6.78125 
Q 63.578125 2.734375 56.6875 0.65625 
Q 49.8125 -1.421875 42 -1.421875 
Q 24.90625 -1.421875 15.25 8.5625 
Q 5.609375 18.5625 5.609375 36.375 
Q 5.609375 54.25 15.25 64.234375 
Q 24.90625 74.21875 42 74.21875 
Q 49.125 74.21875 55.546875 72.453125 
Q 61.96875 70.703125 67.390625 67.28125 
L 67.390625 56.78125 
Q 61.921875 61.421875 55.765625 63.765625 
Q 49.609375 66.109375 42.828125 66.109375 
Q 29.4375 66.109375 22.71875 58.640625 
Q 16.015625 51.171875 16.015625 36.375 
Q 16.015625 21.625 22.71875 14.15625 
Q 29.4375 6.6875 42.828125 6.6875 
Q 48.046875 6.6875 52.140625 7.59375 
Q 56.25 8.5 59.515625 10.40625 
z
" id="DejaVuSans-71"/>
     <path d="M 45.40625 46.390625 
L 45.40625 75.984375 
L 54.390625 75.984375 
L 54.390625 0 
L 45.40625 0 
L 45.40625 8.203125 
Q 42.578125 3.328125 38.25 0.953125 
Q 33.9375 -1.421875 27.875 -1.421875 
Q 17.96875 -1.421875 11.734375 6.484375 
Q 5.515625 14.40625 5.515625 27.296875 
Q 5.515625 40.1875 11.734375 48.09375 
Q 17.96875 56 27.875 56 
Q 33.9375 56 38.25 53.625 
Q 42.578125 51.265625 45.40625 46.390625 
z
M 14.796875 27.296875 
Q 14.796875 17.390625 18.875 11.75 
Q 22.953125 6.109375 30.078125 6.109375 
Q 37.203125 6.109375 41.296875 11.75 
Q 45.40625 17.390625 45.40625 27.296875 
Q 45.40625 37.203125 41.296875 42.84375 
Q 37.203125 48.484375 30.078125 48.484375 
Q 22.953125 48.484375 18.875 42.84375 
Q 14.796875 37.203125 14.796875 27.296875 
z
" id="DejaVuSans-100"/>
     <path d="M 4.203125 54.6875 
L 13.1875 54.6875 
L 24.421875 12.015625 
L 35.59375 54.6875 
L 46.1875 54.6875 
L 57.421875 12.015625 
L 68.609375 54.6875 
L 77.59375 54.6875 
L 63.28125 0 
L 52.6875 0 
L 40.921875 44.828125 
L 29.109375 0 
L 18.5 0 
z
" id="DejaVuSans-119"/>
     <path d="M 9.421875 54.6875 
L 18.40625 54.6875 
L 18.40625 0 
L 9.421875 0 
z
M 9.421875 75.984375 
L 18.40625 75.984375 
L 18.40625 64.59375 
L 9.421875 64.59375 
z
" id="DejaVuSans-105"/>
    </defs>
    <g transform="translate(88.839375 8.59725)scale(0.12 -0.12)">
     <use xlink:href="#DejaVuSans-67"/>
     <use x="69.824219" xlink:href="#DejaVuSans-111"/>
     <use x="131.005859" xlink:href="#DejaVuSans-109"/>
     <use x="228.417969" xlink:href="#DejaVuSans-112"/>
     <use x="291.894531" xlink:href="#DejaVuSans-97"/>
     <use x="353.173828" xlink:href="#DejaVuSans-114"/>
     <use x="392.037109" xlink:href="#DejaVuSans-101"/>
     <use x="453.560547" xlink:href="#DejaVuSans-32"/>
     <use x="485.347656" xlink:href="#DejaVuSans-109"/>
     <use x="582.759766" xlink:href="#DejaVuSans-111"/>
     <use x="643.941406" xlink:href="#DejaVuSans-110"/>
     <use x="707.320312" xlink:href="#DejaVuSans-116"/>
     <use x="746.529297" xlink:href="#DejaVuSans-104"/>
     <use x="809.908203" xlink:href="#DejaVuSans-108"/>
     <use x="837.691406" xlink:href="#DejaVuSans-121"/>
     <use x="896.871094" xlink:href="#DejaVuSans-32"/>
     <use x="928.658203" xlink:href="#DejaVuSans-101"/>
     <use x="990.181641" xlink:href="#DejaVuSans-114"/>
     <use x="1029.544922" xlink:href="#DejaVuSans-114"/>
     <use x="1068.408203" xlink:href="#DejaVuSans-111"/>
     <use x="1129.589844" xlink:href="#DejaVuSans-114"/>
     <use x="1170.703125" xlink:href="#DejaVuSans-115"/>
     <use x="1222.802734" xlink:href="#DejaVuSans-32"/>
     <use x="1254.589844" xlink:href="#DejaVuSans-102"/>
     <use x="1289.794922" xlink:href="#DejaVuSans-111"/>
     <use x="1350.976562" xlink:href="#DejaVuSans-114"/>
     <use x="1392.089844" xlink:href="#DejaVuSans-32"/>
     <use x="1423.876953" xlink:href="#DejaVuSans-71"/>
     <use x="1501.367188" xlink:href="#DejaVuSans-101"/>
     <use x="1562.890625" xlink:href="#DejaVuSans-110"/>
     <use x="1626.269531" xlink:href="#DejaVuSans-101"/>
     <use x="1687.792969" xlink:href="#DejaVuSans-114"/>
     <use x="1728.90625" xlink:href="#DejaVuSans-97"/>
     <use x="1790.185547" xlink:href="#DejaVuSans-116"/>
     <use x="1829.394531" xlink:href="#DejaVuSans-101"/>
     <use x="1890.917969" xlink:href="#DejaVuSans-100"/>
     <use x="1954.394531" xlink:href="#DejaVuSans-32"/>
     <use x="1986.181641" xlink:href="#DejaVuSans-100"/>
     <use x="2049.658203" xlink:href="#DejaVuSans-97"/>
     <use x="2110.9375" xlink:href="#DejaVuSans-116"/>
     <use x="2150.146484" xlink:href="#DejaVuSans-97"/>
     <use x="2211.425781" xlink:href="#DejaVuSans-32"/>
     <use x="2243.212891" xlink:href="#DejaVuSans-119"/>
     <use x="2325" xlink:href="#DejaVuSans-105"/>
     <use x="2352.783203" xlink:href="#DejaVuSans-116"/>
     <use x="2391.992188" xlink:href="#DejaVuSans-104"/>
    </g>
    <!-- Neural Networks with solver: sgd -->
    <defs>
     <path d="M 9.8125 72.90625 
L 23.09375 72.90625 
L 55.421875 11.921875 
L 55.421875 72.90625 
L 64.984375 72.90625 
L 64.984375 0 
L 51.703125 0 
L 19.390625 60.984375 
L 19.390625 0 
L 9.8125 0 
z
" id="DejaVuSans-78"/>
     <path d="M 9.078125 75.984375 
L 18.109375 75.984375 
L 18.109375 31.109375 
L 44.921875 54.6875 
L 56.390625 54.6875 
L 27.390625 29.109375 
L 57.625 0 
L 45.90625 0 
L 18.109375 26.703125 
L 18.109375 0 
L 9.078125 0 
z
" id="DejaVuSans-107"/>
     <path d="M 2.984375 54.6875 
L 12.5 54.6875 
L 29.59375 8.796875 
L 46.6875 54.6875 
L 56.203125 54.6875 
L 35.6875 0 
L 23.484375 0 
z
" id="DejaVuSans-118"/>
     <path d="M 11.71875 12.40625 
L 22.015625 12.40625 
L 22.015625 0 
L 11.71875 0 
z
M 11.71875 51.703125 
L 22.015625 51.703125 
L 22.015625 39.3125 
L 11.71875 39.3125 
z
" id="DejaVuSans-58"/>
     <path d="M 45.40625 27.984375 
Q 45.40625 37.75 41.375 43.109375 
Q 37.359375 48.484375 30.078125 48.484375 
Q 22.859375 48.484375 18.828125 43.109375 
Q 14.796875 37.75 14.796875 27.984375 
Q 14.796875 18.265625 18.828125 12.890625 
Q 22.859375 7.515625 30.078125 7.515625 
Q 37.359375 7.515625 41.375 12.890625 
Q 45.40625 18.265625 45.40625 27.984375 
z
M 54.390625 6.78125 
Q 54.390625 -7.171875 48.1875 -13.984375 
Q 42 -20.796875 29.203125 -20.796875 
Q 24.46875 -20.796875 20.265625 -20.09375 
Q 16.0625 -19.390625 12.109375 -17.921875 
L 12.109375 -9.1875 
Q 16.0625 -11.328125 19.921875 -12.34375 
Q 23.78125 -13.375 27.78125 -13.375 
Q 36.625 -13.375 41.015625 -8.765625 
Q 45.40625 -4.15625 45.40625 5.171875 
L 45.40625 9.625 
Q 42.625 4.78125 38.28125 2.390625 
Q 33.9375 0 27.875 0 
Q 17.828125 0 11.671875 7.65625 
Q 5.515625 15.328125 5.515625 27.984375 
Q 5.515625 40.671875 11.671875 48.328125 
Q 17.828125 56 27.875 56 
Q 33.9375 56 38.28125 53.609375 
Q 42.625 51.21875 45.40625 46.390625 
L 45.40625 54.6875 
L 54.390625 54.6875 
z
" id="DejaVuSans-103"/>
    </defs>
    <g transform="translate(136.999687 22.034625)scale(0.12 -0.12)">
     <use xlink:href="#DejaVuSans-78"/>
     <use x="74.804688" xlink:href="#DejaVuSans-101"/>
     <use x="136.328125" xlink:href="#DejaVuSans-117"/>
     <use x="199.707031" xlink:href="#DejaVuSans-114"/>
     <use x="240.820312" xlink:href="#DejaVuSans-97"/>
     <use x="302.099609" xlink:href="#DejaVuSans-108"/>
     <use x="329.882812" xlink:href="#DejaVuSans-32"/>
     <use x="361.669922" xlink:href="#DejaVuSans-78"/>
     <use x="436.474609" xlink:href="#DejaVuSans-101"/>
     <use x="497.998047" xlink:href="#DejaVuSans-116"/>
     <use x="537.207031" xlink:href="#DejaVuSans-119"/>
     <use x="618.994141" xlink:href="#DejaVuSans-111"/>
     <use x="680.175781" xlink:href="#DejaVuSans-114"/>
     <use x="721.289062" xlink:href="#DejaVuSans-107"/>
     <use x="779.199219" xlink:href="#DejaVuSans-115"/>
     <use x="831.298828" xlink:href="#DejaVuSans-32"/>
     <use x="863.085938" xlink:href="#DejaVuSans-119"/>
     <use x="944.873047" xlink:href="#DejaVuSans-105"/>
     <use x="972.65625" xlink:href="#DejaVuSans-116"/>
     <use x="1011.865234" xlink:href="#DejaVuSans-104"/>
     <use x="1075.244141" xlink:href="#DejaVuSans-32"/>
     <use x="1107.03125" xlink:href="#DejaVuSans-115"/>
     <use x="1159.130859" xlink:href="#DejaVuSans-111"/>
     <use x="1220.3125" xlink:href="#DejaVuSans-108"/>
     <use x="1248.095703" xlink:href="#DejaVuSans-118"/>
     <use x="1307.275391" xlink:href="#DejaVuSans-101"/>
     <use x="1368.798828" xlink:href="#DejaVuSans-114"/>
     <use x="1408.162109" xlink:href="#DejaVuSans-58"/>
     <use x="1441.853516" xlink:href="#DejaVuSans-32"/>
     <use x="1473.640625" xlink:href="#DejaVuSans-115"/>
     <use x="1525.740234" xlink:href="#DejaVuSans-103"/>
     <use x="1589.216797" xlink:href="#DejaVuSans-100"/>
    </g>
    <!--  activation function: logistic and number nodes: (20, 16, 10, 4) -->
    <defs>
     <path d="M 48.78125 52.59375 
L 48.78125 44.1875 
Q 44.96875 46.296875 41.140625 47.34375 
Q 37.3125 48.390625 33.40625 48.390625 
Q 24.65625 48.390625 19.8125 42.84375 
Q 14.984375 37.3125 14.984375 27.296875 
Q 14.984375 17.28125 19.8125 11.734375 
Q 24.65625 6.203125 33.40625 6.203125 
Q 37.3125 6.203125 41.140625 7.25 
Q 44.96875 8.296875 48.78125 10.40625 
L 48.78125 2.09375 
Q 45.015625 0.34375 40.984375 -0.53125 
Q 36.96875 -1.421875 32.421875 -1.421875 
Q 20.0625 -1.421875 12.78125 6.34375 
Q 5.515625 14.109375 5.515625 27.296875 
Q 5.515625 40.671875 12.859375 48.328125 
Q 20.21875 56 33.015625 56 
Q 37.15625 56 41.109375 55.140625 
Q 45.0625 54.296875 48.78125 52.59375 
z
" id="DejaVuSans-99"/>
     <path d="M 48.6875 27.296875 
Q 48.6875 37.203125 44.609375 42.84375 
Q 40.53125 48.484375 33.40625 48.484375 
Q 26.265625 48.484375 22.1875 42.84375 
Q 18.109375 37.203125 18.109375 27.296875 
Q 18.109375 17.390625 22.1875 11.75 
Q 26.265625 6.109375 33.40625 6.109375 
Q 40.53125 6.109375 44.609375 11.75 
Q 48.6875 17.390625 48.6875 27.296875 
z
M 18.109375 46.390625 
Q 20.953125 51.265625 25.265625 53.625 
Q 29.59375 56 35.59375 56 
Q 45.5625 56 51.78125 48.09375 
Q 58.015625 40.1875 58.015625 27.296875 
Q 58.015625 14.40625 51.78125 6.484375 
Q 45.5625 -1.421875 35.59375 -1.421875 
Q 29.59375 -1.421875 25.265625 0.953125 
Q 20.953125 3.328125 18.109375 8.203125 
L 18.109375 0 
L 9.078125 0 
L 9.078125 75.984375 
L 18.109375 75.984375 
z
" id="DejaVuSans-98"/>
     <path d="M 31 75.875 
Q 24.46875 64.65625 21.28125 53.65625 
Q 18.109375 42.671875 18.109375 31.390625 
Q 18.109375 20.125 21.3125 9.0625 
Q 24.515625 -2 31 -13.1875 
L 23.1875 -13.1875 
Q 15.875 -1.703125 12.234375 9.375 
Q 8.59375 20.453125 8.59375 31.390625 
Q 8.59375 42.28125 12.203125 53.3125 
Q 15.828125 64.359375 23.1875 75.875 
z
" id="DejaVuSans-40"/>
     <path d="M 11.71875 12.40625 
L 22.015625 12.40625 
L 22.015625 4 
L 14.015625 -11.625 
L 7.71875 -11.625 
L 11.71875 4 
z
" id="DejaVuSans-44"/>
     <path d="M 8.015625 75.875 
L 15.828125 75.875 
Q 23.140625 64.359375 26.78125 53.3125 
Q 30.421875 42.28125 30.421875 31.390625 
Q 30.421875 20.453125 26.78125 9.375 
Q 23.140625 -1.703125 15.828125 -13.1875 
L 8.015625 -13.1875 
Q 14.5 -2 17.703125 9.0625 
Q 20.90625 20.125 20.90625 31.390625 
Q 20.90625 42.671875 17.703125 53.65625 
Q 14.5 64.65625 8.015625 75.875 
z
" id="DejaVuSans-41"/>
    </defs>
    <g transform="translate(47.635312 35.472)scale(0.12 -0.12)">
     <use xlink:href="#DejaVuSans-32"/>
     <use x="31.787109" xlink:href="#DejaVuSans-97"/>
     <use x="93.066406" xlink:href="#DejaVuSans-99"/>
     <use x="148.046875" xlink:href="#DejaVuSans-116"/>
     <use x="187.255859" xlink:href="#DejaVuSans-105"/>
     <use x="215.039062" xlink:href="#DejaVuSans-118"/>
     <use x="274.21875" xlink:href="#DejaVuSans-97"/>
     <use x="335.498047" xlink:href="#DejaVuSans-116"/>
     <use x="374.707031" xlink:href="#DejaVuSans-105"/>
     <use x="402.490234" xlink:href="#DejaVuSans-111"/>
     <use x="463.671875" xlink:href="#DejaVuSans-110"/>
     <use x="527.050781" xlink:href="#DejaVuSans-32"/>
     <use x="558.837891" xlink:href="#DejaVuSans-102"/>
     <use x="594.042969" xlink:href="#DejaVuSans-117"/>
     <use x="657.421875" xlink:href="#DejaVuSans-110"/>
     <use x="720.800781" xlink:href="#DejaVuSans-99"/>
     <use x="775.78125" xlink:href="#DejaVuSans-116"/>
     <use x="814.990234" xlink:href="#DejaVuSans-105"/>
     <use x="842.773438" xlink:href="#DejaVuSans-111"/>
     <use x="903.955078" xlink:href="#DejaVuSans-110"/>
     <use x="967.333984" xlink:href="#DejaVuSans-58"/>
     <use x="1001.025391" xlink:href="#DejaVuSans-32"/>
     <use x="1032.8125" xlink:href="#DejaVuSans-108"/>
     <use x="1060.595703" xlink:href="#DejaVuSans-111"/>
     <use x="1121.777344" xlink:href="#DejaVuSans-103"/>
     <use x="1185.253906" xlink:href="#DejaVuSans-105"/>
     <use x="1213.037109" xlink:href="#DejaVuSans-115"/>
     <use x="1265.136719" xlink:href="#DejaVuSans-116"/>
     <use x="1304.345703" xlink:href="#DejaVuSans-105"/>
     <use x="1332.128906" xlink:href="#DejaVuSans-99"/>
     <use x="1387.109375" xlink:href="#DejaVuSans-32"/>
     <use x="1418.896484" xlink:href="#DejaVuSans-97"/>
     <use x="1480.175781" xlink:href="#DejaVuSans-110"/>
     <use x="1543.554688" xlink:href="#DejaVuSans-100"/>
     <use x="1607.03125" xlink:href="#DejaVuSans-32"/>
     <use x="1638.818359" xlink:href="#DejaVuSans-110"/>
     <use x="1702.197266" xlink:href="#DejaVuSans-117"/>
     <use x="1765.576172" xlink:href="#DejaVuSans-109"/>
     <use x="1862.988281" xlink:href="#DejaVuSans-98"/>
     <use x="1926.464844" xlink:href="#DejaVuSans-101"/>
     <use x="1987.988281" xlink:href="#DejaVuSans-114"/>
     <use x="2029.101562" xlink:href="#DejaVuSans-32"/>
     <use x="2060.888672" xlink:href="#DejaVuSans-110"/>
     <use x="2124.267578" xlink:href="#DejaVuSans-111"/>
     <use x="2185.449219" xlink:href="#DejaVuSans-100"/>
     <use x="2248.925781" xlink:href="#DejaVuSans-101"/>
     <use x="2310.449219" xlink:href="#DejaVuSans-115"/>
     <use x="2362.548828" xlink:href="#DejaVuSans-58"/>
     <use x="2396.240234" xlink:href="#DejaVuSans-32"/>
     <use x="2428.027344" xlink:href="#DejaVuSans-40"/>
     <use x="2467.041016" xlink:href="#DejaVuSans-50"/>
     <use x="2530.664062" xlink:href="#DejaVuSans-48"/>
     <use x="2594.287109" xlink:href="#DejaVuSans-44"/>
     <use x="2626.074219" xlink:href="#DejaVuSans-32"/>
     <use x="2657.861328" xlink:href="#DejaVuSans-49"/>
     <use x="2721.484375" xlink:href="#DejaVuSans-54"/>
     <use x="2785.107422" xlink:href="#DejaVuSans-44"/>
     <use x="2816.894531" xlink:href="#DejaVuSans-32"/>
     <use x="2848.681641" xlink:href="#DejaVuSans-49"/>
     <use x="2912.304688" xlink:href="#DejaVuSans-48"/>
     <use x="2975.927734" xlink:href="#DejaVuSans-44"/>
     <use x="3007.714844" xlink:href="#DejaVuSans-32"/>
     <use x="3039.501953" xlink:href="#DejaVuSans-52"/>
     <use x="3103.125" xlink:href="#DejaVuSans-41"/>
    </g>
   </g>
   <g id="legend_1">
    <g id="patch_7">
     <path d="M 243.598125 93.506375 
L 407.72 93.506375 
Q 409.72 93.506375 409.72 91.506375 
L 409.72 48.472 
Q 409.72 46.472 407.72 46.472 
L 243.598125 46.472 
Q 241.598125 46.472 241.598125 48.472 
L 241.598125 91.506375 
Q 241.598125 93.506375 243.598125 93.506375 
z
" style="fill:#ffffff;opacity:0.8;stroke:#cccccc;stroke-linejoin:miter;"/>
    </g>
    <g id="line2d_18">
     <path d="M 245.598125 54.570438 
L 265.598125 54.570438 
" style="fill:none;stroke:#ff0000;stroke-linecap:square;stroke-width:1.5;"/>
    </g>
    <g id="line2d_19"/>
    <g id="text_17">
     <!-- Guessed Revenue -->
     <g transform="translate(273.598125 58.070438)scale(0.1 -0.1)">
      <use xlink:href="#DejaVuSans-71"/>
      <use x="77.490234" xlink:href="#DejaVuSans-117"/>
      <use x="140.869141" xlink:href="#DejaVuSans-101"/>
      <use x="202.392578" xlink:href="#DejaVuSans-115"/>
      <use x="254.492188" xlink:href="#DejaVuSans-115"/>
      <use x="306.591797" xlink:href="#DejaVuSans-101"/>
      <use x="368.115234" xlink:href="#DejaVuSans-100"/>
      <use x="431.591797" xlink:href="#DejaVuSans-32"/>
      <use x="463.378906" xlink:href="#DejaVuSans-82"/>
      <use x="528.361328" xlink:href="#DejaVuSans-101"/>
      <use x="589.884766" xlink:href="#DejaVuSans-118"/>
      <use x="649.064453" xlink:href="#DejaVuSans-101"/>
      <use x="710.587891" xlink:href="#DejaVuSans-110"/>
      <use x="773.966797" xlink:href="#DejaVuSans-117"/>
      <use x="837.345703" xlink:href="#DejaVuSans-101"/>
     </g>
    </g>
    <g id="line2d_20">
     <path d="M 245.598125 69.248563 
L 265.598125 69.248563 
" style="fill:none;stroke:#0000ff;stroke-linecap:square;stroke-width:1.5;"/>
    </g>
    <g id="line2d_21"/>
    <g id="text_18">
     <!-- Predicted Revenue -->
     <defs>
      <path d="M 19.671875 64.796875 
L 19.671875 37.40625 
L 32.078125 37.40625 
Q 38.96875 37.40625 42.71875 40.96875 
Q 46.484375 44.53125 46.484375 51.125 
Q 46.484375 57.671875 42.71875 61.234375 
Q 38.96875 64.796875 32.078125 64.796875 
z
M 9.8125 72.90625 
L 32.078125 72.90625 
Q 44.34375 72.90625 50.609375 67.359375 
Q 56.890625 61.8125 56.890625 51.125 
Q 56.890625 40.328125 50.609375 34.8125 
Q 44.34375 29.296875 32.078125 29.296875 
L 19.671875 29.296875 
L 19.671875 0 
L 9.8125 0 
z
" id="DejaVuSans-80"/>
     </defs>
     <g transform="translate(273.598125 72.748563)scale(0.1 -0.1)">
      <use xlink:href="#DejaVuSans-80"/>
      <use x="58.552734" xlink:href="#DejaVuSans-114"/>
      <use x="97.416016" xlink:href="#DejaVuSans-101"/>
      <use x="158.939453" xlink:href="#DejaVuSans-100"/>
      <use x="222.416016" xlink:href="#DejaVuSans-105"/>
      <use x="250.199219" xlink:href="#DejaVuSans-99"/>
      <use x="305.179688" xlink:href="#DejaVuSans-116"/>
      <use x="344.388672" xlink:href="#DejaVuSans-101"/>
      <use x="405.912109" xlink:href="#DejaVuSans-100"/>
      <use x="469.388672" xlink:href="#DejaVuSans-32"/>
      <use x="501.175781" xlink:href="#DejaVuSans-82"/>
      <use x="566.158203" xlink:href="#DejaVuSans-101"/>
      <use x="627.681641" xlink:href="#DejaVuSans-118"/>
      <use x="686.861328" xlink:href="#DejaVuSans-101"/>
      <use x="748.384766" xlink:href="#DejaVuSans-110"/>
      <use x="811.763672" xlink:href="#DejaVuSans-117"/>
      <use x="875.142578" xlink:href="#DejaVuSans-101"/>
     </g>
    </g>
    <g id="line2d_22">
     <path d="M 245.598125 83.926688 
L 265.598125 83.926688 
" style="fill:none;stroke:#008000;stroke-linecap:square;stroke-width:1.5;"/>
    </g>
    <g id="line2d_23"/>
    <g id="text_19">
     <!-- Strictly Predicted Revenue -->
     <g transform="translate(273.598125 87.426688)scale(0.1 -0.1)">
      <use xlink:href="#DejaVuSans-83"/>
      <use x="63.476562" xlink:href="#DejaVuSans-116"/>
      <use x="102.685547" xlink:href="#DejaVuSans-114"/>
      <use x="143.798828" xlink:href="#DejaVuSans-105"/>
      <use x="171.582031" xlink:href="#DejaVuSans-99"/>
      <use x="226.5625" xlink:href="#DejaVuSans-116"/>
      <use x="265.771484" xlink:href="#DejaVuSans-108"/>
      <use x="293.554688" xlink:href="#DejaVuSans-121"/>
      <use x="352.734375" xlink:href="#DejaVuSans-32"/>
      <use x="384.521484" xlink:href="#DejaVuSans-80"/>
      <use x="443.074219" xlink:href="#DejaVuSans-114"/>
      <use x="481.9375" xlink:href="#DejaVuSans-101"/>
      <use x="543.460938" xlink:href="#DejaVuSans-100"/>
      <use x="606.9375" xlink:href="#DejaVuSans-105"/>
      <use x="634.720703" xlink:href="#DejaVuSans-99"/>
      <use x="689.701172" xlink:href="#DejaVuSans-116"/>
      <use x="728.910156" xlink:href="#DejaVuSans-101"/>
      <use x="790.433594" xlink:href="#DejaVuSans-100"/>
      <use x="853.910156" xlink:href="#DejaVuSans-32"/>
      <use x="885.697266" xlink:href="#DejaVuSans-82"/>
      <use x="950.679688" xlink:href="#DejaVuSans-101"/>
      <use x="1012.203125" xlink:href="#DejaVuSans-118"/>
      <use x="1071.382812" xlink:href="#DejaVuSans-101"/>
      <use x="1132.90625" xlink:href="#DejaVuSans-110"/>
      <use x="1196.285156" xlink:href="#DejaVuSans-117"/>
      <use x="1259.664062" xlink:href="#DejaVuSans-101"/>
     </g>
    </g>
   </g>
  </g>
 </g>
 <defs>
  <clipPath id="pf8aeb1e72c">
   <rect height="266.112" width="357.12" x="57.6" y="41.472"/>
  </clipPath>
 </defs>
</svg>
