<?xml version="1.0" encoding="utf-8" standalone="no"?>
<!DOCTYPE svg PUBLIC "-//W3C//DTD SVG 1.1//EN"
  "http://www.w3.org/Graphics/SVG/1.1/DTD/svg11.dtd">
<!-- Created with matplotlib (https://matplotlib.org/) -->
<svg height="345.6pt" version="1.1" viewBox="0 0 460.8 345.6" width="460.8pt" xmlns="http://www.w3.org/2000/svg" xmlns:xlink="http://www.w3.org/1999/xlink">
 <defs>
  <style type="text/css">
*{stroke-linecap:butt;stroke-linejoin:round;}
  </style>
 </defs>
 <g id="figure_1">
  <g id="patch_1">
   <path d="M 0 345.6 
L 460.8 345.6 
L 460.8 0 
L 0 0 
z
" style="fill:#ffffff;"/>
  </g>
  <g id="axes_1">
   <g id="patch_2">
    <path d="M 57.6 307.584 
L 414.72 307.584 
L 414.72 41.472 
L 57.6 41.472 
z
" style="fill:#ffffff;"/>
   </g>
   <g id="matplotlib.axis_1">
    <g id="xtick_1">
     <g id="line2d_1">
      <defs>
       <path d="M 0 0 
L 0 3.5 
" id="meb67953ce2" style="stroke:#000000;stroke-width:0.8;"/>
      </defs>
      <g>
       <use style="stroke:#000000;stroke-width:0.8;" x="73.832727" xlink:href="#meb67953ce2" y="307.584"/>
      </g>
     </g>
     <g id="text_1">
      <!-- 0 -->
      <defs>
       <path d="M 31.78125 66.40625 
Q 24.171875 66.40625 20.328125 58.90625 
Q 16.5 51.421875 16.5 36.375 
Q 16.5 21.390625 20.328125 13.890625 
Q 24.171875 6.390625 31.78125 6.390625 
Q 39.453125 6.390625 43.28125 13.890625 
Q 47.125 21.390625 47.125 36.375 
Q 47.125 51.421875 43.28125 58.90625 
Q 39.453125 66.40625 31.78125 66.40625 
z
M 31.78125 74.21875 
Q 44.046875 74.21875 50.515625 64.515625 
Q 56.984375 54.828125 56.984375 36.375 
Q 56.984375 17.96875 50.515625 8.265625 
Q 44.046875 -1.421875 31.78125 -1.421875 
Q 19.53125 -1.421875 13.0625 8.265625 
Q 6.59375 17.96875 6.59375 36.375 
Q 6.59375 54.828125 13.0625 64.515625 
Q 19.53125 74.21875 31.78125 74.21875 
z
" id="DejaVuSans-48"/>
      </defs>
      <g transform="translate(70.651477 322.182437)scale(0.1 -0.1)">
       <use xlink:href="#DejaVuSans-48"/>
      </g>
     </g>
    </g>
    <g id="xtick_2">
     <g id="line2d_2">
      <g>
       <use style="stroke:#000000;stroke-width:0.8;" x="116.27123" xlink:href="#meb67953ce2" y="307.584"/>
      </g>
     </g>
     <g id="text_2">
      <!-- 20 -->
      <defs>
       <path d="M 19.1875 8.296875 
L 53.609375 8.296875 
L 53.609375 0 
L 7.328125 0 
L 7.328125 8.296875 
Q 12.9375 14.109375 22.625 23.890625 
Q 32.328125 33.6875 34.8125 36.53125 
Q 39.546875 41.84375 41.421875 45.53125 
Q 43.3125 49.21875 43.3125 52.78125 
Q 43.3125 58.59375 39.234375 62.25 
Q 35.15625 65.921875 28.609375 65.921875 
Q 23.96875 65.921875 18.8125 64.3125 
Q 13.671875 62.703125 7.8125 59.421875 
L 7.8125 69.390625 
Q 13.765625 71.78125 18.9375 73 
Q 24.125 74.21875 28.421875 74.21875 
Q 39.75 74.21875 46.484375 68.546875 
Q 53.21875 62.890625 53.21875 53.421875 
Q 53.21875 48.921875 51.53125 44.890625 
Q 49.859375 40.875 45.40625 35.40625 
Q 44.1875 33.984375 37.640625 27.21875 
Q 31.109375 20.453125 19.1875 8.296875 
z
" id="DejaVuSans-50"/>
      </defs>
      <g transform="translate(109.90873 322.182437)scale(0.1 -0.1)">
       <use xlink:href="#DejaVuSans-50"/>
       <use x="63.623047" xlink:href="#DejaVuSans-48"/>
      </g>
     </g>
    </g>
    <g id="xtick_3">
     <g id="line2d_3">
      <g>
       <use style="stroke:#000000;stroke-width:0.8;" x="158.709733" xlink:href="#meb67953ce2" y="307.584"/>
      </g>
     </g>
     <g id="text_3">
      <!-- 40 -->
      <defs>
       <path d="M 37.796875 64.3125 
L 12.890625 25.390625 
L 37.796875 25.390625 
z
M 35.203125 72.90625 
L 47.609375 72.90625 
L 47.609375 25.390625 
L 58.015625 25.390625 
L 58.015625 17.1875 
L 47.609375 17.1875 
L 47.609375 0 
L 37.796875 0 
L 37.796875 17.1875 
L 4.890625 17.1875 
L 4.890625 26.703125 
z
" id="DejaVuSans-52"/>
      </defs>
      <g transform="translate(152.347233 322.182437)scale(0.1 -0.1)">
       <use xlink:href="#DejaVuSans-52"/>
       <use x="63.623047" xlink:href="#DejaVuSans-48"/>
      </g>
     </g>
    </g>
    <g id="xtick_4">
     <g id="line2d_4">
      <g>
       <use style="stroke:#000000;stroke-width:0.8;" x="201.148235" xlink:href="#meb67953ce2" y="307.584"/>
      </g>
     </g>
     <g id="text_4">
      <!-- 60 -->
      <defs>
       <path d="M 33.015625 40.375 
Q 26.375 40.375 22.484375 35.828125 
Q 18.609375 31.296875 18.609375 23.390625 
Q 18.609375 15.53125 22.484375 10.953125 
Q 26.375 6.390625 33.015625 6.390625 
Q 39.65625 6.390625 43.53125 10.953125 
Q 47.40625 15.53125 47.40625 23.390625 
Q 47.40625 31.296875 43.53125 35.828125 
Q 39.65625 40.375 33.015625 40.375 
z
M 52.59375 71.296875 
L 52.59375 62.3125 
Q 48.875 64.0625 45.09375 64.984375 
Q 41.3125 65.921875 37.59375 65.921875 
Q 27.828125 65.921875 22.671875 59.328125 
Q 17.53125 52.734375 16.796875 39.40625 
Q 19.671875 43.65625 24.015625 45.921875 
Q 28.375 48.1875 33.59375 48.1875 
Q 44.578125 48.1875 50.953125 41.515625 
Q 57.328125 34.859375 57.328125 23.390625 
Q 57.328125 12.15625 50.6875 5.359375 
Q 44.046875 -1.421875 33.015625 -1.421875 
Q 20.359375 -1.421875 13.671875 8.265625 
Q 6.984375 17.96875 6.984375 36.375 
Q 6.984375 53.65625 15.1875 63.9375 
Q 23.390625 74.21875 37.203125 74.21875 
Q 40.921875 74.21875 44.703125 73.484375 
Q 48.484375 72.75 52.59375 71.296875 
z
" id="DejaVuSans-54"/>
      </defs>
      <g transform="translate(194.785735 322.182437)scale(0.1 -0.1)">
       <use xlink:href="#DejaVuSans-54"/>
       <use x="63.623047" xlink:href="#DejaVuSans-48"/>
      </g>
     </g>
    </g>
    <g id="xtick_5">
     <g id="line2d_5">
      <g>
       <use style="stroke:#000000;stroke-width:0.8;" x="243.586738" xlink:href="#meb67953ce2" y="307.584"/>
      </g>
     </g>
     <g id="text_5">
      <!-- 80 -->
      <defs>
       <path d="M 31.78125 34.625 
Q 24.75 34.625 20.71875 30.859375 
Q 16.703125 27.09375 16.703125 20.515625 
Q 16.703125 13.921875 20.71875 10.15625 
Q 24.75 6.390625 31.78125 6.390625 
Q 38.8125 6.390625 42.859375 10.171875 
Q 46.921875 13.96875 46.921875 20.515625 
Q 46.921875 27.09375 42.890625 30.859375 
Q 38.875 34.625 31.78125 34.625 
z
M 21.921875 38.8125 
Q 15.578125 40.375 12.03125 44.71875 
Q 8.5 49.078125 8.5 55.328125 
Q 8.5 64.0625 14.71875 69.140625 
Q 20.953125 74.21875 31.78125 74.21875 
Q 42.671875 74.21875 48.875 69.140625 
Q 55.078125 64.0625 55.078125 55.328125 
Q 55.078125 49.078125 51.53125 44.71875 
Q 48 40.375 41.703125 38.8125 
Q 48.828125 37.15625 52.796875 32.3125 
Q 56.78125 27.484375 56.78125 20.515625 
Q 56.78125 9.90625 50.3125 4.234375 
Q 43.84375 -1.421875 31.78125 -1.421875 
Q 19.734375 -1.421875 13.25 4.234375 
Q 6.78125 9.90625 6.78125 20.515625 
Q 6.78125 27.484375 10.78125 32.3125 
Q 14.796875 37.15625 21.921875 38.8125 
z
M 18.3125 54.390625 
Q 18.3125 48.734375 21.84375 45.5625 
Q 25.390625 42.390625 31.78125 42.390625 
Q 38.140625 42.390625 41.71875 45.5625 
Q 45.3125 48.734375 45.3125 54.390625 
Q 45.3125 60.0625 41.71875 63.234375 
Q 38.140625 66.40625 31.78125 66.40625 
Q 25.390625 66.40625 21.84375 63.234375 
Q 18.3125 60.0625 18.3125 54.390625 
z
" id="DejaVuSans-56"/>
      </defs>
      <g transform="translate(237.224238 322.182437)scale(0.1 -0.1)">
       <use xlink:href="#DejaVuSans-56"/>
       <use x="63.623047" xlink:href="#DejaVuSans-48"/>
      </g>
     </g>
    </g>
    <g id="xtick_6">
     <g id="line2d_6">
      <g>
       <use style="stroke:#000000;stroke-width:0.8;" x="286.025241" xlink:href="#meb67953ce2" y="307.584"/>
      </g>
     </g>
     <g id="text_6">
      <!-- 100 -->
      <defs>
       <path d="M 12.40625 8.296875 
L 28.515625 8.296875 
L 28.515625 63.921875 
L 10.984375 60.40625 
L 10.984375 69.390625 
L 28.421875 72.90625 
L 38.28125 72.90625 
L 38.28125 8.296875 
L 54.390625 8.296875 
L 54.390625 0 
L 12.40625 0 
z
" id="DejaVuSans-49"/>
      </defs>
      <g transform="translate(276.481491 322.182437)scale(0.1 -0.1)">
       <use xlink:href="#DejaVuSans-49"/>
       <use x="63.623047" xlink:href="#DejaVuSans-48"/>
       <use x="127.246094" xlink:href="#DejaVuSans-48"/>
      </g>
     </g>
    </g>
    <g id="xtick_7">
     <g id="line2d_7">
      <g>
       <use style="stroke:#000000;stroke-width:0.8;" x="328.463743" xlink:href="#meb67953ce2" y="307.584"/>
      </g>
     </g>
     <g id="text_7">
      <!-- 120 -->
      <g transform="translate(318.919993 322.182437)scale(0.1 -0.1)">
       <use xlink:href="#DejaVuSans-49"/>
       <use x="63.623047" xlink:href="#DejaVuSans-50"/>
       <use x="127.246094" xlink:href="#DejaVuSans-48"/>
      </g>
     </g>
    </g>
    <g id="xtick_8">
     <g id="line2d_8">
      <g>
       <use style="stroke:#000000;stroke-width:0.8;" x="370.902246" xlink:href="#meb67953ce2" y="307.584"/>
      </g>
     </g>
     <g id="text_8">
      <!-- 140 -->
      <g transform="translate(361.358496 322.182437)scale(0.1 -0.1)">
       <use xlink:href="#DejaVuSans-49"/>
       <use x="63.623047" xlink:href="#DejaVuSans-52"/>
       <use x="127.246094" xlink:href="#DejaVuSans-48"/>
      </g>
     </g>
    </g>
    <g id="xtick_9">
     <g id="line2d_9">
      <g>
       <use style="stroke:#000000;stroke-width:0.8;" x="413.340749" xlink:href="#meb67953ce2" y="307.584"/>
      </g>
     </g>
     <g id="text_9">
      <!-- 160 -->
      <g transform="translate(403.796999 322.182437)scale(0.1 -0.1)">
       <use xlink:href="#DejaVuSans-49"/>
       <use x="63.623047" xlink:href="#DejaVuSans-54"/>
       <use x="127.246094" xlink:href="#DejaVuSans-48"/>
      </g>
     </g>
    </g>
   </g>
   <g id="matplotlib.axis_2">
    <g id="ytick_1">
     <g id="line2d_10">
      <defs>
       <path d="M 0 0 
L -3.5 0 
" id="mc03d230892" style="stroke:#000000;stroke-width:0.8;"/>
      </defs>
      <g>
       <use style="stroke:#000000;stroke-width:0.8;" x="57.6" xlink:href="#mc03d230892" y="295.488"/>
      </g>
     </g>
     <g id="text_10">
      <!-- 0 -->
      <g transform="translate(44.2375 299.287219)scale(0.1 -0.1)">
       <use xlink:href="#DejaVuSans-48"/>
      </g>
     </g>
    </g>
    <g id="ytick_2">
     <g id="line2d_11">
      <g>
       <use style="stroke:#000000;stroke-width:0.8;" x="57.6" xlink:href="#mc03d230892" y="262.121565"/>
      </g>
     </g>
     <g id="text_11">
      <!-- 25000 -->
      <defs>
       <path d="M 10.796875 72.90625 
L 49.515625 72.90625 
L 49.515625 64.59375 
L 19.828125 64.59375 
L 19.828125 46.734375 
Q 21.96875 47.46875 24.109375 47.828125 
Q 26.265625 48.1875 28.421875 48.1875 
Q 40.625 48.1875 47.75 41.5 
Q 54.890625 34.8125 54.890625 23.390625 
Q 54.890625 11.625 47.5625 5.09375 
Q 40.234375 -1.421875 26.90625 -1.421875 
Q 22.3125 -1.421875 17.546875 -0.640625 
Q 12.796875 0.140625 7.71875 1.703125 
L 7.71875 11.625 
Q 12.109375 9.234375 16.796875 8.0625 
Q 21.484375 6.890625 26.703125 6.890625 
Q 35.15625 6.890625 40.078125 11.328125 
Q 45.015625 15.765625 45.015625 23.390625 
Q 45.015625 31 40.078125 35.4375 
Q 35.15625 39.890625 26.703125 39.890625 
Q 22.75 39.890625 18.8125 39.015625 
Q 14.890625 38.140625 10.796875 36.28125 
z
" id="DejaVuSans-53"/>
      </defs>
      <g transform="translate(18.7875 265.920784)scale(0.1 -0.1)">
       <use xlink:href="#DejaVuSans-50"/>
       <use x="63.623047" xlink:href="#DejaVuSans-53"/>
       <use x="127.246094" xlink:href="#DejaVuSans-48"/>
       <use x="190.869141" xlink:href="#DejaVuSans-48"/>
       <use x="254.492188" xlink:href="#DejaVuSans-48"/>
      </g>
     </g>
    </g>
    <g id="ytick_3">
     <g id="line2d_12">
      <g>
       <use style="stroke:#000000;stroke-width:0.8;" x="57.6" xlink:href="#mc03d230892" y="228.75513"/>
      </g>
     </g>
     <g id="text_12">
      <!-- 50000 -->
      <g transform="translate(18.7875 232.554349)scale(0.1 -0.1)">
       <use xlink:href="#DejaVuSans-53"/>
       <use x="63.623047" xlink:href="#DejaVuSans-48"/>
       <use x="127.246094" xlink:href="#DejaVuSans-48"/>
       <use x="190.869141" xlink:href="#DejaVuSans-48"/>
       <use x="254.492188" xlink:href="#DejaVuSans-48"/>
      </g>
     </g>
    </g>
    <g id="ytick_4">
     <g id="line2d_13">
      <g>
       <use style="stroke:#000000;stroke-width:0.8;" x="57.6" xlink:href="#mc03d230892" y="195.388695"/>
      </g>
     </g>
     <g id="text_13">
      <!-- 75000 -->
      <defs>
       <path d="M 8.203125 72.90625 
L 55.078125 72.90625 
L 55.078125 68.703125 
L 28.609375 0 
L 18.3125 0 
L 43.21875 64.59375 
L 8.203125 64.59375 
z
" id="DejaVuSans-55"/>
      </defs>
      <g transform="translate(18.7875 199.187914)scale(0.1 -0.1)">
       <use xlink:href="#DejaVuSans-55"/>
       <use x="63.623047" xlink:href="#DejaVuSans-53"/>
       <use x="127.246094" xlink:href="#DejaVuSans-48"/>
       <use x="190.869141" xlink:href="#DejaVuSans-48"/>
       <use x="254.492188" xlink:href="#DejaVuSans-48"/>
      </g>
     </g>
    </g>
    <g id="ytick_5">
     <g id="line2d_14">
      <g>
       <use style="stroke:#000000;stroke-width:0.8;" x="57.6" xlink:href="#mc03d230892" y="162.02226"/>
      </g>
     </g>
     <g id="text_14">
      <!-- 100000 -->
      <g transform="translate(12.425 165.821479)scale(0.1 -0.1)">
       <use xlink:href="#DejaVuSans-49"/>
       <use x="63.623047" xlink:href="#DejaVuSans-48"/>
       <use x="127.246094" xlink:href="#DejaVuSans-48"/>
       <use x="190.869141" xlink:href="#DejaVuSans-48"/>
       <use x="254.492188" xlink:href="#DejaVuSans-48"/>
       <use x="318.115234" xlink:href="#DejaVuSans-48"/>
      </g>
     </g>
    </g>
    <g id="ytick_6">
     <g id="line2d_15">
      <g>
       <use style="stroke:#000000;stroke-width:0.8;" x="57.6" xlink:href="#mc03d230892" y="128.655825"/>
      </g>
     </g>
     <g id="text_15">
      <!-- 125000 -->
      <g transform="translate(12.425 132.455044)scale(0.1 -0.1)">
       <use xlink:href="#DejaVuSans-49"/>
       <use x="63.623047" xlink:href="#DejaVuSans-50"/>
       <use x="127.246094" xlink:href="#DejaVuSans-53"/>
       <use x="190.869141" xlink:href="#DejaVuSans-48"/>
       <use x="254.492188" xlink:href="#DejaVuSans-48"/>
       <use x="318.115234" xlink:href="#DejaVuSans-48"/>
      </g>
     </g>
    </g>
    <g id="ytick_7">
     <g id="line2d_16">
      <g>
       <use style="stroke:#000000;stroke-width:0.8;" x="57.6" xlink:href="#mc03d230892" y="95.28939"/>
      </g>
     </g>
     <g id="text_16">
      <!-- 150000 -->
      <g transform="translate(12.425 99.088609)scale(0.1 -0.1)">
       <use xlink:href="#DejaVuSans-49"/>
       <use x="63.623047" xlink:href="#DejaVuSans-53"/>
       <use x="127.246094" xlink:href="#DejaVuSans-48"/>
       <use x="190.869141" xlink:href="#DejaVuSans-48"/>
       <use x="254.492188" xlink:href="#DejaVuSans-48"/>
       <use x="318.115234" xlink:href="#DejaVuSans-48"/>
      </g>
     </g>
    </g>
    <g id="ytick_8">
     <g id="line2d_17">
      <g>
       <use style="stroke:#000000;stroke-width:0.8;" x="57.6" xlink:href="#mc03d230892" y="61.922955"/>
      </g>
     </g>
     <g id="text_17">
      <!-- 175000 -->
      <g transform="translate(12.425 65.722174)scale(0.1 -0.1)">
       <use xlink:href="#DejaVuSans-49"/>
       <use x="63.623047" xlink:href="#DejaVuSans-55"/>
       <use x="127.246094" xlink:href="#DejaVuSans-53"/>
       <use x="190.869141" xlink:href="#DejaVuSans-48"/>
       <use x="254.492188" xlink:href="#DejaVuSans-48"/>
       <use x="318.115234" xlink:href="#DejaVuSans-48"/>
      </g>
     </g>
    </g>
    <g id="text_18">
     <!-- Mean Root Square Error -->
     <defs>
      <path d="M 9.8125 72.90625 
L 24.515625 72.90625 
L 43.109375 23.296875 
L 61.8125 72.90625 
L 76.515625 72.90625 
L 76.515625 0 
L 66.890625 0 
L 66.890625 64.015625 
L 48.09375 14.015625 
L 38.1875 14.015625 
L 19.390625 64.015625 
L 19.390625 0 
L 9.8125 0 
z
" id="DejaVuSans-77"/>
      <path d="M 56.203125 29.59375 
L 56.203125 25.203125 
L 14.890625 25.203125 
Q 15.484375 15.921875 20.484375 11.0625 
Q 25.484375 6.203125 34.421875 6.203125 
Q 39.59375 6.203125 44.453125 7.46875 
Q 49.3125 8.734375 54.109375 11.28125 
L 54.109375 2.78125 
Q 49.265625 0.734375 44.1875 -0.34375 
Q 39.109375 -1.421875 33.890625 -1.421875 
Q 20.796875 -1.421875 13.15625 6.1875 
Q 5.515625 13.8125 5.515625 26.8125 
Q 5.515625 40.234375 12.765625 48.109375 
Q 20.015625 56 32.328125 56 
Q 43.359375 56 49.78125 48.890625 
Q 56.203125 41.796875 56.203125 29.59375 
z
M 47.21875 32.234375 
Q 47.125 39.59375 43.09375 43.984375 
Q 39.0625 48.390625 32.421875 48.390625 
Q 24.90625 48.390625 20.390625 44.140625 
Q 15.875 39.890625 15.1875 32.171875 
z
" id="DejaVuSans-101"/>
      <path d="M 34.28125 27.484375 
Q 23.390625 27.484375 19.1875 25 
Q 14.984375 22.515625 14.984375 16.5 
Q 14.984375 11.71875 18.140625 8.90625 
Q 21.296875 6.109375 26.703125 6.109375 
Q 34.1875 6.109375 38.703125 11.40625 
Q 43.21875 16.703125 43.21875 25.484375 
L 43.21875 27.484375 
z
M 52.203125 31.203125 
L 52.203125 0 
L 43.21875 0 
L 43.21875 8.296875 
Q 40.140625 3.328125 35.546875 0.953125 
Q 30.953125 -1.421875 24.3125 -1.421875 
Q 15.921875 -1.421875 10.953125 3.296875 
Q 6 8.015625 6 15.921875 
Q 6 25.140625 12.171875 29.828125 
Q 18.359375 34.515625 30.609375 34.515625 
L 43.21875 34.515625 
L 43.21875 35.40625 
Q 43.21875 41.609375 39.140625 45 
Q 35.0625 48.390625 27.6875 48.390625 
Q 23 48.390625 18.546875 47.265625 
Q 14.109375 46.140625 10.015625 43.890625 
L 10.015625 52.203125 
Q 14.9375 54.109375 19.578125 55.046875 
Q 24.21875 56 28.609375 56 
Q 40.484375 56 46.34375 49.84375 
Q 52.203125 43.703125 52.203125 31.203125 
z
" id="DejaVuSans-97"/>
      <path d="M 54.890625 33.015625 
L 54.890625 0 
L 45.90625 0 
L 45.90625 32.71875 
Q 45.90625 40.484375 42.875 44.328125 
Q 39.84375 48.1875 33.796875 48.1875 
Q 26.515625 48.1875 22.3125 43.546875 
Q 18.109375 38.921875 18.109375 30.90625 
L 18.109375 0 
L 9.078125 0 
L 9.078125 54.6875 
L 18.109375 54.6875 
L 18.109375 46.1875 
Q 21.34375 51.125 25.703125 53.5625 
Q 30.078125 56 35.796875 56 
Q 45.21875 56 50.046875 50.171875 
Q 54.890625 44.34375 54.890625 33.015625 
z
" id="DejaVuSans-110"/>
      <path id="DejaVuSans-32"/>
      <path d="M 44.390625 34.1875 
Q 47.5625 33.109375 50.5625 29.59375 
Q 53.5625 26.078125 56.59375 19.921875 
L 66.609375 0 
L 56 0 
L 46.6875 18.703125 
Q 43.0625 26.03125 39.671875 28.421875 
Q 36.28125 30.8125 30.421875 30.8125 
L 19.671875 30.8125 
L 19.671875 0 
L 9.8125 0 
L 9.8125 72.90625 
L 32.078125 72.90625 
Q 44.578125 72.90625 50.734375 67.671875 
Q 56.890625 62.453125 56.890625 51.90625 
Q 56.890625 45.015625 53.6875 40.46875 
Q 50.484375 35.9375 44.390625 34.1875 
z
M 19.671875 64.796875 
L 19.671875 38.921875 
L 32.078125 38.921875 
Q 39.203125 38.921875 42.84375 42.21875 
Q 46.484375 45.515625 46.484375 51.90625 
Q 46.484375 58.296875 42.84375 61.546875 
Q 39.203125 64.796875 32.078125 64.796875 
z
" id="DejaVuSans-82"/>
      <path d="M 30.609375 48.390625 
Q 23.390625 48.390625 19.1875 42.75 
Q 14.984375 37.109375 14.984375 27.296875 
Q 14.984375 17.484375 19.15625 11.84375 
Q 23.34375 6.203125 30.609375 6.203125 
Q 37.796875 6.203125 41.984375 11.859375 
Q 46.1875 17.53125 46.1875 27.296875 
Q 46.1875 37.015625 41.984375 42.703125 
Q 37.796875 48.390625 30.609375 48.390625 
z
M 30.609375 56 
Q 42.328125 56 49.015625 48.375 
Q 55.71875 40.765625 55.71875 27.296875 
Q 55.71875 13.875 49.015625 6.21875 
Q 42.328125 -1.421875 30.609375 -1.421875 
Q 18.84375 -1.421875 12.171875 6.21875 
Q 5.515625 13.875 5.515625 27.296875 
Q 5.515625 40.765625 12.171875 48.375 
Q 18.84375 56 30.609375 56 
z
" id="DejaVuSans-111"/>
      <path d="M 18.3125 70.21875 
L 18.3125 54.6875 
L 36.8125 54.6875 
L 36.8125 47.703125 
L 18.3125 47.703125 
L 18.3125 18.015625 
Q 18.3125 11.328125 20.140625 9.421875 
Q 21.96875 7.515625 27.59375 7.515625 
L 36.8125 7.515625 
L 36.8125 0 
L 27.59375 0 
Q 17.1875 0 13.234375 3.875 
Q 9.28125 7.765625 9.28125 18.015625 
L 9.28125 47.703125 
L 2.6875 47.703125 
L 2.6875 54.6875 
L 9.28125 54.6875 
L 9.28125 70.21875 
z
" id="DejaVuSans-116"/>
      <path d="M 53.515625 70.515625 
L 53.515625 60.890625 
Q 47.90625 63.578125 42.921875 64.890625 
Q 37.9375 66.21875 33.296875 66.21875 
Q 25.25 66.21875 20.875 63.09375 
Q 16.5 59.96875 16.5 54.203125 
Q 16.5 49.359375 19.40625 46.890625 
Q 22.3125 44.4375 30.421875 42.921875 
L 36.375 41.703125 
Q 47.40625 39.59375 52.65625 34.296875 
Q 57.90625 29 57.90625 20.125 
Q 57.90625 9.515625 50.796875 4.046875 
Q 43.703125 -1.421875 29.984375 -1.421875 
Q 24.8125 -1.421875 18.96875 -0.25 
Q 13.140625 0.921875 6.890625 3.21875 
L 6.890625 13.375 
Q 12.890625 10.015625 18.65625 8.296875 
Q 24.421875 6.59375 29.984375 6.59375 
Q 38.421875 6.59375 43.015625 9.90625 
Q 47.609375 13.234375 47.609375 19.390625 
Q 47.609375 24.75 44.3125 27.78125 
Q 41.015625 30.8125 33.5 32.328125 
L 27.484375 33.5 
Q 16.453125 35.6875 11.515625 40.375 
Q 6.59375 45.0625 6.59375 53.421875 
Q 6.59375 63.09375 13.40625 68.65625 
Q 20.21875 74.21875 32.171875 74.21875 
Q 37.3125 74.21875 42.625 73.28125 
Q 47.953125 72.359375 53.515625 70.515625 
z
" id="DejaVuSans-83"/>
      <path d="M 14.796875 27.296875 
Q 14.796875 17.390625 18.875 11.75 
Q 22.953125 6.109375 30.078125 6.109375 
Q 37.203125 6.109375 41.296875 11.75 
Q 45.40625 17.390625 45.40625 27.296875 
Q 45.40625 37.203125 41.296875 42.84375 
Q 37.203125 48.484375 30.078125 48.484375 
Q 22.953125 48.484375 18.875 42.84375 
Q 14.796875 37.203125 14.796875 27.296875 
z
M 45.40625 8.203125 
Q 42.578125 3.328125 38.25 0.953125 
Q 33.9375 -1.421875 27.875 -1.421875 
Q 17.96875 -1.421875 11.734375 6.484375 
Q 5.515625 14.40625 5.515625 27.296875 
Q 5.515625 40.1875 11.734375 48.09375 
Q 17.96875 56 27.875 56 
Q 33.9375 56 38.25 53.625 
Q 42.578125 51.265625 45.40625 46.390625 
L 45.40625 54.6875 
L 54.390625 54.6875 
L 54.390625 -20.796875 
L 45.40625 -20.796875 
z
" id="DejaVuSans-113"/>
      <path d="M 8.5 21.578125 
L 8.5 54.6875 
L 17.484375 54.6875 
L 17.484375 21.921875 
Q 17.484375 14.15625 20.5 10.265625 
Q 23.53125 6.390625 29.59375 6.390625 
Q 36.859375 6.390625 41.078125 11.03125 
Q 45.3125 15.671875 45.3125 23.6875 
L 45.3125 54.6875 
L 54.296875 54.6875 
L 54.296875 0 
L 45.3125 0 
L 45.3125 8.40625 
Q 42.046875 3.421875 37.71875 1 
Q 33.40625 -1.421875 27.6875 -1.421875 
Q 18.265625 -1.421875 13.375 4.4375 
Q 8.5 10.296875 8.5 21.578125 
z
M 31.109375 56 
z
" id="DejaVuSans-117"/>
      <path d="M 41.109375 46.296875 
Q 39.59375 47.171875 37.8125 47.578125 
Q 36.03125 48 33.890625 48 
Q 26.265625 48 22.1875 43.046875 
Q 18.109375 38.09375 18.109375 28.8125 
L 18.109375 0 
L 9.078125 0 
L 9.078125 54.6875 
L 18.109375 54.6875 
L 18.109375 46.1875 
Q 20.953125 51.171875 25.484375 53.578125 
Q 30.03125 56 36.53125 56 
Q 37.453125 56 38.578125 55.875 
Q 39.703125 55.765625 41.0625 55.515625 
z
" id="DejaVuSans-114"/>
      <path d="M 9.8125 72.90625 
L 55.90625 72.90625 
L 55.90625 64.59375 
L 19.671875 64.59375 
L 19.671875 43.015625 
L 54.390625 43.015625 
L 54.390625 34.71875 
L 19.671875 34.71875 
L 19.671875 8.296875 
L 56.78125 8.296875 
L 56.78125 0 
L 9.8125 0 
z
" id="DejaVuSans-69"/>
     </defs>
     <g transform="translate(6.345312 234.032688)rotate(-90)scale(0.1 -0.1)">
      <use xlink:href="#DejaVuSans-77"/>
      <use x="86.279297" xlink:href="#DejaVuSans-101"/>
      <use x="147.802734" xlink:href="#DejaVuSans-97"/>
      <use x="209.082031" xlink:href="#DejaVuSans-110"/>
      <use x="272.460938" xlink:href="#DejaVuSans-32"/>
      <use x="304.248047" xlink:href="#DejaVuSans-82"/>
      <use x="369.230469" xlink:href="#DejaVuSans-111"/>
      <use x="430.412109" xlink:href="#DejaVuSans-111"/>
      <use x="491.59375" xlink:href="#DejaVuSans-116"/>
      <use x="530.802734" xlink:href="#DejaVuSans-32"/>
      <use x="562.589844" xlink:href="#DejaVuSans-83"/>
      <use x="626.066406" xlink:href="#DejaVuSans-113"/>
      <use x="689.542969" xlink:href="#DejaVuSans-117"/>
      <use x="752.921875" xlink:href="#DejaVuSans-97"/>
      <use x="814.201172" xlink:href="#DejaVuSans-114"/>
      <use x="853.064453" xlink:href="#DejaVuSans-101"/>
      <use x="914.587891" xlink:href="#DejaVuSans-32"/>
      <use x="946.375" xlink:href="#DejaVuSans-69"/>
      <use x="1009.558594" xlink:href="#DejaVuSans-114"/>
      <use x="1048.921875" xlink:href="#DejaVuSans-114"/>
      <use x="1087.785156" xlink:href="#DejaVuSans-111"/>
      <use x="1148.966797" xlink:href="#DejaVuSans-114"/>
     </g>
    </g>
   </g>
   <g id="line2d_18">
    <path clip-path="url(#p5146770eac)" d="M 73.832727 234.721049 
L 75.954652 219.893005 
L 78.076578 211.865041 
L 80.198503 142.966689 
L 82.320428 168.205061 
L 84.442353 283.379321 
L 86.564278 285.867345 
L 88.686203 273.023492 
L 90.808128 268.970582 
L 92.930053 271.697732 
L 95.051979 265.154574 
L 97.173904 243.312906 
L 99.295829 266.158904 
L 101.417754 255.995488 
L 103.539679 273.606292 
L 105.661604 250.43664 
L 107.783529 139.319738 
L 109.905455 153.91088 
L 112.02738 163.743968 
L 114.149305 141.855587 
L 116.27123 194.276481 
L 118.393155 142.823214 
L 120.51508 103.784485 
L 122.637005 129.492211 
L 124.75893 176.997116 
L 126.880856 227.985478 
L 129.002781 220.703809 
L 131.124706 188.491853 
L 133.246631 181.034455 
L 135.368556 145.475845 
L 137.490481 191.293521 
L 139.612406 177.050502 
L 141.734332 165.941704 
L 143.856257 154.118864 
L 145.978182 175.922717 
L 148.100107 195.497692 
L 150.222032 180.264802 
L 152.343957 227.95656 
L 154.465882 240.831555 
L 156.587807 185.765815 
L 158.709733 240.671396 
L 160.831658 215.481962 
L 162.953583 223.910324 
L 165.075508 228.094475 
L 167.197433 215.09936 
L 169.319358 230.523551 
L 171.441283 223.040572 
L 173.563209 212.138645 
L 175.685134 207.48514 
L 177.807059 194.692449 
L 179.928984 177.801247 
L 182.050909 188.305001 
L 184.172834 177.621069 
L 186.294759 191.037712 
L 188.416684 182.560413 
L 190.53861 180.242558 
L 192.660535 157.762479 
L 194.78246 189.838745 
L 196.904385 174.752667 
L 199.02631 190.712945 
L 201.148235 222.266471 
L 205.392086 189.898804 
L 207.514011 210.007643 
L 209.635936 180.327086 
L 211.757861 149.018248 
L 213.879786 121.557672 
L 216.001711 102.880254 
L 218.123636 80.521406 
L 220.245561 53.568 
L 222.367487 164.931813 
L 224.489412 135.862975 
L 226.611337 165.076401 
L 228.733262 197.722121 
L 230.855187 203.565696 
L 232.977112 205.703372 
L 235.099037 219.092211 
L 237.220963 233.281843 
L 239.342888 230.928397 
L 241.464813 211.047563 
L 243.586738 149.04939 
L 245.708663 167.74794 
L 247.830588 189.919936 
L 249.952513 201.451376 
L 252.074439 181.061148 
L 254.196364 207.01801 
L 256.318289 170.782062 
L 258.440214 167.972608 
L 260.562139 204.537772 
L 262.684064 198.131416 
L 264.805989 234.781108 
L 266.927914 242.713422 
L 269.04984 257.216699 
L 271.171765 253.119301 
L 273.29369 267.556957 
L 275.415615 273.443909 
L 279.659465 260.686808 
L 281.78139 229.851774 
L 283.903316 177.453124 
L 286.025241 153.131217 
L 288.147166 137.38226 
L 290.269091 98.363551 
L 292.391016 148.597831 
L 294.512941 140.790085 
L 296.634866 135.778447 
L 298.756791 178.774435 
L 300.878717 129.219718 
L 303.000642 86.070244 
L 305.122567 175.669132 
L 307.244492 191.135587 
L 309.366417 224.114971 
L 311.488342 253.791078 
L 313.610267 237.917553 
L 315.732193 205.525418 
L 317.854118 195.063929 
L 319.976043 171.598427 
L 322.097968 156.30659 
L 324.219893 98.592667 
L 326.341818 92.329787 
L 328.463743 115.345954 
L 330.585668 163.353581 
L 332.707594 178.378487 
L 334.829519 211.564743 
L 336.951444 251.911436 
L 339.073369 244.06365 
L 341.195294 261.899122 
L 343.317219 226.799857 
L 345.439144 186.938089 
L 347.56107 172.101148 
L 349.682995 184.057454 
L 351.80492 102.269648 
L 353.926845 139.444306 
L 356.04877 168.025994 
L 358.170695 138.011774 
L 360.29262 131.03374 
L 362.414545 90.242161 
L 364.536471 100.70365 
L 366.658396 195.591118 
L 368.780321 226.481764 
L 370.902246 268.968357 
L 373.024171 212.056342 
L 375.146096 197.157116 
L 377.268021 224.895746 
L 379.389947 204.484385 
L 381.511872 222.133005 
L 383.633797 173.9908 
L 385.755722 143.517235 
L 387.877647 221.254356 
L 389.999572 228.675051 
L 392.121497 225.4652 
L 394.243422 245.31378 
L 396.365348 238.996401 
L 398.487273 224.564306 
L 398.487273 224.564306 
" style="fill:none;stroke:#ff0000;stroke-linecap:square;stroke-width:1.5;"/>
   </g>
   <g id="line2d_19">
    <path clip-path="url(#p5146770eac)" d="M 73.832727 185.848374 
L 75.954652 159.275374 
L 78.076578 171.589202 
L 80.198503 186.814519 
L 82.320428 190.059212 
L 84.442353 270.583142 
L 86.564278 278.90897 
L 88.686203 293.841589 
L 90.808128 290.163697 
L 92.930053 282.247494 
L 95.051979 283.957757 
L 97.173904 286.071904 
L 99.295829 293.6281 
L 101.417754 288.449574 
L 103.539679 290.478236 
L 105.661604 254.030796 
L 107.783529 187.437808 
L 109.905455 137.818686 
L 112.02738 175.938655 
L 114.149305 184.296061 
L 116.27123 197.475988 
L 118.393155 160.208725 
L 120.51508 141.769308 
L 122.637005 205.914043 
L 124.75893 194.288795 
L 126.880856 250.830461 
L 129.002781 266.371533 
L 131.124706 275.648688 
L 133.246631 291.74945 
L 135.368556 175.469107 
L 137.490481 219.321469 
L 139.612406 211.552399 
L 141.734332 127.312965 
L 143.856257 137.089313 
L 145.978182 123.607791 
L 148.100107 176.167509 
L 150.222032 201.47235 
L 152.343957 252.120576 
L 154.465882 265.904932 
L 156.587807 256.73603 
L 158.709733 234.77464 
L 160.831658 261.787945 
L 162.953583 264.301296 
L 165.075508 265.755588 
L 167.197433 264.594748 
L 169.319358 253.948201 
L 171.441283 236.989749 
L 173.563209 237.424368 
L 175.685134 245.035321 
L 177.807059 240.21755 
L 179.928984 245.627489 
L 182.050909 259.98649 
L 184.172834 263.330533 
L 186.294759 287.474671 
L 188.416684 285.458921 
L 190.53861 231.235502 
L 192.660535 274.607385 
L 194.78246 286.815657 
L 196.904385 239.24689 
L 199.02631 225.823815 
L 201.148235 285.637686 
L 203.27016 284.895793 
L 205.392086 240.304818 
L 207.514011 241.875489 
L 209.635936 239.450122 
L 211.757861 221.980068 
L 213.879786 200.727457 
L 216.001711 181.153648 
L 218.123636 159.946206 
L 220.245561 203.793836 
L 222.367487 226.355907 
L 224.489412 227.676673 
L 226.611337 245.741833 
L 228.733262 274.777976 
L 230.855187 272.559305 
L 232.977112 253.446305 
L 235.099037 251.983255 
L 237.220963 250.101983 
L 239.342888 261.13445 
L 241.464813 270.367484 
L 243.586738 281.426562 
L 245.708663 257.06091 
L 247.830588 207.240902 
L 249.952513 217.902737 
L 252.074439 223.623624 
L 254.196364 231.939126 
L 256.318289 204.582231 
L 258.440214 205.839378 
L 260.562139 228.089076 
L 262.684064 249.014817 
L 264.805989 244.723066 
L 266.927914 255.182833 
L 269.04984 270.627172 
L 271.171765 276.734411 
L 273.29369 295.130213 
L 275.415615 292.537351 
L 277.53754 293.40725 
L 279.659465 294.03216 
L 281.78139 282.218242 
L 283.903316 225.564645 
L 286.025241 219.815685 
L 288.147166 219.725158 
L 290.269091 218.200044 
L 292.391016 250.161033 
L 294.512941 209.439164 
L 296.634866 208.553413 
L 298.756791 249.284768 
L 300.878717 225.961168 
L 303.000642 227.612319 
L 305.122567 250.39236 
L 307.244492 248.226183 
L 309.366417 256.045214 
L 313.610267 284.251434 
L 315.732193 282.566833 
L 317.854118 260.006268 
L 319.976043 250.296379 
L 322.097968 228.348827 
L 324.219893 274.170139 
L 326.341818 227.526365 
L 328.463743 279.00013 
L 330.585668 188.344132 
L 332.707594 186.281746 
L 334.829519 226.633377 
L 336.951444 251.264505 
L 339.073369 251.617777 
L 341.195294 242.822837 
L 343.317219 242.502496 
L 345.439144 233.982263 
L 347.56107 213.95659 
L 349.682995 214.622017 
L 351.80492 142.681023 
L 353.926845 189.215193 
L 356.04877 195.844819 
L 358.170695 220.237395 
L 360.29262 208.388927 
L 362.414545 184.714462 
L 364.536471 167.562843 
L 366.658396 223.722823 
L 368.780321 258.190408 
L 370.902246 280.10253 
L 373.024171 250.662166 
L 375.146096 236.0323 
L 377.268021 262.482821 
L 379.389947 262.361352 
L 381.511872 274.247346 
L 383.633797 220.915708 
L 385.755722 263.565919 
L 387.877647 284.725037 
L 389.999572 280.192183 
L 392.121497 266.885948 
L 394.243422 260.452004 
L 396.365348 270.476257 
L 398.487273 261.857674 
L 398.487273 261.857674 
" style="fill:none;stroke:#0000ff;stroke-linecap:square;stroke-width:1.5;"/>
   </g>
   <g id="line2d_20">
    <path clip-path="url(#p5146770eac)" d="M 73.832727 185.779162 
L 75.954652 159.086014 
L 78.076578 176.43656 
L 80.198503 185.779162 
L 82.320428 189.849867 
L 84.442353 270.529907 
L 86.564278 278.849271 
L 88.686203 295.488 
L 90.808128 291.128119 
L 92.930053 280.806769 
L 95.051979 280.005974 
L 97.173904 280.005974 
L 99.295829 295.488 
L 103.539679 295.488 
L 105.661604 247.507067 
L 109.905455 137.998427 
L 112.02738 174.10091 
L 114.149305 184.311039 
L 116.27123 197.257215 
L 118.393155 159.84232 
L 120.51508 138.710244 
L 122.637005 207.356123 
L 124.75893 199.081247 
L 126.880856 252.734475 
L 129.002781 277.269927 
L 131.124706 277.269927 
L 133.246631 295.488 
L 135.368556 193.586908 
L 137.490481 213.228616 
L 139.612406 213.228616 
L 141.734332 120.825835 
L 143.856257 140.71223 
L 145.978182 123.762081 
L 148.100107 176.258606 
L 150.222032 201.973005 
L 152.343957 252.156123 
L 154.465882 268.527921 
L 156.587807 254.469529 
L 158.709733 235.072508 
L 160.831658 259.986113 
L 162.953583 263.901108 
L 167.197433 263.901108 
L 169.319358 247.751754 
L 171.441283 236.095746 
L 173.563209 236.095746 
L 175.685134 242.101704 
L 177.807059 237.474892 
L 182.050909 257.984127 
L 184.172834 259.45225 
L 186.294759 285.077672 
L 188.416684 285.077672 
L 190.53861 235.383929 
L 192.660535 274.311436 
L 194.78246 286.857215 
L 196.904385 232.314216 
L 199.02631 209.447086 
L 201.148235 288.503293 
L 203.27016 279.961486 
L 205.392086 255.225835 
L 207.514011 249.620274 
L 209.635936 234.538645 
L 211.757861 218.033382 
L 213.879786 210.381347 
L 216.001711 188.715408 
L 218.123636 163.023253 
L 220.245561 205.865756 
L 222.367487 226.931098 
L 224.489412 227.754137 
L 226.611337 246.684028 
L 228.733262 284.143412 
L 230.855187 280.406371 
L 232.977112 254.425041 
L 235.099037 253.446292 
L 237.220963 244.014713 
L 239.342888 256.827424 
L 241.464813 271.99803 
L 243.586738 274.533879 
L 245.708663 263.923353 
L 247.830588 209.869728 
L 249.952513 215.808953 
L 252.074439 232.625637 
L 254.196364 230.356719 
L 256.318289 201.750562 
L 258.440214 201.750562 
L 260.562139 228.399221 
L 262.684064 251.62226 
L 264.805989 244.72653 
L 266.927914 255.136858 
L 269.04984 270.218487 
L 271.171765 276.802796 
L 273.29369 295.488 
L 279.659465 295.488 
L 281.78139 273.955527 
L 283.903316 228.399221 
L 286.025241 221.54798 
L 288.147166 221.147583 
L 290.269091 217.499519 
L 292.391016 249.931694 
L 294.512941 209.891972 
L 296.634866 209.891972 
L 298.756791 249.931694 
L 300.878717 227.153541 
L 303.000642 227.153541 
L 305.122567 249.931694 
L 307.244492 247.573799 
L 309.366417 256.071118 
L 311.488342 270.085021 
L 313.610267 280.76228 
L 315.732193 276.224445 
L 317.854118 256.071118 
L 319.976043 252.178367 
L 322.097968 224.417494 
L 324.219893 286.612528 
L 326.341818 229.155527 
L 328.463743 263.656421 
L 330.585668 196.723353 
L 332.707594 193.987305 
L 334.829519 227.82087 
L 336.951444 252.289589 
L 339.073369 252.289589 
L 341.195294 241.434375 
L 343.317219 234.360691 
L 345.439144 241.122955 
L 347.56107 218.611734 
L 349.682995 214.474296 
L 351.80492 146.006371 
L 353.926845 205.710046 
L 356.04877 191.918586 
L 358.170695 220.168834 
L 360.29262 208.557315 
L 362.414545 184.755925 
L 364.536471 168.161684 
L 366.658396 217.188099 
L 368.780321 259.76367 
L 370.902246 272.754336 
L 373.024171 250.554534 
L 375.146096 235.205974 
L 377.268021 262.432985 
L 379.389947 262.432985 
L 381.511872 274.133482 
L 383.633797 220.480254 
L 385.755722 263.456222 
L 387.877647 295.488 
L 389.999572 295.488 
L 392.121497 261.854634 
L 394.243422 254.291575 
L 396.365348 273.065756 
L 398.487273 261.854634 
L 398.487273 261.854634 
" style="fill:none;stroke:#008000;stroke-linecap:square;stroke-width:1.5;"/>
   </g>
   <g id="patch_3">
    <path d="M 57.6 307.584 
L 57.6 41.472 
" style="fill:none;stroke:#000000;stroke-linecap:square;stroke-linejoin:miter;stroke-width:0.8;"/>
   </g>
   <g id="patch_4">
    <path d="M 414.72 307.584 
L 414.72 41.472 
" style="fill:none;stroke:#000000;stroke-linecap:square;stroke-linejoin:miter;stroke-width:0.8;"/>
   </g>
   <g id="patch_5">
    <path d="M 57.6 307.584 
L 414.72 307.584 
" style="fill:none;stroke:#000000;stroke-linecap:square;stroke-linejoin:miter;stroke-width:0.8;"/>
   </g>
   <g id="patch_6">
    <path d="M 57.6 41.472 
L 414.72 41.472 
" style="fill:none;stroke:#000000;stroke-linecap:square;stroke-linejoin:miter;stroke-width:0.8;"/>
   </g>
   <g id="text_19">
    <!-- Compare quarterly errors for Generated data with -->
    <defs>
     <path d="M 64.40625 67.28125 
L 64.40625 56.890625 
Q 59.421875 61.53125 53.78125 63.8125 
Q 48.140625 66.109375 41.796875 66.109375 
Q 29.296875 66.109375 22.65625 58.46875 
Q 16.015625 50.828125 16.015625 36.375 
Q 16.015625 21.96875 22.65625 14.328125 
Q 29.296875 6.6875 41.796875 6.6875 
Q 48.140625 6.6875 53.78125 8.984375 
Q 59.421875 11.28125 64.40625 15.921875 
L 64.40625 5.609375 
Q 59.234375 2.09375 53.4375 0.328125 
Q 47.65625 -1.421875 41.21875 -1.421875 
Q 24.65625 -1.421875 15.125 8.703125 
Q 5.609375 18.84375 5.609375 36.375 
Q 5.609375 53.953125 15.125 64.078125 
Q 24.65625 74.21875 41.21875 74.21875 
Q 47.75 74.21875 53.53125 72.484375 
Q 59.328125 70.75 64.40625 67.28125 
z
" id="DejaVuSans-67"/>
     <path d="M 52 44.1875 
Q 55.375 50.25 60.0625 53.125 
Q 64.75 56 71.09375 56 
Q 79.640625 56 84.28125 50.015625 
Q 88.921875 44.046875 88.921875 33.015625 
L 88.921875 0 
L 79.890625 0 
L 79.890625 32.71875 
Q 79.890625 40.578125 77.09375 44.375 
Q 74.3125 48.1875 68.609375 48.1875 
Q 61.625 48.1875 57.5625 43.546875 
Q 53.515625 38.921875 53.515625 30.90625 
L 53.515625 0 
L 44.484375 0 
L 44.484375 32.71875 
Q 44.484375 40.625 41.703125 44.40625 
Q 38.921875 48.1875 33.109375 48.1875 
Q 26.21875 48.1875 22.15625 43.53125 
Q 18.109375 38.875 18.109375 30.90625 
L 18.109375 0 
L 9.078125 0 
L 9.078125 54.6875 
L 18.109375 54.6875 
L 18.109375 46.1875 
Q 21.1875 51.21875 25.484375 53.609375 
Q 29.78125 56 35.6875 56 
Q 41.65625 56 45.828125 52.96875 
Q 50 49.953125 52 44.1875 
z
" id="DejaVuSans-109"/>
     <path d="M 18.109375 8.203125 
L 18.109375 -20.796875 
L 9.078125 -20.796875 
L 9.078125 54.6875 
L 18.109375 54.6875 
L 18.109375 46.390625 
Q 20.953125 51.265625 25.265625 53.625 
Q 29.59375 56 35.59375 56 
Q 45.5625 56 51.78125 48.09375 
Q 58.015625 40.1875 58.015625 27.296875 
Q 58.015625 14.40625 51.78125 6.484375 
Q 45.5625 -1.421875 35.59375 -1.421875 
Q 29.59375 -1.421875 25.265625 0.953125 
Q 20.953125 3.328125 18.109375 8.203125 
z
M 48.6875 27.296875 
Q 48.6875 37.203125 44.609375 42.84375 
Q 40.53125 48.484375 33.40625 48.484375 
Q 26.265625 48.484375 22.1875 42.84375 
Q 18.109375 37.203125 18.109375 27.296875 
Q 18.109375 17.390625 22.1875 11.75 
Q 26.265625 6.109375 33.40625 6.109375 
Q 40.53125 6.109375 44.609375 11.75 
Q 48.6875 17.390625 48.6875 27.296875 
z
" id="DejaVuSans-112"/>
     <path d="M 9.421875 75.984375 
L 18.40625 75.984375 
L 18.40625 0 
L 9.421875 0 
z
" id="DejaVuSans-108"/>
     <path d="M 32.171875 -5.078125 
Q 28.375 -14.84375 24.75 -17.8125 
Q 21.140625 -20.796875 15.09375 -20.796875 
L 7.90625 -20.796875 
L 7.90625 -13.28125 
L 13.1875 -13.28125 
Q 16.890625 -13.28125 18.9375 -11.515625 
Q 21 -9.765625 23.484375 -3.21875 
L 25.09375 0.875 
L 2.984375 54.6875 
L 12.5 54.6875 
L 29.59375 11.921875 
L 46.6875 54.6875 
L 56.203125 54.6875 
z
" id="DejaVuSans-121"/>
     <path d="M 44.28125 53.078125 
L 44.28125 44.578125 
Q 40.484375 46.53125 36.375 47.5 
Q 32.28125 48.484375 27.875 48.484375 
Q 21.1875 48.484375 17.84375 46.4375 
Q 14.5 44.390625 14.5 40.28125 
Q 14.5 37.15625 16.890625 35.375 
Q 19.28125 33.59375 26.515625 31.984375 
L 29.59375 31.296875 
Q 39.15625 29.25 43.1875 25.515625 
Q 47.21875 21.78125 47.21875 15.09375 
Q 47.21875 7.46875 41.1875 3.015625 
Q 35.15625 -1.421875 24.609375 -1.421875 
Q 20.21875 -1.421875 15.453125 -0.5625 
Q 10.6875 0.296875 5.421875 2 
L 5.421875 11.28125 
Q 10.40625 8.6875 15.234375 7.390625 
Q 20.0625 6.109375 24.8125 6.109375 
Q 31.15625 6.109375 34.5625 8.28125 
Q 37.984375 10.453125 37.984375 14.40625 
Q 37.984375 18.0625 35.515625 20.015625 
Q 33.0625 21.96875 24.703125 23.78125 
L 21.578125 24.515625 
Q 13.234375 26.265625 9.515625 29.90625 
Q 5.8125 33.546875 5.8125 39.890625 
Q 5.8125 47.609375 11.28125 51.796875 
Q 16.75 56 26.8125 56 
Q 31.78125 56 36.171875 55.265625 
Q 40.578125 54.546875 44.28125 53.078125 
z
" id="DejaVuSans-115"/>
     <path d="M 37.109375 75.984375 
L 37.109375 68.5 
L 28.515625 68.5 
Q 23.6875 68.5 21.796875 66.546875 
Q 19.921875 64.59375 19.921875 59.515625 
L 19.921875 54.6875 
L 34.71875 54.6875 
L 34.71875 47.703125 
L 19.921875 47.703125 
L 19.921875 0 
L 10.890625 0 
L 10.890625 47.703125 
L 2.296875 47.703125 
L 2.296875 54.6875 
L 10.890625 54.6875 
L 10.890625 58.5 
Q 10.890625 67.625 15.140625 71.796875 
Q 19.390625 75.984375 28.609375 75.984375 
z
" id="DejaVuSans-102"/>
     <path d="M 59.515625 10.40625 
L 59.515625 29.984375 
L 43.40625 29.984375 
L 43.40625 38.09375 
L 69.28125 38.09375 
L 69.28125 6.78125 
Q 63.578125 2.734375 56.6875 0.65625 
Q 49.8125 -1.421875 42 -1.421875 
Q 24.90625 -1.421875 15.25 8.5625 
Q 5.609375 18.5625 5.609375 36.375 
Q 5.609375 54.25 15.25 64.234375 
Q 24.90625 74.21875 42 74.21875 
Q 49.125 74.21875 55.546875 72.453125 
Q 61.96875 70.703125 67.390625 67.28125 
L 67.390625 56.78125 
Q 61.921875 61.421875 55.765625 63.765625 
Q 49.609375 66.109375 42.828125 66.109375 
Q 29.4375 66.109375 22.71875 58.640625 
Q 16.015625 51.171875 16.015625 36.375 
Q 16.015625 21.625 22.71875 14.15625 
Q 29.4375 6.6875 42.828125 6.6875 
Q 48.046875 6.6875 52.140625 7.59375 
Q 56.25 8.5 59.515625 10.40625 
z
" id="DejaVuSans-71"/>
     <path d="M 45.40625 46.390625 
L 45.40625 75.984375 
L 54.390625 75.984375 
L 54.390625 0 
L 45.40625 0 
L 45.40625 8.203125 
Q 42.578125 3.328125 38.25 0.953125 
Q 33.9375 -1.421875 27.875 -1.421875 
Q 17.96875 -1.421875 11.734375 6.484375 
Q 5.515625 14.40625 5.515625 27.296875 
Q 5.515625 40.1875 11.734375 48.09375 
Q 17.96875 56 27.875 56 
Q 33.9375 56 38.25 53.625 
Q 42.578125 51.265625 45.40625 46.390625 
z
M 14.796875 27.296875 
Q 14.796875 17.390625 18.875 11.75 
Q 22.953125 6.109375 30.078125 6.109375 
Q 37.203125 6.109375 41.296875 11.75 
Q 45.40625 17.390625 45.40625 27.296875 
Q 45.40625 37.203125 41.296875 42.84375 
Q 37.203125 48.484375 30.078125 48.484375 
Q 22.953125 48.484375 18.875 42.84375 
Q 14.796875 37.203125 14.796875 27.296875 
z
" id="DejaVuSans-100"/>
     <path d="M 4.203125 54.6875 
L 13.1875 54.6875 
L 24.421875 12.015625 
L 35.59375 54.6875 
L 46.1875 54.6875 
L 57.421875 12.015625 
L 68.609375 54.6875 
L 77.59375 54.6875 
L 63.28125 0 
L 52.6875 0 
L 40.921875 44.828125 
L 29.109375 0 
L 18.5 0 
z
" id="DejaVuSans-119"/>
     <path d="M 9.421875 54.6875 
L 18.40625 54.6875 
L 18.40625 0 
L 9.421875 0 
z
M 9.421875 75.984375 
L 18.40625 75.984375 
L 18.40625 64.59375 
L 9.421875 64.59375 
z
" id="DejaVuSans-105"/>
     <path d="M 54.890625 33.015625 
L 54.890625 0 
L 45.90625 0 
L 45.90625 32.71875 
Q 45.90625 40.484375 42.875 44.328125 
Q 39.84375 48.1875 33.796875 48.1875 
Q 26.515625 48.1875 22.3125 43.546875 
Q 18.109375 38.921875 18.109375 30.90625 
L 18.109375 0 
L 9.078125 0 
L 9.078125 75.984375 
L 18.109375 75.984375 
L 18.109375 46.1875 
Q 21.34375 51.125 25.703125 53.5625 
Q 30.078125 56 35.796875 56 
Q 45.21875 56 50.046875 50.171875 
Q 54.890625 44.34375 54.890625 33.015625 
z
" id="DejaVuSans-104"/>
    </defs>
    <g transform="translate(86.046562 8.59725)scale(0.12 -0.12)">
     <use xlink:href="#DejaVuSans-67"/>
     <use x="69.824219" xlink:href="#DejaVuSans-111"/>
     <use x="131.005859" xlink:href="#DejaVuSans-109"/>
     <use x="228.417969" xlink:href="#DejaVuSans-112"/>
     <use x="291.894531" xlink:href="#DejaVuSans-97"/>
     <use x="353.173828" xlink:href="#DejaVuSans-114"/>
     <use x="392.037109" xlink:href="#DejaVuSans-101"/>
     <use x="453.560547" xlink:href="#DejaVuSans-32"/>
     <use x="485.347656" xlink:href="#DejaVuSans-113"/>
     <use x="548.824219" xlink:href="#DejaVuSans-117"/>
     <use x="612.203125" xlink:href="#DejaVuSans-97"/>
     <use x="673.482422" xlink:href="#DejaVuSans-114"/>
     <use x="714.595703" xlink:href="#DejaVuSans-116"/>
     <use x="753.804688" xlink:href="#DejaVuSans-101"/>
     <use x="815.328125" xlink:href="#DejaVuSans-114"/>
     <use x="856.441406" xlink:href="#DejaVuSans-108"/>
     <use x="884.224609" xlink:href="#DejaVuSans-121"/>
     <use x="943.404297" xlink:href="#DejaVuSans-32"/>
     <use x="975.191406" xlink:href="#DejaVuSans-101"/>
     <use x="1036.714844" xlink:href="#DejaVuSans-114"/>
     <use x="1076.078125" xlink:href="#DejaVuSans-114"/>
     <use x="1114.941406" xlink:href="#DejaVuSans-111"/>
     <use x="1176.123047" xlink:href="#DejaVuSans-114"/>
     <use x="1217.236328" xlink:href="#DejaVuSans-115"/>
     <use x="1269.335938" xlink:href="#DejaVuSans-32"/>
     <use x="1301.123047" xlink:href="#DejaVuSans-102"/>
     <use x="1336.328125" xlink:href="#DejaVuSans-111"/>
     <use x="1397.509766" xlink:href="#DejaVuSans-114"/>
     <use x="1438.623047" xlink:href="#DejaVuSans-32"/>
     <use x="1470.410156" xlink:href="#DejaVuSans-71"/>
     <use x="1547.900391" xlink:href="#DejaVuSans-101"/>
     <use x="1609.423828" xlink:href="#DejaVuSans-110"/>
     <use x="1672.802734" xlink:href="#DejaVuSans-101"/>
     <use x="1734.326172" xlink:href="#DejaVuSans-114"/>
     <use x="1775.439453" xlink:href="#DejaVuSans-97"/>
     <use x="1836.71875" xlink:href="#DejaVuSans-116"/>
     <use x="1875.927734" xlink:href="#DejaVuSans-101"/>
     <use x="1937.451172" xlink:href="#DejaVuSans-100"/>
     <use x="2000.927734" xlink:href="#DejaVuSans-32"/>
     <use x="2032.714844" xlink:href="#DejaVuSans-100"/>
     <use x="2096.191406" xlink:href="#DejaVuSans-97"/>
     <use x="2157.470703" xlink:href="#DejaVuSans-116"/>
     <use x="2196.679688" xlink:href="#DejaVuSans-97"/>
     <use x="2257.958984" xlink:href="#DejaVuSans-32"/>
     <use x="2289.746094" xlink:href="#DejaVuSans-119"/>
     <use x="2371.533203" xlink:href="#DejaVuSans-105"/>
     <use x="2399.316406" xlink:href="#DejaVuSans-116"/>
     <use x="2438.525391" xlink:href="#DejaVuSans-104"/>
    </g>
    <!-- Neural Networks with solver: lbfgs -->
    <defs>
     <path d="M 9.8125 72.90625 
L 23.09375 72.90625 
L 55.421875 11.921875 
L 55.421875 72.90625 
L 64.984375 72.90625 
L 64.984375 0 
L 51.703125 0 
L 19.390625 60.984375 
L 19.390625 0 
L 9.8125 0 
z
" id="DejaVuSans-78"/>
     <path d="M 9.078125 75.984375 
L 18.109375 75.984375 
L 18.109375 31.109375 
L 44.921875 54.6875 
L 56.390625 54.6875 
L 27.390625 29.109375 
L 57.625 0 
L 45.90625 0 
L 18.109375 26.703125 
L 18.109375 0 
L 9.078125 0 
z
" id="DejaVuSans-107"/>
     <path d="M 2.984375 54.6875 
L 12.5 54.6875 
L 29.59375 8.796875 
L 46.6875 54.6875 
L 56.203125 54.6875 
L 35.6875 0 
L 23.484375 0 
z
" id="DejaVuSans-118"/>
     <path d="M 11.71875 12.40625 
L 22.015625 12.40625 
L 22.015625 0 
L 11.71875 0 
z
M 11.71875 51.703125 
L 22.015625 51.703125 
L 22.015625 39.3125 
L 11.71875 39.3125 
z
" id="DejaVuSans-58"/>
     <path d="M 48.6875 27.296875 
Q 48.6875 37.203125 44.609375 42.84375 
Q 40.53125 48.484375 33.40625 48.484375 
Q 26.265625 48.484375 22.1875 42.84375 
Q 18.109375 37.203125 18.109375 27.296875 
Q 18.109375 17.390625 22.1875 11.75 
Q 26.265625 6.109375 33.40625 6.109375 
Q 40.53125 6.109375 44.609375 11.75 
Q 48.6875 17.390625 48.6875 27.296875 
z
M 18.109375 46.390625 
Q 20.953125 51.265625 25.265625 53.625 
Q 29.59375 56 35.59375 56 
Q 45.5625 56 51.78125 48.09375 
Q 58.015625 40.1875 58.015625 27.296875 
Q 58.015625 14.40625 51.78125 6.484375 
Q 45.5625 -1.421875 35.59375 -1.421875 
Q 29.59375 -1.421875 25.265625 0.953125 
Q 20.953125 3.328125 18.109375 8.203125 
L 18.109375 0 
L 9.078125 0 
L 9.078125 75.984375 
L 18.109375 75.984375 
z
" id="DejaVuSans-98"/>
     <path d="M 45.40625 27.984375 
Q 45.40625 37.75 41.375 43.109375 
Q 37.359375 48.484375 30.078125 48.484375 
Q 22.859375 48.484375 18.828125 43.109375 
Q 14.796875 37.75 14.796875 27.984375 
Q 14.796875 18.265625 18.828125 12.890625 
Q 22.859375 7.515625 30.078125 7.515625 
Q 37.359375 7.515625 41.375 12.890625 
Q 45.40625 18.265625 45.40625 27.984375 
z
M 54.390625 6.78125 
Q 54.390625 -7.171875 48.1875 -13.984375 
Q 42 -20.796875 29.203125 -20.796875 
Q 24.46875 -20.796875 20.265625 -20.09375 
Q 16.0625 -19.390625 12.109375 -17.921875 
L 12.109375 -9.1875 
Q 16.0625 -11.328125 19.921875 -12.34375 
Q 23.78125 -13.375 27.78125 -13.375 
Q 36.625 -13.375 41.015625 -8.765625 
Q 45.40625 -4.15625 45.40625 5.171875 
L 45.40625 9.625 
Q 42.625 4.78125 38.28125 2.390625 
Q 33.9375 0 27.875 0 
Q 17.828125 0 11.671875 7.65625 
Q 5.515625 15.328125 5.515625 27.984375 
Q 5.515625 40.671875 11.671875 48.328125 
Q 17.828125 56 27.875 56 
Q 33.9375 56 38.28125 53.609375 
Q 42.625 51.21875 45.40625 46.390625 
L 45.40625 54.6875 
L 54.390625 54.6875 
z
" id="DejaVuSans-103"/>
    </defs>
    <g transform="translate(133.220625 22.034625)scale(0.12 -0.12)">
     <use xlink:href="#DejaVuSans-78"/>
     <use x="74.804688" xlink:href="#DejaVuSans-101"/>
     <use x="136.328125" xlink:href="#DejaVuSans-117"/>
     <use x="199.707031" xlink:href="#DejaVuSans-114"/>
     <use x="240.820312" xlink:href="#DejaVuSans-97"/>
     <use x="302.099609" xlink:href="#DejaVuSans-108"/>
     <use x="329.882812" xlink:href="#DejaVuSans-32"/>
     <use x="361.669922" xlink:href="#DejaVuSans-78"/>
     <use x="436.474609" xlink:href="#DejaVuSans-101"/>
     <use x="497.998047" xlink:href="#DejaVuSans-116"/>
     <use x="537.207031" xlink:href="#DejaVuSans-119"/>
     <use x="618.994141" xlink:href="#DejaVuSans-111"/>
     <use x="680.175781" xlink:href="#DejaVuSans-114"/>
     <use x="721.289062" xlink:href="#DejaVuSans-107"/>
     <use x="779.199219" xlink:href="#DejaVuSans-115"/>
     <use x="831.298828" xlink:href="#DejaVuSans-32"/>
     <use x="863.085938" xlink:href="#DejaVuSans-119"/>
     <use x="944.873047" xlink:href="#DejaVuSans-105"/>
     <use x="972.65625" xlink:href="#DejaVuSans-116"/>
     <use x="1011.865234" xlink:href="#DejaVuSans-104"/>
     <use x="1075.244141" xlink:href="#DejaVuSans-32"/>
     <use x="1107.03125" xlink:href="#DejaVuSans-115"/>
     <use x="1159.130859" xlink:href="#DejaVuSans-111"/>
     <use x="1220.3125" xlink:href="#DejaVuSans-108"/>
     <use x="1248.095703" xlink:href="#DejaVuSans-118"/>
     <use x="1307.275391" xlink:href="#DejaVuSans-101"/>
     <use x="1368.798828" xlink:href="#DejaVuSans-114"/>
     <use x="1408.162109" xlink:href="#DejaVuSans-58"/>
     <use x="1441.853516" xlink:href="#DejaVuSans-32"/>
     <use x="1473.640625" xlink:href="#DejaVuSans-108"/>
     <use x="1501.423828" xlink:href="#DejaVuSans-98"/>
     <use x="1564.900391" xlink:href="#DejaVuSans-102"/>
     <use x="1600.105469" xlink:href="#DejaVuSans-103"/>
     <use x="1663.582031" xlink:href="#DejaVuSans-115"/>
    </g>
    <!--  activation function: logistic and number nodes: (100, 100) -->
    <defs>
     <path d="M 48.78125 52.59375 
L 48.78125 44.1875 
Q 44.96875 46.296875 41.140625 47.34375 
Q 37.3125 48.390625 33.40625 48.390625 
Q 24.65625 48.390625 19.8125 42.84375 
Q 14.984375 37.3125 14.984375 27.296875 
Q 14.984375 17.28125 19.8125 11.734375 
Q 24.65625 6.203125 33.40625 6.203125 
Q 37.3125 6.203125 41.140625 7.25 
Q 44.96875 8.296875 48.78125 10.40625 
L 48.78125 2.09375 
Q 45.015625 0.34375 40.984375 -0.53125 
Q 36.96875 -1.421875 32.421875 -1.421875 
Q 20.0625 -1.421875 12.78125 6.34375 
Q 5.515625 14.109375 5.515625 27.296875 
Q 5.515625 40.671875 12.859375 48.328125 
Q 20.21875 56 33.015625 56 
Q 37.15625 56 41.109375 55.140625 
Q 45.0625 54.296875 48.78125 52.59375 
z
" id="DejaVuSans-99"/>
     <path d="M 31 75.875 
Q 24.46875 64.65625 21.28125 53.65625 
Q 18.109375 42.671875 18.109375 31.390625 
Q 18.109375 20.125 21.3125 9.0625 
Q 24.515625 -2 31 -13.1875 
L 23.1875 -13.1875 
Q 15.875 -1.703125 12.234375 9.375 
Q 8.59375 20.453125 8.59375 31.390625 
Q 8.59375 42.28125 12.203125 53.3125 
Q 15.828125 64.359375 23.1875 75.875 
z
" id="DejaVuSans-40"/>
     <path d="M 11.71875 12.40625 
L 22.015625 12.40625 
L 22.015625 4 
L 14.015625 -11.625 
L 7.71875 -11.625 
L 11.71875 4 
z
" id="DejaVuSans-44"/>
     <path d="M 8.015625 75.875 
L 15.828125 75.875 
Q 23.140625 64.359375 26.78125 53.3125 
Q 30.421875 42.28125 30.421875 31.390625 
Q 30.421875 20.453125 26.78125 9.375 
Q 23.140625 -1.703125 15.828125 -13.1875 
L 8.015625 -13.1875 
Q 14.5 -2 17.703125 9.0625 
Q 20.90625 20.125 20.90625 31.390625 
Q 20.90625 42.671875 17.703125 53.65625 
Q 14.5 64.65625 8.015625 75.875 
z
" id="DejaVuSans-41"/>
    </defs>
    <g transform="translate(59.080312 35.472)scale(0.12 -0.12)">
     <use xlink:href="#DejaVuSans-32"/>
     <use x="31.787109" xlink:href="#DejaVuSans-97"/>
     <use x="93.066406" xlink:href="#DejaVuSans-99"/>
     <use x="148.046875" xlink:href="#DejaVuSans-116"/>
     <use x="187.255859" xlink:href="#DejaVuSans-105"/>
     <use x="215.039062" xlink:href="#DejaVuSans-118"/>
     <use x="274.21875" xlink:href="#DejaVuSans-97"/>
     <use x="335.498047" xlink:href="#DejaVuSans-116"/>
     <use x="374.707031" xlink:href="#DejaVuSans-105"/>
     <use x="402.490234" xlink:href="#DejaVuSans-111"/>
     <use x="463.671875" xlink:href="#DejaVuSans-110"/>
     <use x="527.050781" xlink:href="#DejaVuSans-32"/>
     <use x="558.837891" xlink:href="#DejaVuSans-102"/>
     <use x="594.042969" xlink:href="#DejaVuSans-117"/>
     <use x="657.421875" xlink:href="#DejaVuSans-110"/>
     <use x="720.800781" xlink:href="#DejaVuSans-99"/>
     <use x="775.78125" xlink:href="#DejaVuSans-116"/>
     <use x="814.990234" xlink:href="#DejaVuSans-105"/>
     <use x="842.773438" xlink:href="#DejaVuSans-111"/>
     <use x="903.955078" xlink:href="#DejaVuSans-110"/>
     <use x="967.333984" xlink:href="#DejaVuSans-58"/>
     <use x="1001.025391" xlink:href="#DejaVuSans-32"/>
     <use x="1032.8125" xlink:href="#DejaVuSans-108"/>
     <use x="1060.595703" xlink:href="#DejaVuSans-111"/>
     <use x="1121.777344" xlink:href="#DejaVuSans-103"/>
     <use x="1185.253906" xlink:href="#DejaVuSans-105"/>
     <use x="1213.037109" xlink:href="#DejaVuSans-115"/>
     <use x="1265.136719" xlink:href="#DejaVuSans-116"/>
     <use x="1304.345703" xlink:href="#DejaVuSans-105"/>
     <use x="1332.128906" xlink:href="#DejaVuSans-99"/>
     <use x="1387.109375" xlink:href="#DejaVuSans-32"/>
     <use x="1418.896484" xlink:href="#DejaVuSans-97"/>
     <use x="1480.175781" xlink:href="#DejaVuSans-110"/>
     <use x="1543.554688" xlink:href="#DejaVuSans-100"/>
     <use x="1607.03125" xlink:href="#DejaVuSans-32"/>
     <use x="1638.818359" xlink:href="#DejaVuSans-110"/>
     <use x="1702.197266" xlink:href="#DejaVuSans-117"/>
     <use x="1765.576172" xlink:href="#DejaVuSans-109"/>
     <use x="1862.988281" xlink:href="#DejaVuSans-98"/>
     <use x="1926.464844" xlink:href="#DejaVuSans-101"/>
     <use x="1987.988281" xlink:href="#DejaVuSans-114"/>
     <use x="2029.101562" xlink:href="#DejaVuSans-32"/>
     <use x="2060.888672" xlink:href="#DejaVuSans-110"/>
     <use x="2124.267578" xlink:href="#DejaVuSans-111"/>
     <use x="2185.449219" xlink:href="#DejaVuSans-100"/>
     <use x="2248.925781" xlink:href="#DejaVuSans-101"/>
     <use x="2310.449219" xlink:href="#DejaVuSans-115"/>
     <use x="2362.548828" xlink:href="#DejaVuSans-58"/>
     <use x="2396.240234" xlink:href="#DejaVuSans-32"/>
     <use x="2428.027344" xlink:href="#DejaVuSans-40"/>
     <use x="2467.041016" xlink:href="#DejaVuSans-49"/>
     <use x="2530.664062" xlink:href="#DejaVuSans-48"/>
     <use x="2594.287109" xlink:href="#DejaVuSans-48"/>
     <use x="2657.910156" xlink:href="#DejaVuSans-44"/>
     <use x="2689.697266" xlink:href="#DejaVuSans-32"/>
     <use x="2721.484375" xlink:href="#DejaVuSans-49"/>
     <use x="2785.107422" xlink:href="#DejaVuSans-48"/>
     <use x="2848.730469" xlink:href="#DejaVuSans-48"/>
     <use x="2912.353516" xlink:href="#DejaVuSans-41"/>
    </g>
   </g>
   <g id="legend_1">
    <g id="patch_7">
     <path d="M 64.6 93.506375 
L 228.721875 93.506375 
Q 230.721875 93.506375 230.721875 91.506375 
L 230.721875 48.472 
Q 230.721875 46.472 228.721875 46.472 
L 64.6 46.472 
Q 62.6 46.472 62.6 48.472 
L 62.6 91.506375 
Q 62.6 93.506375 64.6 93.506375 
z
" style="fill:#ffffff;opacity:0.8;stroke:#cccccc;stroke-linejoin:miter;"/>
    </g>
    <g id="line2d_21">
     <path d="M 66.6 54.570438 
L 86.6 54.570438 
" style="fill:none;stroke:#ff0000;stroke-linecap:square;stroke-width:1.5;"/>
    </g>
    <g id="line2d_22"/>
    <g id="text_20">
     <!-- Guessed Revenue -->
     <g transform="translate(94.6 58.070438)scale(0.1 -0.1)">
      <use xlink:href="#DejaVuSans-71"/>
      <use x="77.490234" xlink:href="#DejaVuSans-117"/>
      <use x="140.869141" xlink:href="#DejaVuSans-101"/>
      <use x="202.392578" xlink:href="#DejaVuSans-115"/>
      <use x="254.492188" xlink:href="#DejaVuSans-115"/>
      <use x="306.591797" xlink:href="#DejaVuSans-101"/>
      <use x="368.115234" xlink:href="#DejaVuSans-100"/>
      <use x="431.591797" xlink:href="#DejaVuSans-32"/>
      <use x="463.378906" xlink:href="#DejaVuSans-82"/>
      <use x="528.361328" xlink:href="#DejaVuSans-101"/>
      <use x="589.884766" xlink:href="#DejaVuSans-118"/>
      <use x="649.064453" xlink:href="#DejaVuSans-101"/>
      <use x="710.587891" xlink:href="#DejaVuSans-110"/>
      <use x="773.966797" xlink:href="#DejaVuSans-117"/>
      <use x="837.345703" xlink:href="#DejaVuSans-101"/>
     </g>
    </g>
    <g id="line2d_23">
     <path d="M 66.6 69.248563 
L 86.6 69.248563 
" style="fill:none;stroke:#0000ff;stroke-linecap:square;stroke-width:1.5;"/>
    </g>
    <g id="line2d_24"/>
    <g id="text_21">
     <!-- Predicted Revenue -->
     <defs>
      <path d="M 19.671875 64.796875 
L 19.671875 37.40625 
L 32.078125 37.40625 
Q 38.96875 37.40625 42.71875 40.96875 
Q 46.484375 44.53125 46.484375 51.125 
Q 46.484375 57.671875 42.71875 61.234375 
Q 38.96875 64.796875 32.078125 64.796875 
z
M 9.8125 72.90625 
L 32.078125 72.90625 
Q 44.34375 72.90625 50.609375 67.359375 
Q 56.890625 61.8125 56.890625 51.125 
Q 56.890625 40.328125 50.609375 34.8125 
Q 44.34375 29.296875 32.078125 29.296875 
L 19.671875 29.296875 
L 19.671875 0 
L 9.8125 0 
z
" id="DejaVuSans-80"/>
     </defs>
     <g transform="translate(94.6 72.748563)scale(0.1 -0.1)">
      <use xlink:href="#DejaVuSans-80"/>
      <use x="58.552734" xlink:href="#DejaVuSans-114"/>
      <use x="97.416016" xlink:href="#DejaVuSans-101"/>
      <use x="158.939453" xlink:href="#DejaVuSans-100"/>
      <use x="222.416016" xlink:href="#DejaVuSans-105"/>
      <use x="250.199219" xlink:href="#DejaVuSans-99"/>
      <use x="305.179688" xlink:href="#DejaVuSans-116"/>
      <use x="344.388672" xlink:href="#DejaVuSans-101"/>
      <use x="405.912109" xlink:href="#DejaVuSans-100"/>
      <use x="469.388672" xlink:href="#DejaVuSans-32"/>
      <use x="501.175781" xlink:href="#DejaVuSans-82"/>
      <use x="566.158203" xlink:href="#DejaVuSans-101"/>
      <use x="627.681641" xlink:href="#DejaVuSans-118"/>
      <use x="686.861328" xlink:href="#DejaVuSans-101"/>
      <use x="748.384766" xlink:href="#DejaVuSans-110"/>
      <use x="811.763672" xlink:href="#DejaVuSans-117"/>
      <use x="875.142578" xlink:href="#DejaVuSans-101"/>
     </g>
    </g>
    <g id="line2d_25">
     <path d="M 66.6 83.926688 
L 86.6 83.926688 
" style="fill:none;stroke:#008000;stroke-linecap:square;stroke-width:1.5;"/>
    </g>
    <g id="line2d_26"/>
    <g id="text_22">
     <!-- Strictly Predicted Revenue -->
     <g transform="translate(94.6 87.426688)scale(0.1 -0.1)">
      <use xlink:href="#DejaVuSans-83"/>
      <use x="63.476562" xlink:href="#DejaVuSans-116"/>
      <use x="102.685547" xlink:href="#DejaVuSans-114"/>
      <use x="143.798828" xlink:href="#DejaVuSans-105"/>
      <use x="171.582031" xlink:href="#DejaVuSans-99"/>
      <use x="226.5625" xlink:href="#DejaVuSans-116"/>
      <use x="265.771484" xlink:href="#DejaVuSans-108"/>
      <use x="293.554688" xlink:href="#DejaVuSans-121"/>
      <use x="352.734375" xlink:href="#DejaVuSans-32"/>
      <use x="384.521484" xlink:href="#DejaVuSans-80"/>
      <use x="443.074219" xlink:href="#DejaVuSans-114"/>
      <use x="481.9375" xlink:href="#DejaVuSans-101"/>
      <use x="543.460938" xlink:href="#DejaVuSans-100"/>
      <use x="606.9375" xlink:href="#DejaVuSans-105"/>
      <use x="634.720703" xlink:href="#DejaVuSans-99"/>
      <use x="689.701172" xlink:href="#DejaVuSans-116"/>
      <use x="728.910156" xlink:href="#DejaVuSans-101"/>
      <use x="790.433594" xlink:href="#DejaVuSans-100"/>
      <use x="853.910156" xlink:href="#DejaVuSans-32"/>
      <use x="885.697266" xlink:href="#DejaVuSans-82"/>
      <use x="950.679688" xlink:href="#DejaVuSans-101"/>
      <use x="1012.203125" xlink:href="#DejaVuSans-118"/>
      <use x="1071.382812" xlink:href="#DejaVuSans-101"/>
      <use x="1132.90625" xlink:href="#DejaVuSans-110"/>
      <use x="1196.285156" xlink:href="#DejaVuSans-117"/>
      <use x="1259.664062" xlink:href="#DejaVuSans-101"/>
     </g>
    </g>
   </g>
  </g>
 </g>
 <defs>
  <clipPath id="p5146770eac">
   <rect height="266.112" width="357.12" x="57.6" y="41.472"/>
  </clipPath>
 </defs>
</svg>
