<?xml version="1.0" encoding="utf-8" standalone="no"?>
<!DOCTYPE svg PUBLIC "-//W3C//DTD SVG 1.1//EN"
  "http://www.w3.org/Graphics/SVG/1.1/DTD/svg11.dtd">
<!-- Created with matplotlib (https://matplotlib.org/) -->
<svg height="345.6pt" version="1.1" viewBox="0 0 460.8 345.6" width="460.8pt" xmlns="http://www.w3.org/2000/svg" xmlns:xlink="http://www.w3.org/1999/xlink">
 <defs>
  <style type="text/css">
*{stroke-linecap:butt;stroke-linejoin:round;}
  </style>
 </defs>
 <g id="figure_1">
  <g id="patch_1">
   <path d="M 0 345.6 
L 460.8 345.6 
L 460.8 0 
L 0 0 
z
" style="fill:#ffffff;"/>
  </g>
  <g id="axes_1">
   <g id="patch_2">
    <path d="M 57.6 307.584 
L 414.72 307.584 
L 414.72 41.472 
L 57.6 41.472 
z
" style="fill:#ffffff;"/>
   </g>
   <g id="matplotlib.axis_1">
    <g id="xtick_1">
     <g id="line2d_1">
      <defs>
       <path d="M 0 0 
L 0 3.5 
" id="mfc3e4a823f" style="stroke:#000000;stroke-width:0.8;"/>
      </defs>
      <g>
       <use style="stroke:#000000;stroke-width:0.8;" x="73.832727" xlink:href="#mfc3e4a823f" y="307.584"/>
      </g>
     </g>
     <g id="text_1">
      <!-- 0 -->
      <defs>
       <path d="M 31.78125 66.40625 
Q 24.171875 66.40625 20.328125 58.90625 
Q 16.5 51.421875 16.5 36.375 
Q 16.5 21.390625 20.328125 13.890625 
Q 24.171875 6.390625 31.78125 6.390625 
Q 39.453125 6.390625 43.28125 13.890625 
Q 47.125 21.390625 47.125 36.375 
Q 47.125 51.421875 43.28125 58.90625 
Q 39.453125 66.40625 31.78125 66.40625 
z
M 31.78125 74.21875 
Q 44.046875 74.21875 50.515625 64.515625 
Q 56.984375 54.828125 56.984375 36.375 
Q 56.984375 17.96875 50.515625 8.265625 
Q 44.046875 -1.421875 31.78125 -1.421875 
Q 19.53125 -1.421875 13.0625 8.265625 
Q 6.59375 17.96875 6.59375 36.375 
Q 6.59375 54.828125 13.0625 64.515625 
Q 19.53125 74.21875 31.78125 74.21875 
z
" id="DejaVuSans-48"/>
      </defs>
      <g transform="translate(70.651477 322.182437)scale(0.1 -0.1)">
       <use xlink:href="#DejaVuSans-48"/>
      </g>
     </g>
    </g>
    <g id="xtick_2">
     <g id="line2d_2">
      <g>
       <use style="stroke:#000000;stroke-width:0.8;" x="116.27123" xlink:href="#mfc3e4a823f" y="307.584"/>
      </g>
     </g>
     <g id="text_2">
      <!-- 20 -->
      <defs>
       <path d="M 19.1875 8.296875 
L 53.609375 8.296875 
L 53.609375 0 
L 7.328125 0 
L 7.328125 8.296875 
Q 12.9375 14.109375 22.625 23.890625 
Q 32.328125 33.6875 34.8125 36.53125 
Q 39.546875 41.84375 41.421875 45.53125 
Q 43.3125 49.21875 43.3125 52.78125 
Q 43.3125 58.59375 39.234375 62.25 
Q 35.15625 65.921875 28.609375 65.921875 
Q 23.96875 65.921875 18.8125 64.3125 
Q 13.671875 62.703125 7.8125 59.421875 
L 7.8125 69.390625 
Q 13.765625 71.78125 18.9375 73 
Q 24.125 74.21875 28.421875 74.21875 
Q 39.75 74.21875 46.484375 68.546875 
Q 53.21875 62.890625 53.21875 53.421875 
Q 53.21875 48.921875 51.53125 44.890625 
Q 49.859375 40.875 45.40625 35.40625 
Q 44.1875 33.984375 37.640625 27.21875 
Q 31.109375 20.453125 19.1875 8.296875 
z
" id="DejaVuSans-50"/>
      </defs>
      <g transform="translate(109.90873 322.182437)scale(0.1 -0.1)">
       <use xlink:href="#DejaVuSans-50"/>
       <use x="63.623047" xlink:href="#DejaVuSans-48"/>
      </g>
     </g>
    </g>
    <g id="xtick_3">
     <g id="line2d_3">
      <g>
       <use style="stroke:#000000;stroke-width:0.8;" x="158.709733" xlink:href="#mfc3e4a823f" y="307.584"/>
      </g>
     </g>
     <g id="text_3">
      <!-- 40 -->
      <defs>
       <path d="M 37.796875 64.3125 
L 12.890625 25.390625 
L 37.796875 25.390625 
z
M 35.203125 72.90625 
L 47.609375 72.90625 
L 47.609375 25.390625 
L 58.015625 25.390625 
L 58.015625 17.1875 
L 47.609375 17.1875 
L 47.609375 0 
L 37.796875 0 
L 37.796875 17.1875 
L 4.890625 17.1875 
L 4.890625 26.703125 
z
" id="DejaVuSans-52"/>
      </defs>
      <g transform="translate(152.347233 322.182437)scale(0.1 -0.1)">
       <use xlink:href="#DejaVuSans-52"/>
       <use x="63.623047" xlink:href="#DejaVuSans-48"/>
      </g>
     </g>
    </g>
    <g id="xtick_4">
     <g id="line2d_4">
      <g>
       <use style="stroke:#000000;stroke-width:0.8;" x="201.148235" xlink:href="#mfc3e4a823f" y="307.584"/>
      </g>
     </g>
     <g id="text_4">
      <!-- 60 -->
      <defs>
       <path d="M 33.015625 40.375 
Q 26.375 40.375 22.484375 35.828125 
Q 18.609375 31.296875 18.609375 23.390625 
Q 18.609375 15.53125 22.484375 10.953125 
Q 26.375 6.390625 33.015625 6.390625 
Q 39.65625 6.390625 43.53125 10.953125 
Q 47.40625 15.53125 47.40625 23.390625 
Q 47.40625 31.296875 43.53125 35.828125 
Q 39.65625 40.375 33.015625 40.375 
z
M 52.59375 71.296875 
L 52.59375 62.3125 
Q 48.875 64.0625 45.09375 64.984375 
Q 41.3125 65.921875 37.59375 65.921875 
Q 27.828125 65.921875 22.671875 59.328125 
Q 17.53125 52.734375 16.796875 39.40625 
Q 19.671875 43.65625 24.015625 45.921875 
Q 28.375 48.1875 33.59375 48.1875 
Q 44.578125 48.1875 50.953125 41.515625 
Q 57.328125 34.859375 57.328125 23.390625 
Q 57.328125 12.15625 50.6875 5.359375 
Q 44.046875 -1.421875 33.015625 -1.421875 
Q 20.359375 -1.421875 13.671875 8.265625 
Q 6.984375 17.96875 6.984375 36.375 
Q 6.984375 53.65625 15.1875 63.9375 
Q 23.390625 74.21875 37.203125 74.21875 
Q 40.921875 74.21875 44.703125 73.484375 
Q 48.484375 72.75 52.59375 71.296875 
z
" id="DejaVuSans-54"/>
      </defs>
      <g transform="translate(194.785735 322.182437)scale(0.1 -0.1)">
       <use xlink:href="#DejaVuSans-54"/>
       <use x="63.623047" xlink:href="#DejaVuSans-48"/>
      </g>
     </g>
    </g>
    <g id="xtick_5">
     <g id="line2d_5">
      <g>
       <use style="stroke:#000000;stroke-width:0.8;" x="243.586738" xlink:href="#mfc3e4a823f" y="307.584"/>
      </g>
     </g>
     <g id="text_5">
      <!-- 80 -->
      <defs>
       <path d="M 31.78125 34.625 
Q 24.75 34.625 20.71875 30.859375 
Q 16.703125 27.09375 16.703125 20.515625 
Q 16.703125 13.921875 20.71875 10.15625 
Q 24.75 6.390625 31.78125 6.390625 
Q 38.8125 6.390625 42.859375 10.171875 
Q 46.921875 13.96875 46.921875 20.515625 
Q 46.921875 27.09375 42.890625 30.859375 
Q 38.875 34.625 31.78125 34.625 
z
M 21.921875 38.8125 
Q 15.578125 40.375 12.03125 44.71875 
Q 8.5 49.078125 8.5 55.328125 
Q 8.5 64.0625 14.71875 69.140625 
Q 20.953125 74.21875 31.78125 74.21875 
Q 42.671875 74.21875 48.875 69.140625 
Q 55.078125 64.0625 55.078125 55.328125 
Q 55.078125 49.078125 51.53125 44.71875 
Q 48 40.375 41.703125 38.8125 
Q 48.828125 37.15625 52.796875 32.3125 
Q 56.78125 27.484375 56.78125 20.515625 
Q 56.78125 9.90625 50.3125 4.234375 
Q 43.84375 -1.421875 31.78125 -1.421875 
Q 19.734375 -1.421875 13.25 4.234375 
Q 6.78125 9.90625 6.78125 20.515625 
Q 6.78125 27.484375 10.78125 32.3125 
Q 14.796875 37.15625 21.921875 38.8125 
z
M 18.3125 54.390625 
Q 18.3125 48.734375 21.84375 45.5625 
Q 25.390625 42.390625 31.78125 42.390625 
Q 38.140625 42.390625 41.71875 45.5625 
Q 45.3125 48.734375 45.3125 54.390625 
Q 45.3125 60.0625 41.71875 63.234375 
Q 38.140625 66.40625 31.78125 66.40625 
Q 25.390625 66.40625 21.84375 63.234375 
Q 18.3125 60.0625 18.3125 54.390625 
z
" id="DejaVuSans-56"/>
      </defs>
      <g transform="translate(237.224238 322.182437)scale(0.1 -0.1)">
       <use xlink:href="#DejaVuSans-56"/>
       <use x="63.623047" xlink:href="#DejaVuSans-48"/>
      </g>
     </g>
    </g>
    <g id="xtick_6">
     <g id="line2d_6">
      <g>
       <use style="stroke:#000000;stroke-width:0.8;" x="286.025241" xlink:href="#mfc3e4a823f" y="307.584"/>
      </g>
     </g>
     <g id="text_6">
      <!-- 100 -->
      <defs>
       <path d="M 12.40625 8.296875 
L 28.515625 8.296875 
L 28.515625 63.921875 
L 10.984375 60.40625 
L 10.984375 69.390625 
L 28.421875 72.90625 
L 38.28125 72.90625 
L 38.28125 8.296875 
L 54.390625 8.296875 
L 54.390625 0 
L 12.40625 0 
z
" id="DejaVuSans-49"/>
      </defs>
      <g transform="translate(276.481491 322.182437)scale(0.1 -0.1)">
       <use xlink:href="#DejaVuSans-49"/>
       <use x="63.623047" xlink:href="#DejaVuSans-48"/>
       <use x="127.246094" xlink:href="#DejaVuSans-48"/>
      </g>
     </g>
    </g>
    <g id="xtick_7">
     <g id="line2d_7">
      <g>
       <use style="stroke:#000000;stroke-width:0.8;" x="328.463743" xlink:href="#mfc3e4a823f" y="307.584"/>
      </g>
     </g>
     <g id="text_7">
      <!-- 120 -->
      <g transform="translate(318.919993 322.182437)scale(0.1 -0.1)">
       <use xlink:href="#DejaVuSans-49"/>
       <use x="63.623047" xlink:href="#DejaVuSans-50"/>
       <use x="127.246094" xlink:href="#DejaVuSans-48"/>
      </g>
     </g>
    </g>
    <g id="xtick_8">
     <g id="line2d_8">
      <g>
       <use style="stroke:#000000;stroke-width:0.8;" x="370.902246" xlink:href="#mfc3e4a823f" y="307.584"/>
      </g>
     </g>
     <g id="text_8">
      <!-- 140 -->
      <g transform="translate(361.358496 322.182437)scale(0.1 -0.1)">
       <use xlink:href="#DejaVuSans-49"/>
       <use x="63.623047" xlink:href="#DejaVuSans-52"/>
       <use x="127.246094" xlink:href="#DejaVuSans-48"/>
      </g>
     </g>
    </g>
    <g id="xtick_9">
     <g id="line2d_9">
      <g>
       <use style="stroke:#000000;stroke-width:0.8;" x="413.340749" xlink:href="#mfc3e4a823f" y="307.584"/>
      </g>
     </g>
     <g id="text_9">
      <!-- 160 -->
      <g transform="translate(403.796999 322.182437)scale(0.1 -0.1)">
       <use xlink:href="#DejaVuSans-49"/>
       <use x="63.623047" xlink:href="#DejaVuSans-54"/>
       <use x="127.246094" xlink:href="#DejaVuSans-48"/>
      </g>
     </g>
    </g>
   </g>
   <g id="matplotlib.axis_2">
    <g id="ytick_1">
     <g id="line2d_10">
      <defs>
       <path d="M 0 0 
L -3.5 0 
" id="m7c508f7404" style="stroke:#000000;stroke-width:0.8;"/>
      </defs>
      <g>
       <use style="stroke:#000000;stroke-width:0.8;" x="57.6" xlink:href="#m7c508f7404" y="295.488"/>
      </g>
     </g>
     <g id="text_10">
      <!-- 0 -->
      <g transform="translate(44.2375 299.287219)scale(0.1 -0.1)">
       <use xlink:href="#DejaVuSans-48"/>
      </g>
     </g>
    </g>
    <g id="ytick_2">
     <g id="line2d_11">
      <g>
       <use style="stroke:#000000;stroke-width:0.8;" x="57.6" xlink:href="#m7c508f7404" y="262.892691"/>
      </g>
     </g>
     <g id="text_11">
      <!-- 25000 -->
      <defs>
       <path d="M 10.796875 72.90625 
L 49.515625 72.90625 
L 49.515625 64.59375 
L 19.828125 64.59375 
L 19.828125 46.734375 
Q 21.96875 47.46875 24.109375 47.828125 
Q 26.265625 48.1875 28.421875 48.1875 
Q 40.625 48.1875 47.75 41.5 
Q 54.890625 34.8125 54.890625 23.390625 
Q 54.890625 11.625 47.5625 5.09375 
Q 40.234375 -1.421875 26.90625 -1.421875 
Q 22.3125 -1.421875 17.546875 -0.640625 
Q 12.796875 0.140625 7.71875 1.703125 
L 7.71875 11.625 
Q 12.109375 9.234375 16.796875 8.0625 
Q 21.484375 6.890625 26.703125 6.890625 
Q 35.15625 6.890625 40.078125 11.328125 
Q 45.015625 15.765625 45.015625 23.390625 
Q 45.015625 31 40.078125 35.4375 
Q 35.15625 39.890625 26.703125 39.890625 
Q 22.75 39.890625 18.8125 39.015625 
Q 14.890625 38.140625 10.796875 36.28125 
z
" id="DejaVuSans-53"/>
      </defs>
      <g transform="translate(18.7875 266.69191)scale(0.1 -0.1)">
       <use xlink:href="#DejaVuSans-50"/>
       <use x="63.623047" xlink:href="#DejaVuSans-53"/>
       <use x="127.246094" xlink:href="#DejaVuSans-48"/>
       <use x="190.869141" xlink:href="#DejaVuSans-48"/>
       <use x="254.492188" xlink:href="#DejaVuSans-48"/>
      </g>
     </g>
    </g>
    <g id="ytick_3">
     <g id="line2d_12">
      <g>
       <use style="stroke:#000000;stroke-width:0.8;" x="57.6" xlink:href="#m7c508f7404" y="230.297383"/>
      </g>
     </g>
     <g id="text_12">
      <!-- 50000 -->
      <g transform="translate(18.7875 234.096601)scale(0.1 -0.1)">
       <use xlink:href="#DejaVuSans-53"/>
       <use x="63.623047" xlink:href="#DejaVuSans-48"/>
       <use x="127.246094" xlink:href="#DejaVuSans-48"/>
       <use x="190.869141" xlink:href="#DejaVuSans-48"/>
       <use x="254.492188" xlink:href="#DejaVuSans-48"/>
      </g>
     </g>
    </g>
    <g id="ytick_4">
     <g id="line2d_13">
      <g>
       <use style="stroke:#000000;stroke-width:0.8;" x="57.6" xlink:href="#m7c508f7404" y="197.702074"/>
      </g>
     </g>
     <g id="text_13">
      <!-- 75000 -->
      <defs>
       <path d="M 8.203125 72.90625 
L 55.078125 72.90625 
L 55.078125 68.703125 
L 28.609375 0 
L 18.3125 0 
L 43.21875 64.59375 
L 8.203125 64.59375 
z
" id="DejaVuSans-55"/>
      </defs>
      <g transform="translate(18.7875 201.501293)scale(0.1 -0.1)">
       <use xlink:href="#DejaVuSans-55"/>
       <use x="63.623047" xlink:href="#DejaVuSans-53"/>
       <use x="127.246094" xlink:href="#DejaVuSans-48"/>
       <use x="190.869141" xlink:href="#DejaVuSans-48"/>
       <use x="254.492188" xlink:href="#DejaVuSans-48"/>
      </g>
     </g>
    </g>
    <g id="ytick_5">
     <g id="line2d_14">
      <g>
       <use style="stroke:#000000;stroke-width:0.8;" x="57.6" xlink:href="#m7c508f7404" y="165.106765"/>
      </g>
     </g>
     <g id="text_14">
      <!-- 100000 -->
      <g transform="translate(12.425 168.905984)scale(0.1 -0.1)">
       <use xlink:href="#DejaVuSans-49"/>
       <use x="63.623047" xlink:href="#DejaVuSans-48"/>
       <use x="127.246094" xlink:href="#DejaVuSans-48"/>
       <use x="190.869141" xlink:href="#DejaVuSans-48"/>
       <use x="254.492188" xlink:href="#DejaVuSans-48"/>
       <use x="318.115234" xlink:href="#DejaVuSans-48"/>
      </g>
     </g>
    </g>
    <g id="ytick_6">
     <g id="line2d_15">
      <g>
       <use style="stroke:#000000;stroke-width:0.8;" x="57.6" xlink:href="#m7c508f7404" y="132.511457"/>
      </g>
     </g>
     <g id="text_15">
      <!-- 125000 -->
      <g transform="translate(12.425 136.310675)scale(0.1 -0.1)">
       <use xlink:href="#DejaVuSans-49"/>
       <use x="63.623047" xlink:href="#DejaVuSans-50"/>
       <use x="127.246094" xlink:href="#DejaVuSans-53"/>
       <use x="190.869141" xlink:href="#DejaVuSans-48"/>
       <use x="254.492188" xlink:href="#DejaVuSans-48"/>
       <use x="318.115234" xlink:href="#DejaVuSans-48"/>
      </g>
     </g>
    </g>
    <g id="ytick_7">
     <g id="line2d_16">
      <g>
       <use style="stroke:#000000;stroke-width:0.8;" x="57.6" xlink:href="#m7c508f7404" y="99.916148"/>
      </g>
     </g>
     <g id="text_16">
      <!-- 150000 -->
      <g transform="translate(12.425 103.715367)scale(0.1 -0.1)">
       <use xlink:href="#DejaVuSans-49"/>
       <use x="63.623047" xlink:href="#DejaVuSans-53"/>
       <use x="127.246094" xlink:href="#DejaVuSans-48"/>
       <use x="190.869141" xlink:href="#DejaVuSans-48"/>
       <use x="254.492188" xlink:href="#DejaVuSans-48"/>
       <use x="318.115234" xlink:href="#DejaVuSans-48"/>
      </g>
     </g>
    </g>
    <g id="ytick_8">
     <g id="line2d_17">
      <g>
       <use style="stroke:#000000;stroke-width:0.8;" x="57.6" xlink:href="#m7c508f7404" y="67.320839"/>
      </g>
     </g>
     <g id="text_17">
      <!-- 175000 -->
      <g transform="translate(12.425 71.120058)scale(0.1 -0.1)">
       <use xlink:href="#DejaVuSans-49"/>
       <use x="63.623047" xlink:href="#DejaVuSans-55"/>
       <use x="127.246094" xlink:href="#DejaVuSans-53"/>
       <use x="190.869141" xlink:href="#DejaVuSans-48"/>
       <use x="254.492188" xlink:href="#DejaVuSans-48"/>
       <use x="318.115234" xlink:href="#DejaVuSans-48"/>
      </g>
     </g>
    </g>
    <g id="text_18">
     <!-- Mean Root Square Error -->
     <defs>
      <path d="M 9.8125 72.90625 
L 24.515625 72.90625 
L 43.109375 23.296875 
L 61.8125 72.90625 
L 76.515625 72.90625 
L 76.515625 0 
L 66.890625 0 
L 66.890625 64.015625 
L 48.09375 14.015625 
L 38.1875 14.015625 
L 19.390625 64.015625 
L 19.390625 0 
L 9.8125 0 
z
" id="DejaVuSans-77"/>
      <path d="M 56.203125 29.59375 
L 56.203125 25.203125 
L 14.890625 25.203125 
Q 15.484375 15.921875 20.484375 11.0625 
Q 25.484375 6.203125 34.421875 6.203125 
Q 39.59375 6.203125 44.453125 7.46875 
Q 49.3125 8.734375 54.109375 11.28125 
L 54.109375 2.78125 
Q 49.265625 0.734375 44.1875 -0.34375 
Q 39.109375 -1.421875 33.890625 -1.421875 
Q 20.796875 -1.421875 13.15625 6.1875 
Q 5.515625 13.8125 5.515625 26.8125 
Q 5.515625 40.234375 12.765625 48.109375 
Q 20.015625 56 32.328125 56 
Q 43.359375 56 49.78125 48.890625 
Q 56.203125 41.796875 56.203125 29.59375 
z
M 47.21875 32.234375 
Q 47.125 39.59375 43.09375 43.984375 
Q 39.0625 48.390625 32.421875 48.390625 
Q 24.90625 48.390625 20.390625 44.140625 
Q 15.875 39.890625 15.1875 32.171875 
z
" id="DejaVuSans-101"/>
      <path d="M 34.28125 27.484375 
Q 23.390625 27.484375 19.1875 25 
Q 14.984375 22.515625 14.984375 16.5 
Q 14.984375 11.71875 18.140625 8.90625 
Q 21.296875 6.109375 26.703125 6.109375 
Q 34.1875 6.109375 38.703125 11.40625 
Q 43.21875 16.703125 43.21875 25.484375 
L 43.21875 27.484375 
z
M 52.203125 31.203125 
L 52.203125 0 
L 43.21875 0 
L 43.21875 8.296875 
Q 40.140625 3.328125 35.546875 0.953125 
Q 30.953125 -1.421875 24.3125 -1.421875 
Q 15.921875 -1.421875 10.953125 3.296875 
Q 6 8.015625 6 15.921875 
Q 6 25.140625 12.171875 29.828125 
Q 18.359375 34.515625 30.609375 34.515625 
L 43.21875 34.515625 
L 43.21875 35.40625 
Q 43.21875 41.609375 39.140625 45 
Q 35.0625 48.390625 27.6875 48.390625 
Q 23 48.390625 18.546875 47.265625 
Q 14.109375 46.140625 10.015625 43.890625 
L 10.015625 52.203125 
Q 14.9375 54.109375 19.578125 55.046875 
Q 24.21875 56 28.609375 56 
Q 40.484375 56 46.34375 49.84375 
Q 52.203125 43.703125 52.203125 31.203125 
z
" id="DejaVuSans-97"/>
      <path d="M 54.890625 33.015625 
L 54.890625 0 
L 45.90625 0 
L 45.90625 32.71875 
Q 45.90625 40.484375 42.875 44.328125 
Q 39.84375 48.1875 33.796875 48.1875 
Q 26.515625 48.1875 22.3125 43.546875 
Q 18.109375 38.921875 18.109375 30.90625 
L 18.109375 0 
L 9.078125 0 
L 9.078125 54.6875 
L 18.109375 54.6875 
L 18.109375 46.1875 
Q 21.34375 51.125 25.703125 53.5625 
Q 30.078125 56 35.796875 56 
Q 45.21875 56 50.046875 50.171875 
Q 54.890625 44.34375 54.890625 33.015625 
z
" id="DejaVuSans-110"/>
      <path id="DejaVuSans-32"/>
      <path d="M 44.390625 34.1875 
Q 47.5625 33.109375 50.5625 29.59375 
Q 53.5625 26.078125 56.59375 19.921875 
L 66.609375 0 
L 56 0 
L 46.6875 18.703125 
Q 43.0625 26.03125 39.671875 28.421875 
Q 36.28125 30.8125 30.421875 30.8125 
L 19.671875 30.8125 
L 19.671875 0 
L 9.8125 0 
L 9.8125 72.90625 
L 32.078125 72.90625 
Q 44.578125 72.90625 50.734375 67.671875 
Q 56.890625 62.453125 56.890625 51.90625 
Q 56.890625 45.015625 53.6875 40.46875 
Q 50.484375 35.9375 44.390625 34.1875 
z
M 19.671875 64.796875 
L 19.671875 38.921875 
L 32.078125 38.921875 
Q 39.203125 38.921875 42.84375 42.21875 
Q 46.484375 45.515625 46.484375 51.90625 
Q 46.484375 58.296875 42.84375 61.546875 
Q 39.203125 64.796875 32.078125 64.796875 
z
" id="DejaVuSans-82"/>
      <path d="M 30.609375 48.390625 
Q 23.390625 48.390625 19.1875 42.75 
Q 14.984375 37.109375 14.984375 27.296875 
Q 14.984375 17.484375 19.15625 11.84375 
Q 23.34375 6.203125 30.609375 6.203125 
Q 37.796875 6.203125 41.984375 11.859375 
Q 46.1875 17.53125 46.1875 27.296875 
Q 46.1875 37.015625 41.984375 42.703125 
Q 37.796875 48.390625 30.609375 48.390625 
z
M 30.609375 56 
Q 42.328125 56 49.015625 48.375 
Q 55.71875 40.765625 55.71875 27.296875 
Q 55.71875 13.875 49.015625 6.21875 
Q 42.328125 -1.421875 30.609375 -1.421875 
Q 18.84375 -1.421875 12.171875 6.21875 
Q 5.515625 13.875 5.515625 27.296875 
Q 5.515625 40.765625 12.171875 48.375 
Q 18.84375 56 30.609375 56 
z
" id="DejaVuSans-111"/>
      <path d="M 18.3125 70.21875 
L 18.3125 54.6875 
L 36.8125 54.6875 
L 36.8125 47.703125 
L 18.3125 47.703125 
L 18.3125 18.015625 
Q 18.3125 11.328125 20.140625 9.421875 
Q 21.96875 7.515625 27.59375 7.515625 
L 36.8125 7.515625 
L 36.8125 0 
L 27.59375 0 
Q 17.1875 0 13.234375 3.875 
Q 9.28125 7.765625 9.28125 18.015625 
L 9.28125 47.703125 
L 2.6875 47.703125 
L 2.6875 54.6875 
L 9.28125 54.6875 
L 9.28125 70.21875 
z
" id="DejaVuSans-116"/>
      <path d="M 53.515625 70.515625 
L 53.515625 60.890625 
Q 47.90625 63.578125 42.921875 64.890625 
Q 37.9375 66.21875 33.296875 66.21875 
Q 25.25 66.21875 20.875 63.09375 
Q 16.5 59.96875 16.5 54.203125 
Q 16.5 49.359375 19.40625 46.890625 
Q 22.3125 44.4375 30.421875 42.921875 
L 36.375 41.703125 
Q 47.40625 39.59375 52.65625 34.296875 
Q 57.90625 29 57.90625 20.125 
Q 57.90625 9.515625 50.796875 4.046875 
Q 43.703125 -1.421875 29.984375 -1.421875 
Q 24.8125 -1.421875 18.96875 -0.25 
Q 13.140625 0.921875 6.890625 3.21875 
L 6.890625 13.375 
Q 12.890625 10.015625 18.65625 8.296875 
Q 24.421875 6.59375 29.984375 6.59375 
Q 38.421875 6.59375 43.015625 9.90625 
Q 47.609375 13.234375 47.609375 19.390625 
Q 47.609375 24.75 44.3125 27.78125 
Q 41.015625 30.8125 33.5 32.328125 
L 27.484375 33.5 
Q 16.453125 35.6875 11.515625 40.375 
Q 6.59375 45.0625 6.59375 53.421875 
Q 6.59375 63.09375 13.40625 68.65625 
Q 20.21875 74.21875 32.171875 74.21875 
Q 37.3125 74.21875 42.625 73.28125 
Q 47.953125 72.359375 53.515625 70.515625 
z
" id="DejaVuSans-83"/>
      <path d="M 14.796875 27.296875 
Q 14.796875 17.390625 18.875 11.75 
Q 22.953125 6.109375 30.078125 6.109375 
Q 37.203125 6.109375 41.296875 11.75 
Q 45.40625 17.390625 45.40625 27.296875 
Q 45.40625 37.203125 41.296875 42.84375 
Q 37.203125 48.484375 30.078125 48.484375 
Q 22.953125 48.484375 18.875 42.84375 
Q 14.796875 37.203125 14.796875 27.296875 
z
M 45.40625 8.203125 
Q 42.578125 3.328125 38.25 0.953125 
Q 33.9375 -1.421875 27.875 -1.421875 
Q 17.96875 -1.421875 11.734375 6.484375 
Q 5.515625 14.40625 5.515625 27.296875 
Q 5.515625 40.1875 11.734375 48.09375 
Q 17.96875 56 27.875 56 
Q 33.9375 56 38.25 53.625 
Q 42.578125 51.265625 45.40625 46.390625 
L 45.40625 54.6875 
L 54.390625 54.6875 
L 54.390625 -20.796875 
L 45.40625 -20.796875 
z
" id="DejaVuSans-113"/>
      <path d="M 8.5 21.578125 
L 8.5 54.6875 
L 17.484375 54.6875 
L 17.484375 21.921875 
Q 17.484375 14.15625 20.5 10.265625 
Q 23.53125 6.390625 29.59375 6.390625 
Q 36.859375 6.390625 41.078125 11.03125 
Q 45.3125 15.671875 45.3125 23.6875 
L 45.3125 54.6875 
L 54.296875 54.6875 
L 54.296875 0 
L 45.3125 0 
L 45.3125 8.40625 
Q 42.046875 3.421875 37.71875 1 
Q 33.40625 -1.421875 27.6875 -1.421875 
Q 18.265625 -1.421875 13.375 4.4375 
Q 8.5 10.296875 8.5 21.578125 
z
M 31.109375 56 
z
" id="DejaVuSans-117"/>
      <path d="M 41.109375 46.296875 
Q 39.59375 47.171875 37.8125 47.578125 
Q 36.03125 48 33.890625 48 
Q 26.265625 48 22.1875 43.046875 
Q 18.109375 38.09375 18.109375 28.8125 
L 18.109375 0 
L 9.078125 0 
L 9.078125 54.6875 
L 18.109375 54.6875 
L 18.109375 46.1875 
Q 20.953125 51.171875 25.484375 53.578125 
Q 30.03125 56 36.53125 56 
Q 37.453125 56 38.578125 55.875 
Q 39.703125 55.765625 41.0625 55.515625 
z
" id="DejaVuSans-114"/>
      <path d="M 9.8125 72.90625 
L 55.90625 72.90625 
L 55.90625 64.59375 
L 19.671875 64.59375 
L 19.671875 43.015625 
L 54.390625 43.015625 
L 54.390625 34.71875 
L 19.671875 34.71875 
L 19.671875 8.296875 
L 56.78125 8.296875 
L 56.78125 0 
L 9.8125 0 
z
" id="DejaVuSans-69"/>
     </defs>
     <g transform="translate(6.345312 234.032688)rotate(-90)scale(0.1 -0.1)">
      <use xlink:href="#DejaVuSans-77"/>
      <use x="86.279297" xlink:href="#DejaVuSans-101"/>
      <use x="147.802734" xlink:href="#DejaVuSans-97"/>
      <use x="209.082031" xlink:href="#DejaVuSans-110"/>
      <use x="272.460938" xlink:href="#DejaVuSans-32"/>
      <use x="304.248047" xlink:href="#DejaVuSans-82"/>
      <use x="369.230469" xlink:href="#DejaVuSans-111"/>
      <use x="430.412109" xlink:href="#DejaVuSans-111"/>
      <use x="491.59375" xlink:href="#DejaVuSans-116"/>
      <use x="530.802734" xlink:href="#DejaVuSans-32"/>
      <use x="562.589844" xlink:href="#DejaVuSans-83"/>
      <use x="626.066406" xlink:href="#DejaVuSans-113"/>
      <use x="689.542969" xlink:href="#DejaVuSans-117"/>
      <use x="752.921875" xlink:href="#DejaVuSans-97"/>
      <use x="814.201172" xlink:href="#DejaVuSans-114"/>
      <use x="853.064453" xlink:href="#DejaVuSans-101"/>
      <use x="914.587891" xlink:href="#DejaVuSans-32"/>
      <use x="946.375" xlink:href="#DejaVuSans-69"/>
      <use x="1009.558594" xlink:href="#DejaVuSans-114"/>
      <use x="1048.921875" xlink:href="#DejaVuSans-114"/>
      <use x="1087.785156" xlink:href="#DejaVuSans-111"/>
      <use x="1148.966797" xlink:href="#DejaVuSans-114"/>
     </g>
    </g>
   </g>
   <g id="line2d_18">
    <path clip-path="url(#p43758f6f9b)" d="M 73.832727 236.125424 
L 75.954652 221.640069 
L 78.076578 213.797637 
L 80.198503 146.491585 
L 82.320428 171.146676 
L 84.442353 283.659162 
L 86.564278 286.089686 
L 88.686203 273.542665 
L 90.808128 269.583422 
L 92.930053 272.247545 
L 95.051979 265.855605 
L 97.173904 244.518716 
L 99.295829 266.836724 
L 101.417754 256.908193 
L 103.539679 274.111997 
L 105.661604 251.477814 
L 107.783529 142.928917 
L 109.905455 157.182846 
L 112.02738 166.788683 
L 114.149305 145.406161 
L 116.27123 196.615564 
L 118.393155 146.351425 
L 120.51508 108.214914 
L 122.637005 133.328512 
L 124.75893 179.73554 
L 126.880856 229.545518 
L 129.002781 222.432135 
L 131.124706 190.964624 
L 133.246631 183.679572 
L 135.368556 148.942752 
L 137.490481 193.701543 
L 139.612406 179.787692 
L 141.734332 168.935628 
L 143.856257 157.386023 
L 145.978182 178.685971 
L 148.100107 197.808552 
L 150.222032 182.927707 
L 152.343957 229.517268 
L 154.465882 242.094711 
L 156.587807 188.301587 
L 158.709733 241.938254 
L 160.831658 217.330969 
L 162.953583 225.564544 
L 165.075508 229.651996 
L 167.197433 216.957209 
L 169.319358 232.024934 
L 171.441283 224.714893 
L 173.563209 214.064919 
L 175.685134 209.51896 
L 177.807059 197.021919 
L 179.928984 180.521087 
L 182.050909 190.78209 
L 184.172834 180.345072 
L 186.294759 193.451646 
L 188.416684 185.170264 
L 190.53861 182.905977 
L 192.660535 160.945431 
L 194.78246 192.280388 
L 196.904385 177.542962 
L 199.02631 193.134385 
L 201.148235 223.958682 
L 205.392086 192.339059 
L 207.514011 211.983165 
L 209.635936 182.988552 
L 211.757861 152.403287 
L 213.879786 125.577348 
L 216.001711 107.331581 
L 218.123636 85.489464 
L 220.245561 59.158974 
L 222.367487 167.949076 
L 224.489412 139.552043 
L 226.611337 168.090323 
L 228.733262 199.981573 
L 230.855187 205.690098 
L 232.977112 207.77837 
L 235.099037 220.857781 
L 237.220963 234.71948 
L 239.342888 232.420424 
L 241.464813 212.999052 
L 243.586738 152.433709 
L 245.708663 170.70012 
L 247.830588 192.359703 
L 249.952513 203.624642 
L 252.074439 183.705648 
L 254.196364 209.062626 
L 256.318289 173.66412 
L 258.440214 170.919595 
L 260.562139 206.639708 
L 262.684064 200.381408 
L 264.805989 236.184095 
L 266.927914 243.933087 
L 269.04984 258.101181 
L 271.171765 254.098477 
L 273.29369 268.202467 
L 275.415615 273.953366 
L 279.659465 261.491093 
L 281.78139 231.368682 
L 283.903316 180.181009 
L 286.025241 156.421202 
L 288.147166 141.036216 
L 290.269091 102.919262 
L 292.391016 151.992586 
L 294.512941 144.365284 
L 296.634866 139.469469 
L 298.756791 181.471783 
L 300.878717 133.062317 
L 303.000642 90.910064 
L 305.122567 178.438247 
L 307.244492 193.547259 
L 309.366417 225.764462 
L 311.488342 254.754729 
L 313.610267 239.248054 
L 315.732193 207.604529 
L 317.854118 197.384813 
L 319.976043 174.461619 
L 322.097968 159.523189 
L 324.219893 103.143084 
L 326.341818 97.024944 
L 328.463743 119.509188 
L 330.585668 166.407318 
L 332.707594 181.084986 
L 334.829519 213.50428 
L 336.951444 252.918527 
L 339.073369 245.25211 
L 341.195294 262.675389 
L 343.317219 228.387298 
L 345.439144 189.446769 
L 347.56107 174.952722 
L 349.682995 186.632707 
L 351.80492 106.735087 
L 353.926845 143.050606 
L 356.04877 170.971748 
L 358.170695 141.651181 
L 360.29262 134.834416 
L 362.414545 94.985564 
L 364.536471 105.20528 
L 366.658396 197.899819 
L 368.780321 228.076556 
L 370.902246 269.581249 
L 373.024171 213.984517 
L 375.146096 199.429625 
L 377.268021 226.527192 
L 379.389947 206.587555 
L 381.511872 223.8283 
L 383.633797 176.798703 
L 385.755722 147.029407 
L 387.877647 222.969957 
L 389.999572 230.219154 
L 392.121497 227.083485 
L 394.243422 246.473348 
L 396.365348 240.301969 
L 398.487273 226.203412 
L 398.487273 226.203412 
" style="fill:none;stroke:#ff0000;stroke-linecap:square;stroke-width:1.5;"/>
   </g>
   <g id="line2d_19">
    <path clip-path="url(#p43758f6f9b)" d="M 73.832727 223.314476 
L 75.954652 212.012462 
L 78.076578 227.75563 
L 80.198503 213.263293 
L 82.320428 222.309008 
L 84.442353 247.048696 
L 86.564278 254.881564 
L 88.686203 257.228048 
L 90.808128 258.396486 
L 92.930053 255.306376 
L 95.051979 230.092563 
L 97.173904 229.764076 
L 99.295829 226.075808 
L 101.417754 214.571576 
L 103.539679 241.372893 
L 105.661604 249.118478 
L 107.783529 182.648211 
L 109.905455 98.470568 
L 112.02738 138.657503 
L 114.149305 135.904957 
L 116.27123 173.400096 
L 118.393155 119.364171 
L 120.51508 104.795551 
L 122.637005 155.124389 
L 124.75893 140.377454 
L 126.880856 217.285712 
L 129.002781 244.022976 
L 131.124706 229.53238 
L 133.246631 219.989996 
L 135.368556 141.821779 
L 137.490481 202.39749 
L 139.612406 176.005368 
L 141.734332 108.600157 
L 143.856257 104.171586 
L 145.978182 94.247073 
L 148.100107 149.891326 
L 150.222032 160.85817 
L 152.343957 195.404742 
L 154.465882 194.413684 
L 156.587807 174.973043 
L 158.709733 229.95052 
L 160.831658 216.136248 
L 162.953583 224.19251 
L 165.075508 230.298032 
L 167.197433 231.773896 
L 169.319358 219.179925 
L 171.441283 197.343155 
L 173.563209 180.991431 
L 175.685134 170.124272 
L 177.807059 184.923746 
L 179.928984 146.424236 
L 184.172834 172.155646 
L 186.294759 217.815823 
L 188.416684 216.174103 
L 190.53861 170.417822 
L 192.660535 226.858401 
L 194.78246 240.785935 
L 196.904385 204.743014 
L 199.02631 211.726362 
L 201.148235 228.05485 
L 203.27016 217.799661 
L 205.392086 208.181441 
L 207.514011 218.652348 
L 209.635936 208.046052 
L 211.757861 190.936162 
L 213.879786 142.704784 
L 216.001711 64.251881 
L 218.123636 53.568 
L 220.245561 118.151132 
L 222.367487 171.717209 
L 224.489412 167.849504 
L 226.611337 190.142924 
L 228.733262 196.263221 
L 230.855187 186.090119 
L 232.977112 204.949593 
L 235.099037 191.269932 
L 237.220963 185.209007 
L 239.342888 219.86927 
L 241.464813 220.982681 
L 243.586738 228.212799 
L 245.708663 222.896699 
L 247.830588 188.651763 
L 249.952513 161.434582 
L 252.074439 152.053139 
L 254.196364 178.170208 
L 256.318289 143.327806 
L 258.440214 168.415114 
L 260.562139 180.555373 
L 262.684064 193.42088 
L 264.805989 202.490711 
L 266.927914 225.540917 
L 269.04984 235.894286 
L 271.171765 208.837748 
L 273.29369 202.474157 
L 275.415615 230.643612 
L 277.53754 226.368405 
L 279.659465 231.796627 
L 281.78139 240.016623 
L 283.903316 198.368047 
L 286.025241 175.831443 
L 288.147166 127.297926 
L 290.269091 144.362498 
L 292.391016 183.503244 
L 294.512941 194.549694 
L 296.634866 196.500423 
L 298.756791 207.789518 
L 300.878717 156.364942 
L 303.000642 205.278162 
L 305.122567 208.431221 
L 307.244492 211.872471 
L 309.366417 212.375046 
L 311.488342 271.461815 
L 313.610267 248.042751 
L 315.732193 267.650957 
L 317.854118 257.005021 
L 319.976043 264.432956 
L 322.097968 230.798654 
L 324.219893 242.742901 
L 326.341818 220.257075 
L 328.463743 213.407638 
L 330.585668 190.364832 
L 332.707594 205.751077 
L 334.829519 226.429822 
L 336.951444 200.203121 
L 339.073369 203.963284 
L 341.195294 213.015402 
L 343.317219 199.769981 
L 345.439144 242.147864 
L 347.56107 251.138309 
L 349.682995 222.27408 
L 351.80492 120.887885 
L 353.926845 200.436879 
L 356.04877 186.794217 
L 358.170695 182.701012 
L 360.29262 154.010071 
L 362.414545 141.843084 
L 364.536471 105.321831 
L 366.658396 186.512568 
L 368.780321 220.688186 
L 370.902246 252.168316 
L 373.024171 235.656155 
L 375.146096 213.674033 
L 377.268021 238.943122 
L 379.389947 222.857845 
L 381.511872 244.890692 
L 383.633797 249.546421 
L 385.755722 264.93743 
L 387.877647 222.914219 
L 389.999572 144.883346 
L 392.121497 188.549459 
L 394.243422 242.938029 
L 396.365348 250.059664 
L 398.487273 240.695604 
L 398.487273 240.695604 
" style="fill:none;stroke:#0000ff;stroke-linecap:square;stroke-width:1.5;"/>
   </g>
   <g id="line2d_20">
    <path clip-path="url(#p43758f6f9b)" d="M 73.832727 246.334275 
L 75.954652 220.258028 
L 78.076578 248.224802 
L 80.198503 241.053835 
L 82.320428 260.936973 
L 84.442353 287.01322 
L 86.564278 289.838146 
L 88.686203 291.967707 
L 90.808128 287.708586 
L 92.930053 291.22888 
L 95.051979 295.488 
L 99.295829 295.488 
L 101.417754 280.037824 
L 103.539679 280.037824 
L 105.661604 250.636855 
L 107.783529 215.890256 
L 109.905455 89.55084 
L 112.02738 158.066179 
L 114.149305 168.040343 
L 116.27123 183.620901 
L 118.393155 117.169931 
L 120.51508 106.391749 
L 122.637005 171.97351 
L 124.75893 163.889874 
L 126.880856 232.340022 
L 129.002781 295.488 
L 131.124706 263.349026 
L 133.246631 263.349026 
L 135.368556 163.802953 
L 137.490481 222.257207 
L 139.612406 176.319552 
L 141.734332 108.043245 
L 143.856257 100.220371 
L 145.978182 110.911632 
L 148.100107 162.194918 
L 150.222032 180.187528 
L 152.343957 220.51879 
L 154.465882 238.772163 
L 156.587807 204.568819 
L 158.709733 213.217441 
L 160.831658 258.198967 
L 162.953583 271.367472 
L 165.075508 253.722544 
L 167.197433 271.367472 
L 169.319358 235.034568 
L 171.441283 194.790226 
L 173.563209 194.790226 
L 177.807059 218.302309 
L 179.928984 204.938233 
L 182.050909 204.938233 
L 184.172834 229.515095 
L 186.294759 259.893923 
L 188.416684 253.157559 
L 190.53861 198.484361 
L 192.660535 279.494569 
L 194.78246 280.320316 
L 196.904385 227.037852 
L 199.02631 229.688937 
L 201.148235 259.63316 
L 203.27016 265.065712 
L 205.392086 247.203483 
L 207.514011 251.027999 
L 209.635936 228.037441 
L 211.757861 188.314625 
L 213.879786 154.893569 
L 216.001711 84.596353 
L 218.123636 74.100664 
L 220.245561 128.339257 
L 222.367487 200.700842 
L 224.489412 210.349054 
L 226.611337 238.250638 
L 228.733262 239.46753 
L 230.855187 193.573335 
L 232.977112 215.303541 
L 235.099037 206.350696 
L 237.220963 184.533569 
L 239.342888 230.210462 
L 241.464813 217.780784 
L 243.586738 180.817704 
L 245.708663 227.494186 
L 247.830588 149.135064 
L 249.952513 178.536033 
L 252.074439 140.334331 
L 254.196364 200.309699 
L 256.318289 172.364654 
L 258.440214 168.018613 
L 260.562139 180.535211 
L 262.684064 179.622543 
L 264.805989 190.835329 
L 266.927914 224.908292 
L 269.04984 234.947647 
L 271.171765 230.492955 
L 273.29369 215.629494 
L 275.415615 233.383072 
L 277.53754 237.729113 
L 279.659465 240.119436 
L 281.78139 232.557324 
L 283.903316 188.184244 
L 286.025241 160.456501 
L 288.147166 134.771398 
L 290.269091 150.243305 
L 292.391016 190.791869 
L 294.512941 201.005065 
L 296.634866 195.442133 
L 298.756791 250.984539 
L 300.878717 256.634392 
L 303.000642 256.634392 
L 305.122567 230.775447 
L 307.244492 230.775447 
L 309.366417 230.645066 
L 311.488342 292.619613 
L 313.610267 263.718439 
L 315.732193 282.145654 
L 317.854118 271.628234 
L 319.976043 290.598704 
L 322.097968 252.853336 
L 324.219893 286.817648 
L 326.341818 264.978791 
L 328.463743 189.8792 
L 330.585668 219.932075 
L 332.707594 217.259259 
L 334.829519 243.335506 
L 336.951444 196.659024 
L 339.073369 196.659024 
L 341.195294 230.080081 
L 343.317219 214.912397 
L 345.439144 253.983307 
L 347.56107 267.803718 
L 349.682995 247.725008 
L 351.80492 114.062512 
L 353.926845 207.784889 
L 356.04877 200.092397 
L 358.170695 198.31052 
L 360.29262 176.015329 
L 362.414545 137.900548 
L 364.536471 121.689814 
L 366.658396 214.086649 
L 370.902246 268.368703 
L 373.024171 256.504011 
L 375.146096 236.599142 
L 377.268021 244.856621 
L 379.389947 244.856621 
L 381.511872 247.681547 
L 383.633797 229.645477 
L 385.755722 242.553219 
L 387.877647 239.815213 
L 389.999572 184.142426 
L 392.121497 206.959142 
L 394.243422 236.468761 
L 396.365348 254.809055 
L 398.487273 234.469582 
L 398.487273 234.469582 
" style="fill:none;stroke:#008000;stroke-linecap:square;stroke-width:1.5;"/>
   </g>
   <g id="patch_3">
    <path d="M 57.6 307.584 
L 57.6 41.472 
" style="fill:none;stroke:#000000;stroke-linecap:square;stroke-linejoin:miter;stroke-width:0.8;"/>
   </g>
   <g id="patch_4">
    <path d="M 414.72 307.584 
L 414.72 41.472 
" style="fill:none;stroke:#000000;stroke-linecap:square;stroke-linejoin:miter;stroke-width:0.8;"/>
   </g>
   <g id="patch_5">
    <path d="M 57.6 307.584 
L 414.72 307.584 
" style="fill:none;stroke:#000000;stroke-linecap:square;stroke-linejoin:miter;stroke-width:0.8;"/>
   </g>
   <g id="patch_6">
    <path d="M 57.6 41.472 
L 414.72 41.472 
" style="fill:none;stroke:#000000;stroke-linecap:square;stroke-linejoin:miter;stroke-width:0.8;"/>
   </g>
   <g id="text_19">
    <!-- Compare quarterly errors for Generated data with -->
    <defs>
     <path d="M 64.40625 67.28125 
L 64.40625 56.890625 
Q 59.421875 61.53125 53.78125 63.8125 
Q 48.140625 66.109375 41.796875 66.109375 
Q 29.296875 66.109375 22.65625 58.46875 
Q 16.015625 50.828125 16.015625 36.375 
Q 16.015625 21.96875 22.65625 14.328125 
Q 29.296875 6.6875 41.796875 6.6875 
Q 48.140625 6.6875 53.78125 8.984375 
Q 59.421875 11.28125 64.40625 15.921875 
L 64.40625 5.609375 
Q 59.234375 2.09375 53.4375 0.328125 
Q 47.65625 -1.421875 41.21875 -1.421875 
Q 24.65625 -1.421875 15.125 8.703125 
Q 5.609375 18.84375 5.609375 36.375 
Q 5.609375 53.953125 15.125 64.078125 
Q 24.65625 74.21875 41.21875 74.21875 
Q 47.75 74.21875 53.53125 72.484375 
Q 59.328125 70.75 64.40625 67.28125 
z
" id="DejaVuSans-67"/>
     <path d="M 52 44.1875 
Q 55.375 50.25 60.0625 53.125 
Q 64.75 56 71.09375 56 
Q 79.640625 56 84.28125 50.015625 
Q 88.921875 44.046875 88.921875 33.015625 
L 88.921875 0 
L 79.890625 0 
L 79.890625 32.71875 
Q 79.890625 40.578125 77.09375 44.375 
Q 74.3125 48.1875 68.609375 48.1875 
Q 61.625 48.1875 57.5625 43.546875 
Q 53.515625 38.921875 53.515625 30.90625 
L 53.515625 0 
L 44.484375 0 
L 44.484375 32.71875 
Q 44.484375 40.625 41.703125 44.40625 
Q 38.921875 48.1875 33.109375 48.1875 
Q 26.21875 48.1875 22.15625 43.53125 
Q 18.109375 38.875 18.109375 30.90625 
L 18.109375 0 
L 9.078125 0 
L 9.078125 54.6875 
L 18.109375 54.6875 
L 18.109375 46.1875 
Q 21.1875 51.21875 25.484375 53.609375 
Q 29.78125 56 35.6875 56 
Q 41.65625 56 45.828125 52.96875 
Q 50 49.953125 52 44.1875 
z
" id="DejaVuSans-109"/>
     <path d="M 18.109375 8.203125 
L 18.109375 -20.796875 
L 9.078125 -20.796875 
L 9.078125 54.6875 
L 18.109375 54.6875 
L 18.109375 46.390625 
Q 20.953125 51.265625 25.265625 53.625 
Q 29.59375 56 35.59375 56 
Q 45.5625 56 51.78125 48.09375 
Q 58.015625 40.1875 58.015625 27.296875 
Q 58.015625 14.40625 51.78125 6.484375 
Q 45.5625 -1.421875 35.59375 -1.421875 
Q 29.59375 -1.421875 25.265625 0.953125 
Q 20.953125 3.328125 18.109375 8.203125 
z
M 48.6875 27.296875 
Q 48.6875 37.203125 44.609375 42.84375 
Q 40.53125 48.484375 33.40625 48.484375 
Q 26.265625 48.484375 22.1875 42.84375 
Q 18.109375 37.203125 18.109375 27.296875 
Q 18.109375 17.390625 22.1875 11.75 
Q 26.265625 6.109375 33.40625 6.109375 
Q 40.53125 6.109375 44.609375 11.75 
Q 48.6875 17.390625 48.6875 27.296875 
z
" id="DejaVuSans-112"/>
     <path d="M 9.421875 75.984375 
L 18.40625 75.984375 
L 18.40625 0 
L 9.421875 0 
z
" id="DejaVuSans-108"/>
     <path d="M 32.171875 -5.078125 
Q 28.375 -14.84375 24.75 -17.8125 
Q 21.140625 -20.796875 15.09375 -20.796875 
L 7.90625 -20.796875 
L 7.90625 -13.28125 
L 13.1875 -13.28125 
Q 16.890625 -13.28125 18.9375 -11.515625 
Q 21 -9.765625 23.484375 -3.21875 
L 25.09375 0.875 
L 2.984375 54.6875 
L 12.5 54.6875 
L 29.59375 11.921875 
L 46.6875 54.6875 
L 56.203125 54.6875 
z
" id="DejaVuSans-121"/>
     <path d="M 44.28125 53.078125 
L 44.28125 44.578125 
Q 40.484375 46.53125 36.375 47.5 
Q 32.28125 48.484375 27.875 48.484375 
Q 21.1875 48.484375 17.84375 46.4375 
Q 14.5 44.390625 14.5 40.28125 
Q 14.5 37.15625 16.890625 35.375 
Q 19.28125 33.59375 26.515625 31.984375 
L 29.59375 31.296875 
Q 39.15625 29.25 43.1875 25.515625 
Q 47.21875 21.78125 47.21875 15.09375 
Q 47.21875 7.46875 41.1875 3.015625 
Q 35.15625 -1.421875 24.609375 -1.421875 
Q 20.21875 -1.421875 15.453125 -0.5625 
Q 10.6875 0.296875 5.421875 2 
L 5.421875 11.28125 
Q 10.40625 8.6875 15.234375 7.390625 
Q 20.0625 6.109375 24.8125 6.109375 
Q 31.15625 6.109375 34.5625 8.28125 
Q 37.984375 10.453125 37.984375 14.40625 
Q 37.984375 18.0625 35.515625 20.015625 
Q 33.0625 21.96875 24.703125 23.78125 
L 21.578125 24.515625 
Q 13.234375 26.265625 9.515625 29.90625 
Q 5.8125 33.546875 5.8125 39.890625 
Q 5.8125 47.609375 11.28125 51.796875 
Q 16.75 56 26.8125 56 
Q 31.78125 56 36.171875 55.265625 
Q 40.578125 54.546875 44.28125 53.078125 
z
" id="DejaVuSans-115"/>
     <path d="M 37.109375 75.984375 
L 37.109375 68.5 
L 28.515625 68.5 
Q 23.6875 68.5 21.796875 66.546875 
Q 19.921875 64.59375 19.921875 59.515625 
L 19.921875 54.6875 
L 34.71875 54.6875 
L 34.71875 47.703125 
L 19.921875 47.703125 
L 19.921875 0 
L 10.890625 0 
L 10.890625 47.703125 
L 2.296875 47.703125 
L 2.296875 54.6875 
L 10.890625 54.6875 
L 10.890625 58.5 
Q 10.890625 67.625 15.140625 71.796875 
Q 19.390625 75.984375 28.609375 75.984375 
z
" id="DejaVuSans-102"/>
     <path d="M 59.515625 10.40625 
L 59.515625 29.984375 
L 43.40625 29.984375 
L 43.40625 38.09375 
L 69.28125 38.09375 
L 69.28125 6.78125 
Q 63.578125 2.734375 56.6875 0.65625 
Q 49.8125 -1.421875 42 -1.421875 
Q 24.90625 -1.421875 15.25 8.5625 
Q 5.609375 18.5625 5.609375 36.375 
Q 5.609375 54.25 15.25 64.234375 
Q 24.90625 74.21875 42 74.21875 
Q 49.125 74.21875 55.546875 72.453125 
Q 61.96875 70.703125 67.390625 67.28125 
L 67.390625 56.78125 
Q 61.921875 61.421875 55.765625 63.765625 
Q 49.609375 66.109375 42.828125 66.109375 
Q 29.4375 66.109375 22.71875 58.640625 
Q 16.015625 51.171875 16.015625 36.375 
Q 16.015625 21.625 22.71875 14.15625 
Q 29.4375 6.6875 42.828125 6.6875 
Q 48.046875 6.6875 52.140625 7.59375 
Q 56.25 8.5 59.515625 10.40625 
z
" id="DejaVuSans-71"/>
     <path d="M 45.40625 46.390625 
L 45.40625 75.984375 
L 54.390625 75.984375 
L 54.390625 0 
L 45.40625 0 
L 45.40625 8.203125 
Q 42.578125 3.328125 38.25 0.953125 
Q 33.9375 -1.421875 27.875 -1.421875 
Q 17.96875 -1.421875 11.734375 6.484375 
Q 5.515625 14.40625 5.515625 27.296875 
Q 5.515625 40.1875 11.734375 48.09375 
Q 17.96875 56 27.875 56 
Q 33.9375 56 38.25 53.625 
Q 42.578125 51.265625 45.40625 46.390625 
z
M 14.796875 27.296875 
Q 14.796875 17.390625 18.875 11.75 
Q 22.953125 6.109375 30.078125 6.109375 
Q 37.203125 6.109375 41.296875 11.75 
Q 45.40625 17.390625 45.40625 27.296875 
Q 45.40625 37.203125 41.296875 42.84375 
Q 37.203125 48.484375 30.078125 48.484375 
Q 22.953125 48.484375 18.875 42.84375 
Q 14.796875 37.203125 14.796875 27.296875 
z
" id="DejaVuSans-100"/>
     <path d="M 4.203125 54.6875 
L 13.1875 54.6875 
L 24.421875 12.015625 
L 35.59375 54.6875 
L 46.1875 54.6875 
L 57.421875 12.015625 
L 68.609375 54.6875 
L 77.59375 54.6875 
L 63.28125 0 
L 52.6875 0 
L 40.921875 44.828125 
L 29.109375 0 
L 18.5 0 
z
" id="DejaVuSans-119"/>
     <path d="M 9.421875 54.6875 
L 18.40625 54.6875 
L 18.40625 0 
L 9.421875 0 
z
M 9.421875 75.984375 
L 18.40625 75.984375 
L 18.40625 64.59375 
L 9.421875 64.59375 
z
" id="DejaVuSans-105"/>
     <path d="M 54.890625 33.015625 
L 54.890625 0 
L 45.90625 0 
L 45.90625 32.71875 
Q 45.90625 40.484375 42.875 44.328125 
Q 39.84375 48.1875 33.796875 48.1875 
Q 26.515625 48.1875 22.3125 43.546875 
Q 18.109375 38.921875 18.109375 30.90625 
L 18.109375 0 
L 9.078125 0 
L 9.078125 75.984375 
L 18.109375 75.984375 
L 18.109375 46.1875 
Q 21.34375 51.125 25.703125 53.5625 
Q 30.078125 56 35.796875 56 
Q 45.21875 56 50.046875 50.171875 
Q 54.890625 44.34375 54.890625 33.015625 
z
" id="DejaVuSans-104"/>
    </defs>
    <g transform="translate(86.046562 8.59725)scale(0.12 -0.12)">
     <use xlink:href="#DejaVuSans-67"/>
     <use x="69.824219" xlink:href="#DejaVuSans-111"/>
     <use x="131.005859" xlink:href="#DejaVuSans-109"/>
     <use x="228.417969" xlink:href="#DejaVuSans-112"/>
     <use x="291.894531" xlink:href="#DejaVuSans-97"/>
     <use x="353.173828" xlink:href="#DejaVuSans-114"/>
     <use x="392.037109" xlink:href="#DejaVuSans-101"/>
     <use x="453.560547" xlink:href="#DejaVuSans-32"/>
     <use x="485.347656" xlink:href="#DejaVuSans-113"/>
     <use x="548.824219" xlink:href="#DejaVuSans-117"/>
     <use x="612.203125" xlink:href="#DejaVuSans-97"/>
     <use x="673.482422" xlink:href="#DejaVuSans-114"/>
     <use x="714.595703" xlink:href="#DejaVuSans-116"/>
     <use x="753.804688" xlink:href="#DejaVuSans-101"/>
     <use x="815.328125" xlink:href="#DejaVuSans-114"/>
     <use x="856.441406" xlink:href="#DejaVuSans-108"/>
     <use x="884.224609" xlink:href="#DejaVuSans-121"/>
     <use x="943.404297" xlink:href="#DejaVuSans-32"/>
     <use x="975.191406" xlink:href="#DejaVuSans-101"/>
     <use x="1036.714844" xlink:href="#DejaVuSans-114"/>
     <use x="1076.078125" xlink:href="#DejaVuSans-114"/>
     <use x="1114.941406" xlink:href="#DejaVuSans-111"/>
     <use x="1176.123047" xlink:href="#DejaVuSans-114"/>
     <use x="1217.236328" xlink:href="#DejaVuSans-115"/>
     <use x="1269.335938" xlink:href="#DejaVuSans-32"/>
     <use x="1301.123047" xlink:href="#DejaVuSans-102"/>
     <use x="1336.328125" xlink:href="#DejaVuSans-111"/>
     <use x="1397.509766" xlink:href="#DejaVuSans-114"/>
     <use x="1438.623047" xlink:href="#DejaVuSans-32"/>
     <use x="1470.410156" xlink:href="#DejaVuSans-71"/>
     <use x="1547.900391" xlink:href="#DejaVuSans-101"/>
     <use x="1609.423828" xlink:href="#DejaVuSans-110"/>
     <use x="1672.802734" xlink:href="#DejaVuSans-101"/>
     <use x="1734.326172" xlink:href="#DejaVuSans-114"/>
     <use x="1775.439453" xlink:href="#DejaVuSans-97"/>
     <use x="1836.71875" xlink:href="#DejaVuSans-116"/>
     <use x="1875.927734" xlink:href="#DejaVuSans-101"/>
     <use x="1937.451172" xlink:href="#DejaVuSans-100"/>
     <use x="2000.927734" xlink:href="#DejaVuSans-32"/>
     <use x="2032.714844" xlink:href="#DejaVuSans-100"/>
     <use x="2096.191406" xlink:href="#DejaVuSans-97"/>
     <use x="2157.470703" xlink:href="#DejaVuSans-116"/>
     <use x="2196.679688" xlink:href="#DejaVuSans-97"/>
     <use x="2257.958984" xlink:href="#DejaVuSans-32"/>
     <use x="2289.746094" xlink:href="#DejaVuSans-119"/>
     <use x="2371.533203" xlink:href="#DejaVuSans-105"/>
     <use x="2399.316406" xlink:href="#DejaVuSans-116"/>
     <use x="2438.525391" xlink:href="#DejaVuSans-104"/>
    </g>
    <!-- Logistic Regression with  -->
    <defs>
     <path d="M 9.8125 72.90625 
L 19.671875 72.90625 
L 19.671875 8.296875 
L 55.171875 8.296875 
L 55.171875 0 
L 9.8125 0 
z
" id="DejaVuSans-76"/>
     <path d="M 45.40625 27.984375 
Q 45.40625 37.75 41.375 43.109375 
Q 37.359375 48.484375 30.078125 48.484375 
Q 22.859375 48.484375 18.828125 43.109375 
Q 14.796875 37.75 14.796875 27.984375 
Q 14.796875 18.265625 18.828125 12.890625 
Q 22.859375 7.515625 30.078125 7.515625 
Q 37.359375 7.515625 41.375 12.890625 
Q 45.40625 18.265625 45.40625 27.984375 
z
M 54.390625 6.78125 
Q 54.390625 -7.171875 48.1875 -13.984375 
Q 42 -20.796875 29.203125 -20.796875 
Q 24.46875 -20.796875 20.265625 -20.09375 
Q 16.0625 -19.390625 12.109375 -17.921875 
L 12.109375 -9.1875 
Q 16.0625 -11.328125 19.921875 -12.34375 
Q 23.78125 -13.375 27.78125 -13.375 
Q 36.625 -13.375 41.015625 -8.765625 
Q 45.40625 -4.15625 45.40625 5.171875 
L 45.40625 9.625 
Q 42.625 4.78125 38.28125 2.390625 
Q 33.9375 0 27.875 0 
Q 17.828125 0 11.671875 7.65625 
Q 5.515625 15.328125 5.515625 27.984375 
Q 5.515625 40.671875 11.671875 48.328125 
Q 17.828125 56 27.875 56 
Q 33.9375 56 38.28125 53.609375 
Q 42.625 51.21875 45.40625 46.390625 
L 45.40625 54.6875 
L 54.390625 54.6875 
z
" id="DejaVuSans-103"/>
     <path d="M 48.78125 52.59375 
L 48.78125 44.1875 
Q 44.96875 46.296875 41.140625 47.34375 
Q 37.3125 48.390625 33.40625 48.390625 
Q 24.65625 48.390625 19.8125 42.84375 
Q 14.984375 37.3125 14.984375 27.296875 
Q 14.984375 17.28125 19.8125 11.734375 
Q 24.65625 6.203125 33.40625 6.203125 
Q 37.3125 6.203125 41.140625 7.25 
Q 44.96875 8.296875 48.78125 10.40625 
L 48.78125 2.09375 
Q 45.015625 0.34375 40.984375 -0.53125 
Q 36.96875 -1.421875 32.421875 -1.421875 
Q 20.0625 -1.421875 12.78125 6.34375 
Q 5.515625 14.109375 5.515625 27.296875 
Q 5.515625 40.671875 12.859375 48.328125 
Q 20.21875 56 33.015625 56 
Q 37.15625 56 41.109375 55.140625 
Q 45.0625 54.296875 48.78125 52.59375 
z
" id="DejaVuSans-99"/>
    </defs>
    <g transform="translate(162.066563 22.034625)scale(0.12 -0.12)">
     <use xlink:href="#DejaVuSans-76"/>
     <use x="53.962891" xlink:href="#DejaVuSans-111"/>
     <use x="115.144531" xlink:href="#DejaVuSans-103"/>
     <use x="178.621094" xlink:href="#DejaVuSans-105"/>
     <use x="206.404297" xlink:href="#DejaVuSans-115"/>
     <use x="258.503906" xlink:href="#DejaVuSans-116"/>
     <use x="297.712891" xlink:href="#DejaVuSans-105"/>
     <use x="325.496094" xlink:href="#DejaVuSans-99"/>
     <use x="380.476562" xlink:href="#DejaVuSans-32"/>
     <use x="412.263672" xlink:href="#DejaVuSans-82"/>
     <use x="477.246094" xlink:href="#DejaVuSans-101"/>
     <use x="538.769531" xlink:href="#DejaVuSans-103"/>
     <use x="602.246094" xlink:href="#DejaVuSans-114"/>
     <use x="641.109375" xlink:href="#DejaVuSans-101"/>
     <use x="702.632812" xlink:href="#DejaVuSans-115"/>
     <use x="754.732422" xlink:href="#DejaVuSans-115"/>
     <use x="806.832031" xlink:href="#DejaVuSans-105"/>
     <use x="834.615234" xlink:href="#DejaVuSans-111"/>
     <use x="895.796875" xlink:href="#DejaVuSans-110"/>
     <use x="959.175781" xlink:href="#DejaVuSans-32"/>
     <use x="990.962891" xlink:href="#DejaVuSans-119"/>
     <use x="1072.75" xlink:href="#DejaVuSans-105"/>
     <use x="1100.533203" xlink:href="#DejaVuSans-116"/>
     <use x="1139.742188" xlink:href="#DejaVuSans-104"/>
     <use x="1203.121094" xlink:href="#DejaVuSans-32"/>
    </g>
    <!--  solver: sag and C = 0.1 -->
    <defs>
     <path d="M 2.984375 54.6875 
L 12.5 54.6875 
L 29.59375 8.796875 
L 46.6875 54.6875 
L 56.203125 54.6875 
L 35.6875 0 
L 23.484375 0 
z
" id="DejaVuSans-118"/>
     <path d="M 11.71875 12.40625 
L 22.015625 12.40625 
L 22.015625 0 
L 11.71875 0 
z
M 11.71875 51.703125 
L 22.015625 51.703125 
L 22.015625 39.3125 
L 11.71875 39.3125 
z
" id="DejaVuSans-58"/>
     <path d="M 10.59375 45.40625 
L 73.1875 45.40625 
L 73.1875 37.203125 
L 10.59375 37.203125 
z
M 10.59375 25.484375 
L 73.1875 25.484375 
L 73.1875 17.1875 
L 10.59375 17.1875 
z
" id="DejaVuSans-61"/>
     <path d="M 10.6875 12.40625 
L 21 12.40625 
L 21 0 
L 10.6875 0 
z
" id="DejaVuSans-46"/>
    </defs>
    <g transform="translate(163.969688 35.472)scale(0.12 -0.12)">
     <use xlink:href="#DejaVuSans-32"/>
     <use x="31.787109" xlink:href="#DejaVuSans-115"/>
     <use x="83.886719" xlink:href="#DejaVuSans-111"/>
     <use x="145.068359" xlink:href="#DejaVuSans-108"/>
     <use x="172.851562" xlink:href="#DejaVuSans-118"/>
     <use x="232.03125" xlink:href="#DejaVuSans-101"/>
     <use x="293.554688" xlink:href="#DejaVuSans-114"/>
     <use x="332.917969" xlink:href="#DejaVuSans-58"/>
     <use x="366.609375" xlink:href="#DejaVuSans-32"/>
     <use x="398.396484" xlink:href="#DejaVuSans-115"/>
     <use x="450.496094" xlink:href="#DejaVuSans-97"/>
     <use x="511.775391" xlink:href="#DejaVuSans-103"/>
     <use x="575.251953" xlink:href="#DejaVuSans-32"/>
     <use x="607.039062" xlink:href="#DejaVuSans-97"/>
     <use x="668.318359" xlink:href="#DejaVuSans-110"/>
     <use x="731.697266" xlink:href="#DejaVuSans-100"/>
     <use x="795.173828" xlink:href="#DejaVuSans-32"/>
     <use x="826.960938" xlink:href="#DejaVuSans-67"/>
     <use x="896.785156" xlink:href="#DejaVuSans-32"/>
     <use x="928.572266" xlink:href="#DejaVuSans-61"/>
     <use x="1012.361328" xlink:href="#DejaVuSans-32"/>
     <use x="1044.148438" xlink:href="#DejaVuSans-48"/>
     <use x="1107.771484" xlink:href="#DejaVuSans-46"/>
     <use x="1139.558594" xlink:href="#DejaVuSans-49"/>
    </g>
   </g>
   <g id="legend_1">
    <g id="patch_7">
     <path d="M 218.998125 93.506375 
L 407.72 93.506375 
Q 409.72 93.506375 409.72 91.506375 
L 409.72 48.472 
Q 409.72 46.472 407.72 46.472 
L 218.998125 46.472 
Q 216.998125 46.472 216.998125 48.472 
L 216.998125 91.506375 
Q 216.998125 93.506375 218.998125 93.506375 
z
" style="fill:#ffffff;opacity:0.8;stroke:#cccccc;stroke-linejoin:miter;"/>
    </g>
    <g id="line2d_21">
     <path d="M 220.998125 54.570438 
L 240.998125 54.570438 
" style="fill:none;stroke:#ff0000;stroke-linecap:square;stroke-width:1.5;"/>
    </g>
    <g id="line2d_22"/>
    <g id="text_20">
     <!-- Guessed Revenue -->
     <g transform="translate(248.998125 58.070438)scale(0.1 -0.1)">
      <use xlink:href="#DejaVuSans-71"/>
      <use x="77.490234" xlink:href="#DejaVuSans-117"/>
      <use x="140.869141" xlink:href="#DejaVuSans-101"/>
      <use x="202.392578" xlink:href="#DejaVuSans-115"/>
      <use x="254.492188" xlink:href="#DejaVuSans-115"/>
      <use x="306.591797" xlink:href="#DejaVuSans-101"/>
      <use x="368.115234" xlink:href="#DejaVuSans-100"/>
      <use x="431.591797" xlink:href="#DejaVuSans-32"/>
      <use x="463.378906" xlink:href="#DejaVuSans-82"/>
      <use x="528.361328" xlink:href="#DejaVuSans-101"/>
      <use x="589.884766" xlink:href="#DejaVuSans-118"/>
      <use x="649.064453" xlink:href="#DejaVuSans-101"/>
      <use x="710.587891" xlink:href="#DejaVuSans-110"/>
      <use x="773.966797" xlink:href="#DejaVuSans-117"/>
      <use x="837.345703" xlink:href="#DejaVuSans-101"/>
     </g>
    </g>
    <g id="line2d_23">
     <path d="M 220.998125 69.248563 
L 240.998125 69.248563 
" style="fill:none;stroke:#0000ff;stroke-linecap:square;stroke-width:1.5;"/>
    </g>
    <g id="line2d_24"/>
    <g id="text_21">
     <!-- Weighted Predicted Revenue -->
     <defs>
      <path d="M 3.328125 72.90625 
L 13.28125 72.90625 
L 28.609375 11.28125 
L 43.890625 72.90625 
L 54.984375 72.90625 
L 70.3125 11.28125 
L 85.59375 72.90625 
L 95.609375 72.90625 
L 77.296875 0 
L 64.890625 0 
L 49.515625 63.28125 
L 33.984375 0 
L 21.578125 0 
z
" id="DejaVuSans-87"/>
      <path d="M 19.671875 64.796875 
L 19.671875 37.40625 
L 32.078125 37.40625 
Q 38.96875 37.40625 42.71875 40.96875 
Q 46.484375 44.53125 46.484375 51.125 
Q 46.484375 57.671875 42.71875 61.234375 
Q 38.96875 64.796875 32.078125 64.796875 
z
M 9.8125 72.90625 
L 32.078125 72.90625 
Q 44.34375 72.90625 50.609375 67.359375 
Q 56.890625 61.8125 56.890625 51.125 
Q 56.890625 40.328125 50.609375 34.8125 
Q 44.34375 29.296875 32.078125 29.296875 
L 19.671875 29.296875 
L 19.671875 0 
L 9.8125 0 
z
" id="DejaVuSans-80"/>
     </defs>
     <g transform="translate(248.998125 72.748563)scale(0.1 -0.1)">
      <use xlink:href="#DejaVuSans-87"/>
      <use x="93.001953" xlink:href="#DejaVuSans-101"/>
      <use x="154.525391" xlink:href="#DejaVuSans-105"/>
      <use x="182.308594" xlink:href="#DejaVuSans-103"/>
      <use x="245.785156" xlink:href="#DejaVuSans-104"/>
      <use x="309.164062" xlink:href="#DejaVuSans-116"/>
      <use x="348.373047" xlink:href="#DejaVuSans-101"/>
      <use x="409.896484" xlink:href="#DejaVuSans-100"/>
      <use x="473.373047" xlink:href="#DejaVuSans-32"/>
      <use x="505.160156" xlink:href="#DejaVuSans-80"/>
      <use x="563.712891" xlink:href="#DejaVuSans-114"/>
      <use x="602.576172" xlink:href="#DejaVuSans-101"/>
      <use x="664.099609" xlink:href="#DejaVuSans-100"/>
      <use x="727.576172" xlink:href="#DejaVuSans-105"/>
      <use x="755.359375" xlink:href="#DejaVuSans-99"/>
      <use x="810.339844" xlink:href="#DejaVuSans-116"/>
      <use x="849.548828" xlink:href="#DejaVuSans-101"/>
      <use x="911.072266" xlink:href="#DejaVuSans-100"/>
      <use x="974.548828" xlink:href="#DejaVuSans-32"/>
      <use x="1006.335938" xlink:href="#DejaVuSans-82"/>
      <use x="1071.318359" xlink:href="#DejaVuSans-101"/>
      <use x="1132.841797" xlink:href="#DejaVuSans-118"/>
      <use x="1192.021484" xlink:href="#DejaVuSans-101"/>
      <use x="1253.544922" xlink:href="#DejaVuSans-110"/>
      <use x="1316.923828" xlink:href="#DejaVuSans-117"/>
      <use x="1380.302734" xlink:href="#DejaVuSans-101"/>
     </g>
    </g>
    <g id="line2d_25">
     <path d="M 220.998125 83.926688 
L 240.998125 83.926688 
" style="fill:none;stroke:#008000;stroke-linecap:square;stroke-width:1.5;"/>
    </g>
    <g id="line2d_26"/>
    <g id="text_22">
     <!-- Unweighted Predicted Revenue -->
     <defs>
      <path d="M 8.6875 72.90625 
L 18.609375 72.90625 
L 18.609375 28.609375 
Q 18.609375 16.890625 22.84375 11.734375 
Q 27.09375 6.59375 36.625 6.59375 
Q 46.09375 6.59375 50.34375 11.734375 
Q 54.59375 16.890625 54.59375 28.609375 
L 54.59375 72.90625 
L 64.5 72.90625 
L 64.5 27.390625 
Q 64.5 13.140625 57.4375 5.859375 
Q 50.390625 -1.421875 36.625 -1.421875 
Q 22.796875 -1.421875 15.734375 5.859375 
Q 8.6875 13.140625 8.6875 27.390625 
z
" id="DejaVuSans-85"/>
     </defs>
     <g transform="translate(248.998125 87.426688)scale(0.1 -0.1)">
      <use xlink:href="#DejaVuSans-85"/>
      <use x="73.193359" xlink:href="#DejaVuSans-110"/>
      <use x="136.572266" xlink:href="#DejaVuSans-119"/>
      <use x="218.359375" xlink:href="#DejaVuSans-101"/>
      <use x="279.882812" xlink:href="#DejaVuSans-105"/>
      <use x="307.666016" xlink:href="#DejaVuSans-103"/>
      <use x="371.142578" xlink:href="#DejaVuSans-104"/>
      <use x="434.521484" xlink:href="#DejaVuSans-116"/>
      <use x="473.730469" xlink:href="#DejaVuSans-101"/>
      <use x="535.253906" xlink:href="#DejaVuSans-100"/>
      <use x="598.730469" xlink:href="#DejaVuSans-32"/>
      <use x="630.517578" xlink:href="#DejaVuSans-80"/>
      <use x="689.070312" xlink:href="#DejaVuSans-114"/>
      <use x="727.933594" xlink:href="#DejaVuSans-101"/>
      <use x="789.457031" xlink:href="#DejaVuSans-100"/>
      <use x="852.933594" xlink:href="#DejaVuSans-105"/>
      <use x="880.716797" xlink:href="#DejaVuSans-99"/>
      <use x="935.697266" xlink:href="#DejaVuSans-116"/>
      <use x="974.90625" xlink:href="#DejaVuSans-101"/>
      <use x="1036.429688" xlink:href="#DejaVuSans-100"/>
      <use x="1099.90625" xlink:href="#DejaVuSans-32"/>
      <use x="1131.693359" xlink:href="#DejaVuSans-82"/>
      <use x="1196.675781" xlink:href="#DejaVuSans-101"/>
      <use x="1258.199219" xlink:href="#DejaVuSans-118"/>
      <use x="1317.378906" xlink:href="#DejaVuSans-101"/>
      <use x="1378.902344" xlink:href="#DejaVuSans-110"/>
      <use x="1442.28125" xlink:href="#DejaVuSans-117"/>
      <use x="1505.660156" xlink:href="#DejaVuSans-101"/>
     </g>
    </g>
   </g>
  </g>
 </g>
 <defs>
  <clipPath id="p43758f6f9b">
   <rect height="266.112" width="357.12" x="57.6" y="41.472"/>
  </clipPath>
 </defs>
</svg>
