<?xml version="1.0" encoding="utf-8" standalone="no"?>
<!DOCTYPE svg PUBLIC "-//W3C//DTD SVG 1.1//EN"
  "http://www.w3.org/Graphics/SVG/1.1/DTD/svg11.dtd">
<!-- Created with matplotlib (https://matplotlib.org/) -->
<svg height="345.6pt" version="1.1" viewBox="0 0 460.8 345.6" width="460.8pt" xmlns="http://www.w3.org/2000/svg" xmlns:xlink="http://www.w3.org/1999/xlink">
 <defs>
  <style type="text/css">
*{stroke-linecap:butt;stroke-linejoin:round;}
  </style>
 </defs>
 <g id="figure_1">
  <g id="patch_1">
   <path d="M 0 345.6 
L 460.8 345.6 
L 460.8 0 
L 0 0 
z
" style="fill:#ffffff;"/>
  </g>
  <g id="axes_1">
   <g id="patch_2">
    <path d="M 57.6 307.584 
L 414.72 307.584 
L 414.72 41.472 
L 57.6 41.472 
z
" style="fill:#ffffff;"/>
   </g>
   <g id="matplotlib.axis_1">
    <g id="xtick_1">
     <g id="line2d_1">
      <defs>
       <path d="M 0 0 
L 0 3.5 
" id="ma5056c6f12" style="stroke:#000000;stroke-width:0.8;"/>
      </defs>
      <g>
       <use style="stroke:#000000;stroke-width:0.8;" x="73.832727" xlink:href="#ma5056c6f12" y="307.584"/>
      </g>
     </g>
     <g id="text_1">
      <!-- 0 -->
      <defs>
       <path d="M 31.78125 66.40625 
Q 24.171875 66.40625 20.328125 58.90625 
Q 16.5 51.421875 16.5 36.375 
Q 16.5 21.390625 20.328125 13.890625 
Q 24.171875 6.390625 31.78125 6.390625 
Q 39.453125 6.390625 43.28125 13.890625 
Q 47.125 21.390625 47.125 36.375 
Q 47.125 51.421875 43.28125 58.90625 
Q 39.453125 66.40625 31.78125 66.40625 
z
M 31.78125 74.21875 
Q 44.046875 74.21875 50.515625 64.515625 
Q 56.984375 54.828125 56.984375 36.375 
Q 56.984375 17.96875 50.515625 8.265625 
Q 44.046875 -1.421875 31.78125 -1.421875 
Q 19.53125 -1.421875 13.0625 8.265625 
Q 6.59375 17.96875 6.59375 36.375 
Q 6.59375 54.828125 13.0625 64.515625 
Q 19.53125 74.21875 31.78125 74.21875 
z
" id="DejaVuSans-48"/>
      </defs>
      <g transform="translate(70.651477 322.182437)scale(0.1 -0.1)">
       <use xlink:href="#DejaVuSans-48"/>
      </g>
     </g>
    </g>
    <g id="xtick_2">
     <g id="line2d_2">
      <g>
       <use style="stroke:#000000;stroke-width:0.8;" x="116.27123" xlink:href="#ma5056c6f12" y="307.584"/>
      </g>
     </g>
     <g id="text_2">
      <!-- 20 -->
      <defs>
       <path d="M 19.1875 8.296875 
L 53.609375 8.296875 
L 53.609375 0 
L 7.328125 0 
L 7.328125 8.296875 
Q 12.9375 14.109375 22.625 23.890625 
Q 32.328125 33.6875 34.8125 36.53125 
Q 39.546875 41.84375 41.421875 45.53125 
Q 43.3125 49.21875 43.3125 52.78125 
Q 43.3125 58.59375 39.234375 62.25 
Q 35.15625 65.921875 28.609375 65.921875 
Q 23.96875 65.921875 18.8125 64.3125 
Q 13.671875 62.703125 7.8125 59.421875 
L 7.8125 69.390625 
Q 13.765625 71.78125 18.9375 73 
Q 24.125 74.21875 28.421875 74.21875 
Q 39.75 74.21875 46.484375 68.546875 
Q 53.21875 62.890625 53.21875 53.421875 
Q 53.21875 48.921875 51.53125 44.890625 
Q 49.859375 40.875 45.40625 35.40625 
Q 44.1875 33.984375 37.640625 27.21875 
Q 31.109375 20.453125 19.1875 8.296875 
z
" id="DejaVuSans-50"/>
      </defs>
      <g transform="translate(109.90873 322.182437)scale(0.1 -0.1)">
       <use xlink:href="#DejaVuSans-50"/>
       <use x="63.623047" xlink:href="#DejaVuSans-48"/>
      </g>
     </g>
    </g>
    <g id="xtick_3">
     <g id="line2d_3">
      <g>
       <use style="stroke:#000000;stroke-width:0.8;" x="158.709733" xlink:href="#ma5056c6f12" y="307.584"/>
      </g>
     </g>
     <g id="text_3">
      <!-- 40 -->
      <defs>
       <path d="M 37.796875 64.3125 
L 12.890625 25.390625 
L 37.796875 25.390625 
z
M 35.203125 72.90625 
L 47.609375 72.90625 
L 47.609375 25.390625 
L 58.015625 25.390625 
L 58.015625 17.1875 
L 47.609375 17.1875 
L 47.609375 0 
L 37.796875 0 
L 37.796875 17.1875 
L 4.890625 17.1875 
L 4.890625 26.703125 
z
" id="DejaVuSans-52"/>
      </defs>
      <g transform="translate(152.347233 322.182437)scale(0.1 -0.1)">
       <use xlink:href="#DejaVuSans-52"/>
       <use x="63.623047" xlink:href="#DejaVuSans-48"/>
      </g>
     </g>
    </g>
    <g id="xtick_4">
     <g id="line2d_4">
      <g>
       <use style="stroke:#000000;stroke-width:0.8;" x="201.148235" xlink:href="#ma5056c6f12" y="307.584"/>
      </g>
     </g>
     <g id="text_4">
      <!-- 60 -->
      <defs>
       <path d="M 33.015625 40.375 
Q 26.375 40.375 22.484375 35.828125 
Q 18.609375 31.296875 18.609375 23.390625 
Q 18.609375 15.53125 22.484375 10.953125 
Q 26.375 6.390625 33.015625 6.390625 
Q 39.65625 6.390625 43.53125 10.953125 
Q 47.40625 15.53125 47.40625 23.390625 
Q 47.40625 31.296875 43.53125 35.828125 
Q 39.65625 40.375 33.015625 40.375 
z
M 52.59375 71.296875 
L 52.59375 62.3125 
Q 48.875 64.0625 45.09375 64.984375 
Q 41.3125 65.921875 37.59375 65.921875 
Q 27.828125 65.921875 22.671875 59.328125 
Q 17.53125 52.734375 16.796875 39.40625 
Q 19.671875 43.65625 24.015625 45.921875 
Q 28.375 48.1875 33.59375 48.1875 
Q 44.578125 48.1875 50.953125 41.515625 
Q 57.328125 34.859375 57.328125 23.390625 
Q 57.328125 12.15625 50.6875 5.359375 
Q 44.046875 -1.421875 33.015625 -1.421875 
Q 20.359375 -1.421875 13.671875 8.265625 
Q 6.984375 17.96875 6.984375 36.375 
Q 6.984375 53.65625 15.1875 63.9375 
Q 23.390625 74.21875 37.203125 74.21875 
Q 40.921875 74.21875 44.703125 73.484375 
Q 48.484375 72.75 52.59375 71.296875 
z
" id="DejaVuSans-54"/>
      </defs>
      <g transform="translate(194.785735 322.182437)scale(0.1 -0.1)">
       <use xlink:href="#DejaVuSans-54"/>
       <use x="63.623047" xlink:href="#DejaVuSans-48"/>
      </g>
     </g>
    </g>
    <g id="xtick_5">
     <g id="line2d_5">
      <g>
       <use style="stroke:#000000;stroke-width:0.8;" x="243.586738" xlink:href="#ma5056c6f12" y="307.584"/>
      </g>
     </g>
     <g id="text_5">
      <!-- 80 -->
      <defs>
       <path d="M 31.78125 34.625 
Q 24.75 34.625 20.71875 30.859375 
Q 16.703125 27.09375 16.703125 20.515625 
Q 16.703125 13.921875 20.71875 10.15625 
Q 24.75 6.390625 31.78125 6.390625 
Q 38.8125 6.390625 42.859375 10.171875 
Q 46.921875 13.96875 46.921875 20.515625 
Q 46.921875 27.09375 42.890625 30.859375 
Q 38.875 34.625 31.78125 34.625 
z
M 21.921875 38.8125 
Q 15.578125 40.375 12.03125 44.71875 
Q 8.5 49.078125 8.5 55.328125 
Q 8.5 64.0625 14.71875 69.140625 
Q 20.953125 74.21875 31.78125 74.21875 
Q 42.671875 74.21875 48.875 69.140625 
Q 55.078125 64.0625 55.078125 55.328125 
Q 55.078125 49.078125 51.53125 44.71875 
Q 48 40.375 41.703125 38.8125 
Q 48.828125 37.15625 52.796875 32.3125 
Q 56.78125 27.484375 56.78125 20.515625 
Q 56.78125 9.90625 50.3125 4.234375 
Q 43.84375 -1.421875 31.78125 -1.421875 
Q 19.734375 -1.421875 13.25 4.234375 
Q 6.78125 9.90625 6.78125 20.515625 
Q 6.78125 27.484375 10.78125 32.3125 
Q 14.796875 37.15625 21.921875 38.8125 
z
M 18.3125 54.390625 
Q 18.3125 48.734375 21.84375 45.5625 
Q 25.390625 42.390625 31.78125 42.390625 
Q 38.140625 42.390625 41.71875 45.5625 
Q 45.3125 48.734375 45.3125 54.390625 
Q 45.3125 60.0625 41.71875 63.234375 
Q 38.140625 66.40625 31.78125 66.40625 
Q 25.390625 66.40625 21.84375 63.234375 
Q 18.3125 60.0625 18.3125 54.390625 
z
" id="DejaVuSans-56"/>
      </defs>
      <g transform="translate(237.224238 322.182437)scale(0.1 -0.1)">
       <use xlink:href="#DejaVuSans-56"/>
       <use x="63.623047" xlink:href="#DejaVuSans-48"/>
      </g>
     </g>
    </g>
    <g id="xtick_6">
     <g id="line2d_6">
      <g>
       <use style="stroke:#000000;stroke-width:0.8;" x="286.025241" xlink:href="#ma5056c6f12" y="307.584"/>
      </g>
     </g>
     <g id="text_6">
      <!-- 100 -->
      <defs>
       <path d="M 12.40625 8.296875 
L 28.515625 8.296875 
L 28.515625 63.921875 
L 10.984375 60.40625 
L 10.984375 69.390625 
L 28.421875 72.90625 
L 38.28125 72.90625 
L 38.28125 8.296875 
L 54.390625 8.296875 
L 54.390625 0 
L 12.40625 0 
z
" id="DejaVuSans-49"/>
      </defs>
      <g transform="translate(276.481491 322.182437)scale(0.1 -0.1)">
       <use xlink:href="#DejaVuSans-49"/>
       <use x="63.623047" xlink:href="#DejaVuSans-48"/>
       <use x="127.246094" xlink:href="#DejaVuSans-48"/>
      </g>
     </g>
    </g>
    <g id="xtick_7">
     <g id="line2d_7">
      <g>
       <use style="stroke:#000000;stroke-width:0.8;" x="328.463743" xlink:href="#ma5056c6f12" y="307.584"/>
      </g>
     </g>
     <g id="text_7">
      <!-- 120 -->
      <g transform="translate(318.919993 322.182437)scale(0.1 -0.1)">
       <use xlink:href="#DejaVuSans-49"/>
       <use x="63.623047" xlink:href="#DejaVuSans-50"/>
       <use x="127.246094" xlink:href="#DejaVuSans-48"/>
      </g>
     </g>
    </g>
    <g id="xtick_8">
     <g id="line2d_8">
      <g>
       <use style="stroke:#000000;stroke-width:0.8;" x="370.902246" xlink:href="#ma5056c6f12" y="307.584"/>
      </g>
     </g>
     <g id="text_8">
      <!-- 140 -->
      <g transform="translate(361.358496 322.182437)scale(0.1 -0.1)">
       <use xlink:href="#DejaVuSans-49"/>
       <use x="63.623047" xlink:href="#DejaVuSans-52"/>
       <use x="127.246094" xlink:href="#DejaVuSans-48"/>
      </g>
     </g>
    </g>
    <g id="xtick_9">
     <g id="line2d_9">
      <g>
       <use style="stroke:#000000;stroke-width:0.8;" x="413.340749" xlink:href="#ma5056c6f12" y="307.584"/>
      </g>
     </g>
     <g id="text_9">
      <!-- 160 -->
      <g transform="translate(403.796999 322.182437)scale(0.1 -0.1)">
       <use xlink:href="#DejaVuSans-49"/>
       <use x="63.623047" xlink:href="#DejaVuSans-54"/>
       <use x="127.246094" xlink:href="#DejaVuSans-48"/>
      </g>
     </g>
    </g>
   </g>
   <g id="matplotlib.axis_2">
    <g id="ytick_1">
     <g id="line2d_10">
      <defs>
       <path d="M 0 0 
L -3.5 0 
" id="m12526ff37a" style="stroke:#000000;stroke-width:0.8;"/>
      </defs>
      <g>
       <use style="stroke:#000000;stroke-width:0.8;" x="57.6" xlink:href="#m12526ff37a" y="295.488"/>
      </g>
     </g>
     <g id="text_10">
      <!-- 0 -->
      <g transform="translate(44.2375 299.287219)scale(0.1 -0.1)">
       <use xlink:href="#DejaVuSans-48"/>
      </g>
     </g>
    </g>
    <g id="ytick_2">
     <g id="line2d_11">
      <g>
       <use style="stroke:#000000;stroke-width:0.8;" x="57.6" xlink:href="#m12526ff37a" y="262.560503"/>
      </g>
     </g>
     <g id="text_11">
      <!-- 25000 -->
      <defs>
       <path d="M 10.796875 72.90625 
L 49.515625 72.90625 
L 49.515625 64.59375 
L 19.828125 64.59375 
L 19.828125 46.734375 
Q 21.96875 47.46875 24.109375 47.828125 
Q 26.265625 48.1875 28.421875 48.1875 
Q 40.625 48.1875 47.75 41.5 
Q 54.890625 34.8125 54.890625 23.390625 
Q 54.890625 11.625 47.5625 5.09375 
Q 40.234375 -1.421875 26.90625 -1.421875 
Q 22.3125 -1.421875 17.546875 -0.640625 
Q 12.796875 0.140625 7.71875 1.703125 
L 7.71875 11.625 
Q 12.109375 9.234375 16.796875 8.0625 
Q 21.484375 6.890625 26.703125 6.890625 
Q 35.15625 6.890625 40.078125 11.328125 
Q 45.015625 15.765625 45.015625 23.390625 
Q 45.015625 31 40.078125 35.4375 
Q 35.15625 39.890625 26.703125 39.890625 
Q 22.75 39.890625 18.8125 39.015625 
Q 14.890625 38.140625 10.796875 36.28125 
z
" id="DejaVuSans-53"/>
      </defs>
      <g transform="translate(18.7875 266.359722)scale(0.1 -0.1)">
       <use xlink:href="#DejaVuSans-50"/>
       <use x="63.623047" xlink:href="#DejaVuSans-53"/>
       <use x="127.246094" xlink:href="#DejaVuSans-48"/>
       <use x="190.869141" xlink:href="#DejaVuSans-48"/>
       <use x="254.492188" xlink:href="#DejaVuSans-48"/>
      </g>
     </g>
    </g>
    <g id="ytick_3">
     <g id="line2d_12">
      <g>
       <use style="stroke:#000000;stroke-width:0.8;" x="57.6" xlink:href="#m12526ff37a" y="229.633006"/>
      </g>
     </g>
     <g id="text_12">
      <!-- 50000 -->
      <g transform="translate(18.7875 233.432225)scale(0.1 -0.1)">
       <use xlink:href="#DejaVuSans-53"/>
       <use x="63.623047" xlink:href="#DejaVuSans-48"/>
       <use x="127.246094" xlink:href="#DejaVuSans-48"/>
       <use x="190.869141" xlink:href="#DejaVuSans-48"/>
       <use x="254.492188" xlink:href="#DejaVuSans-48"/>
      </g>
     </g>
    </g>
    <g id="ytick_4">
     <g id="line2d_13">
      <g>
       <use style="stroke:#000000;stroke-width:0.8;" x="57.6" xlink:href="#m12526ff37a" y="196.705509"/>
      </g>
     </g>
     <g id="text_13">
      <!-- 75000 -->
      <defs>
       <path d="M 8.203125 72.90625 
L 55.078125 72.90625 
L 55.078125 68.703125 
L 28.609375 0 
L 18.3125 0 
L 43.21875 64.59375 
L 8.203125 64.59375 
z
" id="DejaVuSans-55"/>
      </defs>
      <g transform="translate(18.7875 200.504728)scale(0.1 -0.1)">
       <use xlink:href="#DejaVuSans-55"/>
       <use x="63.623047" xlink:href="#DejaVuSans-53"/>
       <use x="127.246094" xlink:href="#DejaVuSans-48"/>
       <use x="190.869141" xlink:href="#DejaVuSans-48"/>
       <use x="254.492188" xlink:href="#DejaVuSans-48"/>
      </g>
     </g>
    </g>
    <g id="ytick_5">
     <g id="line2d_14">
      <g>
       <use style="stroke:#000000;stroke-width:0.8;" x="57.6" xlink:href="#m12526ff37a" y="163.778013"/>
      </g>
     </g>
     <g id="text_14">
      <!-- 100000 -->
      <g transform="translate(12.425 167.577231)scale(0.1 -0.1)">
       <use xlink:href="#DejaVuSans-49"/>
       <use x="63.623047" xlink:href="#DejaVuSans-48"/>
       <use x="127.246094" xlink:href="#DejaVuSans-48"/>
       <use x="190.869141" xlink:href="#DejaVuSans-48"/>
       <use x="254.492188" xlink:href="#DejaVuSans-48"/>
       <use x="318.115234" xlink:href="#DejaVuSans-48"/>
      </g>
     </g>
    </g>
    <g id="ytick_6">
     <g id="line2d_15">
      <g>
       <use style="stroke:#000000;stroke-width:0.8;" x="57.6" xlink:href="#m12526ff37a" y="130.850516"/>
      </g>
     </g>
     <g id="text_15">
      <!-- 125000 -->
      <g transform="translate(12.425 134.649734)scale(0.1 -0.1)">
       <use xlink:href="#DejaVuSans-49"/>
       <use x="63.623047" xlink:href="#DejaVuSans-50"/>
       <use x="127.246094" xlink:href="#DejaVuSans-53"/>
       <use x="190.869141" xlink:href="#DejaVuSans-48"/>
       <use x="254.492188" xlink:href="#DejaVuSans-48"/>
       <use x="318.115234" xlink:href="#DejaVuSans-48"/>
      </g>
     </g>
    </g>
    <g id="ytick_7">
     <g id="line2d_16">
      <g>
       <use style="stroke:#000000;stroke-width:0.8;" x="57.6" xlink:href="#m12526ff37a" y="97.923019"/>
      </g>
     </g>
     <g id="text_16">
      <!-- 150000 -->
      <g transform="translate(12.425 101.722238)scale(0.1 -0.1)">
       <use xlink:href="#DejaVuSans-49"/>
       <use x="63.623047" xlink:href="#DejaVuSans-53"/>
       <use x="127.246094" xlink:href="#DejaVuSans-48"/>
       <use x="190.869141" xlink:href="#DejaVuSans-48"/>
       <use x="254.492188" xlink:href="#DejaVuSans-48"/>
       <use x="318.115234" xlink:href="#DejaVuSans-48"/>
      </g>
     </g>
    </g>
    <g id="ytick_8">
     <g id="line2d_17">
      <g>
       <use style="stroke:#000000;stroke-width:0.8;" x="57.6" xlink:href="#m12526ff37a" y="64.995522"/>
      </g>
     </g>
     <g id="text_17">
      <!-- 175000 -->
      <g transform="translate(12.425 68.794741)scale(0.1 -0.1)">
       <use xlink:href="#DejaVuSans-49"/>
       <use x="63.623047" xlink:href="#DejaVuSans-55"/>
       <use x="127.246094" xlink:href="#DejaVuSans-53"/>
       <use x="190.869141" xlink:href="#DejaVuSans-48"/>
       <use x="254.492188" xlink:href="#DejaVuSans-48"/>
       <use x="318.115234" xlink:href="#DejaVuSans-48"/>
      </g>
     </g>
    </g>
    <g id="text_18">
     <!-- Mean Root Square Error -->
     <defs>
      <path d="M 9.8125 72.90625 
L 24.515625 72.90625 
L 43.109375 23.296875 
L 61.8125 72.90625 
L 76.515625 72.90625 
L 76.515625 0 
L 66.890625 0 
L 66.890625 64.015625 
L 48.09375 14.015625 
L 38.1875 14.015625 
L 19.390625 64.015625 
L 19.390625 0 
L 9.8125 0 
z
" id="DejaVuSans-77"/>
      <path d="M 56.203125 29.59375 
L 56.203125 25.203125 
L 14.890625 25.203125 
Q 15.484375 15.921875 20.484375 11.0625 
Q 25.484375 6.203125 34.421875 6.203125 
Q 39.59375 6.203125 44.453125 7.46875 
Q 49.3125 8.734375 54.109375 11.28125 
L 54.109375 2.78125 
Q 49.265625 0.734375 44.1875 -0.34375 
Q 39.109375 -1.421875 33.890625 -1.421875 
Q 20.796875 -1.421875 13.15625 6.1875 
Q 5.515625 13.8125 5.515625 26.8125 
Q 5.515625 40.234375 12.765625 48.109375 
Q 20.015625 56 32.328125 56 
Q 43.359375 56 49.78125 48.890625 
Q 56.203125 41.796875 56.203125 29.59375 
z
M 47.21875 32.234375 
Q 47.125 39.59375 43.09375 43.984375 
Q 39.0625 48.390625 32.421875 48.390625 
Q 24.90625 48.390625 20.390625 44.140625 
Q 15.875 39.890625 15.1875 32.171875 
z
" id="DejaVuSans-101"/>
      <path d="M 34.28125 27.484375 
Q 23.390625 27.484375 19.1875 25 
Q 14.984375 22.515625 14.984375 16.5 
Q 14.984375 11.71875 18.140625 8.90625 
Q 21.296875 6.109375 26.703125 6.109375 
Q 34.1875 6.109375 38.703125 11.40625 
Q 43.21875 16.703125 43.21875 25.484375 
L 43.21875 27.484375 
z
M 52.203125 31.203125 
L 52.203125 0 
L 43.21875 0 
L 43.21875 8.296875 
Q 40.140625 3.328125 35.546875 0.953125 
Q 30.953125 -1.421875 24.3125 -1.421875 
Q 15.921875 -1.421875 10.953125 3.296875 
Q 6 8.015625 6 15.921875 
Q 6 25.140625 12.171875 29.828125 
Q 18.359375 34.515625 30.609375 34.515625 
L 43.21875 34.515625 
L 43.21875 35.40625 
Q 43.21875 41.609375 39.140625 45 
Q 35.0625 48.390625 27.6875 48.390625 
Q 23 48.390625 18.546875 47.265625 
Q 14.109375 46.140625 10.015625 43.890625 
L 10.015625 52.203125 
Q 14.9375 54.109375 19.578125 55.046875 
Q 24.21875 56 28.609375 56 
Q 40.484375 56 46.34375 49.84375 
Q 52.203125 43.703125 52.203125 31.203125 
z
" id="DejaVuSans-97"/>
      <path d="M 54.890625 33.015625 
L 54.890625 0 
L 45.90625 0 
L 45.90625 32.71875 
Q 45.90625 40.484375 42.875 44.328125 
Q 39.84375 48.1875 33.796875 48.1875 
Q 26.515625 48.1875 22.3125 43.546875 
Q 18.109375 38.921875 18.109375 30.90625 
L 18.109375 0 
L 9.078125 0 
L 9.078125 54.6875 
L 18.109375 54.6875 
L 18.109375 46.1875 
Q 21.34375 51.125 25.703125 53.5625 
Q 30.078125 56 35.796875 56 
Q 45.21875 56 50.046875 50.171875 
Q 54.890625 44.34375 54.890625 33.015625 
z
" id="DejaVuSans-110"/>
      <path id="DejaVuSans-32"/>
      <path d="M 44.390625 34.1875 
Q 47.5625 33.109375 50.5625 29.59375 
Q 53.5625 26.078125 56.59375 19.921875 
L 66.609375 0 
L 56 0 
L 46.6875 18.703125 
Q 43.0625 26.03125 39.671875 28.421875 
Q 36.28125 30.8125 30.421875 30.8125 
L 19.671875 30.8125 
L 19.671875 0 
L 9.8125 0 
L 9.8125 72.90625 
L 32.078125 72.90625 
Q 44.578125 72.90625 50.734375 67.671875 
Q 56.890625 62.453125 56.890625 51.90625 
Q 56.890625 45.015625 53.6875 40.46875 
Q 50.484375 35.9375 44.390625 34.1875 
z
M 19.671875 64.796875 
L 19.671875 38.921875 
L 32.078125 38.921875 
Q 39.203125 38.921875 42.84375 42.21875 
Q 46.484375 45.515625 46.484375 51.90625 
Q 46.484375 58.296875 42.84375 61.546875 
Q 39.203125 64.796875 32.078125 64.796875 
z
" id="DejaVuSans-82"/>
      <path d="M 30.609375 48.390625 
Q 23.390625 48.390625 19.1875 42.75 
Q 14.984375 37.109375 14.984375 27.296875 
Q 14.984375 17.484375 19.15625 11.84375 
Q 23.34375 6.203125 30.609375 6.203125 
Q 37.796875 6.203125 41.984375 11.859375 
Q 46.1875 17.53125 46.1875 27.296875 
Q 46.1875 37.015625 41.984375 42.703125 
Q 37.796875 48.390625 30.609375 48.390625 
z
M 30.609375 56 
Q 42.328125 56 49.015625 48.375 
Q 55.71875 40.765625 55.71875 27.296875 
Q 55.71875 13.875 49.015625 6.21875 
Q 42.328125 -1.421875 30.609375 -1.421875 
Q 18.84375 -1.421875 12.171875 6.21875 
Q 5.515625 13.875 5.515625 27.296875 
Q 5.515625 40.765625 12.171875 48.375 
Q 18.84375 56 30.609375 56 
z
" id="DejaVuSans-111"/>
      <path d="M 18.3125 70.21875 
L 18.3125 54.6875 
L 36.8125 54.6875 
L 36.8125 47.703125 
L 18.3125 47.703125 
L 18.3125 18.015625 
Q 18.3125 11.328125 20.140625 9.421875 
Q 21.96875 7.515625 27.59375 7.515625 
L 36.8125 7.515625 
L 36.8125 0 
L 27.59375 0 
Q 17.1875 0 13.234375 3.875 
Q 9.28125 7.765625 9.28125 18.015625 
L 9.28125 47.703125 
L 2.6875 47.703125 
L 2.6875 54.6875 
L 9.28125 54.6875 
L 9.28125 70.21875 
z
" id="DejaVuSans-116"/>
      <path d="M 53.515625 70.515625 
L 53.515625 60.890625 
Q 47.90625 63.578125 42.921875 64.890625 
Q 37.9375 66.21875 33.296875 66.21875 
Q 25.25 66.21875 20.875 63.09375 
Q 16.5 59.96875 16.5 54.203125 
Q 16.5 49.359375 19.40625 46.890625 
Q 22.3125 44.4375 30.421875 42.921875 
L 36.375 41.703125 
Q 47.40625 39.59375 52.65625 34.296875 
Q 57.90625 29 57.90625 20.125 
Q 57.90625 9.515625 50.796875 4.046875 
Q 43.703125 -1.421875 29.984375 -1.421875 
Q 24.8125 -1.421875 18.96875 -0.25 
Q 13.140625 0.921875 6.890625 3.21875 
L 6.890625 13.375 
Q 12.890625 10.015625 18.65625 8.296875 
Q 24.421875 6.59375 29.984375 6.59375 
Q 38.421875 6.59375 43.015625 9.90625 
Q 47.609375 13.234375 47.609375 19.390625 
Q 47.609375 24.75 44.3125 27.78125 
Q 41.015625 30.8125 33.5 32.328125 
L 27.484375 33.5 
Q 16.453125 35.6875 11.515625 40.375 
Q 6.59375 45.0625 6.59375 53.421875 
Q 6.59375 63.09375 13.40625 68.65625 
Q 20.21875 74.21875 32.171875 74.21875 
Q 37.3125 74.21875 42.625 73.28125 
Q 47.953125 72.359375 53.515625 70.515625 
z
" id="DejaVuSans-83"/>
      <path d="M 14.796875 27.296875 
Q 14.796875 17.390625 18.875 11.75 
Q 22.953125 6.109375 30.078125 6.109375 
Q 37.203125 6.109375 41.296875 11.75 
Q 45.40625 17.390625 45.40625 27.296875 
Q 45.40625 37.203125 41.296875 42.84375 
Q 37.203125 48.484375 30.078125 48.484375 
Q 22.953125 48.484375 18.875 42.84375 
Q 14.796875 37.203125 14.796875 27.296875 
z
M 45.40625 8.203125 
Q 42.578125 3.328125 38.25 0.953125 
Q 33.9375 -1.421875 27.875 -1.421875 
Q 17.96875 -1.421875 11.734375 6.484375 
Q 5.515625 14.40625 5.515625 27.296875 
Q 5.515625 40.1875 11.734375 48.09375 
Q 17.96875 56 27.875 56 
Q 33.9375 56 38.25 53.625 
Q 42.578125 51.265625 45.40625 46.390625 
L 45.40625 54.6875 
L 54.390625 54.6875 
L 54.390625 -20.796875 
L 45.40625 -20.796875 
z
" id="DejaVuSans-113"/>
      <path d="M 8.5 21.578125 
L 8.5 54.6875 
L 17.484375 54.6875 
L 17.484375 21.921875 
Q 17.484375 14.15625 20.5 10.265625 
Q 23.53125 6.390625 29.59375 6.390625 
Q 36.859375 6.390625 41.078125 11.03125 
Q 45.3125 15.671875 45.3125 23.6875 
L 45.3125 54.6875 
L 54.296875 54.6875 
L 54.296875 0 
L 45.3125 0 
L 45.3125 8.40625 
Q 42.046875 3.421875 37.71875 1 
Q 33.40625 -1.421875 27.6875 -1.421875 
Q 18.265625 -1.421875 13.375 4.4375 
Q 8.5 10.296875 8.5 21.578125 
z
M 31.109375 56 
z
" id="DejaVuSans-117"/>
      <path d="M 41.109375 46.296875 
Q 39.59375 47.171875 37.8125 47.578125 
Q 36.03125 48 33.890625 48 
Q 26.265625 48 22.1875 43.046875 
Q 18.109375 38.09375 18.109375 28.8125 
L 18.109375 0 
L 9.078125 0 
L 9.078125 54.6875 
L 18.109375 54.6875 
L 18.109375 46.1875 
Q 20.953125 51.171875 25.484375 53.578125 
Q 30.03125 56 36.53125 56 
Q 37.453125 56 38.578125 55.875 
Q 39.703125 55.765625 41.0625 55.515625 
z
" id="DejaVuSans-114"/>
      <path d="M 9.8125 72.90625 
L 55.90625 72.90625 
L 55.90625 64.59375 
L 19.671875 64.59375 
L 19.671875 43.015625 
L 54.390625 43.015625 
L 54.390625 34.71875 
L 19.671875 34.71875 
L 19.671875 8.296875 
L 56.78125 8.296875 
L 56.78125 0 
L 9.8125 0 
z
" id="DejaVuSans-69"/>
     </defs>
     <g transform="translate(6.345312 234.032688)rotate(-90)scale(0.1 -0.1)">
      <use xlink:href="#DejaVuSans-77"/>
      <use x="86.279297" xlink:href="#DejaVuSans-101"/>
      <use x="147.802734" xlink:href="#DejaVuSans-97"/>
      <use x="209.082031" xlink:href="#DejaVuSans-110"/>
      <use x="272.460938" xlink:href="#DejaVuSans-32"/>
      <use x="304.248047" xlink:href="#DejaVuSans-82"/>
      <use x="369.230469" xlink:href="#DejaVuSans-111"/>
      <use x="430.412109" xlink:href="#DejaVuSans-111"/>
      <use x="491.59375" xlink:href="#DejaVuSans-116"/>
      <use x="530.802734" xlink:href="#DejaVuSans-32"/>
      <use x="562.589844" xlink:href="#DejaVuSans-83"/>
      <use x="626.066406" xlink:href="#DejaVuSans-113"/>
      <use x="689.542969" xlink:href="#DejaVuSans-117"/>
      <use x="752.921875" xlink:href="#DejaVuSans-97"/>
      <use x="814.201172" xlink:href="#DejaVuSans-114"/>
      <use x="853.064453" xlink:href="#DejaVuSans-101"/>
      <use x="914.587891" xlink:href="#DejaVuSans-32"/>
      <use x="946.375" xlink:href="#DejaVuSans-69"/>
      <use x="1009.558594" xlink:href="#DejaVuSans-114"/>
      <use x="1048.921875" xlink:href="#DejaVuSans-114"/>
      <use x="1087.785156" xlink:href="#DejaVuSans-111"/>
      <use x="1148.966797" xlink:href="#DejaVuSans-114"/>
     </g>
    </g>
   </g>
   <g id="line2d_18">
    <path clip-path="url(#p4ffee06f27)" d="M 73.832727 235.520443 
L 75.954652 220.887463 
L 78.076578 212.965107 
L 80.198503 144.973119 
L 82.320428 169.879478 
L 84.442353 283.538611 
L 86.564278 285.993905 
L 88.686203 273.319014 
L 90.808128 269.319421 
L 92.930053 272.010695 
L 95.051979 265.553613 
L 97.173904 243.999273 
L 99.295829 266.54473 
L 101.417754 256.515015 
L 103.539679 273.894148 
L 105.661604 251.029294 
L 107.783529 141.374144 
L 109.905455 155.773338 
L 112.02738 165.477071 
L 114.149305 143.876633 
L 116.27123 195.607926 
L 118.393155 144.831531 
L 120.51508 106.30636 
L 122.637005 131.675898 
L 124.75893 178.555873 
L 126.880856 228.873479 
L 129.002781 221.687601 
L 131.124706 189.899396 
L 133.246631 182.5401 
L 135.368556 147.449267 
L 137.490481 192.664208 
L 139.612406 178.608557 
L 141.734332 167.645896 
L 143.856257 155.978586 
L 145.978182 177.495608 
L 148.100107 196.813073 
L 150.222032 181.780573 
L 152.343957 228.844942 
L 154.465882 241.550565 
L 156.587807 187.209219 
L 158.709733 241.392513 
L 160.831658 216.534448 
L 162.953583 224.851934 
L 165.075508 228.981042 
L 167.197433 216.156879 
L 169.319358 231.378164 
L 171.441283 223.993624 
L 173.563209 213.235113 
L 175.685134 208.642825 
L 177.807059 196.018422 
L 179.928984 179.349426 
L 182.050909 189.715002 
L 184.172834 179.171617 
L 186.294759 192.411764 
L 188.416684 184.045984 
L 190.53861 181.758621 
L 192.660535 159.574269 
L 194.78246 191.228569 
L 196.904385 176.34095 
L 199.02631 192.09127 
L 201.148235 223.229706 
L 205.392086 191.287839 
L 207.514011 211.132143 
L 209.635936 181.842037 
L 211.757861 150.945069 
L 213.879786 123.84574 
L 216.001711 105.414024 
L 218.123636 83.349309 
L 220.245561 56.750477 
L 222.367487 166.64929 
L 224.489412 137.962855 
L 226.611337 166.791976 
L 228.733262 199.008239 
L 230.855187 204.774941 
L 232.977112 206.884496 
L 235.099037 220.097203 
L 237.220963 234.10017 
L 239.342888 231.777684 
L 241.464813 212.158384 
L 243.586738 150.975802 
L 245.708663 169.428371 
L 247.830588 191.308693 
L 249.952513 202.688436 
L 252.074439 182.566442 
L 254.196364 208.18184 
L 256.318289 172.422578 
L 258.440214 169.650083 
L 260.562139 205.734229 
L 262.684064 199.41215 
L 264.805989 235.579712 
L 266.927914 243.407676 
L 269.04984 257.720161 
L 271.171765 253.676664 
L 273.29369 267.924392 
L 275.415615 273.7339 
L 279.659465 261.144621 
L 281.78139 230.715223 
L 283.903316 179.005882 
L 286.025241 155.003932 
L 288.147166 139.462154 
L 290.269091 100.956739 
L 292.391016 150.530183 
L 294.512941 142.825149 
L 296.634866 137.879439 
L 298.756791 180.309811 
L 300.878717 131.40699 
L 303.000642 88.825151 
L 305.122567 177.245359 
L 307.244492 192.508351 
L 309.366417 225.053889 
L 311.488342 254.339605 
L 313.610267 238.674897 
L 315.732193 206.708883 
L 317.854118 196.385015 
L 319.976043 173.228204 
L 322.097968 158.137532 
L 324.219893 101.182841 
L 326.341818 95.00235 
L 328.463743 117.715737 
L 330.585668 165.09182 
L 332.707594 179.919072 
L 334.829519 212.66876 
L 336.951444 252.484689 
L 339.073369 244.740142 
L 341.195294 262.340986 
L 343.317219 227.703455 
L 345.439144 188.366072 
L 347.56107 173.724312 
L 349.682995 185.523331 
L 351.80492 104.811451 
L 353.926845 141.497073 
L 356.04877 169.702767 
L 358.170695 140.083386 
L 360.29262 133.197149 
L 362.414545 92.942186 
L 364.536471 103.266054 
L 366.658396 196.90527 
L 368.780321 227.389546 
L 370.902246 269.317225 
L 373.024171 213.153892 
L 375.146096 198.450667 
L 377.268021 225.824392 
L 379.389947 205.681545 
L 381.511872 223.097996 
L 383.633797 175.589106 
L 385.755722 145.516423 
L 387.877647 222.230905 
L 389.999572 229.55398 
L 392.121497 226.386355 
L 394.243422 245.973825 
L 396.365348 239.739553 
L 398.487273 225.497313 
L 398.487273 225.497313 
" style="fill:none;stroke:#ff0000;stroke-linecap:square;stroke-width:1.5;"/>
   </g>
   <g id="line2d_19">
    <path clip-path="url(#p4ffee06f27)" d="M 73.832727 225.507622 
L 75.954652 221.044418 
L 78.076578 214.902063 
L 80.198503 206.062489 
L 82.320428 211.49092 
L 84.442353 229.853874 
L 86.564278 243.505618 
L 88.686203 243.495804 
L 90.808128 248.275014 
L 92.930053 245.395547 
L 95.051979 212.884606 
L 97.173904 215.964212 
L 99.295829 215.18154 
L 101.417754 205.543765 
L 103.539679 233.557214 
L 105.661604 253.68988 
L 107.783529 150.118036 
L 109.905455 107.792966 
L 112.02738 125.370791 
L 114.149305 108.230616 
L 116.27123 166.506773 
L 118.393155 117.693814 
L 120.51508 108.652253 
L 122.637005 152.960536 
L 124.75893 140.488543 
L 126.880856 208.549562 
L 129.002781 218.969642 
L 131.124706 216.329434 
L 133.246631 186.555671 
L 135.368556 111.970378 
L 137.490481 189.465795 
L 139.612406 163.202865 
L 141.734332 125.183083 
L 143.856257 118.235274 
L 145.978182 110.756463 
L 148.100107 158.354385 
L 150.222032 170.927529 
L 152.343957 188.149953 
L 154.465882 193.429415 
L 156.587807 187.888619 
L 158.709733 232.796427 
L 160.831658 224.718663 
L 162.953583 221.931047 
L 165.075508 228.832324 
L 167.197433 225.174592 
L 169.319358 207.174369 
L 171.441283 213.055541 
L 173.563209 184.219495 
L 175.685134 171.021108 
L 177.807059 181.10208 
L 179.928984 127.666416 
L 182.050909 150.169348 
L 184.172834 162.613602 
L 186.294759 215.13923 
L 188.416684 197.227073 
L 190.53861 146.398628 
L 194.78246 220.168627 
L 196.904385 199.991276 
L 199.02631 202.881102 
L 201.148235 224.1454 
L 203.27016 214.989773 
L 205.392086 203.166659 
L 207.514011 212.330969 
L 209.635936 208.672437 
L 211.757861 194.871454 
L 213.879786 140.930202 
L 216.001711 53.568 
L 218.123636 70.831085 
L 220.245561 94.22387 
L 222.367487 154.230524 
L 224.489412 157.773969 
L 226.611337 187.482824 
L 228.733262 204.55551 
L 230.855187 199.299954 
L 232.977112 212.290027 
L 235.099037 211.025992 
L 237.220963 207.048871 
L 239.342888 227.159137 
L 241.464813 227.80331 
L 243.586738 245.786474 
L 245.708663 220.59288 
L 247.830588 200.260234 
L 249.952513 167.202579 
L 252.074439 159.256478 
L 254.196364 176.917252 
L 256.318289 140.613158 
L 258.440214 165.771405 
L 260.562139 186.937181 
L 262.684064 189.61608 
L 264.805989 203.004331 
L 266.927914 221.563047 
L 269.04984 239.043513 
L 271.171765 210.354848 
L 273.29369 198.650697 
L 275.415615 234.050081 
L 277.53754 224.102185 
L 281.78139 235.733836 
L 283.903316 207.219492 
L 286.025241 180.622882 
L 288.147166 136.361168 
L 290.269091 157.780483 
L 292.391016 194.560149 
L 294.512941 202.703775 
L 296.634866 208.721807 
L 298.756791 200.340697 
L 300.878717 141.698088 
L 303.000642 180.689428 
L 305.122567 200.991245 
L 307.244492 206.225726 
L 309.366417 210.546703 
L 311.488342 259.299895 
L 313.610267 246.207175 
L 315.732193 266.851158 
L 317.854118 254.623135 
L 319.976043 256.657227 
L 322.097968 219.413746 
L 324.219893 224.642782 
L 326.341818 182.127985 
L 328.463743 246.126117 
L 330.585668 184.577751 
L 332.707594 203.451479 
L 334.829519 226.887872 
L 336.951444 229.417672 
L 341.195294 219.355194 
L 343.317219 212.767989 
L 345.439144 254.994186 
L 347.56107 250.82916 
L 349.682995 217.394918 
L 351.80492 141.412233 
L 353.926845 195.024155 
L 356.04877 179.921852 
L 358.170695 196.509739 
L 360.29262 144.805941 
L 362.414545 137.81016 
L 364.536471 123.198067 
L 366.658396 177.422272 
L 368.780321 213.812649 
L 370.902246 244.259423 
L 373.024171 226.715183 
L 375.146096 202.50438 
L 377.268021 231.344235 
L 379.389947 219.981959 
L 383.633797 254.654583 
L 385.755722 276.210205 
L 387.877647 243.711769 
L 389.999572 167.362031 
L 392.121497 213.773659 
L 394.243422 264.761756 
L 396.365348 260.26682 
L 398.487273 254.57505 
L 398.487273 254.57505 
" style="fill:none;stroke:#0000ff;stroke-linecap:square;stroke-width:1.5;"/>
   </g>
   <g id="line2d_20">
    <path clip-path="url(#p4ffee06f27)" d="M 73.832727 225.418287 
L 75.954652 212.247288 
L 78.076578 195.78354 
L 80.198503 212.247288 
L 82.320428 225.813417 
L 84.442353 292.261105 
L 86.564278 293.336737 
L 92.930053 293.336737 
L 95.051979 295.488 
L 103.539679 295.488 
L 105.661604 277.838862 
L 107.783529 187.88094 
L 109.905455 187.61752 
L 112.02738 205.530079 
L 114.149305 205.530079 
L 116.27123 235.516052 
L 118.393155 205.310562 
L 120.51508 205.310562 
L 122.637005 240.608839 
L 124.75893 240.608839 
L 126.880856 244.296718 
L 129.002781 264.009313 
L 131.124706 248.00655 
L 133.246631 248.00655 
L 135.368556 183.007671 
L 137.490481 213.300968 
L 139.612406 213.300968 
L 141.734332 208.295988 
L 143.856257 208.295988 
L 145.978182 215.320521 
L 148.100107 241.223485 
L 150.222032 253.911547 
L 152.343957 278.673025 
L 154.465882 278.673025 
L 156.587807 264.184926 
L 160.831658 264.22883 
L 162.953583 264.62396 
L 167.197433 264.62396 
L 169.319358 267.258159 
L 171.441283 275.555889 
L 175.685134 275.555889 
L 177.807059 274.107079 
L 179.928984 273.821707 
L 182.050909 273.821707 
L 184.172834 261.836098 
L 186.294759 247.326048 
L 188.416684 247.326048 
L 190.53861 229.633006 
L 192.660535 232.881853 
L 194.78246 264.799573 
L 196.904385 246.228465 
L 199.02631 246.228465 
L 201.148235 259.443367 
L 203.27016 259.443367 
L 205.392086 244.121105 
L 207.514011 231.169623 
L 209.635936 222.476764 
L 211.757861 192.6225 
L 213.879786 192.88592 
L 216.001711 162.724333 
L 218.123636 156.468108 
L 220.245561 156.468108 
L 222.367487 217.076654 
L 224.489412 218.701077 
L 226.611337 231.828173 
L 228.733262 241.355195 
L 232.977112 241.355195 
L 235.099037 245.482108 
L 237.220963 245.482108 
L 239.342888 256.98478 
L 241.464813 263.087343 
L 243.586738 226.208547 
L 245.708663 226.208547 
L 247.830588 240.696645 
L 249.952513 249.389504 
L 252.074439 249.389504 
L 254.196364 252.901771 
L 256.318289 238.018542 
L 258.440214 238.018542 
L 260.562139 250.618798 
L 262.684064 250.618798 
L 264.805989 249.960248 
L 266.927914 261.814147 
L 269.04984 276.697375 
L 273.29369 295.488 
L 279.659465 295.488 
L 281.78139 274.238789 
L 283.903316 242.233262 
L 286.025241 228.2281 
L 288.147166 203.554429 
L 290.269091 184.763804 
L 292.391016 216.769331 
L 294.512941 216.769331 
L 296.634866 206.364242 
L 298.756791 220.369404 
L 300.878717 198.812869 
L 303.000642 198.812869 
L 305.122567 240.125902 
L 307.244492 250.530991 
L 309.366417 258.916527 
L 311.488342 268.092323 
L 313.610267 256.150617 
L 315.732193 256.150617 
L 317.854118 235.516052 
L 319.976043 221.137712 
L 322.097968 221.137712 
L 324.219893 195.717685 
L 326.341818 161.341378 
L 328.463743 196.771364 
L 330.585668 192.22737 
L 332.707594 210.139928 
L 334.829519 238.589285 
L 336.951444 251.935897 
L 339.073369 251.935897 
L 341.195294 263.745893 
L 343.317219 229.633006 
L 345.439144 191.70053 
L 347.56107 204.432495 
L 349.682995 204.432495 
L 351.80492 134.99938 
L 356.04877 188.495587 
L 358.170695 193.895696 
L 360.29262 188.93462 
L 362.414545 167.817119 
L 364.536471 188.232167 
L 366.658396 233.189176 
L 370.902246 288.024434 
L 373.024171 241.355195 
L 375.146096 224.979253 
L 377.268021 246.316271 
L 379.389947 246.316271 
L 381.511872 258.609204 
L 383.633797 242.672295 
L 385.755722 242.672295 
L 387.877647 274.282692 
L 389.999572 295.488 
L 398.487273 295.488 
L 398.487273 295.488 
" style="fill:none;stroke:#008000;stroke-linecap:square;stroke-width:1.5;"/>
   </g>
   <g id="patch_3">
    <path d="M 57.6 307.584 
L 57.6 41.472 
" style="fill:none;stroke:#000000;stroke-linecap:square;stroke-linejoin:miter;stroke-width:0.8;"/>
   </g>
   <g id="patch_4">
    <path d="M 414.72 307.584 
L 414.72 41.472 
" style="fill:none;stroke:#000000;stroke-linecap:square;stroke-linejoin:miter;stroke-width:0.8;"/>
   </g>
   <g id="patch_5">
    <path d="M 57.6 307.584 
L 414.72 307.584 
" style="fill:none;stroke:#000000;stroke-linecap:square;stroke-linejoin:miter;stroke-width:0.8;"/>
   </g>
   <g id="patch_6">
    <path d="M 57.6 41.472 
L 414.72 41.472 
" style="fill:none;stroke:#000000;stroke-linecap:square;stroke-linejoin:miter;stroke-width:0.8;"/>
   </g>
   <g id="text_19">
    <!-- Compare quarterly errors for Generated data with -->
    <defs>
     <path d="M 64.40625 67.28125 
L 64.40625 56.890625 
Q 59.421875 61.53125 53.78125 63.8125 
Q 48.140625 66.109375 41.796875 66.109375 
Q 29.296875 66.109375 22.65625 58.46875 
Q 16.015625 50.828125 16.015625 36.375 
Q 16.015625 21.96875 22.65625 14.328125 
Q 29.296875 6.6875 41.796875 6.6875 
Q 48.140625 6.6875 53.78125 8.984375 
Q 59.421875 11.28125 64.40625 15.921875 
L 64.40625 5.609375 
Q 59.234375 2.09375 53.4375 0.328125 
Q 47.65625 -1.421875 41.21875 -1.421875 
Q 24.65625 -1.421875 15.125 8.703125 
Q 5.609375 18.84375 5.609375 36.375 
Q 5.609375 53.953125 15.125 64.078125 
Q 24.65625 74.21875 41.21875 74.21875 
Q 47.75 74.21875 53.53125 72.484375 
Q 59.328125 70.75 64.40625 67.28125 
z
" id="DejaVuSans-67"/>
     <path d="M 52 44.1875 
Q 55.375 50.25 60.0625 53.125 
Q 64.75 56 71.09375 56 
Q 79.640625 56 84.28125 50.015625 
Q 88.921875 44.046875 88.921875 33.015625 
L 88.921875 0 
L 79.890625 0 
L 79.890625 32.71875 
Q 79.890625 40.578125 77.09375 44.375 
Q 74.3125 48.1875 68.609375 48.1875 
Q 61.625 48.1875 57.5625 43.546875 
Q 53.515625 38.921875 53.515625 30.90625 
L 53.515625 0 
L 44.484375 0 
L 44.484375 32.71875 
Q 44.484375 40.625 41.703125 44.40625 
Q 38.921875 48.1875 33.109375 48.1875 
Q 26.21875 48.1875 22.15625 43.53125 
Q 18.109375 38.875 18.109375 30.90625 
L 18.109375 0 
L 9.078125 0 
L 9.078125 54.6875 
L 18.109375 54.6875 
L 18.109375 46.1875 
Q 21.1875 51.21875 25.484375 53.609375 
Q 29.78125 56 35.6875 56 
Q 41.65625 56 45.828125 52.96875 
Q 50 49.953125 52 44.1875 
z
" id="DejaVuSans-109"/>
     <path d="M 18.109375 8.203125 
L 18.109375 -20.796875 
L 9.078125 -20.796875 
L 9.078125 54.6875 
L 18.109375 54.6875 
L 18.109375 46.390625 
Q 20.953125 51.265625 25.265625 53.625 
Q 29.59375 56 35.59375 56 
Q 45.5625 56 51.78125 48.09375 
Q 58.015625 40.1875 58.015625 27.296875 
Q 58.015625 14.40625 51.78125 6.484375 
Q 45.5625 -1.421875 35.59375 -1.421875 
Q 29.59375 -1.421875 25.265625 0.953125 
Q 20.953125 3.328125 18.109375 8.203125 
z
M 48.6875 27.296875 
Q 48.6875 37.203125 44.609375 42.84375 
Q 40.53125 48.484375 33.40625 48.484375 
Q 26.265625 48.484375 22.1875 42.84375 
Q 18.109375 37.203125 18.109375 27.296875 
Q 18.109375 17.390625 22.1875 11.75 
Q 26.265625 6.109375 33.40625 6.109375 
Q 40.53125 6.109375 44.609375 11.75 
Q 48.6875 17.390625 48.6875 27.296875 
z
" id="DejaVuSans-112"/>
     <path d="M 9.421875 75.984375 
L 18.40625 75.984375 
L 18.40625 0 
L 9.421875 0 
z
" id="DejaVuSans-108"/>
     <path d="M 32.171875 -5.078125 
Q 28.375 -14.84375 24.75 -17.8125 
Q 21.140625 -20.796875 15.09375 -20.796875 
L 7.90625 -20.796875 
L 7.90625 -13.28125 
L 13.1875 -13.28125 
Q 16.890625 -13.28125 18.9375 -11.515625 
Q 21 -9.765625 23.484375 -3.21875 
L 25.09375 0.875 
L 2.984375 54.6875 
L 12.5 54.6875 
L 29.59375 11.921875 
L 46.6875 54.6875 
L 56.203125 54.6875 
z
" id="DejaVuSans-121"/>
     <path d="M 44.28125 53.078125 
L 44.28125 44.578125 
Q 40.484375 46.53125 36.375 47.5 
Q 32.28125 48.484375 27.875 48.484375 
Q 21.1875 48.484375 17.84375 46.4375 
Q 14.5 44.390625 14.5 40.28125 
Q 14.5 37.15625 16.890625 35.375 
Q 19.28125 33.59375 26.515625 31.984375 
L 29.59375 31.296875 
Q 39.15625 29.25 43.1875 25.515625 
Q 47.21875 21.78125 47.21875 15.09375 
Q 47.21875 7.46875 41.1875 3.015625 
Q 35.15625 -1.421875 24.609375 -1.421875 
Q 20.21875 -1.421875 15.453125 -0.5625 
Q 10.6875 0.296875 5.421875 2 
L 5.421875 11.28125 
Q 10.40625 8.6875 15.234375 7.390625 
Q 20.0625 6.109375 24.8125 6.109375 
Q 31.15625 6.109375 34.5625 8.28125 
Q 37.984375 10.453125 37.984375 14.40625 
Q 37.984375 18.0625 35.515625 20.015625 
Q 33.0625 21.96875 24.703125 23.78125 
L 21.578125 24.515625 
Q 13.234375 26.265625 9.515625 29.90625 
Q 5.8125 33.546875 5.8125 39.890625 
Q 5.8125 47.609375 11.28125 51.796875 
Q 16.75 56 26.8125 56 
Q 31.78125 56 36.171875 55.265625 
Q 40.578125 54.546875 44.28125 53.078125 
z
" id="DejaVuSans-115"/>
     <path d="M 37.109375 75.984375 
L 37.109375 68.5 
L 28.515625 68.5 
Q 23.6875 68.5 21.796875 66.546875 
Q 19.921875 64.59375 19.921875 59.515625 
L 19.921875 54.6875 
L 34.71875 54.6875 
L 34.71875 47.703125 
L 19.921875 47.703125 
L 19.921875 0 
L 10.890625 0 
L 10.890625 47.703125 
L 2.296875 47.703125 
L 2.296875 54.6875 
L 10.890625 54.6875 
L 10.890625 58.5 
Q 10.890625 67.625 15.140625 71.796875 
Q 19.390625 75.984375 28.609375 75.984375 
z
" id="DejaVuSans-102"/>
     <path d="M 59.515625 10.40625 
L 59.515625 29.984375 
L 43.40625 29.984375 
L 43.40625 38.09375 
L 69.28125 38.09375 
L 69.28125 6.78125 
Q 63.578125 2.734375 56.6875 0.65625 
Q 49.8125 -1.421875 42 -1.421875 
Q 24.90625 -1.421875 15.25 8.5625 
Q 5.609375 18.5625 5.609375 36.375 
Q 5.609375 54.25 15.25 64.234375 
Q 24.90625 74.21875 42 74.21875 
Q 49.125 74.21875 55.546875 72.453125 
Q 61.96875 70.703125 67.390625 67.28125 
L 67.390625 56.78125 
Q 61.921875 61.421875 55.765625 63.765625 
Q 49.609375 66.109375 42.828125 66.109375 
Q 29.4375 66.109375 22.71875 58.640625 
Q 16.015625 51.171875 16.015625 36.375 
Q 16.015625 21.625 22.71875 14.15625 
Q 29.4375 6.6875 42.828125 6.6875 
Q 48.046875 6.6875 52.140625 7.59375 
Q 56.25 8.5 59.515625 10.40625 
z
" id="DejaVuSans-71"/>
     <path d="M 45.40625 46.390625 
L 45.40625 75.984375 
L 54.390625 75.984375 
L 54.390625 0 
L 45.40625 0 
L 45.40625 8.203125 
Q 42.578125 3.328125 38.25 0.953125 
Q 33.9375 -1.421875 27.875 -1.421875 
Q 17.96875 -1.421875 11.734375 6.484375 
Q 5.515625 14.40625 5.515625 27.296875 
Q 5.515625 40.1875 11.734375 48.09375 
Q 17.96875 56 27.875 56 
Q 33.9375 56 38.25 53.625 
Q 42.578125 51.265625 45.40625 46.390625 
z
M 14.796875 27.296875 
Q 14.796875 17.390625 18.875 11.75 
Q 22.953125 6.109375 30.078125 6.109375 
Q 37.203125 6.109375 41.296875 11.75 
Q 45.40625 17.390625 45.40625 27.296875 
Q 45.40625 37.203125 41.296875 42.84375 
Q 37.203125 48.484375 30.078125 48.484375 
Q 22.953125 48.484375 18.875 42.84375 
Q 14.796875 37.203125 14.796875 27.296875 
z
" id="DejaVuSans-100"/>
     <path d="M 4.203125 54.6875 
L 13.1875 54.6875 
L 24.421875 12.015625 
L 35.59375 54.6875 
L 46.1875 54.6875 
L 57.421875 12.015625 
L 68.609375 54.6875 
L 77.59375 54.6875 
L 63.28125 0 
L 52.6875 0 
L 40.921875 44.828125 
L 29.109375 0 
L 18.5 0 
z
" id="DejaVuSans-119"/>
     <path d="M 9.421875 54.6875 
L 18.40625 54.6875 
L 18.40625 0 
L 9.421875 0 
z
M 9.421875 75.984375 
L 18.40625 75.984375 
L 18.40625 64.59375 
L 9.421875 64.59375 
z
" id="DejaVuSans-105"/>
     <path d="M 54.890625 33.015625 
L 54.890625 0 
L 45.90625 0 
L 45.90625 32.71875 
Q 45.90625 40.484375 42.875 44.328125 
Q 39.84375 48.1875 33.796875 48.1875 
Q 26.515625 48.1875 22.3125 43.546875 
Q 18.109375 38.921875 18.109375 30.90625 
L 18.109375 0 
L 9.078125 0 
L 9.078125 75.984375 
L 18.109375 75.984375 
L 18.109375 46.1875 
Q 21.34375 51.125 25.703125 53.5625 
Q 30.078125 56 35.796875 56 
Q 45.21875 56 50.046875 50.171875 
Q 54.890625 44.34375 54.890625 33.015625 
z
" id="DejaVuSans-104"/>
    </defs>
    <g transform="translate(86.046562 8.59725)scale(0.12 -0.12)">
     <use xlink:href="#DejaVuSans-67"/>
     <use x="69.824219" xlink:href="#DejaVuSans-111"/>
     <use x="131.005859" xlink:href="#DejaVuSans-109"/>
     <use x="228.417969" xlink:href="#DejaVuSans-112"/>
     <use x="291.894531" xlink:href="#DejaVuSans-97"/>
     <use x="353.173828" xlink:href="#DejaVuSans-114"/>
     <use x="392.037109" xlink:href="#DejaVuSans-101"/>
     <use x="453.560547" xlink:href="#DejaVuSans-32"/>
     <use x="485.347656" xlink:href="#DejaVuSans-113"/>
     <use x="548.824219" xlink:href="#DejaVuSans-117"/>
     <use x="612.203125" xlink:href="#DejaVuSans-97"/>
     <use x="673.482422" xlink:href="#DejaVuSans-114"/>
     <use x="714.595703" xlink:href="#DejaVuSans-116"/>
     <use x="753.804688" xlink:href="#DejaVuSans-101"/>
     <use x="815.328125" xlink:href="#DejaVuSans-114"/>
     <use x="856.441406" xlink:href="#DejaVuSans-108"/>
     <use x="884.224609" xlink:href="#DejaVuSans-121"/>
     <use x="943.404297" xlink:href="#DejaVuSans-32"/>
     <use x="975.191406" xlink:href="#DejaVuSans-101"/>
     <use x="1036.714844" xlink:href="#DejaVuSans-114"/>
     <use x="1076.078125" xlink:href="#DejaVuSans-114"/>
     <use x="1114.941406" xlink:href="#DejaVuSans-111"/>
     <use x="1176.123047" xlink:href="#DejaVuSans-114"/>
     <use x="1217.236328" xlink:href="#DejaVuSans-115"/>
     <use x="1269.335938" xlink:href="#DejaVuSans-32"/>
     <use x="1301.123047" xlink:href="#DejaVuSans-102"/>
     <use x="1336.328125" xlink:href="#DejaVuSans-111"/>
     <use x="1397.509766" xlink:href="#DejaVuSans-114"/>
     <use x="1438.623047" xlink:href="#DejaVuSans-32"/>
     <use x="1470.410156" xlink:href="#DejaVuSans-71"/>
     <use x="1547.900391" xlink:href="#DejaVuSans-101"/>
     <use x="1609.423828" xlink:href="#DejaVuSans-110"/>
     <use x="1672.802734" xlink:href="#DejaVuSans-101"/>
     <use x="1734.326172" xlink:href="#DejaVuSans-114"/>
     <use x="1775.439453" xlink:href="#DejaVuSans-97"/>
     <use x="1836.71875" xlink:href="#DejaVuSans-116"/>
     <use x="1875.927734" xlink:href="#DejaVuSans-101"/>
     <use x="1937.451172" xlink:href="#DejaVuSans-100"/>
     <use x="2000.927734" xlink:href="#DejaVuSans-32"/>
     <use x="2032.714844" xlink:href="#DejaVuSans-100"/>
     <use x="2096.191406" xlink:href="#DejaVuSans-97"/>
     <use x="2157.470703" xlink:href="#DejaVuSans-116"/>
     <use x="2196.679688" xlink:href="#DejaVuSans-97"/>
     <use x="2257.958984" xlink:href="#DejaVuSans-32"/>
     <use x="2289.746094" xlink:href="#DejaVuSans-119"/>
     <use x="2371.533203" xlink:href="#DejaVuSans-105"/>
     <use x="2399.316406" xlink:href="#DejaVuSans-116"/>
     <use x="2438.525391" xlink:href="#DejaVuSans-104"/>
    </g>
    <!-- Neural Networks with solver: sgd -->
    <defs>
     <path d="M 9.8125 72.90625 
L 23.09375 72.90625 
L 55.421875 11.921875 
L 55.421875 72.90625 
L 64.984375 72.90625 
L 64.984375 0 
L 51.703125 0 
L 19.390625 60.984375 
L 19.390625 0 
L 9.8125 0 
z
" id="DejaVuSans-78"/>
     <path d="M 9.078125 75.984375 
L 18.109375 75.984375 
L 18.109375 31.109375 
L 44.921875 54.6875 
L 56.390625 54.6875 
L 27.390625 29.109375 
L 57.625 0 
L 45.90625 0 
L 18.109375 26.703125 
L 18.109375 0 
L 9.078125 0 
z
" id="DejaVuSans-107"/>
     <path d="M 2.984375 54.6875 
L 12.5 54.6875 
L 29.59375 8.796875 
L 46.6875 54.6875 
L 56.203125 54.6875 
L 35.6875 0 
L 23.484375 0 
z
" id="DejaVuSans-118"/>
     <path d="M 11.71875 12.40625 
L 22.015625 12.40625 
L 22.015625 0 
L 11.71875 0 
z
M 11.71875 51.703125 
L 22.015625 51.703125 
L 22.015625 39.3125 
L 11.71875 39.3125 
z
" id="DejaVuSans-58"/>
     <path d="M 45.40625 27.984375 
Q 45.40625 37.75 41.375 43.109375 
Q 37.359375 48.484375 30.078125 48.484375 
Q 22.859375 48.484375 18.828125 43.109375 
Q 14.796875 37.75 14.796875 27.984375 
Q 14.796875 18.265625 18.828125 12.890625 
Q 22.859375 7.515625 30.078125 7.515625 
Q 37.359375 7.515625 41.375 12.890625 
Q 45.40625 18.265625 45.40625 27.984375 
z
M 54.390625 6.78125 
Q 54.390625 -7.171875 48.1875 -13.984375 
Q 42 -20.796875 29.203125 -20.796875 
Q 24.46875 -20.796875 20.265625 -20.09375 
Q 16.0625 -19.390625 12.109375 -17.921875 
L 12.109375 -9.1875 
Q 16.0625 -11.328125 19.921875 -12.34375 
Q 23.78125 -13.375 27.78125 -13.375 
Q 36.625 -13.375 41.015625 -8.765625 
Q 45.40625 -4.15625 45.40625 5.171875 
L 45.40625 9.625 
Q 42.625 4.78125 38.28125 2.390625 
Q 33.9375 0 27.875 0 
Q 17.828125 0 11.671875 7.65625 
Q 5.515625 15.328125 5.515625 27.984375 
Q 5.515625 40.671875 11.671875 48.328125 
Q 17.828125 56 27.875 56 
Q 33.9375 56 38.28125 53.609375 
Q 42.625 51.21875 45.40625 46.390625 
L 45.40625 54.6875 
L 54.390625 54.6875 
z
" id="DejaVuSans-103"/>
    </defs>
    <g transform="translate(136.999687 22.034625)scale(0.12 -0.12)">
     <use xlink:href="#DejaVuSans-78"/>
     <use x="74.804688" xlink:href="#DejaVuSans-101"/>
     <use x="136.328125" xlink:href="#DejaVuSans-117"/>
     <use x="199.707031" xlink:href="#DejaVuSans-114"/>
     <use x="240.820312" xlink:href="#DejaVuSans-97"/>
     <use x="302.099609" xlink:href="#DejaVuSans-108"/>
     <use x="329.882812" xlink:href="#DejaVuSans-32"/>
     <use x="361.669922" xlink:href="#DejaVuSans-78"/>
     <use x="436.474609" xlink:href="#DejaVuSans-101"/>
     <use x="497.998047" xlink:href="#DejaVuSans-116"/>
     <use x="537.207031" xlink:href="#DejaVuSans-119"/>
     <use x="618.994141" xlink:href="#DejaVuSans-111"/>
     <use x="680.175781" xlink:href="#DejaVuSans-114"/>
     <use x="721.289062" xlink:href="#DejaVuSans-107"/>
     <use x="779.199219" xlink:href="#DejaVuSans-115"/>
     <use x="831.298828" xlink:href="#DejaVuSans-32"/>
     <use x="863.085938" xlink:href="#DejaVuSans-119"/>
     <use x="944.873047" xlink:href="#DejaVuSans-105"/>
     <use x="972.65625" xlink:href="#DejaVuSans-116"/>
     <use x="1011.865234" xlink:href="#DejaVuSans-104"/>
     <use x="1075.244141" xlink:href="#DejaVuSans-32"/>
     <use x="1107.03125" xlink:href="#DejaVuSans-115"/>
     <use x="1159.130859" xlink:href="#DejaVuSans-111"/>
     <use x="1220.3125" xlink:href="#DejaVuSans-108"/>
     <use x="1248.095703" xlink:href="#DejaVuSans-118"/>
     <use x="1307.275391" xlink:href="#DejaVuSans-101"/>
     <use x="1368.798828" xlink:href="#DejaVuSans-114"/>
     <use x="1408.162109" xlink:href="#DejaVuSans-58"/>
     <use x="1441.853516" xlink:href="#DejaVuSans-32"/>
     <use x="1473.640625" xlink:href="#DejaVuSans-115"/>
     <use x="1525.740234" xlink:href="#DejaVuSans-103"/>
     <use x="1589.216797" xlink:href="#DejaVuSans-100"/>
    </g>
    <!--  activation function: tanh and number nodes: (100, 100) -->
    <defs>
     <path d="M 48.78125 52.59375 
L 48.78125 44.1875 
Q 44.96875 46.296875 41.140625 47.34375 
Q 37.3125 48.390625 33.40625 48.390625 
Q 24.65625 48.390625 19.8125 42.84375 
Q 14.984375 37.3125 14.984375 27.296875 
Q 14.984375 17.28125 19.8125 11.734375 
Q 24.65625 6.203125 33.40625 6.203125 
Q 37.3125 6.203125 41.140625 7.25 
Q 44.96875 8.296875 48.78125 10.40625 
L 48.78125 2.09375 
Q 45.015625 0.34375 40.984375 -0.53125 
Q 36.96875 -1.421875 32.421875 -1.421875 
Q 20.0625 -1.421875 12.78125 6.34375 
Q 5.515625 14.109375 5.515625 27.296875 
Q 5.515625 40.671875 12.859375 48.328125 
Q 20.21875 56 33.015625 56 
Q 37.15625 56 41.109375 55.140625 
Q 45.0625 54.296875 48.78125 52.59375 
z
" id="DejaVuSans-99"/>
     <path d="M 48.6875 27.296875 
Q 48.6875 37.203125 44.609375 42.84375 
Q 40.53125 48.484375 33.40625 48.484375 
Q 26.265625 48.484375 22.1875 42.84375 
Q 18.109375 37.203125 18.109375 27.296875 
Q 18.109375 17.390625 22.1875 11.75 
Q 26.265625 6.109375 33.40625 6.109375 
Q 40.53125 6.109375 44.609375 11.75 
Q 48.6875 17.390625 48.6875 27.296875 
z
M 18.109375 46.390625 
Q 20.953125 51.265625 25.265625 53.625 
Q 29.59375 56 35.59375 56 
Q 45.5625 56 51.78125 48.09375 
Q 58.015625 40.1875 58.015625 27.296875 
Q 58.015625 14.40625 51.78125 6.484375 
Q 45.5625 -1.421875 35.59375 -1.421875 
Q 29.59375 -1.421875 25.265625 0.953125 
Q 20.953125 3.328125 18.109375 8.203125 
L 18.109375 0 
L 9.078125 0 
L 9.078125 75.984375 
L 18.109375 75.984375 
z
" id="DejaVuSans-98"/>
     <path d="M 31 75.875 
Q 24.46875 64.65625 21.28125 53.65625 
Q 18.109375 42.671875 18.109375 31.390625 
Q 18.109375 20.125 21.3125 9.0625 
Q 24.515625 -2 31 -13.1875 
L 23.1875 -13.1875 
Q 15.875 -1.703125 12.234375 9.375 
Q 8.59375 20.453125 8.59375 31.390625 
Q 8.59375 42.28125 12.203125 53.3125 
Q 15.828125 64.359375 23.1875 75.875 
z
" id="DejaVuSans-40"/>
     <path d="M 11.71875 12.40625 
L 22.015625 12.40625 
L 22.015625 4 
L 14.015625 -11.625 
L 7.71875 -11.625 
L 11.71875 4 
z
" id="DejaVuSans-44"/>
     <path d="M 8.015625 75.875 
L 15.828125 75.875 
Q 23.140625 64.359375 26.78125 53.3125 
Q 30.421875 42.28125 30.421875 31.390625 
Q 30.421875 20.453125 26.78125 9.375 
Q 23.140625 -1.703125 15.828125 -13.1875 
L 8.015625 -13.1875 
Q 14.5 -2 17.703125 9.0625 
Q 20.90625 20.125 20.90625 31.390625 
Q 20.90625 42.671875 17.703125 53.65625 
Q 14.5 64.65625 8.015625 75.875 
z
" id="DejaVuSans-41"/>
    </defs>
    <g transform="translate(66.704062 35.472)scale(0.12 -0.12)">
     <use xlink:href="#DejaVuSans-32"/>
     <use x="31.787109" xlink:href="#DejaVuSans-97"/>
     <use x="93.066406" xlink:href="#DejaVuSans-99"/>
     <use x="148.046875" xlink:href="#DejaVuSans-116"/>
     <use x="187.255859" xlink:href="#DejaVuSans-105"/>
     <use x="215.039062" xlink:href="#DejaVuSans-118"/>
     <use x="274.21875" xlink:href="#DejaVuSans-97"/>
     <use x="335.498047" xlink:href="#DejaVuSans-116"/>
     <use x="374.707031" xlink:href="#DejaVuSans-105"/>
     <use x="402.490234" xlink:href="#DejaVuSans-111"/>
     <use x="463.671875" xlink:href="#DejaVuSans-110"/>
     <use x="527.050781" xlink:href="#DejaVuSans-32"/>
     <use x="558.837891" xlink:href="#DejaVuSans-102"/>
     <use x="594.042969" xlink:href="#DejaVuSans-117"/>
     <use x="657.421875" xlink:href="#DejaVuSans-110"/>
     <use x="720.800781" xlink:href="#DejaVuSans-99"/>
     <use x="775.78125" xlink:href="#DejaVuSans-116"/>
     <use x="814.990234" xlink:href="#DejaVuSans-105"/>
     <use x="842.773438" xlink:href="#DejaVuSans-111"/>
     <use x="903.955078" xlink:href="#DejaVuSans-110"/>
     <use x="967.333984" xlink:href="#DejaVuSans-58"/>
     <use x="1001.025391" xlink:href="#DejaVuSans-32"/>
     <use x="1032.8125" xlink:href="#DejaVuSans-116"/>
     <use x="1072.021484" xlink:href="#DejaVuSans-97"/>
     <use x="1133.300781" xlink:href="#DejaVuSans-110"/>
     <use x="1196.679688" xlink:href="#DejaVuSans-104"/>
     <use x="1260.058594" xlink:href="#DejaVuSans-32"/>
     <use x="1291.845703" xlink:href="#DejaVuSans-97"/>
     <use x="1353.125" xlink:href="#DejaVuSans-110"/>
     <use x="1416.503906" xlink:href="#DejaVuSans-100"/>
     <use x="1479.980469" xlink:href="#DejaVuSans-32"/>
     <use x="1511.767578" xlink:href="#DejaVuSans-110"/>
     <use x="1575.146484" xlink:href="#DejaVuSans-117"/>
     <use x="1638.525391" xlink:href="#DejaVuSans-109"/>
     <use x="1735.9375" xlink:href="#DejaVuSans-98"/>
     <use x="1799.414062" xlink:href="#DejaVuSans-101"/>
     <use x="1860.9375" xlink:href="#DejaVuSans-114"/>
     <use x="1902.050781" xlink:href="#DejaVuSans-32"/>
     <use x="1933.837891" xlink:href="#DejaVuSans-110"/>
     <use x="1997.216797" xlink:href="#DejaVuSans-111"/>
     <use x="2058.398438" xlink:href="#DejaVuSans-100"/>
     <use x="2121.875" xlink:href="#DejaVuSans-101"/>
     <use x="2183.398438" xlink:href="#DejaVuSans-115"/>
     <use x="2235.498047" xlink:href="#DejaVuSans-58"/>
     <use x="2269.189453" xlink:href="#DejaVuSans-32"/>
     <use x="2300.976562" xlink:href="#DejaVuSans-40"/>
     <use x="2339.990234" xlink:href="#DejaVuSans-49"/>
     <use x="2403.613281" xlink:href="#DejaVuSans-48"/>
     <use x="2467.236328" xlink:href="#DejaVuSans-48"/>
     <use x="2530.859375" xlink:href="#DejaVuSans-44"/>
     <use x="2562.646484" xlink:href="#DejaVuSans-32"/>
     <use x="2594.433594" xlink:href="#DejaVuSans-49"/>
     <use x="2658.056641" xlink:href="#DejaVuSans-48"/>
     <use x="2721.679688" xlink:href="#DejaVuSans-48"/>
     <use x="2785.302734" xlink:href="#DejaVuSans-41"/>
    </g>
   </g>
   <g id="legend_1">
    <g id="patch_7">
     <path d="M 243.598125 93.506375 
L 407.72 93.506375 
Q 409.72 93.506375 409.72 91.506375 
L 409.72 48.472 
Q 409.72 46.472 407.72 46.472 
L 243.598125 46.472 
Q 241.598125 46.472 241.598125 48.472 
L 241.598125 91.506375 
Q 241.598125 93.506375 243.598125 93.506375 
z
" style="fill:#ffffff;opacity:0.8;stroke:#cccccc;stroke-linejoin:miter;"/>
    </g>
    <g id="line2d_21">
     <path d="M 245.598125 54.570438 
L 265.598125 54.570438 
" style="fill:none;stroke:#ff0000;stroke-linecap:square;stroke-width:1.5;"/>
    </g>
    <g id="line2d_22"/>
    <g id="text_20">
     <!-- Guessed Revenue -->
     <g transform="translate(273.598125 58.070438)scale(0.1 -0.1)">
      <use xlink:href="#DejaVuSans-71"/>
      <use x="77.490234" xlink:href="#DejaVuSans-117"/>
      <use x="140.869141" xlink:href="#DejaVuSans-101"/>
      <use x="202.392578" xlink:href="#DejaVuSans-115"/>
      <use x="254.492188" xlink:href="#DejaVuSans-115"/>
      <use x="306.591797" xlink:href="#DejaVuSans-101"/>
      <use x="368.115234" xlink:href="#DejaVuSans-100"/>
      <use x="431.591797" xlink:href="#DejaVuSans-32"/>
      <use x="463.378906" xlink:href="#DejaVuSans-82"/>
      <use x="528.361328" xlink:href="#DejaVuSans-101"/>
      <use x="589.884766" xlink:href="#DejaVuSans-118"/>
      <use x="649.064453" xlink:href="#DejaVuSans-101"/>
      <use x="710.587891" xlink:href="#DejaVuSans-110"/>
      <use x="773.966797" xlink:href="#DejaVuSans-117"/>
      <use x="837.345703" xlink:href="#DejaVuSans-101"/>
     </g>
    </g>
    <g id="line2d_23">
     <path d="M 245.598125 69.248563 
L 265.598125 69.248563 
" style="fill:none;stroke:#0000ff;stroke-linecap:square;stroke-width:1.5;"/>
    </g>
    <g id="line2d_24"/>
    <g id="text_21">
     <!-- Predicted Revenue -->
     <defs>
      <path d="M 19.671875 64.796875 
L 19.671875 37.40625 
L 32.078125 37.40625 
Q 38.96875 37.40625 42.71875 40.96875 
Q 46.484375 44.53125 46.484375 51.125 
Q 46.484375 57.671875 42.71875 61.234375 
Q 38.96875 64.796875 32.078125 64.796875 
z
M 9.8125 72.90625 
L 32.078125 72.90625 
Q 44.34375 72.90625 50.609375 67.359375 
Q 56.890625 61.8125 56.890625 51.125 
Q 56.890625 40.328125 50.609375 34.8125 
Q 44.34375 29.296875 32.078125 29.296875 
L 19.671875 29.296875 
L 19.671875 0 
L 9.8125 0 
z
" id="DejaVuSans-80"/>
     </defs>
     <g transform="translate(273.598125 72.748563)scale(0.1 -0.1)">
      <use xlink:href="#DejaVuSans-80"/>
      <use x="58.552734" xlink:href="#DejaVuSans-114"/>
      <use x="97.416016" xlink:href="#DejaVuSans-101"/>
      <use x="158.939453" xlink:href="#DejaVuSans-100"/>
      <use x="222.416016" xlink:href="#DejaVuSans-105"/>
      <use x="250.199219" xlink:href="#DejaVuSans-99"/>
      <use x="305.179688" xlink:href="#DejaVuSans-116"/>
      <use x="344.388672" xlink:href="#DejaVuSans-101"/>
      <use x="405.912109" xlink:href="#DejaVuSans-100"/>
      <use x="469.388672" xlink:href="#DejaVuSans-32"/>
      <use x="501.175781" xlink:href="#DejaVuSans-82"/>
      <use x="566.158203" xlink:href="#DejaVuSans-101"/>
      <use x="627.681641" xlink:href="#DejaVuSans-118"/>
      <use x="686.861328" xlink:href="#DejaVuSans-101"/>
      <use x="748.384766" xlink:href="#DejaVuSans-110"/>
      <use x="811.763672" xlink:href="#DejaVuSans-117"/>
      <use x="875.142578" xlink:href="#DejaVuSans-101"/>
     </g>
    </g>
    <g id="line2d_25">
     <path d="M 245.598125 83.926688 
L 265.598125 83.926688 
" style="fill:none;stroke:#008000;stroke-linecap:square;stroke-width:1.5;"/>
    </g>
    <g id="line2d_26"/>
    <g id="text_22">
     <!-- Strictly Predicted Revenue -->
     <g transform="translate(273.598125 87.426688)scale(0.1 -0.1)">
      <use xlink:href="#DejaVuSans-83"/>
      <use x="63.476562" xlink:href="#DejaVuSans-116"/>
      <use x="102.685547" xlink:href="#DejaVuSans-114"/>
      <use x="143.798828" xlink:href="#DejaVuSans-105"/>
      <use x="171.582031" xlink:href="#DejaVuSans-99"/>
      <use x="226.5625" xlink:href="#DejaVuSans-116"/>
      <use x="265.771484" xlink:href="#DejaVuSans-108"/>
      <use x="293.554688" xlink:href="#DejaVuSans-121"/>
      <use x="352.734375" xlink:href="#DejaVuSans-32"/>
      <use x="384.521484" xlink:href="#DejaVuSans-80"/>
      <use x="443.074219" xlink:href="#DejaVuSans-114"/>
      <use x="481.9375" xlink:href="#DejaVuSans-101"/>
      <use x="543.460938" xlink:href="#DejaVuSans-100"/>
      <use x="606.9375" xlink:href="#DejaVuSans-105"/>
      <use x="634.720703" xlink:href="#DejaVuSans-99"/>
      <use x="689.701172" xlink:href="#DejaVuSans-116"/>
      <use x="728.910156" xlink:href="#DejaVuSans-101"/>
      <use x="790.433594" xlink:href="#DejaVuSans-100"/>
      <use x="853.910156" xlink:href="#DejaVuSans-32"/>
      <use x="885.697266" xlink:href="#DejaVuSans-82"/>
      <use x="950.679688" xlink:href="#DejaVuSans-101"/>
      <use x="1012.203125" xlink:href="#DejaVuSans-118"/>
      <use x="1071.382812" xlink:href="#DejaVuSans-101"/>
      <use x="1132.90625" xlink:href="#DejaVuSans-110"/>
      <use x="1196.285156" xlink:href="#DejaVuSans-117"/>
      <use x="1259.664062" xlink:href="#DejaVuSans-101"/>
     </g>
    </g>
   </g>
  </g>
 </g>
 <defs>
  <clipPath id="p4ffee06f27">
   <rect height="266.112" width="357.12" x="57.6" y="41.472"/>
  </clipPath>
 </defs>
</svg>
