<?xml version="1.0" encoding="utf-8" standalone="no"?>
<!DOCTYPE svg PUBLIC "-//W3C//DTD SVG 1.1//EN"
  "http://www.w3.org/Graphics/SVG/1.1/DTD/svg11.dtd">
<!-- Created with matplotlib (https://matplotlib.org/) -->
<svg height="345.6pt" version="1.1" viewBox="0 0 460.8 345.6" width="460.8pt" xmlns="http://www.w3.org/2000/svg" xmlns:xlink="http://www.w3.org/1999/xlink">
 <defs>
  <style type="text/css">
*{stroke-linecap:butt;stroke-linejoin:round;}
  </style>
 </defs>
 <g id="figure_1">
  <g id="patch_1">
   <path d="M 0 345.6 
L 460.8 345.6 
L 460.8 0 
L 0 0 
z
" style="fill:#ffffff;"/>
  </g>
  <g id="axes_1">
   <g id="patch_2">
    <path d="M 57.6 307.584 
L 414.72 307.584 
L 414.72 41.472 
L 57.6 41.472 
z
" style="fill:#ffffff;"/>
   </g>
   <g id="matplotlib.axis_1">
    <g id="xtick_1">
     <g id="line2d_1">
      <defs>
       <path d="M 0 0 
L 0 3.5 
" id="mc788bd9dfe" style="stroke:#000000;stroke-width:0.8;"/>
      </defs>
      <g>
       <use style="stroke:#000000;stroke-width:0.8;" x="73.832727" xlink:href="#mc788bd9dfe" y="307.584"/>
      </g>
     </g>
     <g id="text_1">
      <!-- 0.0 -->
      <defs>
       <path d="M 31.78125 66.40625 
Q 24.171875 66.40625 20.328125 58.90625 
Q 16.5 51.421875 16.5 36.375 
Q 16.5 21.390625 20.328125 13.890625 
Q 24.171875 6.390625 31.78125 6.390625 
Q 39.453125 6.390625 43.28125 13.890625 
Q 47.125 21.390625 47.125 36.375 
Q 47.125 51.421875 43.28125 58.90625 
Q 39.453125 66.40625 31.78125 66.40625 
z
M 31.78125 74.21875 
Q 44.046875 74.21875 50.515625 64.515625 
Q 56.984375 54.828125 56.984375 36.375 
Q 56.984375 17.96875 50.515625 8.265625 
Q 44.046875 -1.421875 31.78125 -1.421875 
Q 19.53125 -1.421875 13.0625 8.265625 
Q 6.59375 17.96875 6.59375 36.375 
Q 6.59375 54.828125 13.0625 64.515625 
Q 19.53125 74.21875 31.78125 74.21875 
z
" id="DejaVuSans-48"/>
       <path d="M 10.6875 12.40625 
L 21 12.40625 
L 21 0 
L 10.6875 0 
z
" id="DejaVuSans-46"/>
      </defs>
      <g transform="translate(65.881165 322.182437)scale(0.1 -0.1)">
       <use xlink:href="#DejaVuSans-48"/>
       <use x="63.623047" xlink:href="#DejaVuSans-46"/>
       <use x="95.410156" xlink:href="#DejaVuSans-48"/>
      </g>
     </g>
    </g>
    <g id="xtick_2">
     <g id="line2d_2">
      <g>
       <use style="stroke:#000000;stroke-width:0.8;" x="138.763636" xlink:href="#mc788bd9dfe" y="307.584"/>
      </g>
     </g>
     <g id="text_2">
      <!-- 0.2 -->
      <defs>
       <path d="M 19.1875 8.296875 
L 53.609375 8.296875 
L 53.609375 0 
L 7.328125 0 
L 7.328125 8.296875 
Q 12.9375 14.109375 22.625 23.890625 
Q 32.328125 33.6875 34.8125 36.53125 
Q 39.546875 41.84375 41.421875 45.53125 
Q 43.3125 49.21875 43.3125 52.78125 
Q 43.3125 58.59375 39.234375 62.25 
Q 35.15625 65.921875 28.609375 65.921875 
Q 23.96875 65.921875 18.8125 64.3125 
Q 13.671875 62.703125 7.8125 59.421875 
L 7.8125 69.390625 
Q 13.765625 71.78125 18.9375 73 
Q 24.125 74.21875 28.421875 74.21875 
Q 39.75 74.21875 46.484375 68.546875 
Q 53.21875 62.890625 53.21875 53.421875 
Q 53.21875 48.921875 51.53125 44.890625 
Q 49.859375 40.875 45.40625 35.40625 
Q 44.1875 33.984375 37.640625 27.21875 
Q 31.109375 20.453125 19.1875 8.296875 
z
" id="DejaVuSans-50"/>
      </defs>
      <g transform="translate(130.812074 322.182437)scale(0.1 -0.1)">
       <use xlink:href="#DejaVuSans-48"/>
       <use x="63.623047" xlink:href="#DejaVuSans-46"/>
       <use x="95.410156" xlink:href="#DejaVuSans-50"/>
      </g>
     </g>
    </g>
    <g id="xtick_3">
     <g id="line2d_3">
      <g>
       <use style="stroke:#000000;stroke-width:0.8;" x="203.694545" xlink:href="#mc788bd9dfe" y="307.584"/>
      </g>
     </g>
     <g id="text_3">
      <!-- 0.4 -->
      <defs>
       <path d="M 37.796875 64.3125 
L 12.890625 25.390625 
L 37.796875 25.390625 
z
M 35.203125 72.90625 
L 47.609375 72.90625 
L 47.609375 25.390625 
L 58.015625 25.390625 
L 58.015625 17.1875 
L 47.609375 17.1875 
L 47.609375 0 
L 37.796875 0 
L 37.796875 17.1875 
L 4.890625 17.1875 
L 4.890625 26.703125 
z
" id="DejaVuSans-52"/>
      </defs>
      <g transform="translate(195.742983 322.182437)scale(0.1 -0.1)">
       <use xlink:href="#DejaVuSans-48"/>
       <use x="63.623047" xlink:href="#DejaVuSans-46"/>
       <use x="95.410156" xlink:href="#DejaVuSans-52"/>
      </g>
     </g>
    </g>
    <g id="xtick_4">
     <g id="line2d_4">
      <g>
       <use style="stroke:#000000;stroke-width:0.8;" x="268.625455" xlink:href="#mc788bd9dfe" y="307.584"/>
      </g>
     </g>
     <g id="text_4">
      <!-- 0.6 -->
      <defs>
       <path d="M 33.015625 40.375 
Q 26.375 40.375 22.484375 35.828125 
Q 18.609375 31.296875 18.609375 23.390625 
Q 18.609375 15.53125 22.484375 10.953125 
Q 26.375 6.390625 33.015625 6.390625 
Q 39.65625 6.390625 43.53125 10.953125 
Q 47.40625 15.53125 47.40625 23.390625 
Q 47.40625 31.296875 43.53125 35.828125 
Q 39.65625 40.375 33.015625 40.375 
z
M 52.59375 71.296875 
L 52.59375 62.3125 
Q 48.875 64.0625 45.09375 64.984375 
Q 41.3125 65.921875 37.59375 65.921875 
Q 27.828125 65.921875 22.671875 59.328125 
Q 17.53125 52.734375 16.796875 39.40625 
Q 19.671875 43.65625 24.015625 45.921875 
Q 28.375 48.1875 33.59375 48.1875 
Q 44.578125 48.1875 50.953125 41.515625 
Q 57.328125 34.859375 57.328125 23.390625 
Q 57.328125 12.15625 50.6875 5.359375 
Q 44.046875 -1.421875 33.015625 -1.421875 
Q 20.359375 -1.421875 13.671875 8.265625 
Q 6.984375 17.96875 6.984375 36.375 
Q 6.984375 53.65625 15.1875 63.9375 
Q 23.390625 74.21875 37.203125 74.21875 
Q 40.921875 74.21875 44.703125 73.484375 
Q 48.484375 72.75 52.59375 71.296875 
z
" id="DejaVuSans-54"/>
      </defs>
      <g transform="translate(260.673892 322.182437)scale(0.1 -0.1)">
       <use xlink:href="#DejaVuSans-48"/>
       <use x="63.623047" xlink:href="#DejaVuSans-46"/>
       <use x="95.410156" xlink:href="#DejaVuSans-54"/>
      </g>
     </g>
    </g>
    <g id="xtick_5">
     <g id="line2d_5">
      <g>
       <use style="stroke:#000000;stroke-width:0.8;" x="333.556364" xlink:href="#mc788bd9dfe" y="307.584"/>
      </g>
     </g>
     <g id="text_5">
      <!-- 0.8 -->
      <defs>
       <path d="M 31.78125 34.625 
Q 24.75 34.625 20.71875 30.859375 
Q 16.703125 27.09375 16.703125 20.515625 
Q 16.703125 13.921875 20.71875 10.15625 
Q 24.75 6.390625 31.78125 6.390625 
Q 38.8125 6.390625 42.859375 10.171875 
Q 46.921875 13.96875 46.921875 20.515625 
Q 46.921875 27.09375 42.890625 30.859375 
Q 38.875 34.625 31.78125 34.625 
z
M 21.921875 38.8125 
Q 15.578125 40.375 12.03125 44.71875 
Q 8.5 49.078125 8.5 55.328125 
Q 8.5 64.0625 14.71875 69.140625 
Q 20.953125 74.21875 31.78125 74.21875 
Q 42.671875 74.21875 48.875 69.140625 
Q 55.078125 64.0625 55.078125 55.328125 
Q 55.078125 49.078125 51.53125 44.71875 
Q 48 40.375 41.703125 38.8125 
Q 48.828125 37.15625 52.796875 32.3125 
Q 56.78125 27.484375 56.78125 20.515625 
Q 56.78125 9.90625 50.3125 4.234375 
Q 43.84375 -1.421875 31.78125 -1.421875 
Q 19.734375 -1.421875 13.25 4.234375 
Q 6.78125 9.90625 6.78125 20.515625 
Q 6.78125 27.484375 10.78125 32.3125 
Q 14.796875 37.15625 21.921875 38.8125 
z
M 18.3125 54.390625 
Q 18.3125 48.734375 21.84375 45.5625 
Q 25.390625 42.390625 31.78125 42.390625 
Q 38.140625 42.390625 41.71875 45.5625 
Q 45.3125 48.734375 45.3125 54.390625 
Q 45.3125 60.0625 41.71875 63.234375 
Q 38.140625 66.40625 31.78125 66.40625 
Q 25.390625 66.40625 21.84375 63.234375 
Q 18.3125 60.0625 18.3125 54.390625 
z
" id="DejaVuSans-56"/>
      </defs>
      <g transform="translate(325.604801 322.182437)scale(0.1 -0.1)">
       <use xlink:href="#DejaVuSans-48"/>
       <use x="63.623047" xlink:href="#DejaVuSans-46"/>
       <use x="95.410156" xlink:href="#DejaVuSans-56"/>
      </g>
     </g>
    </g>
    <g id="xtick_6">
     <g id="line2d_6">
      <g>
       <use style="stroke:#000000;stroke-width:0.8;" x="398.487273" xlink:href="#mc788bd9dfe" y="307.584"/>
      </g>
     </g>
     <g id="text_6">
      <!-- 1.0 -->
      <defs>
       <path d="M 12.40625 8.296875 
L 28.515625 8.296875 
L 28.515625 63.921875 
L 10.984375 60.40625 
L 10.984375 69.390625 
L 28.421875 72.90625 
L 38.28125 72.90625 
L 38.28125 8.296875 
L 54.390625 8.296875 
L 54.390625 0 
L 12.40625 0 
z
" id="DejaVuSans-49"/>
      </defs>
      <g transform="translate(390.53571 322.182437)scale(0.1 -0.1)">
       <use xlink:href="#DejaVuSans-49"/>
       <use x="63.623047" xlink:href="#DejaVuSans-46"/>
       <use x="95.410156" xlink:href="#DejaVuSans-48"/>
      </g>
     </g>
    </g>
   </g>
   <g id="matplotlib.axis_2">
    <g id="ytick_1">
     <g id="line2d_7">
      <defs>
       <path d="M 0 0 
L -3.5 0 
" id="m4e8d7832e9" style="stroke:#000000;stroke-width:0.8;"/>
      </defs>
      <g>
       <use style="stroke:#000000;stroke-width:0.8;" x="57.6" xlink:href="#m4e8d7832e9" y="295.488"/>
      </g>
     </g>
     <g id="text_7">
      <!-- 0.0 -->
      <g transform="translate(34.696875 299.287219)scale(0.1 -0.1)">
       <use xlink:href="#DejaVuSans-48"/>
       <use x="63.623047" xlink:href="#DejaVuSans-46"/>
       <use x="95.410156" xlink:href="#DejaVuSans-48"/>
      </g>
     </g>
    </g>
    <g id="ytick_2">
     <g id="line2d_8">
      <g>
       <use style="stroke:#000000;stroke-width:0.8;" x="57.6" xlink:href="#m4e8d7832e9" y="247.104"/>
      </g>
     </g>
     <g id="text_8">
      <!-- 0.2 -->
      <g transform="translate(34.696875 250.903219)scale(0.1 -0.1)">
       <use xlink:href="#DejaVuSans-48"/>
       <use x="63.623047" xlink:href="#DejaVuSans-46"/>
       <use x="95.410156" xlink:href="#DejaVuSans-50"/>
      </g>
     </g>
    </g>
    <g id="ytick_3">
     <g id="line2d_9">
      <g>
       <use style="stroke:#000000;stroke-width:0.8;" x="57.6" xlink:href="#m4e8d7832e9" y="198.72"/>
      </g>
     </g>
     <g id="text_9">
      <!-- 0.4 -->
      <g transform="translate(34.696875 202.519219)scale(0.1 -0.1)">
       <use xlink:href="#DejaVuSans-48"/>
       <use x="63.623047" xlink:href="#DejaVuSans-46"/>
       <use x="95.410156" xlink:href="#DejaVuSans-52"/>
      </g>
     </g>
    </g>
    <g id="ytick_4">
     <g id="line2d_10">
      <g>
       <use style="stroke:#000000;stroke-width:0.8;" x="57.6" xlink:href="#m4e8d7832e9" y="150.336"/>
      </g>
     </g>
     <g id="text_10">
      <!-- 0.6 -->
      <g transform="translate(34.696875 154.135219)scale(0.1 -0.1)">
       <use xlink:href="#DejaVuSans-48"/>
       <use x="63.623047" xlink:href="#DejaVuSans-46"/>
       <use x="95.410156" xlink:href="#DejaVuSans-54"/>
      </g>
     </g>
    </g>
    <g id="ytick_5">
     <g id="line2d_11">
      <g>
       <use style="stroke:#000000;stroke-width:0.8;" x="57.6" xlink:href="#m4e8d7832e9" y="101.952"/>
      </g>
     </g>
     <g id="text_11">
      <!-- 0.8 -->
      <g transform="translate(34.696875 105.751219)scale(0.1 -0.1)">
       <use xlink:href="#DejaVuSans-48"/>
       <use x="63.623047" xlink:href="#DejaVuSans-46"/>
       <use x="95.410156" xlink:href="#DejaVuSans-56"/>
      </g>
     </g>
    </g>
    <g id="ytick_6">
     <g id="line2d_12">
      <g>
       <use style="stroke:#000000;stroke-width:0.8;" x="57.6" xlink:href="#m4e8d7832e9" y="53.568"/>
      </g>
     </g>
     <g id="text_12">
      <!-- 1.0 -->
      <g transform="translate(34.696875 57.367219)scale(0.1 -0.1)">
       <use xlink:href="#DejaVuSans-49"/>
       <use x="63.623047" xlink:href="#DejaVuSans-46"/>
       <use x="95.410156" xlink:href="#DejaVuSans-48"/>
      </g>
     </g>
    </g>
   </g>
   <g id="line2d_13">
    <path clip-path="url(#pcd2b12bcd2)" d="M 73.832727 295.488 
L 77.948791 212.806481 
L 153.324213 185.245975 
L 211.978124 107.157873 
L 320.539311 96.439899 
L 351.152537 56.630278 
L 398.487273 53.568 
" style="fill:none;stroke:#1f77b4;stroke-dasharray:5.55,2.4;stroke-dashoffset:0;stroke-width:1.5;"/>
   </g>
   <g id="line2d_14">
    <path clip-path="url(#pcd2b12bcd2)" d="M 73.832727 295.488 
L 74.604489 295.488 
L 74.604489 287.832304 
L 75.376251 287.832304 
L 75.376251 286.301165 
L 75.890759 286.301165 
L 75.890759 284.770025 
L 76.662521 284.770025 
L 76.662521 283.238886 
L 78.206045 283.238886 
L 78.206045 280.176608 
L 83.093871 280.176608 
L 83.093871 278.645468 
L 83.351125 278.645468 
L 83.351125 277.114329 
L 84.894649 277.114329 
L 84.894649 275.58319 
L 85.923665 275.58319 
L 85.923665 274.052051 
L 87.209935 274.052051 
L 87.209935 272.520911 
L 87.724443 272.520911 
L 87.724443 267.927494 
L 87.981697 267.927494 
L 87.981697 258.740658 
L 88.496205 258.740658 
L 88.496205 251.084962 
L 89.267967 251.084962 
L 89.267967 249.553823 
L 96.985587 249.553823 
L 96.985587 248.022684 
L 97.242841 248.022684 
L 97.242841 246.491544 
L 98.529111 246.491544 
L 98.529111 244.960405 
L 100.072635 244.960405 
L 100.072635 243.429266 
L 100.329889 243.429266 
L 100.329889 241.898127 
L 104.445953 241.898127 
L 104.445953 240.366987 
L 112.163573 240.366987 
L 112.163573 238.835848 
L 112.935335 238.835848 
L 112.935335 237.304709 
L 113.964351 237.304709 
L 113.964351 235.77357 
L 114.993367 235.77357 
L 114.993367 234.24243 
L 120.652955 234.24243 
L 120.652955 232.711291 
L 125.798035 232.711291 
L 125.798035 231.180152 
L 128.627829 231.180152 
L 128.627829 229.649013 
L 130.171353 229.649013 
L 130.171353 228.117873 
L 140.976021 228.117873 
L 140.976021 226.586734 
L 141.233275 226.586734 
L 141.233275 225.055595 
L 141.490529 225.055595 
L 141.490529 223.524456 
L 141.747783 223.524456 
L 141.747783 220.462177 
L 142.262291 220.462177 
L 142.262291 218.931038 
L 144.063069 218.931038 
L 144.063069 217.399899 
L 144.577577 217.399899 
L 144.577577 215.868759 
L 144.834831 215.868759 
L 144.834831 214.33762 
L 145.349339 214.33762 
L 145.349339 211.275342 
L 145.606593 211.275342 
L 145.606593 208.213063 
L 146.121101 208.213063 
L 146.121101 205.150785 
L 146.378355 205.150785 
L 146.378355 200.557367 
L 146.635609 200.557367 
L 146.635609 195.963949 
L 146.892863 195.963949 
L 146.892863 183.714835 
L 147.150117 183.714835 
L 147.150117 177.590278 
L 147.407371 177.590278 
L 147.407371 176.059139 
L 147.921879 176.059139 
L 147.921879 174.528 
L 148.179133 174.528 
L 148.179133 171.465722 
L 148.436387 171.465722 
L 148.436387 165.341165 
L 148.693641 165.341165 
L 148.693641 163.810025 
L 148.950895 163.810025 
L 148.950895 162.278886 
L 151.008927 162.278886 
L 151.008927 160.747747 
L 161.556341 160.747747 
L 161.556341 159.216608 
L 162.328103 159.216608 
L 162.328103 157.685468 
L 163.099865 157.685468 
L 163.099865 154.62319 
L 163.614373 154.62319 
L 163.614373 151.560911 
L 164.128881 151.560911 
L 164.128881 150.029772 
L 168.759453 150.029772 
L 168.759453 148.498633 
L 179.821374 148.498633 
L 179.821374 146.967494 
L 181.879406 146.967494 
L 181.879406 145.436354 
L 187.796248 145.436354 
L 187.796248 143.905215 
L 191.397804 143.905215 
L 191.397804 142.374076 
L 192.684074 142.374076 
L 192.684074 140.842937 
L 195.771122 140.842937 
L 195.771122 139.311797 
L 196.28563 139.311797 
L 196.28563 137.780658 
L 196.542884 137.780658 
L 196.542884 136.249519 
L 199.629932 136.249519 
L 199.629932 134.71838 
L 201.687964 134.71838 
L 201.687964 133.187241 
L 202.974234 133.187241 
L 202.974234 130.124962 
L 212.749886 130.124962 
L 212.749886 128.593823 
L 215.57968 128.593823 
L 215.57968 127.062684 
L 216.351442 127.062684 
L 216.351442 125.531544 
L 222.782792 125.531544 
L 222.782792 124.000405 
L 224.069062 124.000405 
L 224.069062 122.469266 
L 224.326316 122.469266 
L 224.326316 120.938127 
L 225.355332 120.938127 
L 225.355332 119.406987 
L 225.612586 119.406987 
L 225.612586 117.875848 
L 227.15611 117.875848 
L 227.15611 116.344709 
L 228.44238 116.344709 
L 228.44238 114.81357 
L 229.985904 114.81357 
L 229.985904 113.28243 
L 231.272174 113.28243 
L 231.272174 111.751291 
L 241.819588 111.751291 
L 241.819588 110.220152 
L 244.649382 110.220152 
L 244.649382 108.689013 
L 245.935652 108.689013 
L 245.935652 107.157873 
L 254.939542 107.157873 
L 254.939542 105.626734 
L 255.45405 105.626734 
L 255.45405 104.095595 
L 256.225812 104.095595 
L 256.225812 102.564456 
L 256.74032 102.564456 
L 256.74032 101.033316 
L 261.8854 101.033316 
L 261.8854 99.502177 
L 262.914416 99.502177 
L 262.914416 97.971038 
L 273.46183 97.971038 
L 273.46183 96.439899 
L 274.7481 96.439899 
L 274.7481 94.908759 
L 275.519862 94.908759 
L 275.519862 93.37762 
L 299.958991 93.37762 
L 299.958991 91.846481 
L 303.046039 91.846481 
L 303.046039 90.315342 
L 318.224025 90.315342 
L 318.224025 88.784203 
L 319.253041 88.784203 
L 319.253041 87.253063 
L 320.282057 87.253063 
L 320.282057 85.721924 
L 323.883613 85.721924 
L 323.883613 84.190785 
L 324.398121 84.190785 
L 324.398121 82.659646 
L 324.912629 82.659646 
L 324.912629 81.128506 
L 325.941645 81.128506 
L 325.941645 79.597367 
L 327.485169 79.597367 
L 327.485169 78.066228 
L 328.771439 78.066228 
L 328.771439 76.535089 
L 337.260821 76.535089 
L 337.260821 75.003949 
L 340.347869 75.003949 
L 340.347869 73.47281 
L 344.978441 73.47281 
L 344.978441 71.941671 
L 346.007457 71.941671 
L 346.007457 70.410532 
L 347.036473 70.410532 
L 347.036473 67.348253 
L 351.152537 67.348253 
L 351.152537 64.285975 
L 351.409791 64.285975 
L 351.409791 59.692557 
L 351.667045 59.692557 
L 351.667045 58.161418 
L 353.725077 58.161418 
L 353.725077 56.630278 
L 360.928189 56.630278 
L 360.928189 55.099139 
L 372.504619 55.099139 
L 372.504619 53.568 
L 398.487273 53.568 
L 398.487273 53.568 
" style="fill:none;stroke:#ff7f0e;stroke-linecap:square;stroke-width:1.5;"/>
    <defs>
     <path d="M 0 1.5 
C 0.397805 1.5 0.77937 1.341951 1.06066 1.06066 
C 1.341951 0.77937 1.5 0.397805 1.5 0 
C 1.5 -0.397805 1.341951 -0.77937 1.06066 -1.06066 
C 0.77937 -1.341951 0.397805 -1.5 0 -1.5 
C -0.397805 -1.5 -0.77937 -1.341951 -1.06066 -1.06066 
C -1.341951 -0.77937 -1.5 -0.397805 -1.5 0 
C -1.5 0.397805 -1.341951 0.77937 -1.06066 1.06066 
C -0.77937 1.341951 -0.397805 1.5 0 1.5 
z
" id="m6cd162b79e" style="stroke:#ff7f0e;"/>
    </defs>
    <g clip-path="url(#pcd2b12bcd2)">
     <use style="fill:#ff7f0e;stroke:#ff7f0e;" x="73.832727" xlink:href="#m6cd162b79e" y="295.488"/>
     <use style="fill:#ff7f0e;stroke:#ff7f0e;" x="74.089981" xlink:href="#m6cd162b79e" y="295.488"/>
     <use style="fill:#ff7f0e;stroke:#ff7f0e;" x="74.604489" xlink:href="#m6cd162b79e" y="295.488"/>
     <use style="fill:#ff7f0e;stroke:#ff7f0e;" x="74.604489" xlink:href="#m6cd162b79e" y="287.832304"/>
     <use style="fill:#ff7f0e;stroke:#ff7f0e;" x="75.376251" xlink:href="#m6cd162b79e" y="287.832304"/>
     <use style="fill:#ff7f0e;stroke:#ff7f0e;" x="75.376251" xlink:href="#m6cd162b79e" y="286.301165"/>
     <use style="fill:#ff7f0e;stroke:#ff7f0e;" x="75.890759" xlink:href="#m6cd162b79e" y="286.301165"/>
     <use style="fill:#ff7f0e;stroke:#ff7f0e;" x="75.890759" xlink:href="#m6cd162b79e" y="284.770025"/>
     <use style="fill:#ff7f0e;stroke:#ff7f0e;" x="76.662521" xlink:href="#m6cd162b79e" y="284.770025"/>
     <use style="fill:#ff7f0e;stroke:#ff7f0e;" x="76.662521" xlink:href="#m6cd162b79e" y="283.238886"/>
     <use style="fill:#ff7f0e;stroke:#ff7f0e;" x="78.206045" xlink:href="#m6cd162b79e" y="283.238886"/>
     <use style="fill:#ff7f0e;stroke:#ff7f0e;" x="78.206045" xlink:href="#m6cd162b79e" y="280.176608"/>
     <use style="fill:#ff7f0e;stroke:#ff7f0e;" x="83.093871" xlink:href="#m6cd162b79e" y="280.176608"/>
     <use style="fill:#ff7f0e;stroke:#ff7f0e;" x="83.093871" xlink:href="#m6cd162b79e" y="278.645468"/>
     <use style="fill:#ff7f0e;stroke:#ff7f0e;" x="83.351125" xlink:href="#m6cd162b79e" y="278.645468"/>
     <use style="fill:#ff7f0e;stroke:#ff7f0e;" x="83.351125" xlink:href="#m6cd162b79e" y="277.114329"/>
     <use style="fill:#ff7f0e;stroke:#ff7f0e;" x="84.894649" xlink:href="#m6cd162b79e" y="277.114329"/>
     <use style="fill:#ff7f0e;stroke:#ff7f0e;" x="84.894649" xlink:href="#m6cd162b79e" y="275.58319"/>
     <use style="fill:#ff7f0e;stroke:#ff7f0e;" x="85.923665" xlink:href="#m6cd162b79e" y="275.58319"/>
     <use style="fill:#ff7f0e;stroke:#ff7f0e;" x="85.923665" xlink:href="#m6cd162b79e" y="274.052051"/>
     <use style="fill:#ff7f0e;stroke:#ff7f0e;" x="87.209935" xlink:href="#m6cd162b79e" y="274.052051"/>
     <use style="fill:#ff7f0e;stroke:#ff7f0e;" x="87.209935" xlink:href="#m6cd162b79e" y="272.520911"/>
     <use style="fill:#ff7f0e;stroke:#ff7f0e;" x="87.724443" xlink:href="#m6cd162b79e" y="272.520911"/>
     <use style="fill:#ff7f0e;stroke:#ff7f0e;" x="87.724443" xlink:href="#m6cd162b79e" y="267.927494"/>
     <use style="fill:#ff7f0e;stroke:#ff7f0e;" x="87.981697" xlink:href="#m6cd162b79e" y="267.927494"/>
     <use style="fill:#ff7f0e;stroke:#ff7f0e;" x="87.981697" xlink:href="#m6cd162b79e" y="258.740658"/>
     <use style="fill:#ff7f0e;stroke:#ff7f0e;" x="88.496205" xlink:href="#m6cd162b79e" y="258.740658"/>
     <use style="fill:#ff7f0e;stroke:#ff7f0e;" x="88.496205" xlink:href="#m6cd162b79e" y="251.084962"/>
     <use style="fill:#ff7f0e;stroke:#ff7f0e;" x="89.267967" xlink:href="#m6cd162b79e" y="251.084962"/>
     <use style="fill:#ff7f0e;stroke:#ff7f0e;" x="89.267967" xlink:href="#m6cd162b79e" y="249.553823"/>
     <use style="fill:#ff7f0e;stroke:#ff7f0e;" x="96.985587" xlink:href="#m6cd162b79e" y="249.553823"/>
     <use style="fill:#ff7f0e;stroke:#ff7f0e;" x="96.985587" xlink:href="#m6cd162b79e" y="248.022684"/>
     <use style="fill:#ff7f0e;stroke:#ff7f0e;" x="97.242841" xlink:href="#m6cd162b79e" y="248.022684"/>
     <use style="fill:#ff7f0e;stroke:#ff7f0e;" x="97.242841" xlink:href="#m6cd162b79e" y="246.491544"/>
     <use style="fill:#ff7f0e;stroke:#ff7f0e;" x="98.529111" xlink:href="#m6cd162b79e" y="246.491544"/>
     <use style="fill:#ff7f0e;stroke:#ff7f0e;" x="98.529111" xlink:href="#m6cd162b79e" y="244.960405"/>
     <use style="fill:#ff7f0e;stroke:#ff7f0e;" x="100.072635" xlink:href="#m6cd162b79e" y="244.960405"/>
     <use style="fill:#ff7f0e;stroke:#ff7f0e;" x="100.072635" xlink:href="#m6cd162b79e" y="243.429266"/>
     <use style="fill:#ff7f0e;stroke:#ff7f0e;" x="100.329889" xlink:href="#m6cd162b79e" y="243.429266"/>
     <use style="fill:#ff7f0e;stroke:#ff7f0e;" x="100.329889" xlink:href="#m6cd162b79e" y="241.898127"/>
     <use style="fill:#ff7f0e;stroke:#ff7f0e;" x="104.445953" xlink:href="#m6cd162b79e" y="241.898127"/>
     <use style="fill:#ff7f0e;stroke:#ff7f0e;" x="104.445953" xlink:href="#m6cd162b79e" y="240.366987"/>
     <use style="fill:#ff7f0e;stroke:#ff7f0e;" x="112.163573" xlink:href="#m6cd162b79e" y="240.366987"/>
     <use style="fill:#ff7f0e;stroke:#ff7f0e;" x="112.163573" xlink:href="#m6cd162b79e" y="238.835848"/>
     <use style="fill:#ff7f0e;stroke:#ff7f0e;" x="112.935335" xlink:href="#m6cd162b79e" y="238.835848"/>
     <use style="fill:#ff7f0e;stroke:#ff7f0e;" x="112.935335" xlink:href="#m6cd162b79e" y="237.304709"/>
     <use style="fill:#ff7f0e;stroke:#ff7f0e;" x="113.964351" xlink:href="#m6cd162b79e" y="237.304709"/>
     <use style="fill:#ff7f0e;stroke:#ff7f0e;" x="113.964351" xlink:href="#m6cd162b79e" y="235.77357"/>
     <use style="fill:#ff7f0e;stroke:#ff7f0e;" x="114.993367" xlink:href="#m6cd162b79e" y="235.77357"/>
     <use style="fill:#ff7f0e;stroke:#ff7f0e;" x="114.993367" xlink:href="#m6cd162b79e" y="234.24243"/>
     <use style="fill:#ff7f0e;stroke:#ff7f0e;" x="120.652955" xlink:href="#m6cd162b79e" y="234.24243"/>
     <use style="fill:#ff7f0e;stroke:#ff7f0e;" x="120.652955" xlink:href="#m6cd162b79e" y="232.711291"/>
     <use style="fill:#ff7f0e;stroke:#ff7f0e;" x="125.798035" xlink:href="#m6cd162b79e" y="232.711291"/>
     <use style="fill:#ff7f0e;stroke:#ff7f0e;" x="125.798035" xlink:href="#m6cd162b79e" y="231.180152"/>
     <use style="fill:#ff7f0e;stroke:#ff7f0e;" x="128.627829" xlink:href="#m6cd162b79e" y="231.180152"/>
     <use style="fill:#ff7f0e;stroke:#ff7f0e;" x="128.627829" xlink:href="#m6cd162b79e" y="229.649013"/>
     <use style="fill:#ff7f0e;stroke:#ff7f0e;" x="130.171353" xlink:href="#m6cd162b79e" y="229.649013"/>
     <use style="fill:#ff7f0e;stroke:#ff7f0e;" x="130.171353" xlink:href="#m6cd162b79e" y="228.117873"/>
     <use style="fill:#ff7f0e;stroke:#ff7f0e;" x="140.976021" xlink:href="#m6cd162b79e" y="228.117873"/>
     <use style="fill:#ff7f0e;stroke:#ff7f0e;" x="140.976021" xlink:href="#m6cd162b79e" y="226.586734"/>
     <use style="fill:#ff7f0e;stroke:#ff7f0e;" x="141.233275" xlink:href="#m6cd162b79e" y="226.586734"/>
     <use style="fill:#ff7f0e;stroke:#ff7f0e;" x="141.233275" xlink:href="#m6cd162b79e" y="225.055595"/>
     <use style="fill:#ff7f0e;stroke:#ff7f0e;" x="141.490529" xlink:href="#m6cd162b79e" y="225.055595"/>
     <use style="fill:#ff7f0e;stroke:#ff7f0e;" x="141.490529" xlink:href="#m6cd162b79e" y="223.524456"/>
     <use style="fill:#ff7f0e;stroke:#ff7f0e;" x="141.747783" xlink:href="#m6cd162b79e" y="223.524456"/>
     <use style="fill:#ff7f0e;stroke:#ff7f0e;" x="141.747783" xlink:href="#m6cd162b79e" y="220.462177"/>
     <use style="fill:#ff7f0e;stroke:#ff7f0e;" x="142.262291" xlink:href="#m6cd162b79e" y="220.462177"/>
     <use style="fill:#ff7f0e;stroke:#ff7f0e;" x="142.262291" xlink:href="#m6cd162b79e" y="218.931038"/>
     <use style="fill:#ff7f0e;stroke:#ff7f0e;" x="144.063069" xlink:href="#m6cd162b79e" y="218.931038"/>
     <use style="fill:#ff7f0e;stroke:#ff7f0e;" x="144.063069" xlink:href="#m6cd162b79e" y="217.399899"/>
     <use style="fill:#ff7f0e;stroke:#ff7f0e;" x="144.577577" xlink:href="#m6cd162b79e" y="217.399899"/>
     <use style="fill:#ff7f0e;stroke:#ff7f0e;" x="144.577577" xlink:href="#m6cd162b79e" y="215.868759"/>
     <use style="fill:#ff7f0e;stroke:#ff7f0e;" x="144.834831" xlink:href="#m6cd162b79e" y="215.868759"/>
     <use style="fill:#ff7f0e;stroke:#ff7f0e;" x="144.834831" xlink:href="#m6cd162b79e" y="214.33762"/>
     <use style="fill:#ff7f0e;stroke:#ff7f0e;" x="145.349339" xlink:href="#m6cd162b79e" y="214.33762"/>
     <use style="fill:#ff7f0e;stroke:#ff7f0e;" x="145.349339" xlink:href="#m6cd162b79e" y="211.275342"/>
     <use style="fill:#ff7f0e;stroke:#ff7f0e;" x="145.606593" xlink:href="#m6cd162b79e" y="211.275342"/>
     <use style="fill:#ff7f0e;stroke:#ff7f0e;" x="145.606593" xlink:href="#m6cd162b79e" y="208.213063"/>
     <use style="fill:#ff7f0e;stroke:#ff7f0e;" x="146.121101" xlink:href="#m6cd162b79e" y="208.213063"/>
     <use style="fill:#ff7f0e;stroke:#ff7f0e;" x="146.121101" xlink:href="#m6cd162b79e" y="205.150785"/>
     <use style="fill:#ff7f0e;stroke:#ff7f0e;" x="146.378355" xlink:href="#m6cd162b79e" y="205.150785"/>
     <use style="fill:#ff7f0e;stroke:#ff7f0e;" x="146.378355" xlink:href="#m6cd162b79e" y="200.557367"/>
     <use style="fill:#ff7f0e;stroke:#ff7f0e;" x="146.635609" xlink:href="#m6cd162b79e" y="200.557367"/>
     <use style="fill:#ff7f0e;stroke:#ff7f0e;" x="146.635609" xlink:href="#m6cd162b79e" y="195.963949"/>
     <use style="fill:#ff7f0e;stroke:#ff7f0e;" x="146.892863" xlink:href="#m6cd162b79e" y="195.963949"/>
     <use style="fill:#ff7f0e;stroke:#ff7f0e;" x="146.892863" xlink:href="#m6cd162b79e" y="183.714835"/>
     <use style="fill:#ff7f0e;stroke:#ff7f0e;" x="147.150117" xlink:href="#m6cd162b79e" y="183.714835"/>
     <use style="fill:#ff7f0e;stroke:#ff7f0e;" x="147.150117" xlink:href="#m6cd162b79e" y="177.590278"/>
     <use style="fill:#ff7f0e;stroke:#ff7f0e;" x="147.407371" xlink:href="#m6cd162b79e" y="177.590278"/>
     <use style="fill:#ff7f0e;stroke:#ff7f0e;" x="147.407371" xlink:href="#m6cd162b79e" y="176.059139"/>
     <use style="fill:#ff7f0e;stroke:#ff7f0e;" x="147.921879" xlink:href="#m6cd162b79e" y="176.059139"/>
     <use style="fill:#ff7f0e;stroke:#ff7f0e;" x="147.921879" xlink:href="#m6cd162b79e" y="174.528"/>
     <use style="fill:#ff7f0e;stroke:#ff7f0e;" x="148.179133" xlink:href="#m6cd162b79e" y="174.528"/>
     <use style="fill:#ff7f0e;stroke:#ff7f0e;" x="148.179133" xlink:href="#m6cd162b79e" y="171.465722"/>
     <use style="fill:#ff7f0e;stroke:#ff7f0e;" x="148.436387" xlink:href="#m6cd162b79e" y="171.465722"/>
     <use style="fill:#ff7f0e;stroke:#ff7f0e;" x="148.436387" xlink:href="#m6cd162b79e" y="165.341165"/>
     <use style="fill:#ff7f0e;stroke:#ff7f0e;" x="148.693641" xlink:href="#m6cd162b79e" y="165.341165"/>
     <use style="fill:#ff7f0e;stroke:#ff7f0e;" x="148.693641" xlink:href="#m6cd162b79e" y="163.810025"/>
     <use style="fill:#ff7f0e;stroke:#ff7f0e;" x="148.950895" xlink:href="#m6cd162b79e" y="163.810025"/>
     <use style="fill:#ff7f0e;stroke:#ff7f0e;" x="148.950895" xlink:href="#m6cd162b79e" y="162.278886"/>
     <use style="fill:#ff7f0e;stroke:#ff7f0e;" x="151.008927" xlink:href="#m6cd162b79e" y="162.278886"/>
     <use style="fill:#ff7f0e;stroke:#ff7f0e;" x="151.008927" xlink:href="#m6cd162b79e" y="160.747747"/>
     <use style="fill:#ff7f0e;stroke:#ff7f0e;" x="161.556341" xlink:href="#m6cd162b79e" y="160.747747"/>
     <use style="fill:#ff7f0e;stroke:#ff7f0e;" x="161.556341" xlink:href="#m6cd162b79e" y="159.216608"/>
     <use style="fill:#ff7f0e;stroke:#ff7f0e;" x="162.328103" xlink:href="#m6cd162b79e" y="159.216608"/>
     <use style="fill:#ff7f0e;stroke:#ff7f0e;" x="162.328103" xlink:href="#m6cd162b79e" y="157.685468"/>
     <use style="fill:#ff7f0e;stroke:#ff7f0e;" x="163.099865" xlink:href="#m6cd162b79e" y="157.685468"/>
     <use style="fill:#ff7f0e;stroke:#ff7f0e;" x="163.099865" xlink:href="#m6cd162b79e" y="154.62319"/>
     <use style="fill:#ff7f0e;stroke:#ff7f0e;" x="163.614373" xlink:href="#m6cd162b79e" y="154.62319"/>
     <use style="fill:#ff7f0e;stroke:#ff7f0e;" x="163.614373" xlink:href="#m6cd162b79e" y="151.560911"/>
     <use style="fill:#ff7f0e;stroke:#ff7f0e;" x="164.128881" xlink:href="#m6cd162b79e" y="151.560911"/>
     <use style="fill:#ff7f0e;stroke:#ff7f0e;" x="164.128881" xlink:href="#m6cd162b79e" y="150.029772"/>
     <use style="fill:#ff7f0e;stroke:#ff7f0e;" x="168.759453" xlink:href="#m6cd162b79e" y="150.029772"/>
     <use style="fill:#ff7f0e;stroke:#ff7f0e;" x="168.759453" xlink:href="#m6cd162b79e" y="148.498633"/>
     <use style="fill:#ff7f0e;stroke:#ff7f0e;" x="179.821374" xlink:href="#m6cd162b79e" y="148.498633"/>
     <use style="fill:#ff7f0e;stroke:#ff7f0e;" x="179.821374" xlink:href="#m6cd162b79e" y="146.967494"/>
     <use style="fill:#ff7f0e;stroke:#ff7f0e;" x="181.879406" xlink:href="#m6cd162b79e" y="146.967494"/>
     <use style="fill:#ff7f0e;stroke:#ff7f0e;" x="181.879406" xlink:href="#m6cd162b79e" y="145.436354"/>
     <use style="fill:#ff7f0e;stroke:#ff7f0e;" x="187.796248" xlink:href="#m6cd162b79e" y="145.436354"/>
     <use style="fill:#ff7f0e;stroke:#ff7f0e;" x="187.796248" xlink:href="#m6cd162b79e" y="143.905215"/>
     <use style="fill:#ff7f0e;stroke:#ff7f0e;" x="191.397804" xlink:href="#m6cd162b79e" y="143.905215"/>
     <use style="fill:#ff7f0e;stroke:#ff7f0e;" x="191.397804" xlink:href="#m6cd162b79e" y="142.374076"/>
     <use style="fill:#ff7f0e;stroke:#ff7f0e;" x="192.684074" xlink:href="#m6cd162b79e" y="142.374076"/>
     <use style="fill:#ff7f0e;stroke:#ff7f0e;" x="192.684074" xlink:href="#m6cd162b79e" y="140.842937"/>
     <use style="fill:#ff7f0e;stroke:#ff7f0e;" x="195.771122" xlink:href="#m6cd162b79e" y="140.842937"/>
     <use style="fill:#ff7f0e;stroke:#ff7f0e;" x="195.771122" xlink:href="#m6cd162b79e" y="139.311797"/>
     <use style="fill:#ff7f0e;stroke:#ff7f0e;" x="196.28563" xlink:href="#m6cd162b79e" y="139.311797"/>
     <use style="fill:#ff7f0e;stroke:#ff7f0e;" x="196.28563" xlink:href="#m6cd162b79e" y="137.780658"/>
     <use style="fill:#ff7f0e;stroke:#ff7f0e;" x="196.542884" xlink:href="#m6cd162b79e" y="137.780658"/>
     <use style="fill:#ff7f0e;stroke:#ff7f0e;" x="196.542884" xlink:href="#m6cd162b79e" y="136.249519"/>
     <use style="fill:#ff7f0e;stroke:#ff7f0e;" x="199.629932" xlink:href="#m6cd162b79e" y="136.249519"/>
     <use style="fill:#ff7f0e;stroke:#ff7f0e;" x="199.629932" xlink:href="#m6cd162b79e" y="134.71838"/>
     <use style="fill:#ff7f0e;stroke:#ff7f0e;" x="201.687964" xlink:href="#m6cd162b79e" y="134.71838"/>
     <use style="fill:#ff7f0e;stroke:#ff7f0e;" x="201.687964" xlink:href="#m6cd162b79e" y="133.187241"/>
     <use style="fill:#ff7f0e;stroke:#ff7f0e;" x="202.974234" xlink:href="#m6cd162b79e" y="133.187241"/>
     <use style="fill:#ff7f0e;stroke:#ff7f0e;" x="202.974234" xlink:href="#m6cd162b79e" y="130.124962"/>
     <use style="fill:#ff7f0e;stroke:#ff7f0e;" x="212.749886" xlink:href="#m6cd162b79e" y="130.124962"/>
     <use style="fill:#ff7f0e;stroke:#ff7f0e;" x="212.749886" xlink:href="#m6cd162b79e" y="128.593823"/>
     <use style="fill:#ff7f0e;stroke:#ff7f0e;" x="215.57968" xlink:href="#m6cd162b79e" y="128.593823"/>
     <use style="fill:#ff7f0e;stroke:#ff7f0e;" x="215.57968" xlink:href="#m6cd162b79e" y="127.062684"/>
     <use style="fill:#ff7f0e;stroke:#ff7f0e;" x="216.351442" xlink:href="#m6cd162b79e" y="127.062684"/>
     <use style="fill:#ff7f0e;stroke:#ff7f0e;" x="216.351442" xlink:href="#m6cd162b79e" y="125.531544"/>
     <use style="fill:#ff7f0e;stroke:#ff7f0e;" x="222.782792" xlink:href="#m6cd162b79e" y="125.531544"/>
     <use style="fill:#ff7f0e;stroke:#ff7f0e;" x="222.782792" xlink:href="#m6cd162b79e" y="124.000405"/>
     <use style="fill:#ff7f0e;stroke:#ff7f0e;" x="224.069062" xlink:href="#m6cd162b79e" y="124.000405"/>
     <use style="fill:#ff7f0e;stroke:#ff7f0e;" x="224.069062" xlink:href="#m6cd162b79e" y="122.469266"/>
     <use style="fill:#ff7f0e;stroke:#ff7f0e;" x="224.326316" xlink:href="#m6cd162b79e" y="122.469266"/>
     <use style="fill:#ff7f0e;stroke:#ff7f0e;" x="224.326316" xlink:href="#m6cd162b79e" y="120.938127"/>
     <use style="fill:#ff7f0e;stroke:#ff7f0e;" x="225.355332" xlink:href="#m6cd162b79e" y="120.938127"/>
     <use style="fill:#ff7f0e;stroke:#ff7f0e;" x="225.355332" xlink:href="#m6cd162b79e" y="119.406987"/>
     <use style="fill:#ff7f0e;stroke:#ff7f0e;" x="225.612586" xlink:href="#m6cd162b79e" y="119.406987"/>
     <use style="fill:#ff7f0e;stroke:#ff7f0e;" x="225.612586" xlink:href="#m6cd162b79e" y="117.875848"/>
     <use style="fill:#ff7f0e;stroke:#ff7f0e;" x="227.15611" xlink:href="#m6cd162b79e" y="117.875848"/>
     <use style="fill:#ff7f0e;stroke:#ff7f0e;" x="227.15611" xlink:href="#m6cd162b79e" y="116.344709"/>
     <use style="fill:#ff7f0e;stroke:#ff7f0e;" x="228.44238" xlink:href="#m6cd162b79e" y="116.344709"/>
     <use style="fill:#ff7f0e;stroke:#ff7f0e;" x="228.44238" xlink:href="#m6cd162b79e" y="114.81357"/>
     <use style="fill:#ff7f0e;stroke:#ff7f0e;" x="229.985904" xlink:href="#m6cd162b79e" y="114.81357"/>
     <use style="fill:#ff7f0e;stroke:#ff7f0e;" x="229.985904" xlink:href="#m6cd162b79e" y="113.28243"/>
     <use style="fill:#ff7f0e;stroke:#ff7f0e;" x="231.272174" xlink:href="#m6cd162b79e" y="113.28243"/>
     <use style="fill:#ff7f0e;stroke:#ff7f0e;" x="231.272174" xlink:href="#m6cd162b79e" y="111.751291"/>
     <use style="fill:#ff7f0e;stroke:#ff7f0e;" x="241.819588" xlink:href="#m6cd162b79e" y="111.751291"/>
     <use style="fill:#ff7f0e;stroke:#ff7f0e;" x="241.819588" xlink:href="#m6cd162b79e" y="110.220152"/>
     <use style="fill:#ff7f0e;stroke:#ff7f0e;" x="244.649382" xlink:href="#m6cd162b79e" y="110.220152"/>
     <use style="fill:#ff7f0e;stroke:#ff7f0e;" x="244.649382" xlink:href="#m6cd162b79e" y="108.689013"/>
     <use style="fill:#ff7f0e;stroke:#ff7f0e;" x="245.935652" xlink:href="#m6cd162b79e" y="108.689013"/>
     <use style="fill:#ff7f0e;stroke:#ff7f0e;" x="245.935652" xlink:href="#m6cd162b79e" y="107.157873"/>
     <use style="fill:#ff7f0e;stroke:#ff7f0e;" x="254.939542" xlink:href="#m6cd162b79e" y="107.157873"/>
     <use style="fill:#ff7f0e;stroke:#ff7f0e;" x="254.939542" xlink:href="#m6cd162b79e" y="105.626734"/>
     <use style="fill:#ff7f0e;stroke:#ff7f0e;" x="255.45405" xlink:href="#m6cd162b79e" y="105.626734"/>
     <use style="fill:#ff7f0e;stroke:#ff7f0e;" x="255.45405" xlink:href="#m6cd162b79e" y="104.095595"/>
     <use style="fill:#ff7f0e;stroke:#ff7f0e;" x="256.225812" xlink:href="#m6cd162b79e" y="104.095595"/>
     <use style="fill:#ff7f0e;stroke:#ff7f0e;" x="256.225812" xlink:href="#m6cd162b79e" y="102.564456"/>
     <use style="fill:#ff7f0e;stroke:#ff7f0e;" x="256.74032" xlink:href="#m6cd162b79e" y="102.564456"/>
     <use style="fill:#ff7f0e;stroke:#ff7f0e;" x="256.74032" xlink:href="#m6cd162b79e" y="101.033316"/>
     <use style="fill:#ff7f0e;stroke:#ff7f0e;" x="261.8854" xlink:href="#m6cd162b79e" y="101.033316"/>
     <use style="fill:#ff7f0e;stroke:#ff7f0e;" x="261.8854" xlink:href="#m6cd162b79e" y="99.502177"/>
     <use style="fill:#ff7f0e;stroke:#ff7f0e;" x="262.914416" xlink:href="#m6cd162b79e" y="99.502177"/>
     <use style="fill:#ff7f0e;stroke:#ff7f0e;" x="262.914416" xlink:href="#m6cd162b79e" y="97.971038"/>
     <use style="fill:#ff7f0e;stroke:#ff7f0e;" x="273.46183" xlink:href="#m6cd162b79e" y="97.971038"/>
     <use style="fill:#ff7f0e;stroke:#ff7f0e;" x="273.46183" xlink:href="#m6cd162b79e" y="96.439899"/>
     <use style="fill:#ff7f0e;stroke:#ff7f0e;" x="274.7481" xlink:href="#m6cd162b79e" y="96.439899"/>
     <use style="fill:#ff7f0e;stroke:#ff7f0e;" x="274.7481" xlink:href="#m6cd162b79e" y="94.908759"/>
     <use style="fill:#ff7f0e;stroke:#ff7f0e;" x="275.519862" xlink:href="#m6cd162b79e" y="94.908759"/>
     <use style="fill:#ff7f0e;stroke:#ff7f0e;" x="275.519862" xlink:href="#m6cd162b79e" y="93.37762"/>
     <use style="fill:#ff7f0e;stroke:#ff7f0e;" x="299.958991" xlink:href="#m6cd162b79e" y="93.37762"/>
     <use style="fill:#ff7f0e;stroke:#ff7f0e;" x="299.958991" xlink:href="#m6cd162b79e" y="91.846481"/>
     <use style="fill:#ff7f0e;stroke:#ff7f0e;" x="303.046039" xlink:href="#m6cd162b79e" y="91.846481"/>
     <use style="fill:#ff7f0e;stroke:#ff7f0e;" x="303.046039" xlink:href="#m6cd162b79e" y="90.315342"/>
     <use style="fill:#ff7f0e;stroke:#ff7f0e;" x="318.224025" xlink:href="#m6cd162b79e" y="90.315342"/>
     <use style="fill:#ff7f0e;stroke:#ff7f0e;" x="318.224025" xlink:href="#m6cd162b79e" y="88.784203"/>
     <use style="fill:#ff7f0e;stroke:#ff7f0e;" x="319.253041" xlink:href="#m6cd162b79e" y="88.784203"/>
     <use style="fill:#ff7f0e;stroke:#ff7f0e;" x="319.253041" xlink:href="#m6cd162b79e" y="87.253063"/>
     <use style="fill:#ff7f0e;stroke:#ff7f0e;" x="320.282057" xlink:href="#m6cd162b79e" y="87.253063"/>
     <use style="fill:#ff7f0e;stroke:#ff7f0e;" x="320.282057" xlink:href="#m6cd162b79e" y="85.721924"/>
     <use style="fill:#ff7f0e;stroke:#ff7f0e;" x="323.883613" xlink:href="#m6cd162b79e" y="85.721924"/>
     <use style="fill:#ff7f0e;stroke:#ff7f0e;" x="323.883613" xlink:href="#m6cd162b79e" y="84.190785"/>
     <use style="fill:#ff7f0e;stroke:#ff7f0e;" x="324.398121" xlink:href="#m6cd162b79e" y="84.190785"/>
     <use style="fill:#ff7f0e;stroke:#ff7f0e;" x="324.398121" xlink:href="#m6cd162b79e" y="82.659646"/>
     <use style="fill:#ff7f0e;stroke:#ff7f0e;" x="324.912629" xlink:href="#m6cd162b79e" y="82.659646"/>
     <use style="fill:#ff7f0e;stroke:#ff7f0e;" x="324.912629" xlink:href="#m6cd162b79e" y="81.128506"/>
     <use style="fill:#ff7f0e;stroke:#ff7f0e;" x="325.941645" xlink:href="#m6cd162b79e" y="81.128506"/>
     <use style="fill:#ff7f0e;stroke:#ff7f0e;" x="325.941645" xlink:href="#m6cd162b79e" y="79.597367"/>
     <use style="fill:#ff7f0e;stroke:#ff7f0e;" x="327.485169" xlink:href="#m6cd162b79e" y="79.597367"/>
     <use style="fill:#ff7f0e;stroke:#ff7f0e;" x="327.485169" xlink:href="#m6cd162b79e" y="78.066228"/>
     <use style="fill:#ff7f0e;stroke:#ff7f0e;" x="328.771439" xlink:href="#m6cd162b79e" y="78.066228"/>
     <use style="fill:#ff7f0e;stroke:#ff7f0e;" x="328.771439" xlink:href="#m6cd162b79e" y="76.535089"/>
     <use style="fill:#ff7f0e;stroke:#ff7f0e;" x="337.260821" xlink:href="#m6cd162b79e" y="76.535089"/>
     <use style="fill:#ff7f0e;stroke:#ff7f0e;" x="337.260821" xlink:href="#m6cd162b79e" y="75.003949"/>
     <use style="fill:#ff7f0e;stroke:#ff7f0e;" x="340.347869" xlink:href="#m6cd162b79e" y="75.003949"/>
     <use style="fill:#ff7f0e;stroke:#ff7f0e;" x="340.347869" xlink:href="#m6cd162b79e" y="73.47281"/>
     <use style="fill:#ff7f0e;stroke:#ff7f0e;" x="344.978441" xlink:href="#m6cd162b79e" y="73.47281"/>
     <use style="fill:#ff7f0e;stroke:#ff7f0e;" x="344.978441" xlink:href="#m6cd162b79e" y="71.941671"/>
     <use style="fill:#ff7f0e;stroke:#ff7f0e;" x="346.007457" xlink:href="#m6cd162b79e" y="71.941671"/>
     <use style="fill:#ff7f0e;stroke:#ff7f0e;" x="346.007457" xlink:href="#m6cd162b79e" y="70.410532"/>
     <use style="fill:#ff7f0e;stroke:#ff7f0e;" x="347.036473" xlink:href="#m6cd162b79e" y="70.410532"/>
     <use style="fill:#ff7f0e;stroke:#ff7f0e;" x="347.036473" xlink:href="#m6cd162b79e" y="67.348253"/>
     <use style="fill:#ff7f0e;stroke:#ff7f0e;" x="351.152537" xlink:href="#m6cd162b79e" y="67.348253"/>
     <use style="fill:#ff7f0e;stroke:#ff7f0e;" x="351.152537" xlink:href="#m6cd162b79e" y="64.285975"/>
     <use style="fill:#ff7f0e;stroke:#ff7f0e;" x="351.409791" xlink:href="#m6cd162b79e" y="64.285975"/>
     <use style="fill:#ff7f0e;stroke:#ff7f0e;" x="351.409791" xlink:href="#m6cd162b79e" y="59.692557"/>
     <use style="fill:#ff7f0e;stroke:#ff7f0e;" x="351.667045" xlink:href="#m6cd162b79e" y="59.692557"/>
     <use style="fill:#ff7f0e;stroke:#ff7f0e;" x="351.667045" xlink:href="#m6cd162b79e" y="58.161418"/>
     <use style="fill:#ff7f0e;stroke:#ff7f0e;" x="353.725077" xlink:href="#m6cd162b79e" y="58.161418"/>
     <use style="fill:#ff7f0e;stroke:#ff7f0e;" x="353.725077" xlink:href="#m6cd162b79e" y="56.630278"/>
     <use style="fill:#ff7f0e;stroke:#ff7f0e;" x="360.928189" xlink:href="#m6cd162b79e" y="56.630278"/>
     <use style="fill:#ff7f0e;stroke:#ff7f0e;" x="360.928189" xlink:href="#m6cd162b79e" y="55.099139"/>
     <use style="fill:#ff7f0e;stroke:#ff7f0e;" x="372.504619" xlink:href="#m6cd162b79e" y="55.099139"/>
     <use style="fill:#ff7f0e;stroke:#ff7f0e;" x="372.504619" xlink:href="#m6cd162b79e" y="53.568"/>
     <use style="fill:#ff7f0e;stroke:#ff7f0e;" x="398.487273" xlink:href="#m6cd162b79e" y="53.568"/>
    </g>
   </g>
   <g id="patch_3">
    <path d="M 57.6 307.584 
L 57.6 41.472 
" style="fill:none;stroke:#000000;stroke-linecap:square;stroke-linejoin:miter;stroke-width:0.8;"/>
   </g>
   <g id="patch_4">
    <path d="M 414.72 307.584 
L 414.72 41.472 
" style="fill:none;stroke:#000000;stroke-linecap:square;stroke-linejoin:miter;stroke-width:0.8;"/>
   </g>
   <g id="patch_5">
    <path d="M 57.6 307.584 
L 414.72 307.584 
" style="fill:none;stroke:#000000;stroke-linecap:square;stroke-linejoin:miter;stroke-width:0.8;"/>
   </g>
   <g id="patch_6">
    <path d="M 57.6 41.472 
L 414.72 41.472 
" style="fill:none;stroke:#000000;stroke-linecap:square;stroke-linejoin:miter;stroke-width:0.8;"/>
   </g>
   <g id="text_13">
    <!-- ROC Curve for Real data with Neural Networks with solver: sgd -->
    <defs>
     <path d="M 44.390625 34.1875 
Q 47.5625 33.109375 50.5625 29.59375 
Q 53.5625 26.078125 56.59375 19.921875 
L 66.609375 0 
L 56 0 
L 46.6875 18.703125 
Q 43.0625 26.03125 39.671875 28.421875 
Q 36.28125 30.8125 30.421875 30.8125 
L 19.671875 30.8125 
L 19.671875 0 
L 9.8125 0 
L 9.8125 72.90625 
L 32.078125 72.90625 
Q 44.578125 72.90625 50.734375 67.671875 
Q 56.890625 62.453125 56.890625 51.90625 
Q 56.890625 45.015625 53.6875 40.46875 
Q 50.484375 35.9375 44.390625 34.1875 
z
M 19.671875 64.796875 
L 19.671875 38.921875 
L 32.078125 38.921875 
Q 39.203125 38.921875 42.84375 42.21875 
Q 46.484375 45.515625 46.484375 51.90625 
Q 46.484375 58.296875 42.84375 61.546875 
Q 39.203125 64.796875 32.078125 64.796875 
z
" id="DejaVuSans-82"/>
     <path d="M 39.40625 66.21875 
Q 28.65625 66.21875 22.328125 58.203125 
Q 16.015625 50.203125 16.015625 36.375 
Q 16.015625 22.609375 22.328125 14.59375 
Q 28.65625 6.59375 39.40625 6.59375 
Q 50.140625 6.59375 56.421875 14.59375 
Q 62.703125 22.609375 62.703125 36.375 
Q 62.703125 50.203125 56.421875 58.203125 
Q 50.140625 66.21875 39.40625 66.21875 
z
M 39.40625 74.21875 
Q 54.734375 74.21875 63.90625 63.9375 
Q 73.09375 53.65625 73.09375 36.375 
Q 73.09375 19.140625 63.90625 8.859375 
Q 54.734375 -1.421875 39.40625 -1.421875 
Q 24.03125 -1.421875 14.8125 8.828125 
Q 5.609375 19.09375 5.609375 36.375 
Q 5.609375 53.65625 14.8125 63.9375 
Q 24.03125 74.21875 39.40625 74.21875 
z
" id="DejaVuSans-79"/>
     <path d="M 64.40625 67.28125 
L 64.40625 56.890625 
Q 59.421875 61.53125 53.78125 63.8125 
Q 48.140625 66.109375 41.796875 66.109375 
Q 29.296875 66.109375 22.65625 58.46875 
Q 16.015625 50.828125 16.015625 36.375 
Q 16.015625 21.96875 22.65625 14.328125 
Q 29.296875 6.6875 41.796875 6.6875 
Q 48.140625 6.6875 53.78125 8.984375 
Q 59.421875 11.28125 64.40625 15.921875 
L 64.40625 5.609375 
Q 59.234375 2.09375 53.4375 0.328125 
Q 47.65625 -1.421875 41.21875 -1.421875 
Q 24.65625 -1.421875 15.125 8.703125 
Q 5.609375 18.84375 5.609375 36.375 
Q 5.609375 53.953125 15.125 64.078125 
Q 24.65625 74.21875 41.21875 74.21875 
Q 47.75 74.21875 53.53125 72.484375 
Q 59.328125 70.75 64.40625 67.28125 
z
" id="DejaVuSans-67"/>
     <path id="DejaVuSans-32"/>
     <path d="M 8.5 21.578125 
L 8.5 54.6875 
L 17.484375 54.6875 
L 17.484375 21.921875 
Q 17.484375 14.15625 20.5 10.265625 
Q 23.53125 6.390625 29.59375 6.390625 
Q 36.859375 6.390625 41.078125 11.03125 
Q 45.3125 15.671875 45.3125 23.6875 
L 45.3125 54.6875 
L 54.296875 54.6875 
L 54.296875 0 
L 45.3125 0 
L 45.3125 8.40625 
Q 42.046875 3.421875 37.71875 1 
Q 33.40625 -1.421875 27.6875 -1.421875 
Q 18.265625 -1.421875 13.375 4.4375 
Q 8.5 10.296875 8.5 21.578125 
z
M 31.109375 56 
z
" id="DejaVuSans-117"/>
     <path d="M 41.109375 46.296875 
Q 39.59375 47.171875 37.8125 47.578125 
Q 36.03125 48 33.890625 48 
Q 26.265625 48 22.1875 43.046875 
Q 18.109375 38.09375 18.109375 28.8125 
L 18.109375 0 
L 9.078125 0 
L 9.078125 54.6875 
L 18.109375 54.6875 
L 18.109375 46.1875 
Q 20.953125 51.171875 25.484375 53.578125 
Q 30.03125 56 36.53125 56 
Q 37.453125 56 38.578125 55.875 
Q 39.703125 55.765625 41.0625 55.515625 
z
" id="DejaVuSans-114"/>
     <path d="M 2.984375 54.6875 
L 12.5 54.6875 
L 29.59375 8.796875 
L 46.6875 54.6875 
L 56.203125 54.6875 
L 35.6875 0 
L 23.484375 0 
z
" id="DejaVuSans-118"/>
     <path d="M 56.203125 29.59375 
L 56.203125 25.203125 
L 14.890625 25.203125 
Q 15.484375 15.921875 20.484375 11.0625 
Q 25.484375 6.203125 34.421875 6.203125 
Q 39.59375 6.203125 44.453125 7.46875 
Q 49.3125 8.734375 54.109375 11.28125 
L 54.109375 2.78125 
Q 49.265625 0.734375 44.1875 -0.34375 
Q 39.109375 -1.421875 33.890625 -1.421875 
Q 20.796875 -1.421875 13.15625 6.1875 
Q 5.515625 13.8125 5.515625 26.8125 
Q 5.515625 40.234375 12.765625 48.109375 
Q 20.015625 56 32.328125 56 
Q 43.359375 56 49.78125 48.890625 
Q 56.203125 41.796875 56.203125 29.59375 
z
M 47.21875 32.234375 
Q 47.125 39.59375 43.09375 43.984375 
Q 39.0625 48.390625 32.421875 48.390625 
Q 24.90625 48.390625 20.390625 44.140625 
Q 15.875 39.890625 15.1875 32.171875 
z
" id="DejaVuSans-101"/>
     <path d="M 37.109375 75.984375 
L 37.109375 68.5 
L 28.515625 68.5 
Q 23.6875 68.5 21.796875 66.546875 
Q 19.921875 64.59375 19.921875 59.515625 
L 19.921875 54.6875 
L 34.71875 54.6875 
L 34.71875 47.703125 
L 19.921875 47.703125 
L 19.921875 0 
L 10.890625 0 
L 10.890625 47.703125 
L 2.296875 47.703125 
L 2.296875 54.6875 
L 10.890625 54.6875 
L 10.890625 58.5 
Q 10.890625 67.625 15.140625 71.796875 
Q 19.390625 75.984375 28.609375 75.984375 
z
" id="DejaVuSans-102"/>
     <path d="M 30.609375 48.390625 
Q 23.390625 48.390625 19.1875 42.75 
Q 14.984375 37.109375 14.984375 27.296875 
Q 14.984375 17.484375 19.15625 11.84375 
Q 23.34375 6.203125 30.609375 6.203125 
Q 37.796875 6.203125 41.984375 11.859375 
Q 46.1875 17.53125 46.1875 27.296875 
Q 46.1875 37.015625 41.984375 42.703125 
Q 37.796875 48.390625 30.609375 48.390625 
z
M 30.609375 56 
Q 42.328125 56 49.015625 48.375 
Q 55.71875 40.765625 55.71875 27.296875 
Q 55.71875 13.875 49.015625 6.21875 
Q 42.328125 -1.421875 30.609375 -1.421875 
Q 18.84375 -1.421875 12.171875 6.21875 
Q 5.515625 13.875 5.515625 27.296875 
Q 5.515625 40.765625 12.171875 48.375 
Q 18.84375 56 30.609375 56 
z
" id="DejaVuSans-111"/>
     <path d="M 34.28125 27.484375 
Q 23.390625 27.484375 19.1875 25 
Q 14.984375 22.515625 14.984375 16.5 
Q 14.984375 11.71875 18.140625 8.90625 
Q 21.296875 6.109375 26.703125 6.109375 
Q 34.1875 6.109375 38.703125 11.40625 
Q 43.21875 16.703125 43.21875 25.484375 
L 43.21875 27.484375 
z
M 52.203125 31.203125 
L 52.203125 0 
L 43.21875 0 
L 43.21875 8.296875 
Q 40.140625 3.328125 35.546875 0.953125 
Q 30.953125 -1.421875 24.3125 -1.421875 
Q 15.921875 -1.421875 10.953125 3.296875 
Q 6 8.015625 6 15.921875 
Q 6 25.140625 12.171875 29.828125 
Q 18.359375 34.515625 30.609375 34.515625 
L 43.21875 34.515625 
L 43.21875 35.40625 
Q 43.21875 41.609375 39.140625 45 
Q 35.0625 48.390625 27.6875 48.390625 
Q 23 48.390625 18.546875 47.265625 
Q 14.109375 46.140625 10.015625 43.890625 
L 10.015625 52.203125 
Q 14.9375 54.109375 19.578125 55.046875 
Q 24.21875 56 28.609375 56 
Q 40.484375 56 46.34375 49.84375 
Q 52.203125 43.703125 52.203125 31.203125 
z
" id="DejaVuSans-97"/>
     <path d="M 9.421875 75.984375 
L 18.40625 75.984375 
L 18.40625 0 
L 9.421875 0 
z
" id="DejaVuSans-108"/>
     <path d="M 45.40625 46.390625 
L 45.40625 75.984375 
L 54.390625 75.984375 
L 54.390625 0 
L 45.40625 0 
L 45.40625 8.203125 
Q 42.578125 3.328125 38.25 0.953125 
Q 33.9375 -1.421875 27.875 -1.421875 
Q 17.96875 -1.421875 11.734375 6.484375 
Q 5.515625 14.40625 5.515625 27.296875 
Q 5.515625 40.1875 11.734375 48.09375 
Q 17.96875 56 27.875 56 
Q 33.9375 56 38.25 53.625 
Q 42.578125 51.265625 45.40625 46.390625 
z
M 14.796875 27.296875 
Q 14.796875 17.390625 18.875 11.75 
Q 22.953125 6.109375 30.078125 6.109375 
Q 37.203125 6.109375 41.296875 11.75 
Q 45.40625 17.390625 45.40625 27.296875 
Q 45.40625 37.203125 41.296875 42.84375 
Q 37.203125 48.484375 30.078125 48.484375 
Q 22.953125 48.484375 18.875 42.84375 
Q 14.796875 37.203125 14.796875 27.296875 
z
" id="DejaVuSans-100"/>
     <path d="M 18.3125 70.21875 
L 18.3125 54.6875 
L 36.8125 54.6875 
L 36.8125 47.703125 
L 18.3125 47.703125 
L 18.3125 18.015625 
Q 18.3125 11.328125 20.140625 9.421875 
Q 21.96875 7.515625 27.59375 7.515625 
L 36.8125 7.515625 
L 36.8125 0 
L 27.59375 0 
Q 17.1875 0 13.234375 3.875 
Q 9.28125 7.765625 9.28125 18.015625 
L 9.28125 47.703125 
L 2.6875 47.703125 
L 2.6875 54.6875 
L 9.28125 54.6875 
L 9.28125 70.21875 
z
" id="DejaVuSans-116"/>
     <path d="M 4.203125 54.6875 
L 13.1875 54.6875 
L 24.421875 12.015625 
L 35.59375 54.6875 
L 46.1875 54.6875 
L 57.421875 12.015625 
L 68.609375 54.6875 
L 77.59375 54.6875 
L 63.28125 0 
L 52.6875 0 
L 40.921875 44.828125 
L 29.109375 0 
L 18.5 0 
z
" id="DejaVuSans-119"/>
     <path d="M 9.421875 54.6875 
L 18.40625 54.6875 
L 18.40625 0 
L 9.421875 0 
z
M 9.421875 75.984375 
L 18.40625 75.984375 
L 18.40625 64.59375 
L 9.421875 64.59375 
z
" id="DejaVuSans-105"/>
     <path d="M 54.890625 33.015625 
L 54.890625 0 
L 45.90625 0 
L 45.90625 32.71875 
Q 45.90625 40.484375 42.875 44.328125 
Q 39.84375 48.1875 33.796875 48.1875 
Q 26.515625 48.1875 22.3125 43.546875 
Q 18.109375 38.921875 18.109375 30.90625 
L 18.109375 0 
L 9.078125 0 
L 9.078125 75.984375 
L 18.109375 75.984375 
L 18.109375 46.1875 
Q 21.34375 51.125 25.703125 53.5625 
Q 30.078125 56 35.796875 56 
Q 45.21875 56 50.046875 50.171875 
Q 54.890625 44.34375 54.890625 33.015625 
z
" id="DejaVuSans-104"/>
     <path d="M 9.8125 72.90625 
L 23.09375 72.90625 
L 55.421875 11.921875 
L 55.421875 72.90625 
L 64.984375 72.90625 
L 64.984375 0 
L 51.703125 0 
L 19.390625 60.984375 
L 19.390625 0 
L 9.8125 0 
z
" id="DejaVuSans-78"/>
     <path d="M 9.078125 75.984375 
L 18.109375 75.984375 
L 18.109375 31.109375 
L 44.921875 54.6875 
L 56.390625 54.6875 
L 27.390625 29.109375 
L 57.625 0 
L 45.90625 0 
L 18.109375 26.703125 
L 18.109375 0 
L 9.078125 0 
z
" id="DejaVuSans-107"/>
     <path d="M 44.28125 53.078125 
L 44.28125 44.578125 
Q 40.484375 46.53125 36.375 47.5 
Q 32.28125 48.484375 27.875 48.484375 
Q 21.1875 48.484375 17.84375 46.4375 
Q 14.5 44.390625 14.5 40.28125 
Q 14.5 37.15625 16.890625 35.375 
Q 19.28125 33.59375 26.515625 31.984375 
L 29.59375 31.296875 
Q 39.15625 29.25 43.1875 25.515625 
Q 47.21875 21.78125 47.21875 15.09375 
Q 47.21875 7.46875 41.1875 3.015625 
Q 35.15625 -1.421875 24.609375 -1.421875 
Q 20.21875 -1.421875 15.453125 -0.5625 
Q 10.6875 0.296875 5.421875 2 
L 5.421875 11.28125 
Q 10.40625 8.6875 15.234375 7.390625 
Q 20.0625 6.109375 24.8125 6.109375 
Q 31.15625 6.109375 34.5625 8.28125 
Q 37.984375 10.453125 37.984375 14.40625 
Q 37.984375 18.0625 35.515625 20.015625 
Q 33.0625 21.96875 24.703125 23.78125 
L 21.578125 24.515625 
Q 13.234375 26.265625 9.515625 29.90625 
Q 5.8125 33.546875 5.8125 39.890625 
Q 5.8125 47.609375 11.28125 51.796875 
Q 16.75 56 26.8125 56 
Q 31.78125 56 36.171875 55.265625 
Q 40.578125 54.546875 44.28125 53.078125 
z
" id="DejaVuSans-115"/>
     <path d="M 11.71875 12.40625 
L 22.015625 12.40625 
L 22.015625 0 
L 11.71875 0 
z
M 11.71875 51.703125 
L 22.015625 51.703125 
L 22.015625 39.3125 
L 11.71875 39.3125 
z
" id="DejaVuSans-58"/>
     <path d="M 45.40625 27.984375 
Q 45.40625 37.75 41.375 43.109375 
Q 37.359375 48.484375 30.078125 48.484375 
Q 22.859375 48.484375 18.828125 43.109375 
Q 14.796875 37.75 14.796875 27.984375 
Q 14.796875 18.265625 18.828125 12.890625 
Q 22.859375 7.515625 30.078125 7.515625 
Q 37.359375 7.515625 41.375 12.890625 
Q 45.40625 18.265625 45.40625 27.984375 
z
M 54.390625 6.78125 
Q 54.390625 -7.171875 48.1875 -13.984375 
Q 42 -20.796875 29.203125 -20.796875 
Q 24.46875 -20.796875 20.265625 -20.09375 
Q 16.0625 -19.390625 12.109375 -17.921875 
L 12.109375 -9.1875 
Q 16.0625 -11.328125 19.921875 -12.34375 
Q 23.78125 -13.375 27.78125 -13.375 
Q 36.625 -13.375 41.015625 -8.765625 
Q 45.40625 -4.15625 45.40625 5.171875 
L 45.40625 9.625 
Q 42.625 4.78125 38.28125 2.390625 
Q 33.9375 0 27.875 0 
Q 17.828125 0 11.671875 7.65625 
Q 5.515625 15.328125 5.515625 27.984375 
Q 5.515625 40.671875 11.671875 48.328125 
Q 17.828125 56 27.875 56 
Q 33.9375 56 38.28125 53.609375 
Q 42.625 51.21875 45.40625 46.390625 
L 45.40625 54.6875 
L 54.390625 54.6875 
z
" id="DejaVuSans-103"/>
    </defs>
    <g transform="translate(47.346563 22.034625)scale(0.12 -0.12)">
     <use xlink:href="#DejaVuSans-82"/>
     <use x="69.482422" xlink:href="#DejaVuSans-79"/>
     <use x="148.193359" xlink:href="#DejaVuSans-67"/>
     <use x="218.017578" xlink:href="#DejaVuSans-32"/>
     <use x="249.804688" xlink:href="#DejaVuSans-67"/>
     <use x="319.628906" xlink:href="#DejaVuSans-117"/>
     <use x="383.007812" xlink:href="#DejaVuSans-114"/>
     <use x="424.121094" xlink:href="#DejaVuSans-118"/>
     <use x="483.300781" xlink:href="#DejaVuSans-101"/>
     <use x="544.824219" xlink:href="#DejaVuSans-32"/>
     <use x="576.611328" xlink:href="#DejaVuSans-102"/>
     <use x="611.816406" xlink:href="#DejaVuSans-111"/>
     <use x="672.998047" xlink:href="#DejaVuSans-114"/>
     <use x="714.111328" xlink:href="#DejaVuSans-32"/>
     <use x="745.898438" xlink:href="#DejaVuSans-82"/>
     <use x="810.880859" xlink:href="#DejaVuSans-101"/>
     <use x="872.404297" xlink:href="#DejaVuSans-97"/>
     <use x="933.683594" xlink:href="#DejaVuSans-108"/>
     <use x="961.466797" xlink:href="#DejaVuSans-32"/>
     <use x="993.253906" xlink:href="#DejaVuSans-100"/>
     <use x="1056.730469" xlink:href="#DejaVuSans-97"/>
     <use x="1118.009766" xlink:href="#DejaVuSans-116"/>
     <use x="1157.21875" xlink:href="#DejaVuSans-97"/>
     <use x="1218.498047" xlink:href="#DejaVuSans-32"/>
     <use x="1250.285156" xlink:href="#DejaVuSans-119"/>
     <use x="1332.072266" xlink:href="#DejaVuSans-105"/>
     <use x="1359.855469" xlink:href="#DejaVuSans-116"/>
     <use x="1399.064453" xlink:href="#DejaVuSans-104"/>
     <use x="1462.443359" xlink:href="#DejaVuSans-32"/>
     <use x="1494.230469" xlink:href="#DejaVuSans-78"/>
     <use x="1569.035156" xlink:href="#DejaVuSans-101"/>
     <use x="1630.558594" xlink:href="#DejaVuSans-117"/>
     <use x="1693.9375" xlink:href="#DejaVuSans-114"/>
     <use x="1735.050781" xlink:href="#DejaVuSans-97"/>
     <use x="1796.330078" xlink:href="#DejaVuSans-108"/>
     <use x="1824.113281" xlink:href="#DejaVuSans-32"/>
     <use x="1855.900391" xlink:href="#DejaVuSans-78"/>
     <use x="1930.705078" xlink:href="#DejaVuSans-101"/>
     <use x="1992.228516" xlink:href="#DejaVuSans-116"/>
     <use x="2031.4375" xlink:href="#DejaVuSans-119"/>
     <use x="2113.224609" xlink:href="#DejaVuSans-111"/>
     <use x="2174.40625" xlink:href="#DejaVuSans-114"/>
     <use x="2215.519531" xlink:href="#DejaVuSans-107"/>
     <use x="2273.429688" xlink:href="#DejaVuSans-115"/>
     <use x="2325.529297" xlink:href="#DejaVuSans-32"/>
     <use x="2357.316406" xlink:href="#DejaVuSans-119"/>
     <use x="2439.103516" xlink:href="#DejaVuSans-105"/>
     <use x="2466.886719" xlink:href="#DejaVuSans-116"/>
     <use x="2506.095703" xlink:href="#DejaVuSans-104"/>
     <use x="2569.474609" xlink:href="#DejaVuSans-32"/>
     <use x="2601.261719" xlink:href="#DejaVuSans-115"/>
     <use x="2653.361328" xlink:href="#DejaVuSans-111"/>
     <use x="2714.542969" xlink:href="#DejaVuSans-108"/>
     <use x="2742.326172" xlink:href="#DejaVuSans-118"/>
     <use x="2801.505859" xlink:href="#DejaVuSans-101"/>
     <use x="2863.029297" xlink:href="#DejaVuSans-114"/>
     <use x="2902.392578" xlink:href="#DejaVuSans-58"/>
     <use x="2936.083984" xlink:href="#DejaVuSans-32"/>
     <use x="2967.871094" xlink:href="#DejaVuSans-115"/>
     <use x="3019.970703" xlink:href="#DejaVuSans-103"/>
     <use x="3083.447266" xlink:href="#DejaVuSans-100"/>
    </g>
    <!--  activation function: identity and number nodes: (2, 2, 2) -->
    <defs>
     <path d="M 48.78125 52.59375 
L 48.78125 44.1875 
Q 44.96875 46.296875 41.140625 47.34375 
Q 37.3125 48.390625 33.40625 48.390625 
Q 24.65625 48.390625 19.8125 42.84375 
Q 14.984375 37.3125 14.984375 27.296875 
Q 14.984375 17.28125 19.8125 11.734375 
Q 24.65625 6.203125 33.40625 6.203125 
Q 37.3125 6.203125 41.140625 7.25 
Q 44.96875 8.296875 48.78125 10.40625 
L 48.78125 2.09375 
Q 45.015625 0.34375 40.984375 -0.53125 
Q 36.96875 -1.421875 32.421875 -1.421875 
Q 20.0625 -1.421875 12.78125 6.34375 
Q 5.515625 14.109375 5.515625 27.296875 
Q 5.515625 40.671875 12.859375 48.328125 
Q 20.21875 56 33.015625 56 
Q 37.15625 56 41.109375 55.140625 
Q 45.0625 54.296875 48.78125 52.59375 
z
" id="DejaVuSans-99"/>
     <path d="M 54.890625 33.015625 
L 54.890625 0 
L 45.90625 0 
L 45.90625 32.71875 
Q 45.90625 40.484375 42.875 44.328125 
Q 39.84375 48.1875 33.796875 48.1875 
Q 26.515625 48.1875 22.3125 43.546875 
Q 18.109375 38.921875 18.109375 30.90625 
L 18.109375 0 
L 9.078125 0 
L 9.078125 54.6875 
L 18.109375 54.6875 
L 18.109375 46.1875 
Q 21.34375 51.125 25.703125 53.5625 
Q 30.078125 56 35.796875 56 
Q 45.21875 56 50.046875 50.171875 
Q 54.890625 44.34375 54.890625 33.015625 
z
" id="DejaVuSans-110"/>
     <path d="M 32.171875 -5.078125 
Q 28.375 -14.84375 24.75 -17.8125 
Q 21.140625 -20.796875 15.09375 -20.796875 
L 7.90625 -20.796875 
L 7.90625 -13.28125 
L 13.1875 -13.28125 
Q 16.890625 -13.28125 18.9375 -11.515625 
Q 21 -9.765625 23.484375 -3.21875 
L 25.09375 0.875 
L 2.984375 54.6875 
L 12.5 54.6875 
L 29.59375 11.921875 
L 46.6875 54.6875 
L 56.203125 54.6875 
z
" id="DejaVuSans-121"/>
     <path d="M 52 44.1875 
Q 55.375 50.25 60.0625 53.125 
Q 64.75 56 71.09375 56 
Q 79.640625 56 84.28125 50.015625 
Q 88.921875 44.046875 88.921875 33.015625 
L 88.921875 0 
L 79.890625 0 
L 79.890625 32.71875 
Q 79.890625 40.578125 77.09375 44.375 
Q 74.3125 48.1875 68.609375 48.1875 
Q 61.625 48.1875 57.5625 43.546875 
Q 53.515625 38.921875 53.515625 30.90625 
L 53.515625 0 
L 44.484375 0 
L 44.484375 32.71875 
Q 44.484375 40.625 41.703125 44.40625 
Q 38.921875 48.1875 33.109375 48.1875 
Q 26.21875 48.1875 22.15625 43.53125 
Q 18.109375 38.875 18.109375 30.90625 
L 18.109375 0 
L 9.078125 0 
L 9.078125 54.6875 
L 18.109375 54.6875 
L 18.109375 46.1875 
Q 21.1875 51.21875 25.484375 53.609375 
Q 29.78125 56 35.6875 56 
Q 41.65625 56 45.828125 52.96875 
Q 50 49.953125 52 44.1875 
z
" id="DejaVuSans-109"/>
     <path d="M 48.6875 27.296875 
Q 48.6875 37.203125 44.609375 42.84375 
Q 40.53125 48.484375 33.40625 48.484375 
Q 26.265625 48.484375 22.1875 42.84375 
Q 18.109375 37.203125 18.109375 27.296875 
Q 18.109375 17.390625 22.1875 11.75 
Q 26.265625 6.109375 33.40625 6.109375 
Q 40.53125 6.109375 44.609375 11.75 
Q 48.6875 17.390625 48.6875 27.296875 
z
M 18.109375 46.390625 
Q 20.953125 51.265625 25.265625 53.625 
Q 29.59375 56 35.59375 56 
Q 45.5625 56 51.78125 48.09375 
Q 58.015625 40.1875 58.015625 27.296875 
Q 58.015625 14.40625 51.78125 6.484375 
Q 45.5625 -1.421875 35.59375 -1.421875 
Q 29.59375 -1.421875 25.265625 0.953125 
Q 20.953125 3.328125 18.109375 8.203125 
L 18.109375 0 
L 9.078125 0 
L 9.078125 75.984375 
L 18.109375 75.984375 
z
" id="DejaVuSans-98"/>
     <path d="M 31 75.875 
Q 24.46875 64.65625 21.28125 53.65625 
Q 18.109375 42.671875 18.109375 31.390625 
Q 18.109375 20.125 21.3125 9.0625 
Q 24.515625 -2 31 -13.1875 
L 23.1875 -13.1875 
Q 15.875 -1.703125 12.234375 9.375 
Q 8.59375 20.453125 8.59375 31.390625 
Q 8.59375 42.28125 12.203125 53.3125 
Q 15.828125 64.359375 23.1875 75.875 
z
" id="DejaVuSans-40"/>
     <path d="M 11.71875 12.40625 
L 22.015625 12.40625 
L 22.015625 4 
L 14.015625 -11.625 
L 7.71875 -11.625 
L 11.71875 4 
z
" id="DejaVuSans-44"/>
     <path d="M 8.015625 75.875 
L 15.828125 75.875 
Q 23.140625 64.359375 26.78125 53.3125 
Q 30.421875 42.28125 30.421875 31.390625 
Q 30.421875 20.453125 26.78125 9.375 
Q 23.140625 -1.703125 15.828125 -13.1875 
L 8.015625 -13.1875 
Q 14.5 -2 17.703125 9.0625 
Q 20.90625 20.125 20.90625 31.390625 
Q 20.90625 42.671875 17.703125 53.65625 
Q 14.5 64.65625 8.015625 75.875 
z
" id="DejaVuSans-41"/>
    </defs>
    <g transform="translate(65.084063 35.472)scale(0.12 -0.12)">
     <use xlink:href="#DejaVuSans-32"/>
     <use x="31.787109" xlink:href="#DejaVuSans-97"/>
     <use x="93.066406" xlink:href="#DejaVuSans-99"/>
     <use x="148.046875" xlink:href="#DejaVuSans-116"/>
     <use x="187.255859" xlink:href="#DejaVuSans-105"/>
     <use x="215.039062" xlink:href="#DejaVuSans-118"/>
     <use x="274.21875" xlink:href="#DejaVuSans-97"/>
     <use x="335.498047" xlink:href="#DejaVuSans-116"/>
     <use x="374.707031" xlink:href="#DejaVuSans-105"/>
     <use x="402.490234" xlink:href="#DejaVuSans-111"/>
     <use x="463.671875" xlink:href="#DejaVuSans-110"/>
     <use x="527.050781" xlink:href="#DejaVuSans-32"/>
     <use x="558.837891" xlink:href="#DejaVuSans-102"/>
     <use x="594.042969" xlink:href="#DejaVuSans-117"/>
     <use x="657.421875" xlink:href="#DejaVuSans-110"/>
     <use x="720.800781" xlink:href="#DejaVuSans-99"/>
     <use x="775.78125" xlink:href="#DejaVuSans-116"/>
     <use x="814.990234" xlink:href="#DejaVuSans-105"/>
     <use x="842.773438" xlink:href="#DejaVuSans-111"/>
     <use x="903.955078" xlink:href="#DejaVuSans-110"/>
     <use x="967.333984" xlink:href="#DejaVuSans-58"/>
     <use x="1001.025391" xlink:href="#DejaVuSans-32"/>
     <use x="1032.8125" xlink:href="#DejaVuSans-105"/>
     <use x="1060.595703" xlink:href="#DejaVuSans-100"/>
     <use x="1124.072266" xlink:href="#DejaVuSans-101"/>
     <use x="1185.595703" xlink:href="#DejaVuSans-110"/>
     <use x="1248.974609" xlink:href="#DejaVuSans-116"/>
     <use x="1288.183594" xlink:href="#DejaVuSans-105"/>
     <use x="1315.966797" xlink:href="#DejaVuSans-116"/>
     <use x="1355.175781" xlink:href="#DejaVuSans-121"/>
     <use x="1414.355469" xlink:href="#DejaVuSans-32"/>
     <use x="1446.142578" xlink:href="#DejaVuSans-97"/>
     <use x="1507.421875" xlink:href="#DejaVuSans-110"/>
     <use x="1570.800781" xlink:href="#DejaVuSans-100"/>
     <use x="1634.277344" xlink:href="#DejaVuSans-32"/>
     <use x="1666.064453" xlink:href="#DejaVuSans-110"/>
     <use x="1729.443359" xlink:href="#DejaVuSans-117"/>
     <use x="1792.822266" xlink:href="#DejaVuSans-109"/>
     <use x="1890.234375" xlink:href="#DejaVuSans-98"/>
     <use x="1953.710938" xlink:href="#DejaVuSans-101"/>
     <use x="2015.234375" xlink:href="#DejaVuSans-114"/>
     <use x="2056.347656" xlink:href="#DejaVuSans-32"/>
     <use x="2088.134766" xlink:href="#DejaVuSans-110"/>
     <use x="2151.513672" xlink:href="#DejaVuSans-111"/>
     <use x="2212.695312" xlink:href="#DejaVuSans-100"/>
     <use x="2276.171875" xlink:href="#DejaVuSans-101"/>
     <use x="2337.695312" xlink:href="#DejaVuSans-115"/>
     <use x="2389.794922" xlink:href="#DejaVuSans-58"/>
     <use x="2423.486328" xlink:href="#DejaVuSans-32"/>
     <use x="2455.273438" xlink:href="#DejaVuSans-40"/>
     <use x="2494.287109" xlink:href="#DejaVuSans-50"/>
     <use x="2557.910156" xlink:href="#DejaVuSans-44"/>
     <use x="2589.697266" xlink:href="#DejaVuSans-32"/>
     <use x="2621.484375" xlink:href="#DejaVuSans-50"/>
     <use x="2685.107422" xlink:href="#DejaVuSans-44"/>
     <use x="2716.894531" xlink:href="#DejaVuSans-32"/>
     <use x="2748.681641" xlink:href="#DejaVuSans-50"/>
     <use x="2812.304688" xlink:href="#DejaVuSans-41"/>
    </g>
   </g>
   <g id="legend_1">
    <g id="patch_7">
     <path d="M 64.6 78.82825 
L 166.29375 78.82825 
Q 168.29375 78.82825 168.29375 76.82825 
L 168.29375 48.472 
Q 168.29375 46.472 166.29375 46.472 
L 64.6 46.472 
Q 62.6 46.472 62.6 48.472 
L 62.6 76.82825 
Q 62.6 78.82825 64.6 78.82825 
z
" style="fill:#ffffff;opacity:0.8;stroke:#cccccc;stroke-linejoin:miter;"/>
    </g>
    <g id="line2d_15">
     <path d="M 66.6 54.570437 
L 86.6 54.570437 
" style="fill:none;stroke:#1f77b4;stroke-dasharray:5.55,2.4;stroke-dashoffset:0;stroke-width:1.5;"/>
    </g>
    <g id="line2d_16"/>
    <g id="text_14">
     <!-- No Skill -->
     <defs>
      <path d="M 53.515625 70.515625 
L 53.515625 60.890625 
Q 47.90625 63.578125 42.921875 64.890625 
Q 37.9375 66.21875 33.296875 66.21875 
Q 25.25 66.21875 20.875 63.09375 
Q 16.5 59.96875 16.5 54.203125 
Q 16.5 49.359375 19.40625 46.890625 
Q 22.3125 44.4375 30.421875 42.921875 
L 36.375 41.703125 
Q 47.40625 39.59375 52.65625 34.296875 
Q 57.90625 29 57.90625 20.125 
Q 57.90625 9.515625 50.796875 4.046875 
Q 43.703125 -1.421875 29.984375 -1.421875 
Q 24.8125 -1.421875 18.96875 -0.25 
Q 13.140625 0.921875 6.890625 3.21875 
L 6.890625 13.375 
Q 12.890625 10.015625 18.65625 8.296875 
Q 24.421875 6.59375 29.984375 6.59375 
Q 38.421875 6.59375 43.015625 9.90625 
Q 47.609375 13.234375 47.609375 19.390625 
Q 47.609375 24.75 44.3125 27.78125 
Q 41.015625 30.8125 33.5 32.328125 
L 27.484375 33.5 
Q 16.453125 35.6875 11.515625 40.375 
Q 6.59375 45.0625 6.59375 53.421875 
Q 6.59375 63.09375 13.40625 68.65625 
Q 20.21875 74.21875 32.171875 74.21875 
Q 37.3125 74.21875 42.625 73.28125 
Q 47.953125 72.359375 53.515625 70.515625 
z
" id="DejaVuSans-83"/>
     </defs>
     <g transform="translate(94.6 58.070437)scale(0.1 -0.1)">
      <use xlink:href="#DejaVuSans-78"/>
      <use x="74.804688" xlink:href="#DejaVuSans-111"/>
      <use x="135.986328" xlink:href="#DejaVuSans-32"/>
      <use x="167.773438" xlink:href="#DejaVuSans-83"/>
      <use x="231.25" xlink:href="#DejaVuSans-107"/>
      <use x="289.160156" xlink:href="#DejaVuSans-105"/>
      <use x="316.943359" xlink:href="#DejaVuSans-108"/>
      <use x="344.726562" xlink:href="#DejaVuSans-108"/>
     </g>
    </g>
    <g id="line2d_17">
     <path d="M 66.6 69.248562 
L 86.6 69.248562 
" style="fill:none;stroke:#ff7f0e;stroke-linecap:square;stroke-width:1.5;"/>
    </g>
    <g id="line2d_18">
     <g>
      <use style="fill:#ff7f0e;stroke:#ff7f0e;" x="76.6" xlink:href="#m6cd162b79e" y="69.248562"/>
     </g>
    </g>
    <g id="text_15">
     <!-- Trained Model -->
     <defs>
      <path d="M -0.296875 72.90625 
L 61.375 72.90625 
L 61.375 64.59375 
L 35.5 64.59375 
L 35.5 0 
L 25.59375 0 
L 25.59375 64.59375 
L -0.296875 64.59375 
z
" id="DejaVuSans-84"/>
      <path d="M 9.8125 72.90625 
L 24.515625 72.90625 
L 43.109375 23.296875 
L 61.8125 72.90625 
L 76.515625 72.90625 
L 76.515625 0 
L 66.890625 0 
L 66.890625 64.015625 
L 48.09375 14.015625 
L 38.1875 14.015625 
L 19.390625 64.015625 
L 19.390625 0 
L 9.8125 0 
z
" id="DejaVuSans-77"/>
     </defs>
     <g transform="translate(94.6 72.748562)scale(0.1 -0.1)">
      <use xlink:href="#DejaVuSans-84"/>
      <use x="46.333984" xlink:href="#DejaVuSans-114"/>
      <use x="87.447266" xlink:href="#DejaVuSans-97"/>
      <use x="148.726562" xlink:href="#DejaVuSans-105"/>
      <use x="176.509766" xlink:href="#DejaVuSans-110"/>
      <use x="239.888672" xlink:href="#DejaVuSans-101"/>
      <use x="301.412109" xlink:href="#DejaVuSans-100"/>
      <use x="364.888672" xlink:href="#DejaVuSans-32"/>
      <use x="396.675781" xlink:href="#DejaVuSans-77"/>
      <use x="482.955078" xlink:href="#DejaVuSans-111"/>
      <use x="544.136719" xlink:href="#DejaVuSans-100"/>
      <use x="607.613281" xlink:href="#DejaVuSans-101"/>
      <use x="669.136719" xlink:href="#DejaVuSans-108"/>
     </g>
    </g>
   </g>
  </g>
 </g>
 <defs>
  <clipPath id="pcd2b12bcd2">
   <rect height="266.112" width="357.12" x="57.6" y="41.472"/>
  </clipPath>
 </defs>
</svg>
