<?xml version="1.0" encoding="utf-8" standalone="no"?>
<!DOCTYPE svg PUBLIC "-//W3C//DTD SVG 1.1//EN"
  "http://www.w3.org/Graphics/SVG/1.1/DTD/svg11.dtd">
<!-- Created with matplotlib (https://matplotlib.org/) -->
<svg height="345.6pt" version="1.1" viewBox="0 0 460.8 345.6" width="460.8pt" xmlns="http://www.w3.org/2000/svg" xmlns:xlink="http://www.w3.org/1999/xlink">
 <defs>
  <style type="text/css">
*{stroke-linecap:butt;stroke-linejoin:round;}
  </style>
 </defs>
 <g id="figure_1">
  <g id="patch_1">
   <path d="M 0 345.6 
L 460.8 345.6 
L 460.8 0 
L 0 0 
z
" style="fill:#ffffff;"/>
  </g>
  <g id="axes_1">
   <g id="patch_2">
    <path d="M 57.6 307.584 
L 414.72 307.584 
L 414.72 41.472 
L 57.6 41.472 
z
" style="fill:#ffffff;"/>
   </g>
   <g id="matplotlib.axis_1">
    <g id="xtick_1">
     <g id="line2d_1">
      <defs>
       <path d="M 0 0 
L 0 3.5 
" id="m5e8b93e0b9" style="stroke:#000000;stroke-width:0.8;"/>
      </defs>
      <g>
       <use style="stroke:#000000;stroke-width:0.8;" x="73.832727" xlink:href="#m5e8b93e0b9" y="307.584"/>
      </g>
     </g>
     <g id="text_1">
      <!-- 0.0 -->
      <defs>
       <path d="M 31.78125 66.40625 
Q 24.171875 66.40625 20.328125 58.90625 
Q 16.5 51.421875 16.5 36.375 
Q 16.5 21.390625 20.328125 13.890625 
Q 24.171875 6.390625 31.78125 6.390625 
Q 39.453125 6.390625 43.28125 13.890625 
Q 47.125 21.390625 47.125 36.375 
Q 47.125 51.421875 43.28125 58.90625 
Q 39.453125 66.40625 31.78125 66.40625 
z
M 31.78125 74.21875 
Q 44.046875 74.21875 50.515625 64.515625 
Q 56.984375 54.828125 56.984375 36.375 
Q 56.984375 17.96875 50.515625 8.265625 
Q 44.046875 -1.421875 31.78125 -1.421875 
Q 19.53125 -1.421875 13.0625 8.265625 
Q 6.59375 17.96875 6.59375 36.375 
Q 6.59375 54.828125 13.0625 64.515625 
Q 19.53125 74.21875 31.78125 74.21875 
z
" id="DejaVuSans-48"/>
       <path d="M 10.6875 12.40625 
L 21 12.40625 
L 21 0 
L 10.6875 0 
z
" id="DejaVuSans-46"/>
      </defs>
      <g transform="translate(65.881165 322.182437)scale(0.1 -0.1)">
       <use xlink:href="#DejaVuSans-48"/>
       <use x="63.623047" xlink:href="#DejaVuSans-46"/>
       <use x="95.410156" xlink:href="#DejaVuSans-48"/>
      </g>
     </g>
    </g>
    <g id="xtick_2">
     <g id="line2d_2">
      <g>
       <use style="stroke:#000000;stroke-width:0.8;" x="138.763636" xlink:href="#m5e8b93e0b9" y="307.584"/>
      </g>
     </g>
     <g id="text_2">
      <!-- 0.2 -->
      <defs>
       <path d="M 19.1875 8.296875 
L 53.609375 8.296875 
L 53.609375 0 
L 7.328125 0 
L 7.328125 8.296875 
Q 12.9375 14.109375 22.625 23.890625 
Q 32.328125 33.6875 34.8125 36.53125 
Q 39.546875 41.84375 41.421875 45.53125 
Q 43.3125 49.21875 43.3125 52.78125 
Q 43.3125 58.59375 39.234375 62.25 
Q 35.15625 65.921875 28.609375 65.921875 
Q 23.96875 65.921875 18.8125 64.3125 
Q 13.671875 62.703125 7.8125 59.421875 
L 7.8125 69.390625 
Q 13.765625 71.78125 18.9375 73 
Q 24.125 74.21875 28.421875 74.21875 
Q 39.75 74.21875 46.484375 68.546875 
Q 53.21875 62.890625 53.21875 53.421875 
Q 53.21875 48.921875 51.53125 44.890625 
Q 49.859375 40.875 45.40625 35.40625 
Q 44.1875 33.984375 37.640625 27.21875 
Q 31.109375 20.453125 19.1875 8.296875 
z
" id="DejaVuSans-50"/>
      </defs>
      <g transform="translate(130.812074 322.182437)scale(0.1 -0.1)">
       <use xlink:href="#DejaVuSans-48"/>
       <use x="63.623047" xlink:href="#DejaVuSans-46"/>
       <use x="95.410156" xlink:href="#DejaVuSans-50"/>
      </g>
     </g>
    </g>
    <g id="xtick_3">
     <g id="line2d_3">
      <g>
       <use style="stroke:#000000;stroke-width:0.8;" x="203.694545" xlink:href="#m5e8b93e0b9" y="307.584"/>
      </g>
     </g>
     <g id="text_3">
      <!-- 0.4 -->
      <defs>
       <path d="M 37.796875 64.3125 
L 12.890625 25.390625 
L 37.796875 25.390625 
z
M 35.203125 72.90625 
L 47.609375 72.90625 
L 47.609375 25.390625 
L 58.015625 25.390625 
L 58.015625 17.1875 
L 47.609375 17.1875 
L 47.609375 0 
L 37.796875 0 
L 37.796875 17.1875 
L 4.890625 17.1875 
L 4.890625 26.703125 
z
" id="DejaVuSans-52"/>
      </defs>
      <g transform="translate(195.742983 322.182437)scale(0.1 -0.1)">
       <use xlink:href="#DejaVuSans-48"/>
       <use x="63.623047" xlink:href="#DejaVuSans-46"/>
       <use x="95.410156" xlink:href="#DejaVuSans-52"/>
      </g>
     </g>
    </g>
    <g id="xtick_4">
     <g id="line2d_4">
      <g>
       <use style="stroke:#000000;stroke-width:0.8;" x="268.625455" xlink:href="#m5e8b93e0b9" y="307.584"/>
      </g>
     </g>
     <g id="text_4">
      <!-- 0.6 -->
      <defs>
       <path d="M 33.015625 40.375 
Q 26.375 40.375 22.484375 35.828125 
Q 18.609375 31.296875 18.609375 23.390625 
Q 18.609375 15.53125 22.484375 10.953125 
Q 26.375 6.390625 33.015625 6.390625 
Q 39.65625 6.390625 43.53125 10.953125 
Q 47.40625 15.53125 47.40625 23.390625 
Q 47.40625 31.296875 43.53125 35.828125 
Q 39.65625 40.375 33.015625 40.375 
z
M 52.59375 71.296875 
L 52.59375 62.3125 
Q 48.875 64.0625 45.09375 64.984375 
Q 41.3125 65.921875 37.59375 65.921875 
Q 27.828125 65.921875 22.671875 59.328125 
Q 17.53125 52.734375 16.796875 39.40625 
Q 19.671875 43.65625 24.015625 45.921875 
Q 28.375 48.1875 33.59375 48.1875 
Q 44.578125 48.1875 50.953125 41.515625 
Q 57.328125 34.859375 57.328125 23.390625 
Q 57.328125 12.15625 50.6875 5.359375 
Q 44.046875 -1.421875 33.015625 -1.421875 
Q 20.359375 -1.421875 13.671875 8.265625 
Q 6.984375 17.96875 6.984375 36.375 
Q 6.984375 53.65625 15.1875 63.9375 
Q 23.390625 74.21875 37.203125 74.21875 
Q 40.921875 74.21875 44.703125 73.484375 
Q 48.484375 72.75 52.59375 71.296875 
z
" id="DejaVuSans-54"/>
      </defs>
      <g transform="translate(260.673892 322.182437)scale(0.1 -0.1)">
       <use xlink:href="#DejaVuSans-48"/>
       <use x="63.623047" xlink:href="#DejaVuSans-46"/>
       <use x="95.410156" xlink:href="#DejaVuSans-54"/>
      </g>
     </g>
    </g>
    <g id="xtick_5">
     <g id="line2d_5">
      <g>
       <use style="stroke:#000000;stroke-width:0.8;" x="333.556364" xlink:href="#m5e8b93e0b9" y="307.584"/>
      </g>
     </g>
     <g id="text_5">
      <!-- 0.8 -->
      <defs>
       <path d="M 31.78125 34.625 
Q 24.75 34.625 20.71875 30.859375 
Q 16.703125 27.09375 16.703125 20.515625 
Q 16.703125 13.921875 20.71875 10.15625 
Q 24.75 6.390625 31.78125 6.390625 
Q 38.8125 6.390625 42.859375 10.171875 
Q 46.921875 13.96875 46.921875 20.515625 
Q 46.921875 27.09375 42.890625 30.859375 
Q 38.875 34.625 31.78125 34.625 
z
M 21.921875 38.8125 
Q 15.578125 40.375 12.03125 44.71875 
Q 8.5 49.078125 8.5 55.328125 
Q 8.5 64.0625 14.71875 69.140625 
Q 20.953125 74.21875 31.78125 74.21875 
Q 42.671875 74.21875 48.875 69.140625 
Q 55.078125 64.0625 55.078125 55.328125 
Q 55.078125 49.078125 51.53125 44.71875 
Q 48 40.375 41.703125 38.8125 
Q 48.828125 37.15625 52.796875 32.3125 
Q 56.78125 27.484375 56.78125 20.515625 
Q 56.78125 9.90625 50.3125 4.234375 
Q 43.84375 -1.421875 31.78125 -1.421875 
Q 19.734375 -1.421875 13.25 4.234375 
Q 6.78125 9.90625 6.78125 20.515625 
Q 6.78125 27.484375 10.78125 32.3125 
Q 14.796875 37.15625 21.921875 38.8125 
z
M 18.3125 54.390625 
Q 18.3125 48.734375 21.84375 45.5625 
Q 25.390625 42.390625 31.78125 42.390625 
Q 38.140625 42.390625 41.71875 45.5625 
Q 45.3125 48.734375 45.3125 54.390625 
Q 45.3125 60.0625 41.71875 63.234375 
Q 38.140625 66.40625 31.78125 66.40625 
Q 25.390625 66.40625 21.84375 63.234375 
Q 18.3125 60.0625 18.3125 54.390625 
z
" id="DejaVuSans-56"/>
      </defs>
      <g transform="translate(325.604801 322.182437)scale(0.1 -0.1)">
       <use xlink:href="#DejaVuSans-48"/>
       <use x="63.623047" xlink:href="#DejaVuSans-46"/>
       <use x="95.410156" xlink:href="#DejaVuSans-56"/>
      </g>
     </g>
    </g>
    <g id="xtick_6">
     <g id="line2d_6">
      <g>
       <use style="stroke:#000000;stroke-width:0.8;" x="398.487273" xlink:href="#m5e8b93e0b9" y="307.584"/>
      </g>
     </g>
     <g id="text_6">
      <!-- 1.0 -->
      <defs>
       <path d="M 12.40625 8.296875 
L 28.515625 8.296875 
L 28.515625 63.921875 
L 10.984375 60.40625 
L 10.984375 69.390625 
L 28.421875 72.90625 
L 38.28125 72.90625 
L 38.28125 8.296875 
L 54.390625 8.296875 
L 54.390625 0 
L 12.40625 0 
z
" id="DejaVuSans-49"/>
      </defs>
      <g transform="translate(390.53571 322.182437)scale(0.1 -0.1)">
       <use xlink:href="#DejaVuSans-49"/>
       <use x="63.623047" xlink:href="#DejaVuSans-46"/>
       <use x="95.410156" xlink:href="#DejaVuSans-48"/>
      </g>
     </g>
    </g>
   </g>
   <g id="matplotlib.axis_2">
    <g id="ytick_1">
     <g id="line2d_7">
      <defs>
       <path d="M 0 0 
L -3.5 0 
" id="m102428662e" style="stroke:#000000;stroke-width:0.8;"/>
      </defs>
      <g>
       <use style="stroke:#000000;stroke-width:0.8;" x="57.6" xlink:href="#m102428662e" y="295.488"/>
      </g>
     </g>
     <g id="text_7">
      <!-- 0.0 -->
      <g transform="translate(34.696875 299.287219)scale(0.1 -0.1)">
       <use xlink:href="#DejaVuSans-48"/>
       <use x="63.623047" xlink:href="#DejaVuSans-46"/>
       <use x="95.410156" xlink:href="#DejaVuSans-48"/>
      </g>
     </g>
    </g>
    <g id="ytick_2">
     <g id="line2d_8">
      <g>
       <use style="stroke:#000000;stroke-width:0.8;" x="57.6" xlink:href="#m102428662e" y="247.104"/>
      </g>
     </g>
     <g id="text_8">
      <!-- 0.2 -->
      <g transform="translate(34.696875 250.903219)scale(0.1 -0.1)">
       <use xlink:href="#DejaVuSans-48"/>
       <use x="63.623047" xlink:href="#DejaVuSans-46"/>
       <use x="95.410156" xlink:href="#DejaVuSans-50"/>
      </g>
     </g>
    </g>
    <g id="ytick_3">
     <g id="line2d_9">
      <g>
       <use style="stroke:#000000;stroke-width:0.8;" x="57.6" xlink:href="#m102428662e" y="198.72"/>
      </g>
     </g>
     <g id="text_9">
      <!-- 0.4 -->
      <g transform="translate(34.696875 202.519219)scale(0.1 -0.1)">
       <use xlink:href="#DejaVuSans-48"/>
       <use x="63.623047" xlink:href="#DejaVuSans-46"/>
       <use x="95.410156" xlink:href="#DejaVuSans-52"/>
      </g>
     </g>
    </g>
    <g id="ytick_4">
     <g id="line2d_10">
      <g>
       <use style="stroke:#000000;stroke-width:0.8;" x="57.6" xlink:href="#m102428662e" y="150.336"/>
      </g>
     </g>
     <g id="text_10">
      <!-- 0.6 -->
      <g transform="translate(34.696875 154.135219)scale(0.1 -0.1)">
       <use xlink:href="#DejaVuSans-48"/>
       <use x="63.623047" xlink:href="#DejaVuSans-46"/>
       <use x="95.410156" xlink:href="#DejaVuSans-54"/>
      </g>
     </g>
    </g>
    <g id="ytick_5">
     <g id="line2d_11">
      <g>
       <use style="stroke:#000000;stroke-width:0.8;" x="57.6" xlink:href="#m102428662e" y="101.952"/>
      </g>
     </g>
     <g id="text_11">
      <!-- 0.8 -->
      <g transform="translate(34.696875 105.751219)scale(0.1 -0.1)">
       <use xlink:href="#DejaVuSans-48"/>
       <use x="63.623047" xlink:href="#DejaVuSans-46"/>
       <use x="95.410156" xlink:href="#DejaVuSans-56"/>
      </g>
     </g>
    </g>
    <g id="ytick_6">
     <g id="line2d_12">
      <g>
       <use style="stroke:#000000;stroke-width:0.8;" x="57.6" xlink:href="#m102428662e" y="53.568"/>
      </g>
     </g>
     <g id="text_12">
      <!-- 1.0 -->
      <g transform="translate(34.696875 57.367219)scale(0.1 -0.1)">
       <use xlink:href="#DejaVuSans-49"/>
       <use x="63.623047" xlink:href="#DejaVuSans-46"/>
       <use x="95.410156" xlink:href="#DejaVuSans-48"/>
      </g>
     </g>
    </g>
   </g>
   <g id="line2d_13">
    <path clip-path="url(#p3053277df3)" d="M 73.832727 295.488 
L 77.948791 212.806481 
L 153.324213 185.245975 
L 211.978124 107.157873 
L 320.539311 96.439899 
L 351.152537 56.630278 
L 398.487273 53.568 
" style="fill:none;stroke:#1f77b4;stroke-dasharray:5.55,2.4;stroke-dashoffset:0;stroke-width:1.5;"/>
   </g>
   <g id="line2d_14">
    <path clip-path="url(#p3053277df3)" d="M 73.832727 295.488 
L 111.649065 295.488 
L 111.649065 293.956861 
L 113.449843 293.956861 
L 113.449843 292.425722 
L 114.221605 292.425722 
L 114.221605 290.894582 
L 118.080415 290.894582 
L 118.080415 289.363443 
L 118.337669 289.363443 
L 118.337669 287.832304 
L 118.594923 287.832304 
L 118.594923 286.301165 
L 118.852177 286.301165 
L 118.852177 284.770025 
L 119.109431 284.770025 
L 119.109431 283.238886 
L 119.366685 283.238886 
L 119.366685 281.707747 
L 119.623939 281.707747 
L 119.623939 280.176608 
L 119.881193 280.176608 
L 119.881193 278.645468 
L 120.138447 278.645468 
L 120.138447 277.114329 
L 120.395701 277.114329 
L 120.395701 263.334076 
L 120.652955 263.334076 
L 120.652955 261.802937 
L 120.910209 261.802937 
L 120.910209 260.271797 
L 121.167463 260.271797 
L 121.167463 258.740658 
L 121.424717 258.740658 
L 121.424717 257.209519 
L 121.681971 257.209519 
L 121.681971 255.67838 
L 121.939225 255.67838 
L 121.939225 254.147241 
L 125.026273 254.147241 
L 125.026273 252.616101 
L 125.798035 252.616101 
L 125.798035 251.084962 
L 129.399591 251.084962 
L 129.399591 249.553823 
L 139.432497 249.553823 
L 139.432497 248.022684 
L 140.461513 248.022684 
L 140.461513 244.960405 
L 142.776799 244.960405 
L 142.776799 243.429266 
L 143.034053 243.429266 
L 143.034053 235.77357 
L 143.291307 235.77357 
L 143.291307 228.117873 
L 143.805815 228.117873 
L 143.805815 225.055595 
L 144.063069 225.055595 
L 144.063069 223.524456 
L 145.092085 223.524456 
L 145.092085 221.993316 
L 146.121101 221.993316 
L 146.121101 220.462177 
L 149.722657 220.462177 
L 149.722657 218.931038 
L 152.037943 218.931038 
L 152.037943 217.399899 
L 158.212039 217.399899 
L 158.212039 215.868759 
L 158.726547 215.868759 
L 158.726547 214.33762 
L 159.755563 214.33762 
L 159.755563 212.806481 
L 161.556341 212.806481 
L 161.556341 211.275342 
L 164.128881 211.275342 
L 164.128881 209.744203 
L 168.759453 209.744203 
L 168.759453 208.213063 
L 173.13277 208.213063 
L 173.13277 206.681924 
L 177.506088 206.681924 
L 177.506088 205.150785 
L 178.792358 205.150785 
L 178.792358 203.619646 
L 179.821374 203.619646 
L 179.821374 202.088506 
L 181.107644 202.088506 
L 181.107644 200.557367 
L 181.879406 200.557367 
L 181.879406 199.026228 
L 182.651168 199.026228 
L 182.651168 197.495089 
L 183.42293 197.495089 
L 183.42293 195.963949 
L 184.194692 195.963949 
L 184.194692 194.43281 
L 185.223708 194.43281 
L 185.223708 192.901671 
L 186.509978 192.901671 
L 186.509978 191.370532 
L 189.597026 191.370532 
L 189.597026 189.839392 
L 197.057392 189.839392 
L 197.057392 188.308253 
L 197.829154 188.308253 
L 197.829154 185.245975 
L 198.600916 185.245975 
L 198.600916 183.714835 
L 204.260504 183.714835 
L 204.260504 182.183696 
L 204.775012 182.183696 
L 204.775012 180.652557 
L 205.28952 180.652557 
L 205.28952 179.121418 
L 205.546774 179.121418 
L 205.546774 177.590278 
L 206.318536 177.590278 
L 206.318536 174.528 
L 206.57579 174.528 
L 206.57579 172.996861 
L 207.347552 172.996861 
L 207.347552 171.465722 
L 218.666728 171.465722 
L 218.666728 169.934582 
L 219.695744 169.934582 
L 219.695744 168.403443 
L 219.952998 168.403443 
L 219.952998 166.872304 
L 220.72476 166.872304 
L 220.72476 165.341165 
L 224.840824 165.341165 
L 224.840824 163.810025 
L 225.86984 163.810025 
L 225.86984 162.278886 
L 226.127094 162.278886 
L 226.127094 160.747747 
L 235.902746 160.747747 
L 235.902746 159.216608 
L 237.189016 159.216608 
L 237.189016 157.685468 
L 240.01881 157.685468 
L 240.01881 156.154329 
L 240.790572 156.154329 
L 240.790572 154.62319 
L 241.30508 154.62319 
L 241.30508 153.092051 
L 242.076842 153.092051 
L 242.076842 151.560911 
L 244.906636 151.560911 
L 244.906636 150.029772 
L 245.16389 150.029772 
L 245.16389 148.498633 
L 245.935652 148.498633 
L 245.935652 146.967494 
L 247.221922 146.967494 
L 247.221922 145.436354 
L 248.250938 145.436354 
L 248.250938 143.905215 
L 249.0227 143.905215 
L 249.0227 142.374076 
L 250.30897 142.374076 
L 250.30897 140.842937 
L 262.914416 140.842937 
L 262.914416 139.311797 
L 271.403798 139.311797 
L 271.403798 137.780658 
L 284.009244 137.780658 
L 284.009244 134.71838 
L 284.523752 134.71838 
L 284.523752 133.187241 
L 284.781006 133.187241 
L 284.781006 131.656101 
L 285.03826 131.656101 
L 285.03826 130.124962 
L 288.382562 130.124962 
L 288.382562 128.593823 
L 289.154324 128.593823 
L 289.154324 127.062684 
L 289.668832 127.062684 
L 289.668832 125.531544 
L 292.75588 125.531544 
L 292.75588 124.000405 
L 293.013134 124.000405 
L 293.013134 122.469266 
L 293.784896 122.469266 
L 293.784896 120.938127 
L 294.813912 120.938127 
L 294.813912 119.406987 
L 295.32842 119.406987 
L 295.32842 117.875848 
L 295.842928 117.875848 
L 295.842928 116.344709 
L 296.61469 116.344709 
L 296.61469 114.81357 
L 297.386452 114.81357 
L 297.386452 113.28243 
L 297.90096 113.28243 
L 297.90096 108.689013 
L 298.672722 108.689013 
L 298.672722 107.157873 
L 299.958991 107.157873 
L 299.958991 105.626734 
L 301.759769 105.626734 
L 301.759769 104.095595 
L 312.821691 104.095595 
L 312.821691 102.564456 
L 316.165993 102.564456 
L 316.165993 101.033316 
L 316.423247 101.033316 
L 316.423247 99.502177 
L 316.680501 99.502177 
L 316.680501 97.971038 
L 316.937755 97.971038 
L 316.937755 96.439899 
L 317.195009 96.439899 
L 317.195009 94.908759 
L 317.452263 94.908759 
L 317.452263 93.37762 
L 318.481279 93.37762 
L 318.481279 90.315342 
L 318.738533 90.315342 
L 318.738533 85.721924 
L 325.169883 85.721924 
L 325.169883 84.190785 
L 346.264711 84.190785 
L 346.264711 82.659646 
L 346.521965 82.659646 
L 346.521965 81.128506 
L 352.953315 81.128506 
L 352.953315 79.597367 
L 354.239585 79.597367 
L 354.239585 76.535089 
L 355.268601 76.535089 
L 355.268601 73.47281 
L 356.040363 73.47281 
L 356.040363 71.941671 
L 356.554871 71.941671 
L 356.554871 70.410532 
L 357.841141 70.410532 
L 357.841141 68.879392 
L 369.932079 68.879392 
L 369.932079 67.348253 
L 379.193223 67.348253 
L 379.193223 65.817114 
L 380.222239 65.817114 
L 380.222239 64.285975 
L 382.280271 64.285975 
L 382.280271 58.161418 
L 382.794779 58.161418 
L 382.794779 56.630278 
L 383.566541 56.630278 
L 383.566541 53.568 
L 398.487273 53.568 
L 398.487273 53.568 
" style="fill:none;stroke:#ff7f0e;stroke-linecap:square;stroke-width:1.5;"/>
    <defs>
     <path d="M 0 1.5 
C 0.397805 1.5 0.77937 1.341951 1.06066 1.06066 
C 1.341951 0.77937 1.5 0.397805 1.5 0 
C 1.5 -0.397805 1.341951 -0.77937 1.06066 -1.06066 
C 0.77937 -1.341951 0.397805 -1.5 0 -1.5 
C -0.397805 -1.5 -0.77937 -1.341951 -1.06066 -1.06066 
C -1.341951 -0.77937 -1.5 -0.397805 -1.5 0 
C -1.5 0.397805 -1.341951 0.77937 -1.06066 1.06066 
C -0.77937 1.341951 -0.397805 1.5 0 1.5 
z
" id="md651d0f558" style="stroke:#ff7f0e;"/>
    </defs>
    <g clip-path="url(#p3053277df3)">
     <use style="fill:#ff7f0e;stroke:#ff7f0e;" x="73.832727" xlink:href="#md651d0f558" y="295.488"/>
     <use style="fill:#ff7f0e;stroke:#ff7f0e;" x="74.089981" xlink:href="#md651d0f558" y="295.488"/>
     <use style="fill:#ff7f0e;stroke:#ff7f0e;" x="111.649065" xlink:href="#md651d0f558" y="295.488"/>
     <use style="fill:#ff7f0e;stroke:#ff7f0e;" x="111.649065" xlink:href="#md651d0f558" y="293.956861"/>
     <use style="fill:#ff7f0e;stroke:#ff7f0e;" x="113.449843" xlink:href="#md651d0f558" y="293.956861"/>
     <use style="fill:#ff7f0e;stroke:#ff7f0e;" x="113.449843" xlink:href="#md651d0f558" y="292.425722"/>
     <use style="fill:#ff7f0e;stroke:#ff7f0e;" x="114.221605" xlink:href="#md651d0f558" y="292.425722"/>
     <use style="fill:#ff7f0e;stroke:#ff7f0e;" x="114.221605" xlink:href="#md651d0f558" y="290.894582"/>
     <use style="fill:#ff7f0e;stroke:#ff7f0e;" x="118.080415" xlink:href="#md651d0f558" y="290.894582"/>
     <use style="fill:#ff7f0e;stroke:#ff7f0e;" x="118.080415" xlink:href="#md651d0f558" y="289.363443"/>
     <use style="fill:#ff7f0e;stroke:#ff7f0e;" x="118.337669" xlink:href="#md651d0f558" y="289.363443"/>
     <use style="fill:#ff7f0e;stroke:#ff7f0e;" x="118.337669" xlink:href="#md651d0f558" y="287.832304"/>
     <use style="fill:#ff7f0e;stroke:#ff7f0e;" x="118.594923" xlink:href="#md651d0f558" y="287.832304"/>
     <use style="fill:#ff7f0e;stroke:#ff7f0e;" x="118.594923" xlink:href="#md651d0f558" y="286.301165"/>
     <use style="fill:#ff7f0e;stroke:#ff7f0e;" x="118.852177" xlink:href="#md651d0f558" y="286.301165"/>
     <use style="fill:#ff7f0e;stroke:#ff7f0e;" x="118.852177" xlink:href="#md651d0f558" y="284.770025"/>
     <use style="fill:#ff7f0e;stroke:#ff7f0e;" x="119.109431" xlink:href="#md651d0f558" y="284.770025"/>
     <use style="fill:#ff7f0e;stroke:#ff7f0e;" x="119.109431" xlink:href="#md651d0f558" y="283.238886"/>
     <use style="fill:#ff7f0e;stroke:#ff7f0e;" x="119.366685" xlink:href="#md651d0f558" y="283.238886"/>
     <use style="fill:#ff7f0e;stroke:#ff7f0e;" x="119.366685" xlink:href="#md651d0f558" y="281.707747"/>
     <use style="fill:#ff7f0e;stroke:#ff7f0e;" x="119.623939" xlink:href="#md651d0f558" y="281.707747"/>
     <use style="fill:#ff7f0e;stroke:#ff7f0e;" x="119.623939" xlink:href="#md651d0f558" y="280.176608"/>
     <use style="fill:#ff7f0e;stroke:#ff7f0e;" x="119.881193" xlink:href="#md651d0f558" y="280.176608"/>
     <use style="fill:#ff7f0e;stroke:#ff7f0e;" x="119.881193" xlink:href="#md651d0f558" y="278.645468"/>
     <use style="fill:#ff7f0e;stroke:#ff7f0e;" x="120.138447" xlink:href="#md651d0f558" y="278.645468"/>
     <use style="fill:#ff7f0e;stroke:#ff7f0e;" x="120.138447" xlink:href="#md651d0f558" y="277.114329"/>
     <use style="fill:#ff7f0e;stroke:#ff7f0e;" x="120.395701" xlink:href="#md651d0f558" y="277.114329"/>
     <use style="fill:#ff7f0e;stroke:#ff7f0e;" x="120.395701" xlink:href="#md651d0f558" y="263.334076"/>
     <use style="fill:#ff7f0e;stroke:#ff7f0e;" x="120.652955" xlink:href="#md651d0f558" y="263.334076"/>
     <use style="fill:#ff7f0e;stroke:#ff7f0e;" x="120.652955" xlink:href="#md651d0f558" y="261.802937"/>
     <use style="fill:#ff7f0e;stroke:#ff7f0e;" x="120.910209" xlink:href="#md651d0f558" y="261.802937"/>
     <use style="fill:#ff7f0e;stroke:#ff7f0e;" x="120.910209" xlink:href="#md651d0f558" y="260.271797"/>
     <use style="fill:#ff7f0e;stroke:#ff7f0e;" x="121.167463" xlink:href="#md651d0f558" y="260.271797"/>
     <use style="fill:#ff7f0e;stroke:#ff7f0e;" x="121.167463" xlink:href="#md651d0f558" y="258.740658"/>
     <use style="fill:#ff7f0e;stroke:#ff7f0e;" x="121.424717" xlink:href="#md651d0f558" y="258.740658"/>
     <use style="fill:#ff7f0e;stroke:#ff7f0e;" x="121.424717" xlink:href="#md651d0f558" y="257.209519"/>
     <use style="fill:#ff7f0e;stroke:#ff7f0e;" x="121.681971" xlink:href="#md651d0f558" y="257.209519"/>
     <use style="fill:#ff7f0e;stroke:#ff7f0e;" x="121.681971" xlink:href="#md651d0f558" y="255.67838"/>
     <use style="fill:#ff7f0e;stroke:#ff7f0e;" x="121.939225" xlink:href="#md651d0f558" y="255.67838"/>
     <use style="fill:#ff7f0e;stroke:#ff7f0e;" x="121.939225" xlink:href="#md651d0f558" y="254.147241"/>
     <use style="fill:#ff7f0e;stroke:#ff7f0e;" x="125.026273" xlink:href="#md651d0f558" y="254.147241"/>
     <use style="fill:#ff7f0e;stroke:#ff7f0e;" x="125.026273" xlink:href="#md651d0f558" y="252.616101"/>
     <use style="fill:#ff7f0e;stroke:#ff7f0e;" x="125.798035" xlink:href="#md651d0f558" y="252.616101"/>
     <use style="fill:#ff7f0e;stroke:#ff7f0e;" x="125.798035" xlink:href="#md651d0f558" y="251.084962"/>
     <use style="fill:#ff7f0e;stroke:#ff7f0e;" x="129.399591" xlink:href="#md651d0f558" y="251.084962"/>
     <use style="fill:#ff7f0e;stroke:#ff7f0e;" x="129.399591" xlink:href="#md651d0f558" y="249.553823"/>
     <use style="fill:#ff7f0e;stroke:#ff7f0e;" x="139.432497" xlink:href="#md651d0f558" y="249.553823"/>
     <use style="fill:#ff7f0e;stroke:#ff7f0e;" x="139.432497" xlink:href="#md651d0f558" y="248.022684"/>
     <use style="fill:#ff7f0e;stroke:#ff7f0e;" x="140.461513" xlink:href="#md651d0f558" y="248.022684"/>
     <use style="fill:#ff7f0e;stroke:#ff7f0e;" x="140.461513" xlink:href="#md651d0f558" y="244.960405"/>
     <use style="fill:#ff7f0e;stroke:#ff7f0e;" x="142.776799" xlink:href="#md651d0f558" y="244.960405"/>
     <use style="fill:#ff7f0e;stroke:#ff7f0e;" x="142.776799" xlink:href="#md651d0f558" y="243.429266"/>
     <use style="fill:#ff7f0e;stroke:#ff7f0e;" x="143.034053" xlink:href="#md651d0f558" y="243.429266"/>
     <use style="fill:#ff7f0e;stroke:#ff7f0e;" x="143.034053" xlink:href="#md651d0f558" y="235.77357"/>
     <use style="fill:#ff7f0e;stroke:#ff7f0e;" x="143.291307" xlink:href="#md651d0f558" y="235.77357"/>
     <use style="fill:#ff7f0e;stroke:#ff7f0e;" x="143.291307" xlink:href="#md651d0f558" y="228.117873"/>
     <use style="fill:#ff7f0e;stroke:#ff7f0e;" x="143.805815" xlink:href="#md651d0f558" y="228.117873"/>
     <use style="fill:#ff7f0e;stroke:#ff7f0e;" x="143.805815" xlink:href="#md651d0f558" y="225.055595"/>
     <use style="fill:#ff7f0e;stroke:#ff7f0e;" x="144.063069" xlink:href="#md651d0f558" y="225.055595"/>
     <use style="fill:#ff7f0e;stroke:#ff7f0e;" x="144.063069" xlink:href="#md651d0f558" y="223.524456"/>
     <use style="fill:#ff7f0e;stroke:#ff7f0e;" x="145.092085" xlink:href="#md651d0f558" y="223.524456"/>
     <use style="fill:#ff7f0e;stroke:#ff7f0e;" x="145.092085" xlink:href="#md651d0f558" y="221.993316"/>
     <use style="fill:#ff7f0e;stroke:#ff7f0e;" x="146.121101" xlink:href="#md651d0f558" y="221.993316"/>
     <use style="fill:#ff7f0e;stroke:#ff7f0e;" x="146.121101" xlink:href="#md651d0f558" y="220.462177"/>
     <use style="fill:#ff7f0e;stroke:#ff7f0e;" x="149.722657" xlink:href="#md651d0f558" y="220.462177"/>
     <use style="fill:#ff7f0e;stroke:#ff7f0e;" x="149.722657" xlink:href="#md651d0f558" y="218.931038"/>
     <use style="fill:#ff7f0e;stroke:#ff7f0e;" x="152.037943" xlink:href="#md651d0f558" y="218.931038"/>
     <use style="fill:#ff7f0e;stroke:#ff7f0e;" x="152.037943" xlink:href="#md651d0f558" y="217.399899"/>
     <use style="fill:#ff7f0e;stroke:#ff7f0e;" x="158.212039" xlink:href="#md651d0f558" y="217.399899"/>
     <use style="fill:#ff7f0e;stroke:#ff7f0e;" x="158.212039" xlink:href="#md651d0f558" y="215.868759"/>
     <use style="fill:#ff7f0e;stroke:#ff7f0e;" x="158.726547" xlink:href="#md651d0f558" y="215.868759"/>
     <use style="fill:#ff7f0e;stroke:#ff7f0e;" x="158.726547" xlink:href="#md651d0f558" y="214.33762"/>
     <use style="fill:#ff7f0e;stroke:#ff7f0e;" x="159.755563" xlink:href="#md651d0f558" y="214.33762"/>
     <use style="fill:#ff7f0e;stroke:#ff7f0e;" x="159.755563" xlink:href="#md651d0f558" y="212.806481"/>
     <use style="fill:#ff7f0e;stroke:#ff7f0e;" x="161.556341" xlink:href="#md651d0f558" y="212.806481"/>
     <use style="fill:#ff7f0e;stroke:#ff7f0e;" x="161.556341" xlink:href="#md651d0f558" y="211.275342"/>
     <use style="fill:#ff7f0e;stroke:#ff7f0e;" x="164.128881" xlink:href="#md651d0f558" y="211.275342"/>
     <use style="fill:#ff7f0e;stroke:#ff7f0e;" x="164.128881" xlink:href="#md651d0f558" y="209.744203"/>
     <use style="fill:#ff7f0e;stroke:#ff7f0e;" x="168.759453" xlink:href="#md651d0f558" y="209.744203"/>
     <use style="fill:#ff7f0e;stroke:#ff7f0e;" x="168.759453" xlink:href="#md651d0f558" y="208.213063"/>
     <use style="fill:#ff7f0e;stroke:#ff7f0e;" x="173.13277" xlink:href="#md651d0f558" y="208.213063"/>
     <use style="fill:#ff7f0e;stroke:#ff7f0e;" x="173.13277" xlink:href="#md651d0f558" y="206.681924"/>
     <use style="fill:#ff7f0e;stroke:#ff7f0e;" x="177.506088" xlink:href="#md651d0f558" y="206.681924"/>
     <use style="fill:#ff7f0e;stroke:#ff7f0e;" x="177.506088" xlink:href="#md651d0f558" y="205.150785"/>
     <use style="fill:#ff7f0e;stroke:#ff7f0e;" x="178.792358" xlink:href="#md651d0f558" y="205.150785"/>
     <use style="fill:#ff7f0e;stroke:#ff7f0e;" x="178.792358" xlink:href="#md651d0f558" y="203.619646"/>
     <use style="fill:#ff7f0e;stroke:#ff7f0e;" x="179.821374" xlink:href="#md651d0f558" y="203.619646"/>
     <use style="fill:#ff7f0e;stroke:#ff7f0e;" x="179.821374" xlink:href="#md651d0f558" y="202.088506"/>
     <use style="fill:#ff7f0e;stroke:#ff7f0e;" x="181.107644" xlink:href="#md651d0f558" y="202.088506"/>
     <use style="fill:#ff7f0e;stroke:#ff7f0e;" x="181.107644" xlink:href="#md651d0f558" y="200.557367"/>
     <use style="fill:#ff7f0e;stroke:#ff7f0e;" x="181.879406" xlink:href="#md651d0f558" y="200.557367"/>
     <use style="fill:#ff7f0e;stroke:#ff7f0e;" x="181.879406" xlink:href="#md651d0f558" y="199.026228"/>
     <use style="fill:#ff7f0e;stroke:#ff7f0e;" x="182.651168" xlink:href="#md651d0f558" y="199.026228"/>
     <use style="fill:#ff7f0e;stroke:#ff7f0e;" x="182.651168" xlink:href="#md651d0f558" y="197.495089"/>
     <use style="fill:#ff7f0e;stroke:#ff7f0e;" x="183.42293" xlink:href="#md651d0f558" y="197.495089"/>
     <use style="fill:#ff7f0e;stroke:#ff7f0e;" x="183.42293" xlink:href="#md651d0f558" y="195.963949"/>
     <use style="fill:#ff7f0e;stroke:#ff7f0e;" x="184.194692" xlink:href="#md651d0f558" y="195.963949"/>
     <use style="fill:#ff7f0e;stroke:#ff7f0e;" x="184.194692" xlink:href="#md651d0f558" y="194.43281"/>
     <use style="fill:#ff7f0e;stroke:#ff7f0e;" x="185.223708" xlink:href="#md651d0f558" y="194.43281"/>
     <use style="fill:#ff7f0e;stroke:#ff7f0e;" x="185.223708" xlink:href="#md651d0f558" y="192.901671"/>
     <use style="fill:#ff7f0e;stroke:#ff7f0e;" x="186.509978" xlink:href="#md651d0f558" y="192.901671"/>
     <use style="fill:#ff7f0e;stroke:#ff7f0e;" x="186.509978" xlink:href="#md651d0f558" y="191.370532"/>
     <use style="fill:#ff7f0e;stroke:#ff7f0e;" x="189.597026" xlink:href="#md651d0f558" y="191.370532"/>
     <use style="fill:#ff7f0e;stroke:#ff7f0e;" x="189.597026" xlink:href="#md651d0f558" y="189.839392"/>
     <use style="fill:#ff7f0e;stroke:#ff7f0e;" x="197.057392" xlink:href="#md651d0f558" y="189.839392"/>
     <use style="fill:#ff7f0e;stroke:#ff7f0e;" x="197.057392" xlink:href="#md651d0f558" y="188.308253"/>
     <use style="fill:#ff7f0e;stroke:#ff7f0e;" x="197.829154" xlink:href="#md651d0f558" y="188.308253"/>
     <use style="fill:#ff7f0e;stroke:#ff7f0e;" x="197.829154" xlink:href="#md651d0f558" y="185.245975"/>
     <use style="fill:#ff7f0e;stroke:#ff7f0e;" x="198.600916" xlink:href="#md651d0f558" y="185.245975"/>
     <use style="fill:#ff7f0e;stroke:#ff7f0e;" x="198.600916" xlink:href="#md651d0f558" y="183.714835"/>
     <use style="fill:#ff7f0e;stroke:#ff7f0e;" x="204.260504" xlink:href="#md651d0f558" y="183.714835"/>
     <use style="fill:#ff7f0e;stroke:#ff7f0e;" x="204.260504" xlink:href="#md651d0f558" y="182.183696"/>
     <use style="fill:#ff7f0e;stroke:#ff7f0e;" x="204.775012" xlink:href="#md651d0f558" y="182.183696"/>
     <use style="fill:#ff7f0e;stroke:#ff7f0e;" x="204.775012" xlink:href="#md651d0f558" y="180.652557"/>
     <use style="fill:#ff7f0e;stroke:#ff7f0e;" x="205.28952" xlink:href="#md651d0f558" y="180.652557"/>
     <use style="fill:#ff7f0e;stroke:#ff7f0e;" x="205.28952" xlink:href="#md651d0f558" y="179.121418"/>
     <use style="fill:#ff7f0e;stroke:#ff7f0e;" x="205.546774" xlink:href="#md651d0f558" y="179.121418"/>
     <use style="fill:#ff7f0e;stroke:#ff7f0e;" x="205.546774" xlink:href="#md651d0f558" y="177.590278"/>
     <use style="fill:#ff7f0e;stroke:#ff7f0e;" x="206.318536" xlink:href="#md651d0f558" y="177.590278"/>
     <use style="fill:#ff7f0e;stroke:#ff7f0e;" x="206.318536" xlink:href="#md651d0f558" y="174.528"/>
     <use style="fill:#ff7f0e;stroke:#ff7f0e;" x="206.57579" xlink:href="#md651d0f558" y="174.528"/>
     <use style="fill:#ff7f0e;stroke:#ff7f0e;" x="206.57579" xlink:href="#md651d0f558" y="172.996861"/>
     <use style="fill:#ff7f0e;stroke:#ff7f0e;" x="207.347552" xlink:href="#md651d0f558" y="172.996861"/>
     <use style="fill:#ff7f0e;stroke:#ff7f0e;" x="207.347552" xlink:href="#md651d0f558" y="171.465722"/>
     <use style="fill:#ff7f0e;stroke:#ff7f0e;" x="218.666728" xlink:href="#md651d0f558" y="171.465722"/>
     <use style="fill:#ff7f0e;stroke:#ff7f0e;" x="218.666728" xlink:href="#md651d0f558" y="169.934582"/>
     <use style="fill:#ff7f0e;stroke:#ff7f0e;" x="219.695744" xlink:href="#md651d0f558" y="169.934582"/>
     <use style="fill:#ff7f0e;stroke:#ff7f0e;" x="219.695744" xlink:href="#md651d0f558" y="168.403443"/>
     <use style="fill:#ff7f0e;stroke:#ff7f0e;" x="219.952998" xlink:href="#md651d0f558" y="168.403443"/>
     <use style="fill:#ff7f0e;stroke:#ff7f0e;" x="219.952998" xlink:href="#md651d0f558" y="166.872304"/>
     <use style="fill:#ff7f0e;stroke:#ff7f0e;" x="220.72476" xlink:href="#md651d0f558" y="166.872304"/>
     <use style="fill:#ff7f0e;stroke:#ff7f0e;" x="220.72476" xlink:href="#md651d0f558" y="165.341165"/>
     <use style="fill:#ff7f0e;stroke:#ff7f0e;" x="224.840824" xlink:href="#md651d0f558" y="165.341165"/>
     <use style="fill:#ff7f0e;stroke:#ff7f0e;" x="224.840824" xlink:href="#md651d0f558" y="163.810025"/>
     <use style="fill:#ff7f0e;stroke:#ff7f0e;" x="225.86984" xlink:href="#md651d0f558" y="163.810025"/>
     <use style="fill:#ff7f0e;stroke:#ff7f0e;" x="225.86984" xlink:href="#md651d0f558" y="162.278886"/>
     <use style="fill:#ff7f0e;stroke:#ff7f0e;" x="226.127094" xlink:href="#md651d0f558" y="162.278886"/>
     <use style="fill:#ff7f0e;stroke:#ff7f0e;" x="226.127094" xlink:href="#md651d0f558" y="160.747747"/>
     <use style="fill:#ff7f0e;stroke:#ff7f0e;" x="235.902746" xlink:href="#md651d0f558" y="160.747747"/>
     <use style="fill:#ff7f0e;stroke:#ff7f0e;" x="235.902746" xlink:href="#md651d0f558" y="159.216608"/>
     <use style="fill:#ff7f0e;stroke:#ff7f0e;" x="237.189016" xlink:href="#md651d0f558" y="159.216608"/>
     <use style="fill:#ff7f0e;stroke:#ff7f0e;" x="237.189016" xlink:href="#md651d0f558" y="157.685468"/>
     <use style="fill:#ff7f0e;stroke:#ff7f0e;" x="240.01881" xlink:href="#md651d0f558" y="157.685468"/>
     <use style="fill:#ff7f0e;stroke:#ff7f0e;" x="240.01881" xlink:href="#md651d0f558" y="156.154329"/>
     <use style="fill:#ff7f0e;stroke:#ff7f0e;" x="240.790572" xlink:href="#md651d0f558" y="156.154329"/>
     <use style="fill:#ff7f0e;stroke:#ff7f0e;" x="240.790572" xlink:href="#md651d0f558" y="154.62319"/>
     <use style="fill:#ff7f0e;stroke:#ff7f0e;" x="241.30508" xlink:href="#md651d0f558" y="154.62319"/>
     <use style="fill:#ff7f0e;stroke:#ff7f0e;" x="241.30508" xlink:href="#md651d0f558" y="153.092051"/>
     <use style="fill:#ff7f0e;stroke:#ff7f0e;" x="242.076842" xlink:href="#md651d0f558" y="153.092051"/>
     <use style="fill:#ff7f0e;stroke:#ff7f0e;" x="242.076842" xlink:href="#md651d0f558" y="151.560911"/>
     <use style="fill:#ff7f0e;stroke:#ff7f0e;" x="244.906636" xlink:href="#md651d0f558" y="151.560911"/>
     <use style="fill:#ff7f0e;stroke:#ff7f0e;" x="244.906636" xlink:href="#md651d0f558" y="150.029772"/>
     <use style="fill:#ff7f0e;stroke:#ff7f0e;" x="245.16389" xlink:href="#md651d0f558" y="150.029772"/>
     <use style="fill:#ff7f0e;stroke:#ff7f0e;" x="245.16389" xlink:href="#md651d0f558" y="148.498633"/>
     <use style="fill:#ff7f0e;stroke:#ff7f0e;" x="245.935652" xlink:href="#md651d0f558" y="148.498633"/>
     <use style="fill:#ff7f0e;stroke:#ff7f0e;" x="245.935652" xlink:href="#md651d0f558" y="146.967494"/>
     <use style="fill:#ff7f0e;stroke:#ff7f0e;" x="247.221922" xlink:href="#md651d0f558" y="146.967494"/>
     <use style="fill:#ff7f0e;stroke:#ff7f0e;" x="247.221922" xlink:href="#md651d0f558" y="145.436354"/>
     <use style="fill:#ff7f0e;stroke:#ff7f0e;" x="248.250938" xlink:href="#md651d0f558" y="145.436354"/>
     <use style="fill:#ff7f0e;stroke:#ff7f0e;" x="248.250938" xlink:href="#md651d0f558" y="143.905215"/>
     <use style="fill:#ff7f0e;stroke:#ff7f0e;" x="249.0227" xlink:href="#md651d0f558" y="143.905215"/>
     <use style="fill:#ff7f0e;stroke:#ff7f0e;" x="249.0227" xlink:href="#md651d0f558" y="142.374076"/>
     <use style="fill:#ff7f0e;stroke:#ff7f0e;" x="250.30897" xlink:href="#md651d0f558" y="142.374076"/>
     <use style="fill:#ff7f0e;stroke:#ff7f0e;" x="250.30897" xlink:href="#md651d0f558" y="140.842937"/>
     <use style="fill:#ff7f0e;stroke:#ff7f0e;" x="262.914416" xlink:href="#md651d0f558" y="140.842937"/>
     <use style="fill:#ff7f0e;stroke:#ff7f0e;" x="262.914416" xlink:href="#md651d0f558" y="139.311797"/>
     <use style="fill:#ff7f0e;stroke:#ff7f0e;" x="271.403798" xlink:href="#md651d0f558" y="139.311797"/>
     <use style="fill:#ff7f0e;stroke:#ff7f0e;" x="271.403798" xlink:href="#md651d0f558" y="137.780658"/>
     <use style="fill:#ff7f0e;stroke:#ff7f0e;" x="284.009244" xlink:href="#md651d0f558" y="137.780658"/>
     <use style="fill:#ff7f0e;stroke:#ff7f0e;" x="284.009244" xlink:href="#md651d0f558" y="134.71838"/>
     <use style="fill:#ff7f0e;stroke:#ff7f0e;" x="284.523752" xlink:href="#md651d0f558" y="134.71838"/>
     <use style="fill:#ff7f0e;stroke:#ff7f0e;" x="284.523752" xlink:href="#md651d0f558" y="133.187241"/>
     <use style="fill:#ff7f0e;stroke:#ff7f0e;" x="284.781006" xlink:href="#md651d0f558" y="133.187241"/>
     <use style="fill:#ff7f0e;stroke:#ff7f0e;" x="284.781006" xlink:href="#md651d0f558" y="131.656101"/>
     <use style="fill:#ff7f0e;stroke:#ff7f0e;" x="285.03826" xlink:href="#md651d0f558" y="131.656101"/>
     <use style="fill:#ff7f0e;stroke:#ff7f0e;" x="285.03826" xlink:href="#md651d0f558" y="130.124962"/>
     <use style="fill:#ff7f0e;stroke:#ff7f0e;" x="288.382562" xlink:href="#md651d0f558" y="130.124962"/>
     <use style="fill:#ff7f0e;stroke:#ff7f0e;" x="288.382562" xlink:href="#md651d0f558" y="128.593823"/>
     <use style="fill:#ff7f0e;stroke:#ff7f0e;" x="289.154324" xlink:href="#md651d0f558" y="128.593823"/>
     <use style="fill:#ff7f0e;stroke:#ff7f0e;" x="289.154324" xlink:href="#md651d0f558" y="127.062684"/>
     <use style="fill:#ff7f0e;stroke:#ff7f0e;" x="289.668832" xlink:href="#md651d0f558" y="127.062684"/>
     <use style="fill:#ff7f0e;stroke:#ff7f0e;" x="289.668832" xlink:href="#md651d0f558" y="125.531544"/>
     <use style="fill:#ff7f0e;stroke:#ff7f0e;" x="292.75588" xlink:href="#md651d0f558" y="125.531544"/>
     <use style="fill:#ff7f0e;stroke:#ff7f0e;" x="292.75588" xlink:href="#md651d0f558" y="124.000405"/>
     <use style="fill:#ff7f0e;stroke:#ff7f0e;" x="293.013134" xlink:href="#md651d0f558" y="124.000405"/>
     <use style="fill:#ff7f0e;stroke:#ff7f0e;" x="293.013134" xlink:href="#md651d0f558" y="122.469266"/>
     <use style="fill:#ff7f0e;stroke:#ff7f0e;" x="293.784896" xlink:href="#md651d0f558" y="122.469266"/>
     <use style="fill:#ff7f0e;stroke:#ff7f0e;" x="293.784896" xlink:href="#md651d0f558" y="120.938127"/>
     <use style="fill:#ff7f0e;stroke:#ff7f0e;" x="294.813912" xlink:href="#md651d0f558" y="120.938127"/>
     <use style="fill:#ff7f0e;stroke:#ff7f0e;" x="294.813912" xlink:href="#md651d0f558" y="119.406987"/>
     <use style="fill:#ff7f0e;stroke:#ff7f0e;" x="295.32842" xlink:href="#md651d0f558" y="119.406987"/>
     <use style="fill:#ff7f0e;stroke:#ff7f0e;" x="295.32842" xlink:href="#md651d0f558" y="117.875848"/>
     <use style="fill:#ff7f0e;stroke:#ff7f0e;" x="295.842928" xlink:href="#md651d0f558" y="117.875848"/>
     <use style="fill:#ff7f0e;stroke:#ff7f0e;" x="295.842928" xlink:href="#md651d0f558" y="116.344709"/>
     <use style="fill:#ff7f0e;stroke:#ff7f0e;" x="296.61469" xlink:href="#md651d0f558" y="116.344709"/>
     <use style="fill:#ff7f0e;stroke:#ff7f0e;" x="296.61469" xlink:href="#md651d0f558" y="114.81357"/>
     <use style="fill:#ff7f0e;stroke:#ff7f0e;" x="297.386452" xlink:href="#md651d0f558" y="114.81357"/>
     <use style="fill:#ff7f0e;stroke:#ff7f0e;" x="297.386452" xlink:href="#md651d0f558" y="113.28243"/>
     <use style="fill:#ff7f0e;stroke:#ff7f0e;" x="297.90096" xlink:href="#md651d0f558" y="113.28243"/>
     <use style="fill:#ff7f0e;stroke:#ff7f0e;" x="297.90096" xlink:href="#md651d0f558" y="108.689013"/>
     <use style="fill:#ff7f0e;stroke:#ff7f0e;" x="298.672722" xlink:href="#md651d0f558" y="108.689013"/>
     <use style="fill:#ff7f0e;stroke:#ff7f0e;" x="298.672722" xlink:href="#md651d0f558" y="107.157873"/>
     <use style="fill:#ff7f0e;stroke:#ff7f0e;" x="299.958991" xlink:href="#md651d0f558" y="107.157873"/>
     <use style="fill:#ff7f0e;stroke:#ff7f0e;" x="299.958991" xlink:href="#md651d0f558" y="105.626734"/>
     <use style="fill:#ff7f0e;stroke:#ff7f0e;" x="301.759769" xlink:href="#md651d0f558" y="105.626734"/>
     <use style="fill:#ff7f0e;stroke:#ff7f0e;" x="301.759769" xlink:href="#md651d0f558" y="104.095595"/>
     <use style="fill:#ff7f0e;stroke:#ff7f0e;" x="312.821691" xlink:href="#md651d0f558" y="104.095595"/>
     <use style="fill:#ff7f0e;stroke:#ff7f0e;" x="312.821691" xlink:href="#md651d0f558" y="102.564456"/>
     <use style="fill:#ff7f0e;stroke:#ff7f0e;" x="316.165993" xlink:href="#md651d0f558" y="102.564456"/>
     <use style="fill:#ff7f0e;stroke:#ff7f0e;" x="316.165993" xlink:href="#md651d0f558" y="101.033316"/>
     <use style="fill:#ff7f0e;stroke:#ff7f0e;" x="316.423247" xlink:href="#md651d0f558" y="101.033316"/>
     <use style="fill:#ff7f0e;stroke:#ff7f0e;" x="316.423247" xlink:href="#md651d0f558" y="99.502177"/>
     <use style="fill:#ff7f0e;stroke:#ff7f0e;" x="316.680501" xlink:href="#md651d0f558" y="99.502177"/>
     <use style="fill:#ff7f0e;stroke:#ff7f0e;" x="316.680501" xlink:href="#md651d0f558" y="97.971038"/>
     <use style="fill:#ff7f0e;stroke:#ff7f0e;" x="316.937755" xlink:href="#md651d0f558" y="97.971038"/>
     <use style="fill:#ff7f0e;stroke:#ff7f0e;" x="316.937755" xlink:href="#md651d0f558" y="96.439899"/>
     <use style="fill:#ff7f0e;stroke:#ff7f0e;" x="317.195009" xlink:href="#md651d0f558" y="96.439899"/>
     <use style="fill:#ff7f0e;stroke:#ff7f0e;" x="317.195009" xlink:href="#md651d0f558" y="94.908759"/>
     <use style="fill:#ff7f0e;stroke:#ff7f0e;" x="317.452263" xlink:href="#md651d0f558" y="94.908759"/>
     <use style="fill:#ff7f0e;stroke:#ff7f0e;" x="317.452263" xlink:href="#md651d0f558" y="93.37762"/>
     <use style="fill:#ff7f0e;stroke:#ff7f0e;" x="318.481279" xlink:href="#md651d0f558" y="93.37762"/>
     <use style="fill:#ff7f0e;stroke:#ff7f0e;" x="318.481279" xlink:href="#md651d0f558" y="90.315342"/>
     <use style="fill:#ff7f0e;stroke:#ff7f0e;" x="318.738533" xlink:href="#md651d0f558" y="90.315342"/>
     <use style="fill:#ff7f0e;stroke:#ff7f0e;" x="318.738533" xlink:href="#md651d0f558" y="85.721924"/>
     <use style="fill:#ff7f0e;stroke:#ff7f0e;" x="325.169883" xlink:href="#md651d0f558" y="85.721924"/>
     <use style="fill:#ff7f0e;stroke:#ff7f0e;" x="325.169883" xlink:href="#md651d0f558" y="84.190785"/>
     <use style="fill:#ff7f0e;stroke:#ff7f0e;" x="346.264711" xlink:href="#md651d0f558" y="84.190785"/>
     <use style="fill:#ff7f0e;stroke:#ff7f0e;" x="346.264711" xlink:href="#md651d0f558" y="82.659646"/>
     <use style="fill:#ff7f0e;stroke:#ff7f0e;" x="346.521965" xlink:href="#md651d0f558" y="82.659646"/>
     <use style="fill:#ff7f0e;stroke:#ff7f0e;" x="346.521965" xlink:href="#md651d0f558" y="81.128506"/>
     <use style="fill:#ff7f0e;stroke:#ff7f0e;" x="352.953315" xlink:href="#md651d0f558" y="81.128506"/>
     <use style="fill:#ff7f0e;stroke:#ff7f0e;" x="352.953315" xlink:href="#md651d0f558" y="79.597367"/>
     <use style="fill:#ff7f0e;stroke:#ff7f0e;" x="354.239585" xlink:href="#md651d0f558" y="79.597367"/>
     <use style="fill:#ff7f0e;stroke:#ff7f0e;" x="354.239585" xlink:href="#md651d0f558" y="76.535089"/>
     <use style="fill:#ff7f0e;stroke:#ff7f0e;" x="355.268601" xlink:href="#md651d0f558" y="76.535089"/>
     <use style="fill:#ff7f0e;stroke:#ff7f0e;" x="355.268601" xlink:href="#md651d0f558" y="73.47281"/>
     <use style="fill:#ff7f0e;stroke:#ff7f0e;" x="356.040363" xlink:href="#md651d0f558" y="73.47281"/>
     <use style="fill:#ff7f0e;stroke:#ff7f0e;" x="356.040363" xlink:href="#md651d0f558" y="71.941671"/>
     <use style="fill:#ff7f0e;stroke:#ff7f0e;" x="356.554871" xlink:href="#md651d0f558" y="71.941671"/>
     <use style="fill:#ff7f0e;stroke:#ff7f0e;" x="356.554871" xlink:href="#md651d0f558" y="70.410532"/>
     <use style="fill:#ff7f0e;stroke:#ff7f0e;" x="357.841141" xlink:href="#md651d0f558" y="70.410532"/>
     <use style="fill:#ff7f0e;stroke:#ff7f0e;" x="357.841141" xlink:href="#md651d0f558" y="68.879392"/>
     <use style="fill:#ff7f0e;stroke:#ff7f0e;" x="369.932079" xlink:href="#md651d0f558" y="68.879392"/>
     <use style="fill:#ff7f0e;stroke:#ff7f0e;" x="369.932079" xlink:href="#md651d0f558" y="67.348253"/>
     <use style="fill:#ff7f0e;stroke:#ff7f0e;" x="379.193223" xlink:href="#md651d0f558" y="67.348253"/>
     <use style="fill:#ff7f0e;stroke:#ff7f0e;" x="379.193223" xlink:href="#md651d0f558" y="65.817114"/>
     <use style="fill:#ff7f0e;stroke:#ff7f0e;" x="380.222239" xlink:href="#md651d0f558" y="65.817114"/>
     <use style="fill:#ff7f0e;stroke:#ff7f0e;" x="380.222239" xlink:href="#md651d0f558" y="64.285975"/>
     <use style="fill:#ff7f0e;stroke:#ff7f0e;" x="382.280271" xlink:href="#md651d0f558" y="64.285975"/>
     <use style="fill:#ff7f0e;stroke:#ff7f0e;" x="382.280271" xlink:href="#md651d0f558" y="58.161418"/>
     <use style="fill:#ff7f0e;stroke:#ff7f0e;" x="382.794779" xlink:href="#md651d0f558" y="58.161418"/>
     <use style="fill:#ff7f0e;stroke:#ff7f0e;" x="382.794779" xlink:href="#md651d0f558" y="56.630278"/>
     <use style="fill:#ff7f0e;stroke:#ff7f0e;" x="383.566541" xlink:href="#md651d0f558" y="56.630278"/>
     <use style="fill:#ff7f0e;stroke:#ff7f0e;" x="383.566541" xlink:href="#md651d0f558" y="53.568"/>
     <use style="fill:#ff7f0e;stroke:#ff7f0e;" x="398.487273" xlink:href="#md651d0f558" y="53.568"/>
    </g>
   </g>
   <g id="patch_3">
    <path d="M 57.6 307.584 
L 57.6 41.472 
" style="fill:none;stroke:#000000;stroke-linecap:square;stroke-linejoin:miter;stroke-width:0.8;"/>
   </g>
   <g id="patch_4">
    <path d="M 414.72 307.584 
L 414.72 41.472 
" style="fill:none;stroke:#000000;stroke-linecap:square;stroke-linejoin:miter;stroke-width:0.8;"/>
   </g>
   <g id="patch_5">
    <path d="M 57.6 307.584 
L 414.72 307.584 
" style="fill:none;stroke:#000000;stroke-linecap:square;stroke-linejoin:miter;stroke-width:0.8;"/>
   </g>
   <g id="patch_6">
    <path d="M 57.6 41.472 
L 414.72 41.472 
" style="fill:none;stroke:#000000;stroke-linecap:square;stroke-linejoin:miter;stroke-width:0.8;"/>
   </g>
   <g id="text_13">
    <!-- ROC Curve for Real data with Neural Networks with solver: sgd -->
    <defs>
     <path d="M 44.390625 34.1875 
Q 47.5625 33.109375 50.5625 29.59375 
Q 53.5625 26.078125 56.59375 19.921875 
L 66.609375 0 
L 56 0 
L 46.6875 18.703125 
Q 43.0625 26.03125 39.671875 28.421875 
Q 36.28125 30.8125 30.421875 30.8125 
L 19.671875 30.8125 
L 19.671875 0 
L 9.8125 0 
L 9.8125 72.90625 
L 32.078125 72.90625 
Q 44.578125 72.90625 50.734375 67.671875 
Q 56.890625 62.453125 56.890625 51.90625 
Q 56.890625 45.015625 53.6875 40.46875 
Q 50.484375 35.9375 44.390625 34.1875 
z
M 19.671875 64.796875 
L 19.671875 38.921875 
L 32.078125 38.921875 
Q 39.203125 38.921875 42.84375 42.21875 
Q 46.484375 45.515625 46.484375 51.90625 
Q 46.484375 58.296875 42.84375 61.546875 
Q 39.203125 64.796875 32.078125 64.796875 
z
" id="DejaVuSans-82"/>
     <path d="M 39.40625 66.21875 
Q 28.65625 66.21875 22.328125 58.203125 
Q 16.015625 50.203125 16.015625 36.375 
Q 16.015625 22.609375 22.328125 14.59375 
Q 28.65625 6.59375 39.40625 6.59375 
Q 50.140625 6.59375 56.421875 14.59375 
Q 62.703125 22.609375 62.703125 36.375 
Q 62.703125 50.203125 56.421875 58.203125 
Q 50.140625 66.21875 39.40625 66.21875 
z
M 39.40625 74.21875 
Q 54.734375 74.21875 63.90625 63.9375 
Q 73.09375 53.65625 73.09375 36.375 
Q 73.09375 19.140625 63.90625 8.859375 
Q 54.734375 -1.421875 39.40625 -1.421875 
Q 24.03125 -1.421875 14.8125 8.828125 
Q 5.609375 19.09375 5.609375 36.375 
Q 5.609375 53.65625 14.8125 63.9375 
Q 24.03125 74.21875 39.40625 74.21875 
z
" id="DejaVuSans-79"/>
     <path d="M 64.40625 67.28125 
L 64.40625 56.890625 
Q 59.421875 61.53125 53.78125 63.8125 
Q 48.140625 66.109375 41.796875 66.109375 
Q 29.296875 66.109375 22.65625 58.46875 
Q 16.015625 50.828125 16.015625 36.375 
Q 16.015625 21.96875 22.65625 14.328125 
Q 29.296875 6.6875 41.796875 6.6875 
Q 48.140625 6.6875 53.78125 8.984375 
Q 59.421875 11.28125 64.40625 15.921875 
L 64.40625 5.609375 
Q 59.234375 2.09375 53.4375 0.328125 
Q 47.65625 -1.421875 41.21875 -1.421875 
Q 24.65625 -1.421875 15.125 8.703125 
Q 5.609375 18.84375 5.609375 36.375 
Q 5.609375 53.953125 15.125 64.078125 
Q 24.65625 74.21875 41.21875 74.21875 
Q 47.75 74.21875 53.53125 72.484375 
Q 59.328125 70.75 64.40625 67.28125 
z
" id="DejaVuSans-67"/>
     <path id="DejaVuSans-32"/>
     <path d="M 8.5 21.578125 
L 8.5 54.6875 
L 17.484375 54.6875 
L 17.484375 21.921875 
Q 17.484375 14.15625 20.5 10.265625 
Q 23.53125 6.390625 29.59375 6.390625 
Q 36.859375 6.390625 41.078125 11.03125 
Q 45.3125 15.671875 45.3125 23.6875 
L 45.3125 54.6875 
L 54.296875 54.6875 
L 54.296875 0 
L 45.3125 0 
L 45.3125 8.40625 
Q 42.046875 3.421875 37.71875 1 
Q 33.40625 -1.421875 27.6875 -1.421875 
Q 18.265625 -1.421875 13.375 4.4375 
Q 8.5 10.296875 8.5 21.578125 
z
M 31.109375 56 
z
" id="DejaVuSans-117"/>
     <path d="M 41.109375 46.296875 
Q 39.59375 47.171875 37.8125 47.578125 
Q 36.03125 48 33.890625 48 
Q 26.265625 48 22.1875 43.046875 
Q 18.109375 38.09375 18.109375 28.8125 
L 18.109375 0 
L 9.078125 0 
L 9.078125 54.6875 
L 18.109375 54.6875 
L 18.109375 46.1875 
Q 20.953125 51.171875 25.484375 53.578125 
Q 30.03125 56 36.53125 56 
Q 37.453125 56 38.578125 55.875 
Q 39.703125 55.765625 41.0625 55.515625 
z
" id="DejaVuSans-114"/>
     <path d="M 2.984375 54.6875 
L 12.5 54.6875 
L 29.59375 8.796875 
L 46.6875 54.6875 
L 56.203125 54.6875 
L 35.6875 0 
L 23.484375 0 
z
" id="DejaVuSans-118"/>
     <path d="M 56.203125 29.59375 
L 56.203125 25.203125 
L 14.890625 25.203125 
Q 15.484375 15.921875 20.484375 11.0625 
Q 25.484375 6.203125 34.421875 6.203125 
Q 39.59375 6.203125 44.453125 7.46875 
Q 49.3125 8.734375 54.109375 11.28125 
L 54.109375 2.78125 
Q 49.265625 0.734375 44.1875 -0.34375 
Q 39.109375 -1.421875 33.890625 -1.421875 
Q 20.796875 -1.421875 13.15625 6.1875 
Q 5.515625 13.8125 5.515625 26.8125 
Q 5.515625 40.234375 12.765625 48.109375 
Q 20.015625 56 32.328125 56 
Q 43.359375 56 49.78125 48.890625 
Q 56.203125 41.796875 56.203125 29.59375 
z
M 47.21875 32.234375 
Q 47.125 39.59375 43.09375 43.984375 
Q 39.0625 48.390625 32.421875 48.390625 
Q 24.90625 48.390625 20.390625 44.140625 
Q 15.875 39.890625 15.1875 32.171875 
z
" id="DejaVuSans-101"/>
     <path d="M 37.109375 75.984375 
L 37.109375 68.5 
L 28.515625 68.5 
Q 23.6875 68.5 21.796875 66.546875 
Q 19.921875 64.59375 19.921875 59.515625 
L 19.921875 54.6875 
L 34.71875 54.6875 
L 34.71875 47.703125 
L 19.921875 47.703125 
L 19.921875 0 
L 10.890625 0 
L 10.890625 47.703125 
L 2.296875 47.703125 
L 2.296875 54.6875 
L 10.890625 54.6875 
L 10.890625 58.5 
Q 10.890625 67.625 15.140625 71.796875 
Q 19.390625 75.984375 28.609375 75.984375 
z
" id="DejaVuSans-102"/>
     <path d="M 30.609375 48.390625 
Q 23.390625 48.390625 19.1875 42.75 
Q 14.984375 37.109375 14.984375 27.296875 
Q 14.984375 17.484375 19.15625 11.84375 
Q 23.34375 6.203125 30.609375 6.203125 
Q 37.796875 6.203125 41.984375 11.859375 
Q 46.1875 17.53125 46.1875 27.296875 
Q 46.1875 37.015625 41.984375 42.703125 
Q 37.796875 48.390625 30.609375 48.390625 
z
M 30.609375 56 
Q 42.328125 56 49.015625 48.375 
Q 55.71875 40.765625 55.71875 27.296875 
Q 55.71875 13.875 49.015625 6.21875 
Q 42.328125 -1.421875 30.609375 -1.421875 
Q 18.84375 -1.421875 12.171875 6.21875 
Q 5.515625 13.875 5.515625 27.296875 
Q 5.515625 40.765625 12.171875 48.375 
Q 18.84375 56 30.609375 56 
z
" id="DejaVuSans-111"/>
     <path d="M 34.28125 27.484375 
Q 23.390625 27.484375 19.1875 25 
Q 14.984375 22.515625 14.984375 16.5 
Q 14.984375 11.71875 18.140625 8.90625 
Q 21.296875 6.109375 26.703125 6.109375 
Q 34.1875 6.109375 38.703125 11.40625 
Q 43.21875 16.703125 43.21875 25.484375 
L 43.21875 27.484375 
z
M 52.203125 31.203125 
L 52.203125 0 
L 43.21875 0 
L 43.21875 8.296875 
Q 40.140625 3.328125 35.546875 0.953125 
Q 30.953125 -1.421875 24.3125 -1.421875 
Q 15.921875 -1.421875 10.953125 3.296875 
Q 6 8.015625 6 15.921875 
Q 6 25.140625 12.171875 29.828125 
Q 18.359375 34.515625 30.609375 34.515625 
L 43.21875 34.515625 
L 43.21875 35.40625 
Q 43.21875 41.609375 39.140625 45 
Q 35.0625 48.390625 27.6875 48.390625 
Q 23 48.390625 18.546875 47.265625 
Q 14.109375 46.140625 10.015625 43.890625 
L 10.015625 52.203125 
Q 14.9375 54.109375 19.578125 55.046875 
Q 24.21875 56 28.609375 56 
Q 40.484375 56 46.34375 49.84375 
Q 52.203125 43.703125 52.203125 31.203125 
z
" id="DejaVuSans-97"/>
     <path d="M 9.421875 75.984375 
L 18.40625 75.984375 
L 18.40625 0 
L 9.421875 0 
z
" id="DejaVuSans-108"/>
     <path d="M 45.40625 46.390625 
L 45.40625 75.984375 
L 54.390625 75.984375 
L 54.390625 0 
L 45.40625 0 
L 45.40625 8.203125 
Q 42.578125 3.328125 38.25 0.953125 
Q 33.9375 -1.421875 27.875 -1.421875 
Q 17.96875 -1.421875 11.734375 6.484375 
Q 5.515625 14.40625 5.515625 27.296875 
Q 5.515625 40.1875 11.734375 48.09375 
Q 17.96875 56 27.875 56 
Q 33.9375 56 38.25 53.625 
Q 42.578125 51.265625 45.40625 46.390625 
z
M 14.796875 27.296875 
Q 14.796875 17.390625 18.875 11.75 
Q 22.953125 6.109375 30.078125 6.109375 
Q 37.203125 6.109375 41.296875 11.75 
Q 45.40625 17.390625 45.40625 27.296875 
Q 45.40625 37.203125 41.296875 42.84375 
Q 37.203125 48.484375 30.078125 48.484375 
Q 22.953125 48.484375 18.875 42.84375 
Q 14.796875 37.203125 14.796875 27.296875 
z
" id="DejaVuSans-100"/>
     <path d="M 18.3125 70.21875 
L 18.3125 54.6875 
L 36.8125 54.6875 
L 36.8125 47.703125 
L 18.3125 47.703125 
L 18.3125 18.015625 
Q 18.3125 11.328125 20.140625 9.421875 
Q 21.96875 7.515625 27.59375 7.515625 
L 36.8125 7.515625 
L 36.8125 0 
L 27.59375 0 
Q 17.1875 0 13.234375 3.875 
Q 9.28125 7.765625 9.28125 18.015625 
L 9.28125 47.703125 
L 2.6875 47.703125 
L 2.6875 54.6875 
L 9.28125 54.6875 
L 9.28125 70.21875 
z
" id="DejaVuSans-116"/>
     <path d="M 4.203125 54.6875 
L 13.1875 54.6875 
L 24.421875 12.015625 
L 35.59375 54.6875 
L 46.1875 54.6875 
L 57.421875 12.015625 
L 68.609375 54.6875 
L 77.59375 54.6875 
L 63.28125 0 
L 52.6875 0 
L 40.921875 44.828125 
L 29.109375 0 
L 18.5 0 
z
" id="DejaVuSans-119"/>
     <path d="M 9.421875 54.6875 
L 18.40625 54.6875 
L 18.40625 0 
L 9.421875 0 
z
M 9.421875 75.984375 
L 18.40625 75.984375 
L 18.40625 64.59375 
L 9.421875 64.59375 
z
" id="DejaVuSans-105"/>
     <path d="M 54.890625 33.015625 
L 54.890625 0 
L 45.90625 0 
L 45.90625 32.71875 
Q 45.90625 40.484375 42.875 44.328125 
Q 39.84375 48.1875 33.796875 48.1875 
Q 26.515625 48.1875 22.3125 43.546875 
Q 18.109375 38.921875 18.109375 30.90625 
L 18.109375 0 
L 9.078125 0 
L 9.078125 75.984375 
L 18.109375 75.984375 
L 18.109375 46.1875 
Q 21.34375 51.125 25.703125 53.5625 
Q 30.078125 56 35.796875 56 
Q 45.21875 56 50.046875 50.171875 
Q 54.890625 44.34375 54.890625 33.015625 
z
" id="DejaVuSans-104"/>
     <path d="M 9.8125 72.90625 
L 23.09375 72.90625 
L 55.421875 11.921875 
L 55.421875 72.90625 
L 64.984375 72.90625 
L 64.984375 0 
L 51.703125 0 
L 19.390625 60.984375 
L 19.390625 0 
L 9.8125 0 
z
" id="DejaVuSans-78"/>
     <path d="M 9.078125 75.984375 
L 18.109375 75.984375 
L 18.109375 31.109375 
L 44.921875 54.6875 
L 56.390625 54.6875 
L 27.390625 29.109375 
L 57.625 0 
L 45.90625 0 
L 18.109375 26.703125 
L 18.109375 0 
L 9.078125 0 
z
" id="DejaVuSans-107"/>
     <path d="M 44.28125 53.078125 
L 44.28125 44.578125 
Q 40.484375 46.53125 36.375 47.5 
Q 32.28125 48.484375 27.875 48.484375 
Q 21.1875 48.484375 17.84375 46.4375 
Q 14.5 44.390625 14.5 40.28125 
Q 14.5 37.15625 16.890625 35.375 
Q 19.28125 33.59375 26.515625 31.984375 
L 29.59375 31.296875 
Q 39.15625 29.25 43.1875 25.515625 
Q 47.21875 21.78125 47.21875 15.09375 
Q 47.21875 7.46875 41.1875 3.015625 
Q 35.15625 -1.421875 24.609375 -1.421875 
Q 20.21875 -1.421875 15.453125 -0.5625 
Q 10.6875 0.296875 5.421875 2 
L 5.421875 11.28125 
Q 10.40625 8.6875 15.234375 7.390625 
Q 20.0625 6.109375 24.8125 6.109375 
Q 31.15625 6.109375 34.5625 8.28125 
Q 37.984375 10.453125 37.984375 14.40625 
Q 37.984375 18.0625 35.515625 20.015625 
Q 33.0625 21.96875 24.703125 23.78125 
L 21.578125 24.515625 
Q 13.234375 26.265625 9.515625 29.90625 
Q 5.8125 33.546875 5.8125 39.890625 
Q 5.8125 47.609375 11.28125 51.796875 
Q 16.75 56 26.8125 56 
Q 31.78125 56 36.171875 55.265625 
Q 40.578125 54.546875 44.28125 53.078125 
z
" id="DejaVuSans-115"/>
     <path d="M 11.71875 12.40625 
L 22.015625 12.40625 
L 22.015625 0 
L 11.71875 0 
z
M 11.71875 51.703125 
L 22.015625 51.703125 
L 22.015625 39.3125 
L 11.71875 39.3125 
z
" id="DejaVuSans-58"/>
     <path d="M 45.40625 27.984375 
Q 45.40625 37.75 41.375 43.109375 
Q 37.359375 48.484375 30.078125 48.484375 
Q 22.859375 48.484375 18.828125 43.109375 
Q 14.796875 37.75 14.796875 27.984375 
Q 14.796875 18.265625 18.828125 12.890625 
Q 22.859375 7.515625 30.078125 7.515625 
Q 37.359375 7.515625 41.375 12.890625 
Q 45.40625 18.265625 45.40625 27.984375 
z
M 54.390625 6.78125 
Q 54.390625 -7.171875 48.1875 -13.984375 
Q 42 -20.796875 29.203125 -20.796875 
Q 24.46875 -20.796875 20.265625 -20.09375 
Q 16.0625 -19.390625 12.109375 -17.921875 
L 12.109375 -9.1875 
Q 16.0625 -11.328125 19.921875 -12.34375 
Q 23.78125 -13.375 27.78125 -13.375 
Q 36.625 -13.375 41.015625 -8.765625 
Q 45.40625 -4.15625 45.40625 5.171875 
L 45.40625 9.625 
Q 42.625 4.78125 38.28125 2.390625 
Q 33.9375 0 27.875 0 
Q 17.828125 0 11.671875 7.65625 
Q 5.515625 15.328125 5.515625 27.984375 
Q 5.515625 40.671875 11.671875 48.328125 
Q 17.828125 56 27.875 56 
Q 33.9375 56 38.28125 53.609375 
Q 42.625 51.21875 45.40625 46.390625 
L 45.40625 54.6875 
L 54.390625 54.6875 
z
" id="DejaVuSans-103"/>
    </defs>
    <g transform="translate(47.346563 22.034625)scale(0.12 -0.12)">
     <use xlink:href="#DejaVuSans-82"/>
     <use x="69.482422" xlink:href="#DejaVuSans-79"/>
     <use x="148.193359" xlink:href="#DejaVuSans-67"/>
     <use x="218.017578" xlink:href="#DejaVuSans-32"/>
     <use x="249.804688" xlink:href="#DejaVuSans-67"/>
     <use x="319.628906" xlink:href="#DejaVuSans-117"/>
     <use x="383.007812" xlink:href="#DejaVuSans-114"/>
     <use x="424.121094" xlink:href="#DejaVuSans-118"/>
     <use x="483.300781" xlink:href="#DejaVuSans-101"/>
     <use x="544.824219" xlink:href="#DejaVuSans-32"/>
     <use x="576.611328" xlink:href="#DejaVuSans-102"/>
     <use x="611.816406" xlink:href="#DejaVuSans-111"/>
     <use x="672.998047" xlink:href="#DejaVuSans-114"/>
     <use x="714.111328" xlink:href="#DejaVuSans-32"/>
     <use x="745.898438" xlink:href="#DejaVuSans-82"/>
     <use x="810.880859" xlink:href="#DejaVuSans-101"/>
     <use x="872.404297" xlink:href="#DejaVuSans-97"/>
     <use x="933.683594" xlink:href="#DejaVuSans-108"/>
     <use x="961.466797" xlink:href="#DejaVuSans-32"/>
     <use x="993.253906" xlink:href="#DejaVuSans-100"/>
     <use x="1056.730469" xlink:href="#DejaVuSans-97"/>
     <use x="1118.009766" xlink:href="#DejaVuSans-116"/>
     <use x="1157.21875" xlink:href="#DejaVuSans-97"/>
     <use x="1218.498047" xlink:href="#DejaVuSans-32"/>
     <use x="1250.285156" xlink:href="#DejaVuSans-119"/>
     <use x="1332.072266" xlink:href="#DejaVuSans-105"/>
     <use x="1359.855469" xlink:href="#DejaVuSans-116"/>
     <use x="1399.064453" xlink:href="#DejaVuSans-104"/>
     <use x="1462.443359" xlink:href="#DejaVuSans-32"/>
     <use x="1494.230469" xlink:href="#DejaVuSans-78"/>
     <use x="1569.035156" xlink:href="#DejaVuSans-101"/>
     <use x="1630.558594" xlink:href="#DejaVuSans-117"/>
     <use x="1693.9375" xlink:href="#DejaVuSans-114"/>
     <use x="1735.050781" xlink:href="#DejaVuSans-97"/>
     <use x="1796.330078" xlink:href="#DejaVuSans-108"/>
     <use x="1824.113281" xlink:href="#DejaVuSans-32"/>
     <use x="1855.900391" xlink:href="#DejaVuSans-78"/>
     <use x="1930.705078" xlink:href="#DejaVuSans-101"/>
     <use x="1992.228516" xlink:href="#DejaVuSans-116"/>
     <use x="2031.4375" xlink:href="#DejaVuSans-119"/>
     <use x="2113.224609" xlink:href="#DejaVuSans-111"/>
     <use x="2174.40625" xlink:href="#DejaVuSans-114"/>
     <use x="2215.519531" xlink:href="#DejaVuSans-107"/>
     <use x="2273.429688" xlink:href="#DejaVuSans-115"/>
     <use x="2325.529297" xlink:href="#DejaVuSans-32"/>
     <use x="2357.316406" xlink:href="#DejaVuSans-119"/>
     <use x="2439.103516" xlink:href="#DejaVuSans-105"/>
     <use x="2466.886719" xlink:href="#DejaVuSans-116"/>
     <use x="2506.095703" xlink:href="#DejaVuSans-104"/>
     <use x="2569.474609" xlink:href="#DejaVuSans-32"/>
     <use x="2601.261719" xlink:href="#DejaVuSans-115"/>
     <use x="2653.361328" xlink:href="#DejaVuSans-111"/>
     <use x="2714.542969" xlink:href="#DejaVuSans-108"/>
     <use x="2742.326172" xlink:href="#DejaVuSans-118"/>
     <use x="2801.505859" xlink:href="#DejaVuSans-101"/>
     <use x="2863.029297" xlink:href="#DejaVuSans-114"/>
     <use x="2902.392578" xlink:href="#DejaVuSans-58"/>
     <use x="2936.083984" xlink:href="#DejaVuSans-32"/>
     <use x="2967.871094" xlink:href="#DejaVuSans-115"/>
     <use x="3019.970703" xlink:href="#DejaVuSans-103"/>
     <use x="3083.447266" xlink:href="#DejaVuSans-100"/>
    </g>
    <!--  activation function: logistic and number nodes: (2, 2, 2) -->
    <defs>
     <path d="M 48.78125 52.59375 
L 48.78125 44.1875 
Q 44.96875 46.296875 41.140625 47.34375 
Q 37.3125 48.390625 33.40625 48.390625 
Q 24.65625 48.390625 19.8125 42.84375 
Q 14.984375 37.3125 14.984375 27.296875 
Q 14.984375 17.28125 19.8125 11.734375 
Q 24.65625 6.203125 33.40625 6.203125 
Q 37.3125 6.203125 41.140625 7.25 
Q 44.96875 8.296875 48.78125 10.40625 
L 48.78125 2.09375 
Q 45.015625 0.34375 40.984375 -0.53125 
Q 36.96875 -1.421875 32.421875 -1.421875 
Q 20.0625 -1.421875 12.78125 6.34375 
Q 5.515625 14.109375 5.515625 27.296875 
Q 5.515625 40.671875 12.859375 48.328125 
Q 20.21875 56 33.015625 56 
Q 37.15625 56 41.109375 55.140625 
Q 45.0625 54.296875 48.78125 52.59375 
z
" id="DejaVuSans-99"/>
     <path d="M 54.890625 33.015625 
L 54.890625 0 
L 45.90625 0 
L 45.90625 32.71875 
Q 45.90625 40.484375 42.875 44.328125 
Q 39.84375 48.1875 33.796875 48.1875 
Q 26.515625 48.1875 22.3125 43.546875 
Q 18.109375 38.921875 18.109375 30.90625 
L 18.109375 0 
L 9.078125 0 
L 9.078125 54.6875 
L 18.109375 54.6875 
L 18.109375 46.1875 
Q 21.34375 51.125 25.703125 53.5625 
Q 30.078125 56 35.796875 56 
Q 45.21875 56 50.046875 50.171875 
Q 54.890625 44.34375 54.890625 33.015625 
z
" id="DejaVuSans-110"/>
     <path d="M 52 44.1875 
Q 55.375 50.25 60.0625 53.125 
Q 64.75 56 71.09375 56 
Q 79.640625 56 84.28125 50.015625 
Q 88.921875 44.046875 88.921875 33.015625 
L 88.921875 0 
L 79.890625 0 
L 79.890625 32.71875 
Q 79.890625 40.578125 77.09375 44.375 
Q 74.3125 48.1875 68.609375 48.1875 
Q 61.625 48.1875 57.5625 43.546875 
Q 53.515625 38.921875 53.515625 30.90625 
L 53.515625 0 
L 44.484375 0 
L 44.484375 32.71875 
Q 44.484375 40.625 41.703125 44.40625 
Q 38.921875 48.1875 33.109375 48.1875 
Q 26.21875 48.1875 22.15625 43.53125 
Q 18.109375 38.875 18.109375 30.90625 
L 18.109375 0 
L 9.078125 0 
L 9.078125 54.6875 
L 18.109375 54.6875 
L 18.109375 46.1875 
Q 21.1875 51.21875 25.484375 53.609375 
Q 29.78125 56 35.6875 56 
Q 41.65625 56 45.828125 52.96875 
Q 50 49.953125 52 44.1875 
z
" id="DejaVuSans-109"/>
     <path d="M 48.6875 27.296875 
Q 48.6875 37.203125 44.609375 42.84375 
Q 40.53125 48.484375 33.40625 48.484375 
Q 26.265625 48.484375 22.1875 42.84375 
Q 18.109375 37.203125 18.109375 27.296875 
Q 18.109375 17.390625 22.1875 11.75 
Q 26.265625 6.109375 33.40625 6.109375 
Q 40.53125 6.109375 44.609375 11.75 
Q 48.6875 17.390625 48.6875 27.296875 
z
M 18.109375 46.390625 
Q 20.953125 51.265625 25.265625 53.625 
Q 29.59375 56 35.59375 56 
Q 45.5625 56 51.78125 48.09375 
Q 58.015625 40.1875 58.015625 27.296875 
Q 58.015625 14.40625 51.78125 6.484375 
Q 45.5625 -1.421875 35.59375 -1.421875 
Q 29.59375 -1.421875 25.265625 0.953125 
Q 20.953125 3.328125 18.109375 8.203125 
L 18.109375 0 
L 9.078125 0 
L 9.078125 75.984375 
L 18.109375 75.984375 
z
" id="DejaVuSans-98"/>
     <path d="M 31 75.875 
Q 24.46875 64.65625 21.28125 53.65625 
Q 18.109375 42.671875 18.109375 31.390625 
Q 18.109375 20.125 21.3125 9.0625 
Q 24.515625 -2 31 -13.1875 
L 23.1875 -13.1875 
Q 15.875 -1.703125 12.234375 9.375 
Q 8.59375 20.453125 8.59375 31.390625 
Q 8.59375 42.28125 12.203125 53.3125 
Q 15.828125 64.359375 23.1875 75.875 
z
" id="DejaVuSans-40"/>
     <path d="M 11.71875 12.40625 
L 22.015625 12.40625 
L 22.015625 4 
L 14.015625 -11.625 
L 7.71875 -11.625 
L 11.71875 4 
z
" id="DejaVuSans-44"/>
     <path d="M 8.015625 75.875 
L 15.828125 75.875 
Q 23.140625 64.359375 26.78125 53.3125 
Q 30.421875 42.28125 30.421875 31.390625 
Q 30.421875 20.453125 26.78125 9.375 
Q 23.140625 -1.703125 15.828125 -13.1875 
L 8.015625 -13.1875 
Q 14.5 -2 17.703125 9.0625 
Q 20.90625 20.125 20.90625 31.390625 
Q 20.90625 42.671875 17.703125 53.65625 
Q 14.5 64.65625 8.015625 75.875 
z
" id="DejaVuSans-41"/>
    </defs>
    <g transform="translate(66.719063 35.472)scale(0.12 -0.12)">
     <use xlink:href="#DejaVuSans-32"/>
     <use x="31.787109" xlink:href="#DejaVuSans-97"/>
     <use x="93.066406" xlink:href="#DejaVuSans-99"/>
     <use x="148.046875" xlink:href="#DejaVuSans-116"/>
     <use x="187.255859" xlink:href="#DejaVuSans-105"/>
     <use x="215.039062" xlink:href="#DejaVuSans-118"/>
     <use x="274.21875" xlink:href="#DejaVuSans-97"/>
     <use x="335.498047" xlink:href="#DejaVuSans-116"/>
     <use x="374.707031" xlink:href="#DejaVuSans-105"/>
     <use x="402.490234" xlink:href="#DejaVuSans-111"/>
     <use x="463.671875" xlink:href="#DejaVuSans-110"/>
     <use x="527.050781" xlink:href="#DejaVuSans-32"/>
     <use x="558.837891" xlink:href="#DejaVuSans-102"/>
     <use x="594.042969" xlink:href="#DejaVuSans-117"/>
     <use x="657.421875" xlink:href="#DejaVuSans-110"/>
     <use x="720.800781" xlink:href="#DejaVuSans-99"/>
     <use x="775.78125" xlink:href="#DejaVuSans-116"/>
     <use x="814.990234" xlink:href="#DejaVuSans-105"/>
     <use x="842.773438" xlink:href="#DejaVuSans-111"/>
     <use x="903.955078" xlink:href="#DejaVuSans-110"/>
     <use x="967.333984" xlink:href="#DejaVuSans-58"/>
     <use x="1001.025391" xlink:href="#DejaVuSans-32"/>
     <use x="1032.8125" xlink:href="#DejaVuSans-108"/>
     <use x="1060.595703" xlink:href="#DejaVuSans-111"/>
     <use x="1121.777344" xlink:href="#DejaVuSans-103"/>
     <use x="1185.253906" xlink:href="#DejaVuSans-105"/>
     <use x="1213.037109" xlink:href="#DejaVuSans-115"/>
     <use x="1265.136719" xlink:href="#DejaVuSans-116"/>
     <use x="1304.345703" xlink:href="#DejaVuSans-105"/>
     <use x="1332.128906" xlink:href="#DejaVuSans-99"/>
     <use x="1387.109375" xlink:href="#DejaVuSans-32"/>
     <use x="1418.896484" xlink:href="#DejaVuSans-97"/>
     <use x="1480.175781" xlink:href="#DejaVuSans-110"/>
     <use x="1543.554688" xlink:href="#DejaVuSans-100"/>
     <use x="1607.03125" xlink:href="#DejaVuSans-32"/>
     <use x="1638.818359" xlink:href="#DejaVuSans-110"/>
     <use x="1702.197266" xlink:href="#DejaVuSans-117"/>
     <use x="1765.576172" xlink:href="#DejaVuSans-109"/>
     <use x="1862.988281" xlink:href="#DejaVuSans-98"/>
     <use x="1926.464844" xlink:href="#DejaVuSans-101"/>
     <use x="1987.988281" xlink:href="#DejaVuSans-114"/>
     <use x="2029.101562" xlink:href="#DejaVuSans-32"/>
     <use x="2060.888672" xlink:href="#DejaVuSans-110"/>
     <use x="2124.267578" xlink:href="#DejaVuSans-111"/>
     <use x="2185.449219" xlink:href="#DejaVuSans-100"/>
     <use x="2248.925781" xlink:href="#DejaVuSans-101"/>
     <use x="2310.449219" xlink:href="#DejaVuSans-115"/>
     <use x="2362.548828" xlink:href="#DejaVuSans-58"/>
     <use x="2396.240234" xlink:href="#DejaVuSans-32"/>
     <use x="2428.027344" xlink:href="#DejaVuSans-40"/>
     <use x="2467.041016" xlink:href="#DejaVuSans-50"/>
     <use x="2530.664062" xlink:href="#DejaVuSans-44"/>
     <use x="2562.451172" xlink:href="#DejaVuSans-32"/>
     <use x="2594.238281" xlink:href="#DejaVuSans-50"/>
     <use x="2657.861328" xlink:href="#DejaVuSans-44"/>
     <use x="2689.648438" xlink:href="#DejaVuSans-32"/>
     <use x="2721.435547" xlink:href="#DejaVuSans-50"/>
     <use x="2785.058594" xlink:href="#DejaVuSans-41"/>
    </g>
   </g>
   <g id="legend_1">
    <g id="patch_7">
     <path d="M 64.6 78.82825 
L 166.29375 78.82825 
Q 168.29375 78.82825 168.29375 76.82825 
L 168.29375 48.472 
Q 168.29375 46.472 166.29375 46.472 
L 64.6 46.472 
Q 62.6 46.472 62.6 48.472 
L 62.6 76.82825 
Q 62.6 78.82825 64.6 78.82825 
z
" style="fill:#ffffff;opacity:0.8;stroke:#cccccc;stroke-linejoin:miter;"/>
    </g>
    <g id="line2d_15">
     <path d="M 66.6 54.570437 
L 86.6 54.570437 
" style="fill:none;stroke:#1f77b4;stroke-dasharray:5.55,2.4;stroke-dashoffset:0;stroke-width:1.5;"/>
    </g>
    <g id="line2d_16"/>
    <g id="text_14">
     <!-- No Skill -->
     <defs>
      <path d="M 53.515625 70.515625 
L 53.515625 60.890625 
Q 47.90625 63.578125 42.921875 64.890625 
Q 37.9375 66.21875 33.296875 66.21875 
Q 25.25 66.21875 20.875 63.09375 
Q 16.5 59.96875 16.5 54.203125 
Q 16.5 49.359375 19.40625 46.890625 
Q 22.3125 44.4375 30.421875 42.921875 
L 36.375 41.703125 
Q 47.40625 39.59375 52.65625 34.296875 
Q 57.90625 29 57.90625 20.125 
Q 57.90625 9.515625 50.796875 4.046875 
Q 43.703125 -1.421875 29.984375 -1.421875 
Q 24.8125 -1.421875 18.96875 -0.25 
Q 13.140625 0.921875 6.890625 3.21875 
L 6.890625 13.375 
Q 12.890625 10.015625 18.65625 8.296875 
Q 24.421875 6.59375 29.984375 6.59375 
Q 38.421875 6.59375 43.015625 9.90625 
Q 47.609375 13.234375 47.609375 19.390625 
Q 47.609375 24.75 44.3125 27.78125 
Q 41.015625 30.8125 33.5 32.328125 
L 27.484375 33.5 
Q 16.453125 35.6875 11.515625 40.375 
Q 6.59375 45.0625 6.59375 53.421875 
Q 6.59375 63.09375 13.40625 68.65625 
Q 20.21875 74.21875 32.171875 74.21875 
Q 37.3125 74.21875 42.625 73.28125 
Q 47.953125 72.359375 53.515625 70.515625 
z
" id="DejaVuSans-83"/>
     </defs>
     <g transform="translate(94.6 58.070437)scale(0.1 -0.1)">
      <use xlink:href="#DejaVuSans-78"/>
      <use x="74.804688" xlink:href="#DejaVuSans-111"/>
      <use x="135.986328" xlink:href="#DejaVuSans-32"/>
      <use x="167.773438" xlink:href="#DejaVuSans-83"/>
      <use x="231.25" xlink:href="#DejaVuSans-107"/>
      <use x="289.160156" xlink:href="#DejaVuSans-105"/>
      <use x="316.943359" xlink:href="#DejaVuSans-108"/>
      <use x="344.726562" xlink:href="#DejaVuSans-108"/>
     </g>
    </g>
    <g id="line2d_17">
     <path d="M 66.6 69.248562 
L 86.6 69.248562 
" style="fill:none;stroke:#ff7f0e;stroke-linecap:square;stroke-width:1.5;"/>
    </g>
    <g id="line2d_18">
     <g>
      <use style="fill:#ff7f0e;stroke:#ff7f0e;" x="76.6" xlink:href="#md651d0f558" y="69.248562"/>
     </g>
    </g>
    <g id="text_15">
     <!-- Trained Model -->
     <defs>
      <path d="M -0.296875 72.90625 
L 61.375 72.90625 
L 61.375 64.59375 
L 35.5 64.59375 
L 35.5 0 
L 25.59375 0 
L 25.59375 64.59375 
L -0.296875 64.59375 
z
" id="DejaVuSans-84"/>
      <path d="M 9.8125 72.90625 
L 24.515625 72.90625 
L 43.109375 23.296875 
L 61.8125 72.90625 
L 76.515625 72.90625 
L 76.515625 0 
L 66.890625 0 
L 66.890625 64.015625 
L 48.09375 14.015625 
L 38.1875 14.015625 
L 19.390625 64.015625 
L 19.390625 0 
L 9.8125 0 
z
" id="DejaVuSans-77"/>
     </defs>
     <g transform="translate(94.6 72.748562)scale(0.1 -0.1)">
      <use xlink:href="#DejaVuSans-84"/>
      <use x="46.333984" xlink:href="#DejaVuSans-114"/>
      <use x="87.447266" xlink:href="#DejaVuSans-97"/>
      <use x="148.726562" xlink:href="#DejaVuSans-105"/>
      <use x="176.509766" xlink:href="#DejaVuSans-110"/>
      <use x="239.888672" xlink:href="#DejaVuSans-101"/>
      <use x="301.412109" xlink:href="#DejaVuSans-100"/>
      <use x="364.888672" xlink:href="#DejaVuSans-32"/>
      <use x="396.675781" xlink:href="#DejaVuSans-77"/>
      <use x="482.955078" xlink:href="#DejaVuSans-111"/>
      <use x="544.136719" xlink:href="#DejaVuSans-100"/>
      <use x="607.613281" xlink:href="#DejaVuSans-101"/>
      <use x="669.136719" xlink:href="#DejaVuSans-108"/>
     </g>
    </g>
   </g>
  </g>
 </g>
 <defs>
  <clipPath id="p3053277df3">
   <rect height="266.112" width="357.12" x="57.6" y="41.472"/>
  </clipPath>
 </defs>
</svg>
