<?xml version="1.0" encoding="utf-8" standalone="no"?>
<!DOCTYPE svg PUBLIC "-//W3C//DTD SVG 1.1//EN"
  "http://www.w3.org/Graphics/SVG/1.1/DTD/svg11.dtd">
<!-- Created with matplotlib (https://matplotlib.org/) -->
<svg height="345.6pt" version="1.1" viewBox="0 0 460.8 345.6" width="460.8pt" xmlns="http://www.w3.org/2000/svg" xmlns:xlink="http://www.w3.org/1999/xlink">
 <defs>
  <style type="text/css">
*{stroke-linecap:butt;stroke-linejoin:round;}
  </style>
 </defs>
 <g id="figure_1">
  <g id="patch_1">
   <path d="M 0 345.6 
L 460.8 345.6 
L 460.8 0 
L 0 0 
z
" style="fill:#ffffff;"/>
  </g>
  <g id="axes_1">
   <g id="patch_2">
    <path d="M 57.6 307.584 
L 414.72 307.584 
L 414.72 41.472 
L 57.6 41.472 
z
" style="fill:#ffffff;"/>
   </g>
   <g id="matplotlib.axis_1">
    <g id="xtick_1">
     <g id="line2d_1">
      <defs>
       <path d="M 0 0 
L 0 3.5 
" id="m5face60ed2" style="stroke:#000000;stroke-width:0.8;"/>
      </defs>
      <g>
       <use style="stroke:#000000;stroke-width:0.8;" x="73.832727" xlink:href="#m5face60ed2" y="307.584"/>
      </g>
     </g>
     <g id="text_1">
      <!-- 0.0 -->
      <defs>
       <path d="M 31.78125 66.40625 
Q 24.171875 66.40625 20.328125 58.90625 
Q 16.5 51.421875 16.5 36.375 
Q 16.5 21.390625 20.328125 13.890625 
Q 24.171875 6.390625 31.78125 6.390625 
Q 39.453125 6.390625 43.28125 13.890625 
Q 47.125 21.390625 47.125 36.375 
Q 47.125 51.421875 43.28125 58.90625 
Q 39.453125 66.40625 31.78125 66.40625 
z
M 31.78125 74.21875 
Q 44.046875 74.21875 50.515625 64.515625 
Q 56.984375 54.828125 56.984375 36.375 
Q 56.984375 17.96875 50.515625 8.265625 
Q 44.046875 -1.421875 31.78125 -1.421875 
Q 19.53125 -1.421875 13.0625 8.265625 
Q 6.59375 17.96875 6.59375 36.375 
Q 6.59375 54.828125 13.0625 64.515625 
Q 19.53125 74.21875 31.78125 74.21875 
z
" id="DejaVuSans-48"/>
       <path d="M 10.6875 12.40625 
L 21 12.40625 
L 21 0 
L 10.6875 0 
z
" id="DejaVuSans-46"/>
      </defs>
      <g transform="translate(65.881165 322.182437)scale(0.1 -0.1)">
       <use xlink:href="#DejaVuSans-48"/>
       <use x="63.623047" xlink:href="#DejaVuSans-46"/>
       <use x="95.410156" xlink:href="#DejaVuSans-48"/>
      </g>
     </g>
    </g>
    <g id="xtick_2">
     <g id="line2d_2">
      <g>
       <use style="stroke:#000000;stroke-width:0.8;" x="138.763636" xlink:href="#m5face60ed2" y="307.584"/>
      </g>
     </g>
     <g id="text_2">
      <!-- 0.2 -->
      <defs>
       <path d="M 19.1875 8.296875 
L 53.609375 8.296875 
L 53.609375 0 
L 7.328125 0 
L 7.328125 8.296875 
Q 12.9375 14.109375 22.625 23.890625 
Q 32.328125 33.6875 34.8125 36.53125 
Q 39.546875 41.84375 41.421875 45.53125 
Q 43.3125 49.21875 43.3125 52.78125 
Q 43.3125 58.59375 39.234375 62.25 
Q 35.15625 65.921875 28.609375 65.921875 
Q 23.96875 65.921875 18.8125 64.3125 
Q 13.671875 62.703125 7.8125 59.421875 
L 7.8125 69.390625 
Q 13.765625 71.78125 18.9375 73 
Q 24.125 74.21875 28.421875 74.21875 
Q 39.75 74.21875 46.484375 68.546875 
Q 53.21875 62.890625 53.21875 53.421875 
Q 53.21875 48.921875 51.53125 44.890625 
Q 49.859375 40.875 45.40625 35.40625 
Q 44.1875 33.984375 37.640625 27.21875 
Q 31.109375 20.453125 19.1875 8.296875 
z
" id="DejaVuSans-50"/>
      </defs>
      <g transform="translate(130.812074 322.182437)scale(0.1 -0.1)">
       <use xlink:href="#DejaVuSans-48"/>
       <use x="63.623047" xlink:href="#DejaVuSans-46"/>
       <use x="95.410156" xlink:href="#DejaVuSans-50"/>
      </g>
     </g>
    </g>
    <g id="xtick_3">
     <g id="line2d_3">
      <g>
       <use style="stroke:#000000;stroke-width:0.8;" x="203.694545" xlink:href="#m5face60ed2" y="307.584"/>
      </g>
     </g>
     <g id="text_3">
      <!-- 0.4 -->
      <defs>
       <path d="M 37.796875 64.3125 
L 12.890625 25.390625 
L 37.796875 25.390625 
z
M 35.203125 72.90625 
L 47.609375 72.90625 
L 47.609375 25.390625 
L 58.015625 25.390625 
L 58.015625 17.1875 
L 47.609375 17.1875 
L 47.609375 0 
L 37.796875 0 
L 37.796875 17.1875 
L 4.890625 17.1875 
L 4.890625 26.703125 
z
" id="DejaVuSans-52"/>
      </defs>
      <g transform="translate(195.742983 322.182437)scale(0.1 -0.1)">
       <use xlink:href="#DejaVuSans-48"/>
       <use x="63.623047" xlink:href="#DejaVuSans-46"/>
       <use x="95.410156" xlink:href="#DejaVuSans-52"/>
      </g>
     </g>
    </g>
    <g id="xtick_4">
     <g id="line2d_4">
      <g>
       <use style="stroke:#000000;stroke-width:0.8;" x="268.625455" xlink:href="#m5face60ed2" y="307.584"/>
      </g>
     </g>
     <g id="text_4">
      <!-- 0.6 -->
      <defs>
       <path d="M 33.015625 40.375 
Q 26.375 40.375 22.484375 35.828125 
Q 18.609375 31.296875 18.609375 23.390625 
Q 18.609375 15.53125 22.484375 10.953125 
Q 26.375 6.390625 33.015625 6.390625 
Q 39.65625 6.390625 43.53125 10.953125 
Q 47.40625 15.53125 47.40625 23.390625 
Q 47.40625 31.296875 43.53125 35.828125 
Q 39.65625 40.375 33.015625 40.375 
z
M 52.59375 71.296875 
L 52.59375 62.3125 
Q 48.875 64.0625 45.09375 64.984375 
Q 41.3125 65.921875 37.59375 65.921875 
Q 27.828125 65.921875 22.671875 59.328125 
Q 17.53125 52.734375 16.796875 39.40625 
Q 19.671875 43.65625 24.015625 45.921875 
Q 28.375 48.1875 33.59375 48.1875 
Q 44.578125 48.1875 50.953125 41.515625 
Q 57.328125 34.859375 57.328125 23.390625 
Q 57.328125 12.15625 50.6875 5.359375 
Q 44.046875 -1.421875 33.015625 -1.421875 
Q 20.359375 -1.421875 13.671875 8.265625 
Q 6.984375 17.96875 6.984375 36.375 
Q 6.984375 53.65625 15.1875 63.9375 
Q 23.390625 74.21875 37.203125 74.21875 
Q 40.921875 74.21875 44.703125 73.484375 
Q 48.484375 72.75 52.59375 71.296875 
z
" id="DejaVuSans-54"/>
      </defs>
      <g transform="translate(260.673892 322.182437)scale(0.1 -0.1)">
       <use xlink:href="#DejaVuSans-48"/>
       <use x="63.623047" xlink:href="#DejaVuSans-46"/>
       <use x="95.410156" xlink:href="#DejaVuSans-54"/>
      </g>
     </g>
    </g>
    <g id="xtick_5">
     <g id="line2d_5">
      <g>
       <use style="stroke:#000000;stroke-width:0.8;" x="333.556364" xlink:href="#m5face60ed2" y="307.584"/>
      </g>
     </g>
     <g id="text_5">
      <!-- 0.8 -->
      <defs>
       <path d="M 31.78125 34.625 
Q 24.75 34.625 20.71875 30.859375 
Q 16.703125 27.09375 16.703125 20.515625 
Q 16.703125 13.921875 20.71875 10.15625 
Q 24.75 6.390625 31.78125 6.390625 
Q 38.8125 6.390625 42.859375 10.171875 
Q 46.921875 13.96875 46.921875 20.515625 
Q 46.921875 27.09375 42.890625 30.859375 
Q 38.875 34.625 31.78125 34.625 
z
M 21.921875 38.8125 
Q 15.578125 40.375 12.03125 44.71875 
Q 8.5 49.078125 8.5 55.328125 
Q 8.5 64.0625 14.71875 69.140625 
Q 20.953125 74.21875 31.78125 74.21875 
Q 42.671875 74.21875 48.875 69.140625 
Q 55.078125 64.0625 55.078125 55.328125 
Q 55.078125 49.078125 51.53125 44.71875 
Q 48 40.375 41.703125 38.8125 
Q 48.828125 37.15625 52.796875 32.3125 
Q 56.78125 27.484375 56.78125 20.515625 
Q 56.78125 9.90625 50.3125 4.234375 
Q 43.84375 -1.421875 31.78125 -1.421875 
Q 19.734375 -1.421875 13.25 4.234375 
Q 6.78125 9.90625 6.78125 20.515625 
Q 6.78125 27.484375 10.78125 32.3125 
Q 14.796875 37.15625 21.921875 38.8125 
z
M 18.3125 54.390625 
Q 18.3125 48.734375 21.84375 45.5625 
Q 25.390625 42.390625 31.78125 42.390625 
Q 38.140625 42.390625 41.71875 45.5625 
Q 45.3125 48.734375 45.3125 54.390625 
Q 45.3125 60.0625 41.71875 63.234375 
Q 38.140625 66.40625 31.78125 66.40625 
Q 25.390625 66.40625 21.84375 63.234375 
Q 18.3125 60.0625 18.3125 54.390625 
z
" id="DejaVuSans-56"/>
      </defs>
      <g transform="translate(325.604801 322.182437)scale(0.1 -0.1)">
       <use xlink:href="#DejaVuSans-48"/>
       <use x="63.623047" xlink:href="#DejaVuSans-46"/>
       <use x="95.410156" xlink:href="#DejaVuSans-56"/>
      </g>
     </g>
    </g>
    <g id="xtick_6">
     <g id="line2d_6">
      <g>
       <use style="stroke:#000000;stroke-width:0.8;" x="398.487273" xlink:href="#m5face60ed2" y="307.584"/>
      </g>
     </g>
     <g id="text_6">
      <!-- 1.0 -->
      <defs>
       <path d="M 12.40625 8.296875 
L 28.515625 8.296875 
L 28.515625 63.921875 
L 10.984375 60.40625 
L 10.984375 69.390625 
L 28.421875 72.90625 
L 38.28125 72.90625 
L 38.28125 8.296875 
L 54.390625 8.296875 
L 54.390625 0 
L 12.40625 0 
z
" id="DejaVuSans-49"/>
      </defs>
      <g transform="translate(390.53571 322.182437)scale(0.1 -0.1)">
       <use xlink:href="#DejaVuSans-49"/>
       <use x="63.623047" xlink:href="#DejaVuSans-46"/>
       <use x="95.410156" xlink:href="#DejaVuSans-48"/>
      </g>
     </g>
    </g>
   </g>
   <g id="matplotlib.axis_2">
    <g id="ytick_1">
     <g id="line2d_7">
      <defs>
       <path d="M 0 0 
L -3.5 0 
" id="m28557fc4a9" style="stroke:#000000;stroke-width:0.8;"/>
      </defs>
      <g>
       <use style="stroke:#000000;stroke-width:0.8;" x="57.6" xlink:href="#m28557fc4a9" y="295.488"/>
      </g>
     </g>
     <g id="text_7">
      <!-- 0.0 -->
      <g transform="translate(34.696875 299.287219)scale(0.1 -0.1)">
       <use xlink:href="#DejaVuSans-48"/>
       <use x="63.623047" xlink:href="#DejaVuSans-46"/>
       <use x="95.410156" xlink:href="#DejaVuSans-48"/>
      </g>
     </g>
    </g>
    <g id="ytick_2">
     <g id="line2d_8">
      <g>
       <use style="stroke:#000000;stroke-width:0.8;" x="57.6" xlink:href="#m28557fc4a9" y="247.104"/>
      </g>
     </g>
     <g id="text_8">
      <!-- 0.2 -->
      <g transform="translate(34.696875 250.903219)scale(0.1 -0.1)">
       <use xlink:href="#DejaVuSans-48"/>
       <use x="63.623047" xlink:href="#DejaVuSans-46"/>
       <use x="95.410156" xlink:href="#DejaVuSans-50"/>
      </g>
     </g>
    </g>
    <g id="ytick_3">
     <g id="line2d_9">
      <g>
       <use style="stroke:#000000;stroke-width:0.8;" x="57.6" xlink:href="#m28557fc4a9" y="198.72"/>
      </g>
     </g>
     <g id="text_9">
      <!-- 0.4 -->
      <g transform="translate(34.696875 202.519219)scale(0.1 -0.1)">
       <use xlink:href="#DejaVuSans-48"/>
       <use x="63.623047" xlink:href="#DejaVuSans-46"/>
       <use x="95.410156" xlink:href="#DejaVuSans-52"/>
      </g>
     </g>
    </g>
    <g id="ytick_4">
     <g id="line2d_10">
      <g>
       <use style="stroke:#000000;stroke-width:0.8;" x="57.6" xlink:href="#m28557fc4a9" y="150.336"/>
      </g>
     </g>
     <g id="text_10">
      <!-- 0.6 -->
      <g transform="translate(34.696875 154.135219)scale(0.1 -0.1)">
       <use xlink:href="#DejaVuSans-48"/>
       <use x="63.623047" xlink:href="#DejaVuSans-46"/>
       <use x="95.410156" xlink:href="#DejaVuSans-54"/>
      </g>
     </g>
    </g>
    <g id="ytick_5">
     <g id="line2d_11">
      <g>
       <use style="stroke:#000000;stroke-width:0.8;" x="57.6" xlink:href="#m28557fc4a9" y="101.952"/>
      </g>
     </g>
     <g id="text_11">
      <!-- 0.8 -->
      <g transform="translate(34.696875 105.751219)scale(0.1 -0.1)">
       <use xlink:href="#DejaVuSans-48"/>
       <use x="63.623047" xlink:href="#DejaVuSans-46"/>
       <use x="95.410156" xlink:href="#DejaVuSans-56"/>
      </g>
     </g>
    </g>
    <g id="ytick_6">
     <g id="line2d_12">
      <g>
       <use style="stroke:#000000;stroke-width:0.8;" x="57.6" xlink:href="#m28557fc4a9" y="53.568"/>
      </g>
     </g>
     <g id="text_12">
      <!-- 1.0 -->
      <g transform="translate(34.696875 57.367219)scale(0.1 -0.1)">
       <use xlink:href="#DejaVuSans-49"/>
       <use x="63.623047" xlink:href="#DejaVuSans-46"/>
       <use x="95.410156" xlink:href="#DejaVuSans-48"/>
      </g>
     </g>
    </g>
   </g>
   <g id="line2d_13">
    <path clip-path="url(#p997bd48f30)" d="M 73.832727 295.488 
L 77.948791 212.806481 
L 153.324213 185.245975 
L 211.978124 107.157873 
L 320.539311 96.439899 
L 351.152537 56.630278 
L 398.487273 53.568 
" style="fill:none;stroke:#1f77b4;stroke-dasharray:5.55,2.4;stroke-dashoffset:0;stroke-width:1.5;"/>
   </g>
   <g id="line2d_14">
    <path clip-path="url(#p997bd48f30)" d="M 73.832727 295.488 
L 74.089981 295.488 
L 74.604489 295.488 
L 74.604489 275.58319 
L 74.861743 275.58319 
L 74.861743 269.458633 
L 75.376251 269.458633 
L 75.376251 240.366987 
L 75.633505 240.366987 
L 75.633505 220.462177 
L 75.890759 220.462177 
L 75.890759 218.931038 
L 76.148013 218.931038 
L 76.148013 214.33762 
L 76.662521 214.33762 
L 76.662521 212.806481 
L 76.919775 212.806481 
L 76.919775 211.275342 
L 84.380141 211.275342 
L 84.380141 209.744203 
L 91.583253 209.744203 
L 91.583253 208.213063 
L 97.242841 208.213063 
L 97.242841 206.681924 
L 97.500095 206.681924 
L 97.500095 205.150785 
L 101.873413 205.150785 
L 101.873413 203.619646 
L 103.159683 203.619646 
L 103.159683 202.088506 
L 103.931445 202.088506 
L 103.931445 200.557367 
L 114.478859 200.557367 
L 114.478859 199.026228 
L 114.993367 199.026228 
L 114.993367 191.370532 
L 116.022383 191.370532 
L 116.022383 189.839392 
L 127.341559 189.839392 
L 127.341559 188.308253 
L 129.656845 188.308253 
L 129.656845 177.590278 
L 129.914099 177.590278 
L 129.914099 174.528 
L 132.743893 174.528 
L 132.743893 171.465722 
L 140.204259 171.465722 
L 140.204259 169.934582 
L 140.718767 169.934582 
L 140.718767 168.403443 
L 143.291307 168.403443 
L 143.291307 166.872304 
L 147.150117 166.872304 
L 147.150117 165.341165 
L 148.179133 165.341165 
L 148.179133 163.810025 
L 148.436387 163.810025 
L 148.436387 153.092051 
L 148.950895 153.092051 
L 148.950895 148.498633 
L 158.983801 148.498633 
L 158.983801 146.967494 
L 166.958675 146.967494 
L 166.958675 145.436354 
L 167.215929 145.436354 
L 167.215929 143.905215 
L 169.788469 143.905215 
L 169.788469 142.374076 
L 170.302977 142.374076 
L 170.302977 140.842937 
L 182.908422 140.842937 
L 182.908422 139.311797 
L 190.368788 139.311797 
L 190.368788 131.656101 
L 193.970344 131.656101 
L 193.970344 130.124962 
L 195.513868 130.124962 
L 195.513868 128.593823 
L 208.119314 128.593823 
L 208.119314 127.062684 
L 208.891076 127.062684 
L 208.891076 124.000405 
L 209.405584 124.000405 
L 209.405584 97.971038 
L 209.662838 97.971038 
L 209.662838 87.253063 
L 211.206362 87.253063 
L 211.206362 85.721924 
L 211.463616 85.721924 
L 211.463616 81.128506 
L 233.072952 81.128506 
L 233.072952 79.597367 
L 284.523752 79.597367 
L 284.523752 78.066228 
L 326.456153 78.066228 
L 326.456153 76.535089 
L 327.227915 76.535089 
L 327.227915 73.47281 
L 358.870157 73.47281 
L 358.870157 71.941671 
L 371.732857 71.941671 
L 371.732857 70.410532 
L 378.935969 70.410532 
L 378.935969 68.879392 
L 386.653589 68.879392 
L 386.653589 62.754835 
L 387.168097 62.754835 
L 387.168097 61.223696 
L 397.458257 61.223696 
L 397.458257 58.161418 
L 398.487273 58.161418 
L 398.487273 53.568 
" style="fill:none;stroke:#ff7f0e;stroke-linecap:square;stroke-width:1.5;"/>
    <defs>
     <path d="M 0 1.5 
C 0.397805 1.5 0.77937 1.341951 1.06066 1.06066 
C 1.341951 0.77937 1.5 0.397805 1.5 0 
C 1.5 -0.397805 1.341951 -0.77937 1.06066 -1.06066 
C 0.77937 -1.341951 0.397805 -1.5 0 -1.5 
C -0.397805 -1.5 -0.77937 -1.341951 -1.06066 -1.06066 
C -1.341951 -0.77937 -1.5 -0.397805 -1.5 0 
C -1.5 0.397805 -1.341951 0.77937 -1.06066 1.06066 
C -0.77937 1.341951 -0.397805 1.5 0 1.5 
z
" id="mc49c567586" style="stroke:#ff7f0e;"/>
    </defs>
    <g clip-path="url(#p997bd48f30)">
     <use style="fill:#ff7f0e;stroke:#ff7f0e;" x="73.832727" xlink:href="#mc49c567586" y="295.488"/>
     <use style="fill:#ff7f0e;stroke:#ff7f0e;" x="74.089981" xlink:href="#mc49c567586" y="295.488"/>
     <use style="fill:#ff7f0e;stroke:#ff7f0e;" x="74.604489" xlink:href="#mc49c567586" y="295.488"/>
     <use style="fill:#ff7f0e;stroke:#ff7f0e;" x="74.604489" xlink:href="#mc49c567586" y="275.58319"/>
     <use style="fill:#ff7f0e;stroke:#ff7f0e;" x="74.861743" xlink:href="#mc49c567586" y="275.58319"/>
     <use style="fill:#ff7f0e;stroke:#ff7f0e;" x="74.861743" xlink:href="#mc49c567586" y="269.458633"/>
     <use style="fill:#ff7f0e;stroke:#ff7f0e;" x="75.376251" xlink:href="#mc49c567586" y="269.458633"/>
     <use style="fill:#ff7f0e;stroke:#ff7f0e;" x="75.376251" xlink:href="#mc49c567586" y="240.366987"/>
     <use style="fill:#ff7f0e;stroke:#ff7f0e;" x="75.633505" xlink:href="#mc49c567586" y="240.366987"/>
     <use style="fill:#ff7f0e;stroke:#ff7f0e;" x="75.633505" xlink:href="#mc49c567586" y="220.462177"/>
     <use style="fill:#ff7f0e;stroke:#ff7f0e;" x="75.890759" xlink:href="#mc49c567586" y="220.462177"/>
     <use style="fill:#ff7f0e;stroke:#ff7f0e;" x="75.890759" xlink:href="#mc49c567586" y="218.931038"/>
     <use style="fill:#ff7f0e;stroke:#ff7f0e;" x="76.148013" xlink:href="#mc49c567586" y="218.931038"/>
     <use style="fill:#ff7f0e;stroke:#ff7f0e;" x="76.148013" xlink:href="#mc49c567586" y="214.33762"/>
     <use style="fill:#ff7f0e;stroke:#ff7f0e;" x="76.662521" xlink:href="#mc49c567586" y="214.33762"/>
     <use style="fill:#ff7f0e;stroke:#ff7f0e;" x="76.662521" xlink:href="#mc49c567586" y="212.806481"/>
     <use style="fill:#ff7f0e;stroke:#ff7f0e;" x="76.919775" xlink:href="#mc49c567586" y="212.806481"/>
     <use style="fill:#ff7f0e;stroke:#ff7f0e;" x="76.919775" xlink:href="#mc49c567586" y="211.275342"/>
     <use style="fill:#ff7f0e;stroke:#ff7f0e;" x="84.380141" xlink:href="#mc49c567586" y="211.275342"/>
     <use style="fill:#ff7f0e;stroke:#ff7f0e;" x="84.380141" xlink:href="#mc49c567586" y="209.744203"/>
     <use style="fill:#ff7f0e;stroke:#ff7f0e;" x="91.583253" xlink:href="#mc49c567586" y="209.744203"/>
     <use style="fill:#ff7f0e;stroke:#ff7f0e;" x="91.583253" xlink:href="#mc49c567586" y="208.213063"/>
     <use style="fill:#ff7f0e;stroke:#ff7f0e;" x="97.242841" xlink:href="#mc49c567586" y="208.213063"/>
     <use style="fill:#ff7f0e;stroke:#ff7f0e;" x="97.242841" xlink:href="#mc49c567586" y="206.681924"/>
     <use style="fill:#ff7f0e;stroke:#ff7f0e;" x="97.500095" xlink:href="#mc49c567586" y="206.681924"/>
     <use style="fill:#ff7f0e;stroke:#ff7f0e;" x="97.500095" xlink:href="#mc49c567586" y="205.150785"/>
     <use style="fill:#ff7f0e;stroke:#ff7f0e;" x="101.873413" xlink:href="#mc49c567586" y="205.150785"/>
     <use style="fill:#ff7f0e;stroke:#ff7f0e;" x="101.873413" xlink:href="#mc49c567586" y="203.619646"/>
     <use style="fill:#ff7f0e;stroke:#ff7f0e;" x="103.159683" xlink:href="#mc49c567586" y="203.619646"/>
     <use style="fill:#ff7f0e;stroke:#ff7f0e;" x="103.159683" xlink:href="#mc49c567586" y="202.088506"/>
     <use style="fill:#ff7f0e;stroke:#ff7f0e;" x="103.931445" xlink:href="#mc49c567586" y="202.088506"/>
     <use style="fill:#ff7f0e;stroke:#ff7f0e;" x="103.931445" xlink:href="#mc49c567586" y="200.557367"/>
     <use style="fill:#ff7f0e;stroke:#ff7f0e;" x="114.478859" xlink:href="#mc49c567586" y="200.557367"/>
     <use style="fill:#ff7f0e;stroke:#ff7f0e;" x="114.478859" xlink:href="#mc49c567586" y="199.026228"/>
     <use style="fill:#ff7f0e;stroke:#ff7f0e;" x="114.993367" xlink:href="#mc49c567586" y="199.026228"/>
     <use style="fill:#ff7f0e;stroke:#ff7f0e;" x="114.993367" xlink:href="#mc49c567586" y="191.370532"/>
     <use style="fill:#ff7f0e;stroke:#ff7f0e;" x="116.022383" xlink:href="#mc49c567586" y="191.370532"/>
     <use style="fill:#ff7f0e;stroke:#ff7f0e;" x="116.022383" xlink:href="#mc49c567586" y="189.839392"/>
     <use style="fill:#ff7f0e;stroke:#ff7f0e;" x="127.341559" xlink:href="#mc49c567586" y="189.839392"/>
     <use style="fill:#ff7f0e;stroke:#ff7f0e;" x="127.341559" xlink:href="#mc49c567586" y="188.308253"/>
     <use style="fill:#ff7f0e;stroke:#ff7f0e;" x="129.656845" xlink:href="#mc49c567586" y="188.308253"/>
     <use style="fill:#ff7f0e;stroke:#ff7f0e;" x="129.656845" xlink:href="#mc49c567586" y="177.590278"/>
     <use style="fill:#ff7f0e;stroke:#ff7f0e;" x="129.914099" xlink:href="#mc49c567586" y="177.590278"/>
     <use style="fill:#ff7f0e;stroke:#ff7f0e;" x="129.914099" xlink:href="#mc49c567586" y="174.528"/>
     <use style="fill:#ff7f0e;stroke:#ff7f0e;" x="132.743893" xlink:href="#mc49c567586" y="174.528"/>
     <use style="fill:#ff7f0e;stroke:#ff7f0e;" x="132.743893" xlink:href="#mc49c567586" y="171.465722"/>
     <use style="fill:#ff7f0e;stroke:#ff7f0e;" x="140.204259" xlink:href="#mc49c567586" y="171.465722"/>
     <use style="fill:#ff7f0e;stroke:#ff7f0e;" x="140.204259" xlink:href="#mc49c567586" y="169.934582"/>
     <use style="fill:#ff7f0e;stroke:#ff7f0e;" x="140.718767" xlink:href="#mc49c567586" y="169.934582"/>
     <use style="fill:#ff7f0e;stroke:#ff7f0e;" x="140.718767" xlink:href="#mc49c567586" y="168.403443"/>
     <use style="fill:#ff7f0e;stroke:#ff7f0e;" x="143.291307" xlink:href="#mc49c567586" y="168.403443"/>
     <use style="fill:#ff7f0e;stroke:#ff7f0e;" x="143.291307" xlink:href="#mc49c567586" y="166.872304"/>
     <use style="fill:#ff7f0e;stroke:#ff7f0e;" x="147.150117" xlink:href="#mc49c567586" y="166.872304"/>
     <use style="fill:#ff7f0e;stroke:#ff7f0e;" x="147.150117" xlink:href="#mc49c567586" y="165.341165"/>
     <use style="fill:#ff7f0e;stroke:#ff7f0e;" x="148.179133" xlink:href="#mc49c567586" y="165.341165"/>
     <use style="fill:#ff7f0e;stroke:#ff7f0e;" x="148.179133" xlink:href="#mc49c567586" y="163.810025"/>
     <use style="fill:#ff7f0e;stroke:#ff7f0e;" x="148.436387" xlink:href="#mc49c567586" y="163.810025"/>
     <use style="fill:#ff7f0e;stroke:#ff7f0e;" x="148.436387" xlink:href="#mc49c567586" y="153.092051"/>
     <use style="fill:#ff7f0e;stroke:#ff7f0e;" x="148.950895" xlink:href="#mc49c567586" y="153.092051"/>
     <use style="fill:#ff7f0e;stroke:#ff7f0e;" x="148.950895" xlink:href="#mc49c567586" y="148.498633"/>
     <use style="fill:#ff7f0e;stroke:#ff7f0e;" x="158.983801" xlink:href="#mc49c567586" y="148.498633"/>
     <use style="fill:#ff7f0e;stroke:#ff7f0e;" x="158.983801" xlink:href="#mc49c567586" y="146.967494"/>
     <use style="fill:#ff7f0e;stroke:#ff7f0e;" x="166.958675" xlink:href="#mc49c567586" y="146.967494"/>
     <use style="fill:#ff7f0e;stroke:#ff7f0e;" x="166.958675" xlink:href="#mc49c567586" y="145.436354"/>
     <use style="fill:#ff7f0e;stroke:#ff7f0e;" x="167.215929" xlink:href="#mc49c567586" y="145.436354"/>
     <use style="fill:#ff7f0e;stroke:#ff7f0e;" x="167.215929" xlink:href="#mc49c567586" y="143.905215"/>
     <use style="fill:#ff7f0e;stroke:#ff7f0e;" x="169.788469" xlink:href="#mc49c567586" y="143.905215"/>
     <use style="fill:#ff7f0e;stroke:#ff7f0e;" x="169.788469" xlink:href="#mc49c567586" y="142.374076"/>
     <use style="fill:#ff7f0e;stroke:#ff7f0e;" x="170.302977" xlink:href="#mc49c567586" y="142.374076"/>
     <use style="fill:#ff7f0e;stroke:#ff7f0e;" x="170.302977" xlink:href="#mc49c567586" y="140.842937"/>
     <use style="fill:#ff7f0e;stroke:#ff7f0e;" x="182.908422" xlink:href="#mc49c567586" y="140.842937"/>
     <use style="fill:#ff7f0e;stroke:#ff7f0e;" x="182.908422" xlink:href="#mc49c567586" y="139.311797"/>
     <use style="fill:#ff7f0e;stroke:#ff7f0e;" x="190.368788" xlink:href="#mc49c567586" y="139.311797"/>
     <use style="fill:#ff7f0e;stroke:#ff7f0e;" x="190.368788" xlink:href="#mc49c567586" y="131.656101"/>
     <use style="fill:#ff7f0e;stroke:#ff7f0e;" x="193.970344" xlink:href="#mc49c567586" y="131.656101"/>
     <use style="fill:#ff7f0e;stroke:#ff7f0e;" x="193.970344" xlink:href="#mc49c567586" y="130.124962"/>
     <use style="fill:#ff7f0e;stroke:#ff7f0e;" x="195.513868" xlink:href="#mc49c567586" y="130.124962"/>
     <use style="fill:#ff7f0e;stroke:#ff7f0e;" x="195.513868" xlink:href="#mc49c567586" y="128.593823"/>
     <use style="fill:#ff7f0e;stroke:#ff7f0e;" x="208.119314" xlink:href="#mc49c567586" y="128.593823"/>
     <use style="fill:#ff7f0e;stroke:#ff7f0e;" x="208.119314" xlink:href="#mc49c567586" y="127.062684"/>
     <use style="fill:#ff7f0e;stroke:#ff7f0e;" x="208.891076" xlink:href="#mc49c567586" y="127.062684"/>
     <use style="fill:#ff7f0e;stroke:#ff7f0e;" x="208.891076" xlink:href="#mc49c567586" y="124.000405"/>
     <use style="fill:#ff7f0e;stroke:#ff7f0e;" x="209.405584" xlink:href="#mc49c567586" y="124.000405"/>
     <use style="fill:#ff7f0e;stroke:#ff7f0e;" x="209.405584" xlink:href="#mc49c567586" y="97.971038"/>
     <use style="fill:#ff7f0e;stroke:#ff7f0e;" x="209.662838" xlink:href="#mc49c567586" y="97.971038"/>
     <use style="fill:#ff7f0e;stroke:#ff7f0e;" x="209.662838" xlink:href="#mc49c567586" y="87.253063"/>
     <use style="fill:#ff7f0e;stroke:#ff7f0e;" x="211.206362" xlink:href="#mc49c567586" y="87.253063"/>
     <use style="fill:#ff7f0e;stroke:#ff7f0e;" x="211.206362" xlink:href="#mc49c567586" y="85.721924"/>
     <use style="fill:#ff7f0e;stroke:#ff7f0e;" x="211.463616" xlink:href="#mc49c567586" y="85.721924"/>
     <use style="fill:#ff7f0e;stroke:#ff7f0e;" x="211.463616" xlink:href="#mc49c567586" y="81.128506"/>
     <use style="fill:#ff7f0e;stroke:#ff7f0e;" x="233.072952" xlink:href="#mc49c567586" y="81.128506"/>
     <use style="fill:#ff7f0e;stroke:#ff7f0e;" x="233.072952" xlink:href="#mc49c567586" y="79.597367"/>
     <use style="fill:#ff7f0e;stroke:#ff7f0e;" x="284.523752" xlink:href="#mc49c567586" y="79.597367"/>
     <use style="fill:#ff7f0e;stroke:#ff7f0e;" x="284.523752" xlink:href="#mc49c567586" y="78.066228"/>
     <use style="fill:#ff7f0e;stroke:#ff7f0e;" x="326.456153" xlink:href="#mc49c567586" y="78.066228"/>
     <use style="fill:#ff7f0e;stroke:#ff7f0e;" x="326.456153" xlink:href="#mc49c567586" y="76.535089"/>
     <use style="fill:#ff7f0e;stroke:#ff7f0e;" x="327.227915" xlink:href="#mc49c567586" y="76.535089"/>
     <use style="fill:#ff7f0e;stroke:#ff7f0e;" x="327.227915" xlink:href="#mc49c567586" y="73.47281"/>
     <use style="fill:#ff7f0e;stroke:#ff7f0e;" x="358.870157" xlink:href="#mc49c567586" y="73.47281"/>
     <use style="fill:#ff7f0e;stroke:#ff7f0e;" x="358.870157" xlink:href="#mc49c567586" y="71.941671"/>
     <use style="fill:#ff7f0e;stroke:#ff7f0e;" x="371.732857" xlink:href="#mc49c567586" y="71.941671"/>
     <use style="fill:#ff7f0e;stroke:#ff7f0e;" x="371.732857" xlink:href="#mc49c567586" y="70.410532"/>
     <use style="fill:#ff7f0e;stroke:#ff7f0e;" x="378.935969" xlink:href="#mc49c567586" y="70.410532"/>
     <use style="fill:#ff7f0e;stroke:#ff7f0e;" x="378.935969" xlink:href="#mc49c567586" y="68.879392"/>
     <use style="fill:#ff7f0e;stroke:#ff7f0e;" x="386.653589" xlink:href="#mc49c567586" y="68.879392"/>
     <use style="fill:#ff7f0e;stroke:#ff7f0e;" x="386.653589" xlink:href="#mc49c567586" y="62.754835"/>
     <use style="fill:#ff7f0e;stroke:#ff7f0e;" x="387.168097" xlink:href="#mc49c567586" y="62.754835"/>
     <use style="fill:#ff7f0e;stroke:#ff7f0e;" x="387.168097" xlink:href="#mc49c567586" y="61.223696"/>
     <use style="fill:#ff7f0e;stroke:#ff7f0e;" x="397.458257" xlink:href="#mc49c567586" y="61.223696"/>
     <use style="fill:#ff7f0e;stroke:#ff7f0e;" x="397.458257" xlink:href="#mc49c567586" y="58.161418"/>
     <use style="fill:#ff7f0e;stroke:#ff7f0e;" x="398.487273" xlink:href="#mc49c567586" y="58.161418"/>
     <use style="fill:#ff7f0e;stroke:#ff7f0e;" x="398.487273" xlink:href="#mc49c567586" y="53.568"/>
    </g>
   </g>
   <g id="patch_3">
    <path d="M 57.6 307.584 
L 57.6 41.472 
" style="fill:none;stroke:#000000;stroke-linecap:square;stroke-linejoin:miter;stroke-width:0.8;"/>
   </g>
   <g id="patch_4">
    <path d="M 414.72 307.584 
L 414.72 41.472 
" style="fill:none;stroke:#000000;stroke-linecap:square;stroke-linejoin:miter;stroke-width:0.8;"/>
   </g>
   <g id="patch_5">
    <path d="M 57.6 307.584 
L 414.72 307.584 
" style="fill:none;stroke:#000000;stroke-linecap:square;stroke-linejoin:miter;stroke-width:0.8;"/>
   </g>
   <g id="patch_6">
    <path d="M 57.6 41.472 
L 414.72 41.472 
" style="fill:none;stroke:#000000;stroke-linecap:square;stroke-linejoin:miter;stroke-width:0.8;"/>
   </g>
   <g id="text_13">
    <!-- ROC Curve for Real data with Logistic Regression with  -->
    <defs>
     <path d="M 44.390625 34.1875 
Q 47.5625 33.109375 50.5625 29.59375 
Q 53.5625 26.078125 56.59375 19.921875 
L 66.609375 0 
L 56 0 
L 46.6875 18.703125 
Q 43.0625 26.03125 39.671875 28.421875 
Q 36.28125 30.8125 30.421875 30.8125 
L 19.671875 30.8125 
L 19.671875 0 
L 9.8125 0 
L 9.8125 72.90625 
L 32.078125 72.90625 
Q 44.578125 72.90625 50.734375 67.671875 
Q 56.890625 62.453125 56.890625 51.90625 
Q 56.890625 45.015625 53.6875 40.46875 
Q 50.484375 35.9375 44.390625 34.1875 
z
M 19.671875 64.796875 
L 19.671875 38.921875 
L 32.078125 38.921875 
Q 39.203125 38.921875 42.84375 42.21875 
Q 46.484375 45.515625 46.484375 51.90625 
Q 46.484375 58.296875 42.84375 61.546875 
Q 39.203125 64.796875 32.078125 64.796875 
z
" id="DejaVuSans-82"/>
     <path d="M 39.40625 66.21875 
Q 28.65625 66.21875 22.328125 58.203125 
Q 16.015625 50.203125 16.015625 36.375 
Q 16.015625 22.609375 22.328125 14.59375 
Q 28.65625 6.59375 39.40625 6.59375 
Q 50.140625 6.59375 56.421875 14.59375 
Q 62.703125 22.609375 62.703125 36.375 
Q 62.703125 50.203125 56.421875 58.203125 
Q 50.140625 66.21875 39.40625 66.21875 
z
M 39.40625 74.21875 
Q 54.734375 74.21875 63.90625 63.9375 
Q 73.09375 53.65625 73.09375 36.375 
Q 73.09375 19.140625 63.90625 8.859375 
Q 54.734375 -1.421875 39.40625 -1.421875 
Q 24.03125 -1.421875 14.8125 8.828125 
Q 5.609375 19.09375 5.609375 36.375 
Q 5.609375 53.65625 14.8125 63.9375 
Q 24.03125 74.21875 39.40625 74.21875 
z
" id="DejaVuSans-79"/>
     <path d="M 64.40625 67.28125 
L 64.40625 56.890625 
Q 59.421875 61.53125 53.78125 63.8125 
Q 48.140625 66.109375 41.796875 66.109375 
Q 29.296875 66.109375 22.65625 58.46875 
Q 16.015625 50.828125 16.015625 36.375 
Q 16.015625 21.96875 22.65625 14.328125 
Q 29.296875 6.6875 41.796875 6.6875 
Q 48.140625 6.6875 53.78125 8.984375 
Q 59.421875 11.28125 64.40625 15.921875 
L 64.40625 5.609375 
Q 59.234375 2.09375 53.4375 0.328125 
Q 47.65625 -1.421875 41.21875 -1.421875 
Q 24.65625 -1.421875 15.125 8.703125 
Q 5.609375 18.84375 5.609375 36.375 
Q 5.609375 53.953125 15.125 64.078125 
Q 24.65625 74.21875 41.21875 74.21875 
Q 47.75 74.21875 53.53125 72.484375 
Q 59.328125 70.75 64.40625 67.28125 
z
" id="DejaVuSans-67"/>
     <path id="DejaVuSans-32"/>
     <path d="M 8.5 21.578125 
L 8.5 54.6875 
L 17.484375 54.6875 
L 17.484375 21.921875 
Q 17.484375 14.15625 20.5 10.265625 
Q 23.53125 6.390625 29.59375 6.390625 
Q 36.859375 6.390625 41.078125 11.03125 
Q 45.3125 15.671875 45.3125 23.6875 
L 45.3125 54.6875 
L 54.296875 54.6875 
L 54.296875 0 
L 45.3125 0 
L 45.3125 8.40625 
Q 42.046875 3.421875 37.71875 1 
Q 33.40625 -1.421875 27.6875 -1.421875 
Q 18.265625 -1.421875 13.375 4.4375 
Q 8.5 10.296875 8.5 21.578125 
z
M 31.109375 56 
z
" id="DejaVuSans-117"/>
     <path d="M 41.109375 46.296875 
Q 39.59375 47.171875 37.8125 47.578125 
Q 36.03125 48 33.890625 48 
Q 26.265625 48 22.1875 43.046875 
Q 18.109375 38.09375 18.109375 28.8125 
L 18.109375 0 
L 9.078125 0 
L 9.078125 54.6875 
L 18.109375 54.6875 
L 18.109375 46.1875 
Q 20.953125 51.171875 25.484375 53.578125 
Q 30.03125 56 36.53125 56 
Q 37.453125 56 38.578125 55.875 
Q 39.703125 55.765625 41.0625 55.515625 
z
" id="DejaVuSans-114"/>
     <path d="M 2.984375 54.6875 
L 12.5 54.6875 
L 29.59375 8.796875 
L 46.6875 54.6875 
L 56.203125 54.6875 
L 35.6875 0 
L 23.484375 0 
z
" id="DejaVuSans-118"/>
     <path d="M 56.203125 29.59375 
L 56.203125 25.203125 
L 14.890625 25.203125 
Q 15.484375 15.921875 20.484375 11.0625 
Q 25.484375 6.203125 34.421875 6.203125 
Q 39.59375 6.203125 44.453125 7.46875 
Q 49.3125 8.734375 54.109375 11.28125 
L 54.109375 2.78125 
Q 49.265625 0.734375 44.1875 -0.34375 
Q 39.109375 -1.421875 33.890625 -1.421875 
Q 20.796875 -1.421875 13.15625 6.1875 
Q 5.515625 13.8125 5.515625 26.8125 
Q 5.515625 40.234375 12.765625 48.109375 
Q 20.015625 56 32.328125 56 
Q 43.359375 56 49.78125 48.890625 
Q 56.203125 41.796875 56.203125 29.59375 
z
M 47.21875 32.234375 
Q 47.125 39.59375 43.09375 43.984375 
Q 39.0625 48.390625 32.421875 48.390625 
Q 24.90625 48.390625 20.390625 44.140625 
Q 15.875 39.890625 15.1875 32.171875 
z
" id="DejaVuSans-101"/>
     <path d="M 37.109375 75.984375 
L 37.109375 68.5 
L 28.515625 68.5 
Q 23.6875 68.5 21.796875 66.546875 
Q 19.921875 64.59375 19.921875 59.515625 
L 19.921875 54.6875 
L 34.71875 54.6875 
L 34.71875 47.703125 
L 19.921875 47.703125 
L 19.921875 0 
L 10.890625 0 
L 10.890625 47.703125 
L 2.296875 47.703125 
L 2.296875 54.6875 
L 10.890625 54.6875 
L 10.890625 58.5 
Q 10.890625 67.625 15.140625 71.796875 
Q 19.390625 75.984375 28.609375 75.984375 
z
" id="DejaVuSans-102"/>
     <path d="M 30.609375 48.390625 
Q 23.390625 48.390625 19.1875 42.75 
Q 14.984375 37.109375 14.984375 27.296875 
Q 14.984375 17.484375 19.15625 11.84375 
Q 23.34375 6.203125 30.609375 6.203125 
Q 37.796875 6.203125 41.984375 11.859375 
Q 46.1875 17.53125 46.1875 27.296875 
Q 46.1875 37.015625 41.984375 42.703125 
Q 37.796875 48.390625 30.609375 48.390625 
z
M 30.609375 56 
Q 42.328125 56 49.015625 48.375 
Q 55.71875 40.765625 55.71875 27.296875 
Q 55.71875 13.875 49.015625 6.21875 
Q 42.328125 -1.421875 30.609375 -1.421875 
Q 18.84375 -1.421875 12.171875 6.21875 
Q 5.515625 13.875 5.515625 27.296875 
Q 5.515625 40.765625 12.171875 48.375 
Q 18.84375 56 30.609375 56 
z
" id="DejaVuSans-111"/>
     <path d="M 34.28125 27.484375 
Q 23.390625 27.484375 19.1875 25 
Q 14.984375 22.515625 14.984375 16.5 
Q 14.984375 11.71875 18.140625 8.90625 
Q 21.296875 6.109375 26.703125 6.109375 
Q 34.1875 6.109375 38.703125 11.40625 
Q 43.21875 16.703125 43.21875 25.484375 
L 43.21875 27.484375 
z
M 52.203125 31.203125 
L 52.203125 0 
L 43.21875 0 
L 43.21875 8.296875 
Q 40.140625 3.328125 35.546875 0.953125 
Q 30.953125 -1.421875 24.3125 -1.421875 
Q 15.921875 -1.421875 10.953125 3.296875 
Q 6 8.015625 6 15.921875 
Q 6 25.140625 12.171875 29.828125 
Q 18.359375 34.515625 30.609375 34.515625 
L 43.21875 34.515625 
L 43.21875 35.40625 
Q 43.21875 41.609375 39.140625 45 
Q 35.0625 48.390625 27.6875 48.390625 
Q 23 48.390625 18.546875 47.265625 
Q 14.109375 46.140625 10.015625 43.890625 
L 10.015625 52.203125 
Q 14.9375 54.109375 19.578125 55.046875 
Q 24.21875 56 28.609375 56 
Q 40.484375 56 46.34375 49.84375 
Q 52.203125 43.703125 52.203125 31.203125 
z
" id="DejaVuSans-97"/>
     <path d="M 9.421875 75.984375 
L 18.40625 75.984375 
L 18.40625 0 
L 9.421875 0 
z
" id="DejaVuSans-108"/>
     <path d="M 45.40625 46.390625 
L 45.40625 75.984375 
L 54.390625 75.984375 
L 54.390625 0 
L 45.40625 0 
L 45.40625 8.203125 
Q 42.578125 3.328125 38.25 0.953125 
Q 33.9375 -1.421875 27.875 -1.421875 
Q 17.96875 -1.421875 11.734375 6.484375 
Q 5.515625 14.40625 5.515625 27.296875 
Q 5.515625 40.1875 11.734375 48.09375 
Q 17.96875 56 27.875 56 
Q 33.9375 56 38.25 53.625 
Q 42.578125 51.265625 45.40625 46.390625 
z
M 14.796875 27.296875 
Q 14.796875 17.390625 18.875 11.75 
Q 22.953125 6.109375 30.078125 6.109375 
Q 37.203125 6.109375 41.296875 11.75 
Q 45.40625 17.390625 45.40625 27.296875 
Q 45.40625 37.203125 41.296875 42.84375 
Q 37.203125 48.484375 30.078125 48.484375 
Q 22.953125 48.484375 18.875 42.84375 
Q 14.796875 37.203125 14.796875 27.296875 
z
" id="DejaVuSans-100"/>
     <path d="M 18.3125 70.21875 
L 18.3125 54.6875 
L 36.8125 54.6875 
L 36.8125 47.703125 
L 18.3125 47.703125 
L 18.3125 18.015625 
Q 18.3125 11.328125 20.140625 9.421875 
Q 21.96875 7.515625 27.59375 7.515625 
L 36.8125 7.515625 
L 36.8125 0 
L 27.59375 0 
Q 17.1875 0 13.234375 3.875 
Q 9.28125 7.765625 9.28125 18.015625 
L 9.28125 47.703125 
L 2.6875 47.703125 
L 2.6875 54.6875 
L 9.28125 54.6875 
L 9.28125 70.21875 
z
" id="DejaVuSans-116"/>
     <path d="M 4.203125 54.6875 
L 13.1875 54.6875 
L 24.421875 12.015625 
L 35.59375 54.6875 
L 46.1875 54.6875 
L 57.421875 12.015625 
L 68.609375 54.6875 
L 77.59375 54.6875 
L 63.28125 0 
L 52.6875 0 
L 40.921875 44.828125 
L 29.109375 0 
L 18.5 0 
z
" id="DejaVuSans-119"/>
     <path d="M 9.421875 54.6875 
L 18.40625 54.6875 
L 18.40625 0 
L 9.421875 0 
z
M 9.421875 75.984375 
L 18.40625 75.984375 
L 18.40625 64.59375 
L 9.421875 64.59375 
z
" id="DejaVuSans-105"/>
     <path d="M 54.890625 33.015625 
L 54.890625 0 
L 45.90625 0 
L 45.90625 32.71875 
Q 45.90625 40.484375 42.875 44.328125 
Q 39.84375 48.1875 33.796875 48.1875 
Q 26.515625 48.1875 22.3125 43.546875 
Q 18.109375 38.921875 18.109375 30.90625 
L 18.109375 0 
L 9.078125 0 
L 9.078125 75.984375 
L 18.109375 75.984375 
L 18.109375 46.1875 
Q 21.34375 51.125 25.703125 53.5625 
Q 30.078125 56 35.796875 56 
Q 45.21875 56 50.046875 50.171875 
Q 54.890625 44.34375 54.890625 33.015625 
z
" id="DejaVuSans-104"/>
     <path d="M 9.8125 72.90625 
L 19.671875 72.90625 
L 19.671875 8.296875 
L 55.171875 8.296875 
L 55.171875 0 
L 9.8125 0 
z
" id="DejaVuSans-76"/>
     <path d="M 45.40625 27.984375 
Q 45.40625 37.75 41.375 43.109375 
Q 37.359375 48.484375 30.078125 48.484375 
Q 22.859375 48.484375 18.828125 43.109375 
Q 14.796875 37.75 14.796875 27.984375 
Q 14.796875 18.265625 18.828125 12.890625 
Q 22.859375 7.515625 30.078125 7.515625 
Q 37.359375 7.515625 41.375 12.890625 
Q 45.40625 18.265625 45.40625 27.984375 
z
M 54.390625 6.78125 
Q 54.390625 -7.171875 48.1875 -13.984375 
Q 42 -20.796875 29.203125 -20.796875 
Q 24.46875 -20.796875 20.265625 -20.09375 
Q 16.0625 -19.390625 12.109375 -17.921875 
L 12.109375 -9.1875 
Q 16.0625 -11.328125 19.921875 -12.34375 
Q 23.78125 -13.375 27.78125 -13.375 
Q 36.625 -13.375 41.015625 -8.765625 
Q 45.40625 -4.15625 45.40625 5.171875 
L 45.40625 9.625 
Q 42.625 4.78125 38.28125 2.390625 
Q 33.9375 0 27.875 0 
Q 17.828125 0 11.671875 7.65625 
Q 5.515625 15.328125 5.515625 27.984375 
Q 5.515625 40.671875 11.671875 48.328125 
Q 17.828125 56 27.875 56 
Q 33.9375 56 38.28125 53.609375 
Q 42.625 51.21875 45.40625 46.390625 
L 45.40625 54.6875 
L 54.390625 54.6875 
z
" id="DejaVuSans-103"/>
     <path d="M 44.28125 53.078125 
L 44.28125 44.578125 
Q 40.484375 46.53125 36.375 47.5 
Q 32.28125 48.484375 27.875 48.484375 
Q 21.1875 48.484375 17.84375 46.4375 
Q 14.5 44.390625 14.5 40.28125 
Q 14.5 37.15625 16.890625 35.375 
Q 19.28125 33.59375 26.515625 31.984375 
L 29.59375 31.296875 
Q 39.15625 29.25 43.1875 25.515625 
Q 47.21875 21.78125 47.21875 15.09375 
Q 47.21875 7.46875 41.1875 3.015625 
Q 35.15625 -1.421875 24.609375 -1.421875 
Q 20.21875 -1.421875 15.453125 -0.5625 
Q 10.6875 0.296875 5.421875 2 
L 5.421875 11.28125 
Q 10.40625 8.6875 15.234375 7.390625 
Q 20.0625 6.109375 24.8125 6.109375 
Q 31.15625 6.109375 34.5625 8.28125 
Q 37.984375 10.453125 37.984375 14.40625 
Q 37.984375 18.0625 35.515625 20.015625 
Q 33.0625 21.96875 24.703125 23.78125 
L 21.578125 24.515625 
Q 13.234375 26.265625 9.515625 29.90625 
Q 5.8125 33.546875 5.8125 39.890625 
Q 5.8125 47.609375 11.28125 51.796875 
Q 16.75 56 26.8125 56 
Q 31.78125 56 36.171875 55.265625 
Q 40.578125 54.546875 44.28125 53.078125 
z
" id="DejaVuSans-115"/>
     <path d="M 48.78125 52.59375 
L 48.78125 44.1875 
Q 44.96875 46.296875 41.140625 47.34375 
Q 37.3125 48.390625 33.40625 48.390625 
Q 24.65625 48.390625 19.8125 42.84375 
Q 14.984375 37.3125 14.984375 27.296875 
Q 14.984375 17.28125 19.8125 11.734375 
Q 24.65625 6.203125 33.40625 6.203125 
Q 37.3125 6.203125 41.140625 7.25 
Q 44.96875 8.296875 48.78125 10.40625 
L 48.78125 2.09375 
Q 45.015625 0.34375 40.984375 -0.53125 
Q 36.96875 -1.421875 32.421875 -1.421875 
Q 20.0625 -1.421875 12.78125 6.34375 
Q 5.515625 14.109375 5.515625 27.296875 
Q 5.515625 40.671875 12.859375 48.328125 
Q 20.21875 56 33.015625 56 
Q 37.15625 56 41.109375 55.140625 
Q 45.0625 54.296875 48.78125 52.59375 
z
" id="DejaVuSans-99"/>
     <path d="M 54.890625 33.015625 
L 54.890625 0 
L 45.90625 0 
L 45.90625 32.71875 
Q 45.90625 40.484375 42.875 44.328125 
Q 39.84375 48.1875 33.796875 48.1875 
Q 26.515625 48.1875 22.3125 43.546875 
Q 18.109375 38.921875 18.109375 30.90625 
L 18.109375 0 
L 9.078125 0 
L 9.078125 54.6875 
L 18.109375 54.6875 
L 18.109375 46.1875 
Q 21.34375 51.125 25.703125 53.5625 
Q 30.078125 56 35.796875 56 
Q 45.21875 56 50.046875 50.171875 
Q 54.890625 44.34375 54.890625 33.015625 
z
" id="DejaVuSans-110"/>
    </defs>
    <g transform="translate(72.413438 22.034625)scale(0.12 -0.12)">
     <use xlink:href="#DejaVuSans-82"/>
     <use x="69.482422" xlink:href="#DejaVuSans-79"/>
     <use x="148.193359" xlink:href="#DejaVuSans-67"/>
     <use x="218.017578" xlink:href="#DejaVuSans-32"/>
     <use x="249.804688" xlink:href="#DejaVuSans-67"/>
     <use x="319.628906" xlink:href="#DejaVuSans-117"/>
     <use x="383.007812" xlink:href="#DejaVuSans-114"/>
     <use x="424.121094" xlink:href="#DejaVuSans-118"/>
     <use x="483.300781" xlink:href="#DejaVuSans-101"/>
     <use x="544.824219" xlink:href="#DejaVuSans-32"/>
     <use x="576.611328" xlink:href="#DejaVuSans-102"/>
     <use x="611.816406" xlink:href="#DejaVuSans-111"/>
     <use x="672.998047" xlink:href="#DejaVuSans-114"/>
     <use x="714.111328" xlink:href="#DejaVuSans-32"/>
     <use x="745.898438" xlink:href="#DejaVuSans-82"/>
     <use x="810.880859" xlink:href="#DejaVuSans-101"/>
     <use x="872.404297" xlink:href="#DejaVuSans-97"/>
     <use x="933.683594" xlink:href="#DejaVuSans-108"/>
     <use x="961.466797" xlink:href="#DejaVuSans-32"/>
     <use x="993.253906" xlink:href="#DejaVuSans-100"/>
     <use x="1056.730469" xlink:href="#DejaVuSans-97"/>
     <use x="1118.009766" xlink:href="#DejaVuSans-116"/>
     <use x="1157.21875" xlink:href="#DejaVuSans-97"/>
     <use x="1218.498047" xlink:href="#DejaVuSans-32"/>
     <use x="1250.285156" xlink:href="#DejaVuSans-119"/>
     <use x="1332.072266" xlink:href="#DejaVuSans-105"/>
     <use x="1359.855469" xlink:href="#DejaVuSans-116"/>
     <use x="1399.064453" xlink:href="#DejaVuSans-104"/>
     <use x="1462.443359" xlink:href="#DejaVuSans-32"/>
     <use x="1494.230469" xlink:href="#DejaVuSans-76"/>
     <use x="1548.193359" xlink:href="#DejaVuSans-111"/>
     <use x="1609.375" xlink:href="#DejaVuSans-103"/>
     <use x="1672.851562" xlink:href="#DejaVuSans-105"/>
     <use x="1700.634766" xlink:href="#DejaVuSans-115"/>
     <use x="1752.734375" xlink:href="#DejaVuSans-116"/>
     <use x="1791.943359" xlink:href="#DejaVuSans-105"/>
     <use x="1819.726562" xlink:href="#DejaVuSans-99"/>
     <use x="1874.707031" xlink:href="#DejaVuSans-32"/>
     <use x="1906.494141" xlink:href="#DejaVuSans-82"/>
     <use x="1971.476562" xlink:href="#DejaVuSans-101"/>
     <use x="2033" xlink:href="#DejaVuSans-103"/>
     <use x="2096.476562" xlink:href="#DejaVuSans-114"/>
     <use x="2135.339844" xlink:href="#DejaVuSans-101"/>
     <use x="2196.863281" xlink:href="#DejaVuSans-115"/>
     <use x="2248.962891" xlink:href="#DejaVuSans-115"/>
     <use x="2301.0625" xlink:href="#DejaVuSans-105"/>
     <use x="2328.845703" xlink:href="#DejaVuSans-111"/>
     <use x="2390.027344" xlink:href="#DejaVuSans-110"/>
     <use x="2453.40625" xlink:href="#DejaVuSans-32"/>
     <use x="2485.193359" xlink:href="#DejaVuSans-119"/>
     <use x="2566.980469" xlink:href="#DejaVuSans-105"/>
     <use x="2594.763672" xlink:href="#DejaVuSans-116"/>
     <use x="2633.972656" xlink:href="#DejaVuSans-104"/>
     <use x="2697.351562" xlink:href="#DejaVuSans-32"/>
    </g>
    <!--  solver: sag and C = 0.7000000000000001 -->
    <defs>
     <path d="M 11.71875 12.40625 
L 22.015625 12.40625 
L 22.015625 0 
L 11.71875 0 
z
M 11.71875 51.703125 
L 22.015625 51.703125 
L 22.015625 39.3125 
L 11.71875 39.3125 
z
" id="DejaVuSans-58"/>
     <path d="M 10.59375 45.40625 
L 73.1875 45.40625 
L 73.1875 37.203125 
L 10.59375 37.203125 
z
M 10.59375 25.484375 
L 73.1875 25.484375 
L 73.1875 17.1875 
L 10.59375 17.1875 
z
" id="DejaVuSans-61"/>
     <path d="M 8.203125 72.90625 
L 55.078125 72.90625 
L 55.078125 68.703125 
L 28.609375 0 
L 18.3125 0 
L 43.21875 64.59375 
L 8.203125 64.59375 
z
" id="DejaVuSans-55"/>
    </defs>
    <g transform="translate(106.707188 35.472)scale(0.12 -0.12)">
     <use xlink:href="#DejaVuSans-32"/>
     <use x="31.787109" xlink:href="#DejaVuSans-115"/>
     <use x="83.886719" xlink:href="#DejaVuSans-111"/>
     <use x="145.068359" xlink:href="#DejaVuSans-108"/>
     <use x="172.851562" xlink:href="#DejaVuSans-118"/>
     <use x="232.03125" xlink:href="#DejaVuSans-101"/>
     <use x="293.554688" xlink:href="#DejaVuSans-114"/>
     <use x="332.917969" xlink:href="#DejaVuSans-58"/>
     <use x="366.609375" xlink:href="#DejaVuSans-32"/>
     <use x="398.396484" xlink:href="#DejaVuSans-115"/>
     <use x="450.496094" xlink:href="#DejaVuSans-97"/>
     <use x="511.775391" xlink:href="#DejaVuSans-103"/>
     <use x="575.251953" xlink:href="#DejaVuSans-32"/>
     <use x="607.039062" xlink:href="#DejaVuSans-97"/>
     <use x="668.318359" xlink:href="#DejaVuSans-110"/>
     <use x="731.697266" xlink:href="#DejaVuSans-100"/>
     <use x="795.173828" xlink:href="#DejaVuSans-32"/>
     <use x="826.960938" xlink:href="#DejaVuSans-67"/>
     <use x="896.785156" xlink:href="#DejaVuSans-32"/>
     <use x="928.572266" xlink:href="#DejaVuSans-61"/>
     <use x="1012.361328" xlink:href="#DejaVuSans-32"/>
     <use x="1044.148438" xlink:href="#DejaVuSans-48"/>
     <use x="1107.771484" xlink:href="#DejaVuSans-46"/>
     <use x="1139.558594" xlink:href="#DejaVuSans-55"/>
     <use x="1203.181641" xlink:href="#DejaVuSans-48"/>
     <use x="1266.804688" xlink:href="#DejaVuSans-48"/>
     <use x="1330.427734" xlink:href="#DejaVuSans-48"/>
     <use x="1394.050781" xlink:href="#DejaVuSans-48"/>
     <use x="1457.673828" xlink:href="#DejaVuSans-48"/>
     <use x="1521.296875" xlink:href="#DejaVuSans-48"/>
     <use x="1584.919922" xlink:href="#DejaVuSans-48"/>
     <use x="1648.542969" xlink:href="#DejaVuSans-48"/>
     <use x="1712.166016" xlink:href="#DejaVuSans-48"/>
     <use x="1775.789062" xlink:href="#DejaVuSans-48"/>
     <use x="1839.412109" xlink:href="#DejaVuSans-48"/>
     <use x="1903.035156" xlink:href="#DejaVuSans-48"/>
     <use x="1966.658203" xlink:href="#DejaVuSans-48"/>
     <use x="2030.28125" xlink:href="#DejaVuSans-48"/>
     <use x="2093.904297" xlink:href="#DejaVuSans-49"/>
    </g>
   </g>
   <g id="legend_1">
    <g id="patch_7">
     <path d="M 64.6 78.82825 
L 166.29375 78.82825 
Q 168.29375 78.82825 168.29375 76.82825 
L 168.29375 48.472 
Q 168.29375 46.472 166.29375 46.472 
L 64.6 46.472 
Q 62.6 46.472 62.6 48.472 
L 62.6 76.82825 
Q 62.6 78.82825 64.6 78.82825 
z
" style="fill:#ffffff;opacity:0.8;stroke:#cccccc;stroke-linejoin:miter;"/>
    </g>
    <g id="line2d_15">
     <path d="M 66.6 54.570437 
L 86.6 54.570437 
" style="fill:none;stroke:#1f77b4;stroke-dasharray:5.55,2.4;stroke-dashoffset:0;stroke-width:1.5;"/>
    </g>
    <g id="line2d_16"/>
    <g id="text_14">
     <!-- No Skill -->
     <defs>
      <path d="M 9.8125 72.90625 
L 23.09375 72.90625 
L 55.421875 11.921875 
L 55.421875 72.90625 
L 64.984375 72.90625 
L 64.984375 0 
L 51.703125 0 
L 19.390625 60.984375 
L 19.390625 0 
L 9.8125 0 
z
" id="DejaVuSans-78"/>
      <path d="M 53.515625 70.515625 
L 53.515625 60.890625 
Q 47.90625 63.578125 42.921875 64.890625 
Q 37.9375 66.21875 33.296875 66.21875 
Q 25.25 66.21875 20.875 63.09375 
Q 16.5 59.96875 16.5 54.203125 
Q 16.5 49.359375 19.40625 46.890625 
Q 22.3125 44.4375 30.421875 42.921875 
L 36.375 41.703125 
Q 47.40625 39.59375 52.65625 34.296875 
Q 57.90625 29 57.90625 20.125 
Q 57.90625 9.515625 50.796875 4.046875 
Q 43.703125 -1.421875 29.984375 -1.421875 
Q 24.8125 -1.421875 18.96875 -0.25 
Q 13.140625 0.921875 6.890625 3.21875 
L 6.890625 13.375 
Q 12.890625 10.015625 18.65625 8.296875 
Q 24.421875 6.59375 29.984375 6.59375 
Q 38.421875 6.59375 43.015625 9.90625 
Q 47.609375 13.234375 47.609375 19.390625 
Q 47.609375 24.75 44.3125 27.78125 
Q 41.015625 30.8125 33.5 32.328125 
L 27.484375 33.5 
Q 16.453125 35.6875 11.515625 40.375 
Q 6.59375 45.0625 6.59375 53.421875 
Q 6.59375 63.09375 13.40625 68.65625 
Q 20.21875 74.21875 32.171875 74.21875 
Q 37.3125 74.21875 42.625 73.28125 
Q 47.953125 72.359375 53.515625 70.515625 
z
" id="DejaVuSans-83"/>
      <path d="M 9.078125 75.984375 
L 18.109375 75.984375 
L 18.109375 31.109375 
L 44.921875 54.6875 
L 56.390625 54.6875 
L 27.390625 29.109375 
L 57.625 0 
L 45.90625 0 
L 18.109375 26.703125 
L 18.109375 0 
L 9.078125 0 
z
" id="DejaVuSans-107"/>
     </defs>
     <g transform="translate(94.6 58.070437)scale(0.1 -0.1)">
      <use xlink:href="#DejaVuSans-78"/>
      <use x="74.804688" xlink:href="#DejaVuSans-111"/>
      <use x="135.986328" xlink:href="#DejaVuSans-32"/>
      <use x="167.773438" xlink:href="#DejaVuSans-83"/>
      <use x="231.25" xlink:href="#DejaVuSans-107"/>
      <use x="289.160156" xlink:href="#DejaVuSans-105"/>
      <use x="316.943359" xlink:href="#DejaVuSans-108"/>
      <use x="344.726562" xlink:href="#DejaVuSans-108"/>
     </g>
    </g>
    <g id="line2d_17">
     <path d="M 66.6 69.248562 
L 86.6 69.248562 
" style="fill:none;stroke:#ff7f0e;stroke-linecap:square;stroke-width:1.5;"/>
    </g>
    <g id="line2d_18">
     <g>
      <use style="fill:#ff7f0e;stroke:#ff7f0e;" x="76.6" xlink:href="#mc49c567586" y="69.248562"/>
     </g>
    </g>
    <g id="text_15">
     <!-- Trained Model -->
     <defs>
      <path d="M -0.296875 72.90625 
L 61.375 72.90625 
L 61.375 64.59375 
L 35.5 64.59375 
L 35.5 0 
L 25.59375 0 
L 25.59375 64.59375 
L -0.296875 64.59375 
z
" id="DejaVuSans-84"/>
      <path d="M 9.8125 72.90625 
L 24.515625 72.90625 
L 43.109375 23.296875 
L 61.8125 72.90625 
L 76.515625 72.90625 
L 76.515625 0 
L 66.890625 0 
L 66.890625 64.015625 
L 48.09375 14.015625 
L 38.1875 14.015625 
L 19.390625 64.015625 
L 19.390625 0 
L 9.8125 0 
z
" id="DejaVuSans-77"/>
     </defs>
     <g transform="translate(94.6 72.748562)scale(0.1 -0.1)">
      <use xlink:href="#DejaVuSans-84"/>
      <use x="46.333984" xlink:href="#DejaVuSans-114"/>
      <use x="87.447266" xlink:href="#DejaVuSans-97"/>
      <use x="148.726562" xlink:href="#DejaVuSans-105"/>
      <use x="176.509766" xlink:href="#DejaVuSans-110"/>
      <use x="239.888672" xlink:href="#DejaVuSans-101"/>
      <use x="301.412109" xlink:href="#DejaVuSans-100"/>
      <use x="364.888672" xlink:href="#DejaVuSans-32"/>
      <use x="396.675781" xlink:href="#DejaVuSans-77"/>
      <use x="482.955078" xlink:href="#DejaVuSans-111"/>
      <use x="544.136719" xlink:href="#DejaVuSans-100"/>
      <use x="607.613281" xlink:href="#DejaVuSans-101"/>
      <use x="669.136719" xlink:href="#DejaVuSans-108"/>
     </g>
    </g>
   </g>
  </g>
 </g>
 <defs>
  <clipPath id="p997bd48f30">
   <rect height="266.112" width="357.12" x="57.6" y="41.472"/>
  </clipPath>
 </defs>
</svg>
